<?xml version="1.0" encoding="utf-8"?>
<!-- Generator: Adobe Illustrator 19.0.0, SVG Export Plug-In . SVG Version: 6.00 Build 0)  -->
<svg version="1.1" id="图层_1" xmlns="http://www.w3.org/2000/svg" xmlns:xlink="http://www.w3.org/1999/xlink" x="0px" y="0px"
	 viewBox="22.8 3.5 78.8 34" style="enable-background:new 22.8 3.5 78.8 34;" xml:space="preserve">
<style type="text/css">
	.st0{enable-background:new    ;}
	.st1{fill:#FFFFFF;}
</style>
<g class="st0">
	<path class="st1" d="M32.8,12c-1.1,0.1-2.1,0.2-2.9,0.2s-1.4-0.1-1.8-0.3c-0.3-0.2-0.5-0.3-0.5-0.5c0-0.2,0.2-0.3,0.7-0.3
		c1.6-0.3,4.3-0.9,8-2c1-0.3,1.9-0.4,2.6-0.4s1.2,0.1,1.5,0.4c0.3,0.3,0.4,0.5,0.4,0.7c0,0.2-0.2,0.4-0.5,0.5
		c-0.3,0.2-1.1,0.4-2.4,0.7c-1.3,0.3-2.3,0.5-3.2,0.6c0.4,0.4,0.6,0.7,0.6,0.9c0,0.2-0.1,0.5-0.3,0.8l-3.1,5.5
		c1.2-0.1,2.4-0.4,3.6-1.1c0.3-0.2,0.7-0.3,1-0.3c0.3,0,0.9,0.2,1.6,0.6c0.7,0.4,1.1,0.8,1.1,1.2c0,0.2-0.1,0.3-0.2,0.4
		c-0.4,0.3-0.8,0.9-1.1,1.6c-0.3,0.7-0.5,1.3-0.5,1.7s0.1,0.7,0.2,0.9c0.1,0.2,0.2,0.4,0.2,0.5s-0.1,0.3-0.3,0.3
		c-0.2,0.1-0.8,0.2-1.9,0.4c-1.1,0.2-2.4,0.3-4,0.4c0,0.8,0,1.5-0.2,2.1c-0.1,0.6-0.3,0.9-0.5,0.9s-0.4-0.2-0.6-0.6S30,26.7,30,25.7
		s-0.1-2.3-0.3-3.8c-1.4,1.8-2.7,3.2-4.1,4.3c-1.3,1.1-2.2,1.6-2.6,1.6c-0.1,0-0.2-0.1-0.2-0.2s0.2-0.4,0.5-0.7
		c2.4-2.3,4.4-4.7,6-7.1c-0.2-0.6-0.2-1.1-0.2-1.3c0-0.2,0.1-0.4,0.3-0.4c0.2,0,0.5,0.1,0.9,0.2C32.1,15.4,32.8,13.3,32.8,12z
		 M31.8,24.5c1.1-0.1,2-0.2,2.7-0.5s1.1-0.8,1.3-1.6c0.2-0.8,0.3-1.5,0.3-2.1s-0.3-0.9-0.8-0.9c-0.9,0-2.1,0.1-3.4,0.4
		c0.1,0.8,0.1,1.6,0.1,2.3C31.8,22.9,31.8,23.7,31.8,24.5z M48.9,15.2c1.8-0.4,2.9-0.6,3.3-0.8c0.4-0.1,0.8-0.2,1.2-0.2
		s1.1,0.3,2.1,0.8s1.6,1.1,1.6,1.6c0,0.2-0.1,0.4-0.2,0.5c-0.4,0.5-0.6,1.8-0.6,4c0,1.3,0,2.9,0.1,4.9s0.2,3.3,0.2,4
		c0.1,0.7,0.1,1.3,0.1,1.7c0,1.5-0.3,2.8-1,4c-0.7,1.2-1.2,1.8-1.6,1.8c-0.3,0-0.6-0.4-1-1.1c-0.4-0.7-1-1.6-2-2.8
		c-0.3-0.3-0.4-0.6-0.4-0.7c0-0.1,0.1-0.2,0.2-0.2c0.1,0,0.4,0,0.8,0.1c0.4,0.1,0.8,0.1,1.3,0.1c0.4,0,0.7-0.2,0.9-0.5
		c0.2-0.3,0.3-1.7,0.3-4.3c0-2.5-0.1-4.9-0.2-7.2c-0.1-2.2-0.3-3.6-0.4-4.1s-0.4-0.8-0.7-0.9c-0.3-0.1-0.9-0.2-1.7-0.2
		c-0.8,0-1.8,0.1-3,0.4c0.7,0.5,1,0.9,1,1.3s0,0.8-0.1,1.1s-0.1,1-0.2,1.8c1.3-0.3,2-0.5,2.3-0.5c0.7,0,1.1,0.2,1.1,0.6
		c0,0.3-0.2,0.5-0.5,0.6c-0.3,0.1-1.3,0.3-3,0.6l-0.1,3.3l2.2-0.4c0.4-0.1,0.7-0.2,1-0.2c0.3,0,0.5,0.1,0.7,0.2
		c0.2,0.1,0.3,0.3,0.3,0.4c0,0.3-0.2,0.5-0.5,0.6c-0.3,0.1-1.6,0.4-3.7,0.9c0,0.6,0,1.6,0,3s-0.2,2.4-0.5,3.2
		c-0.3,0.8-0.6,1.2-0.9,1.2s-0.4-0.5-0.4-1.6c0-1.1,0.1-2.9,0.2-5.5c-1,0.2-1.7,0.2-2.3,0.2s-0.9-0.1-1.2-0.2
		c-0.3-0.1-0.4-0.3-0.4-0.5s0.3-0.3,0.8-0.4c0.6-0.1,1.6-0.3,3-0.6c0.1-1.2,0.1-2.3,0.2-3.4c-0.9,0.1-1.5,0.2-2,0.2
		c-0.9,0-1.4-0.2-1.4-0.5c0-0.2,0.3-0.4,0.8-0.4l2.6-0.5c0-2.4-0.2-3.9-0.5-4.3c-1.7,0.4-3,0.6-3.8,0.6c-0.2,4.7-0.6,8-1.1,10.1
		s-1.3,3.8-2.4,5.1c-1.1,1.3-2.1,2.3-3.1,3s-1.6,1-1.7,1c-0.1,0-0.3,0-0.3-0.1c0-0.2,0.3-0.5,0.8-1c2.2-2,3.7-4.2,4.5-6.7
		c0.9-2.4,1.3-5.1,1.3-8.1c0-1.7-0.1-2.7-0.4-3.2s-0.4-0.8-0.4-1s0.2-0.3,0.5-0.3c0.4,0,0.9,0.1,1.6,0.4l5-0.8
		c1.1-1.6,2.2-3.5,3.3-5.8c-1.8,0.5-2.9,0.7-3.4,0.7s-1-0.2-1.5-0.5c-1.3,1.9-2.5,3.2-3.5,4.1s-1.7,1.3-2,1.3
		c-0.1,0-0.2-0.1-0.2-0.2c0-0.1,0.1-0.3,0.4-0.6c1.8-2.1,3-4.1,3.8-5.8c0.8-1.8,1.2-3,1.2-3.6c0-0.2,0-0.4-0.1-0.5
		c0-0.2-0.1-0.3-0.1-0.4c0-0.3,0.2-0.5,0.5-0.5c0.4,0,1,0.2,1.8,0.6c0.9,0.4,1.3,0.7,1.3,1c0,0.2-0.1,0.4-0.3,0.6
		c-0.2,0.2-0.6,0.8-1.3,1.7C46.5,8.3,46,9,45.8,9.3c0.7,0.1,1.5,0,2.4-0.3c0.9-0.3,1.7-0.7,2.5-1.2c0.8-0.1,1.1-0.2,1.5-0.2
		s0.9,0.2,1.7,0.7c0.8,0.5,1.1,0.8,1.1,1.1c0,0.3-0.3,0.5-0.9,0.8c-0.6,0.3-1.3,0.7-1.9,1.3S50.6,13.3,48.9,15.2z"/>
	<path class="st1" d="M83.3,29.8c2.8,1.5,5.3,2.5,7.5,3s5.3,0.9,9.4,1.1c1,0.1,1.4,0.2,1.4,0.5c0,0.2-0.2,0.3-0.5,0.5s-1.7,0.5-4,1
		s-3.8,0.8-4.6,0.8s-1.6-0.2-2.4-0.5s-2.4-1.3-4.9-2.9c-2.4-1.6-4.3-2.9-5.6-4c-1.3-1.1-2.5-1.9-3.7-2.6c-0.8,1.6-1.8,3.1-3.1,4.4
		c-1.3,1.3-2.4,2.2-3.3,2.8s-1.5,0.8-1.8,0.8c-0.2,0-0.4-0.1-0.4-0.2s0.1-0.3,0.4-0.6c2.8-2.6,4.7-4.8,5.6-6.8s1.4-3.4,1.4-4.3
		l-0.1-1.1c0-0.4,0.2-0.6,0.5-0.6s0.9,0.2,1.5,0.7c0.7,0.5,1,0.9,1,1.2c0,0.3-0.1,0.6-0.4,0.9c-0.1,0.2-0.4,0.8-0.8,1.8
		c1.4,1,3,2,5,3.1l0.1-7.2c0-1.4-0.2-2.4-0.6-2.8C80,19,79.2,19,78.6,19c-0.6,0-1.2-0.1-1.7-0.4s-0.7-0.5-0.7-0.7s0.3-0.3,0.8-0.4
		c2.8-0.6,5.5-1.2,8.1-1.9c0.4-0.1,0.9-0.2,1.4-0.2s1.1,0.1,1.7,0.3s0.9,0.5,0.9,0.7c0,0.3-0.4,0.5-1.1,0.7s-2.5,0.6-5.4,1.3
		c0.9,0.4,1.3,0.8,1.3,1.3c0,0.1,0,0.2,0,0.3c-0.2,0.6-0.3,1.7-0.4,3.4c1.3-0.5,2.3-0.9,3-1.2s1.3-0.4,1.8-0.4s1,0.1,1.5,0.3
		c0.5,0.2,0.8,0.4,0.8,0.7c0,0.4-0.6,0.8-1.8,1.1c-1.2,0.3-2.2,0.5-3.1,0.5s-1.6-0.1-2.1-0.2L83.3,29.8z M74.4,11.8
		c1.6-0.1,4.6-0.6,9-1.4s6.7-1.3,6.9-1.4c0.5-0.3,1-0.4,1.6-0.4c0.5,0,1.4,0.5,2.7,1.4c1.2,0.9,1.8,1.6,1.8,2s-0.3,0.7-1,0.9
		c-1.4,0.3-2.5,0.7-3.5,1.2c-0.9,0.5-1.5,0.7-1.6,0.7s-0.2-0.1-0.2-0.2s0.2-0.6,0.6-1.3c0.4-0.7,0.6-1.3,0.6-1.8
		c0-0.4-0.4-0.7-1.1-0.7s-2.1,0.1-4,0.4c-2,0.3-4,0.6-6.2,1.1C78,12.8,76.6,13,76,13s-1.1-0.1-1.5-0.2c-0.2,1.5-0.7,2.7-1.4,3.6
		c-0.7,0.9-1.3,1.3-1.8,1.3c-0.3,0-0.6-0.2-0.7-0.6c-0.2-0.4-0.3-0.8-0.3-1.1c0-0.3,0.2-0.8,0.6-1.3s0.8-1.1,1.1-1.7
		c0.3-0.6,0.5-1.2,0.6-1.9c0.1-0.7,0.3-1,0.7-1C73.7,10.2,74,10.7,74.4,11.8z M81.7,4.7c1.2,0,2.1,0.3,2.8,0.9c0.7,0.6,1,1.4,1,2.3
		c0,0.4-0.1,0.7-0.3,0.9C85,9,84.8,9.1,84.3,9.1c-0.6,0-1.5-0.6-2.8-1.7s-1.9-1.9-1.9-2.2S80.3,4.7,81.7,4.7z"/>
</g>
</svg>
