<?xml version="1.0" encoding="utf-8"?>
<!-- Generator: Adobe Illustrator 19.0.0, SVG Export Plug-In . SVG Version: 6.00 Build 0)  -->
<svg version="1.1" id="图层_1" xmlns="http://www.w3.org/2000/svg" xmlns:xlink="http://www.w3.org/1999/xlink" x="0px" y="0px"
	 viewBox="20.2 3.8 76.2 33.3" style="enable-background:new 20.2 3.8 76.2 33.3;" xml:space="preserve">
<style type="text/css">
	.st0{enable-background:new    ;}
	.st1{fill:#FFFFFF;}
</style>
<g class="st0">
	<path class="st1" d="M32.9,24.9c0,0.2-0.2,0.4-0.6,0.6c-5.3,2.3-8.1,3.6-8.5,3.9s-0.7,0.5-1.1,0.5c-0.3,0-0.8-0.3-1.5-0.9
		s-1-1-1-1.3s0.4-0.4,1.2-0.4c0.8,0,2-0.2,3.4-0.6c1.5-0.4,3.6-1,6.5-1.9c0.4-0.1,0.7-0.2,1-0.2C32.8,24.7,32.9,24.8,32.9,24.9z
		 M29.9,13.6c1.2-1.8,1.8-3.1,1.8-3.9V9.2c0-0.3,0.2-0.5,0.5-0.5c0.3,0,0.8,0.2,1.4,0.7s0.9,0.8,0.9,1.1c0,0.2-0.2,0.5-0.7,0.8
		c-0.4,0.3-0.9,0.8-1.3,1.5c-1.5,2.3-3.4,4.5-5.7,6.6c-0.3,0.3-0.4,0.5-0.4,0.6s0.2,0.2,0.6,0.1c3-0.4,4.8-0.6,5.2-0.6
		c0.5,0,0.7,0.1,0.7,0.3s-0.1,0.3-0.4,0.4c-3.8,1-6.4,1.9-7.9,2.7c-0.2-0.1-0.4,0-0.5,0c-0.3,0-0.6-0.2-0.8-0.7
		c-0.2-0.5-0.2-0.8-0.2-1.1c0-0.3,0.1-0.5,0.2-0.6c0.2-0.1,0.5-0.3,0.9-0.5c0.5-0.2,1.1-0.8,2.1-1.7s1.9-2.2,2.9-3.7
		c-2.5,0.3-4.5,0.8-6.1,1.6c-0.1,0.1-0.3,0.1-0.5,0.1s-0.3-0.1-0.5-0.4c-0.1-0.3-0.2-0.6-0.2-0.9c0-0.7,0.5-1.3,1.5-1.7
		c0.5-0.2,1.2-1.3,2.2-3.3s1.5-3.6,1.5-4.6c0-0.3,0-0.5-0.1-0.7s-0.1-0.4-0.1-0.6c0-0.2,0.2-0.3,0.5-0.3s0.9,0.3,1.6,0.9
		c0.8,0.6,1.2,1,1.2,1.3c0,0.3-0.1,0.5-0.4,0.8c-0.3,0.2-0.7,0.8-1.2,1.7s-1.6,2.5-3.3,5c-0.1,0.2-0.2,0.3-0.2,0.5
		c0,0.1,0.2,0.2,0.7,0.2C26.7,13.8,28,13.8,29.9,13.6z M38.7,20.8c1.4-0.4,2.2-0.6,2.5-0.7c0.2-0.1,0.5-0.1,0.9-0.1s0.7,0.1,0.9,0.2
		c0.2,0.1,0.4,0.3,0.4,0.4s-0.2,0.3-0.7,0.4c-1.8,0.4-3.1,0.8-4.1,1.1c-0.4,2.5-1.1,4.5-2,6.1s-2.1,3-3.5,4.3
		c-1.5,1.3-2.3,1.9-2.6,1.9c-0.1,0-0.1-0.1-0.1-0.2s0.1-0.3,0.4-0.6c1.9-2.1,3.4-4,4.3-5.7s1.6-3.4,1.9-5.3c-0.8,0.2-1.4,0.5-2,0.7
		c-0.5,0.3-1,0.4-1.3,0.4c-0.3,0-0.7-0.2-1.1-0.5S32,22.6,32,22.4c0-0.2,0.1-0.3,0.2-0.3c0.1,0,0.5,0,1.1,0s1.9-0.3,3.9-0.8
		c0.2-1.1,0.3-2.2,0.3-3.2c-0.9,0.2-1.6,0.3-2.1,0.3s-0.8,0-1.1-0.1s-0.4-0.2-0.4-0.4c0-0.2,0.2-0.3,0.6-0.3c0.4-0.1,1.4-0.3,3-0.8
		c0.1-1.2,0.1-2.4,0.1-3.4c-0.7,0.2-1.4,0.2-2,0.2s-1-0.1-1.3-0.2c-0.3-0.1-0.4-0.3-0.4-0.4c0-0.1,0.2-0.2,0.7-0.3
		c0.5-0.1,1.5-0.3,3-0.8c0.1-3.8-0.1-6-0.7-6.7c-0.3-0.4-0.4-0.7-0.4-0.9c0-0.3,0.2-0.4,0.6-0.4c0.4,0,1,0.2,1.9,0.6
		c0.9,0.4,1.3,0.8,1.3,1.3c0,0.2-0.1,0.4-0.3,0.7c-0.2,0.3-0.3,0.7-0.4,1.2s-0.2,1.7-0.3,3.5c0.9-0.3,1.5-0.5,1.7-0.5
		c0.3,0,0.7,0.1,0.9,0.2c0.3,0.1,0.4,0.3,0.4,0.5s-0.1,0.3-0.3,0.4c-0.2,0.1-1.2,0.4-2.8,1c0,0.9-0.1,2-0.2,3.3
		c0.3-0.1,0.6-0.2,0.8-0.3c0.2-0.1,0.4-0.1,0.8-0.1c0.4,0,0.7,0.1,0.9,0.2c0.3,0.1,0.4,0.3,0.4,0.3c0,0.2-1,0.6-3,1.2
		C38.9,18.8,38.8,19.8,38.7,20.8z M44.7,11.3c2.1-0.1,3.9-0.8,5.4-2c0.3-0.3,0.7-0.4,1.1-0.4c0.5,0,1,0.3,1.8,0.8
		c0.7,0.5,1.1,0.9,1.1,1.1c0,0.2-0.2,0.5-0.7,0.7c-0.4,0.2-0.9,0.6-1.3,0.9c-0.4,0.4-0.9,1-1.5,1.7s-1,1.4-1.3,1.8
		c-0.3,0.4-0.4,0.7-0.4,0.9c0,0.3,0.1,0.6,0.4,0.9c1.7,1.5,2.9,2.8,3.6,3.7c0.7,0.9,1.1,1.7,1.1,2.5c0,0.7-0.2,1.7-0.5,2.7
		c-0.3,1-0.7,1.6-1.2,1.6c-0.2,0-0.5-0.1-0.8-0.4c-0.3-0.3-0.9-0.7-1.8-1.3c-0.9-0.6-1.6-1.1-2.2-1.4s-0.8-0.5-0.8-0.6
		s0.1-0.2,0.3-0.2c0.2,0,0.6,0.1,1.3,0.2c0.7,0.1,1.3,0.2,1.8,0.2s0.9-0.1,1-0.2c0.2-0.2,0.2-0.4,0.2-0.7c0-1.4-1-3.2-3-5.5
		c-0.3-0.4-0.5-0.7-0.5-0.9c0-0.2,0.1-0.6,0.4-1.2c0.3-0.6,0.6-1.4,1-2.4c0.3-1,0.5-1.6,0.5-2c0-0.3-0.2-0.5-0.5-0.5
		c-0.1,0-0.2,0-0.3,0c-1.1,0.3-2.2,0.5-3.4,0.6c0.2,6.3,0.2,10.9,0.2,13.8c0,4.8-0.1,7.9-0.4,9.3c-0.3,1.4-0.6,2.1-0.9,2.1
		c-0.2,0-0.3-0.3-0.4-0.9c-0.1-0.6-0.2-2.2-0.2-4.8l0.1-14.6c0-2.1-0.2-3.6-0.6-4.4c-0.1-0.3-0.2-0.5-0.2-0.7c0-0.3,0.2-0.5,0.7-0.5
		C44.2,11.2,44.4,11.3,44.7,11.3z"/>
	<path class="st1" d="M78.1,29.1c2.8,1.5,5.3,2.5,7.5,3c2.2,0.5,5.3,0.9,9.4,1.1c1,0.1,1.4,0.2,1.4,0.5c0,0.2-0.2,0.3-0.5,0.5
		s-1.7,0.5-4,1c-2.2,0.6-3.7,0.8-4.5,0.8s-1.6-0.2-2.4-0.5s-2.4-1.3-4.9-2.9c-2.4-1.6-4.3-2.9-5.6-4c-1.3-1.1-2.5-1.9-3.7-2.6
		C70,27.5,69,29,67.8,30.3c-1.3,1.3-2.4,2.2-3.3,2.8c-0.9,0.6-1.5,0.8-1.8,0.8c-0.2,0-0.4-0.1-0.4-0.2s0.1-0.3,0.4-0.6
		c2.8-2.6,4.7-4.8,5.6-6.8s1.4-3.4,1.4-4.3l-0.1-1.1c0-0.4,0.2-0.6,0.5-0.6s0.9,0.2,1.5,0.7c0.7,0.5,1,0.9,1,1.2
		c0,0.3-0.1,0.6-0.4,0.9c0,0.2-0.3,0.8-0.7,1.8c1.4,1,3,2,5,3.1l0.1-7.2c0-1.4-0.2-2.4-0.6-2.8c-0.9,0.2-1.7,0.2-2.3,0.2
		c-0.6,0-1.2-0.1-1.7-0.4s-0.7-0.5-0.7-0.7s0.3-0.3,0.8-0.4c2.8-0.6,5.5-1.2,8.1-1.9c0.4-0.1,0.9-0.2,1.4-0.2s1.1,0.1,1.7,0.3
		s0.9,0.5,0.9,0.7c0,0.3-0.4,0.5-1.1,0.7c-0.7,0.2-2.5,0.6-5.4,1.3c0.9,0.4,1.3,0.8,1.3,1.3c0,0.1,0,0.2,0,0.3
		c-0.2,0.6-0.3,1.7-0.4,3.4c1.3-0.5,2.3-0.9,3-1.2s1.3-0.4,1.8-0.4s1,0.1,1.5,0.3c0.5,0.2,0.8,0.4,0.8,0.7c0,0.4-0.6,0.8-1.8,1.1
		c-1.2,0.3-2.2,0.5-3.1,0.5s-1.6-0.1-2.1-0.2L78.1,29.1z M69.2,11.1c1.6-0.1,4.6-0.6,9-1.4s6.7-1.3,6.9-1.4c0.5-0.3,1-0.4,1.6-0.4
		c0.5,0,1.4,0.5,2.7,1.4c1.2,0.9,1.8,1.6,1.8,2s-0.3,0.7-1,0.9c-1.4,0.3-2.5,0.7-3.5,1.2c-0.9,0.5-1.5,0.7-1.6,0.7S85,13.9,85,13.9
		c0-0.1,0.2-0.6,0.6-1.3s0.6-1.3,0.6-1.8c0-0.4-0.4-0.7-1.1-0.7s-2.1,0.1-4,0.4c-2,0.3-4,0.6-6.2,1.1c-2.1,0.5-3.5,0.7-4.1,0.7
		s-1.1-0.1-1.5-0.2c-0.2,1.5-0.7,2.7-1.4,3.6c-0.7,0.9-1.3,1.3-1.8,1.3c-0.3,0-0.6-0.2-0.7-0.6c-0.2-0.4-0.3-0.8-0.3-1.1
		s0.2-0.8,0.6-1.3s0.8-1.1,1.1-1.7c0.3-0.6,0.5-1.2,0.6-1.9s0.3-1,0.7-1C68.4,9.4,68.8,9.9,69.2,11.1z M76.4,3.9
		c1.2,0,2.1,0.3,2.8,0.9c0.7,0.6,1,1.4,1,2.3c0,0.4-0.1,0.7-0.3,0.9c-0.2,0.2-0.4,0.3-0.8,0.3c-0.6,0-1.5-0.6-2.8-1.7
		s-1.9-1.9-1.9-2.2C74.4,4.1,75.1,3.9,76.4,3.9z"/>
</g>
</svg>
