<?xml version="1.0" encoding="utf-8"?>
<!-- Generator: Adobe Illustrator 19.0.0, SVG Export Plug-In . SVG Version: 6.00 Build 0)  -->
<svg version="1.1" id="图层_1" xmlns="http://www.w3.org/2000/svg" xmlns:xlink="http://www.w3.org/1999/xlink" x="0px" y="0px"
	 viewBox="138.7 3.9 313.6 34.2" style="enable-background:new 138.7 3.9 313.6 34.2;" xml:space="preserve">
<style type="text/css">
	.st0{enable-background:new    ;}
	.st1{fill:#FFFFFF;}
</style>
<g class="st0">
	<path class="st1" d="M141.4,29.5c0.2,0,0.5,0.1,0.7,0.4c0.3,0.3,0.4,1,0.4,2c0,1-0.3,2.3-0.8,3.7c-0.5,1.4-1.1,2.1-1.7,2.1
		c-0.3,0-0.7-0.2-0.9-0.7c-0.3-0.5-0.4-1-0.4-1.6s0.1-1,0.3-1.3s0.5-0.9,1-1.7c0.4-0.9,0.7-1.6,0.8-2.1S141.2,29.5,141.4,29.5z
		 M154.9,19.2c2.5-0.5,4-0.9,4.4-1.2c0.3-0.2,0.6-0.2,1-0.2s1.2,0.3,2.5,0.8s1.9,0.9,1.9,1.2c0,0.3-0.2,0.5-0.6,0.8
		c-0.9,0.6-1.5,1.3-1.9,1.9s-0.6,1.1-0.6,1.5s0.1,0.7,0.3,0.8c0.2,0.2,0.3,0.4,0.3,0.6s-0.1,0.5-0.3,0.6s-1.9,0.4-5,0.8
		s-5.5,0.6-7,0.6c0,0.5,0,0.9-0.1,1.1s-0.3,0.3-0.5,0.3c-0.5,0-0.9-0.7-1.3-2c-0.8-3-1.6-5.1-2.3-6.1c-0.2-0.2-0.2-0.5-0.2-0.7
		s0.2-0.3,0.7-0.3s1.1,0.1,2,0.4c1.1,0,2.7-0.1,4.9-0.4c0-3.6,0-6.2-0.1-8c-0.1-1.7-0.2-3-0.4-3.7s-0.5-1.2-0.9-1.6
		c-0.4-0.4-0.6-0.7-0.6-0.9c0-0.3,0.3-0.5,0.8-0.5c0.6,0,1.4,0.2,2.5,0.6c1.1,0.4,1.7,0.9,1.7,1.5c0,0.2-0.1,0.4-0.2,0.7
		c-0.3,1.3-0.6,2.8-0.6,4.4c2-0.5,3.7-1,5-1.8c0.5-0.3,1-0.4,1.4-0.4s0.9,0.1,1.3,0.3c0.5,0.2,0.7,0.5,0.7,0.8s-0.2,0.6-0.5,0.7
		c-0.4,0.2-1.2,0.4-2.5,0.8c-1.3,0.4-2.4,0.6-3.2,0.6s-1.6-0.1-2.2-0.3L154.9,19.2z M147.7,31c0.3,0,0.9,0.2,1.9,0.6
		c0.9,0.4,1.6,0.8,1.9,1.4c0.3,0.5,0.4,1.1,0.4,1.8s-0.3,1-0.9,1c-0.6,0-1.3-0.7-2.3-2c-0.9-1.3-1.4-2.1-1.4-2.4
		C147.4,31.1,147.5,31,147.7,31z M149.7,26.1l4.9-0.6c1.7-0.2,2.7-0.4,3.2-0.5s0.8-0.3,0.9-0.5c0.2-0.2,0.4-0.9,0.7-1.9
		s0.4-1.6,0.4-1.8c0-0.5-0.4-0.8-1.3-0.8s-2.5,0.2-4.8,0.5s-3.9,0.6-4.8,0.8C149,22.4,149.3,24,149.7,26.1z M160.3,34
		c0,0.8-0.2,1.2-0.7,1.2c-0.7,0-1.5-0.7-2.5-2c-1-1.3-1.5-2.2-1.5-2.4s0.1-0.4,0.4-0.4c0.6,0,1.4,0.3,2.6,1
		C159.7,31.9,160.3,32.8,160.3,34z M163.2,29.5c0.5,0,1.6,0.3,3.3,0.8s2.9,1.2,3.6,2.1c0.7,0.9,1,1.7,1,2.6c0,0.3-0.1,0.6-0.3,0.9
		c-0.2,0.2-0.5,0.3-0.8,0.3s-0.8-0.2-1.3-0.6c-0.5-0.4-1.3-1.1-2.4-2.2c-1.1-1.1-2-1.9-2.6-2.6c-0.6-0.6-0.9-1-0.9-1.1
		C162.9,29.5,163,29.5,163.2,29.5z"/>
	<path class="st1" d="M195.5,20.7c4.6-0.6,7.4-1,8.4-1.2c1.1-0.2,2.2-0.4,3.3-0.4s2,0.3,2.7,0.9s1,1,1,1.3c0,0.4-0.7,0.6-2,0.6
		l-3.7-0.2c-2.1,0-5.3,0.2-9.7,0.7l-0.3,9.6l7.5-0.8c-0.2-2.1-0.5-3.3-0.9-3.7c-0.5-0.4-0.7-0.8-0.7-1.1s0.2-0.5,0.7-0.5
		s1.1,0.2,1.8,0.6s1.2,0.7,1.4,0.9c0.2,0.2,0.4,0.5,0.4,0.8s0,0.6-0.1,1s-0.1,1-0.1,1.8v2.2c0,2.9-0.4,4.3-1.2,4.3s-1.2-0.7-1.2-2.1
		c0-0.9,0-1.9-0.1-3c-4.9,0.7-8.7,1.3-11.4,1.8s-4.7,1.2-6,1.9c-0.5,0.3-0.9,0.4-1.2,0.4s-0.7-0.2-1-0.7s-0.5-0.9-0.5-1.4
		c0-0.4,0.3-0.8,0.8-1.2s1-0.9,1.2-1.6c0.3-0.7,0.4-1.3,0.4-2s-0.1-1.2-0.2-1.5s-0.2-0.6-0.2-0.8c0-0.4,0.2-0.6,0.5-0.6
		c0.5,0,0.9,0.2,1.4,0.7c0.4,0.4,0.6,1.1,0.6,1.9s-0.3,2-0.8,3.6l6.5-0.8l0.2-9.6c-5.2,0.7-8.8,1.3-10.8,1.8
		c-0.2,0.1-0.4,0.1-0.7,0.1c-1,0-1.9-0.2-2.6-0.6s-1.1-0.7-1.1-1s0.5-0.4,1.4-0.4c1.7,0,6.3-0.5,13.9-1.4c0.1-3.1,0.1-4.9,0.1-5.6
		c-2.3,0.3-4,0.4-5,0.4s-1.7-0.1-2.1-0.3c-0.4-0.2-0.6-0.4-0.6-0.6c0-0.2,0.3-0.3,0.8-0.4c1.7-0.2,4-0.5,6.9-1.1
		c0-2-0.1-3.7-0.4-5.1c-0.3-1.4-0.6-2.4-1-2.8c-0.4-0.4-0.6-0.8-0.6-1c0-0.4,0.3-0.6,0.9-0.6c0.6,0,1.5,0.2,2.6,0.7s1.7,1,1.7,1.7
		c0,0.3-0.1,0.7-0.3,1.1c-0.2,0.5-0.3,1-0.4,1.7c-0.1,0.7-0.1,2-0.2,3.9c1.3-0.2,2.4-0.5,3.4-0.8s1.8-0.5,2.5-0.5s1.2,0.2,1.7,0.5
		c0.4,0.3,0.6,0.6,0.6,0.8c0,0.4-0.6,0.8-1.7,1s-3.3,0.6-6.5,1.1L195.5,20.7z"/>
	<path class="st1" d="M225.7,30.2c1.1,0.2,2.1,0.5,3,0.8c4.4,1.4,7.6,2.3,9.8,2.7s4.2,0.6,6.1,0.6s3.5,0,4.7-0.1l3.3-0.1
		c0.7,0,1,0.1,1,0.4c0,0.2-0.1,0.3-0.3,0.5s-1.3,0.5-3.1,1.2c-1.9,0.6-3.2,1-4.1,1.3c-0.9,0.2-1.9,0.4-3,0.4s-2.5-0.4-4.3-1.1
		c-5.6-2.4-9.1-3.8-10.6-4.3s-2.9-0.7-4.2-0.7s-2.7,0.3-4.2,1c-0.2,0.1-0.4,0.1-0.6,0.1s-0.6-0.2-1.2-0.7c-0.6-0.5-0.9-0.8-0.9-1
		s0.1-0.3,0.2-0.4s0.5-0.1,1.1-0.1s1.6-0.1,3-0.2c1.4-0.2,2.4-0.2,3.1-0.2c-0.1-1.4-0.5-2.9-1.3-4.4c-0.2-0.5-0.4-1.1-0.4-1.9
		s0.3-2,0.8-3.5c0.1-0.2,0.1-0.3,0.1-0.4s-0.1-0.1-0.3-0.1s-0.7,0.1-1.4,0.4c-0.8,0.3-1.3,0.4-1.7,0.4s-0.8-0.1-1.3-0.2
		s-0.8-0.3-0.8-0.5s0.2-0.4,0.5-0.4c2.1-0.3,3.7-1.1,4.8-2.3c0.3-0.3,0.6-0.5,1-0.5s1,0.2,1.8,0.6c0.9,0.4,1.3,0.7,1.3,1
		c0,0.2-0.1,0.5-0.4,0.7c-0.7,0.6-1.3,1.4-1.8,2.3s-0.7,1.8-0.7,2.6c0,0.3,0,0.6,0.1,0.8c0.6,1.7,1,2.9,1,3.6S225.8,29.7,225.7,30.2
		z M227.5,11.4c0,1-0.3,1.6-1,1.6c-0.6,0-1.4-0.7-2.4-2c-1.1-1.4-1.6-2.2-1.6-2.4c0-0.3,0.1-0.4,0.4-0.4c0.3,0,0.9,0.1,1.8,0.4
		c1,0.2,1.7,0.6,2.1,1C227.2,9.9,227.5,10.5,227.5,11.4z M242.5,19c1.6-0.3,2.7-0.5,3.2-0.7c0.5-0.1,1-0.2,1.7-0.2s1.3,0.2,2,0.6
		s1,0.7,1,1s-0.2,0.5-0.5,0.6s-0.7,0.2-1.2,0.1s-1.2-0.1-2.2-0.1s-2.3,0.1-4,0.2c0,2.7,0,4.4,0.1,5s0.1,1.6,0.1,2.9
		c0,1.4-0.1,2.5-0.4,3.3c-0.3,0.9-0.5,1.3-0.7,1.3s-0.5-0.4-0.9-1.1c-0.3-0.7-0.5-1.5-0.5-2.3s0.1-1.7,0.4-2.7
		c0.2-1,0.4-3.1,0.5-6.3c-1.8,0.2-3.4,0.3-4.8,0.6c-0.2,2.2-0.6,4-1.3,5.2c-0.7,1.2-1.6,2.2-2.8,2.9c-1.2,0.7-1.9,1-2.2,1
		c-0.1,0-0.1,0-0.1-0.1c0-0.2,0.2-0.5,0.6-0.9c1.4-1.4,2.4-2.6,2.9-3.6s0.9-2.4,1.1-4.2c-2.1,0.5-3.5,0.7-4.1,0.7s-1.1-0.2-1.6-0.5
		c-0.4-0.3-0.7-0.6-0.7-0.7s0.4-0.3,1.3-0.3c0.9-0.1,2.6-0.3,5.1-0.6c0.1-1.9,0.2-3.5,0.2-4.7c-0.5,0.1-1.2,0.1-1.9,0.1
		s-1.3-0.1-1.6-0.2c-0.4-0.1-0.6-0.3-0.6-0.6s0.4-0.4,1.1-0.4s1.7-0.2,3-0.4c-0.2-2.9-0.6-4.8-1.3-5.7c-0.2-0.3-0.3-0.5-0.3-0.7
		s0.2-0.3,0.5-0.3s0.9,0.1,1.8,0.4c0.9,0.3,1.3,0.6,1.3,1.1c0,0.2,0,0.4-0.1,0.7s-0.1,0.7-0.1,1.4s0,1.7,0,2.9
		c1.8-0.3,3.3-0.6,4.6-0.9c-0.1-4.5-0.3-6.9-0.7-7.4s-0.5-0.8-0.5-1.1c0-0.3,0.2-0.4,0.7-0.4s1.1,0.3,2,0.8s1.3,1.1,1.3,1.8
		c0,0.2-0.1,0.4-0.2,0.6c-0.4,0.9-0.7,2.6-1,5.2c1.1-0.3,2-0.5,2.6-0.5s1.1,0.1,1.4,0.4c0.4,0.3,0.6,0.5,0.6,0.8s-0.2,0.5-0.5,0.6
		c-0.4,0.2-1.7,0.4-4.1,0.6C242.6,16.1,242.5,17.7,242.5,19z M241.1,14.5c-0.5,0.1-2.1,0.3-4.6,0.8c0,1.4-0.1,2.9-0.2,4.7l4.7-0.8
		C241.1,17.2,241.1,15.7,241.1,14.5z"/>
	<path class="st1" d="M272.3,13.5c-0.5-0.8-1.1-1.5-1.8-2s-1.6-1.1-2.9-1.7c-0.4-0.2-0.6-0.4-0.6-0.7s0.3-0.4,0.8-0.4
		c0.3,0,0.9,0.1,1.7,0.3s1.5,0.5,2.2,0.9s1.3,1.1,1.8,2.1c3,5,5.2,8.6,6.9,10.9c1.6,2.2,3.2,3.9,4.8,5s3.9,2.2,6.9,3.5
		c1,0.4,1.5,0.7,1.5,0.9s-0.2,0.3-0.7,0.4s-1.8,0.1-3.8,0.1s-3.5-0.1-4.2-0.3c-0.8-0.2-1.4-0.7-2-1.4c-0.6-0.7-1.8-2.6-3.6-5.7
		c-1.9-3.1-3.6-6.1-5.2-9c-1.4,3.4-3.2,6.4-5.3,8.9c-2.1,2.6-4.2,4.5-6.3,5.9s-3.5,2-4.1,2c-0.2,0-0.3-0.1-0.3-0.3s0.3-0.5,0.8-0.8
		c3-2.1,5.6-4.7,8.1-7.9S271,17.3,272.3,13.5z"/>
	<path class="st1" d="M310.5,14.1c0,0.3-0.1,0.6-0.4,0.9c-0.3,0.3-1.1,1.7-2.6,4.1s-2.9,4.3-4.4,5.7c-1.5,1.4-2.8,2.4-3.9,3.1
		c-1.1,0.7-1.9,0.9-2.3,0.9c-0.2,0-0.3-0.1-0.3-0.3c0-0.2,0.2-0.4,0.5-0.7c3.1-2.6,5.5-5.3,7.2-8s2.5-4.8,2.5-6.1
		c0-0.3,0-0.6-0.1-0.8c-0.1-0.2-0.1-0.4-0.1-0.5c0-0.5,0.2-0.7,0.7-0.7c0.4,0,1.1,0.3,1.9,0.9C310.1,13.1,310.5,13.6,310.5,14.1z
		 M318.3,30c-0.9-1.5-1.5-2.4-1.6-2.8c-0.2-0.4-0.3-0.6-0.3-0.8s0.1-0.2,0.2-0.2c0.3,0,1.2,0.4,2.5,1.2c1.3,0.8,2.3,1.7,3,2.6
		s1.1,1.8,1.1,2.6c0,0.8-0.1,1.5-0.3,1.8c-0.2,0.3-0.5,0.6-0.7,0.6c-0.3,0-0.5-0.1-0.7-0.2c-0.2-0.1-0.6-0.7-1.2-1.6
		c-0.6-0.9-1.1-1.6-1.4-2.2c-6.6,1.6-10.9,2.9-12.8,3.9c-0.6,0.3-1,0.5-1.2,0.5s-0.4-0.2-0.5-0.5c-0.1-0.3-0.1-0.7-0.1-1.3
		c0-1.2,0.3-1.8,0.8-2c1.7-0.5,3.2-2.1,4.5-4.8s2-4.6,2-5.5v-0.4c0-0.5,0.2-0.7,0.6-0.7c0.4,0,1,0.3,1.8,0.8c0.8,0.6,1.2,1,1.2,1.2
		s-0.1,0.5-0.4,0.8s-1.2,1.4-2.6,3.4c-1.4,2-2.7,3.7-3.9,5C311.2,31.2,314.6,30.7,318.3,30z M333.6,22.9c0,0.1-0.1,0.2-0.3,0.3
		c-0.2,0.1-1,0.2-2.4,0.2c-1.4,0.1-2.6,0.1-3.4,0.1s-1.6-0.1-2.2-0.2c-0.6-0.2-1.1-0.4-1.5-0.8c-0.4-0.4-1.4-1.7-2.9-3.9
		s-2.8-4.2-3.9-6.2c-1.8-3-3.3-4.8-4.3-5.4c-0.5-0.3-0.7-0.5-0.7-0.7s0.2-0.3,0.7-0.3s1.1,0.1,1.9,0.4s1.5,0.9,2.1,1.9
		c2.2,3.8,4.5,6.7,6.6,8.8c2.1,2.1,5.3,3.8,9.3,5.1C333.3,22.4,333.6,22.6,333.6,22.9z"/>
	<path class="st1" d="M344.1,20.7c1.6-0.1,3.5-0.3,5.6-0.7c2.1-0.4,3.4-0.7,3.8-1c0.4-0.2,0.8-0.3,1.2-0.3s1.2,0.2,2.2,0.5
		c1.1,0.4,1.6,0.8,1.6,1.3c0,0.2-0.1,0.5-0.4,0.6c-0.7,0.5-1.3,1.2-1.6,2.1c-0.4,0.9-0.5,1.4-0.5,1.6c0,0.4,0.1,0.7,0.4,1.1
		c0.3,0.3,0.4,0.6,0.4,0.8c0,0.5-0.5,0.8-1.6,0.9c-1.1,0.1-3.9,0.4-8.4,1.1c0.1,0.6,0,1.1-0.1,1.5c-0.1,0.3-0.3,0.5-0.5,0.5
		s-0.4-0.1-0.6-0.4s-0.3-0.6-0.4-1c-0.8-3.9-1.7-6.4-2.7-7.4c-0.5-0.5-0.8-0.9-0.8-1.1s0.2-0.4,0.6-0.4
		C342.6,20.3,343.2,20.4,344.1,20.7z M357.3,13.5c0,0.3-0.2,0.5-0.7,0.7c-0.4,0.2-1.6,0.5-3.5,0.9c-1.9,0.4-3.4,0.6-4.5,0.6
		c-1.1,0-2-0.1-2.8-0.4c-0.8-0.3-1.1-0.5-1.1-0.7s0.3-0.3,0.8-0.3c2-0.2,3.9-0.5,5.6-1s3.1-0.6,4.2-0.6
		C356.6,12.7,357.3,12.9,357.3,13.5z M346.4,27c1.8-0.3,3.3-0.6,4.5-0.8c1.1-0.2,1.8-0.4,2-0.5s0.4-0.4,0.6-0.7s0.3-1,0.5-1.8
		c0.1-0.8,0.2-1.4,0.2-1.9c0-0.4-0.2-0.7-0.6-0.7c-0.2,0-1.3,0.2-3.3,0.5s-3.6,0.6-4.8,0.9C345.6,23.2,346,24.9,346.4,27z
		 M366.9,8.3c0,0.3-0.2,0.7-0.6,1.2c-0.7,0.9-1,3.6-1,8l0.2,8.6c0,4.1-0.2,6.8-0.7,8.2c-0.5,1.4-1,2.3-1.7,2.9S362,38,361.7,38
		s-0.5-0.2-0.8-0.7c-0.6-1.3-1.6-2.6-2.9-4c-0.4-0.4-0.6-0.7-0.6-0.8s0.1-0.2,0.2-0.2c0.1,0,0.4,0.1,0.8,0.2c1.2,0.4,2,0.6,2.4,0.6
		c0.4,0,0.7,0,0.8-0.1c0.1-0.1,0.2-0.2,0.3-0.3s0.2-0.8,0.4-1.9c0.2-1.1,0.4-2.5,0.5-4.1c0.1-1.6,0.3-3.4,0.4-5.2
		c0.1-1.8,0.1-3.6,0.1-5.4s-0.1-3.5-0.2-4.9c-0.1-1.5-0.4-2.3-0.8-2.5c-0.4-0.2-1.1-0.3-2-0.3c-0.9,0-2.3,0.1-4.3,0.4
		c-1.9,0.3-3.4,0.5-4.5,0.7c-1,0.2-1.7,0.3-1.9,0.3c-0.6,0-1.1-0.2-1.7-0.7c-0.6-0.5-0.9-0.8-0.9-0.9c0-0.1,0.1-0.2,0.2-0.2
		c0.1,0,0.6,0,1.3,0c2,0,4.5-0.2,7.3-0.7c2.9-0.4,4.6-0.8,5.3-1.2c0.3-0.2,0.6-0.2,1-0.2c0.4,0,1.3,0.3,2.6,1
		C366.2,7.2,366.9,7.8,366.9,8.3z"/>
	<path class="st1" d="M384.5,9.5c1.6-0.1,4.2-0.3,7.9-0.7s6.1-0.7,7.3-0.9s2-0.3,2.4-0.5c0.5-0.2,0.9-0.3,1.2-0.3
		c0.3,0,1.1,0.4,2.2,1.1c1.1,0.7,1.6,1.3,1.6,1.7c0,0.2-0.1,0.6-0.4,1s-0.5,1-0.6,1.7c-0.1,0.7-0.1,1.7-0.1,3.1s0.1,3.8,0.2,7.2
		l0.4,9.2c0,1.3-0.4,2.6-1.1,4c-0.7,1.3-1.3,2-1.9,2c-0.3,0-0.6-0.3-0.9-0.8s-0.7-1.1-1.3-1.9c-0.5-0.7-1-1.3-1.4-1.7
		c-0.4-0.4-0.6-0.7-0.6-0.8s0.1-0.2,0.3-0.2c0.2,0,0.6,0.1,1.2,0.3c0.6,0.2,1.2,0.3,1.6,0.3c0.4,0,0.7-0.1,0.8-0.4
		c0.1-0.3,0.3-1.1,0.4-2.4c0.1-1.3,0.2-3.3,0.2-5.9s-0.1-5.4-0.2-8.3c-0.1-2.9-0.3-4.6-0.4-5.2c-0.1-0.6-0.4-1-0.7-1.2
		c-0.4-0.2-0.9-0.4-1.6-0.4s-2.6,0.2-5.7,0.5c-3.1,0.3-6.6,0.7-10.6,1.2c-0.1,5.4-0.3,10.3-0.7,14.9s-0.7,7.3-1.1,8.3
		c-0.4,1-0.7,1.5-1.1,1.5c-0.3,0-0.6-0.4-0.9-1.2s-0.4-1.5-0.4-1.9s0.1-0.8,0.3-1.2c0.5-1.3,1-3.4,1.3-6.3s0.5-6,0.5-9
		s-0.1-4.9-0.4-5.5s-0.4-1-0.4-1.3s0.2-0.4,0.5-0.4S383.3,9.1,384.5,9.5z M389.8,19.6c0.7-1.9,1.1-3.3,1.1-4.2c0-0.3,0-0.5-0.1-0.7
		c-0.1-0.2-0.1-0.4-0.1-0.5c0-0.4,0.2-0.6,0.5-0.6s0.8,0.2,1.3,0.5s0.8,0.6,0.8,0.9c0,0.3-0.1,0.6-0.3,0.9c-0.2,0.3-0.9,2.1-2.2,5.3
		c0.9,1.2,1.5,2,1.8,2.6s0.4,1.1,0.4,1.7c0,1-0.2,1.6-0.7,1.6c-0.4,0-0.7-0.4-1-1.1s-0.7-1.6-1.4-2.7c-1.1,2.3-2.2,4-3.2,5.1
		c-1,1.2-1.7,1.7-2.1,1.7c-0.1,0-0.1-0.1-0.1-0.2s0.1-0.4,0.4-0.7c1.2-1.7,2.6-4.2,4.2-7.6c-1.4-2.5-2.4-4-2.9-4.7
		c-0.2-0.2-0.2-0.5-0.2-0.7s0.1-0.3,0.3-0.3c0.1,0,0.2,0,0.3,0.1c0.1,0.1,0.6,0.7,1.5,1.7C388.9,18.5,389.5,19.2,389.8,19.6z
		 M398.8,21c2.1,2.3,3.2,4,3.2,5c0,1.3-0.2,1.9-0.7,1.9c-0.3,0-0.8-0.5-1.2-1.5c-0.5-1-1.1-2.1-2-3.5c-1.1,2-2.2,3.6-3.3,4.8
		s-1.9,1.8-2.4,1.8c-0.2,0-0.2-0.1-0.2-0.2c0-0.2,0.2-0.4,0.5-0.7c1.5-1.7,2.9-4.2,4.3-7.4c-0.5-0.7-1.4-2-2.8-3.7
		c-0.2-0.2-0.3-0.5-0.3-0.7s0.1-0.3,0.4-0.3c0.2,0,0.4,0.1,0.6,0.4l1.3,1.2c0.6,0.6,1.1,1.1,1.4,1.4c0.6-1.9,1-3.5,1-4.8
		c0-0.5,0-0.8-0.1-1.1c-0.1-0.3-0.1-0.5-0.1-0.8s0.1-0.4,0.4-0.4s0.8,0.2,1.5,0.6c0.7,0.4,1,0.8,1,1.3c0,0.2-0.1,0.4-0.2,0.7
		C400.8,15.6,400,17.6,398.8,21z"/>
	<path class="st1" d="M426.3,28c2.6-1.4,4.1-2.1,4.6-2.1c0.3,0,0.4,0.1,0.4,0.4c0,0.2-0.5,0.7-1.6,1.4c-4.8,3.1-7.7,5.1-8.6,5.9
		c-0.3,0.3-0.7,0.4-1,0.4s-0.9-0.3-1.6-0.8s-1.1-1-1.1-1.3c0-0.3,0.4-0.6,1.2-0.6s2.8-0.8,5.8-2.3v-8c-1.5,0.3-2.5,0.4-3.2,0.4
		s-1.2-0.1-1.6-0.3c-0.4-0.2-0.6-0.4-0.6-0.6s0.4-0.3,1.1-0.5c0.7-0.1,2.1-0.5,4.3-1.1c0-2.9-0.1-5.1-0.3-6.6
		c-0.2-1.5-0.5-2.5-0.9-2.9c-0.4-0.4-0.6-0.8-0.6-1.1s0.3-0.4,0.8-0.4s1.3,0.2,2.4,0.6c1.1,0.4,1.5,0.9,1.5,1.6c0,0.3-0.1,0.6-0.3,1
		s-0.4,2.8-0.5,7.2c1.4-0.5,2.3-0.7,2.8-0.7s0.9,0.1,1.2,0.2c0.3,0.2,0.5,0.4,0.5,0.7s-0.2,0.6-0.7,0.9s-1.8,0.7-3.8,1.2L426.3,28z
		 M441.6,31.9c1.9-0.2,3.4-0.4,4.3-0.6c0.9-0.2,1.8-0.2,2.5-0.2s1.5,0.2,2.5,0.7c0.9,0.5,1.4,1,1.4,1.5c0,0.6-0.6,0.9-1.8,0.9
		c-0.3,0-0.7,0-1.1-0.1c-1.9-0.3-3.9-0.4-6-0.4c-2.1,0-4.4,0.1-6.9,0.4c-2.5,0.3-4.3,0.6-5.4,0.9c-1.1,0.3-1.9,0.4-2.3,0.4
		c-0.5,0-1-0.2-1.6-0.6c-0.6-0.4-0.9-0.7-0.9-1c0-0.2,0.4-0.4,1.2-0.4l6.1-0.6c0-8.8-0.3-13.7-1-14.7c-0.2-0.3-0.3-0.7-0.3-1
		s0.2-0.4,0.6-0.4c0.4,0,1,0.3,1.8,0.9s1.2,1.1,1.2,1.4s0,0.6-0.1,1c-0.2,0.8-0.3,5-0.2,12.6c1-0.1,2.3-0.2,3.9-0.4
		c0.1-6.2,0.2-10.8,0.2-13.9s-0.1-5.5-0.2-7.2c-0.1-1.7-0.4-2.8-0.7-3.4c-0.4-0.6-0.6-1-0.6-1.3s0.2-0.4,0.6-0.4
		c0.4,0,1.2,0.3,2.4,0.8c1.2,0.6,1.8,1.1,1.8,1.7c0,0.2,0,0.4-0.1,0.6c-0.4,1.3-0.7,4.7-0.9,10.3c2.5-0.9,4-1.4,4.7-1.4
		s1.3,0.1,1.7,0.4c0.5,0.2,0.7,0.5,0.7,0.7s-0.1,0.4-0.4,0.6c-0.2,0.2-0.9,0.4-1.9,0.6c-1,0.3-1.9,0.4-2.7,0.4
		c-0.8,0-1.5-0.1-2.3-0.3L441.6,31.9z"/>
</g>
</svg>
