<?xml version="1.0" encoding="utf-8"?>
<!-- Generator: Adobe Illustrator 19.0.0, SVG Export Plug-In . SVG Version: 6.00 Build 0)  -->
<svg version="1.1" id="图层_1" xmlns="http://www.w3.org/2000/svg" xmlns:xlink="http://www.w3.org/1999/xlink" x="0px" y="0px"
	 viewBox="121.9 -23.2 272.6 86.5" style="enable-background:new 121.9 -23.2 272.6 86.5;" xml:space="preserve">
<style type="text/css">
	.st0{enable-background:new    ;}
	.st1{fill:#666666;}
</style>
<g>
	<g class="st0">
		<path class="st1" d="M177-10c-1.4,2.3-2.8,4-4.1,5.2s-2.1,1.7-2.4,1.7c-0.1,0-0.2-0.1-0.2-0.2c0-0.1,0.1-0.3,0.4-0.6
			c1.2-1.4,2.2-2.7,3-3.7s1.6-2.4,2.4-4c0.8-1.6,1.4-3,1.8-4.1c0.4-1.2,0.6-2,0.6-2.5s0-0.8-0.1-1c0-0.2-0.1-0.3-0.1-0.4
			c0-0.3,0.2-0.5,0.6-0.5c0.4,0,0.9,0.3,1.7,0.9c0.7,0.6,1.1,1.1,1.1,1.4c0,0.2-0.1,0.4-0.3,0.6s-0.7,1-1.5,2.4s-1.5,2.6-2.1,3.6
			c0.5,0.5,0.9,0.9,1.1,1.3c0.2,0.3,0.3,0.8,0.3,1.4l-0.1,3.2c0,1.5,0,3.4,0,5.6v3.1c0,0.5-0.1,1.4-0.3,2.6s-0.5,1.8-1,1.8
			c-0.3,0-0.6-0.3-0.8-1s-0.4-1.3-0.4-1.9s0.1-1.1,0.2-1.5c0.2-0.4,0.3-1.6,0.5-3.4s0.2-3.7,0.2-5.7C177.3-7.6,177.2-9,177-10z
			 M189.6-0.1c2,1.4,3.9,2.5,5.7,3.3s4.6,1.4,8.5,2.1c0.4,0.1,0.6,0.2,0.6,0.4c0,0.1,0,0.1-0.1,0.2c-0.1,0.1-0.6,0.2-1.5,0.4
			c-0.9,0.2-1.9,0.4-3,0.6c-1.1,0.2-1.9,0.3-2.6,0.3s-1.2-0.1-1.7-0.4c-0.5-0.3-2.7-2.2-6.6-5.7c-1.2,1.9-2.7,3.2-4.6,4
			c-1.8,0.8-3.1,1.2-3.9,1.2c-0.2,0-0.3,0-0.3-0.1c0-0.2,0.5-0.5,1.4-1c3.1-1.7,5.1-3.5,6-5.3c-2-1.6-3.5-2.4-4.4-2.6
			c-0.9-0.2-1.4-0.4-1.4-0.5c0-0.2,0.1-0.3,0.3-0.4c0.2-0.1,0.5-0.2,0.9-0.2s0.9,0.1,1.6,0.4c0.7,0.3,1.8,1,3.5,2.3
			c0.4-1.1,0.7-2.4,0.8-4c-1.5,0.2-2.6,0.4-3.3,0.5c-0.1,0.1-0.2,0.1-0.3,0.1c-0.4,0-0.7-0.4-1-1.3c-0.3-0.7-0.6-1.4-0.9-2.1
			c-0.3-0.7-0.6-1.1-0.9-1.3c-0.2-0.2-0.4-0.4-0.4-0.5s0.2-0.3,0.5-0.3c0.4,0,1,0.2,1.9,0.5c1.3-0.2,2.8-0.5,4.7-1
			c0-1.1,0-2.2,0-3.2c-1.3,0.3-2.3,0.5-2.9,0.5c-0.6,0-1.1,0-1.5-0.1s-0.7-0.2-0.7-0.3c0-0.2,0.5-0.4,1.4-0.5s2.1-0.4,3.7-0.9
			c-0.2-3.1-0.4-4.9-0.8-5.4c-0.4-0.5-0.5-0.8-0.5-1.1c0-0.3,0.2-0.4,0.5-0.4c0.4,0,1,0.2,1.8,0.5c0.9,0.3,1.3,0.7,1.3,1.2
			c0,0.2-0.1,0.5-0.3,1s-0.3,1.7-0.4,3.6c2-0.8,3.3-1.2,3.8-1.2s1,0.1,1.4,0.2s0.6,0.3,0.6,0.5c0,0.3-0.5,0.6-1.3,0.9
			c-0.9,0.3-2.4,0.7-4.4,1.2v3.2c1.8-0.5,3.1-0.9,3.7-1.2c0.7-0.3,1.2-0.4,1.6-0.4s1,0.2,1.8,0.6s1.2,0.7,1.2,1s-0.3,0.5-0.8,0.8
			c-0.6,0.3-1.1,0.7-1.5,1.3c-0.5,0.6-0.7,0.9-0.7,1.1s0.1,0.3,0.2,0.5c0.1,0.2,0.2,0.3,0.2,0.4c0,0.3-0.4,0.5-1.2,0.6l-4.8,0.8
			C190.5-2.8,190.1-1.1,189.6-0.1z M189.4-9.4c-2.3,0.6-3.7,0.9-4.4,0.9c0.1,0.4,0.3,1.5,0.8,3.1l3.4-0.6L189.4-9.4z M190.8-6.3
			c1.4-0.3,2.3-0.5,2.6-0.5c0.3-0.1,0.6-0.2,0.8-0.4c0.2-0.2,0.4-0.6,0.6-1.3c0.2-0.7,0.3-1.2,0.3-1.6s-0.2-0.5-0.5-0.5
			s-0.6,0-0.8,0.1L191-9.8C190.9-8.7,190.9-7.6,190.8-6.3z"/>
		<path class="st1" d="M216.1-18.1c2.3-0.1,4.9-0.5,7.7-0.9c2.8-0.5,4.8-0.9,5.9-1.3c0.4-0.1,0.8-0.2,1.2-0.2s1,0.3,2,0.9
			s1.5,1.1,1.5,1.4s-0.1,0.6-0.4,1c-0.2,0.4-0.4,0.9-0.5,1.5s-0.1,1.9-0.1,3.8s0.1,4.4,0.2,7.4c0.1,3,0.2,4.8,0.3,5.4s0.1,1,0.1,1.2
			c0,1.4-0.3,2.8-1,4.2s-1.3,2.1-1.7,2.1c-0.3,0-0.5-0.3-0.7-0.8c-0.5-1.2-1.3-2.4-2.4-3.6c-0.2-0.2-0.3-0.4-0.3-0.5
			s0.1-0.2,0.3-0.2s0.5,0.1,1.1,0.3c0.6,0.2,1,0.3,1.4,0.3s0.6-0.1,0.8-0.4s0.2-1.2,0.3-2.8c0-1.6,0.1-3,0.1-4.2
			c0-3.7-0.1-7-0.3-9.7c-0.2-2.8-0.4-4.3-0.6-4.7s-0.5-0.5-1-0.5s-2.8,0.3-7.1,0.9c0.6,0.3,1.1,0.5,1.5,0.8s0.5,0.5,0.5,0.9
			c0,0.1-0.1,0.4-0.2,0.7c-0.1,0.3-0.2,1.2-0.3,2.7c1-0.3,1.8-0.4,2.4-0.4c0.6,0,1.1,0.1,1.5,0.2s0.6,0.3,0.6,0.5s-0.2,0.4-0.6,0.5
			c-0.4,0.1-1.7,0.4-3.9,0.7c0,0.8-0.1,2.4-0.1,4.6c1.5-0.4,2.5-0.5,3.1-0.5s1.1,0.1,1.4,0.2s0.5,0.3,0.5,0.5s-0.3,0.4-1,0.6
			c-0.6,0.2-2,0.5-4,0.8c-0.1,3.6-0.3,6.2-0.6,7.8s-0.6,2.4-0.9,2.4c-0.3,0-0.4-0.6-0.4-1.7c0-3.2,0-5.9,0.1-8.2
			c-1.3,0.2-2.3,0.3-2.7,0.3c-0.5,0-0.9-0.1-1.2-0.2c-0.3-0.1-0.5-0.3-0.5-0.4s0.2-0.3,0.5-0.3c1.1-0.2,2.4-0.4,3.9-0.8l0.2-4.7
			c-1.3,0.2-2.2,0.3-2.7,0.3s-0.9-0.1-1.2-0.2s-0.5-0.3-0.5-0.5s0.2-0.3,0.5-0.3c1.6-0.2,2.9-0.4,3.9-0.6c0-1,0-1.7,0-2.3
			c0-1.6-0.1-2.7-0.4-3.1c-1.7,0.3-2.9,0.4-3.7,0.4s-1.3,0-1.7,0c0.1,2.7-0.1,6-0.4,10c-0.3,3.9-0.9,6.7-1.8,8.3
			c-0.9,1.6-1.9,2.9-3.2,3.9S209.4,7,209.1,7C209,7,209,7,209,6.9c0-0.2,0.2-0.5,0.6-1c1.8-1.8,3-3.6,3.6-5.5
			c0.7-1.8,1.1-4.1,1.3-6.9c0.2-2.7,0.3-5.1,0.3-7s-0.3-3.2-0.8-3.8c-0.2-0.2-0.3-0.5-0.3-0.7s0.2-0.3,0.6-0.3
			S215.2-18.5,216.1-18.1z"/>
		<path class="st1" d="M261.2-8.1c2.3-0.3,4.3-0.6,6.3-0.9c1.5-0.3,2.6-0.4,3.4-0.4s1.5,0.3,2.3,0.8c0.7,0.5,1.1,1,1.1,1.4
			s-0.4,0.6-1.3,0.6c-0.4,0-0.9-0.1-1.6-0.2c-0.7-0.1-1.9-0.2-3.7-0.2s-3.9,0.1-6.3,0.3c0.2,1.8,0.3,3.4,0.3,4.6s-0.2,2.5-0.3,3.9
			s-0.4,2.5-0.8,3.5s-0.9,1.6-1.4,2.1s-0.9,0.8-1.1,0.8c-0.3,0-0.6-0.2-0.9-0.6c-0.8-1-1.8-1.9-2.9-2.8c-0.5-0.4-0.7-0.6-0.7-0.7
			s0.3-0.1,0.9-0.1c1.1,0.1,1.9,0.2,2.5,0.2s1-0.2,1.3-0.5c0.3-0.4,0.6-1.2,0.9-2.5s0.4-3,0.4-5.1c0-0.8,0-1.7-0.1-2.6
			c-3.8,0.4-7.4,0.9-10.9,1.7c-0.8,0.2-1.4,0.3-1.8,0.3s-1-0.2-1.7-0.6c-0.7-0.4-1-0.7-1-0.8c0-0.2,0.4-0.3,1.1-0.3
			c0.7,0,2.1-0.1,4.2-0.4l10-1.3c-0.2-2-0.3-3.3-0.4-3.9l-1.9,0.4c-1.2,0.2-2.2,0.3-2.9,0.3s-1.3-0.1-1.7-0.3
			c-0.5-0.2-0.7-0.4-0.7-0.5c0-0.2,0.5-0.3,1.4-0.4s2.8-0.4,5.6-1.1c-0.3-1.9-0.9-3.1-1.9-3.7c-1.6,0.4-2.8,0.6-3.7,0.6
			s-1.4-0.1-1.4-0.2s0.2-0.3,0.7-0.4c3-0.8,5.2-1.6,6.8-2.4c1.6-0.7,2.5-1.3,2.6-1.8s0.4-0.7,0.8-0.7s1.1,0.3,2.1,0.9s1.5,1,1.5,1.4
			c0,0.3-0.4,0.5-1.2,0.6c-0.8,0.1-1.9,0.3-3.3,0.7c-1.4,0.4-2.8,0.8-4.2,1.1c1.2,0.3,2,0.6,2.3,1s0.6,1.2,0.7,2.4
			c1.9-0.4,3.2-0.6,3.8-0.6c0.6,0,1.1,0.1,1.5,0.3s0.6,0.4,0.6,0.6c0,0.5-0.6,0.8-1.9,1s-2.5,0.4-3.7,0.6
			C261-9.9,261.1-8.6,261.2-8.1z"/>
		<path class="st1" d="M288.6-13.7c1.5-0.5,2.5-0.7,3-0.7s0.8,0.1,1,0.2s0.3,0.3,0.3,0.5c0,0.5-1.5,1.2-4.4,2
			c-0.1,1.4-0.1,2.8-0.1,4.2c1.8,0,2.9,0.3,3.3,0.8s0.6,0.9,0.6,1.3s-0.1,0.7-0.2,0.8c-0.1,0.2-0.3,0.3-0.5,0.3
			c-0.6,0-1.6-0.9-3.2-2.6c0,2.4,0,4.4,0.1,6c0,1.6,0.1,2.7,0.1,3.3c0,3-0.3,4.5-1,4.5c-0.3,0-0.6-0.4-1-1.1s-0.6-1.4-0.6-2
			s0.2-1.4,0.5-2.3s0.6-4.2,0.7-10c-0.7,1.9-1.5,3.6-2.6,5.1s-2.1,2.6-3.2,3.3c-1.1,0.8-1.8,1.2-2.1,1.2c-0.1,0-0.2-0.1-0.2-0.2
			s0.2-0.4,0.5-0.7c1.2-1.1,2.4-2.8,3.8-5s2.5-4.3,3.3-6.4c-1.8,0.5-3.2,0.7-4.2,0.7s-1.7-0.1-2-0.3c-0.4-0.2-0.6-0.4-0.6-0.6
			s0.2-0.3,0.7-0.4s1.5-0.3,3.1-0.6c1.6-0.3,2.7-0.6,3.5-0.8c0-2.3,0-4.2-0.2-5.7s-0.4-2.5-0.6-2.9c-0.3-0.4-0.4-0.7-0.4-1
			s0.2-0.4,0.5-0.4s0.9,0.2,1.8,0.7c0.9,0.4,1.3,0.8,1.3,1.2c0,0.1,0,0.3-0.1,0.6c-0.2,0.7-0.4,1.6-0.5,2.6
			C288.8-17,288.7-15.6,288.6-13.7z M296.4-14.2c0.8-0.1,1.6-0.3,2.4-0.7c0.8-0.4,1.3-0.7,1.6-1.1c0.3-0.4,0.6-0.6,1-0.6
			s1,0.2,1.8,0.7s1.2,0.8,1.2,1.1c0,0.3-0.3,0.7-0.8,1.2s-1,1.6-1.3,3.3s-0.5,3.4-0.5,5.2s0.3,3.2,0.9,4.2s1.8,1.5,3.5,1.5
			c1.3,0,2.1-0.3,2.5-0.9s0.7-1.7,0.9-3.4c0.1-0.7,0.2-1.1,0.3-1.1c0.2,0,0.3,0.3,0.3,0.9c0.1,0.6,0.2,1.4,0.5,2.4s0.5,1.7,0.6,1.9
			s0.2,0.4,0.2,0.6c0,0.4-0.5,0.9-1.5,1.4s-2.2,0.7-3.5,0.7c-2.2,0-3.9-0.6-4.9-1.9s-1.5-3.2-1.5-5.9c0-0.7,0.1-2.1,0.2-4.3
			c0.2-2.2,0.3-3.5,0.3-3.9c0.1-0.4,0.1-0.8,0.1-1c0-0.3-0.1-0.4-0.3-0.4c-0.2,0-0.6,0.1-1.3,0.4c-0.7,0.2-1.4,0.5-2.2,0.8
			c0,2.3-0.1,4.6-0.4,7s-0.8,4.3-1.5,5.7s-1.6,2.5-2.6,3.2c-1.1,0.7-1.8,1.1-2.2,1.1c-0.2,0-0.3-0.1-0.3-0.2s0.2-0.4,0.6-0.6
			c1.4-1.1,2.5-2.5,3.3-4.3s1.1-4.6,1.1-8.3c0-2-0.2-3.2-0.6-3.7s-0.6-0.8-0.6-1s0.2-0.3,0.5-0.3S295.5-14.5,296.4-14.2z"/>
		<path class="st1" d="M328-9c-3.4,0.4-5.7,0.7-6.9,0.9c-1.2,0.3-2,0.4-2.5,0.4s-1-0.2-1.6-0.5s-0.8-0.6-0.8-0.8
			c0-0.2,0.4-0.3,1.3-0.3s4.6-0.3,11.1-1s10.3-1.1,11.4-1.3c1.1-0.2,2-0.3,2.6-0.3s1.3,0.2,2.1,0.6c0.7,0.4,1.1,0.8,1.1,1.2
			c0,0.5-0.6,0.7-1.7,0.7c-0.3,0-0.6,0-0.9,0c-1.8-0.1-3.8-0.2-6.1-0.2s-5,0.2-8,0.5c0.9,0.5,1.3,0.9,1.3,1.2c0,0.1-0.1,0.2-0.2,0.4
			c-0.8,0.8-1.7,1.8-2.5,3c1.1-0.2,2.2-0.4,3.4-0.7c1.2-0.3,2-0.5,2.2-0.6c0.3-0.1,0.5-0.2,0.7-0.2c0.5,0,1.3,0.4,2.3,1.1
			c1.1,0.7,1.6,1.3,1.6,1.7c0,0.2-0.2,0.5-0.5,0.7s-0.6,0.6-0.8,1.2c-0.2,0.6-0.5,1.8-0.8,3.6s-1,3.3-2,4.4c-1,1.2-1.8,1.8-2.5,1.8
			c-0.4,0-0.7-0.2-0.9-0.6c-0.5-0.9-1.3-1.9-2.4-3c-0.2-0.2-0.4-0.4-0.4-0.6s0.1-0.2,0.3-0.2s0.4,0,0.6,0.1c1.1,0.3,2,0.5,2.6,0.5
			s1.1-0.2,1.4-0.5c0.3-0.4,0.7-1.3,1.2-2.7s0.7-2.8,0.7-4.1c0-0.5-0.2-0.8-0.5-1.1s-0.7-0.4-1-0.4c-0.4,0-1.1,0-2,0.1
			s-1.8,0.2-2.4,0.4s-1.3,0.5-2,0.9c-0.3,0.2-0.6,0.3-0.8,0.3c-0.6,0-0.9-0.3-0.9-1s0.3-1.1,0.8-1.3s1.1-0.7,1.6-1.5
			s0.8-1.5,0.8-2.3C328-8.7,328-8.9,328-9z M327-19.9c1.2,0,2.6-0.1,4.1-0.4s2.6-0.6,3.3-1c0.2-0.1,0.5-0.2,0.9-0.2s1.1,0.2,2.1,0.7
			s1.5,0.9,1.5,1.4c0,0.2-0.1,0.4-0.4,0.6c-1.2,1-2,1.7-2.3,2.1c-0.3,0.5-0.5,0.8-0.5,1.1s0.1,0.5,0.3,0.7c0.2,0.2,0.3,0.4,0.3,0.6
			s-0.1,0.3-0.3,0.4c-0.2,0.1-1.2,0.2-2.8,0.4c-1.7,0.2-3.4,0.3-5.3,0.4c-0.1,0.8-0.3,1.2-0.7,1.2c-0.2,0-0.5-0.2-0.6-0.5
			s-0.3-1.2-0.5-2.4c-0.2-1.9-0.7-3.3-1.4-4.2c-0.2-0.3-0.3-0.5-0.3-0.7s0.2-0.3,0.6-0.3C325.5-20.4,326.1-20.2,327-19.9z M328-14.2
			c2.5-0.3,4-0.5,4.3-0.6c0.4-0.1,0.7-0.3,1.1-0.5c0.3-0.2,0.6-0.7,0.8-1.6c0.2-0.9,0.3-1.4,0.3-1.8c0-0.3-0.1-0.6-0.2-0.7
			s-0.4-0.2-0.7-0.2c-0.7,0-2.7,0.2-6,0.7C327.8-17.4,327.9-15.9,328-14.2z"/>
	</g>
	<g class="st0">
		<path class="st1" d="M134.3,32.5c-1-0.5-1.8-1-2.5-1.5s-1.3-1.1-1.9-1.8c-0.7-0.9-1-1.4-0.8-1.6s0.8-0.3,1.8-0.2
			c0.8,0.1,1.4,0.2,1.9,0.3c0.5,0.1,1,0.3,1.3,0.5s0.6,0.5,0.9,0.9c0.2,0.4,0.5,0.8,0.7,1.3c0.6-1,1.2-2,1.6-2.9
			c0.5-1,0.9-2,1.3-3.1c0.2-0.6,0.3-1,0.2-1.1s-0.4,0-0.9,0.1c-0.7,0.3-1.4,0.5-1.9,0.6s-1,0.2-1.5,0.2s-0.9-0.1-1.3-0.3
			c-0.4-0.2-0.9-0.4-1.5-0.7c-0.9-0.5-1.3-0.9-1.2-1.1c0.1-0.3,0.9-0.4,2.2-0.5c1.4-0.1,2.7-0.3,4-0.6c1.3-0.3,2.2-0.7,2.9-1.2
			c0.4-0.3,0.8-0.5,1.1-0.6s0.6-0.2,0.9-0.1c0.3,0.1,0.7,0.2,1.1,0.5c0.4,0.3,0.9,0.6,1.5,1.1c0.8,0.7,1.2,1.2,1.2,1.7
			c0,0.4-0.4,1-1.3,1.6c-0.4,0.3-0.8,0.8-1.4,1.5c-0.6,0.7-1.2,1.6-1.7,2.5c-0.6,1.1-1.1,2-1.6,2.8c-0.4,0.8-0.9,1.5-1.3,2.1
			c-0.4,0.6-0.8,1.2-1.3,1.8c-0.5,0.6-1,1.2-1.6,2c-1.5,1.8-3.1,3.3-4.9,4.6c-1.7,1.3-3.7,2.4-5.9,3.5c-1.5,0.7-2.4,0.9-2.5,0.6
			c-0.2-0.3,0.4-1,1.8-2c2.1-1.6,4-3.3,5.8-5.1C131.3,36.4,132.9,34.5,134.3,32.5z M145.9,56.2c1.2-1.9,2-3.5,2.4-4.6
			s0.5-1.9,0.4-2.4c-0.3-1-0.2-1.6,0.3-1.8c0.5-0.1,1.4,0.1,2.8,0.8c1.5,0.8,2.2,1.4,2.3,2s-0.3,1.1-1.2,1.5
			c-0.2,0.1-0.7,0.5-1.6,1.3c-0.8,0.8-1.8,1.8-2.8,2.9c1.2-0.1,2.2-0.3,3.1-0.4c0.9-0.1,1.6-0.2,2.1-0.3c1.3-0.3,2.5-0.4,3.4-0.5
			s1.7-0.1,2.4,0s1.2,0.3,1.7,0.6c0.5,0.3,1,0.7,1.5,1.3c0.9,0.9,1.2,1.6,0.9,2.1s-1.4,0.6-3.2,0.3c-2.2-0.3-4.4-0.5-6.6-0.6
			c-2.2-0.1-4.6,0-7.3,0.1c-1.2,0-2.2,0.1-3.1,0.1c-0.9,0.1-1.8,0.1-2.6,0.2c-0.8,0.1-1.7,0.2-2.6,0.4c-0.9,0.1-1.8,0.3-2.9,0.6
			c-0.8,0.2-1.4,0.3-1.8,0.4c-0.5,0.1-0.9,0.1-1.3,0c-0.4-0.1-0.7-0.2-1-0.4c-0.3-0.2-0.7-0.4-1.1-0.8c-1.1-0.9-1.6-1.4-1.4-1.7
			c0.1-0.3,1-0.4,2.5-0.3c0.3,0,1,0,2-0.1s2.2-0.1,3.6-0.2c1.4-0.1,2.9-0.2,4.5-0.4C142.8,56.5,144.4,56.2,145.9,56.2z M138.9,39.4
			c1.2-0.1,2.3-0.2,3.3-0.4c1.1-0.2,2-0.3,2.9-0.5c0.9-0.2,1.6-0.3,2.2-0.5c0.6-0.2,1.1-0.3,1.3-0.5c0.5-0.3,0.9-0.4,1.2-0.5
			c0.4-0.1,0.7-0.1,1.1-0.1c0.3,0,0.7,0.1,1.1,0.3c0.4,0.2,0.9,0.5,1.5,0.8c0.8,0.5,1.4,0.9,1.8,1.2c0.4,0.3,0.7,0.6,0.7,0.9
			c0.1,0.3,0,0.5-0.2,0.8c-0.2,0.2-0.5,0.5-1,0.8c-0.5,0.3-0.9,0.7-1.3,1.1c-0.4,0.5-0.7,1-0.9,1.5c0.9,0.7,1.3,1.3,1.1,1.7
			s-1.4,0.7-3.4,0.9c-1.8,0.1-3.5,0.2-4.9,0.3s-2.9,0.3-4.4,0.4c-0.1,0.6-0.2,1-0.5,1.2c-0.2,0.2-0.5,0.3-0.8,0.2
			c-0.5,0-0.9-0.2-1.2-0.6c-0.3-0.3-0.5-1-0.7-2s-0.4-1.9-0.8-2.8c-0.3-0.8-0.7-1.6-1.1-2.1c-1.1-1.4-1.4-2.3-1-2.7
			C135.3,38.5,136.6,38.7,138.9,39.4z M141.8,53.6c-0.1,0.5-0.2,1-0.5,1.3c-0.2,0.3-0.5,0.6-0.8,0.6c-0.3,0.1-0.6,0.1-1-0.1
			c-0.4-0.1-0.7-0.4-0.9-0.9c-0.4-0.6-0.7-1.2-0.9-1.6c-0.2-0.5-0.4-1.1-0.7-1.9c-0.6-1.8-0.1-2.2,1.4-1.5c0.8,0.4,1.5,0.8,2,1.1
			c0.5,0.3,0.8,0.6,1.1,0.9c0.2,0.3,0.3,0.6,0.4,0.9C141.9,52.8,141.9,53.1,141.8,53.6z M151.4,32.1c0.8,0.5,1.1,1,1.1,1.4
			c-0.1,0.4-0.7,0.7-1.7,1c-1.4,0.4-2.7,0.7-3.8,0.9c-1.1,0.2-2.1,0.4-3,0.5c-0.9,0.1-1.7,0.1-2.5,0.1c-0.7-0.1-1.4-0.2-2.1-0.4
			c-0.9-0.3-1.4-0.6-1.3-0.9c0.1-0.3,0.6-0.6,1.6-0.8c1-0.1,1.9-0.3,2.6-0.4c0.7-0.1,1.3-0.2,1.8-0.4c0.5-0.1,0.9-0.2,1.2-0.3
			c0.3-0.1,0.7-0.2,0.9-0.3c0.7-0.3,1.3-0.5,1.8-0.6s0.9-0.2,1.3-0.3c0.4,0,0.7,0,1,0.1S151.1,31.9,151.4,32.1z M140.9,45.7
			c1.4-0.1,2.7-0.3,3.9-0.5c1.2-0.2,2.4-0.4,3.5-0.6c0.3-0.1,0.4-0.2,0.5-0.4c0.1-0.2,0.2-0.3,0.3-0.6c0.1-0.3,0.2-0.6,0.2-0.9
			s0.2-0.7,0.2-1.1c0.1-0.6,0.1-1.1,0-1.3c-0.2-0.2-0.5-0.3-1.1-0.2c-1.2,0.1-2.2,0.3-3,0.4s-1.6,0.2-2.2,0.3
			c-0.6,0.1-1.2,0.1-1.7,0.2s-1,0.1-1.5,0.2c0.2,0.7,0.3,1.4,0.5,2.2C140.6,44.1,140.8,44.8,140.9,45.7z M149,21.3
			c0.8-0.7,1.4-1.4,1.8-1.9c0.4-0.6,0.6-1.1,0.7-1.6c0.1-0.9,0.4-1.4,0.8-1.6c0.4-0.2,1,0,1.8,0.5c0.3,0.2,0.6,0.4,0.8,0.7
			c0.3,0.2,0.5,0.5,0.8,0.7c0.7,0.6,1,1.1,1,1.5c-0.1,0.3-0.6,0.6-1.5,0.9c-0.5,0.2-1.1,0.4-1.8,0.8c-0.7,0.3-1.7,0.8-3,1.5
			c0.4,0.4,0.9,0.9,1.4,1.5c0.6,0.6,1.2,1.3,2,2.1c1.3-0.9,2.3-1.7,2.8-2.2c0.5-0.6,0.8-1,0.9-1.4c0.1-1.2,0.4-1.9,0.7-2
			c0.3-0.1,1.1,0.3,2.2,1.1c1.7,1.3,2.6,2.2,2.6,2.7c0.1,0.5-0.5,0.9-1.8,1.2c-0.5,0.1-1,0.3-1.5,0.4s-0.9,0.3-1.4,0.4
			c-0.5,0.2-1,0.4-1.5,0.6s-1.1,0.5-1.8,0.8c1.5,1.7,2.9,3,4.2,4.2c1.2,1.1,2.4,2.1,3.6,2.9c1.2,0.8,2.3,1.5,3.6,2.1
			c1.2,0.6,2.6,1.2,4.2,1.8c1.5,0.6,2.2,1.1,2.2,1.4c-0.1,0.3-0.8,0.6-2.2,0.8c-2,0.2-3.6,0.4-4.8,0.4c-1.2,0.1-2.2,0-2.9-0.2
			c-0.8-0.2-1.4-0.5-1.9-0.9s-1-1-1.5-1.8c-0.6-0.8-1.1-1.5-1.6-2.2s-1-1.3-1.5-2s-1.1-1.4-1.7-2.2c-0.6-0.8-1.4-1.7-2.2-2.8
			c-1.4-1.8-2.6-3.1-3.5-4s-1.6-1.6-2.3-2.2c-1.2-0.9-1.6-1.6-1.3-1.9c0.3-0.3,1.1-0.4,2.5-0.3c0.2,0,0.4,0.1,0.5,0.2
			C148.6,20.9,148.8,21.1,149,21.3z"/>
		<path class="st1" d="M194.8,47.7c-1.4,1-2.5,1.8-3.3,2.4c-0.9,0.6-1.6,1.2-2.2,1.7c-0.6,0.5-1.2,1-1.7,1.4s-1.1,1-1.7,1.6
			c-0.3,0.3-0.5,0.5-0.8,0.6c-0.2,0.1-0.5,0.1-0.9,0c-0.3-0.1-0.8-0.4-1.3-0.8s-1.3-1-2.2-1.8c-1-0.9-1.4-1.4-1.2-1.8
			c0.2-0.3,1.1-0.5,2.7-0.6c0.4,0,0.9-0.1,1.4-0.2c0.6-0.1,1.3-0.4,2.3-0.7c1-0.4,2.2-0.9,3.7-1.5s3.4-1.5,5.6-2.6
			c0.8-0.4,1.5-0.6,1.9-0.7c0.4-0.1,0.7,0,0.7,0.2c0,0.2-0.3,0.5-0.8,1C196.7,46.2,195.9,46.8,194.8,47.7z M205,31.1
			c0.5-1.9,0.9-3.6,1.2-5.1c0.3-1.4,0.5-2.8,0.7-4.2c0.1-0.6,0-1-0.1-1.2s-0.5-0.3-0.9-0.3c-0.3,0-1,0-1.9,0.1
			c-0.9,0.1-2,0.2-3.2,0.4c-1.2,0.1-2.4,0.3-3.6,0.5c-1.2,0.2-2.3,0.4-3.1,0.5c-0.6,0.1-1.1,0.2-1.6,0.3c-0.4,0.1-0.8,0.1-1.1,0
			s-0.6-0.1-0.9-0.3c-0.3-0.1-0.6-0.3-0.9-0.6c-0.8-0.6-1.2-1.1-1.2-1.3c0.1-0.2,0.6-0.4,1.7-0.4c1.7-0.1,3.3-0.3,5-0.5
			s3.2-0.5,4.7-0.7c1.4-0.3,2.6-0.5,3.6-0.8s1.6-0.5,1.9-0.6c0.8-0.6,1.5-0.9,2-0.9s1.3,0.3,2.3,0.9s1.8,1.1,2.4,1.5
			c0.6,0.4,0.9,0.7,1.1,1.1c0.2,0.3,0.2,0.6,0.1,0.9c-0.1,0.3-0.4,0.6-0.7,1c-0.8,0.9-1.6,2.2-2.3,3.7c-0.7,1.5-1.4,3.4-1.9,5.8
			c0.8-0.1,1.6-0.3,2.2-0.4c0.6-0.1,1.1-0.2,1.4-0.2c1.2-0.3,2.3-0.4,3.1-0.5s1.6-0.1,2.2-0.1c0.6,0,1.1,0.2,1.6,0.4
			c0.5,0.2,0.9,0.5,1.3,0.8c1.2,0.9,1.6,1.7,1.2,2.3c-0.3,0.6-1.5,0.8-3.4,0.6c-0.9-0.1-1.9-0.2-3-0.2s-2.2-0.1-3.6,0
			c-1.3,0-2.9,0.1-4.6,0.2c-1.7,0.1-3.7,0.3-6,0.5c0.6,0.3,1,0.5,1.4,0.8c0.3,0.2,0.5,0.4,0.7,0.6c0.1,0.2,0.2,0.4,0.1,0.6
			c0,0.2-0.1,0.4-0.2,0.7c-0.1,0.4-0.3,0.8-0.3,1.2c-0.1,0.4-0.1,0.9-0.2,1.5c0.7,0.7,1.4,1.4,2.1,2c0.6,0.6,1.2,1.1,1.6,1.5
			c1.7-1.4,2.8-2.6,3.5-3.6c0.6-1,1-1.8,1-2.4c0.1-1,0.4-1.5,0.9-1.6c0.6-0.1,1.6,0.4,3,1.4c1.3,0.9,2,1.7,2,2.3s-0.5,1-1.4,1.2
			c-0.4,0.1-0.8,0.2-1.2,0.4c-0.4,0.1-0.9,0.4-1.5,0.6c-0.6,0.3-1.3,0.7-2.1,1.1c-0.8,0.5-1.8,1-2.9,1.6c1.5,1.2,3,2.3,4.4,3.3
			s2.8,1.8,4.2,2.5c1.4,0.7,2.8,1.3,4.3,1.8s3,1,4.6,1.3c1.3,0.3,2,0.6,2.1,1.1c0.1,0.4-0.5,0.7-1.8,0.9c-2.6,0.4-4.6,0.7-6,0.9
			c-1.4,0.2-2.6,0.2-3.5,0.1s-1.6-0.4-2.1-0.7c-0.5-0.4-1-0.9-1.6-1.6c-1.9-2.2-3.7-4.3-5.3-6.2s-3-3.5-4.1-4.8
			c0.1,2.3,0.2,4.4,0.2,6.3c0.1,1.9,0.2,4,0.5,6.1c0.1,1.1,0,2.1-0.2,3s-0.7,2-1.4,3.2c-0.8,1.3-1.5,1.9-2.2,1.9s-1.3-0.5-1.6-1.4
			c-0.3-0.8-0.8-1.5-1.3-2.2c-0.5-0.7-1.2-1.5-2.1-2.1c-1-0.9-1.5-1.5-1.3-1.8c0.2-0.3,1-0.3,2.3,0.1c0.7,0.2,1.2,0.3,1.6,0.4
			c0.4,0.1,0.7,0.1,1,0c0.2-0.1,0.4-0.2,0.5-0.5c0.1-0.3,0.2-0.6,0.2-1c0.1-0.8,0.1-1.8,0.2-2.9c0.1-1.2,0.1-2.4,0.1-3.7
			c0-2,0-3.7,0-5.1c0-1.4-0.1-2.6-0.2-3.7c-0.1-1-0.2-1.9-0.4-2.6s-0.4-1.3-0.6-1.9c-1.1,0.1-2.2,0.2-3.3,0.4
			c-1.2,0.1-2.3,0.3-3.3,0.4c-1.1,0.1-2,0.2-2.9,0.4c-0.9,0.1-1.6,0.2-2.1,0.3c-0.6,0.1-1.1,0.2-1.5,0.2s-0.8,0-1.1,0
			s-0.6-0.1-0.8-0.2s-0.5-0.3-0.9-0.6c-1-0.8-1.5-1.3-1.4-1.7c0.1-0.4,0.7-0.5,1.8-0.4c0.5,0.1,1.1,0.1,1.8,0.1
			c0.8,0,1.5-0.1,2.2-0.1c2.6-0.2,4.7-0.4,6.5-0.6c1.8-0.2,3.4-0.3,4.8-0.5c1.4-0.1,2.7-0.3,3.9-0.4S203.7,31.2,205,31.1z
			 M188.3,38.4c2.2,0,3.7,0.3,4.6,0.8c0.9,0.5,1.5,1.2,1.6,2.1c0.2,1.3,0,2.1-0.6,2.4c-0.6,0.4-1.2,0.4-2,0c-0.3-0.1-0.6-0.3-1-0.6
			c-0.4-0.3-0.8-0.5-1.2-0.9c-0.4-0.3-0.9-0.7-1.3-1.1c-0.4-0.4-0.8-0.7-1.2-1.1c-0.6-0.6-0.9-1.1-0.7-1.4
			C186.6,38.5,187.2,38.4,188.3,38.4z M200.1,24.4c1.6-0.4,2.9-0.4,3.9,0.1c0.7,0.4,1.1,0.7,1.1,1.2c0,0.4-0.4,0.7-1.1,1
			c-0.6,0.2-1.6,0.4-3,0.6s-3.3,0.4-5.8,0.6c-0.8,0.1-1.3,0.1-1.8,0.1c-0.4,0-0.8-0.2-1.3-0.4c-0.8-0.5-1.2-0.8-1.2-1.1
			c0-0.2,0.4-0.4,1.1-0.5c0.4,0,1-0.1,1.6-0.2c0.7-0.1,1.4-0.2,2.1-0.4c0.8-0.1,1.5-0.3,2.3-0.5C198.9,24.7,199.5,24.5,200.1,24.4z"
			/>
		<path class="st1" d="M257.1,22c2.4,2.4,4.6,4.4,6.5,6.1c1.9,1.6,3.8,3,5.5,4.2c1.7,1.1,3.4,2.1,5.1,2.8c1.7,0.7,3.4,1.4,5.2,1.9
			c1.4,0.4,2.1,0.8,2.1,1.2s-0.6,0.7-1.9,0.9c-2.3,0.3-4.1,0.5-5.4,0.6s-2.3,0.1-3.1,0.1s-1.3-0.3-1.8-0.6c-0.4-0.3-0.9-0.8-1.4-1.4
			c-2-2.3-3.9-4.6-5.9-6.8c-1.9-2.2-4-4.6-6.3-7.3c-3.9,5.6-7.7,10.1-11.5,13.3c-3.7,3.3-7.4,5.6-11.1,7c-1.7,0.6-2.7,0.8-3,0.4
			c-0.3-0.4,0.4-1,1.8-1.8c1.6-0.9,3.2-2,4.9-3.4c1.7-1.3,3.3-2.9,4.9-4.5s3.2-3.5,4.7-5.4s2.9-3.9,4.3-6c1.3-2.1,1.8-3.7,1.6-5
			c-0.3-1.4-0.1-2.2,0.4-2.4c0.6-0.2,1.8,0.2,3.6,1.3c0.8,0.5,1.4,0.9,1.8,1.2c0.4,0.3,0.7,0.6,0.8,0.8c0.1,0.2,0.1,0.5,0,0.7
			c-0.1,0.2-0.4,0.5-0.8,0.8C258.1,20.8,257.7,21.3,257.1,22z M251.2,37.4c-0.8,0.1-1.4,0.1-2,0s-1.1-0.1-1.4-0.2
			c-1.3-0.4-1.9-0.7-1.8-1s0.6-0.5,1.6-0.7c1.4-0.2,2.7-0.4,3.8-0.6c1.1-0.2,2-0.4,2.8-0.6s1.5-0.4,2.1-0.5c0.6-0.2,1.1-0.3,1.6-0.5
			c0.6-0.2,1.3-0.3,2.1-0.3c0.7,0,1.4,0.1,1.9,0.4c0.6,0.4,0.9,0.8,0.7,1.2c-0.2,0.5-0.9,0.9-2.1,1.2c-0.9,0.3-1.8,0.5-2.7,0.6
			c-0.9,0.2-1.9,0.3-2.8,0.5c0.7,0.5,1.1,0.9,1.2,1.3c0.1,0.3,0,0.7-0.2,1.1c-0.1,0.3-0.3,0.5-0.3,0.9s-0.1,0.8-0.2,1.5
			c0.5-0.2,1.1-0.3,1.7-0.5c0.6-0.1,1.2-0.3,1.9-0.5c1-0.3,1.8-0.4,2.5-0.4s1.5,0.2,2.2,0.6c0.7,0.3,0.9,0.7,0.8,1.2
			c-0.2,0.5-1,1-2.3,1.3c-1.4,0.4-2.6,0.6-3.6,0.8c-1,0.2-2.2,0.4-3.3,0.5l-0.3,10.8c2.7-0.3,5-0.5,6.7-0.8c1.7-0.2,3.2-0.4,4.5-0.5
			c1.2-0.1,2.1-0.1,2.9,0.1c0.8,0.2,1.5,0.6,2.1,1.3c1.2,1.3,1.6,2.2,1.2,2.8s-1.6,0.6-3.8,0.2c-0.4-0.1-1.2-0.1-2.3-0.2
			c-1.1-0.1-2.4-0.1-3.9-0.2c-2.1-0.1-4-0.1-5.8-0.1c-1.8,0-3.5,0.1-5.2,0.3c-1.7,0.1-3.3,0.3-5,0.6c-1.7,0.3-3.4,0.6-5.3,0.9
			c-0.6,0.1-1.1,0.2-1.5,0.2s-0.7,0-1,0s-0.6-0.2-0.9-0.4c-0.3-0.2-0.6-0.5-1.1-0.9c-0.9-0.8-1.3-1.3-1.2-1.6c0.2-0.3,1-0.3,2.5-0.3
			c0.3,0,0.9,0,1.8-0.1c0.8,0,1.9-0.1,3.1-0.2c1.2-0.1,2.5-0.2,3.9-0.4c1.4-0.1,2.8-0.3,4.3-0.4l0.2-10.8c-1.7,0.1-3.1,0.1-4.1,0
			s-1.7-0.2-2.2-0.4c-1.2-0.4-1.7-0.7-1.7-1c0-0.3,0.7-0.5,1.9-0.6s2.2-0.2,3.2-0.3s2-0.3,2.9-0.4c0-0.9,0-1.8,0-2.7
			C251.4,39,251.3,38.2,251.2,37.4z M248.6,51.6c0.1,0.7,0.1,1.2-0.1,1.7c-0.2,0.4-0.4,0.7-0.7,0.9c-0.3,0.2-0.7,0.2-1.1,0
			c-0.4-0.1-0.8-0.4-1.3-0.9c-0.4-0.4-0.8-1-1.3-1.6s-0.9-1.3-1.2-2c-0.5-0.9-0.6-1.5-0.4-1.7c0.2-0.2,0.9-0.2,2.1,0.2
			c1.5,0.4,2.5,0.9,3,1.3C248.1,50,248.4,50.6,248.6,51.6z M265.2,49.6c-1.2,0.4-3.5,1.3-7,2.8c-1,0.4-1.6,0.5-1.8,0.2
			c-0.2-0.3,0-0.6,0.6-1.1c1.3-0.9,2.2-1.8,2.9-2.6c0.7-0.8,1.1-1.5,1.1-2.1s0.3-1,0.9-1.2c0.6-0.2,1.5,0.3,2.8,1.2
			c1.1,0.7,1.6,1.3,1.6,1.7C266.5,48.8,266.1,49.2,265.2,49.6z"/>
		<path class="st1" d="M293.2,34.7c0.9-4.6,1.4-8.3,1.4-11c0.1-2.7-0.2-4.5-0.7-5.5c-0.7-1.2-0.8-2-0.4-2.4c0.5-0.4,1.3-0.2,2.7,0.5
			c1.1,0.6,2,1.1,2.6,1.5s1,0.8,1.2,1.2c0.2,0.4,0.3,0.7,0.2,1.1c-0.1,0.4-0.3,0.8-0.7,1.4c-0.3,0.4-0.5,0.8-0.6,1.2s-0.3,1-0.5,2
			c-0.3,1-0.6,2.3-0.9,3.8c-0.4,1.5-0.8,3.4-1.5,5.7l4.2-0.9c0.1-0.7,0.2-1.3,0.1-1.9c0-0.5-0.1-1-0.1-1.3c-0.3-0.8-0.2-1.4,0.1-1.6
			c0.3-0.2,0.9-0.1,1.7,0.4c1,0.6,1.8,1.1,2.4,1.7c0.5,0.5,0.7,1,0.7,1.4c0,0.4-0.2,0.8-0.6,1.3c-0.2,0.2-0.4,0.5-0.5,0.9
			c-0.2,0.4-0.4,1.1-0.7,2.2c-0.4,1.4-0.8,2.6-1.1,3.6c-0.3,1-0.6,1.9-0.9,2.7c-0.3,0.8-0.6,1.5-0.9,2.2c-0.3,0.7-0.7,1.4-1.1,2.1
			c1.6,1.2,2.7,2.2,3.2,3.2s0.7,2,0.7,3c-0.1,1.5-0.5,2.3-1.2,2.5c-0.7,0.2-1.4-0.5-2.2-2c-0.3-0.5-0.6-1.1-1.1-1.7
			c-0.4-0.6-0.9-1.2-1.3-1.8c-2.1,2.8-5.1,4.7-9,5.8c-1.2,0.4-1.9,0.4-2.1,0.1c-0.2-0.3,0.2-0.7,1.2-1.3c1.7-1,3.3-2.1,4.6-3.3
			c1.3-1.2,2.4-2.5,3.3-3.7c-0.7-0.9-1.3-1.5-1.6-1.9c-0.3-0.4-0.7-0.7-1-0.9c-0.6-0.5-0.9-0.9-1.1-1.3c-0.1-0.4-0.1-1,0.1-1.6
			c0.4-1.5,0.7-3,1-4.4c-1,0.3-1.8,0.6-2.4,0.8c-0.6,0.2-1.1,0.4-1.5,0.6c-0.5,0.3-0.9,0.4-1.3,0.6c-0.4,0.1-0.7,0.2-1,0.1
			c-0.3,0-0.6-0.2-0.9-0.4c-0.3-0.2-0.6-0.5-1-0.8c-1.2-1.2-1.8-2-1.6-2.4c0.2-0.4,1-0.5,2.6-0.3c0.6,0.1,1.5,0,2.8-0.1
			C289.6,35.4,291.3,35.1,293.2,34.7z M295.4,36.6c-0.2,0.8-0.5,1.7-0.7,2.7c-0.3,1-0.5,2-0.8,3c-0.1,0.4-0.1,0.7,0,1
			c0.1,0.3,0.5,0.6,1.1,0.9c0.3,0.2,0.6,0.3,0.8,0.5c0.3,0.1,0.5,0.3,0.8,0.4c0.6-1.4,1.3-2.9,1.9-4.7c0.6-1.8,1.1-3.5,1.4-5.2
			L295.4,36.6z M325.5,34.2c1.9-0.5,3.4-0.7,4.6-0.6c1.1,0.1,2.1,0.5,2.9,1.2c1.1,0.9,1.5,1.7,1.3,2.3c-0.3,0.6-1.4,0.7-3.4,0.4
			c-1-0.1-2-0.3-2.8-0.3c-0.8-0.1-1.7-0.1-2.7-0.1c-0.1,1.5-0.2,3.3-0.3,5.2c-0.1,1.9-0.3,3.7-0.5,5.4c1,0.1,1.9,0.2,2.6,0.3
			s1.3,0.3,1.8,0.5c0.5,0.2,0.9,0.4,1.2,0.7c0.3,0.3,0.6,0.6,0.8,1c0.7,1.1,0.8,1.9,0.3,2.3s-1.7,0.3-3.5-0.5
			c-0.5-0.2-1-0.4-1.6-0.6c-0.6-0.2-1.2-0.4-1.9-0.5c-0.3,2.8-0.8,5-1.6,6.8c-0.8,1.8-1.8,3.1-3.1,4c-1,0.7-1.7,1-2.2,0.9
			s-0.9-0.6-1.1-1.5c-0.2-0.8-0.5-1.6-0.9-2.2c-0.4-0.7-1-1.4-1.8-2.1c-0.8-0.7-1-1.2-0.7-1.5c0.3-0.3,0.9-0.3,2,0
			c0.9,0.3,1.6,0.5,2.2,0.5c0.6,0.1,1-0.1,1.4-0.4s0.7-0.9,0.9-1.7c0.3-0.8,0.6-2,1-3.5c-1.3-0.2-2.6-0.3-4-0.4
			c-1.4-0.1-2.7-0.1-4.1-0.1c-1.3,0-2.3,0.1-3.2,0.3c-0.9,0.2-1.7,0.5-2.4,0.9c-0.7,0.4-1.3,0.6-1.6,0.5c-0.4-0.1-0.7-0.7-1-1.8
			c-0.2-0.9-0.3-1.4-0.2-1.7c0.1-0.3,0.5-0.6,1.2-0.9c0.6-0.3,1.1-1,1.5-2.1c0.4-1.2,0.8-3.1,1.2-5.7c-0.8,0.1-1.5,0.2-1.9,0.1
			c-0.5-0.1-1-0.3-1.5-0.6c-0.7-0.5-1-0.9-0.9-1.2c0.1-0.3,0.8-0.5,2-0.5c0.3,0,0.6,0,1.1-0.1c0.5,0,1-0.1,1.5-0.2
			c0.3-3.5,0.4-6.3,0.4-8.3s-0.1-3.2-0.3-3.8c-0.5-1.2-0.5-1.9,0-2.2s1.7,0,3.6,0.9c1.4-0.2,2.8-0.5,4.1-0.9c1.3-0.4,2.8-1,4.5-1.8
			c0.5-0.3,0.9-0.4,1.3-0.5c0.4-0.1,0.8-0.1,1.1,0c0.4,0.1,0.8,0.3,1.3,0.5c0.5,0.3,1.1,0.7,1.9,1.2c1.2,0.9,1.8,1.5,1.9,2
			s-0.3,1.1-1.1,1.9c-0.2,0.2-0.3,0.4-0.5,0.8c-0.1,0.3-0.2,0.8-0.3,1.4c-0.1,0.6-0.2,1.4-0.2,2.5C325.6,31.5,325.6,32.8,325.5,34.2
			z M321.7,37.2c-1.5,0.1-3.2,0.3-5.2,0.5c-2,0.2-3.9,0.5-5.8,0.7c-0.3,1.6-0.6,3.2-0.9,4.7s-0.6,2.9-1,4.2c2-0.1,4.1-0.1,6.2-0.1
			s4,0.1,5.8,0.1c0.2-1.5,0.4-3,0.5-4.6C321.5,41.2,321.6,39.4,321.7,37.2z M311.1,36.2c2.6-0.3,4.7-0.5,6.4-0.8
			c1.7-0.2,3.1-0.4,4.3-0.6c0.1-1.7,0.1-3.3,0.1-4.9c0-1.5,0-2.9-0.1-4.1c0-0.7-0.2-1.2-0.5-1.4s-0.9-0.3-1.8-0.3
			c-0.4,0-0.8,0-1.3,0.1c-0.5,0.1-0.9,0.1-1.4,0.2c-0.4,0.1-0.8,0.1-1.2,0.2c-0.3,0.1-0.6,0.1-0.7,0.1c-0.5,0.1-1,0.2-1.5,0.3
			s-1,0.1-1.5,0.2c-0.1,1.6-0.2,3.4-0.4,5.3C311.6,32.4,311.4,34.2,311.1,36.2z M318.1,44c-0.2,1-0.6,1.6-1.2,1.8
			c-0.6,0.2-1.2-0.1-1.7-0.8c-0.3-0.4-0.6-1-1-1.7c-0.4-0.7-0.7-1.4-0.9-1.9c-0.3-0.8-0.3-1.3-0.1-1.5c0.2-0.2,0.8-0.1,1.7,0.2
			c1.4,0.5,2.3,1.1,2.8,1.8C318.1,42.5,318.3,43.2,318.1,44z M318.9,32c-0.1,0.9-0.4,1.4-1,1.6s-1.2,0-1.8-0.8
			c-0.2-0.3-0.5-0.7-0.8-1.4c-0.3-0.6-0.7-1.3-0.9-2c-0.2-0.5-0.3-0.9-0.4-1.2c-0.1-0.3-0.1-0.5,0-0.6s0.3-0.1,0.6-0.1
			c0.3,0.1,0.7,0.2,1.3,0.3c1.3,0.4,2.1,0.9,2.5,1.4C318.8,30,319,30.9,318.9,32z"/>
		<path class="st1" d="M342.8,49.2V21.7c0-0.6-0.1-1-0.3-1.3c-0.2-0.3-0.5-0.4-1.1-0.4l-4.2-0.5v-1.1c0.4,0.1,4.1,0.2,11.3,0.2
			c2.1,0,3.8-0.1,5.1-0.2v1.1l-3.3,0.4c-0.8,0.1-1.4,0.2-1.8,0.3c-0.3,0.1-0.5,0.6-0.5,1.5v27.5c0,0.6,0.1,1,0.3,1.2
			c0.2,0.2,0.5,0.3,1.1,0.4l4.2,0.3v1.5c-0.7-0.1-1.8-0.1-3.1-0.2c-1.3,0-3.1-0.1-5.1-0.1s-3.8,0-5.1,0.1c-1.4,0-2.4,0.1-3.1,0.2
			v-1.5l3.2-0.2c0.9-0.1,1.5-0.2,1.8-0.3S342.8,50,342.8,49.2z"/>
		<path class="st1" d="M361.5,23c0-0.9-0.1-1.5-0.3-1.8c-0.2-0.4-0.6-0.6-1.2-0.7l-3.5-0.6v-1.4c1.2,0,2.6,0,4.2,0s3.3-0.1,5-0.2
			s3.4-0.1,5-0.2c1.6-0.1,3.1-0.1,4.2-0.1c2.7,0,5.3,0.4,7.7,1.2c2.4,0.7,4.4,1.8,6.2,3.2c1.8,1.4,3.1,3.2,4.2,5.3
			c1,2.1,1.5,4.5,1.5,7.2c0,2.6-0.5,5-1.5,7.2c-1,2.2-2.3,4-4,5.5s-3.7,2.7-6,3.5c-2.3,0.8-4.7,1.2-7.3,1.2l-8.7-0.2h-11v-1.2l4-0.9
			c0.6-0.1,1-0.3,1.2-0.7s0.4-1,0.4-2.1V23H361.5z M366.8,46c0,0.6,0.1,1.1,0.4,1.7s0.7,1.1,1.3,1.5s1.3,0.8,2.2,1.1
			c0.9,0.3,2,0.4,3.2,0.4c2.2,0,4.1-0.4,5.9-1.1c1.7-0.7,3.2-1.8,4.5-3.1c1.2-1.4,2.2-3,2.9-5c0.7-2,1-4.2,1-6.8
			c0-2.3-0.4-4.4-1.2-6.3c-0.8-1.9-1.9-3.4-3.3-4.7c-1.4-1.3-3.2-2.3-5.2-2.9c-2.1-0.7-4.4-1-7-1c-1.3,0-2.2,0.1-2.8,0.2
			c-0.6,0.1-1,0.3-1.2,0.4c-0.5,0.4-0.8,1.3-0.8,2.6v23H366.8z"/>
	</g>
</g>
</svg>
