<?xml version="1.0" encoding="utf-8"?>
<!-- Generator: Adobe Illustrator 19.0.0, SVG Export Plug-In . SVG Version: 6.00 Build 0)  -->
<svg version="1.1" id="图层_1" xmlns="http://www.w3.org/2000/svg" xmlns:xlink="http://www.w3.org/1999/xlink" x="0px" y="0px"
	 viewBox="35.7 4.8 100.6 31.8" style="enable-background:new 35.7 4.8 100.6 31.8;" xml:space="preserve">
<style type="text/css">
	.st0{enable-background:new    ;}
	.st1{fill:#FFFFFF;}
</style>
<g class="st0">
	<path class="st1" d="M47.9,12.2c-3.9,0.4-6.4,0.8-7.3,1.1c-1,0.3-1.7,0.4-2.2,0.4s-1.1-0.2-1.7-0.5c-0.7-0.4-1-0.6-1-0.8
		c0-0.2,0.3-0.3,1-0.3c1.5-0.1,4.9-0.5,10.2-1.1c5.4-0.6,9-1.1,11.1-1.5c1-0.2,1.9-0.3,2.7-0.3s1.6,0.2,2.5,0.7s1.3,0.9,1.3,1.3
		c0,0.5-0.6,0.8-1.8,0.8l-1.9-0.3c-0.7,0-2.1-0.1-4.1-0.1s-4.3,0.1-7.1,0.4c1,0.5,1.5,1.1,1.5,1.6c0,0.2-0.1,0.5-0.2,0.7
		c-0.2,0.2-0.3,0.5-0.3,0.9c-0.1,0.4-0.1,1.3-0.1,2.7c2.5,0,4.5,0.3,5.9,0.9s2.1,1.5,2.1,2.8c0,0.6-0.3,0.8-0.8,0.8
		s-1.3-0.3-2.3-0.9s-2.7-1.7-5-3.2l0.1,12.9c0,1.9-0.1,3.2-0.4,3.9c-0.2,0.7-0.5,1.1-0.9,1.1c-0.3,0-0.7-0.4-1.1-1.3
		c-0.4-0.9-0.6-1.5-0.6-1.9s0.1-1,0.3-1.7s0.4-2.1,0.6-4.3c0.2-2.2,0.3-4.4,0.3-6.5s0-3.7-0.1-4.8c-0.1-1.1-0.1-1.8-0.2-2.2
		C48.4,13.2,48.2,12.8,47.9,12.2z"/>
	<path class="st1" d="M96.4,17.9c1.1,0,2.1,0.3,3.1,0.8c0.9,0.5,1.4,1,1.4,1.5s-0.7,0.8-2,0.8c-0.4,0-0.9,0-1.5-0.1
		c-0.6-0.1-1.6-0.1-2.8-0.1c-2.8,0-5.9,0.2-9.4,0.6s-6.6,0.9-9.3,1.5c-0.5,0.1-1,0.2-1.5,0.2s-1.1-0.3-2-0.8c-0.8-0.5-1.3-1-1.3-1.3
		c0-0.4,0.4-0.6,1.3-0.5c0.9,0.1,1.8,0.1,2.7,0.1c2,0,5.3-0.3,9.9-0.9c4.6-0.6,7.5-1,8.7-1.3S95.6,17.9,96.4,17.9z"/>
	<path class="st1" d="M123.3,15.6c1.3-0.2,2.9-0.4,4.7-0.8c1.8-0.3,2.9-0.5,3.3-0.6c0.4-0.1,0.9-0.1,1.4-0.1c1.2,0,2.1,0.2,2.7,0.5
		c0.6,0.3,0.9,0.7,0.9,1c0,0.5-0.8,0.7-2.5,0.6c-0.6,0-1.2-0.1-2.1-0.1c-2.8,0-6.2,0.2-10.2,0.7c1.3,0.6,1.9,1.2,1.9,1.7
		c0,0.1,0,0.2-0.1,0.3c-0.3,0.8-0.4,1.8-0.4,3.2l0.1,2.7c0,0.7-0.1,1.3-0.4,1.7c-0.2,0.4-0.5,0.7-0.7,0.7s-0.4-0.2-0.6-0.5
		S121,26,121,25.5c0-0.4,0-0.7,0.1-1c0.2-1.1,0.3-2.2,0.3-3.3c0-1.9-0.2-3.3-0.7-4.2c-1.9,0.3-3.9,0.6-5.9,1s-3.2,0.7-3.7,0.8
		c-0.5,0.2-0.9,0.2-1.3,0.2c-0.4,0-0.9-0.1-1.6-0.4s-1-0.5-1-0.7s0.3-0.3,1-0.3c1.2,0,3.7-0.3,7.6-1c-0.2-2.2-0.4-3.8-0.7-4.6
		c-0.2-0.8-0.5-1.4-0.8-1.8c-0.2-0.2-0.3-0.5-0.3-0.7c0-0.2,0.2-0.3,0.5-0.3s0.9,0.1,1.7,0.4s1.2,0.6,1.2,1c0,0.1,0,0.3-0.1,0.5
		c-0.1,0.4-0.1,2.1-0.1,5.2l4.2-0.6c0-2.7,0-4.7-0.1-6c-0.1-1.3-0.2-2.2-0.3-2.6c-0.1-0.5-0.3-0.9-0.6-1.2c-0.3-0.3-0.4-0.5-0.4-0.7
		c0-0.3,0.2-0.4,0.7-0.4c0.4,0,1.1,0.1,1.9,0.4s1.3,0.6,1.3,1c0,0.2-0.1,0.5-0.2,0.9c-0.1,0.4-0.3,1.4-0.4,2.9
		c3.3-1.1,5.2-1.7,5.8-1.7c0.5,0,0.9,0.1,1.3,0.3c0.3,0.2,0.5,0.4,0.5,0.5c0,0.2-0.2,0.3-0.6,0.5c-0.4,0.2-1.4,0.4-2.9,0.7
		c-1.5,0.3-2.9,0.4-4.1,0.3V15.6z M131.1,21c-0.2,0-0.7,0.7-1.4,1.9c-0.7,1.2-1.9,2.8-3.6,5c-1.7,2.1-3.6,3.8-5.7,5.1
		c-2.1,1.3-4.1,2.2-5.9,2.7s-2.9,0.8-3.4,0.8c-0.2,0-0.4-0.1-0.4-0.2c0-0.1,0.2-0.3,0.6-0.4c3.4-1.3,6.2-2.8,8.3-4.4
		s3.8-3.3,5.2-5.2c1.3-1.9,2.3-3.4,2.9-4.5c0.6-1.1,0.9-2.1,0.9-3c0-0.5,0.1-0.7,0.4-0.7s0.8,0.3,1.5,0.8s1,1,1,1.3
		S131.4,21,131.1,21z M116,20.5c0.2,0,0.4,0.2,0.6,0.5c0.2,0.4,0.3,0.7,0.3,1c0,0.9-0.4,1.9-1.1,3s-1.4,1.7-1.9,1.7
		c-0.2,0-0.4-0.1-0.5-0.4c-0.1-0.3-0.2-0.6-0.2-0.9s0.1-0.7,0.3-1.1c0.2-0.4,0.4-0.7,0.5-0.9c0.2-0.2,0.4-0.5,0.6-0.9
		c0.3-0.4,0.4-0.7,0.5-0.9C115.5,20.9,115.7,20.5,116,20.5z"/>
</g>
</svg>
