<?xml version="1.0" encoding="utf-8"?>
<!-- Generator: Adobe Illustrator 19.0.0, SVG Export Plug-In . SVG Version: 6.00 Build 0)  -->
<svg version="1.1" id="图层_1" xmlns="http://www.w3.org/2000/svg" xmlns:xlink="http://www.w3.org/1999/xlink" x="0px" y="0px"
	 viewBox="19.3 3.4 76.4 35.3" style="enable-background:new 19.3 3.4 76.4 35.3;" xml:space="preserve">
<style type="text/css">
	.st0{enable-background:new    ;}
	.st1{fill:#FFFFFF;}
</style>
<g class="st0">
	<path class="st1" d="M26.3,16.6c-1,1.7-2.3,3.2-3.8,4.7c-1.5,1.5-2.5,2.3-3,2.3c-0.1,0-0.2-0.1-0.2-0.3s0.2-0.5,0.6-0.9
		c2.4-2.9,4.4-5.8,5.8-8.8c1.5-3,2.2-5.3,2.2-6.6c0-0.2,0-0.4-0.1-0.6S27.7,6,27.7,5.7s0.2-0.4,0.5-0.4c0.4,0,1,0.3,1.9,1
		c0.9,0.6,1.3,1.2,1.3,1.6c0,0.2-0.1,0.4-0.4,0.7s-0.8,1.2-1.6,2.8s-1.6,3-2.4,4.4c0.9,1,1.4,1.8,1.4,2.4s0,1.5,0,2.7l0.1,8
		c0,5-0.4,7.6-1.3,7.6c-0.3,0-0.7-0.5-1.1-1.5s-0.5-1.7-0.5-2.1c0-0.4,0.1-0.9,0.3-1.4s0.4-1.8,0.5-4c0.2-2.1,0.3-4.2,0.3-6.2
		C26.5,19.1,26.4,17.6,26.3,16.6z M41.3,22c2.3,2.1,4.5,3.7,6.6,4.9c2.1,1.2,4.5,2.2,7.5,3c0.5,0.1,0.8,0.3,0.8,0.5
		s-0.1,0.3-0.3,0.4c-0.2,0.1-1,0.2-2.4,0.4c-1.4,0.2-2.4,0.3-3.1,0.3c-0.6,0-1.2-0.1-1.6-0.3c-0.4-0.2-1-0.7-1.6-1.4
		c-1.4-1.8-3.3-4.1-5.8-6.8c0.1,2.7,0.1,5,0.2,7c0.1,2,0.1,3.1,0.1,3.3c0,1.2-0.1,2.2-0.3,2.9c-0.2,0.7-0.5,1.1-0.9,1.1
		c-0.3,0-0.7-0.3-0.9-1C39.4,35.5,39,35,39,34.2s0.1-1.5,0.3-2.1c0.2-0.6,0.3-1.8,0.4-3.6c0.1-1.8,0.1-3.6,0.1-5.6
		c-1.1,2.2-2.3,3.9-3.7,5.3s-2.6,2.4-3.7,2.9c-1.1,0.5-1.9,0.8-2.4,0.8c-0.2,0-0.2,0-0.2-0.1c0-0.2,0.3-0.5,0.9-0.9
		c3.3-2.2,6-5.6,8.2-10c-1.3,0.2-2.6,0.5-3.8,0.9c-1.2,0.4-2.2,0.5-2.8,0.5c-0.6,0-1.3-0.1-1.8-0.3s-0.8-0.4-0.8-0.6
		s0.6-0.3,1.8-0.5c1.2-0.2,3.9-0.7,8.2-1.5c-0.1-2-0.3-3.4-0.6-4c-0.4,0.1-1,0.2-1.9,0.3c-0.1,0.6-0.2,0.8-0.4,0.8
		c-0.2,0-0.4-0.1-0.7-0.4c-0.2-0.3-0.4-0.7-0.5-1.2c-0.7-3.4-1.3-5.3-1.7-5.9s-0.5-0.9-0.5-1.2s0.2-0.4,0.6-0.4s1,0.1,1.7,0.4
		c1.3-0.1,2.7-0.4,4.4-0.9C41.8,6.4,43,6,43.5,5.8c0.5-0.3,1-0.4,1.4-0.4s1.2,0.3,2.3,0.9c1.1,0.6,1.7,1.1,1.7,1.4
		c0,0.3-0.2,0.6-0.6,0.9c-0.7,0.6-1.4,1.3-2,2.2s-0.8,1.7-0.8,2.2c0,0.2,0.1,0.3,0.2,0.4c0.1,0.1,0.2,0.2,0.2,0.4
		c0,0.4-0.5,0.7-1.6,0.8c-1,0.1-2.4,0.3-4,0.6c0.8,0.6,1.2,1.2,1.2,1.7c0,0.1,0,0.2,0,0.3c-0.1,0.4-0.2,1-0.2,1.9l5.3-1.2
		c1.4-0.3,2.2-0.4,2.6-0.4c0.9,0,1.7,0.1,2.3,0.4c0.7,0.3,1,0.7,1,1.1c0,0.2-0.1,0.4-0.3,0.6c-0.2,0.1-0.5,0.2-0.9,0.2
		c-3.4,0-6.7,0.2-10.1,0.7C41.2,20.9,41.2,21.4,41.3,22z M37.2,14.3c1.5-0.2,2.8-0.5,4-0.8c1.1-0.3,1.8-0.5,2-0.6
		c0.2-0.1,0.4-0.4,0.6-0.9s0.3-1.1,0.4-2.1c0.1-0.9,0.2-1.5,0.2-1.6c0-0.5-0.3-0.8-1-0.8c-0.3,0-0.7,0-1.1,0.1
		c-1.6,0.4-3.6,0.7-5.9,1C36.9,11.2,37.1,13,37.2,14.3z"/>
	<path class="st1" d="M78.6,10c4.2-1.1,6.7-1.6,7.5-1.6s1.5,0.1,2.1,0.4c0.7,0.2,1,0.5,1,0.7s-0.2,0.4-0.5,0.6
		c-0.4,0.2-1.4,0.4-3.2,0.8c-1.8,0.4-4.4,0.8-7.8,1.3c-1.1,2.6-3.3,6-6.6,10c0.1,5,0,8.7-0.1,11s-0.5,3.5-1.2,3.5
		c-0.3,0-0.7-0.3-1-0.9c-0.3-0.6-0.4-1.1-0.4-1.5s0.1-1,0.3-1.8c0.2-0.8,0.4-2,0.5-3.6s0.2-3.2,0.2-4.8c-2.1,2.5-4.2,4.3-6.2,5.4
		c-2,1.2-3.2,1.8-3.7,1.8c-0.1,0-0.2-0.1-0.2-0.2s0.1-0.3,0.4-0.5c2.3-1.7,4.2-3.3,5.6-4.7s2.8-2.9,4-4.4c0-0.6-0.1-1.1-0.2-1.4
		c-0.1-0.4-0.2-0.7-0.2-1s0.2-0.4,0.5-0.4s0.8,0.4,1.4,1.1c2.4-3.2,3.9-5.7,4.6-7.3c-2.8,0.4-4.6,0.6-5.5,0.6S68.4,13,68,12.8
		s-0.6-0.4-0.6-0.6c0-0.2,0.4-0.3,1.2-0.4c2.4-0.3,5-0.7,7.8-1.2c0.9-2,1.4-3.6,1.4-4.8c0-0.5-0.1-0.9-0.2-1.2S77.4,4,77.4,3.8
		s0.2-0.4,0.7-0.4s1.2,0.2,2.1,0.5s1.3,0.7,1.3,1.1c0,0.2-0.1,0.4-0.3,0.6C80.4,6.2,79.6,7.7,78.6,10z M84.7,23.3
		c1.3-0.2,3-0.6,5.1-1c0.9-0.2,1.8-0.3,2.5-0.3s1.5,0.2,2.3,0.7c0.7,0.5,1.1,0.9,1.1,1.2c0,0.5-0.6,0.8-1.7,0.8
		c-0.3,0-0.8,0-1.5-0.1s-1.7-0.1-3-0.1s-2.9,0.1-4.6,0.3c0.5,1.8,0.7,3.6,0.7,5.3c0,1.7-0.2,3.2-0.5,4.5c-0.4,1.3-0.9,2.3-1.5,3
		s-1.1,1.1-1.5,1.1c-0.3,0-0.6-0.2-0.8-0.7c-0.5-1-1.5-2-3-3c-0.4-0.3-0.6-0.5-0.6-0.6s0.3-0.2,0.8-0.2c1.1,0.2,2,0.3,2.6,0.3
		s1.1-0.2,1.4-0.7s0.5-1.2,0.6-2.3c0.1-1.1,0.1-2.2,0.1-3.2s-0.1-2.2-0.4-3.3c-3,0.4-5.2,0.8-6.5,1.2c-1.4,0.4-2.2,0.6-2.5,0.6
		s-0.7-0.1-1.1-0.4s-0.6-0.5-0.6-0.7s0.4-0.4,1.2-0.4c1.4-0.1,4.5-0.5,9.4-1.4c-0.3-1-0.8-1.8-1.4-2.3c-0.7-0.5-1-0.9-1-1.1
		s0.2-0.3,0.6-0.3s1,0.1,1.8,0.3c0.2-0.2,0.5-0.6,1-1.3c0.5-0.6,0.9-1.2,1.2-1.8c0.3-0.6,0.5-0.9,0.5-1.1s-0.1-0.2-0.2-0.2
		c-0.6,0-2,0.5-4.3,1.5c-1.1,0.5-1.9,0.8-2.4,0.8c-0.4,0-0.9-0.2-1.3-0.6c-0.5-0.4-0.7-0.7-0.7-0.9s0.4-0.3,1.3-0.3s2-0.2,3.4-0.6
		c1.4-0.4,2.6-0.8,3.7-1.3c0.4-0.2,0.8-0.2,1.2-0.2c0.5,0,1.1,0.3,1.8,0.9c0.8,0.6,1.2,1.1,1.2,1.4s-0.4,0.6-1.3,1
		c-1.3,0.5-2.8,1.6-4.5,3.2C83.9,21.2,84.3,22,84.7,23.3z"/>
</g>
</svg>
