<?xml version="1.0" encoding="utf-8"?>
<!-- Generator: Adobe Illustrator 19.0.0, SVG Export Plug-In . SVG Version: 6.00 Build 0)  -->
<svg version="1.1" id="图层_1" xmlns="http://www.w3.org/2000/svg" xmlns:xlink="http://www.w3.org/1999/xlink" x="0px" y="0px"
	 viewBox="52.4 4.3 139.4 32.8" style="enable-background:new 52.4 4.3 139.4 32.8;" xml:space="preserve">
<style type="text/css">
	.st0{enable-background:new    ;}
	.st1{fill:#FFFFFF;}
</style>
<g class="st0">
	<path class="st1" d="M68.1,28.9c4.7-0.6,7.7-0.8,9.1-0.8c1.4,0,2.5,0.3,3.2,0.8s1.1,1,1.1,1.4c0,0.5-0.5,0.7-1.5,0.7
		c-0.6,0-1.5-0.1-2.6-0.4c-1.1-0.2-2.7-0.4-4.7-0.4s-4.6,0.2-7.8,0.5c-3.2,0.3-5.6,0.7-7.2,1.2c-1.6,0.5-2.6,0.7-3,0.7
		s-0.9-0.3-1.5-0.8c-0.6-0.5-0.8-0.8-0.8-1c0-0.1,0.4-0.2,1.2-0.3L66.7,29c1.8-3.9,2.7-7,2.7-9.3c0-0.5-0.1-0.9-0.2-1.2
		c-0.1-0.3-0.2-0.6-0.2-0.8s0.2-0.4,0.5-0.4s0.9,0.3,1.9,0.8c0.9,0.5,1.4,1,1.4,1.4s-0.2,0.8-0.5,1.3C71.8,21.3,70.5,24,68.1,28.9z
		 M73.5,13.4c0.7,0,1.2,0.1,1.6,0.4c0.4,0.3,0.6,0.5,0.6,0.8c0,0.5-1,0.9-3,1.2c-0.5,0-1.6,0.2-3.4,0.6c-1.8,0.3-3.2,0.6-4,0.8
		c-1.8,0.4-3.5,0.5-5.1,0.5c-0.8,0-1.4-0.1-1.9-0.4c-0.5-0.2-0.8-0.4-0.8-0.5c0-0.2,0.5-0.4,1.6-0.4s2.7-0.3,4.9-0.8
		c2.2-0.5,4.1-0.9,5.7-1.4C71.3,13.6,72.6,13.4,73.5,13.4z M64.3,24.2c0,0.5-0.1,0.9-0.3,1.4c-0.2,0.5-0.4,0.7-0.7,0.7
		s-0.6-0.2-0.9-0.6s-0.7-1.2-1.3-2.6c-0.6-1.3-0.8-2.2-0.8-2.5s0.1-0.4,0.4-0.4c0.3,0,0.9,0.4,1.9,1.3
		C63.8,22.4,64.3,23.3,64.3,24.2z M65.1,7.2c1.3,0,2.4,0.3,3.2,0.8c0.9,0.6,1.3,1.3,1.3,2.1c0,0.4-0.1,0.6-0.3,0.9
		c-0.2,0.3-0.5,0.3-0.8,0.3s-0.9-0.3-1.7-0.8s-1.6-1.1-2.3-1.8c-0.8-0.7-1.2-1.1-1.2-1.2C63.3,7.3,63.9,7.2,65.1,7.2z"/>
	<path class="st1" d="M91.3,9.5c1.3-0.2,2.6-0.4,3.8-0.7c1.2-0.3,2-0.6,2.3-0.8c0.5-0.4,0.9-0.6,1.4-0.6s1.2,0.2,2.1,0.7
		c1,0.5,1.4,0.9,1.4,1.2c0,0.3-0.2,0.6-0.5,0.9s-0.6,0.9-1,1.9c-0.3,0.9-0.6,2.1-0.9,3.4c-0.4,2.2-0.9,3.3-1.6,3.3
		c-0.2,0-0.4-0.1-0.7-0.2c-0.2-0.1-0.5-0.2-0.7-0.2s-0.8,0.1-1.7,0.4c-0.9,0.3-1.9,0.5-3,0.7c0.1,1.6,0,3.8-0.2,6.4
		c3-1.6,4.8-2.6,5.3-2.9c-0.8-0.8-1.2-1.3-1.3-1.5s-0.1-0.3-0.1-0.4s0.2-0.2,0.5-0.2c1.1,0,2.1,0.4,3.2,1.1c1.1,0.7,1.6,1.5,1.6,2.5
		c0,0.8-0.2,1.2-0.6,1.2c-0.2,0-0.4-0.1-0.6-0.2s-1-0.8-2.1-1.9c-1.4,1-2.7,1.9-3.9,3c-1.2,1-2.1,1.8-2.6,2.5c-0.5,0.6-0.9,1-1.2,1
		s-0.5-0.2-0.8-0.7s-0.4-1-0.4-1.4s0.2-0.9,0.7-1.4c0.8-0.9,1.2-2.8,1.2-5.5c0-5.5-0.5-9.1-1.4-10.5c-0.3-0.4-0.4-0.7-0.4-1
		c0-0.2,0.2-0.4,0.6-0.4C90.1,9.1,90.7,9.3,91.3,9.5z M92.4,18.8c2.6-0.8,4.1-1.2,4.4-1.2c0.3,0.1,0.5,0.1,0.6,0.1
		c0.1,0,0.3-0.1,0.4-0.4c0.1-0.3,0.2-1.1,0.4-2.5c0.1-1.4,0.2-2.5,0.2-3.4s-0.1-1.4-0.2-1.7c-0.1-0.2-0.4-0.4-0.8-0.4
		c-0.7,0-2.1,0.3-4,0.8c-0.7,0.2-1.2,0.3-1.5,0.3c0.2,0.7,0.3,1.9,0.4,3.6c1.8-0.6,2.8-1,3.2-1s0.7,0.1,0.9,0.2
		c0.2,0.1,0.3,0.2,0.3,0.3c0,0.2-0.5,0.5-1.5,0.8c-1,0.3-2,0.4-2.9,0.4C92.3,15.3,92.3,16.7,92.4,18.8z M105.3,13.4
		c1,0,2-0.2,2.9-0.5c0.9-0.3,1.7-0.6,2.3-1.1c0.6-0.4,1.2-0.7,1.6-0.7c0.5,0,1.2,0.3,2.2,0.9s1.5,1,1.5,1.2c0,0.2-0.2,0.4-0.5,0.7
		c-0.6,0.6-1,1.9-1.1,4.1c0,1.1-0.1,1.9-0.3,2.6c-0.1,0.6-0.4,1.3-0.8,2c-0.4,0.7-0.7,1.1-0.9,1.2s-0.4,0.2-0.6,0.2
		s-0.4-0.1-0.6-0.4c-0.8-1.1-1.6-1.9-2.3-2.5c-0.3-0.2-0.4-0.4-0.4-0.5s0.1-0.2,0.2-0.2c0.2,0,0.4,0,0.8,0.1
		c0.3,0.1,0.8,0.1,1.2,0.1c0.5,0,0.8-0.1,1.1-0.4c0.3-0.3,0.4-1,0.6-2.2c0.1-1.2,0.2-2.2,0.2-3.1s-0.1-1.4-0.3-1.6
		c-0.2-0.2-0.5-0.3-1-0.3s-1.6,0.3-3.2,0.8c-0.6,0.2-1,0.3-1.2,0.3c0.2,4.2,0.3,8.1,0.3,11.6s-0.1,6.3-0.4,8.4
		c-0.3,2.1-0.6,3.1-1,3.1c-0.4,0-0.6-1.3-0.6-3.9l0.1-7.8c0-4.6-0.1-7.6-0.3-8.8s-0.4-2-0.7-2.3c-0.3-0.3-0.5-0.6-0.5-0.9
		s0.3-0.4,0.8-0.4C104.6,13.3,104.9,13.3,105.3,13.4z"/>
	<path class="st1" d="M131.7,14.6c0.7-1.2,1.4-2.3,1.9-3.4s0.7-1.7,0.7-1.9c0-0.2-0.1-0.3-0.2-0.3c-0.2,0-0.4,0.1-0.8,0.2
		c-1.2,0.5-2.1,0.7-2.6,0.7s-0.9-0.1-1.2-0.3c-0.4-0.2-0.6-0.4-0.6-0.6c0-0.2,0.2-0.3,0.5-0.3c0.9-0.1,1.8-0.2,2.7-0.5
		c0.9-0.2,1.6-0.5,2.1-0.8S135,7,135.3,7c0.2,0,0.7,0.2,1.3,0.7c0.6,0.5,0.9,0.9,0.9,1.1c0,0.2-0.1,0.5-0.4,0.7
		c-0.3,0.2-0.6,0.6-1,1.2c-0.4,0.6-0.7,1.1-0.9,1.5c-0.6,1.1-1.7,2.8-3.3,5c-1.7,2.2-3.4,3.9-5.1,4.9s-2.8,1.6-3.3,1.6
		c-0.1,0-0.2-0.1-0.2-0.2s0.2-0.4,0.7-0.7c3-2.1,5.5-4.6,7.4-7.5c-0.9-0.4-1.7-0.9-2.4-1.5c-0.7-0.7-1-1.1-1-1.5
		c0-0.2,0.2-0.3,0.7-0.3s1.1,0.2,1.8,0.6C131.2,13,131.6,13.7,131.7,14.6z M140.2,31.1c1.1-0.1,2-0.2,2.8-0.4
		c0.8-0.1,1.7-0.2,2.6-0.2c0.9,0,1.7,0.2,2.5,0.6s1.2,0.8,1.2,1.1c0,0.2-0.1,0.4-0.4,0.6S148.4,33,148,33c-0.3,0-0.6,0-0.8-0.1
		c-2.1-0.3-4.1-0.5-6.1-0.5s-4.1,0.1-6.3,0.4c-2.2,0.3-3.6,0.5-4.1,0.6s-0.8,0.4-1.2,0.4s-0.9-0.2-1.5-0.5c-0.6-0.3-0.9-0.6-0.9-0.8
		s0.1-0.3,0.2-0.3c0.1,0,0.5-0.1,0.9-0.1c0.5,0,1.8-0.1,4.1-0.3c2.2-0.2,4.4-0.4,6.6-0.6c1.3-2.2,2-3.8,2-4.6c0-0.2,0-0.4-0.1-0.5
		s-0.1-0.2-0.1-0.3c0-0.3,0.2-0.4,0.5-0.4s0.8,0.2,1.5,0.6s1,0.8,1,1c0,0.3-0.2,0.5-0.7,0.7C142.6,28.1,141.6,29.2,140.2,31.1z
		 M133.6,20.3c3.6-0.2,5.8-0.5,6.8-1c0.5-0.3,1-0.4,1.4-0.4s1,0.2,1.8,0.7s1.2,0.8,1.2,1.1c0,0.3-0.2,0.5-0.6,0.8
		c-0.4,0.3-0.9,0.7-1.3,1.4c-0.4,0.6-0.6,1.1-0.5,1.4c0,0.1,0,0.2,0,0.3c0,0.1,0,0.2-0.1,0.2s-1,0.1-2.8,0.3
		c-1.8,0.1-3.3,0.3-4.6,0.5c0,0.5-0.1,0.8-0.5,0.8c-0.2,0-0.3-0.1-0.4-0.3c-0.1-0.2-0.3-0.6-0.4-1.3c-0.3-1.4-0.8-2.5-1.5-3.5
		c-0.3-0.4-0.5-0.7-0.5-0.9s0.2-0.3,0.5-0.3S132.9,20.1,133.6,20.3z M135.7,29.1c0,0.9-0.3,1.3-0.8,1.3s-0.9-0.5-1.4-1.5
		s-0.7-1.6-0.7-1.8c0-0.2,0.1-0.3,0.4-0.3c0.3,0,0.8,0.2,1.4,0.5C135.4,27.7,135.7,28.2,135.7,29.1z M140.8,15.1
		c0.4,0,0.7,0.1,1.1,0.2c0.3,0.1,0.5,0.3,0.5,0.5c0,0.2-0.1,0.3-0.3,0.5c-0.2,0.1-1.1,0.4-2.5,0.7c-1.5,0.3-2.6,0.5-3.4,0.5
		c-0.8,0-1.4-0.1-1.8-0.2s-0.6-0.3-0.6-0.5s0.2-0.3,0.7-0.4s1.2-0.2,2.3-0.4c1.1-0.2,1.9-0.4,2.5-0.6
		C139.7,15.2,140.3,15.1,140.8,15.1z M134.9,24.6l3.4-0.4c1.2-0.2,1.9-0.3,2.1-0.3c0.2,0,0.3-0.1,0.4-0.3s0.2-0.5,0.4-1.2
		c0.1-0.6,0.2-1.1,0.2-1.5c0-0.3-0.3-0.5-0.8-0.5l-6.3,0.7C134.6,22.2,134.8,23.3,134.9,24.6z M143.7,12.4c2.3,2.4,4.1,4,5.3,4.8
		c1.2,0.8,3.1,1.6,5.5,2.2c0.7,0.2,1,0.4,1,0.6c0,0.1-0.1,0.2-0.3,0.3s-0.9,0.2-2.2,0.3c-1.2,0.1-2.2,0.1-3,0.1s-1.3-0.1-1.8-0.4
		s-1-0.8-1.5-1.6c-2.1-3-3.8-5.2-5-6.7c-1.2-1.4-2.4-2.6-3.5-3.5c-0.1-0.1-0.2-0.3-0.2-0.4c0-0.3,0.2-0.4,0.5-0.4s0.7,0.2,1.2,0.7
		c1.6-1.4,2.5-2.4,2.6-2.9c0.2-0.5,0.4-0.8,0.6-0.8c0.2,0,0.7,0.2,1.3,0.6s0.9,0.7,0.9,0.9c0,0.2-0.1,0.3-0.2,0.4
		c-0.1,0.1-0.7,0.4-1.7,0.9l-3.1,1.4c0.4,0.3,1.3,1.3,2.8,2.9c1-0.7,1.8-1.3,2.4-1.8c0.6-0.5,0.9-1,1-1.4s0.3-0.6,0.5-0.6
		s0.7,0.2,1.5,0.7s1.2,0.9,1.2,1.1c0,0.3-0.2,0.4-0.5,0.5c-0.4,0-1.1,0.3-2.1,0.6C145.9,11.4,144.8,11.9,143.7,12.4z"/>
	<path class="st1" d="M178.4,22.7c1.8,1.6,3.6,2.9,5.5,3.9c1.8,1,4,1.7,6.6,2.1c0.8,0.1,1.3,0.3,1.3,0.6c0,0.1-0.1,0.2-0.4,0.3
		c-0.3,0.1-1.2,0.3-2.7,0.5c-1.6,0.2-2.7,0.3-3.3,0.3s-1.1-0.1-1.5-0.2s-0.7-0.4-1-0.7c-0.3-0.3-1.4-1.4-3.1-3.3
		c-1.7-1.9-3.3-3.7-4.6-5.3c0,1.3,0.1,3,0.2,4.8l0.3,4.9c0,0.9-0.3,1.8-0.9,2.9s-1.1,1.6-1.4,1.6c-0.4,0-0.7-0.3-0.9-0.8
		c-0.6-1.3-1.2-2.4-1.9-3c-0.2-0.2-0.4-0.4-0.4-0.5s0.1-0.2,0.3-0.2s0.5,0,1,0.1s0.9,0.1,1.2,0.1s0.6-0.2,0.7-0.5
		c0.1-0.3,0.2-1,0.3-2s0.1-2.7,0.1-5.1s-0.1-4.1-0.2-5c-0.1-0.9-0.3-1.7-0.6-2.2c-4.4,0.5-7,0.8-7.8,0.9c-0.8,0.2-1.4,0.2-1.8,0.2
		s-0.8-0.1-1.2-0.4s-0.7-0.5-0.7-0.7s0.3-0.3,0.8-0.3c1,0,2.1-0.1,3.4-0.2l12-1.1c0.4-1.5,0.8-2.9,1-4.3s0.4-2.3,0.4-2.6
		c0-0.3,0-0.5-0.1-0.6s-0.3-0.2-0.8-0.2s-1.5,0.1-3.3,0.3c-1.8,0.2-3.1,0.4-4.1,0.6c-0.9,0.2-1.6,0.3-2,0.3s-0.8-0.1-1.2-0.4
		S167,7,167,6.9s0.3-0.2,0.8-0.3c2-0.2,4.1-0.5,6.4-0.9c2.3-0.4,3.6-0.7,4-1s0.8-0.4,1.2-0.4s1,0.3,1.9,0.8c0.8,0.5,1.3,0.9,1.3,1.3
		c0,0.2-0.1,0.4-0.4,0.7c-0.3,0.3-0.6,0.7-0.8,1.3c-0.3,0.6-0.7,1.9-1.4,4c-0.2,0.7-0.4,1.3-0.6,1.6l3-0.4c1.4-0.2,2.5-0.4,3.2-0.4
		c0.8,0,1.4,0.2,1.9,0.5c0.5,0.4,0.7,0.7,0.7,0.9c0,0.4-0.4,0.6-1.3,0.6c-0.2,0-0.4,0-0.6,0c-1-0.1-2.3-0.2-4-0.2s-4.4,0.2-8,0.5
		c0.6,0.4,1,0.7,1.2,0.9c0.2,0.2,0.3,0.3,0.3,0.5s0,0.2,0,0.4c-0.1,0.4-0.2,1.1-0.3,1.9c1,1,1.9,1.8,2.7,2.6c1.9-1.5,3-2.8,3.3-4.1
		c0.1-0.6,0.3-0.9,0.6-0.9s0.8,0.3,1.5,0.8s1.1,1,1.1,1.2c0,0.3-0.2,0.5-0.5,0.6C182.7,20.4,180.8,21.3,178.4,22.7z M172.6,24
		C172.7,24,172.7,24,172.6,24c0.1,0.2-0.3,0.5-1.1,1.1c-4.2,3-6.6,4.8-7.1,5.2c-0.3,0.2-0.5,0.4-0.8,0.4s-0.7-0.3-1.3-0.9
		s-0.9-1-0.9-1.3s0.3-0.4,1-0.5s1.6-0.3,2.8-0.8s3.3-1.5,6.2-3c0.5-0.2,0.8-0.4,0.9-0.4S172.6,23.9,172.6,24z M166.1,19.4
		c0.5,0,1.2,0.1,2,0.3c0.8,0.2,1.4,0.4,1.7,0.7c0.3,0.3,0.5,0.8,0.5,1.4s-0.2,0.9-0.7,0.9s-1.3-0.5-2.5-1.3
		c-1.2-0.9-1.8-1.5-1.8-1.7C165.4,19.5,165.6,19.4,166.1,19.4z M177.7,10.6c0,0.2-0.2,0.4-0.5,0.5s-1.4,0.3-3.2,0.5
		c-1.8,0.2-2.9,0.3-3.4,0.3s-1-0.1-1.3-0.3c-0.3-0.2-0.5-0.4-0.5-0.5s0.2-0.2,0.7-0.3c0.4,0,1.2-0.2,2.4-0.4c1.2-0.2,2-0.4,2.5-0.5
		s1.1-0.2,1.7-0.2s1,0.1,1.3,0.3C177.5,10.3,177.7,10.5,177.7,10.6z"/>
</g>
</svg>
