<?xml version="1.0" encoding="utf-8"?>
<!-- Generator: Adobe Illustrator 19.0.0, SVG Export Plug-In . SVG Version: 6.00 Build 0)  -->
<svg version="1.1" id="图层_1" xmlns="http://www.w3.org/2000/svg" xmlns:xlink="http://www.w3.org/1999/xlink" x="0px" y="0px"
	 viewBox="21.1 2.9 72.8 35.2" style="enable-background:new 21.1 2.9 72.8 35.2;" xml:space="preserve">
<style type="text/css">
	.st0{enable-background:new    ;}
	.st1{fill:#FFFFFF;}
</style>
<g class="st0">
	<path class="st1" d="M26.7,8.6c-0.5,0-1.1-0.1-1.7-0.3s-0.9-0.4-0.9-0.6c0-0.2,0.3-0.4,0.8-0.4C26,7.2,27.8,7,30.2,6.5
		s4.5-1,6.5-1.5c0.6-0.2,1.2-0.2,1.9-0.2s1.3,0.1,1.9,0.3c0.5,0.2,0.8,0.5,0.8,0.7c0,0.3-0.3,0.5-0.8,0.6C40,6.6,38,6.9,34.6,7.5
		c0.8,0.4,1.4,0.7,1.8,1C36.8,8.8,37,9.1,37,9.4s-0.1,0.7-0.3,1.2s-0.3,1.5-0.4,3.1l-0.2,9.4c1.6-0.6,2.6-1,2.9-1
		c0.4,0,0.5,0.1,0.5,0.2c0,0.4-1.2,1.1-3.5,2.1l0.1,6.7c0,0.9-0.1,1.9-0.2,3.2c-0.1,1.3-0.3,2.1-0.5,2.5c-0.2,0.3-0.4,0.5-0.7,0.5
		s-0.6-0.4-0.9-1.1c-0.3-0.8-0.5-1.4-0.5-2c0-0.5,0.1-1.1,0.2-1.7c0.3-1.4,0.5-3.8,0.7-7.4c-4.3,2-7.5,3.5-9.4,4.4
		c-0.6,0.3-1,0.5-1.3,0.5s-0.8-0.3-1.4-0.8s-1-1-1-1.3s0.4-0.5,1.1-0.5c1,0,2.6-0.4,4.9-1.2c0.1-5.3,0.2-9,0.2-11.1s0-3.6-0.1-4.5
		C27.2,10,27,9.2,26.7,8.6z M34.3,23.9c0-1.6,0-4.2,0-7.8s0-5.8-0.1-6.5s-0.3-1.3-0.6-1.8c-2.9,0.5-4.9,0.8-6,0.8
		c0.6,0.4,1.1,0.7,1.4,1s0.5,0.5,0.5,0.8s0,0.5-0.1,0.8s-0.1,1.3-0.1,2.9c1.5-0.7,2.4-1.1,2.8-1.1s0.7,0.1,1,0.2
		c0.3,0.1,0.4,0.4,0.4,0.6s-0.3,0.5-1,0.7s-1.3,0.3-1.8,0.3s-1,0-1.4-0.1l-0.2,5c1.7-0.7,2.7-1,3.1-1c0.4,0,0.7,0.1,0.9,0.2
		c0.2,0.2,0.3,0.4,0.3,0.6c0,0.3-0.3,0.5-0.8,0.7s-1.1,0.3-1.6,0.3s-1.2-0.1-1.9-0.3l-0.2,5.6L34.3,23.9z M46.9,22.4
		c1.1,1.4,2.4,2.7,4,3.7c1.5,1.1,4,2.1,7.5,2.9c0.4,0.1,0.6,0.3,0.6,0.5c0,0.1-0.1,0.2-0.2,0.3c-0.1,0.1-1,0.2-2.6,0.3
		s-2.9,0.2-3.7,0.2c-0.9,0-1.5-0.1-1.8-0.3c-0.4-0.2-0.9-0.8-1.6-1.7c-0.7-0.9-1.7-2.3-3-4.3c-1.3,1.9-2.8,3.4-4.7,4.2
		c-1.8,0.9-3.2,1.3-4,1.3c-0.2,0-0.4-0.1-0.4-0.3c0-0.2,0.2-0.4,0.7-0.5c3.3-1.5,5.6-3.7,7.1-6.5c-1.4-2.2-2.4-3.7-2.9-4.4
		c-0.6-0.7-1.4-1.5-2.3-2.2c-0.3-0.3-0.5-0.5-0.5-0.7s0-0.1,0.4-0.1s0.9,0.2,1.7,0.6c0.7,0.4,1.4,1,1.9,1.7s1.3,1.9,2.5,3.4
		c0.5-1.4,1-3,1.3-4.7c0.3-1.7,0.5-2.7,0.5-3.1c0-0.3-0.3-0.5-1-0.5c-0.6,0-1.8,0.2-3.4,0.7c-1.6,0.5-2.7,0.7-3.2,0.7
		s-0.9-0.1-1.2-0.2c-0.3-0.1-0.4-0.3-0.4-0.5s0.4-0.4,1.2-0.5s2.1-0.5,4-1.1s3.1-1.1,3.6-1.5c0.6-0.4,1.1-0.7,1.6-0.7s1.2,0.3,2,0.8
		s1.2,0.9,1.2,1.2s-0.2,0.6-0.6,0.9c-0.7,0.6-1.2,1.4-1.5,2.4C48.6,18.4,47.6,21,46.9,22.4z"/>
	<path class="st1" d="M64.5,14.1c0.8,0,1.7,0.3,2.7,0.8s1.5,1.3,1.5,2.2s-0.4,1.4-1.1,1.4s-1.5-0.6-2.3-1.8
		c-0.8-1.2-1.2-1.9-1.2-2.2C64.1,14.3,64.2,14.1,64.5,14.1z M71.5,19.5c0,0.3-0.1,0.6-0.3,1.1c-1.9,4.6-3.3,8.3-4.1,11.3
		c-0.2,0.9-0.5,1.3-0.8,1.3s-0.8-0.7-1.4-2s-0.8-2.2-0.8-2.6s0.2-0.6,0.5-0.6c0.7,0,1.6-1,2.8-3c1.9-3.1,3-4.8,3.3-5.2
		s0.5-0.6,0.6-0.6S71.5,19.3,71.5,19.5z M68.1,5.6c0.3,0,0.9,0.1,1.8,0.4s1.5,0.6,1.9,1.1s0.6,1,0.6,1.6s-0.1,1-0.3,1.3
		c-0.2,0.3-0.5,0.4-1,0.4S70,9.7,69,8.4S67.6,6.2,67.6,6S67.8,5.6,68.1,5.6z M74.3,10c0.3,0,1,0.3,1.9,0.8s1.4,1.2,1.4,2
		c0,0.4-0.1,0.8-0.4,1s-0.5,0.4-0.9,0.4s-0.9-0.5-1.5-1.6s-1-1.8-1-2.1C73.9,10.1,74,10,74.3,10z M82.8,15.3c1.8-0.4,2.9-0.7,3.4-1
		c0.2-0.1,0.5-0.2,0.8-0.2s1,0.3,2,0.9c1,0.6,1.5,1.1,1.5,1.5c0,0.2-0.1,0.4-0.2,0.6c-0.3,0.5-0.4,1.3-0.4,2.4c0,1.1,0,2.1,0.1,3.1
		c0.3,4.2,0.5,7.3,0.5,9.4c0,1.7-0.3,3.1-1,4.3s-1.2,1.8-1.5,1.8s-0.6-0.3-0.9-0.7c-0.7-1.4-1.8-2.8-3.3-4.1
		c-0.2-0.2-0.4-0.4-0.4-0.5s0.1-0.2,0.3-0.2c0.2,0,0.6,0.1,1.2,0.2S86,33,86.4,33s0.7-0.1,0.9-0.2s0.3-0.8,0.4-2s0.1-2.5,0.1-3.9
		c0-1.4-0.1-3-0.3-4.7c-0.2-1.7-0.4-3-0.5-3.9c-0.2-0.9-0.4-1.4-0.5-1.6s-0.4-0.3-0.6-0.3c-0.3-0.1-0.7-0.1-1.3-0.1
		c-1.3,0-2.5,0.1-3.6,0.4c-1.1,0.2-2.1,0.4-3,0.5c0.2,0.9,0.3,2.1,0.2,3.5c2.9-0.7,4.6-1.1,5.2-1.1c0.5,0,1,0.1,1.3,0.2
		c0.3,0.1,0.5,0.3,0.5,0.5s-0.1,0.4-0.3,0.6c-0.2,0.2-0.8,0.3-1.9,0.5s-2,0.2-2.8,0.2s-1.4-0.1-2-0.2c-0.1,1.8-0.2,3.2-0.2,4.3
		c3.1-0.8,5.1-1.2,5.8-1.2c0.3,0,0.7,0.1,1,0.3s0.5,0.4,0.5,0.6c0,0.4-0.7,0.8-2.1,1s-2.4,0.4-3.1,0.4s-1.4-0.1-2.1-0.3
		c-0.3,3.5-0.6,5.9-1.1,7.1c-0.5,1.2-0.9,1.8-1.4,1.8c-0.3,0-0.6-0.3-0.7-0.9c-0.2-0.6-0.3-1.3-0.3-1.9c0-0.6,0.1-1.1,0.2-1.3
		c0.7-1.1,1.2-2.7,1.5-4.7s0.4-3.8,0.4-5.5s-0.2-3-0.7-3.8c-0.1-0.2-0.2-0.4-0.2-0.6c0-0.3,0.1-0.4,0.4-0.4s0.6,0.1,0.9,0.2l3.8-0.6
		c0.1-2.5,0.2-4.5,0.2-5.9c0-1.5-0.1-2.6-0.2-3.5S80.4,4.8,80,4.2c-0.2-0.3-0.3-0.6-0.3-0.9s0.2-0.4,0.6-0.4s1.1,0.2,2.1,0.6
		s1.4,0.8,1.4,1.3c0,0.2-0.1,0.6-0.3,1.2S83.2,7.6,83,8.8C83.1,9.7,83,12,82.8,15.3z M93.9,8.2c0,0.2-0.1,0.3-0.4,0.4
		C92,9,90.9,9.5,90,10s-1.8,1-2.7,1.4c-0.9,0.4-1.5,0.6-1.7,0.6s-0.3-0.1-0.3-0.3s0.1-0.3,0.3-0.5c1.8-1.3,2.9-2.3,3.4-2.9
		s0.7-1.3,0.8-2c0-0.3,0.2-0.4,0.6-0.4s1.1,0.3,2.1,0.9C93.4,7.4,93.9,7.9,93.9,8.2z"/>
</g>
</svg>
