<?xml version="1.0" encoding="utf-8"?>
<!-- Generator: Adobe Illustrator 19.0.0, SVG Export Plug-In . SVG Version: 6.00 Build 0)  -->
<svg version="1.1" id="图层_1" xmlns="http://www.w3.org/2000/svg" xmlns:xlink="http://www.w3.org/1999/xlink" x="0px" y="0px"
	 viewBox="20.8 3.6 73.3 34.7" style="enable-background:new 20.8 3.6 73.3 34.7;" xml:space="preserve">
<style type="text/css">
	.st0{enable-background:new    ;}
	.st1{fill:#FFFFFF;}
</style>
<g class="st0">
	<path class="st1" d="M36.8,22.9c0.7,0.4,1.2,0.8,1.5,1.1c0.3,0.3,0.5,0.7,0.5,1s-0.1,0.7-0.2,1.1c-0.3,1-0.4,2.3-0.4,3.8
		s0.2,2.5,0.5,3.1c0.3,0.5,0.8,0.9,1.6,1.1c0.7,0.2,1.6,0.4,2.6,0.4s2.2-0.1,3.5-0.3c1.3-0.2,2.4-0.6,2.9-1.3c0.6-0.7,1.2-2.5,2-5.4
		c0.1-0.4,0.3-0.6,0.5-0.6c0.2,0,0.3,0.5,0.3,1.4s0.1,1.8,0.2,2.7c0.1,0.9,0.3,1.4,0.5,1.7c0.2,0.3,0.3,0.6,0.3,0.8
		c0,1-0.8,1.8-2.5,2.6c-1.7,0.7-3.5,1.1-5.6,1.1c-3.5,0-5.9-0.6-7.1-1.9c-1.2-1.3-1.7-2.7-1.5-4.2c0.2-2.2,0.3-3.9,0.3-5.3
		c0-1.3-0.1-2.3-0.4-2.7l-4,0.9c1,0.8,1.5,1.4,1.5,1.7s-0.1,0.6-0.3,0.9c-0.2,0.3-0.6,0.9-1.1,1.8c-1.1,2-2.9,3.7-5.2,5
		s-4.2,2-5.7,2c-0.5,0-0.7-0.1-0.7-0.2s0.2-0.3,0.6-0.5c2.1-0.9,3.7-1.8,4.8-2.7c1.1-0.9,2.1-1.8,2.9-2.9s1.4-1.9,1.7-2.7
		c0.3-0.7,0.5-1.2,0.5-1.6c0-0.3,0-0.6,0-0.7c-1,0.2-1.8,0.2-2.5,0.2s-1.3-0.1-1.7-0.3c-0.5-0.2-0.7-0.4-0.7-0.6s0.2-0.4,0.7-0.4
		c0.5-0.1,2.1-0.4,4.9-1c2.8-0.6,4.6-1,5.5-1.2c2.5-0.7,4.1-1,4.9-1s1.3,0.1,1.6,0.3c0.3,0.2,0.5,0.4,0.5,0.6c0,0.4-0.5,0.7-1.4,0.9
		C41.8,21.8,39.8,22.2,36.8,22.9z M27.3,11.6c1.1-0.4,3.5-0.9,7.3-1.6c5.8-1,9-1.6,9.6-1.8C44.8,8,45.1,8,45.3,8
		c0.6,0,1.6,0.5,2.9,1.4s1.9,1.7,1.9,2.2s-0.4,0.8-1.2,0.8c-0.4,0-1,0.2-1.9,0.5s-1.6,0.6-2.1,0.9c-0.6,0.3-0.9,0.5-1.1,0.5
		s-0.3-0.1-0.3-0.2c0-0.1,0.2-0.7,0.7-1.6c0.5-0.9,0.7-1.5,0.7-1.9c0-0.3-0.3-0.5-0.8-0.5c-0.6,0-2,0.2-4.1,0.5s-4.6,0.8-7.5,1.4
		c-2.9,0.6-4.7,0.9-5.3,0.8c-0.2,0.9-0.6,2-1.3,3.3c-0.6,1.3-1.2,1.9-1.6,1.9c-0.2,0-0.5-0.2-0.8-0.6s-0.4-0.8-0.4-1.4
		c0-0.5,0.2-1,0.5-1.5c0.7-1,1.3-2.3,1.7-3.8c0.2-0.6,0.4-0.9,0.6-0.9C26.4,9.8,26.8,10.4,27.3,11.6z M40.2,16
		c0,0.3-0.2,0.5-0.7,0.8c-0.5,0.2-1.6,0.6-3.4,1.1s-3.1,0.7-3.8,0.7c-0.7,0-1.4-0.1-1.8-0.4c-0.5-0.2-0.7-0.4-0.7-0.6
		s0.2-0.3,0.6-0.3c0.4-0.1,1.1-0.2,2.1-0.5c1-0.3,1.7-0.5,2-0.6c1.7-0.7,2.8-1,3.5-1c0.6,0,1.2,0.1,1.6,0.3
		C40.1,15.5,40.2,15.7,40.2,16z M33.5,4c1.5,0,2.7,0.2,3.7,0.6c1,0.4,1.5,1.1,1.5,2.1c0,1.1-0.3,1.6-1,1.6c-0.3,0-0.7-0.2-1.2-0.5
		s-1-0.8-1.7-1.4c-0.6-0.6-1.1-1-1.5-1.4c-0.4-0.4-0.5-0.6-0.5-0.8C32.8,4,33.1,4,33.5,4z"/>
	<path class="st1" d="M83.1,26.9c0.7,1.1,1.5,2.1,2.3,3.1c0.9,1,1.8,1.9,2.7,2.7c0.9,0.8,1.5,1.2,1.8,1.4c0.3,0.1,0.5,0.2,0.7,0.2
		s0.3-0.1,0.5-0.2c0.2-0.1,0.4-0.6,0.7-1.4c0.3-0.8,0.6-1.5,0.8-2.1c0.2-0.6,0.4-0.9,0.5-0.9s0.2,0.1,0.3,0.3s0.1,0.7,0.1,1.5
		c0,2.1,0.2,3.7,0.5,4.9c0.1,0.4,0.2,0.7,0.2,1c0,0.6-0.3,0.9-0.9,0.9s-1.5-0.3-2.8-0.9c-1.3-0.6-2.6-1.6-4.1-3
		c-1.4-1.4-2.9-3.3-4.5-5.8c-1.3,1.4-2.6,2.5-3.9,3.3c-1.4,0.8-2.3,1.2-3,1.2c-0.2,0-0.2-0.1-0.2-0.2s0.2-0.3,0.6-0.6
		c2.6-1.9,4.4-3.7,5.6-5.4c-1.5-3-3-6.8-4.4-11.3c-4.3,0.8-6.7,1.2-7.4,1.2s-1.1,0-1.4-0.1c0.1,1.1,0.2,2.2,0.2,3.2s-0.1,2-0.2,3.1
		c0.7-0.1,1.6-0.4,2.5-0.7c0.9-0.3,1.5-0.6,1.8-0.8c0.3-0.2,0.7-0.4,1.1-0.4s0.9,0.2,1.6,0.5s1.1,0.6,1.1,0.9s-0.1,0.6-0.4,1.1
		s-0.5,1.5-0.7,3s-0.4,2.7-0.6,3.4c-0.2,0.7-0.6,1.4-1.1,2.1c-0.5,0.7-1,1.1-1.3,1.4c-0.3,0.2-0.5,0.3-0.7,0.3
		c-0.4,0-0.7-0.3-0.8-0.8c-0.3-0.9-0.6-1.6-1.1-2.2s-0.7-0.9-0.7-1.1s0.1-0.2,0.3-0.2c0.2,0,0.5,0.1,1,0.3c0.5,0.2,1,0.3,1.3,0.3
		c0.4,0,0.7-0.1,0.8-0.3s0.4-0.9,0.6-2.1s0.4-2.4,0.4-3.8c0-0.5-0.3-0.7-0.8-0.7c-0.3,0-0.8,0.1-1.3,0.3c-1,0.4-1.6,0.5-2,0.5
		s-0.8,0-1.2-0.1c-0.2,1.5-0.6,3-1.1,4.2c-0.5,1.3-1.2,2.4-2,3.4c-0.8,1-1.7,2-2.8,2.9s-1.8,1.3-2.2,1.3c-0.1,0-0.2-0.1-0.2-0.3
		s0.2-0.4,0.5-0.7c1.1-1,2.2-2.3,3.1-3.8c0.9-1.5,1.6-3,2.1-4.5s0.7-3.2,0.7-5.2c0-2.4-0.2-3.9-0.7-4.6c-0.3-0.5-0.5-0.9-0.5-1.2
		s0.2-0.4,0.6-0.4s1.2,0.2,2.3,0.7c1.5,0.1,4.4-0.5,8.6-1.6c-0.9-3.6-1.6-5.8-1.9-6.8s-0.8-1.6-1.3-2.1s-0.7-0.8-0.7-1.1
		c0-0.3,0.2-0.5,0.7-0.5s1,0.1,1.8,0.3c0.8,0.2,1.2,0.3,1.5,0.5s0.5,0.3,0.5,0.5c0.1,0.2,0.1,0.6,0.1,1.2c0,1.3,0.4,3.8,1.2,7.5
		l2.6-0.8c0.9-0.3,1.6-0.4,2.1-0.4s1,0.1,1.3,0.3s0.5,0.4,0.5,0.7s-0.2,0.5-0.7,0.7s-2.3,0.6-5.4,1.2c0.8,3.2,2,6.5,3.6,9.8
		c1.3-2.5,2-4.4,2-5.5c0-0.2,0-0.3,0-0.5s0-0.3,0-0.5c0-0.5,0.2-0.7,0.6-0.7s0.9,0.3,1.6,0.8s1.1,0.9,1.1,1.2c0,0.3-0.2,0.6-0.5,1
		s-0.7,1.1-1.2,2C84.9,23.8,84.2,25.2,83.1,26.9z M83.1,6.4c1.2,0,2.1,0.3,2.8,0.9c0.6,0.6,0.9,1.3,0.9,2c0,0.3-0.1,0.6-0.2,0.8
		c-0.2,0.2-0.4,0.3-0.7,0.3s-0.8-0.3-1.5-0.8c-0.6-0.5-1.3-1.1-2-1.6s-1-0.9-1-1.1C81.2,6.6,81.8,6.4,83.1,6.4z"/>
</g>
</svg>
