<?xml version="1.0" encoding="utf-8"?>
<!-- Generator: Adobe Illustrator 19.0.0, SVG Export Plug-In . SVG Version: 6.00 Build 0)  -->
<svg version="1.1" id="图层_1" xmlns="http://www.w3.org/2000/svg" xmlns:xlink="http://www.w3.org/1999/xlink" x="0px" y="0px"
	 viewBox="88.9 4.3 173.1 32.4" style="enable-background:new 88.9 4.3 173.1 32.4;" xml:space="preserve">
<style type="text/css">
	.st0{fill:#FFFFFF;}
</style>
<g>
	<path class="st0" d="M103.2,12.1c2.7,2.1,5.1,3.7,7.3,4.9s4.5,2,6.9,2.5c0.7,0.1,1.1,0.3,1.1,0.5c0,0.1-0.1,0.2-0.3,0.2
		c-0.2,0.1-0.9,0.2-2.1,0.4c-1.2,0.2-2.1,0.3-2.8,0.3c-0.7,0-1.2-0.1-1.7-0.4c-0.5-0.3-1.6-1.2-3.3-2.7c-1.7-1.5-3.4-3-4.9-4.6
		c0,1,0,2,0,2.7l0.1,2c0,0.8-0.2,1.7-0.6,2.6c1.7-0.3,2.7-0.6,3.1-0.8c0.4-0.2,0.7-0.3,1-0.3s1,0.4,2,1.1c1.1,0.7,1.6,1.3,1.6,1.6
		c0,0.2-0.1,0.3-0.4,0.5c-0.3,0.2-0.5,0.5-0.7,1c-0.2,0.5-0.5,1.4-0.9,2.7c-0.1,0.5-0.4,1.2-0.9,2.2c-0.5,1-0.9,1.5-1.2,1.5
		c-0.2,0-0.4-0.1-0.7-0.4c-0.3-0.3-0.6-0.5-0.8-0.6c-0.2-0.1-0.5-0.1-0.8-0.1c-0.3,0-1.1,0.1-2.4,0.2c-1.3,0.2-2.2,0.2-2.8,0.2
		c-0.1,0.7-0.3,1-0.6,1c-0.2,0-0.4-0.1-0.6-0.4c-0.2-0.2-0.4-0.8-0.5-1.8c-0.5-2.9-1.1-4.9-1.7-5.8c-0.2-0.4-0.4-0.7-0.4-0.9
		s0.2-0.3,0.5-0.3c0.3,0,0.7,0,1,0.1c2.1-0.2,3.9-0.4,5.6-0.7c-0.6-1.4-0.9-2.2-0.9-2.6c0-0.4,0-0.7,0-0.9c0.2-1.3,0.3-2.7,0.3-4.2
		c-0.9,1.7-2.2,3.3-3.8,4.6c-1.6,1.4-3.4,2.5-5.3,3.4c-1.9,0.9-3,1.3-3.4,1.3c-0.1,0-0.2-0.1-0.2-0.2c0-0.1,0.2-0.3,0.7-0.6
		c2.2-1.2,4.3-2.7,6.3-4.5s3.6-3.5,4.7-5.3c-1.5,0.3-2.8,0.5-3.8,0.8c-1,0.2-1.7,0.4-2.2,0.4c-0.5,0-0.9-0.2-1.2-0.5
		c-0.4-0.3-0.6-0.6-0.6-0.8c0-0.2,0.3-0.3,0.8-0.3c1.6,0,4.2-0.3,8-1c0-1.7,0-2.8-0.1-3.4c0-0.6-0.2-1-0.4-1.3
		c-0.2-0.3-0.3-0.5-0.3-0.7c0-0.2,0.2-0.4,0.5-0.4s0.8,0.1,1.6,0.3s1.1,0.5,1.1,0.9c0,0.2-0.1,0.5-0.4,1c-0.2,0.5-0.4,1.5-0.5,3.3
		l3.9-0.7c1.1-0.2,2-0.3,2.7-0.3c0.8,0,1.4,0.2,2,0.7c0.6,0.4,0.9,0.7,0.9,0.9c0,0.2-0.2,0.3-0.6,0.3c-0.4,0-1.5,0.1-3.4,0.1
		c-1.9,0-3.7,0.1-5.5,0.3L103.2,12.1z M111.6,31.4c1,0,2,0.3,2.8,0.8c0.8,0.5,1.2,1,1.2,1.4c0,0.4-0.3,0.6-0.8,0.6
		c-0.2,0-0.5,0-0.9-0.1c-1.6-0.4-4.6-0.6-8.8-0.6c-5,0-8.8,0.4-11.4,1.1c-0.8,0.2-1.4,0.4-1.8,0.4c-0.4,0-0.8-0.2-1.2-0.6
		s-0.6-0.8-0.6-1.1s0.4-0.4,1.1-0.4c1.2,0,4-0.1,8.3-0.4c4.4-0.3,7.4-0.5,8.9-0.6C110.2,31.5,111.2,31.4,111.6,31.4z M98.8,28.8
		c2.1-0.6,3.5-0.9,4.3-0.9s1.3,0,1.6,0.1c0.2,0.1,0.4,0.1,0.5,0.1c0.1,0,0.2,0,0.3-0.1c0.1-0.1,0.3-0.5,0.5-1.2
		c0.3-0.7,0.5-1.6,0.7-2.5c0.2-1,0.3-1.7,0.3-2.1s-0.1-0.8-0.2-0.9c-0.2-0.1-0.5-0.2-1.1-0.2s-1.3,0.1-2.3,0.2c-1,0.1-2,0.3-3,0.5
		c-1,0.2-1.9,0.3-2.7,0.3C97.9,23,98.3,25.3,98.8,28.8z M104.9,24.5c0,0.3-0.6,0.6-1.9,0.8c-1.2,0.2-2.2,0.3-2.9,0.3
		c-0.7,0-1.1-0.1-1.4-0.2c-0.2-0.2-0.4-0.3-0.4-0.4c0-0.1,0.1-0.1,0.3-0.2l1.9-0.5c1.1-0.2,2.1-0.4,3-0.4
		C104.5,24,104.9,24.1,104.9,24.5z"/>
	<path class="st0" d="M137.4,16.9c5.2-0.8,8.5-1.4,9.9-1.8c1.5-0.4,2.5-0.5,3.1-0.5c0.6,0,1.3,0.2,2.1,0.6c0.8,0.4,1.2,0.8,1.2,1.1
		c0,0.4-0.6,0.6-1.7,0.6l-1.9-0.1c-2.7,0-7.1,0.4-13.2,1.3c-0.3,0.8-0.7,1.7-1.2,2.8c0.4,0,0.6,0.1,0.8,0.1c1.4-0.2,2.8-0.4,4.2-0.7
		s2.3-0.5,2.7-0.7c0.4-0.1,0.7-0.2,1.1-0.2c0.4,0,1,0.2,1.9,0.6c0.9,0.4,1.4,0.8,1.4,1c0,0.2-0.1,0.6-0.4,1
		c-0.1,0.2-0.1,0.7-0.1,1.6c0,0.9,0.1,2.1,0.3,3.5c0.2,1.5,0.3,2.9,0.3,4.3s-0.1,2.4-0.3,3c-0.2,0.6-0.5,1-0.8,1.4
		c-0.3,0.4-0.5,0.6-0.7,0.6s-0.3-0.1-0.4-0.3c-0.1-0.2-0.3-0.7-0.6-1.6c-0.3-0.8-0.6-1.4-0.9-1.7c-0.3-0.3-0.9-0.4-1.6-0.4
		c-1.3,0-2.4,0-3.1,0.1c-0.7,0.1-1.3,0.1-1.6,0.1c-0.3,0-0.6,0-0.8,0c-0.2,1.7-0.5,2.6-0.9,2.6c-0.3,0-0.5-0.3-0.7-1
		c-0.2-0.6-0.4-1.2-0.4-1.7s0.1-1.1,0.3-1.7c0.2-0.6,0.3-2.1,0.3-4.4s-0.1-3.9-0.4-4.7c-1.2,2.3-2.5,4.3-4,5.8
		c-1.4,1.6-2.8,2.8-4.2,3.6s-2.3,1.3-2.7,1.3c-0.2,0-0.3-0.1-0.3-0.2s0.1-0.3,0.4-0.5c2.4-1.7,4.4-3.6,6.1-5.7
		c1.7-2.1,3.1-4.7,4.4-7.7c-2,0.3-3.7,0.6-4.9,0.9c-1.2,0.3-2,0.5-2.5,0.5c-0.4,0-1-0.1-1.6-0.4s-0.9-0.5-0.9-0.7
		c0-0.2,0.4-0.3,1.1-0.3c0.7,0,3.8-0.4,9.3-1.2c0.5-1.2,0.8-2.2,1.1-3.1c-1,0.1-1.8,0.1-2.5,0.1c-0.7,0-1.1-0.1-1.4-0.2
		c-0.3-0.2-0.4-0.3-0.4-0.4c0-0.1,0.3-0.2,0.9-0.3c0.6-0.1,1.9-0.2,3.9-0.5c0.3-1.1,0.5-1.8,0.5-2.3s0-0.8-0.1-1.1
		c-1.5,0.3-2.7,0.4-3.9,0.4c-1.1,0-1.7-0.1-1.7-0.2s0.3-0.3,0.9-0.4c2.4-0.5,4.4-1,6.3-1.6c1.8-0.6,2.9-1.2,3.2-1.6
		c0.3-0.4,0.7-0.6,1-0.6c0.3,0,0.9,0.2,1.7,0.7c0.8,0.5,1.2,0.8,1.2,1.1c0,0.2-0.2,0.4-0.7,0.5c-2.2,0.4-4.5,0.9-6.7,1.5
		c0.5,0.2,0.9,0.4,1.1,0.6c0.2,0.2,0.3,0.3,0.3,0.5c0,0.2-0.1,0.5-0.3,0.9c-0.2,0.4-0.4,0.8-0.6,1.3c3.2-0.8,5-1.2,5.4-1.2
		s0.8,0.1,1.1,0.3c0.3,0.2,0.5,0.4,0.5,0.6s-0.2,0.4-0.5,0.5c-0.3,0.2-1.2,0.4-2.6,0.6c-1.5,0.3-2.9,0.5-4.5,0.8L137.4,16.9z
		 M137,31.9c2.9-0.5,4.8-0.7,5.7-0.7c0.7,0,1.2,0.1,1.5,0.4c0.3,0.3,0.6,0.4,0.7,0.4c0.4,0,0.6-1.1,0.6-3.2c0-1.2-0.1-2.6-0.3-4.4
		c-0.2-1.7-0.5-2.7-0.8-3c-0.3-0.3-0.8-0.4-1.3-0.4c-0.3,0-1.2,0.1-2.6,0.4c-1.4,0.2-2.6,0.4-3.6,0.4l0.1,2.9c2-0.5,3.3-0.8,3.7-0.9
		c0.4-0.1,0.8-0.1,1.1-0.1c0.3,0,0.6,0.1,0.9,0.2s0.4,0.2,0.4,0.4c0,0.3-0.6,0.6-1.7,0.8c-1.2,0.2-2.1,0.4-2.7,0.4s-1.2,0-1.6,0v2.7
		c0.8-0.1,1.7-0.2,2.7-0.4c1-0.2,1.8-0.3,2.2-0.3c0.4,0,0.8,0.1,1,0.2c0.3,0.2,0.4,0.3,0.4,0.4c0,0.3-0.6,0.5-1.7,0.7
		c-1.1,0.2-2.1,0.3-2.8,0.3c-0.8,0-1.4,0-1.9-0.1C137.1,30,137.1,31,137,31.9z"/>
	<path class="st0" d="M171.6,8.5c1,0,2.2-0.1,3.6-0.4c1.4-0.3,2.7-0.8,4-1.4c0.4-0.2,0.7-0.2,1-0.2c0.3,0,1,0.3,2.1,0.8
		s1.6,1,1.6,1.5c0,0.2-0.2,0.5-0.5,0.9c-0.3,0.4-0.5,1-0.7,1.7c-0.1,0.7-0.2,1.9-0.2,3.4c0,2.9,0.1,5.9,0.2,9.1l0.3,6.8
		c0,0.9-0.1,1.8-0.4,2.8s-0.6,1.8-1,2.4c-0.4,0.6-0.8,0.9-1,0.9c-0.2,0-0.4-0.3-0.7-0.8c-0.3-0.5-0.7-1.2-1.4-1.9s-1.1-1.4-1.6-1.8
		c-0.5-0.4-0.7-0.7-0.7-0.8s0.1-0.1,0.2-0.1c0.2,0,0.6,0.1,1.2,0.3c0.7,0.2,1.2,0.3,1.6,0.3c0.4,0,0.7-0.1,0.8-0.4
		c0.1-0.3,0.2-1,0.3-2.3c0.1-1.3,0.1-3.4,0.1-6.5c0-3.1-0.1-5.9-0.2-8.6c-0.1-2.7-0.3-4.2-0.5-4.7c-0.2-0.5-0.6-0.7-1.1-0.7
		c-0.2,0-1.2,0.2-2.9,0.5c-1.7,0.3-3,0.5-3.9,0.5c0,1.9,0,3.9-0.1,6.2c0.2,0,0.4,0,0.6,0c0.6,0,1.4-0.2,2.5-0.5
		c0.7-0.3,1.3-0.4,1.8-0.4s1,0.1,1.3,0.2c0.3,0.2,0.5,0.4,0.5,0.6c0,0.2-0.1,0.4-0.3,0.5c-0.2,0.1-0.9,0.3-1.9,0.5
		c-1.1,0.2-1.9,0.3-2.6,0.3c-0.7,0-1.3-0.1-2-0.2c-0.1,1.9-0.3,3.6-0.6,5.3c0.2,0,0.3,0.1,0.5,0.1c0.5,0,1.4-0.2,2.8-0.6
		c1.4-0.4,2.2-0.6,2.5-0.6s0.7,0.1,1,0.2c0.4,0.1,0.5,0.3,0.5,0.5c0,0.4-0.6,0.7-1.9,1.1c-1.2,0.3-2.3,0.5-3.1,0.5s-1.7-0.1-2.6-0.3
		c-0.6,3.1-1.3,5.4-2.2,6.9c-0.9,1.5-2.1,2.8-3.6,3.7c-1.5,0.9-2.4,1.4-2.8,1.4c-0.1,0-0.2,0-0.2-0.1c0-0.2,0.3-0.6,1-1.1
		c2.6-2.2,4.4-5,5.4-8.6c0.9-3.6,1.4-7.3,1.4-11.1c0-2.3-0.3-3.8-0.9-4.6c-0.3-0.4-0.4-0.7-0.4-0.9c0-0.2,0.2-0.4,0.7-0.4
		S170.6,8.1,171.6,8.5z"/>
	<path class="st0" d="M203.5,21c2.5-1.2,3.9-1.9,4.2-1.9c0.1,0,0.2,0,0.2,0.1c0,0.1-0.1,0.2-0.2,0.3c-0.1,0.1-0.7,0.5-1.8,1.3
		c-1.1,0.7-1.9,1.3-2.4,1.6c0,2.4,0.1,4.1,0.1,5.1l0.1,2.9c0,1.5-0.2,2.8-0.7,3.7c-0.5,1-0.9,1.5-1.2,1.5c-0.2,0-0.4-0.2-0.6-0.6
		c-0.2-0.4-0.5-0.9-1-1.6c-0.5-0.7-0.8-1.1-1.1-1.4s-0.4-0.4-0.4-0.6c0-0.1,0.1-0.2,0.3-0.2c0.2,0,0.5,0,0.9,0.1
		c0.4,0.1,0.7,0.1,1,0.1s0.5-0.1,0.6-0.3c0.1-0.2,0.2-0.9,0.4-2c0.1-1.1,0.2-3,0.4-5.7c-2.8,1.9-4.5,3-5,3.5c-0.5,0.4-1,0.6-1.3,0.6
		c-0.3,0-0.7-0.2-1.2-0.7c-0.5-0.5-0.7-0.9-0.7-1.2c0-0.3,0.3-0.5,0.8-0.5c0.5,0,1.3-0.3,2.2-0.7c1-0.4,2.7-1.3,5.2-2.6
		c0-1.3,0-2.3,0-3.1c0-0.8,0-1.6,0-2.2c-1.8,0.4-3,0.6-3.7,0.6c-0.7,0-1.2-0.1-1.6-0.3c-0.4-0.2-0.6-0.4-0.6-0.5
		c0-0.1,0.3-0.2,1-0.3c0.6-0.1,2.2-0.5,4.8-1.2c-0.1-4.6-0.5-7.1-1.1-7.6c-0.3-0.3-0.5-0.5-0.5-0.8c0-0.3,0.2-0.4,0.7-0.4
		s1.1,0.2,1.9,0.6s1.2,0.8,1.2,1.2c0,0.1,0,0.3-0.1,0.5c-0.2,0.4-0.4,1.2-0.5,2.3c-0.2,1.1-0.3,2.4-0.3,3.9c1-0.4,1.9-0.6,2.5-0.6
		c0.6,0,1.1,0.1,1.3,0.2c0.2,0.2,0.4,0.3,0.4,0.4c0,0.5-1.4,1-4.2,1.8C203.4,17.3,203.4,18.9,203.5,21z M218.2,27.6
		c1.5,1.3,2.9,2.2,4.3,2.8c1.3,0.6,3.1,1.1,5.3,1.6c0.4,0.1,0.6,0.2,0.6,0.5c0,0.1-0.1,0.3-0.3,0.3c-0.2,0.1-0.9,0.2-2.2,0.4
		c-1.3,0.2-2.3,0.3-2.9,0.3c-1.3,0-2.2-0.3-2.7-0.9c-0.5-0.6-1.5-1.9-3-3.9c-1.3,1.5-3.3,2.6-6,3.2c0,1.1-0.1,2-0.3,2.7
		c-0.2,0.7-0.4,1-0.7,1c-0.3,0-0.6-0.4-0.9-1.1c-0.3-0.7-0.4-1.3-0.4-1.8c0-0.4,0.1-1,0.3-1.8s0.4-2.4,0.5-4.9
		c0.1-2.5,0.2-5.1,0.2-7.7c0-2.6,0-4.4-0.1-5.4c-0.1-1-0.4-1.8-0.9-2.5c-0.2-0.2-0.3-0.5-0.3-0.6c0-0.3,0.2-0.4,0.7-0.4
		c0.4,0,1,0.1,1.7,0.4c1.2-0.1,2.3-0.4,3.4-0.7c1.1-0.4,1.9-0.7,2.3-1c0.4-0.3,0.8-0.5,1.3-0.5c0.4,0,1.1,0.2,2,0.7
		c0.9,0.5,1.3,0.9,1.3,1.4c0,0.2-0.1,0.4-0.3,0.5c-0.9,0.7-1.4,1.8-1.8,3.2c-0.3,1.4-0.8,2.4-1.3,2.9c-0.5,0.5-1,0.7-1.3,0.7
		c-0.3,0-0.6-0.1-0.7-0.4c-0.3-0.6-0.7-1.1-1.1-1.6c-0.4-0.5-0.6-0.8-0.6-0.9c0-0.1,0.1-0.1,0.2-0.1c0.1,0,0.3,0,0.6,0.1
		s0.6,0.1,0.9,0.1s0.6-0.1,0.8-0.3c0.2-0.2,0.5-0.7,0.7-1.6c0.3-0.9,0.4-1.5,0.4-2c0-0.5,0-0.7-0.1-0.8s-0.3-0.1-0.6-0.1
		s-0.8,0.1-1.4,0.2c-0.7,0.2-1.3,0.3-1.8,0.5c-0.6,0.3-1.4,0.4-2.4,0.5l-0.2,9.8c1-0.1,2.1-0.4,3.3-0.8c1.2-0.4,2-0.7,2.5-1
		c0.5-0.3,0.9-0.5,1.2-0.5c0.3,0,0.9,0.2,1.8,0.6c0.9,0.4,1.3,0.7,1.3,0.9s-0.1,0.4-0.4,0.6c-0.2,0.2-0.5,0.5-0.7,1.1
		c-0.3,0.5-0.5,1.1-0.7,1.8C219.3,25.3,218.7,26.7,218.2,27.6z M216.9,26.3c0.4-0.9,0.7-1.9,0.9-3c0.2-1.1,0.3-1.9,0.3-2.4
		s-0.1-0.6-0.4-0.6c-0.3,0-0.8,0.1-1.5,0.3c-0.7,0.2-1.3,0.4-1.9,0.6c-0.6,0.2-1.1,0.4-1.6,0.4s-1,0-1.3-0.1
		c-0.1,2.7-0.1,5.4-0.1,7.9v2.1c2.2-1,3.8-2.4,4.9-4c-1.6-2-2.8-3.2-3.6-3.8c-0.4-0.3-0.6-0.5-0.6-0.7s0.2-0.3,0.5-0.3
		s0.8,0.2,1.3,0.6C214.4,23.7,215.4,24.7,216.9,26.3z"/>
	<path class="st0" d="M248.3,19.1c3.1-0.5,5.4-1,6.9-1.3c1.4-0.3,2.6-0.5,3.4-0.5c0.8,0,1.6,0.2,2.4,0.7s1.1,0.9,1.1,1.2
		c0,0.5-0.6,0.8-1.8,0.8c-0.4,0-0.8,0-1.2-0.1c-0.4-0.1-1.1-0.1-2.2-0.1c-4.4,0-8.6,0.4-12.9,1.1c-4.2,0.7-7,1.3-8.5,1.7
		c-0.6,0.2-1.2,0.2-1.8,0.2c-0.6,0-1.3-0.2-1.9-0.5c-0.6-0.3-0.9-0.6-0.9-0.8c0-0.2,0.4-0.3,1.1-0.4c3.7-0.3,8.6-0.9,14.6-1.9
		l0.1-4.5c-1.3,0.2-2.4,0.4-3.3,0.4s-1.6-0.2-2.3-0.5c-0.8,1.2-1.5,2.2-2.3,3c-0.8,0.7-1.3,1.1-1.4,1.1c-0.1,0-0.2,0-0.2-0.1
		c0-0.2,0.2-0.5,0.5-1c0.3-0.5,0.8-1.3,1.4-2.5c0.6-1.2,1-2.1,1.2-2.7c0.2-0.6,0.3-1.1,0.3-1.6s0-0.8-0.1-1s-0.1-0.4-0.1-0.4
		c0-0.3,0.2-0.4,0.5-0.4c0.3,0,0.8,0.2,1.5,0.5c0.7,0.4,1,0.8,1,1.2c0,0.2-0.1,0.5-0.4,0.8l-1.7,2.7c1.4,0,3.2-0.3,5.4-0.9
		c0.1-4.4-0.1-6.9-0.8-7.6c-0.5-0.5-0.7-0.9-0.7-1.2c0-0.3,0.2-0.4,0.6-0.4c0.4,0,1.1,0.2,2.1,0.5s1.5,0.8,1.5,1.4
		c0,0.1,0,0.3-0.1,0.5c-0.3,0.8-0.5,2.9-0.6,6.3c0.8-0.2,1.6-0.5,2.5-0.9c0.9-0.3,1.6-0.5,1.9-0.5c0.4,0,0.8,0.1,1.2,0.3
		s0.6,0.4,0.6,0.6c0,0.3-0.6,0.7-1.7,1s-2.7,0.7-4.5,1.1L248.3,19.1z M241.3,25.2c1.5,0,3.3-0.3,5.1-0.7c1.9-0.4,3.1-0.8,3.7-1.1
		c0.4-0.2,0.8-0.2,1.2-0.2c0.5,0,1.3,0.3,2.5,1c1.2,0.7,1.8,1.1,1.8,1.5c0,0.3-0.4,0.7-1.2,1.4c-0.4,0.3-0.7,0.8-1.1,1.7
		c-0.4,0.8-0.6,1.4-0.6,1.6s0.2,0.5,0.5,0.7s0.5,0.4,0.5,0.6c0,0.4-0.4,0.6-1.1,0.6c-0.7,0-2.1,0.1-4.3,0.4s-3.9,0.5-5.3,0.8
		c0,0.6-0.2,0.9-0.5,0.9c-0.5,0-0.9-0.5-1.1-1.4c-0.2-0.9-0.4-1.6-0.4-2.1c-0.1-0.5-0.3-1.3-0.7-2.5c-0.4-1.2-0.7-2-1-2.3
		c-0.2-0.4-0.4-0.6-0.4-0.8s0.2-0.3,0.5-0.3C240.1,24.9,240.6,25,241.3,25.2z M243.1,32c3.2-0.5,5.4-0.9,6.5-1c0.6,0,1-0.2,1.2-0.4
		c0.2-0.2,0.4-0.8,0.6-1.8s0.3-1.8,0.3-2.4c0-0.6-0.1-0.9-0.2-1.1s-0.5-0.3-0.9-0.3c-0.4,0-1.5,0.1-3.2,0.3c-1.7,0.2-3.4,0.5-5,0.8
		L243.1,32z"/>
</g>
</svg>
