<?xml version="1.0" encoding="utf-8"?>
<!-- Generator: Adobe Illustrator 19.0.0, SVG Export Plug-In . SVG Version: 6.00 Build 0)  -->
<svg version="1.1" id="图层_1" xmlns="http://www.w3.org/2000/svg" xmlns:xlink="http://www.w3.org/1999/xlink" x="0px" y="0px"
	 viewBox="77 2.4 194.1 36.6" style="enable-background:new 77 2.4 194.1 36.6;" xml:space="preserve">
<style type="text/css">
	.st0{enable-background:new    ;}
	.st1{fill:#FFFFFF;}
</style>
<g class="st0">
	<path class="st1" d="M92.9,11.4c3,2.3,5.7,4.2,8.1,5.5s5,2.3,7.7,2.8c0.8,0.2,1.2,0.3,1.2,0.6c0,0.1-0.1,0.2-0.4,0.3
		c-0.3,0.1-1.1,0.2-2.4,0.4s-2.4,0.3-3.2,0.3s-1.4-0.2-1.9-0.5s-1.8-1.3-3.7-3c-1.9-1.7-3.8-3.4-5.5-5.2c0,1.2,0,2.2,0,3l0.1,2.3
		c0,0.9-0.2,1.9-0.6,3c1.9-0.3,3-0.6,3.5-0.9c0.4-0.3,0.8-0.4,1.1-0.4c0.3,0,1.1,0.4,2.3,1.2c1.2,0.8,1.8,1.4,1.8,1.8
		c0,0.2-0.1,0.4-0.4,0.6s-0.6,0.6-0.8,1.2c-0.3,0.6-0.6,1.6-1,3.1c-0.2,0.6-0.5,1.4-1,2.5s-1,1.7-1.3,1.7c-0.2,0-0.5-0.2-0.8-0.5
		s-0.6-0.5-0.9-0.6s-0.5-0.1-0.9-0.1s-1.3,0.1-2.7,0.3C89.7,31,88.7,31,88.1,31c-0.1,0.7-0.3,1.1-0.6,1.1c-0.2,0-0.4-0.1-0.6-0.4
		s-0.4-0.9-0.6-2c-0.6-3.3-1.2-5.5-1.9-6.5c-0.3-0.4-0.4-0.8-0.4-1s0.2-0.4,0.5-0.4s0.7,0,1.2,0.1c2.3-0.2,4.4-0.5,6.2-0.8
		c-0.7-1.5-1-2.5-1-2.9s0-0.8,0-1c0.2-1.5,0.3-3,0.3-4.7c-1,1.9-2.4,3.6-4.3,5.2c-1.8,1.5-3.8,2.8-5.9,3.8S77.6,23,77.2,23
		C77,23,77,22.9,77,22.8s0.3-0.4,0.8-0.6c2.4-1.4,4.8-3,7.1-5c2.3-2,4-4,5.2-5.9c-1.7,0.3-3.1,0.6-4.2,0.9c-1.1,0.3-1.9,0.4-2.5,0.4
		c-0.5,0-1-0.2-1.4-0.5c-0.4-0.4-0.6-0.7-0.6-0.9s0.3-0.3,0.9-0.3c1.8,0,4.8-0.4,9-1.1c0-1.9,0-3.2-0.1-3.8S91,4.9,90.8,4.5
		c-0.3-0.3-0.4-0.6-0.4-0.7c0-0.3,0.2-0.4,0.5-0.4s0.9,0.1,1.8,0.4C93.5,4,94,4.4,94,4.8c0,0.2-0.1,0.6-0.4,1.1S93.1,7.6,93,9.6
		l4.4-0.8c1.2-0.2,2.2-0.4,3.1-0.4s1.6,0.2,2.2,0.7s1,0.8,1,1s-0.2,0.3-0.6,0.4c-0.4,0.1-1.7,0.1-3.8,0.1c-2.1,0-4.2,0.1-6.2,0.3
		L92.9,11.4z M102.3,33.2c1.2,0,2.2,0.3,3.1,0.9c0.9,0.6,1.4,1.1,1.4,1.5s-0.3,0.6-0.9,0.6c-0.3,0-0.6-0.1-1-0.2
		c-1.8-0.5-5.1-0.7-9.8-0.7c-5.6,0-9.9,0.4-12.8,1.2c-0.9,0.3-1.6,0.4-2,0.4s-0.9-0.2-1.3-0.7c-0.5-0.5-0.7-0.9-0.7-1.2
		s0.4-0.5,1.3-0.5c1.3,0,4.5-0.2,9.4-0.5s8.2-0.6,10-0.7S101.8,33.2,102.3,33.2z M88,30.2c2.3-0.6,3.9-1,4.9-1
		c0.9,0,1.5,0.1,1.8,0.2s0.5,0.2,0.6,0.2s0.2,0,0.3-0.1s0.3-0.5,0.6-1.4c0.3-0.8,0.5-1.8,0.8-2.8c0.2-1.1,0.3-1.9,0.3-2.4
		s-0.1-0.8-0.3-1c-0.2-0.1-0.6-0.2-1.2-0.2s-1.5,0.1-2.6,0.2s-2.3,0.3-3.4,0.5s-2.1,0.3-3.1,0.3C87,23.7,87.4,26.2,88,30.2z
		 M94.8,25.3c0,0.3-0.7,0.6-2.1,0.9s-2.5,0.4-3.2,0.4s-1.3-0.1-1.5-0.3c-0.3-0.2-0.4-0.3-0.4-0.4s0.1-0.1,0.3-0.2l2.2-0.5
		c1.2-0.3,2.3-0.4,3.3-0.4C94.3,24.8,94.8,24.9,94.8,25.3z"/>
	<path class="st1" d="M131.3,16.8c5.8-0.9,9.5-1.6,11.1-2s2.8-0.6,3.5-0.6c0.7,0,1.5,0.2,2.4,0.7s1.4,0.9,1.4,1.2
		c0,0.5-0.6,0.7-1.9,0.7l-2.1-0.1c-3.1,0-8,0.5-14.8,1.4c-0.3,0.9-0.7,1.9-1.4,3.2c0.4,0.1,0.7,0.1,0.9,0.2c1.6-0.2,3.2-0.5,4.8-0.8
		s2.6-0.6,3-0.7c0.4-0.2,0.8-0.2,1.2-0.2s1.1,0.2,2.1,0.7s1.5,0.9,1.5,1.1c0,0.3-0.1,0.6-0.4,1.1c-0.1,0.2-0.2,0.8-0.2,1.8
		s0.1,2.3,0.3,4c0.2,1.6,0.3,3.3,0.3,4.9s-0.1,2.7-0.4,3.4c-0.3,0.6-0.5,1.2-0.9,1.6c-0.3,0.4-0.6,0.6-0.8,0.6
		c-0.2,0-0.4-0.1-0.5-0.3s-0.4-0.8-0.7-1.7c-0.3-0.9-0.7-1.6-1-1.9c-0.4-0.3-1-0.5-1.8-0.5c-1.5,0-2.7,0.1-3.5,0.2
		c-0.8,0.1-1.4,0.2-1.8,0.2c-0.3,0-0.6,0-0.9,0c-0.2,1.9-0.5,2.9-1,2.9c-0.3,0-0.6-0.4-0.8-1.1c-0.3-0.7-0.4-1.4-0.4-1.9
		c0-0.6,0.1-1.2,0.4-1.9c0.2-0.7,0.4-2.3,0.4-4.9s-0.1-4.4-0.4-5.3c-1.4,2.6-2.8,4.8-4.4,6.5c-1.6,1.8-3.2,3.1-4.7,4.1
		c-1.6,0.9-2.6,1.4-3,1.4c-0.2,0-0.3-0.1-0.3-0.2s0.1-0.3,0.4-0.5c2.7-1.9,4.9-4.1,6.8-6.4c1.9-2.4,3.5-5.3,5-8.7
		c-2.3,0.3-4.1,0.7-5.5,1s-2.3,0.5-2.8,0.5s-1.1-0.2-1.8-0.5c-0.7-0.3-1-0.6-1-0.8s0.4-0.3,1.2-0.3s4.3-0.4,10.4-1.3
		c0.5-1.3,0.9-2.5,1.3-3.5c-1.1,0.1-2.1,0.2-2.8,0.2c-0.7,0-1.3-0.1-1.6-0.3c-0.3-0.2-0.5-0.4-0.5-0.5s0.3-0.3,1-0.3
		c0.7-0.1,2.1-0.3,4.3-0.6c0.3-1.2,0.5-2.1,0.5-2.6s-0.1-0.9-0.2-1.2c-1.6,0.3-3.1,0.4-4.3,0.4c-1.3,0-1.9-0.1-1.9-0.3
		s0.3-0.3,1-0.5c2.6-0.5,5-1.1,7-1.8c2.1-0.7,3.3-1.3,3.6-1.7c0.4-0.4,0.7-0.7,1.1-0.7s1,0.3,1.9,0.8s1.3,0.9,1.3,1.2
		s-0.3,0.5-0.8,0.6c-2.5,0.5-5,1-7.6,1.7c0.6,0.2,1,0.4,1.2,0.6c0.3,0.2,0.4,0.4,0.4,0.6c0,0.2-0.1,0.5-0.3,1
		c-0.2,0.5-0.4,0.9-0.6,1.5c3.5-0.9,5.6-1.3,6.1-1.3s0.9,0.1,1.3,0.3c0.3,0.2,0.5,0.4,0.5,0.6c0,0.2-0.2,0.4-0.5,0.6
		c-0.3,0.2-1.3,0.4-3,0.7c-1.6,0.3-3.3,0.6-5,0.9L131.3,16.8z M130.7,33.7c3.3-0.5,5.4-0.8,6.4-0.8c0.7,0,1.3,0.1,1.7,0.4
		c0.4,0.3,0.7,0.4,0.8,0.4c0.4,0,0.6-1.2,0.6-3.6c0-1.3-0.1-3-0.3-4.9c-0.2-1.9-0.5-3.1-0.9-3.4s-0.9-0.5-1.5-0.5
		c-0.3,0-1.3,0.1-2.9,0.4s-2.9,0.4-4,0.4l0.1,3.2c2.3-0.6,3.7-0.9,4.2-1s0.9-0.1,1.3-0.1s0.7,0.1,1,0.2c0.3,0.1,0.4,0.3,0.4,0.5
		c0,0.3-0.7,0.7-2,0.9c-1.3,0.3-2.3,0.4-3,0.4c-0.7,0-1.3,0-1.8,0v3c0.9-0.1,1.9-0.2,3-0.5c1.2-0.2,2-0.4,2.5-0.4s0.9,0.1,1.2,0.3
		c0.3,0.2,0.4,0.3,0.4,0.5c0,0.3-0.6,0.6-1.9,0.8c-1.3,0.2-2.3,0.4-3.2,0.4s-1.5-0.1-2.1-0.2C131,31.5,130.9,32.7,130.7,33.7z"/>
	<path class="st1" d="M165.3,8c2.9-0.3,6-0.8,9.5-1.3c3.5-0.6,5.4-0.9,5.8-1s0.9-0.2,1.4-0.2s1.3,0.3,2.4,0.9
		c1.1,0.6,1.7,1.1,1.7,1.5c0,0.2-0.2,0.5-0.5,1.1c-0.4,0.7-0.6,1.9-0.6,3.5s0,3.9,0.1,6.8s0.2,5.3,0.3,7.1s0.2,3.2,0.2,4.3
		c0,2.5-0.3,4.5-1,5.8c-0.7,1.4-1.3,2-1.7,2c-0.5,0-0.9-0.5-1.2-1.5c-0.1-0.3-0.5-0.9-1-1.6c-0.5-0.7-1-1.2-1.4-1.6
		c-0.4-0.4-0.6-0.6-0.6-0.7s0.1-0.2,0.2-0.2c0.1,0,0.5,0.1,1.1,0.2c0.6,0.2,1.1,0.2,1.6,0.2s0.8-0.2,0.9-0.6
		c0.2-0.4,0.3-1.5,0.4-3.1c0.1-1.7,0.1-4,0.1-6.9s-0.1-5.8-0.2-8.4c-0.1-2.7-0.3-4.4-0.4-5.2c-0.1-0.8-0.3-1.3-0.6-1.6
		c-0.3-0.3-0.9-0.4-1.7-0.4c-1.5,0-6.2,0.5-14.2,1.6c0.1,2.2-0.1,5.5-0.4,9.9s-1,7.7-2.1,10s-2.5,4.2-4.1,5.5
		c-1.6,1.4-2.6,2.1-3,2.1c-0.1,0-0.1,0-0.1-0.1c0-0.2,0.2-0.5,0.6-1c1.9-2.3,3.5-4.6,4.6-6.9s1.8-5,2-8.1c0.3-3.1,0.4-5.5,0.4-7.4
		s-0.3-3.3-0.9-4.2c-0.2-0.3-0.4-0.7-0.4-1s0.2-0.4,0.7-0.4S164.3,7.4,165.3,8z M174.1,18c1.3-0.3,2.2-0.5,2.5-0.6
		c1.1-0.3,1.9-0.4,2.5-0.4s1,0.1,1.5,0.4s0.7,0.5,0.7,0.8s-0.3,0.5-1,0.5c-3.1,0.1-6.5,0.5-10.2,1.2c-0.8,0.2-1.5,0.2-1.9,0.2
		s-0.9-0.1-1.2-0.2c-0.3-0.1-0.6-0.4-0.6-0.6s0.4-0.3,1.1-0.4c0.7-0.1,2.4-0.3,5-0.7l0.1-3.8c-0.8,0.2-1.5,0.2-2,0.2
		s-0.9-0.1-1.3-0.2c-0.4-0.1-0.6-0.3-0.6-0.5s0.3-0.3,0.9-0.4c0.6-0.1,1.6-0.3,3.1-0.7c0-1.7-0.2-2.8-0.6-3.3
		c-0.2-0.2-0.3-0.5-0.3-0.6c0-0.2,0.2-0.3,0.5-0.3c0.3,0,0.7,0.1,1.2,0.2c0.5,0.1,0.9,0.3,1,0.4s0.3,0.3,0.3,0.5s0,0.5-0.1,0.8
		s-0.1,0.9-0.2,1.9c1.4-0.4,2.3-0.6,2.6-0.6c0.4,0,0.7,0.1,0.9,0.2c0.3,0.1,0.4,0.3,0.4,0.5s-0.2,0.4-0.5,0.6
		c-0.3,0.2-1.5,0.5-3.5,1L174.1,18z M169,23c0.2,0,0.5,0,0.7,0c0.9,0,1.9-0.1,3-0.4s2-0.5,2.6-0.8s1.1-0.4,1.4-0.4s0.8,0.2,1.4,0.7
		s1,0.8,1,1.2c0,0.3-0.1,0.6-0.4,0.9s-0.6,0.7-0.9,1.3c-0.3,0.6-0.5,1-0.5,1.2s0.1,0.5,0.2,0.7c0.1,0.2,0.2,0.4,0.2,0.6
		c0,0.1-0.1,0.2-0.3,0.3c-0.2,0.1-1.2,0.2-2.9,0.4c-1.7,0.2-3.1,0.3-4.2,0.3c0,1.3-0.2,1.9-0.6,1.9c-0.3,0-0.5-0.5-0.7-1.5
		c-0.5-3-0.8-4.7-1.1-5.2c-0.3-0.5-0.4-0.9-0.4-1.1s0.1-0.3,0.4-0.3C168.1,22.8,168.6,22.8,169,23z M170.4,27.9
		c1.8-0.1,2.9-0.3,3.5-0.4s1-0.3,1.1-0.5c0.2-0.2,0.4-0.7,0.6-1.4c0.2-0.7,0.4-1.2,0.4-1.5c0-0.6-0.3-0.8-1-0.8l-5,0.7
		C170.1,25.7,170.3,27,170.4,27.9z"/>
	<path class="st1" d="M205.4,21.4c2.8-1.4,4.4-2.1,4.7-2.1c0.1,0,0.2,0,0.2,0.1s-0.1,0.2-0.2,0.3c-0.1,0.1-0.8,0.6-2,1.4
		c-1.2,0.8-2.1,1.4-2.7,1.8c0,2.7,0.1,4.6,0.1,5.8l0.1,3.2c0,1.7-0.3,3.1-0.8,4.2s-1,1.6-1.4,1.6c-0.2,0-0.5-0.2-0.7-0.7
		c-0.2-0.5-0.6-1.1-1.1-1.8c-0.5-0.8-0.9-1.3-1.2-1.6c-0.3-0.3-0.5-0.5-0.5-0.6s0.1-0.2,0.3-0.2c0.2,0,0.5,0,1,0.1s0.8,0.1,1.2,0.1
		c0.3,0,0.5-0.1,0.7-0.3c0.1-0.2,0.3-1,0.4-2.2c0.1-1.3,0.3-3.4,0.4-6.4c-3.1,2.1-5,3.4-5.6,3.9s-1.1,0.7-1.4,0.7s-0.8-0.3-1.3-0.8
		c-0.5-0.6-0.8-1-0.8-1.4s0.3-0.5,0.9-0.6c0.6-0.1,1.4-0.3,2.5-0.8s3-1.5,5.8-3c0-1.4,0-2.6,0-3.5s0-1.7,0-2.5
		c-2,0.5-3.4,0.7-4.1,0.7s-1.3-0.1-1.7-0.3s-0.6-0.4-0.6-0.6s0.4-0.3,1.1-0.4c0.7-0.1,2.5-0.6,5.4-1.4c-0.2-5.1-0.6-8-1.2-8.5
		c-0.3-0.3-0.5-0.6-0.5-0.9s0.3-0.5,0.8-0.5s1.2,0.2,2.2,0.6c0.9,0.4,1.4,0.9,1.4,1.4c0,0.2,0,0.3-0.1,0.5c-0.2,0.5-0.4,1.3-0.6,2.6
		s-0.3,2.7-0.3,4.3c1.2-0.5,2.1-0.7,2.8-0.7c0.7,0,1.2,0.1,1.5,0.3c0.3,0.2,0.4,0.3,0.4,0.5c0,0.5-1.6,1.2-4.8,2
		C205.3,17.2,205.4,19.1,205.4,21.4z M221.7,28.8c1.7,1.4,3.3,2.5,4.8,3.2c1.5,0.7,3.5,1.3,5.9,1.8c0.5,0.1,0.7,0.3,0.7,0.6
		c0,0.2-0.1,0.3-0.3,0.4c-0.2,0.1-1,0.2-2.4,0.4s-2.5,0.3-3.3,0.3c-1.4,0-2.4-0.3-3-1c-0.6-0.6-1.7-2.1-3.3-4.3
		c-1.5,1.7-3.7,2.9-6.7,3.6c0,1.3-0.1,2.3-0.3,3c-0.2,0.7-0.5,1.1-0.8,1.1c-0.3,0-0.6-0.4-1-1.3c-0.3-0.8-0.5-1.5-0.5-2
		s0.1-1.2,0.4-2c0.2-0.8,0.4-2.7,0.6-5.5s0.2-5.7,0.2-8.6s-0.1-4.9-0.2-6c-0.1-1.1-0.4-2.1-1-2.8c-0.2-0.3-0.3-0.5-0.3-0.7
		c0-0.3,0.2-0.5,0.7-0.5s1.1,0.2,1.9,0.5c1.3-0.1,2.6-0.4,3.9-0.8c1.2-0.4,2.1-0.8,2.5-1.2c0.5-0.4,0.9-0.6,1.4-0.6s1.2,0.3,2.2,0.8
		s1.5,1.1,1.5,1.6c0,0.2-0.1,0.4-0.3,0.6c-1,0.8-1.6,2-2,3.6s-0.8,2.7-1.5,3.2c-0.6,0.6-1.1,0.8-1.5,0.8s-0.6-0.1-0.8-0.4
		c-0.3-0.7-0.7-1.3-1.2-1.8s-0.7-0.9-0.7-1s0.1-0.2,0.2-0.2s0.3,0,0.7,0.1c0.3,0.1,0.7,0.1,1,0.1c0.4,0,0.7-0.1,0.9-0.3
		c0.3-0.2,0.5-0.8,0.8-1.8c0.3-1,0.4-1.7,0.4-2.2s0-0.8-0.1-0.9c-0.1-0.1-0.3-0.1-0.6-0.1c-0.3,0-0.9,0.1-1.6,0.3
		c-0.8,0.2-1.4,0.4-2.1,0.6c-0.7,0.3-1.6,0.5-2.7,0.6l-0.3,11c1.1-0.2,2.4-0.5,3.7-0.9c1.3-0.4,2.3-0.8,2.8-1.2
		c0.6-0.3,1-0.5,1.4-0.5s1,0.2,2,0.7c1,0.4,1.5,0.8,1.5,1s-0.1,0.5-0.4,0.7s-0.5,0.6-0.8,1.2c-0.3,0.6-0.5,1.3-0.8,2
		C223.1,26.3,222.5,27.8,221.7,28.8z M220.4,27.4c0.4-1,0.8-2.1,1-3.4c0.2-1.3,0.4-2.2,0.4-2.6c0-0.5-0.2-0.7-0.5-0.7
		c-0.3,0-0.9,0.1-1.7,0.4c-0.8,0.2-1.5,0.5-2.1,0.7c-0.6,0.3-1.3,0.4-1.8,0.4c-0.6,0-1.1,0-1.4-0.1c-0.1,3.1-0.1,6-0.1,8.9v2.4
		c2.5-1.2,4.3-2.7,5.5-4.4c-1.8-2.2-3.1-3.6-4-4.3c-0.4-0.3-0.6-0.6-0.6-0.8s0.2-0.3,0.6-0.3s0.9,0.2,1.5,0.6
		C217.6,24.4,218.7,25.6,220.4,27.4z"/>
	<path class="st1" d="M255.6,19.3c3.5-0.6,6.1-1.1,7.7-1.4c1.6-0.4,2.9-0.6,3.8-0.6s1.8,0.2,2.7,0.7s1.3,1,1.3,1.4
		c0,0.6-0.7,0.9-2,0.9c-0.5,0-0.9,0-1.4-0.1s-1.3-0.1-2.5-0.1c-4.9,0-9.7,0.4-14.4,1.2c-4.7,0.8-7.9,1.4-9.5,1.9
		c-0.6,0.2-1.3,0.3-2,0.3c-0.7,0-1.4-0.2-2.1-0.5c-0.7-0.4-1.1-0.6-1.1-0.9c0-0.2,0.4-0.3,1.2-0.4c4.2-0.3,9.6-1.1,16.3-2.1l0.2-5.1
		c-1.5,0.3-2.7,0.4-3.7,0.4s-1.8-0.2-2.6-0.5c-0.9,1.4-1.7,2.5-2.6,3.3c-0.9,0.8-1.4,1.2-1.6,1.2s-0.2-0.1-0.2-0.2
		c0-0.2,0.2-0.5,0.5-1.1c0.4-0.5,0.9-1.5,1.5-2.8c0.7-1.3,1.1-2.4,1.3-3.1c0.2-0.7,0.3-1.3,0.3-1.8s0-0.9-0.1-1.1
		c-0.1-0.2-0.1-0.4-0.1-0.5c0-0.3,0.2-0.5,0.6-0.5c0.4,0,0.9,0.2,1.7,0.6c0.8,0.4,1.2,0.9,1.2,1.4c0,0.3-0.1,0.6-0.4,0.9l-1.9,3
		c1.5,0,3.5-0.3,6.1-1c0.1-4.9-0.2-7.7-0.9-8.5c-0.6-0.6-0.8-1-0.8-1.3c0-0.3,0.2-0.5,0.6-0.5s1.2,0.2,2.3,0.6s1.7,0.9,1.7,1.6
		c0,0.2,0,0.3-0.1,0.6c-0.3,0.9-0.6,3.3-0.7,7c0.9-0.3,1.8-0.6,2.8-1s1.8-0.6,2.2-0.6s0.9,0.1,1.3,0.3s0.7,0.4,0.7,0.6
		c0,0.4-0.7,0.7-2,1.1c-1.3,0.4-3,0.8-5.1,1.2L255.6,19.3z M247.7,26.2c1.7-0.1,3.6-0.3,5.7-0.8c2.1-0.5,3.5-0.9,4.1-1.2
		c0.4-0.2,0.9-0.3,1.4-0.3s1.5,0.4,2.8,1.1s2,1.3,2,1.7c0,0.3-0.4,0.8-1.3,1.6c-0.4,0.3-0.8,0.9-1.3,1.9c-0.4,0.9-0.7,1.5-0.7,1.8
		s0.2,0.5,0.6,0.8c0.4,0.2,0.6,0.5,0.6,0.7c0,0.4-0.4,0.6-1.2,0.6c-0.8,0-2.4,0.1-4.8,0.4c-2.4,0.3-4.3,0.6-5.9,0.9
		c0,0.7-0.2,1-0.5,1c-0.6,0-1-0.5-1.2-1.5c-0.3-1-0.4-1.8-0.5-2.4c-0.1-0.6-0.3-1.5-0.8-2.8s-0.8-2.2-1.1-2.6
		c-0.3-0.4-0.4-0.7-0.4-0.9c0-0.2,0.2-0.3,0.6-0.3C246.4,25.8,247,25.9,247.7,26.2z M249.7,33.8c3.6-0.6,6.1-1,7.3-1.1
		c0.7-0.1,1.1-0.2,1.3-0.4c0.2-0.2,0.4-0.9,0.6-2.1s0.3-2.1,0.3-2.7s-0.1-1-0.3-1.2c-0.2-0.2-0.5-0.3-1-0.3s-1.7,0.1-3.6,0.4
		c-2,0.3-3.8,0.6-5.6,0.9L249.7,33.8z"/>
</g>
</svg>
