<?xml version="1.0" encoding="utf-8"?>
<!-- Generator: Adobe Illustrator 22.1.0, SVG Export Plug-In . SVG Version: 6.00 Build 0)  -->
<svg version="1.1" id="图层_1" xmlns="http://www.w3.org/2000/svg" xmlns:xlink="http://www.w3.org/1999/xlink" x="0px" y="0px"
	 viewBox="0 0 113.4 113.4" style="enable-background:new 0 0 113.4 113.4;" xml:space="preserve">
<style type="text/css">
	.st0{fill:#FFFFFF;}
	.st1{fill:#FBF4E8;}
	.st2{fill:#B3B3B3;}
	.st3{fill:#AACBE5;}
	.st4{fill:#F5D2D9;stroke:#420A17;stroke-width:0.5;stroke-miterlimit:10;}
	.st5{fill:#F7E8CD;}
	.st6{fill:none;stroke:#420A17;stroke-miterlimit:10;}
	.st7{fill:#3A1E0D;}
	.st8{fill:#CFE0B3;stroke:#420A17;stroke-width:0.5;stroke-miterlimit:10;}
	.st9{fill:#DE898B;stroke:#420A17;stroke-width:0.5;stroke-miterlimit:10;}
	.st10{fill:#DE898B;}
	.st11{fill:none;stroke:#420A17;stroke-width:0.5;stroke-miterlimit:10;}
	.st12{fill:#FCFEFE;stroke:#420A17;stroke-width:0.5;stroke-miterlimit:10;}
	.st13{fill:#520C10;}
	.st14{fill:none;stroke:#DA91BC;stroke-width:0.5;stroke-linecap:round;}
</style>
<g id="XMLID_927_">
	<path id="XMLID_1111_" class="st0" d="M56.7,104.3h-6.4c-19.4,0-35.2-15.8-35.2-35.2V46.3c0-19.4,15.8-35.2,35.2-35.2h6.4
		c19.4,0,35.2,15.8,35.2,35.2V69C91.9,88.4,76.1,104.3,56.7,104.3z"/>
	<path id="XMLID_1108_" class="st1" d="M53,53.9c-21.9,0-35.2,17.1-35.2,0v-6.6c0-17.1,14-31.1,31.1-31.1h8.2
		c17.1,0,31.1,14,31.1,31.1v6.6C88.2,71,75,53.9,53,53.9z"/>
	<path id="XMLID_1107_" class="st2" d="M15.1,58.1v11c0,19.4,15.8,35.2,35.2,35.2h6.4c19.4,0,35.2-15.8,35.2-35.2v-11
		c0,30.9-23.3,41.1-38.4,41.1C38.3,99.1,15.1,88.4,15.1,58.1z"/>
	<path id="XMLID_1104_" class="st3" d="M56.7,100.1h-6.4c-19.4,0-36-15.5-35.4-37.7c0,0,23.1,11.1,38.2,11.1s39.2-11.3,39.2-11.3
		C93.7,83.7,76.1,100.1,56.7,100.1z"/>
	<g id="XMLID_1102_">
		<path id="XMLID_1103_" class="st4" d="M43.7,75.7c-8.1-1.2-27.7-12.6-28.6-13L15,58.4c0.2,0.1,21.8,12.5,29.3,13.7L43.7,75.7z"/>
	</g>
	<g id="XMLID_1100_">
		<path id="XMLID_1101_" class="st4" d="M59.4,76.1L59,72.4c9.4-1.2,32.8-13.9,33-14v3.8C91,62.7,69.5,74.8,59.4,76.1z"/>
	</g>
	<path id="XMLID_1097_" class="st5" d="M56.7,104.7h-6.4c-19.4,0-36.1-15.6-35.5-37.8c0,0,23.3,5.4,38.4,5.4S92,66.9,92,66.9
		C93.3,88.3,76.1,104.7,56.7,104.7z"/>
	<g id="XMLID_1095_">
		<path id="XMLID_1096_" class="st4" d="M52.7,84c-10.8,0-21.8-2.3-37-7.5l-0.5-3.8c14.9,5.1,27.5,7.6,37.9,7.5
			c14.7-0.1,30.8-4.4,38.9-8.6l-0.4,3.8c-7.9,4.1-22,8.4-38.4,8.5C53,84,52.8,84,52.7,84z"/>
	</g>
	<path id="XMLID_1094_" class="st6" d="M56.7,104.3h-6.4c-19.4,0-35.2-15.8-35.2-35.2V46.3c0-19.4,15.8-35.2,35.2-35.2h6.4
		c19.4,0,35.2,15.8,35.2,35.2V69C91.9,88.4,76.1,104.3,56.7,104.3z"/>
	<path id="XMLID_1093_" class="st4" d="M63.8,81.2c0,0,1.6,15.5,2.7,17.5s6.6,9.9,6.6,9.9s4.4,0.5,4.9,1.2s1.2-2,1.2-2
		s-9.1-9.8-9.6-10.9s-4.8-15.7-4.8-15.7H63.8z"/>
	
		<ellipse id="XMLID_1092_" transform="matrix(0.9852 -0.1712 0.1712 0.9852 -12.9472 12.2593)" class="st4" cx="64.6" cy="81.2" rx="2.2" ry="3.9"/>
	<path id="XMLID_1091_" class="st4" d="M40.9,81.2c0,0-0.9,14.3-1.3,15.5c-0.4,1.2-4.3,12.1-2.6,15c1.1,1.5,1.7,1.7,1.7,1.7l3.4-4.2
		c0,0-0.4-7.6,0-9.6s0-18.4,0-18.4H40.9z"/>
	
		<ellipse id="XMLID_1090_" transform="matrix(0.1712 -0.9852 0.9852 0.1712 -44.9628 108.8172)" class="st4" cx="42.2" cy="81.1" rx="3.9" ry="2.2"/>
	<path id="XMLID_1087_" class="st7" d="M46,10.1c0,0-3.7-3.4-6.5-2.7c4.4-1.4,7.5-1.2,11,1.3C52,5.4,55.6,0.4,58,0.1
		c-1.2,3.1-2.3,6.8-1.9,8.3c2.6-2,7.5-4.7,11.5-0.4c-3.5,0.4-6.6,0.8-7,3c-0.4,2.1-11.9,2.4-11.9,2.4"/>
	<path id="XMLID_1086_" class="st8" d="M3.6,63.8c0,0,0.5-11.7,4.6-16s8-10.2,10.5-22.1c3.4-8.9,22.1-15.8,34.8-15.8
		c26.2,0,38.2,20.5,38.3,21c0.1,0.6,3.6,14.8,7.9,18.2s10,9.5,10.1,12.1s-3.9,7.5-3.9,7.5s-9.6-14.9-10.7-16.5
		c-1.2-1.7-4.6-11-4.6-17.3c-2.2-5-24.1-19.6-37.5-18.2S21.9,25,20.7,30.3s-4.1,15.8-4.9,16.9c-0.8,1.1-5.7,16-5.8,19
		C6.8,65.7,3.6,63.8,3.6,63.8z"/>
	<g id="XMLID_996_">
		<g id="XMLID_1151_">
			<path id="XMLID_1159_" class="st9" d="M91.5,28c0,0,0.3-4.8,3.8-4.3s4.1,7.1,0,8.3C91.2,33.3,91.5,28,91.5,28z"/>
			<path id="XMLID_1158_" class="st9" d="M92.1,32.2c0,0,6.5-1.4,7.8,2.3c1.2,3.6-1.6,7.6-5.1,5.1C91.3,37,92,32.4,92.1,32.2z"/>
			<path id="XMLID_1157_" class="st9" d="M90.9,33.4c0,0,3.7,2.3,3.9,4.6s-0.8,6.8-5.1,5.5c-4.3-1.3-1.5-9.5-1.5-9.5
				S89.5,32.4,90.9,33.4z"/>
			<path id="XMLID_1156_" class="st9" d="M89.7,29.6c0,0-6.2-4.6-3.9-10c2.2-5.4,5.6-3.3,6.3-2.6C92.8,17.7,98.1,25.5,89.7,29.6z"/>
			<g id="XMLID_1153_">
				<path id="XMLID_1155_" class="st10" d="M90.4,31c0,0-2.2-6.7-5.9-5.8C80.9,26.1,80,37,85.4,37.9C89.6,38.6,90.4,31,90.4,31z"/>
				<path id="XMLID_1154_" class="st11" d="M90.4,31c0,0-2.2-6.7-5.9-5.8C80.9,26.1,80,37,85.4,37.9C89.6,38.6,90.4,31,90.4,31z"/>
			</g>
			<path id="XMLID_1152_" class="st12" d="M89.3,29c0.3-0.9,2-1.7,2.9-0.3s1.2,5.4-0.9,5.8C89.3,34.8,88.8,30.6,89.3,29z"/>
		</g>
	</g>
	<g id="XMLID_952_">
		<g id="XMLID_1160_">
			<path id="XMLID_1168_" class="st9" d="M13.3,30.5c0,0-0.3-4.8-3.8-4.3s-4.1,7.1,0,8.3S13.3,30.5,13.3,30.5z"/>
			<path id="XMLID_1167_" class="st9" d="M12.6,34.6c0,0-6.5-1.4-7.8,2.3s1.6,7.6,5.1,5.1S12.7,34.8,12.6,34.6z"/>
			<path id="XMLID_1166_" class="st9" d="M13.9,35.8c0,0-3.7,2.3-3.9,4.6s0.8,6.8,5.1,5.5s1.5-9.5,1.5-9.5S15.2,34.8,13.9,35.8z"/>
			<path id="XMLID_1165_" class="st9" d="M15.1,32c0,0,6.2-4.6,3.9-10s-5.6-3.3-6.3-2.6C12,20.1,6.7,27.9,15.1,32z"/>
			<g id="XMLID_1162_">
				<path id="XMLID_1164_" class="st10" d="M14.3,33.4c0,0,2.2-6.7,5.9-5.8s4.6,11.8-0.8,12.7C15.1,41,14.3,33.4,14.3,33.4z"/>
				<path id="XMLID_1163_" class="st11" d="M14.3,33.4c0,0,2.2-6.7,5.9-5.8s4.6,11.8-0.8,12.7C15.1,41,14.3,33.4,14.3,33.4z"/>
			</g>
			<path id="XMLID_1161_" class="st12" d="M15.5,31.4c-0.3-0.9-2-1.7-2.9-0.3c-0.9,1.5-1.2,5.4,0.9,5.8C15.4,37.2,16,33,15.5,31.4z"
				/>
		</g>
	</g>
	<g id="XMLID_919_">
		<g id="XMLID_949_">
			<g id="XMLID_950_">
				<path id="XMLID_951_" class="st0" d="M52.5,101.6c-0.9,0-1.3-2.4-1.4-2.9c-0.2-1.2,0-2.3,0.2-3.2c0.1-0.5,0.2-0.9,0.2-1.2
					c0-0.3-0.3-0.7-0.7-1.1s-0.8-0.9-1-1.5s-0.3-1.3-0.4-2c-0.1-0.5-0.1-1-0.2-1.2c-0.2-0.5-1.3-0.9-3-1c0,0,0,0-0.1,0
					c-0.4,0-1.1,0.2-1.4,0.5c0,0.1-0.1,0.2,0,0.5c0,0,0,0.1,0.2,0.1c0.1,0,0.3,0,0.5-0.1c0.2,0,0.3-0.1,0.5-0.1c0.1,0,0.3,0,0.4,0.1
					c0.3,0.1,0.4,0.3,0.5,0.5h0.1c1.3,0,2.3,0.7,2.3,1.6s-1,1.6-2.3,1.6c-0.3,0-0.6,0-0.8-0.1L46,92.2c-0.2,0.1-0.3,0.1-0.6,0.1
					c-0.5,0-1-0.2-1.2-0.3c-0.4-0.3-0.6-0.6-0.9-1.9c0-0.1-0.1-0.2-0.2-0.3C42.7,89.3,42,88.4,43,87c0.8-1.1,2-1.7,3.5-1.7
					c1.3,0,2.5,0.4,3,0.6c0.1,0,0.1,0,0.2,0.1c0.1,0.1,0.4,0.1,0.7,0.1s0.7,0,1.1,0c0.4,0,0.9,0,1.4-0.1H53c0.8,0,1.5,0.1,2,0.2
					c0.3,0.1,0.6,0.1,0.8,0.1h0.1c0.1,0,0.3-0.1,0.5-0.2c0.8-0.3,2-0.8,3.3-0.8c0.3,0,0.6,0,0.8,0.1c1,0.2,2.7,1.2,3,3
					c0.1,0.7-0.2,1.2-0.5,1.5c-0.1,0.1-0.2,0.3-0.3,0.4s-0.1,0.3-0.2,0.5c-0.1,0.5-0.2,1-0.7,1.3c-0.3,0.3-0.7,0.4-1.1,0.4
					c-0.2,0-0.4,0-0.6-0.1c-0.2,0-0.3-0.1-0.4-0.3c-0.2,0-0.5,0.1-0.7,0.1c-1.3,0-2.3-0.7-2.3-1.6s1-1.6,2.3-1.6h0.1
					c0.1-0.2,0.2-0.4,0.4-0.5s0.4-0.1,0.6-0.1c0.2,0,0.4,0,0.5,0.1c0.1,0,0.2,0,0.3,0l0,0c0.1,0,0.3-0.2,0.3-0.3
					c0-0.1-0.1-0.2-0.3-0.5c-0.2-0.2-0.7-0.3-1.2-0.3c-1.3,0-2.7,0.6-2.9,1c-0.2,0.3-0.2,0.8-0.3,1.4c-0.1,0.5-0.1,0.9-0.2,1.4
					c-0.2,0.6-0.6,1.1-1,1.6c-0.4,0.4-0.7,0.9-0.7,1.2c0,0.3,0,0.9,0.1,1.5c0.1,1,0.3,2.1,0.2,3.3c-0.1,0.9-0.5,2.7-1.3,2.7l0,0
					c-0.3,0-0.5-0.2-0.6-0.3l-0.1-0.1l-0.1,0.1c-0.1,0.1-0.2,0.2-0.3,0.3C52.6,101.5,52.5,101.6,52.5,101.6L52.5,101.6z"/>
			</g>
		</g>
		<g id="XMLID_942_">
			<g id="XMLID_947_">
				<path id="XMLID_948_" class="st0" d="M53.8,101.1c-0.2,0-0.4-0.4-0.7-0.4s-0.5,0.4-0.6,0.4c-0.1,0.1-0.7-0.8-1-2.6
					c-0.3-1.8,0.5-3.4,0.4-4.3c0-0.9-1.3-1.6-1.7-2.7s-0.3-2.6-0.7-3.2c-0.3-0.6-1.5-1.2-3.3-1.3c-0.6,0-2.4,0.3-1.8,1.6
					c0.3,0.7,1.4,0.1,1.8,0.2c0.3,0.2,0.2,0.4,0.3,0.9c0,0.4-0.4,1.8-0.7,2s-1.2,0-1.3-0.2c-0.2-0.1-0.4-0.3-0.7-1.6
					c-0.1-0.6-1.5-1.2-0.4-2.8c2-2.7,5.5-1.1,6.2-0.9c0.6,0.2,1.9,0,3.4,0c1.4,0,2.6,0.4,3.1,0.3s2.6-1.3,4.5-0.9
					c0.9,0.2,2.4,1.1,2.6,2.6c0.1,0.8-0.5,1.1-0.7,1.6s-0.2,1.3-0.7,1.7c-0.4,0.3-0.8,0.3-1.4,0.2c-0.5-0.1-1-2.7-0.5-2.9
					c0.5-0.2,1.1,0.1,1.4,0c0.3-0.1,1.3-0.7,0.2-1.6s-4.3-0.1-4.9,0.8c-0.4,0.6-0.3,1.9-0.6,2.9s-1.6,2-1.7,2.9
					c-0.1,0.9,0.5,2.9,0.3,4.8C54.5,100.2,54,101.1,53.8,101.1z"/>
			</g>
			<g id="XMLID_943_">
				<path id="XMLID_944_" class="st3" d="M52.5,101.2C52.5,101.2,52.4,101.2,52.5,101.2c-0.3-0.2-0.8-1-1-2.6
					c-0.2-1.1,0.1-2.2,0.2-3.1c0.1-0.5,0.2-0.9,0.2-1.3c0-0.5-0.4-0.9-0.8-1.3c-0.3-0.4-0.7-0.8-0.9-1.4s-0.3-1.3-0.4-1.9
					c-0.1-0.6-0.1-1-0.3-1.3c-0.4-0.7-1.6-1.1-3.3-1.2c-0.4,0-1.4,0.2-1.7,0.7c-0.2,0.2-0.2,0.5,0,0.9s0.7,0.3,1.1,0.2
					c0.3,0,0.5-0.1,0.6,0c0.3,0.2,0.3,0.4,0.3,0.7c0,0.1,0,0.2,0,0.3c0,0.4-0.4,1.9-0.7,2.1c-0.4,0.2-1.2-0.1-1.4-0.2
					c-0.3-0.2-0.4-0.4-0.7-1.6c0-0.1-0.1-0.3-0.3-0.5c-0.4-0.5-0.9-1.2-0.1-2.3c1.2-1.7,3.3-2,6.1-1c0.1,0,0.1,0,0.2,0.1
					c0.4,0.1,1.1,0.1,2,0.1c0.4,0,0.9,0,1.3-0.1c0.8,0,1.5,0.1,2.1,0.2c0.4,0.1,0.8,0.1,1,0.1c0.1,0,0.3-0.1,0.6-0.2
					c0.9-0.3,2.5-1,4-0.7c0.9,0.2,2.4,1,2.7,2.7c0.1,0.5-0.2,0.9-0.4,1.2c-0.1,0.2-0.2,0.3-0.3,0.5s-0.1,0.4-0.2,0.6
					c-0.1,0.4-0.2,0.9-0.5,1.1c-0.4,0.4-0.9,0.3-1.4,0.2c-0.4-0.1-0.7-1.2-0.8-1.9c0-0.4-0.1-1,0.3-1.2c0.3-0.1,0.7-0.1,1,0
					c0.2,0,0.3,0.1,0.5,0c0.2,0,0.6-0.2,0.6-0.6c0.1-0.3-0.1-0.6-0.5-0.9c-0.5-0.4-1.4-0.5-2.5-0.3s-2,0.6-2.2,1.1
					c-0.2,0.4-0.3,0.9-0.3,1.5c-0.1,0.4-0.1,0.9-0.2,1.3c-0.1,0.5-0.5,1-0.9,1.5s-0.8,1-0.8,1.4s0,0.9,0.1,1.6
					c0.1,0.9,0.3,2.1,0.2,3.2c-0.1,1.3-0.6,2.4-0.9,2.4c-0.1,0-0.2-0.1-0.3-0.2s-0.2-0.2-0.4-0.2s-0.3,0.1-0.4,0.2
					C52.6,101.1,52.6,101.1,52.5,101.2L52.5,101.2z M46.2,86.9L46.2,86.9c1.8,0.1,3.1,0.6,3.5,1.3c0.2,0.3,0.2,0.8,0.3,1.4
					s0.2,1.3,0.4,1.8s0.6,0.9,0.9,1.3c0.4,0.5,0.8,0.9,0.8,1.4c0,0.3-0.1,0.8-0.2,1.3c-0.2,0.8-0.4,1.9-0.2,3
					c0.3,1.7,0.8,2.4,0.9,2.5l0.1-0.1c0.1-0.1,0.3-0.3,0.5-0.3s0.3,0.1,0.5,0.2c0.1,0.1,0.2,0.2,0.3,0.2l0,0c0.1,0,0.6-0.8,0.8-2.2
					c0.1-1.1,0-2.2-0.2-3.2c-0.1-0.7-0.2-1.2-0.1-1.6c0.1-0.5,0.4-1,0.8-1.5c0.4-0.5,0.7-0.9,0.9-1.4c0.1-0.4,0.2-0.9,0.2-1.3
					c0.1-0.6,0.1-1.2,0.4-1.6c0.3-0.5,1.2-1,2.3-1.2s2.1-0.1,2.6,0.3c0.4,0.3,0.6,0.7,0.5,1c-0.1,0.4-0.6,0.6-0.7,0.7
					c-0.1,0-0.3,0-0.5,0c-0.3,0-0.6-0.1-0.9,0c-0.2,0.1-0.2,0.5-0.2,1c0.1,0.9,0.4,1.7,0.6,1.8c0.6,0.1,1,0.1,1.3-0.2
					c0.3-0.3,0.4-0.7,0.5-1.1c0.1-0.2,0.1-0.4,0.2-0.6c0.1-0.2,0.2-0.4,0.3-0.5c0.2-0.3,0.5-0.6,0.4-1c-0.3-1.6-1.7-2.4-2.6-2.6
					c-1.4-0.3-3,0.4-3.9,0.7c-0.3,0.1-0.5,0.2-0.6,0.2c-0.2,0-0.6,0-1-0.1c-0.6-0.1-1.3-0.2-2.1-0.2c-0.5,0-0.9,0-1.3,0.1
					c-0.9,0-1.6,0.1-2-0.1c0,0-0.1,0-0.2-0.1c-2.7-1-4.7-0.7-5.9,0.9c-0.8,1.1-0.3,1.7,0.1,2.2c0.1,0.2,0.3,0.4,0.3,0.5
					c0.3,1.2,0.4,1.4,0.6,1.5c0.2,0.1,1,0.3,1.3,0.2c0.3-0.2,0.7-1.5,0.7-2c0-0.1,0-0.2,0-0.3c0-0.3,0-0.4-0.2-0.6
					c-0.1,0-0.3,0-0.5,0c-0.4,0.1-1,0.2-1.3-0.3c-0.2-0.4-0.2-0.7,0-1C44.7,87.1,45.7,86.9,46.2,86.9z"/>
			</g>
		</g>
		<g id="XMLID_937_">
			<ellipse id="XMLID_941_" class="st3" cx="59.2" cy="90.6" rx="1.8" ry="1.1"/>
			<path id="XMLID_938_" class="st3" d="M59.2,91.8c-1,0-1.9-0.5-1.9-1.2s0.8-1.2,1.9-1.2c1,0,1.9,0.5,1.9,1.2
				C61,91.3,60.2,91.8,59.2,91.8z M59.2,89.5c-1,0-1.7,0.5-1.7,1.1s0.8,1.1,1.7,1.1c1,0,1.7-0.5,1.7-1.1S60.1,89.5,59.2,89.5z"/>
		</g>
		<g id="XMLID_932_">
			<ellipse id="XMLID_936_" class="st3" cx="46.9" cy="90.6" rx="1.8" ry="1.1"/>
			<path id="XMLID_933_" class="st3" d="M46.9,91.8c-1,0-1.9-0.5-1.9-1.2s0.8-1.2,1.9-1.2c1,0,1.9,0.5,1.9,1.2
				C48.8,91.3,48,91.8,46.9,91.8z M46.9,89.5c-1,0-1.7,0.5-1.7,1.1s0.8,1.1,1.7,1.1c1,0,1.7-0.5,1.7-1.1
				C48.7,90,47.9,89.5,46.9,89.5z"/>
		</g>
		<g id="XMLID_920_">
			<g id="XMLID_926_">
				<g id="XMLID_1099_">
					<path id="XMLID_1105_" class="st3" d="M53.6,100.9c0,0,0.4-1.7,0.4-2.7c0-0.9,0.1-3.1,0-3.2s-0.3-0.1-0.4-0.3
						c-0.1-0.2-0.1-3.1,0.2-4.4s2.7-2.5,2.4-2.8c-0.2-0.3-1.8,0.4-3.1,0.4c-1,0-2.9-0.9-3.1-0.6c-0.2,0.3,1.9,1.7,2.3,3.3
						c0.3,1.6,0.5,4.1,0.4,4.2s-0.4,0.1-0.4,0.2c-0.1,0.1-0.1,3-0.1,4c0.1,1,0.4,1.9,0.4,1.9s0.2-0.2,0.5-0.2
						C53.4,100.7,53.6,100.9,53.6,100.9z"/>
				</g>
			</g>
			<g id="XMLID_921_">
				<path id="XMLID_922_" class="st3" d="M53.6,101L53.6,101c-0.1-0.1-0.3-0.3-0.6-0.3c-0.2,0-0.4,0.1-0.4,0.1l-0.1,0.1v-0.1
					c0,0-0.4-0.9-0.4-1.9c-0.1-0.9,0-3.8,0.1-4c0-0.1,0.2-0.1,0.2-0.1c0.1,0,0.2,0,0.2-0.1c0.1-0.2-0.1-2.6-0.4-4.2
					c-0.2-1-1-1.8-1.7-2.4c-0.5-0.5-0.7-0.7-0.6-0.9c0.1-0.2,0.6-0.1,1.4,0.2c0.6,0.2,1.3,0.4,1.7,0.4c0.6,0,1.2-0.2,1.8-0.3
					c0.7-0.2,1.2-0.3,1.4-0.1c0.1,0.2-0.2,0.5-0.7,0.9c-0.7,0.5-1.6,1.3-1.7,2c-0.3,1.3-0.3,4.2-0.2,4.4c0.1,0.1,0.1,0.1,0.2,0.1
					c0.1,0,0.2,0.1,0.2,0.1c0.1,0.2,0.1,2.6,0,3.2c0,0.9-0.4,2.7-0.4,2.7V101z M53.1,100.6L53.1,100.6c0.2,0,0.4,0.1,0.5,0.2
					c0.1-0.4,0.3-1.8,0.4-2.5c0-1,0-3,0-3.2L53.9,95c-0.1,0-0.2-0.1-0.3-0.2c-0.2-0.2-0.1-3.2,0.2-4.5c0.2-0.8,1.1-1.6,1.8-2.1
					c0.3-0.2,0.7-0.6,0.7-0.7c-0.1-0.1-0.7,0-1.2,0.1c-0.6,0.1-1.2,0.3-1.8,0.3c-0.5,0-1.2-0.2-1.8-0.4c-0.5-0.2-1.2-0.4-1.3-0.2
					c-0.1,0.1,0.3,0.4,0.6,0.7c0.6,0.6,1.5,1.5,1.7,2.5c0.3,1.5,0.5,4.1,0.4,4.3c-0.1,0.1-0.2,0.1-0.3,0.2c-0.1,0-0.1,0-0.1,0.1
					s-0.1,2.9,0,3.9c0.1,0.8,0.3,1.5,0.4,1.8C52.7,100.7,52.9,100.6,53.1,100.6z"/>
			</g>
		</g>
	</g>
	<g id="XMLID_444_">
		<g id="XMLID_914_">
			<path id="XMLID_918_" class="st13" d="M24.1,44.5c0,0-2.9-4.8,4.9-9.5s18.9,1.4,19.5,5s-2.7,5.2-5.4,4.1c-2.7-1.1-7.2-1-12.2,1.3
				C25.8,47.7,24.1,44.5,24.1,44.5z"/>
			
				<ellipse id="XMLID_917_" transform="matrix(0.9914 -0.1305 0.1305 0.9914 -4.8223 4.6153)" class="st0" cx="32.8" cy="39.1" rx="4.7" ry="2.3"/>
			
				<ellipse id="XMLID_916_" transform="matrix(0.9914 -0.1305 0.1305 0.9914 -4.9235 5.6704)" class="st0" cx="40.8" cy="40.4" rx="2.1" ry="1.3"/>
			
				<ellipse id="XMLID_915_" transform="matrix(0.9914 -0.1306 0.1306 0.9914 -5.3609 4.0503)" class="st0" cx="28.2" cy="42.9" rx="1.4" ry="1.2"/>
		</g>
		<g id="XMLID_909_">
			<path id="XMLID_913_" class="st13" d="M80.7,44.5c0,0,2.9-4.8-4.9-9.5s-18.9,1.4-19.5,5s2.7,5.2,5.4,4.1c2.7-1.1,7.2-1,12.2,1.3
				C79,47.7,80.7,44.5,80.7,44.5z"/>
			
				<ellipse id="XMLID_912_" transform="matrix(0.1305 -0.9914 0.9914 0.1305 23.8175 105.2531)" class="st0" cx="71.9" cy="39" rx="2.3" ry="4.7"/>
			
				<ellipse id="XMLID_911_" transform="matrix(0.1305 -0.9914 0.9914 0.1305 15.6254 98.4743)" class="st0" cx="64" cy="40.3" rx="1.3" ry="2.1"/>
			
				<ellipse id="XMLID_910_" transform="matrix(0.1306 -0.9914 0.9914 0.1306 24.0343 113.249)" class="st0" cx="76.6" cy="42.9" rx="1.2" ry="1.4"/>
		</g>
		<g id="XMLID_465_">
			<line id="XMLID_625_" class="st14" x1="31.4" y1="48.7" x2="26.2" y2="53.1"/>
			<line id="XMLID_624_" class="st14" x1="35.9" y1="49" x2="30.7" y2="53.5"/>
		</g>
		<g id="XMLID_462_">
			<line id="XMLID_464_" class="st14" x1="70.6" y1="48.7" x2="65.4" y2="53.1"/>
			<line id="XMLID_463_" class="st14" x1="75.2" y1="49" x2="70" y2="53.5"/>
		</g>
	</g>
</g>
</svg>
