<?xml version="1.0" encoding="utf-8"?>
<!-- Generator: Adobe Illustrator 19.0.0, SVG Export Plug-In . SVG Version: 6.00 Build 0)  -->
<svg version="1.1" id="图层_1" xmlns="http://www.w3.org/2000/svg" xmlns:xlink="http://www.w3.org/1999/xlink" x="0px" y="0px"
	 viewBox="0 0 113.4 113.4" style="enable-background:new 0 0 113.4 113.4;" xml:space="preserve">
<style type="text/css">
	.st0{fill:#3C74AB;}
	.st1{fill:#FFFFFF;}
	.st2{fill:#D3E6F6;}
	.st3{fill:#3A1E0D;}
	.st4{fill:#FFFFFF;stroke:#182A88;stroke-miterlimit:10;}
	.st5{fill:#E8C7AD;}
	.st6{fill:none;stroke:#3C74AB;stroke-miterlimit:10;}
	.st7{fill:#F9FDFF;}
	.st8{fill:#245C96;}
	.st9{fill:#504F4D;}
	.st10{fill:none;stroke:#562F23;stroke-width:2;stroke-linecap:round;stroke-miterlimit:10;}
	.st11{fill:#EDB14A;}
	.st12{fill:#23A460;}
	.st13{fill:#6FBBA8;}
	.st14{fill:#DB484C;}
	.st15{fill:#E68515;}
	.st16{fill:#ECA62B;}
	.st17{fill:#E8931D;}
	.st18{fill:#F1C241;}
	.st19{fill:#D74987;}
	.st20{fill:#F0BF1C;}
	.st21{fill:#E27119;}
	.st22{fill:#BF601F;}
	.st23{fill:#4D9D87;}
	.st24{fill:#EDA92F;}
	.st25{clip-path:url(#SVGID_2_);}
	.st26{fill:#D83D62;}
	.st27{fill:#BC1741;}
</style>
<g id="XMLID_444_">
	<g id="XMLID_1234_">
		<path id="XMLID_1239_" class="st0" d="M77.2,10.9c0-0.1,0.1-0.3,0.4-0.4c0.5-0.2,1.3,0.2,2.3,1v-0.1c0.1,0,8.2,3.4,9.8,3.2
			c1.3-0.1,3.6-0.8,5.6-3.4C97.1,8.8,98.5,8,98.6,8L99,7.8l-0.2,0.4c-0.6,1.3-1.1,2.9-1,3.1c0.2,0.3,1.4,2.1,2,3l0.1,0.2l-0.2,0.1
			c0,0-4,1.1-6.1,1.5l-1.4,0.3c-1.7,0.4-3.7,1-5.7-0.2c-1.3-0.8-2.4-1.2-3-1.5l5.3,4.8c0.1,0.1,3,2.3,6.4,0c3.4-2.4,8.3-4,8.3-4.1
			l0.5-0.2l-0.3,0.4c-0.4,0.6-1,1.6-1,1.9c0,0.4,0.7,2.2,0.9,2.8l0.1,0.2h-0.2c-0.1,0-6.8,1.4-8.6,2.3c-1,0.6-4.6,2.3-6.8-0.2
			c-1.8-2.1-6.9-7.6-6.9-7.6L77.2,10.9L77.2,10.9z"/>
		<path id="XMLID_1238_" class="st1" d="M81.3,12.7L81.3,12.7L81.3,12.7c-0.3-0.3-0.6-0.5-0.9-0.8c2,0.8,7.8,3.2,9.3,3
			c1.3-0.1,3.8-0.8,5.8-3.5c1.2-1.6,2.2-2.4,2.8-2.8c-0.4,0.8-0.9,2.2-0.9,2.8v0.1c0.1,0.2,0.4,0.7,0.8,1.2
			c-1.3,0.4-7.9,2.7-9.5,2.8C87.3,15.7,83.1,13.6,81.3,12.7z"/>
		<path id="XMLID_1237_" class="st2" d="M93.6,15.8l-1.4,0.3c-1.7,0.5-3.5,0.9-5.4-0.2c-2.1-1.2-3.4-1.7-3.8-1.9l-1.5-1.4
			c1.7,0.9,6,3,7.4,2.8c1.6-0.2,8.2-2.4,9.5-2.8c0.4,0.6,0.9,1.3,1.2,1.7C98.6,14.6,95.4,15.4,93.6,15.8z"/>
		<path id="XMLID_1236_" class="st2" d="M77.6,10.8c0.1,0,0.1,0,0.2,0c0.9,0.9,6.9,6.3,8.7,8.1c2,2,3.2,4.5,5.5,3.3
			c2-1.1,9.2-3.7,10.4-4.1c0.2,0.7,0.6,1.8,0.8,2.3c-1.1,0.2-6.8,1.4-8.5,2.3c-1,0.6-4.4,2.2-6.4-0.2c-1.8-2.1-6.9-7.6-6.9-7.6
			s-3.8-3.8-4-4C77.5,10.8,77.6,10.8,77.6,10.8z"/>
		<path id="XMLID_1235_" class="st1" d="M86.6,18.9c-1.8-1.8-7.8-7.3-8.7-8.1c0.4,0,1.3,0.4,3.2,2.2l1.5,1.4l0,0c0,0,0,0,0.1,0
			l5.9,5.3c0,0,3.2,2.5,6.7,0.1c2.8-2,6.5-3.4,7.8-3.9c-0.3,0.5-0.8,1.3-0.8,1.7c0,0.1,0.1,0.3,0.1,0.5c-1.3,0.5-8.4,3.1-10.4,4.1
			C89.8,23.3,88.5,20.8,86.6,18.9z"/>
	</g>
	<circle id="XMLID_1231_" class="st3" cx="74.5" cy="7" r="6.9"/>
	<path id="XMLID_1230_" class="st4" d="M58.9,103.2h-6.7c-20,0-36.4-16.4-36.4-36.4V43.4C15.9,23.4,32.2,7,52.2,7h6.7
		c20,0,36.4,16.4,36.4,36.4v23.5C95.3,86.9,78.9,103.2,58.9,103.2z"/>
	<path id="XMLID_1227_" class="st5" d="M55.1,51.2c-22.7,0-36.4,17.7-36.4,0v-6.9c0-17.7,14.5-32.2,32.2-32.2h8.4
		c17.7,0,32.2,14.5,32.2,32.2v6.9C91.5,68.9,77.8,51.2,55.1,51.2z"/>
	<path id="XMLID_1224_" class="st6" d="M58.9,103.2h-6.7c-20,0-36.4-16.4-36.4-36.4V43.4C15.9,23.4,32.2,7,52.2,7h6.7
		c20,0,36.4,16.4,36.4,36.4v23.5C95.3,86.9,78.9,103.2,58.9,103.2z"/>
	<path id="XMLID_1223_" class="st1" d="M67.9,5.2c0,0,8.7,5.5,12.5,5.5c-0.9,1.4-1,1.2-1,1.2S74,10.4,67.6,6.7
		C67.8,5.3,67.9,5.2,67.9,5.2z"/>
	<path id="XMLID_1220_" class="st0" d="M58.9,102.8h-6.7c-20,0-36.4-16.4-36.4-36.4v-8.8L54.1,65l41.2-6.8v8.3
		C95.3,86.5,78.9,102.8,58.9,102.8z"/>
	<g id="XMLID_1215_">
		<g id="XMLID_1256_">
			<path id="XMLID_1257_" class="st7" d="M57.5,87.2c-13.9,0-26.6-1.7-39.2-5.9L17,77.4c25.8,8.7,63.5,7.3,77.3,0.2l-1.4,3.8
				C85.2,85.3,72.9,87.2,57.5,87.2z"/>
		</g>
	</g>
	<g id="XMLID_1213_">
		<path id="XMLID_1214_" class="st8" d="M53.3,67.4c-8.7,0-36.7-7.3-37.9-7.6V56c0.3,0.1,30.5,7.8,38.2,7.6l0.1,3.9
			C53.6,67.4,53.4,67.4,53.3,67.4z"/>
	</g>
	<g id="XMLID_1211_">
		<path id="XMLID_1212_" class="st8" d="M17.6,71.6c-0.7,0-1.5,0.1-2,0l-0.3-3.8c7.8,0.9,56.4-7,80.4-11.2v3.9
			C93.1,61,32.3,71.6,17.6,71.6z"/>
	</g>
	<g id="XMLID_1198_">
		<g id="XMLID_1204_">
			<g id="XMLID_1209_">
				<path id="XMLID_1210_" class="st9" d="M51.8,48.9c-0.1,0-0.1,0-0.2,0c-0.2-0.1-0.2-0.3-0.1-0.5l2.4-4.5c0.1-0.2,0.3-0.2,0.5-0.1
					c0.2,0.1,0.2,0.3,0.1,0.5l-2.4,4.5C52.1,48.8,51.9,48.9,51.8,48.9z"/>
			</g>
			<g id="XMLID_1207_">
				<path id="XMLID_1208_" class="st9" d="M55.1,48.3c-0.1,0-0.1,0-0.2,0c-0.2-0.1-0.2-0.3-0.1-0.5l1.9-3.4c0.1-0.2,0.3-0.2,0.5-0.1
					c0.2,0.1,0.2,0.3,0.1,0.5l-1.9,3.4C55.3,48.2,55.2,48.3,55.1,48.3z"/>
			</g>
			<g id="XMLID_1205_">
				<path id="XMLID_1206_" class="st9" d="M57.8,48.8L57.8,48.8c-0.3-0.1-0.4-0.3-0.3-0.5c0.6-1.4,1.2-2.8,1.9-4.2
					c0.1-0.2,0.3-0.2,0.5-0.2c0.2,0.1,0.2,0.3,0.2,0.5c-0.7,1.4-1.3,2.7-1.9,4.1C58.1,48.7,58,48.8,57.8,48.8z"/>
			</g>
		</g>
		<g id="XMLID_1201_">
			<ellipse id="XMLID_1203_" class="st1" cx="39.3" cy="35.7" rx="11.1" ry="10.6"/>
			<circle id="XMLID_1202_" class="st1" cx="73.8" cy="35.7" r="11"/>
		</g>
		<line id="XMLID_1200_" class="st10" x1="32.2" y1="36.3" x2="46.4" y2="36.3"/>
		<line id="XMLID_1199_" class="st10" x1="66.7" y1="36.3" x2="80.9" y2="36.3"/>
	</g>
	<g id="XMLID_1193_">
		<path id="XMLID_1197_" class="st11" d="M15.1,37.1c-0.5,0.4-0.8,0.6-1.1,1c-0.4,0.5-0.2,0.8-0.5,1.2c-0.9,0.1-2.2-1.5-3.3-0.3
			c-0.8,0.9,0.3,2.6,0.2,3.4c-0.9,0-1.7-1.3-3.2-0.9c-1.4,0.3-0.8,1.5-1.1,2.2c-0.2,0.6-1.2,0.3-1,1.4c0.9,0.3,1.8-0.4,2-1.6
			c0-0.3,0-0.7,0.1-1c1.3-0.5,2.3,1.4,3.5,0.8c1.6-0.7-0.4-2.8,0.2-3.7c0.8-0.2,1.7,0.9,2.6,0.7C15,40,14,38.8,15.6,38
			c0.2,0,1.6,1.4,3.8-0.1c1.2-0.9,1.9-2.5,1.2-3.6C19.9,33,18.1,33,17,33.6C15.2,34.6,15.1,35.7,15.1,37.1z"/>
		<path id="XMLID_1196_" class="st11" d="M27.1,36.4c0.5-0.4,0.8-0.6,1.1-1c0.4-0.5,0.2-0.8,0.5-1.2c0.9-0.1,2.2,1.5,3.3,0.3
			c0.8-0.9-0.3-2.6-0.2-3.4c0.9,0,1.7,1.3,3.2,0.9c1.4-0.3,0.8-1.5,1.1-2.2c0.2-0.6,1.2-0.3,1-1.4c-0.9-0.3-1.8,0.4-2,1.6
			c0,0.3,0,0.7-0.1,1c-1.3,0.5-2.3-1.4-3.5-0.8c-1.6,0.7,0.4,2.8-0.2,3.7c-0.8,0.2-1.7-0.9-2.6-0.7c-1.3,0.3-0.4,1.6-1.9,2.3
			c-0.2,0-1.6-1.4-3.8,0.1c-1.2,0.9-1.9,2.5-1.2,3.6c0.7,1.3,2.5,1.3,3.6,0.7C26.9,38.9,27.1,37.8,27.1,36.4z"/>
		<path id="XMLID_1195_" class="st11" d="M20.5,42.8c0.2,0.2,0.4,0.3,0.5,0.5c0.2,0.2,0.1,0.4,0.2,0.6c0.4,0,1-0.7,1.5-0.1
			c0.4,0.4-0.2,1.2-0.1,1.5c0.4,0,0.8-0.6,1.5-0.4c0.6,0.1,0.4,0.7,0.5,1s0.6,0.2,0.4,0.6c-0.4,0.1-0.8-0.2-0.9-0.7
			c0-0.1,0-0.3,0-0.4c-0.6-0.2-1.1,0.6-1.6,0.4c-0.7-0.3,0.2-1.3-0.1-1.7c-0.4-0.1-0.8,0.4-1.2,0.3c-0.6-0.1-0.2-0.7-0.9-1.1
			c-0.1,0-0.7,0.7-1.7,0C18,42.7,17.7,42,18,41.5c0.3-0.6,1.1-0.6,1.6-0.3C20.5,41.6,20.5,42.1,20.5,42.8z"/>
		<path id="XMLID_1194_" class="st11" d="M21.5,31c-0.3-0.2-0.5-0.3-0.7-0.6c-0.2-0.3-0.1-0.5-0.3-0.7c-0.5,0-1.3,0.9-1.9,0.2
			c-0.5-0.5,0.2-1.5,0.1-2c-0.6,0-1,0.8-1.9,0.6c-0.8-0.2-0.5-0.9-0.6-1.3s-0.7-0.2-0.6-0.8c0.5-0.2,1.1,0.2,1.2,0.9
			c0,0.2,0,0.4,0.1,0.6c0.8,0.3,1.4-0.8,2.1-0.5c0.9,0.4-0.2,1.6,0.1,2.2c0.5,0.1,1-0.6,1.6-0.4c0.8,0.2,0.2,0.9,1.1,1.4
			c0.1,0,1-0.9,2.3,0c0.7,0.5,1.1,1.5,0.7,2.1c-0.4,0.8-1.5,0.8-2.2,0.4C21.6,32.5,21.5,31.9,21.5,31z"/>
	</g>
	<g id="XMLID_1185_">
		<path id="XMLID_1192_" class="st12" d="M17.5,71.5c-0.5,0-1-0.1-1.6-0.2c-0.6,0-1.1,0.1-1.6,0.1c-0.1-0.4-0.6-1.3-0.6-1.6
			c-0.1-0.5,0.5-0.7,0.7-1.4c0.3-1.3-0.6-2.5-1.8-2.6c-2.6-0.3-3.7,3.6-0.3,4.3L13,72c-0.7,0.8-0.4-0.1-2.3,2.2l-3.5-1.5
			c-0.6-4.3-5.6-1.8-4.1,0.8c0.5,0.9,1.5,1.3,2.5,1c0.3-0.1,0.7-0.4,0.9-0.5c0.5-0.1,2.9,1.2,3.6,1.4c0,0.6-0.2,1-0.2,1.6
			c0,0.7,0.1,1.1,0.1,1.7c-2.6,1-1.1-0.2-3.1-0.1c-1.1,0.1-2,1-2,2.3c0.2,2.4,4,3,4.3-0.3l1.3-0.5c0.4,0.4,0.6,0.9,1,1.2
			c0.4,0.4,0.8,0.6,1.2,1l-1.5,3.5c-0.5,0.6-1,0-1.9,1c-1.6,1.8,0.7,4.6,2.8,3.2c0.5-0.3,0.9-0.8,0.9-1.6c0.1-1-0.6-1.4-0.5-1.9
			c0-0.3,1.3-3,1.6-3.6c0.5,0,1,0.2,1.5,0.2c0.6,0,1.1-0.1,1.7-0.1c1.2,2.7,0.2,1.6,0,3.1c-0.3,3,4.2,3.2,4.2,0.2
			c0-2.1-2.1-2-2.3-2.3l-0.7-1.7c0.4-0.4,0.9-0.6,1.2-0.9c0.4-0.4,0.6-0.8,1-1.2c0.5,0.1,1.3,0.5,1.8,0.8c0.6,0.2,1.5,0.5,1.8,0.8
			c0.1,0.1,0,2.7,2.7,2.1c0.7-0.2,1.1-0.5,1.4-1.1c0.6-1.2-0.3-2.9-1.8-3c-1.1-0.1-1.4,0.6-1.9,0.6c-0.2,0-3-1.3-3.5-1.5
			c0-0.5,0.1-0.9,0.2-1.4c0-0.6-0.1-1.1-0.1-1.7l1.8-0.8c0.9,0.5,1.6,1.1,2.8,0.3c2-1.3,0.7-4.4-1.7-3.9c-1.1,0.3-1.4,1-1.7,2.2
			L21,74.4c-1.5-2.1-1.5-1.5-2.2-2.3l1.7-3.9c4.2-0.3,2-5.8-1.1-3.9c-0.7,0.4-1.2,1.7-0.6,2.7c0.2,0.4,0.4,0.4,0.3,0.9
			C19,68.4,17.8,70.9,17.5,71.5z"/>
		<path id="XMLID_1191_" class="st13" d="M19.7,75.8c-0.3-0.3-0.4-0.6-0.7-0.9c-0.3-0.3-0.6-0.5-0.8-0.8c0.1-0.2,0.4-0.9,0.5-1.1
			c0.2-0.3,0.6-0.1,1.1-0.3c0.8-0.5,1-1.5,0.5-2.2c-1.1-1.5-3.7-0.2-2.4,1.9l-0.6,1.3c-0.8,0-0.2-0.3-2.2-0.1L14.2,71
			c2-2.4-1.7-3.8-2.4-1.8c-0.2,0.7,0,1.5,0.7,1.8c0.2,0.1,0.5,0.2,0.7,0.2c0.3,0.2,0.8,2.1,1,2.6c-0.3,0.3-0.6,0.4-0.9,0.6
			c-0.4,0.3-0.5,0.6-0.8,0.9c-1.8-0.9-0.4-0.7-1.4-1.7C10.5,73.1,9.6,73,9,73.7c-1.2,1.2,0.3,3.5,2.2,2.1l0.9,0.4
			c0,0.4-0.1,0.7-0.2,1.1c0,0.4,0,0.7,0,1.1L9,79.3c-0.6,0.1-0.5-0.5-1.4-0.5c-1.7,0.1-2.1,2.6-0.3,3c0.4,0.1,0.8,0.1,1.3-0.3
			c0.6-0.4,0.5-1,0.7-1.2s2.2-0.7,2.6-0.9c0.2,0.3,0.4,0.6,0.6,0.9c0.3,0.3,0.6,0.6,0.8,0.9c-0.8,1.9-0.7,0.8-1.6,1.5
			C10,84,12,86.5,13.6,85c1.1-1,0.1-2.1,0.1-2.3l0.6-1.2c0.4,0.1,0.7,0.2,1.1,0.2c0.4,0,0.7,0,1.1,0c0.2,0.3,0.3,1,0.5,1.3
			c0.1,0.4,0.4,1,0.4,1.4c0,0.1-1.4,1.3,0.2,2.4c0.4,0.3,0.8,0.3,1.3,0.2c0.9-0.3,1.4-1.5,0.7-2.4c-0.5-0.6-1-0.5-1.2-0.7
			c-0.1-0.1-0.8-2.2-0.9-2.6c0.3-0.2,0.5-0.4,0.8-0.6c0.3-0.3,0.6-0.6,0.8-0.9l1.3,0.6c0.2,0.7,0.2,1.4,1.2,1.7
			c1.6,0.4,2.7-1.7,1.2-2.7c-0.7-0.5-1.2-0.3-2,0.2L19.5,79c0.4-1.8,0.1-1.5,0.2-2.2l2.9-1c2.2,2.1,4-1.7,1.5-2.4
			c-0.5-0.1-1.5,0.2-1.7,1c-0.1,0.3,0,0.4-0.3,0.6C22,75.1,20.1,75.7,19.7,75.8z"/>
		<path id="XMLID_1190_" class="st11" d="M17.7,77.4c0.5,0,0.4,0.2,0.5,0.2c0-0.1-0.2-0.2-0.3-0.3h-0.1L17.7,77.4
			c0.2-0.1,0.2-0.1,0.3-0.1c0.1,0,0.2,0,0.3,0c0-0.1,0-0.1-0.1-0.1c-0.2,0-0.5,0-0.5,0c0.1,0,0.3,0,0.5-0.2c0.2-0.1,0.1-0.3,0-0.1
			C18.1,77,18,77,17.9,77.1c-0.2,0.1-0.2,0-0.3,0c-0.2-0.1-0.3,0.1-0.5-0.1c-0.1-0.1-0.1-0.3-0.4-0.1c-0.2,0.1,0,0.3,0.1,0.4
			c0.2,0.2,0.4,0.3,0.7,0.2C17.7,77.5,17.7,77.5,17.7,77.4z"/>
		<path id="XMLID_1189_" class="st11" d="M17,79.8c0.2,0,0.1-0.4,0.1-0.5c0.1,0,0.1,0.1,0.1,0.2s0.1,0.2,0.1,0.2
			c0.1-0.1-0.1-0.3-0.2-0.4c0.1,0,0,0,0.1,0.1s0.3,0.2,0.4,0.1c0-0.1,0,0-0.1-0.1c-0.2,0-0.2-0.1-0.3-0.2c0-0.1,0-0.1,0-0.2
			s-0.1-0.1-0.1-0.2c0-0.2,0.1-0.2,0.1-0.3c0.1-0.1,0-0.6-0.4-0.2c-0.1,0.2-0.2,0.5-0.1,0.7c0,0,0.1,0.1,0.1,0.2
			c0.1,0.1,0.1,0,0.1,0.1C17.1,79.7,16.9,79.7,17,79.8z"/>
		<path id="XMLID_1188_" class="st11" d="M14.8,76.6c-0.1,0.1-0.1,0-0.2,0.2c-0.1,0.2-0.1,0.5,0,0.7s0.2,0.1,0.3,0s0-0.2,0-0.3
			c0-0.2,0-0.2,0.1-0.4c0.1-0.1,0-0.3,0.3-0.4c0.1-0.1,0.1,0,0.1-0.1c-0.1-0.1-0.3,0.1-0.4,0.2v0.1c0-0.1,0.1-0.1,0.1-0.2
			s0.1-0.2,0.1-0.3c-0.1,0,0,0.1-0.1,0.2C15,76.4,14.9,76.5,14.8,76.6c0.1-0.1,0.2-0.3,0.1-0.4l0,0C14.8,76.2,14.9,76.3,14.8,76.6z"
			/>
		<path id="XMLID_1187_" class="st11" d="M14.7,79.3c-0.1,0-0.2,0-0.3,0s-0.2,0-0.2,0.1l0,0h0.1C14.5,79.4,14.5,79.4,14.7,79.3
			c0.1,0.1-0.1,0.1,0.2,0.2c0.2,0.1,0.4,0.2,0.6,0.2c0.2,0,0.2-0.1,0.2-0.2c0-0.2-0.2-0.1-0.6-0.3c-0.2-0.1-0.1-0.1-0.3-0.1
			c-0.1-0.1-0.1-0.2-0.1-0.2c-0.1,0-0.1,0.1,0,0.2C14.6,79.2,14.7,79.2,14.7,79.3c0-0.1-0.2-0.2-0.2-0.3c0-0.1,0-0.1-0.1-0.1
			C14.3,79.1,14.6,79.3,14.7,79.3z"/>
		<path id="XMLID_1186_" class="st11" d="M15.7,79.1c0.2,0,0.2-0.5,0.2-0.5L16,79v0.1l0,0c0,0,0,0,0-0.1v-0.5l0,0l0,0c0,0,0,0,0,0.1
			s0.1,0.3,0.2,0.3c0-0.1,0-0.1-0.1-0.1c-0.2-0.3-0.1-0.3-0.1-0.5c-0.1-0.4,0-0.6-0.3-0.6c-0.2,0-0.2,0.1-0.1,0.3
			c0,0.1,0,0.3,0.1,0.4c0,0.2,0.1,0,0.1,0.3C15.8,79,15.7,79,15.7,79.1z"/>
	</g>
	<g id="XMLID_1174_">
		<path id="XMLID_1184_" class="st14" d="M71.8,87c-0.9-0.2-1.3-0.8-1.7,0.3c-0.4,0-0.6-0.2-1-0.1c-0.5,0.1-0.3,0.4-0.5,0.8
			c-1.2,0-0.9,0.1-1,0.9c-0.8,0.1-1,0.3-0.6,1.1c-0.1,0.1-0.3,0.3-0.5,0.4c0,0.6,0,0.5,0.4,0.8c-0.1,0.4-0.8,0.8,0.5,1.4
			c-0.4,1.6,0.6,0.8,0.9,1.3c0.1,0.3-0.2,0.7,0.2,0.9c0.3,0.2,0.8,0,1.1,0.3c0.3,0.3,0,0.5,0.4,0.9h1.2c0.8,1.2-0.1,0.9,1.8,0.7
			c1,1.1,0.8,0.9,1.9,0.4c0.3,0.2,0.6,0.5,0.9,0.6c0.7,0.2,0.6-0.3,1-0.4c0.6-0.2,1.3,1.2,1.7-0.3c0.4,0,0.8,0.2,1.1,0.3
			c0.3,0,0.3,0.1,0.5-0.4l0.1-0.2v-0.1v-0.1c0.7,0,0.6,0.1,1.2-0.1l0.1-0.7c0.7-0.2,1-0.2,0.9-1c0.6,0.2,0.9,0.4,1.4,0.8
			c0.3,0.2,0.8,1,1,1.3c0.7,0.9,1.1,1.7,2.2,2.4c0.5,0.3,1.7,0.8,2.3,0.3v-0.3c-1.2-0.1-2,0.5-3.6-1.9c-0.6-0.8-1.1-1.7-1.9-2.4
			c-0.5,0.1-0.6,0.1-0.8,0s-0.1,0-0.2-0.2c0.2-0.3,0-0.2,1.2-0.1c1.5,0.2,2.2-0.7,3.8,0.6c0.6,0.5,1,1,1.7,1.5c0.6,0.4,2,0.5,2-0.4
			c-0.6,0-0.9,0.9-2.2-0.2c-0.6-0.5-1-1-1.6-1.4c-1.9-1.3-3.1,0.5-5-0.7c0-0.3-0.1,0,0.1-0.3c0.1-0.2,0.2-0.2,0.2-0.5
			c0-0.4-0.3-0.5-0.5-0.7c0.2-0.6,0.2-0.3,0.1-1c1.3-0.1,1.8,1.1,3.4,0.7c1.5-0.4,1.8-2.5,0.9-2.4c-0.2,0.5,0.3,0.8-0.3,1.5
			c-1,1.1-2.5,0-3-0.2c-1-0.3-1.1,0.1-1.8,0c0-0.4,0.2-0.8-0.2-1c-0.2-0.1-0.7-0.1-0.9-0.3c-0.2-0.3,0.2-0.6-0.3-0.9
			c-0.2-0.1-0.9-0.1-1.2-0.1c-0.6-1.3,0-0.9-1.8-0.9c-0.7-1.3-0.8-0.8-1.8-0.6c-1.1-0.9-0.7-0.9-1.9-0.3c-0.6-0.2-1-0.9-1.6-0.4
			C72.1,86.7,71.9,87,71.8,87z"/>
		<path id="XMLID_1183_" class="st14" d="M68.3,90.7c-0.2-0.9-0.8-1.3,0.3-1.7c0-0.4-0.2-0.6-0.1-1c0.1-0.5,0.4-0.3,0.8-0.5
			c0-1.2,0-0.9,0.9-1c0.1-0.8,0.3-1,1.1-0.6c0.1-0.1,0.3-0.3,0.4-0.5c0.6,0,0.5,0,0.8,0.4c0.4-0.1,0.8-0.8,1.4,0.5
			c1.6-0.4,0.8,0.6,1.3,0.9c0.3,0.1,0.7-0.2,0.9,0.2c0.2,0.3,0,0.8,0.3,1.1c0.3,0.3,0.5,0,0.9,0.4v1.2c1.2,0.8,0.9-0.1,0.7,1.8
			c1.1,1,0.9,0.8,0.4,1.9c0.2,0.3,0.5,0.6,0.6,0.9c0.2,0.7-0.3,0.6-0.4,1c-0.2,0.6,1.2,1.3-0.3,1.7c0,0.4,0.2,0.8,0.3,1.1
			c0,0.3,0.1,0.3-0.4,0.5h0.1h-0.1h-0.1c0,0.7,0.1,0.6-0.1,1.2l-0.7,0.1c-0.2,0.7-0.2,1-1,0.9c0.2,0.6,0.4,0.9,0.8,1.4
			c0.2,0.3,1,0.8,1.3,1c0.9,0.7,1.7,1.1,2.4,2.2c0.3,0.5,0.8,1.7,0.3,2.3h-0.3c-0.1-1.2,0.5-2-1.9-3.6c-0.8-0.6-1.7-1.1-2.4-1.9
			c-0.3-0.4-0.3-0.5-0.4-0.7s0-0.1-0.2-0.2c-0.3,0.2-0.2,0-0.1,1.2c0.2,1.5-0.7,2.2,0.6,3.8c0.5,0.6,1,1,1.5,1.7
			c0.4,0.6,0.5,2-0.4,2c0-0.6,0.9-0.9-0.2-2.2c-0.5-0.6-1-1-1.4-1.6c-1.3-1.9,0.5-3.1-0.7-5c-0.3,0,0-0.1-0.3,0.1
			c-0.2,0.1-0.2,0.2-0.5,0.2c-0.4,0-0.5-0.3-0.7-0.5c-0.6,0.2-0.3,0.2-1,0.1c-0.1,1.3,1.1,1.8,0.7,3.4c-0.4,1.5-2.5,1.8-2.4,0.9
			c0.5-0.2,0.8,0.3,1.5-0.3c1.1-1,0-2.5-0.2-3c-0.3-1,0.1-1.1,0-1.8c-0.4,0-0.8,0.2-1-0.2c-0.1-0.2-0.1-0.7-0.3-0.9
			c-0.3-0.2-0.6,0.2-0.9-0.3C70,99.1,70,98.4,70,98.1c-1.3-0.6-0.9,0-0.9-1.8c-1.3-0.7-0.8-0.8-0.6-1.8c-0.9-1.1-0.9-0.7-0.3-1.9
			c-0.2-0.6-0.9-1-0.4-1.6C67.9,91,68.2,90.8,68.3,90.7z"/>
		<path id="XMLID_1182_" class="st14" d="M78.9,93.2c0.7-0.5,1.4-0.4,0.9-1.5c0.3-0.3,0.6-0.4,0.8-0.7c0.2-0.4-0.1-0.5-0.3-0.9
			c0.8-0.9,0.6-0.7,0-1.4c0.4-0.7,0.4-1-0.5-1.2c0-0.2,0-0.4,0-0.6c-0.5-0.4-0.4-0.3-0.9-0.2c-0.3-0.3,0-1.1-1.4-0.6
			c-0.9-1.3-1-0.1-1.6-0.2c-0.3-0.2-0.4-0.6-0.8-0.4c-0.4,0.1-0.5,0.6-0.9,0.6s-0.3-0.3-1-0.2l-0.8,0.9c-1.4-0.2-0.6-0.7-1.7,0.9
			c-1.5,0-1.2,0-1.6,1.2c-0.3,0.1-0.7,0.1-1,0.3c-0.6,0.4-0.2,0.7-0.3,1c-0.2,0.5-1.7,0.2-0.9,1.5c-0.3,0.3-0.7,0.5-0.9,0.6
			c-0.2,0.2-0.2,0.2,0,0.6l0.1,0.1v0.1v0.1c-0.5,0.6-0.4,0.4-0.7,1l0.5,0.5c-0.3,0.6-0.6,0.9,0.2,1.3c-0.6,0.3-0.9,0.4-1.6,0.5
			c-0.3,0.1-1.3-0.1-1.6-0.1c-1.1-0.1-2.1-0.3-3.2,0.1c-0.6,0.2-1.7,0.8-1.7,1.6l0.3,0.2c0.8-0.9,0.9-1.8,3.8-1.5c1,0.1,2,0.3,3,0.1
			c0.4-0.1,0.5-0.2,0.7-0.2c0.2-0.1,0-0.1,0.3,0c0.1,0.3,0.1,0.2-0.7,1c-1.1,1-0.9,2.1-2.9,2.5c-0.7,0.1-1.4,0.1-2.2,0.3
			c-0.7,0.2-1.7,1.2-1,1.8c0.4-0.4-0.1-1.3,1.6-1.5c0.8-0.1,1.4-0.1,2.1-0.3c2.2-0.6,1.6-2.7,3.8-3.3c0.3,0.2,0,0,0.2,0.3
			c0.1,0.2,0.1,0.3,0.2,0.4c0.3,0.3,0.6,0.1,0.8,0c0.3,0.6,0,0.4,0.7,0.7c-0.8,1.1-2,0.6-2.8,2.1c-0.7,1.4,0.7,3,1.3,2.3
			c-0.2-0.5-0.8-0.3-1-1.2c-0.2-1.5,1.6-1.9,2.1-2.2c0.9-0.5,0.6-0.9,1.1-1.4c0.3,0.3,0.5,0.6,0.9,0.5c0.2-0.1,0.6-0.5,0.8-0.5
			c0.3,0,0.4,0.5,0.9,0.3c0.2-0.1,0.7-0.6,0.9-0.8c1.3,0.4,0.7,0.5,1.8-0.8c1.4,0.3,1.1-0.1,1.6-1c1.4-0.3,1.2,0.1,1.5-1.2
			c0.5-0.4,1.3-0.2,1.3-1C79,93.7,78.9,93.3,78.9,93.2z"/>
		<path id="XMLID_1181_" class="st15" d="M74.9,92.9c-1,0.2-1.1,1.3-0.7,2.1c0.3,0.6,1,1.5,1.9,1.2c1.2-0.3,1.2-2.1,0-3
			C75.8,93,75.3,92.8,74.9,92.9z"/>
		<path id="XMLID_1180_" class="st16" d="M76.1,89.7c-0.7,0.1-1.2,0.6-1.4,1.2c-0.2,0.8,0.2,1.5,1.1,1.4c0.7-0.1,1.2-0.7,1.4-1.3
			C77.4,90.2,77,89.5,76.1,89.7z"/>
		<path id="XMLID_1179_" class="st17" d="M71.8,94.2c-0.6,0.1-1,0.6-1.1,1.1c-0.2,0.7,0.3,1.2,1,1.1C73.1,96.2,73.3,93.9,71.8,94.2z
			"/>
		<path id="XMLID_1178_" class="st16" d="M70.8,89.7c-0.1,0.1-0.1,0.1-0.2,0.3c-0.3,0.8-0.2,1.9,0.7,2c0.8,0.1,1.4-0.8,1.4-1.6
			c0-0.1,0-0.3-0.1-0.4c0-0.4-0.4-0.9-0.8-0.9c-0.3,0-0.5,0.1-0.7,0.2C71.1,89.3,70.8,89.6,70.8,89.7z"/>
		<path id="XMLID_1177_" class="st18" d="M70.2,92.3c-0.2,0.1-0.4,0.2-0.5,0.3c-0.5,0.6,0,1.4,0.7,1.4c0.6,0,0.4-0.6,0.6-1.1
			C71.2,92.3,70.5,92.2,70.2,92.3z"/>
		<path id="XMLID_1176_" class="st17" d="M73.5,91.1c-0.9,0.3-0.8,1.5,0.1,1.5c0.2,0,0.3-0.1,0.4-0.3c0.1-0.2,0.1-0.4,0.1-0.6
			c0.1-0.2,0.1-0.4,0-0.5C74,91,73.7,91,73.5,91.1z"/>
		<path id="XMLID_1175_" class="st16" d="M73.8,96.5c-0.6,0.4,0.5,1.6,1.1,1c0.2-0.2,0.4-0.7,0.1-1c-0.2-0.1-0.4-0.1-0.6-0.1
			C74.3,96.5,73.9,96.4,73.8,96.5z"/>
	</g>
	<g id="XMLID_1164_">
		<path id="XMLID_1171_" class="st19" d="M72.6,17.7c-0.1-0.4-0.2-0.8-0.3-1.2c-1.9-0.7-3.5,0.2-3.9-0.5c-0.2-1,0.9-1.1,1.8-1.2
			c0.8,0,1.4,0.1,2,0.2c0-0.6,0.1-1.1,0.2-1.7c-0.3-0.4-0.4-0.9-0.3-1.2c-0.2-0.1-0.5-0.2-0.7-0.3c0,0.2-0.1,0.3-0.2,0.5
			c-0.2,0.2-0.6,0.3-0.9,0.1c-0.6-0.4-0.6-1.5-0.2-2.1l0,0C70,9.9,70,9.5,70.2,9.2c0.2-0.4,0.8-0.3,1.1,0c0.1,0.2,0.2,0.3,0.2,0.5
			c0.8-0.1,1.8,0,2.6,0.2C74.3,9.6,74.6,9.3,75,9c0,0,0-0.1,0.1-0.1C74.7,8.4,74.3,8,74,7.4c-0.4-0.9-0.3-3.1,1.3-2.8
			c0.6,1.4-0.8,1.3,0.6,2.9c0.1,0.1,0.2,0.2,0.3,0.3c0.1-0.1,0.3-0.2,0.4-0.2c-0.3-0.7-1.1-1.2-1-2.4c0.6-0.5,1-0.2,1.4,0.4
			c0.3,0.5,0.6,1,1,1.4c1.4-0.1,2.3-0.3,3.8-0.3c0.9-2.1-0.2-3.9,0.7-4.3c1-0.2,1.2,0.9,1.2,1.8c0,1.1-0.2,1.7-0.3,2.5l2.5,0.5
			c0.1-0.4,0.9-2.1,1-2.4c0.3-0.5,1.6-1.2,2.5-0.7c0.4,0.2,0.4,0.8,0,1.1c-0.4,0.4-0.9,0-1.3,0.4l-1,2.3c1.4,1.6,0.9,1.4,1.3,1.9
			c1.3-0.4,1.9-1.4,2.8-1.8c0.9-0.4,3.2-0.3,2.8,1.3c-1.4,0.6-1.3-0.8-3,0.6c-0.7,0.6-1.5,1.1-2.5,1.4c0,1.1-0.2,1.9-0.3,2.7
			c0,0.1,0,0.2,0.1,0.3c0.2-0.1,0.4-0.1,0.5-0.2c1.6-0.5,0.6-1,1.6-1.7c0.4,0.1,0.6,0.4,0.6,0.7c0.8,0.1,1.1,0.7,0.4,1.3
			c-0.4,0.4-0.8,0.6-1.3,0.8c0.6,0.2,1.2,0.4,1.7,0.9c0.6,0.6,0.5,1,0,1.2c0.1,0.1,0.1,0.2,0.1,0.3c0,0.7-1,1.3-1.5,1.3
			c-0.2,0-1.7-0.3-2-0.3l-0.3,0.7l0,0c1,0.3,1.8,0.8,2.5,1.4c1.7,1.4,1.6,0,3,0.6c0.4,1.6-1.9,1.7-2.8,1.3c-0.2-0.1-0.3-0.1-0.4-0.2
			c0,0.2,0,0.3-0.2,0.5c-0.5,0.4-1.2-0.8-2.7-1.3c-0.1,0.2-0.4,0.6-0.9,1.1l1,2.3c0.3,0.4,0.8,0,1.3,0.4c0.3,0.3,0.3,0.9,0,1.1
			c-0.8,0.5-2.1-0.1-2.5-0.7c-0.1-0.2-0.7-1.6-1-2.2c0,0.1-0.1,0.1-0.2,0.2c0.1,0.4,0.3,0.8,0.5,1.2c0.3,0.5,0.3,0.9-0.4,1.1
			c-0.4-0.2-0.6-0.5-0.8-0.8c-0.4,0.4-0.9,0.2-1.6-0.1C83,25.6,83,26,83,26.4c0,0.9-0.2,2-1.2,1.8c-0.6-0.3-0.2-1.4-0.3-2.8
			c-0.4,1-1.1,2-1.9,2.1c-0.6,0.1-1.2-0.4-1.3-1c0-0.3,0.2-0.5,0.4-0.6c0.4-0.1,0.5,0.1,0.8,0.3c0.7-0.3,1.2-1.4,1-2.1
			c0-0.1-0.1-0.2-0.2-0.3c-1.1-0.1-1.9-0.2-3.1-0.3c-0.2,0.2-0.4,0.4-0.6,0.7c-0.3,0.7-0.3,1.7,0.1,2.2c0.4,0,0.7-0.1,1,0.2
			c0.2,0.2,0.3,0.6,0.1,0.9c-0.4,0.5-1.5,0.6-2,0.2c-0.6-0.5-0.8-1.3-0.8-2.2c-0.1-0.1-0.2-0.1-0.3-0.2c-0.1-0.9,0.3-1.4,0.7-1.9
			v-0.1c-0.9-0.5-1.5-0.4-2.4-2c-0.7,0.3-1.2,1.1-2.3,0.9c-0.6-0.6-0.3-1,0.3-1.4l0,0c-0.8-0.1-1.5-0.3-1.9-0.8
			c-0.5-0.6-0.4-1.6,0.2-2.1c0.3-0.3,0.7-0.2,0.9,0.1c0.3,0.3,0.2,0.6,0.2,1.1c0.5,0.3,1.2,0.3,1.9,0.2c0-0.2,0-0.4-0.1-0.5
			c-0.1,0-0.1,0-0.2,0C72.2,19,72.3,18.4,72.6,17.7L72.6,17.7z M88.3,16.3c-0.1,0.1-0.1,0.1-0.1,0.2c0.1,0.1,0.2,0.4,0.5,1.3
			l1.9,0.3c0.3,0,0.3-0.3,0.5-0.5c-0.4-0.4-0.6-0.6-1.4-0.8S88.5,16.4,88.3,16.3z"/>
		<g id="XMLID_1165_">
			<path id="XMLID_1170_" class="st17" d="M82.4,11.6c-0.7,0.1-1.2,0.7-1.2,1.4c0,0.4,1.2,3.2,1.4,3.8c0.3,0.7,0.8,1.2,1.6,1
				c0.7-0.1,1.2-0.7,1.1-1.5c0-0.3-0.5-1.5-0.7-1.9c-0.3-0.6-0.5-1.3-0.8-1.9c-0.2-0.4-0.2-0.6-0.5-0.8
				C83.1,11.7,82.8,11.5,82.4,11.6z"/>
			<path id="XMLID_1169_" class="st20" d="M76.4,15.9c-0.9,0.3-1.1,1.4-0.3,2c0.2,0.1,0.4,0.3,0.6,0.5l1.5,1.1
				c0.3,0.2,0.7,0.5,1.2,0.4c0.5-0.2,0.9-0.7,0.8-1.3c-0.1-0.6-0.6-0.8-1.1-1.1c-0.4-0.3-0.8-0.6-1.2-0.9
				C77.5,16.2,77,15.7,76.4,15.9z"/>
			<path id="XMLID_1168_" class="st21" d="M77.7,13.4c-0.8,0.2-0.7,1.2,0,1.4c0.3,0,2.1,0.2,2.3,0.2c0.7-0.2,0.7-1.2,0-1.4
				C79.7,13.5,77.9,13.3,77.7,13.4z"/>
			<path id="XMLID_1167_" class="st22" d="M81.9,17.8c-0.5,0.1-0.5,0.7-0.7,1.3c-0.1,0.2-0.2,0.6-0.1,0.8c0.1,0.4,0.8,0.7,1.1-0.2
				c0.1-0.3,0.4-1.3,0.3-1.6C82.4,18,82.2,17.8,81.9,17.8z"/>
			<path id="XMLID_1166_" class="st18" d="M80.2,15.8c-0.2,0-0.3,0.2-0.2,0.5c0.1,0.1,0.6,0.6,0.7,0.8c0.5,0.5,0.9,0,0.8-0.3
				c0-0.1-0.3-0.3-0.4-0.4C80.8,16,80.5,15.6,80.2,15.8z"/>
		</g>
	</g>
	<g id="XMLID_1150_">
		<path id="XMLID_1163_" class="st13" d="M104.9,92.7h-0.4c-0.1,0.4-0.2,1.1-0.5,1.3c-0.2-0.3,0.2-0.7,0.2-1c0-0.4,0.1-0.2-0.2-0.4
			c-0.2,0.4-0.3,1.1-0.5,1.4v-0.1c0-0.4,0.3-1,0.3-1.4c-0.3,0-0.3,0.3-0.5,0.5c-0.1,0.3-0.2,0.5-0.5,0.7c-0.1-0.3,0.3-0.7,0.4-1
			c0.2-0.6,0-0.3,0-0.4c-0.4,0.3-0.3,0.9-1,1.2c0.1-0.5,0.7-0.8,0.6-1.4c-0.7-0.2-0.4,0.8-1,0.9c0.1-0.4,0.4-0.6,0.5-0.9
			c0.1-0.4,0.1-0.1,0-0.3c-0.5,0.2-0.4,0.9-1,1c0.1-0.3,0.2-0.4,0.3-0.6c0.2-0.3,0.3-0.3,0.3-0.6c-0.3,0.1-0.4,0.3-0.5,0.5
			c-0.3,0.3-0.3,0.4-0.7,0.5c0.2-0.4,0.9-1,0.9-1.2c-0.2-0.2-0.3,0-0.6,0.3c-0.2,0.2-0.3,0.4-0.6,0.5c0-0.5,0.4-0.5,0.7-0.9
			c0.1-0.2,0.2,0,0-0.4c-0.4-0.1-0.6,0.6-0.9,0.9c0-0.1-0.4,0.2,0.2-0.6c0.1-0.2,0.3-0.3,0.3-0.6c-0.4,0.3-0.7,0.9-1.2,1
			c0.1-0.4,0.5-0.6,0.7-0.9c0.2-0.2,0.2-0.1,0.1-0.4c-0.2,0.1-0.4,0.3-0.6,0.5s-0.3,0.4-0.7,0.5c0.1-0.5,1-0.8,0.8-1.3
			c-0.4,0-0.7,0.8-1.2,0.9c0.1-0.5,0.9-0.9,0.8-1.2h-0.1c-0.3,0,0-0.1-0.2,0.1c-0.1,0-0.2,0.2-0.3,0.3c-0.3,0.3-0.3,0.4-0.7,0.4
			c0.2-0.4,0.6-0.5,0.9-1L98.9,89c-0.5,0.4-0.4,0.7-1.1,1c0.1-0.3,0.1-0.2,0.2-0.4c0.2-0.3,0.5-0.4,0.6-0.8
			c-0.1-0.1-0.2-0.2-0.3-0.3c-0.5,0.2-0.5,1.1-1,1.1c0.1-0.4,0.7-1,0.7-1.4c-0.4,0.1-0.6,0.8-1.1,1c0.1-0.5,0.7-0.7,0.8-1.3
			c-0.6,0.1-0.7,0.7-1.3,0.9c0.2-0.5,0.7-0.6,1-1.2l-0.2-0.2c-0.4,0.3-0.5,0.6-1,0.9c0.1-0.6,0.8-0.7,0.8-1.1
			c-0.4,0-0.2,0.1-0.7,0.3c0.2-0.5,0.2-0.2,0.3-0.6c-0.5,0.1-0.7,0.6-1.3,0.8c0.1-0.5,1.1-0.6,1-1.1c-0.4,0-0.7,0.6-1.4,0.6
			c0.2-0.4,0.8-0.5,1.1-0.9L95.7,86c-0.5,0.3-0.5,0.7-1,0.9c0.1-0.4,0.4-0.5,0.6-0.8s0.1-0.2,0.1-0.3c-0.1-0.1,0-0.2-0.5,0.3
			c-0.3,0.3-0.3,0.4-0.6,0.5c0-0.3,0-0.2,0.2-0.4c0.1-0.1,0.2-0.2,0.3-0.3c0.2-0.2,0.4-0.3,0.4-0.5c-0.2-0.1-0.4,0.1-0.6,0.3
			c-0.2,0.2-0.3,0.3-0.6,0.4c0.2-0.5,0.7-0.5,0.9-1c-0.6,0.1-0.6,0.4-1.3,0.5c0.2-0.3,0.9-0.5,0.9-0.8c-0.4-0.2-0.9,0.4-1.3,0.5
			c0.1-0.4,0.7-0.6,1-0.8c-0.1-0.2-0.2-0.2-0.3-0.4c-0.4,0.2-0.6,0.7-1,0.8c0-0.3,1-0.9,0.6-1.2c-0.5-0.2-0.5,0.7-1.1,0.7
			c0.2-0.5,0.7-0.6,0.8-1.2c-0.5,0.1-0.7,0.7-1.2,0.8c0.2-0.4,0-0.1,0.2-0.3c0.2-0.2,0.8-0.6,0.6-0.8c-0.3-0.2-0.4,0-0.6,0.2
			c-0.3,0.3-0.2,0.4-0.6,0.4c0.1-0.3,0.2-0.3,0.4-0.5c0.2-0.2,0.4-0.3,0.2-0.5c-0.2-0.2-0.3,0.1-0.5,0.3c-0.2,0.2-0.3,0.4-0.6,0.4
			c0.2-0.5,1-0.8,0.6-1.4c-0.4,0.2-0.6,1-1.1,1c0.1-0.5,0.8-0.8,0.8-1.4c-0.5,0.1-0.6,0.8-1.2,1c0.1-0.4,0.5-0.7,0.7-1
			c0.1-0.2,0.1-0.1,0.2-0.4c-0.4,0-0.8,0.7-1.4,0.9c0.1-0.4,0.2-0.4,0.5-0.6c0.3-0.3,0.5-0.3,0.5-0.7c-0.4,0.2-1,1-1.5,0.8
			c0.2-0.2,1-0.5,1.1-0.9c0.2-0.8-0.8,0.4-1.3,0.4c0.2-0.4,0.8-0.6,1.1-1c-0.4-0.2-1,0.6-1.4,0.6c0.2-0.6,0.9-0.5,1.1-1l-1.5,0.7
			c0.2-0.6,1-0.4,1.3-0.9c-0.3-0.2-0.4,0-0.7,0.1c-0.1,0-0.3,0.1-0.4,0.2h-0.4c0.2-0.2,0.3-0.2,0.6-0.3c0.6-0.2,0.3-0.1,0.6-0.4
			L89,78.7c-0.4,0.2-0.7,0.6-1.2,0.7c0.1-0.4,1-0.7,1-1.1c-0.4,0-0.9,0.6-1.4,0.8c0.1-0.6,0.9-0.6,1.1-1.1c-0.3-0.1-0.7,0.3-1,0.4
			h-0.2c-0.2,0-0.1,0-0.2,0c0.3-0.3,0.9-0.4,1.2-0.8c-0.3-0.1,0.1-0.1-0.3,0s-0.7,0.5-1.1,0.3c0.4-0.4,1.4-0.3,1.2-0.8
			c-0.3-0.1-0.8,0.2-1.2,0.3c0.1-0.5,0.8-0.3,1-0.8c-0.3-0.1-0.8,0.2-1.3,0.3c0.3-0.6,0.8-0.2,1.1-0.8c-0.3,0-0.5,0.1-0.8,0.1
			c-0.4,0.1-0.4,0.2-0.7-0.1c0.4-0.1,1-0.2,1.3-0.4l-0.2-0.6c-0.5,0-1.2,0.4-1.6,0.2c0.2-0.3,1.2-0.3,1.5-0.5l-0.1-0.5
			c-0.5,0-1.1,0.4-1.5,0.1c0.2-0.2,0.5-0.2,0.9-0.2c0.6-0.1,0.6,0,0.6-0.6c-0.6-0.2-1,0.2-1.4,0l0.1-0.1c0.4-0.2,0.9-0.1,1.2-0.2
			c0.2-0.1,0.1,0,0.2-0.1C87,72.8,86.3,73,86,72.7c0.3-0.3,0.9,0.3,1.4,0.1c0.1-0.5-0.7-0.7-0.9-1.2c0.6,0.2,0.7,0.6,1.2,0.7
			c0.4-0.6-0.7-0.7-0.9-1.3c0.6,0,1,0.8,1.3,0.8c0-0.4-0.8-0.8-1-1.2c0.6,0.1,0.7,0.7,1.3,0.9c-0.1-0.6-0.8-0.9-0.8-1.4
			c0.5,0.1,0.6,1,1.2,1.1c-0.2-0.6-0.6-0.7-0.7-1.4c0.4,0.2,0.6,1.1,1.2,1.2c0.1-0.2,0-0.3-0.1-0.6c-0.1-0.3-0.2-0.5-0.2-0.9
			c0.2,0.2,0.3,0.3,0.4,0.7c0.1,0.3,0.1,0.5,0.3,0.7c0.2-0.3,0-1,0-1.3c0,0,0,0,0-0.1c0.1-0.3-0.1,0,0.1-0.2
			c0.2,0.2,0.2,0.6,0.2,0.9c0.1,0.6,0,0.6,0.5,0.7c0.3-0.4,0-1.2,0.2-1.6c0.2,0.1,0.2,0,0.2,0.4c0,1-0.5,1.2,0.6,1.3
			c0-0.4-0.2-0.7-0.1-1.1l0.3,1.2l0.4,0.1c0.1-0.3,0-0.4,0-0.8S92,70,92.3,69.9c0.3,0.4,0,1,0.2,1.4c0.3-0.3,0.1-1.1,0.5-1.4
			c0.2,0.3-0.2,1-0.1,1.5c0.9,0.3,0.5-0.9,1-1.2c0.2,0.4-0.5,1.1-0.4,1.5c0.2,0,0.1,0,0.3-0.2c0,0,0.2-0.3,0.2-0.4
			c0.2-0.4,0.1-0.5,0.5-0.7c-0.1,0.3-0.2,0.5-0.3,0.7c-0.1,0.1-0.1,0.2-0.2,0.3c-0.2,0.4-0.1,0.1-0.1,0.3H94c0.4-0.2,0.6-0.8,1-1.1
			c-0.1,0.6-0.6,0.8-0.8,1.3c0.3,0,0.4-0.1,0.6-0.4c0.1-0.2,0.2-0.4,0.5-0.5c-0.1,0.5-0.5,0.6-0.6,1.1c0.2,0.1,0.2,0.1,0.4,0.2
			c0.2-0.3,0.3-0.9,0.5-1.1c0.3,0.4-0.4,0.9-0.3,1.3c0.5,0,0.5-0.7,0.8-1c0.2,0.4-0.3,0.8-0.3,1.3c0.2,0.1,0.1,0.1,0.4,0.2
			c0.1-0.2,0.2-0.4,0.2-0.6c0.1-0.3,0.1-0.5,0.3-0.6c0.2,0.4-0.4,1-0.3,1.4c0.4-0.1,0.4-0.9,0.8-1.2c0.2,0.4-0.4,1-0.5,1.4
			c0.3,0,0.3-0.2,0.6-0.5c0.2-0.4,0.2-0.4,0.5-0.6c0,0.6-0.7,0.8-0.7,1.4c0.3,0,0.4-0.2,0.6-0.4c0.2-0.3,0.2-0.4,0.5-0.5
			c-0.1,0.4-0.5,0.8-0.7,1.2c0.1,0.1,0.1,0.1,0.3,0.2c0.4-0.2,0.4-0.9,0.8-1.2c0.2,0.5-0.4,1-0.4,1.5c0.4-0.1,0.6-1,0.8-1.3
			c0.2,0.3-0.9,2.2-0.3,1.4c0.3-0.3,0.4-0.8,0.8-0.9c-0.1,0.3-0.8,1-0.7,1.3l0,0l0,0c0.1-0.1-0.1,0.1,0.1-0.1
			c0.3-0.3,0.4-0.7,0.8-0.9c-0.1,0.3-0.2,0.5-0.4,0.7L99.1,75c-0.1,0.2-0.1,0.3,0,0.3c0.3,0.2,0.8-0.8,1.1-1.1
			c0.1,0.1,0.1,0,0.1,0.2c0,0.4-0.7,1-0.7,1.2c0,0,0,0,0,0.1c0.4,0.1,0.7-0.7,1-0.9c0.2-0.2,0,0,0.3-0.2c-0.1,0.4-0.4,0.7-0.7,1
			c-0.3,0.3-0.1,0-0.2,0.4c0.4-0.1,0,0.1,0.4-0.2c0.3-0.2,0.6-0.6,1-0.7c-0.1,0.3-0.3,0.4-0.5,0.6c-0.6,0.5-0.5,0.4-0.4,0.5
			c0.1,0,0,0,0.1,0c0,0,0.1,0,0.2-0.1c0.3-0.2,0.6-0.6,1-0.7c-0.2,0.4-1.1,0.8-1,1.1c0.2,0.4,0.8-0.4,1.2-0.5
			c-0.2,0.5-0.6,0.5-0.8,0.9c0.6,0.3,0.5-0.5,1.2-0.6c-0.2,0.4-0.7,0.7-0.8,1c0.6,0.4,0.7-0.5,1.3-0.7c0,0.3-0.2,0.4-0.4,0.7
			c-0.1,0.1-0.3,0.2-0.4,0.4l0.5-0.2c0.3-0.2,0.3-0.4,0.7-0.4c-0.2,0.4-1,0.7-0.8,1.1h0.1l0.7-0.5c0.3-0.2,0.1-0.1,0.4-0.2
			c-0.1,0.2-0.2,0.3-0.4,0.5c-0.1,0.1-0.5,0.4-0.4,0.5c0.3,0.4,0.8-0.5,1.2-0.6c0,0.4-0.6,0.7-0.9,1l0.3,0.3
			c0.2-0.2,0.3-0.3,0.4-0.5c0.2-0.3,0.2-0.4,0.5-0.5c-0.1,0.6-0.7,0.8-0.7,1.3c0.4-0.1,0.7-0.7,0.9-1c0.2,0.2,0.3-0.3,0.1,0.3
			l-0.2,0.3c-0.1,0.2-0.4,0.4-0.4,0.6c0.4,0,0.7-0.7,1.2-0.9c-0.1,0.3-0.3,0.5-0.5,0.6c-0.2,0.2-0.5,0.3-0.4,0.6
			c0.2,0,0.3-0.1,0.5-0.3c0.3-0.2,0.2-0.3,0.6-0.5c-0.2,0.8-1.1,0.6-0.7,1.3c0.5,0,0.5-0.7,0.9-1l0.1-0.1c-0.1,0.7-0.8,1.1-0.6,1.4
			c0.3,0,0.4-0.3,0.6-0.5c0.2-0.3,0.2-0.5,0.6-0.6c-0.2,0.6-0.8,1.1-0.8,1.5c0.3-0.2,0.7-0.8,1.1-1c0,0.3-0.2,0.4-0.4,0.6l-0.2,0.2
			l-0.1,0.1c-0.2,0.2-0.1,0-0.2,0.4c0.6-0.1,0.7-0.8,1.2-0.9c-0.1,0.4-1,1-0.8,1.2c0.2,0.3,0.5-0.1,0.7-0.3c0.1-0.1,0.4-0.6,0.6-0.5
			c0.1,0.4-0.9,0.9-1,1.2c0.4,0.3,0.9-0.7,1.5-0.8c-0.2,0.6-1.1,0.8-1.2,1.3c0.5,0,0.7-0.4,1.1-0.5c0.6-0.2,0.3-0.1,0.4,0.1
			c-0.3,0.1-1.1,0.5-1.2,0.9c0.4,0,1.1-0.6,1.5-0.7c0,0.3-0.2,0.3-0.6,0.5c-0.2,0.1-0.7,0.2-0.6,0.5s0.4,0.1,0.7-0.1
			c0.3-0.2,0.4-0.3,0.8-0.4c-0.1,0.3-0.2,0.4-0.5,0.5c-0.2,0.1-0.4,0.2-0.6,0.4c0.2,0.1-0.3,0.2,0.3,0c0.4-0.2,0.7-0.5,1.1-0.6
			c-0.2,0.6-0.8,0.4-1.2,0.9h0.3c0.4-0.1,0.7-0.5,1.1-0.5c-0.2,0.5-0.9,0.5-1.3,0.9c0.3,0.6,0.9-0.3,1.5-0.4c-0.3,0.6-1.1,0.6-1.2,1
			c0.3,0.5,0.9-0.2,1.5-0.3c-0.2,0.5-1,0.4-1.3,0.9c0.2,0.1,0.5-0.1,0.7-0.2s0.5-0.3,0.7-0.2c-0.2,0.3-1.6,0.6-1.2,0.9l0,0h0.2
			c0.4-0.1,0.7-0.4,1.1-0.5c-0.1,0.3-0.2,0.4-0.6,0.5l-0.8,0.4c0.3,0.3,0.8-0.1,1.2,0c0.4,0,0.1-0.1,0.2,0.1c-0.4,0.2-1,0.1-1.4,0.4
			c0.3,0.2,1.1-0.1,1.5,0c-0.1,0.2,0.1,0.1-0.3,0.2c-0.4,0.2-1.1-0.1-1.1,0.5c0.5,0.2,1.1-0.3,1.5-0.1c-0.2,0.5-1.2,0.1-1.5,0.6
			c0.2,0.4,0.9,0.1,1.2,0.4c-0.3,0.3-1-0.1-1.3,0.2c0,0,0.1,0.1,0.1,0l0.1,0.1h0.1l1,0.2c-0.2,0.3-0.7,0.1-1,0.1s0.1,0-0.2,0
			c-0.3,0.1-0.1,0-0.2,0.1c0.2,0.2,0.3,0.1,0.6,0.2c0.3,0.1,0.5,0.2,0.6,0.4c-0.4,0-0.5-0.1-0.8-0.2c-0.5-0.2-0.5-0.2-0.6,0.1
			c0,0.2,0.8,0.5,1.1,1c-0.6-0.1-0.9-0.7-1.3-0.7c0,0.6,1,0.6,1,1.2c-0.4-0.1-0.8-0.7-1.3-0.8c0.1,0.5,0.7,0.7,0.8,1.3
			c-0.5-0.3-0.7-0.8-1.1-0.9c0,0.5,0.5,0.6,0.7,1.3c-0.5-0.1-0.6-0.8-1-0.9l-0.2,0.2c0.2,0.4,0.5,0.6,0.6,1
			c-0.6-0.1-0.5-0.6-0.9-0.8l-0.2,0.1c0,0.5,0.4,0.8,0.1,1.2c-0.4-0.5,0-1-0.7-1c-0.2,0.3-0.1,0.7-0.2,1.1L106,94
			c-0.2-0.4,0.2-0.8,0-1.3c-0.7,0.1-0.2,0.8-0.6,1.3l-0.1-0.3c0-0.4,0.1-0.6,0-0.9c-0.2,0.1-0.1,0-0.2,0.3c-0.2,0.4-0.1,0.8-0.5,1.1
			C104.6,93.5,104.9,93.2,104.9,92.7z"/>
		<path id="XMLID_1162_" class="st23" d="M103.7,90.7h-0.3c-0.1,0.3-0.2,0.9-0.4,1c-0.1-0.3,0.2-0.6,0.2-0.9s0.1-0.1-0.1-0.3
			c-0.1,0.4-0.2,0.9-0.4,1.1v-0.1c0-0.3,0.2-0.8,0.3-1.1c-0.2,0-0.3,0.2-0.4,0.4c-0.1,0.2-0.2,0.4-0.4,0.5c-0.1-0.2,0.3-0.6,0.3-0.8
			c0.1-0.5,0-0.3,0-0.3c-0.4,0.3-0.3,0.7-0.8,1c0.1-0.4,0.6-0.7,0.5-1.1c-0.5-0.2-0.4,0.6-0.8,0.7c0.1-0.3,0.3-0.5,0.4-0.7
			c0.1-0.3,0.1-0.1,0-0.2c-0.4,0.2-0.3,0.7-0.8,0.8c0.1-0.2,0.2-0.3,0.3-0.5c0.1-0.2,0.2-0.3,0.3-0.5c-0.2,0.1-0.3,0.2-0.4,0.4
			c-0.2,0.3-0.3,0.4-0.6,0.4c0.1-0.3,0.8-0.8,0.7-0.9c-0.2-0.2-0.2,0-0.5,0.3c-0.1,0.1-0.3,0.3-0.5,0.4c0-0.4,0.4-0.4,0.5-0.7
			c0.1-0.2,0.2,0,0-0.3c-0.3-0.1-0.5,0.5-0.7,0.8c0-0.1-0.3,0.2,0.1-0.5c0.1-0.2,0.2-0.3,0.2-0.5c-0.3,0.2-0.6,0.8-1,0.8
			c0.1-0.3,0.4-0.5,0.6-0.8c0.1-0.2,0.2-0.1,0.1-0.3c-0.2,0-0.3,0.2-0.5,0.4c-0.1,0.1-0.3,0.3-0.5,0.4c0.1-0.4,0.8-0.6,0.6-1.1
			c-0.3,0-0.6,0.6-1,0.8c0.1-0.4,0.7-0.7,0.7-1h-0.1c-0.2,0,0-0.1-0.1,0c0,0-0.2,0.2-0.2,0.3c-0.2,0.3-0.3,0.4-0.6,0.4
			c0.2-0.3,0.5-0.4,0.7-0.9l-0.3-0.3c-0.4,0.3-0.3,0.5-0.9,0.8c0.1-0.2,0-0.1,0.2-0.3c0.2-0.2,0.4-0.3,0.5-0.7
			c-0.1-0.1-0.1-0.1-0.2-0.3c-0.4,0.2-0.4,0.9-0.8,0.9c0.1-0.3,0.6-0.8,0.5-1.2c-0.3,0-0.5,0.6-0.9,0.8c0.1-0.4,0.5-0.6,0.7-1.1
			c-0.5,0.1-0.5,0.6-1.1,0.8c0.2-0.4,0.6-0.5,0.8-1l-0.2-0.2C97,86.6,97,86.8,96.6,87c0.1-0.5,0.6-0.6,0.6-0.9
			c-0.3,0-0.2,0.1-0.6,0.3c0.2-0.4,0.2-0.2,0.3-0.5c-0.4,0.1-0.6,0.5-1.1,0.6c0.1-0.4,0.9-0.5,0.8-0.9c-0.3,0-0.6,0.5-1.1,0.5
			c0.2-0.3,0.7-0.4,0.9-0.7l-0.2-0.2c-0.4,0.3-0.4,0.6-0.8,0.7c0.1-0.3,0.3-0.4,0.5-0.7c0.2-0.3,0.1-0.2,0-0.2
			c-0.1-0.1,0-0.2-0.4,0.3c-0.2,0.2-0.3,0.3-0.5,0.4c0-0.2,0-0.1,0.1-0.3c0.1-0.1,0.2-0.2,0.2-0.2c0.2-0.2,0.3-0.3,0.3-0.4
			c-0.2,0-0.3,0.1-0.5,0.2c-0.2,0.2-0.3,0.2-0.5,0.3c0.1-0.4,0.6-0.4,0.8-0.8c-0.5,0.1-0.5,0.4-1.1,0.4c0.1-0.3,0.8-0.4,0.8-0.7
			c-0.3-0.1-0.7,0.4-1.1,0.4c0.1-0.3,0.6-0.5,0.8-0.6c-0.1-0.2-0.1-0.2-0.2-0.3c-0.4,0.2-0.5,0.6-0.8,0.7c0-0.3,0.8-0.7,0.5-1
			c-0.4-0.2-0.4,0.6-0.9,0.6c0.2-0.4,0.5-0.5,0.6-0.9c-0.4,0.1-0.6,0.6-1,0.7c0.1-0.3,0-0.1,0.2-0.3c0.1-0.1,0.6-0.5,0.5-0.7
			c-0.2-0.2-0.3,0-0.5,0.2s-0.1,0.3-0.5,0.3c0.1-0.3,0.1-0.2,0.4-0.4c0.2-0.2,0.3-0.3,0.2-0.4c-0.2-0.2-0.3,0.1-0.4,0.3
			c-0.2,0.2-0.2,0.3-0.5,0.4c0.2-0.4,0.8-0.7,0.5-1.1c-0.3,0.2-0.5,0.8-0.9,0.8c0.1-0.4,0.7-0.6,0.7-1.1c-0.4,0.1-0.5,0.6-1,0.8
			c0.1-0.3,0.4-0.6,0.6-0.8c0.1-0.2,0.1-0.1,0.1-0.3c-0.4,0-0.7,0.6-1.2,0.8c0.1-0.3,0.2-0.3,0.4-0.5c0.3-0.2,0.4-0.2,0.4-0.6
			c-0.3,0.2-0.8,0.8-1.2,0.6c0.2-0.2,0.8-0.4,0.9-0.7c0.1-0.7-0.7,0.3-1.1,0.3c0.1-0.3,0.6-0.5,0.9-0.8c-0.3-0.2-0.8,0.5-1.2,0.5
			c0.2-0.5,0.7-0.4,0.9-0.8L90,80.6c0.2-0.5,0.8-0.4,1-0.8c-0.2-0.2-0.3,0-0.6,0.1c-0.1,0-0.3,0.1-0.3,0.1h-0.3
			c0.2-0.2,0.3-0.2,0.5-0.3c0.5-0.2,0.2,0,0.5-0.3l-0.2-0.2c-0.3,0.1-0.6,0.5-1,0.6c0.1-0.3,0.8-0.6,0.8-0.9c-0.3,0-0.7,0.5-1.1,0.6
			c0.1-0.5,0.7-0.5,0.9-0.9c-0.3-0.1-0.6,0.2-0.8,0.3c0,0-0.1,0-0.2,0c-0.2,0-0.1,0-0.2,0c0.2-0.2,0.8-0.3,1-0.6
			c-0.2-0.1,0.1-0.1-0.3,0c-0.3,0.1-0.6,0.4-0.9,0.2c0.3-0.3,1.1-0.3,0.9-0.7c-0.2-0.1-0.7,0.2-1,0.2c0.1-0.4,0.7-0.2,0.8-0.6
			c-0.2-0.1-0.7,0.2-1.1,0.3c0.2-0.5,0.6-0.2,0.9-0.6c-0.2,0-0.4,0.1-0.6,0.1c-0.3,0.1-0.3,0.2-0.6,0c0.3-0.1,0.8-0.1,1.1-0.3
			L89,76.4c-0.4,0-1,0.3-1.3,0.2c0.2-0.3,1-0.2,1.2-0.4l-0.1-0.4c-0.4,0-0.9,0.3-1.2,0.1c0.2-0.2,0.4-0.1,0.7-0.2
			c0.5-0.1,0.5,0,0.5-0.5c-0.5-0.1-0.9,0.1-1.2,0l0.1-0.1c0.3-0.2,0.8-0.1,1-0.2c0.2,0,0.1,0,0.2-0.1c-0.1-0.4-0.7-0.3-1-0.5
			c0.3-0.2,0.7,0.3,1.2,0.1c0-0.4-0.6-0.6-0.8-0.9c0.5,0.2,0.6,0.5,0.9,0.6c0.4-0.5-0.6-0.6-0.7-1c0.5,0,0.8,0.6,1.1,0.6
			c0-0.3-0.6-0.6-0.8-1c0.5,0,0.6,0.6,1.1,0.7c-0.1-0.5-0.6-0.7-0.7-1.1c0.4,0.1,0.5,0.8,1,0.9c-0.1-0.5-0.5-0.6-0.6-1.1
			c0.4,0.2,0.5,0.9,0.9,0.9c0.1-0.2,0-0.3-0.1-0.5c-0.1-0.3-0.1-0.4-0.2-0.7c0.2,0.2,0.2,0.2,0.3,0.6c0.1,0.2,0.1,0.4,0.2,0.6
			c0.2-0.3,0-0.8,0-1.1c0,0,0,0,0-0.1c0.1-0.2-0.1,0,0.1-0.2c0.1,0.2,0.1,0.5,0.2,0.8c0,0.5,0,0.5,0.4,0.5c0.2-0.4,0-1,0.2-1.3
			c0.2,0.1,0.1,0,0.1,0.4c0,0.8-0.4,1,0.5,1c0-0.3-0.1-0.6-0.1-0.9l0.3,0.9l0.3,0.1c0-0.3,0-0.4,0-0.6c0-0.3-0.1-0.3,0.1-0.4
			c0.2,0.3,0,0.9,0.2,1.2c0.3-0.2,0.1-0.9,0.4-1.1c0.2,0.3-0.1,0.8-0.1,1.3c0.7,0.2,0.4-0.7,0.9-1c0.2,0.4-0.4,0.9-0.3,1.2
			c0.2,0,0.1,0,0.2-0.1c0,0,0.1-0.3,0.2-0.3c0.2-0.4,0.1-0.4,0.4-0.5c-0.1,0.2-0.1,0.4-0.2,0.6c-0.1,0.1-0.1,0.2-0.1,0.3
			c-0.1,0.3-0.1,0.1-0.1,0.3h0.1c0.3-0.2,0.5-0.7,0.8-0.9c-0.1,0.5-0.5,0.6-0.6,1.1c0.3,0,0.3-0.1,0.5-0.3c0.1-0.2,0.2-0.3,0.4-0.4
			c0,0.4-0.4,0.5-0.5,0.9c0.1,0.1,0.2,0.1,0.3,0.2c0.1-0.2,0.2-0.7,0.4-0.9c0.2,0.3-0.3,0.8-0.2,1.1c0.4,0,0.4-0.6,0.6-0.9
			c0.2,0.3-0.3,0.6-0.3,1.1c0.2,0.1,0.1,0.1,0.3,0.1c0.1-0.1,0.1-0.3,0.2-0.5c0.1-0.3,0-0.4,0.3-0.5c0.1,0.3-0.4,0.8-0.3,1.2
			c0.3-0.1,0.3-0.8,0.7-0.9c0.2,0.3-0.4,0.8-0.4,1.1c0.3,0,0.3-0.2,0.5-0.4c0.2-0.3,0.2-0.4,0.4-0.5c0,0.5-0.6,0.7-0.6,1.1
			c0.2,0,0.3-0.1,0.5-0.4s0.2-0.4,0.4-0.4c0,0.3-0.4,0.7-0.6,1c0.1,0.1,0.1,0.1,0.2,0.2c0.4-0.2,0.3-0.8,0.6-1
			c0.2,0.4-0.4,0.8-0.3,1.2c0.4-0.1,0.5-0.8,0.7-1.1c0.1,0.3-0.8,1.8-0.2,1.1c0.2-0.3,0.3-0.7,0.7-0.7c-0.1,0.3-0.6,0.9-0.5,1.1l0,0
			l0,0c0.1,0,0,0.1,0.1-0.1c0.3-0.2,0.3-0.6,0.6-0.7c-0.1,0.3-0.2,0.4-0.3,0.6l-0.2,0.2c-0.1,0.1-0.1,0.2,0,0.3
			c0.3,0.2,0.6-0.6,0.9-0.9c0.1,0.1,0.1,0,0.1,0.2c0,0.3-0.6,0.8-0.6,1l0,0c0.3,0.1,0.5-0.5,0.8-0.7c0.2-0.2,0,0,0.2-0.1
			c-0.1,0.4-0.4,0.6-0.6,0.8c-0.2,0.3-0.1,0-0.2,0.3c0.3-0.1,0,0,0.3-0.1c0.3-0.2,0.5-0.5,0.8-0.6c-0.1,0.2-0.2,0.3-0.4,0.5
			c-0.5,0.4-0.4,0.3-0.3,0.4c0.1,0,0,0,0.1,0c0,0,0.1,0,0.1-0.1c0.3-0.2,0.5-0.5,0.8-0.6c-0.2,0.3-0.9,0.7-0.8,0.9
			c0.2,0.3,0.7-0.3,1-0.4c-0.2,0.4-0.5,0.4-0.6,0.8c0.5,0.2,0.4-0.4,1-0.5c-0.2,0.4-0.6,0.5-0.6,0.8c0.5,0.3,0.6-0.4,1.1-0.6
			c0,0.3-0.1,0.3-0.3,0.5c-0.1,0.1-0.2,0.2-0.3,0.3l0.4-0.1c0.2-0.2,0.3-0.3,0.5-0.3c-0.2,0.3-0.8,0.6-0.7,0.9l0,0l0.6-0.4
			c0.2-0.2,0.1-0.1,0.3-0.1c-0.1,0.2-0.1,0.3-0.3,0.4c-0.1,0.1-0.4,0.3-0.3,0.4c0.3,0.3,0.6-0.4,1-0.5c0,0.4-0.5,0.6-0.7,0.8
			l0.3,0.3c0.1-0.2,0.2-0.2,0.3-0.4c0.1-0.2,0.2-0.3,0.4-0.4c-0.1,0.5-0.6,0.7-0.6,1.1c0.3-0.1,0.6-0.5,0.7-0.8
			c0.1,0.2,0.2-0.2,0.1,0.3l-0.2,0.3c-0.1,0.1-0.3,0.3-0.3,0.5c0.4,0,0.6-0.6,1-0.7c-0.1,0.3-0.3,0.4-0.4,0.5
			c-0.2,0.2-0.4,0.3-0.3,0.5c0.2,0,0.3-0.1,0.4-0.3c0.2-0.2,0.2-0.3,0.5-0.4c-0.2,0.6-0.9,0.5-0.6,1.1c0.4,0,0.4-0.5,0.7-0.8
			l0.1-0.1c-0.1,0.6-0.6,0.9-0.5,1.2c0.3,0,0.3-0.2,0.5-0.4c0.2-0.2,0.2-0.4,0.5-0.5c-0.1,0.5-0.6,0.9-0.7,1.2
			c0.3-0.1,0.6-0.7,0.9-0.8c0,0.3-0.2,0.3-0.4,0.5l-0.2,0.2l-0.1,0.1c-0.2,0.2-0.1,0-0.2,0.3c0.5-0.1,0.6-0.6,1-0.7
			c-0.1,0.3-0.8,0.8-0.7,1c0.2,0.2,0.4-0.1,0.6-0.3c0.1-0.1,0.3-0.5,0.5-0.4c0.1,0.3-0.7,0.8-0.9,1c0.4,0.2,0.7-0.6,1.2-0.7
			c-0.2,0.5-0.9,0.6-0.9,1.1c0.4,0,0.6-0.3,0.9-0.4c0.5-0.2,0.2,0,0.3,0c-0.2,0.1-0.9,0.4-1,0.7c0.3,0,0.9-0.5,1.2-0.6
			c0,0.3-0.2,0.3-0.5,0.4c-0.2,0.1-0.6,0.2-0.5,0.4c0.1,0.2,0.4,0.1,0.5-0.1c0.2-0.1,0.3-0.2,0.6-0.3c-0.1,0.3-0.2,0.3-0.4,0.4
			c-0.2,0.1-0.4,0.1-0.5,0.3c0.1,0.1-0.2,0.2,0.3,0c0.4-0.1,0.5-0.4,0.9-0.5c-0.2,0.5-0.7,0.4-1,0.8h0.3c0.3-0.1,0.5-0.4,0.9-0.4
			c-0.2,0.4-0.7,0.4-1,0.8c0.3,0.5,0.8-0.2,1.2-0.3c-0.2,0.5-0.9,0.5-1,0.8c0.2,0.4,0.7-0.1,1.2-0.3c-0.2,0.4-0.8,0.4-1,0.7
			c0.2,0.1,0.4,0,0.6-0.1s0.4-0.3,0.6-0.2c-0.2,0.2-1.3,0.5-1,0.8l0,0h0.2c0.3-0.1,0.6-0.3,0.9-0.4c-0.1,0.2-0.2,0.3-0.5,0.4
			l-0.6,0.3c0.3,0.2,0.7,0,1,0s0.1-0.1,0.2,0.1c-0.3,0.2-0.9,0.1-1.1,0.3c0.2,0.2,0.9,0,1.2,0c-0.1,0.1,0.1,0.1-0.3,0.2
			s-0.9-0.1-0.9,0.4c0.4,0.2,0.9-0.2,1.2-0.1c-0.2,0.4-1,0.1-1.2,0.5c0.2,0.3,0.7,0.1,1,0.3c-0.2,0.2-0.8-0.1-1.1,0.2c0,0,0,0,0.1,0
			h0.1c0,0,0,0,0.1,0l0.8,0.1c-0.2,0.2-0.6,0-0.8,0.1c-0.2,0,0.1,0-0.1,0s-0.1,0-0.2,0.1c0.2,0.1,0.2,0.1,0.5,0.2
			c0.2,0.1,0.4,0.1,0.5,0.3c-0.3,0-0.4-0.1-0.7-0.2c-0.4-0.1-0.4-0.2-0.5,0.1c0,0.2,0.7,0.4,0.9,0.8c-0.5-0.1-0.7-0.6-1.1-0.6
			c0,0.5,0.8,0.5,0.8,1c-0.4-0.1-0.7-0.6-1.1-0.7c0.1,0.4,0.6,0.6,0.7,1c-0.4-0.2-0.6-0.6-0.9-0.8c0,0.4,0.4,0.5,0.6,1.1
			c-0.4-0.1-0.5-0.7-0.9-0.8l-0.1,0.1c0.1,0.4,0.4,0.5,0.5,0.8c-0.5-0.1-0.4-0.5-0.8-0.7l-0.2,0.1c0,0.4,0.3,0.7,0.1,1
			c-0.3-0.4,0-0.8-0.6-0.8c-0.1,0.2,0,0.6-0.1,0.9l-0.2,0.3c-0.1-0.3,0.1-0.6,0-1.1c-0.5,0.1-0.2,0.6-0.5,1l-0.1-0.3
			c0-0.3,0.1-0.5,0-0.8c-0.2,0.1-0.1,0-0.2,0.2c-0.1,0.3-0.1,0.7-0.4,0.9C103.4,91.4,103.7,91.1,103.7,90.7z"/>
		<g id="XMLID_1158_">
			<g>
				<path id="XMLID_1159_" class="st24" d="M103.7,90.8c-2.5-0.5-4.4-2.5-6.2-4c-2.3-2-6.8-6.5-8-8.9c-0.5-1-1-2.5-0.4-3.6
					s1.7-1.5,3.1-1.2c3.9,0.8,7.8,4.8,10.5,7.5c2.1,2.1,5.5,5.9,3.7,8.8C106,90.4,105.2,91.1,103.7,90.8z"/>
			</g>
			<g>
				<defs>
					<path id="SVGID_1_" d="M103.7,90.8c-2.5-0.5-4.4-2.5-6.2-4c-2.3-2-6.8-6.5-8-8.9c-0.5-1-1-2.5-0.4-3.6s1.7-1.5,3.1-1.2
						c3.9,0.8,7.8,4.8,10.5,7.5c2.1,2.1,5.5,5.9,3.7,8.8C106,90.4,105.2,91.1,103.7,90.8z"/>
				</defs>
				<clipPath id="SVGID_2_">
					<use xlink:href="#SVGID_1_"  style="overflow:visible;"/>
				</clipPath>
				<g id="XMLID_1160_" class="st25">
					<path id="XMLID_1161_" class="st11" d="M102.8,91.1c-2.5-0.5-4.4-2.5-6.2-4c-2.3-2-6.8-6.5-8-8.9c-0.5-1-1-2.5-0.4-3.6
						s1.7-1.5,3.1-1.2c3.9,0.8,7.8,4.8,10.5,7.5c2.1,2.1,5.5,5.9,3.7,8.8C105.1,90.6,104.2,91.3,102.8,91.1z"/>
				</g>
			</g>
		</g>
		<path id="XMLID_1157_" class="st26" d="M97.1,82.1c-0.7,0-0.6-0.2-1-0.6c-0.8-0.8-1.8,0-2.3-0.5c-0.5-0.4-0.1-0.8,0.5-0.8
			c0.8,0,0.9,1,2.1,1c0.5,0,0.9-0.1,1.2,0.2C97.9,81.8,97.6,82.2,97.1,82.1z"/>
		<path id="XMLID_1156_" class="st26" d="M103.4,82.9c-0.7,0-0.7-0.3-1.1-0.7c-0.9-0.9-2,0-2.7-0.6c-0.5-0.5-0.2-1,0.5-0.9
			c0.9,0,1,1.2,2.4,1.1c0.6,0,1-0.1,1.4,0.2C104.4,82.5,104,83,103.4,82.9z"/>
		<path id="XMLID_1155_" class="st26" d="M94.3,77.2c-0.5,0-0.5-0.2-0.8-0.5c-0.6-0.6-1.4,0-1.8-0.4c-0.4-0.3-0.1-0.7,0.4-0.6
			c0.6,0,0.7,0.8,1.6,0.7c0.4,0,0.7-0.1,0.9,0.2C94.9,76.9,94.7,77.2,94.3,77.2z"/>
		<path id="XMLID_1154_" class="st26" d="M102,88.9c0.6,0,0.6-0.2,1-0.6c0.8-0.8,1.8,0,2.3-0.5c0.5-0.4,0.1-0.8-0.5-0.8
			c-0.8,0-0.9,1-2.1,0.9c-0.5,0-0.9-0.1-1.2,0.2C101.2,88.5,101.5,88.9,102,88.9z"/>
		<path id="XMLID_1153_" class="st26" d="M100.6,85.2c0.4,0,0.3-0.1,0.6-0.3c0.5-0.5,1,0,1.3-0.3c0.3-0.2,0.1-0.5-0.3-0.5
			c-0.5,0-0.5,0.6-1.2,0.5c-0.3,0-0.5-0.1-0.7,0.1C100.1,85,100.3,85.2,100.6,85.2z"/>
		<path id="XMLID_1152_" class="st26" d="M97.1,80.1c0.4,0,0.3-0.1,0.6-0.3c0.5-0.5,1,0,1.3-0.3c0.3-0.2,0.1-0.5-0.3-0.5
			c-0.5,0-0.5,0.6-1.2,0.5c-0.3,0-0.5-0.1-0.7,0.1C96.6,80,96.8,80.2,97.1,80.1z"/>
		<path id="XMLID_1151_" class="st26" d="M105.7,86.2c-0.4,0-0.3-0.1-0.6-0.3c-0.5-0.5-1,0-1.3-0.3c-0.3-0.2-0.1-0.5,0.3-0.5
			c0.5,0,0.5,0.6,1.2,0.5c0.3,0,0.5-0.1,0.7,0.1C106.2,86,106,86.2,105.7,86.2z"/>
	</g>
	<g id="XMLID_919_">
		<path id="XMLID_1149_" class="st23" d="M27.7,6.5l-1-1.7c0.3-0.5,1-1.2,0.2-2c-0.5-0.6-1.6-0.5-2,0.1c-0.2,0.4-0.3,0.8-0.1,1.2
			c0.2,0.5,0.4,0.4,0.7,0.7c0.3,0.3,0.7,1.7,0.7,2.2c-0.2,0.2-1.1,0.8-1.4,1l-1.5-1.2c0-2.8-2-1.8-2.2-1.6c-0.4,0.4-0.6,1.1-0.2,1.7
			c0.3,0.5,0.8,0.6,1.6,0.6c0.3,0.4,1.1,1.3,1.3,1.7c-0.2,0.4-0.4,0.7-0.7,1.1c-0.2,0.4-0.4,0.9-0.6,1.3l-1.1-0.2
			c-0.2-0.6-0.3-1-1.1-1.1c-1.6-0.1-1.5,2.4,0.1,2.2c0.8-0.1,1-0.2,1.7,0.4c0,0.6,0,1.2,0,1.8s0.2,1,0.2,1.5c-1.1,0.4-1.5,1-2.2,0.8
			c-0.9-0.3-2,0-1.7,1.2c0.2,0.8,1.4,1.2,2,0.2c0.4-0.6,0.2-0.4,1-0.6c0.4-0.1,0.9-0.2,1.3-0.3c0.3,0.4,0.6,0.9,0.9,1.4
			c0.3,0.4,0.9,1,1.3,1.3c-0.1,0.7-0.6,1.2-0.8,1.9c-1-0.1-1.7,0-1.9,1c-0.1,0.8,0.5,1.6,1.4,1.5c1.2-0.1,1.1-1.4,1.2-1.7
			c0.1-0.3,1-1.2,1.3-1.7c0.1,0,2.2,0.8,2.4,0.8l-0.2,3c-0.4,0.4-1.5,0.9-0.8,2c0.5,0.8,1.7,0.7,2.2,0c0.3-0.4,0.3-0.9,0-1.3
			c-0.3-0.6-0.5-0.2-0.2-1.1c0.3-0.8,0.5-1.8,0.8-2.6l2.4-0.3l0.9,1.7c-0.3,0.5-1,1.1-0.3,2c0.8,1,2.7,0.2,2.2-1.3
			c-0.3-0.7-1.3-0.5-1.5-2.9l1.3-0.9c0.3,0.1,1.4,1.1,1.6,1.2c0.3,0.4,0,0.6,0.5,1c0.8,0.7,1.8-0.4,1.2-1.2
			c-0.3-0.4-0.6-0.2-0.9-0.5c-0.2-0.2-1.1-1.4-1.2-1.7c0.2-0.3,0.6-0.9,0.8-1.2l1.3,0.2c0.3,0.7,0.4,1.2,1.2,1.3
			c1.8,0.2,1.8-2.7,0-2.5c-1.2,0.1,0,0.6-2-0.2l0.4-2.2l2.1-0.2c1.4,1.6,2.4,0.4,2.4-0.3c0.1-1.3-1.5-1.9-2.3-0.8
			c-0.6,0-1.8,0-2.2-0.3l-0.6-2c1.3-1,1.3-0.6,1.8-0.5c1.9,0.3,2.6-2.5,0.2-2.6c-0.7,0-1,0.3-1.2,0.9s0.1,0.4-1.4,0.9
			c-0.3-0.3-0.6-0.7-0.7-1c0.2-0.4,1.1-1.3,1.5-1.8c0.6-0.7,0.3-0.2,1.2-0.5c1.2-0.3,1.4-2.8-0.5-2.7c-1.2,0.1-1.2,1-1.3,2.1L35,7.3
			L33.8,7c0.2-1.5,0.4-0.9,1.1-1.4c0.6-0.4,0.5-1.4,0-1.8c-0.6-0.4-1.5-0.1-1.7,0.5c-0.3,1,0.4,0.9-0.6,2L31,6.2
			c-0.2-0.4-0.2-1.2-0.2-1.6c-0.1-1.3,0.1-0.5,0.5-1.3c0.5-1.1-0.8-2.1-1.7-1.3c-0.3,0.3-0.5,0.9-0.3,1.3c0.4,0.7,0.5,0.1,0.3,1.3
			C29.4,5.8,29.8,6.4,27.7,6.5z"/>
		<path id="XMLID_1148_" class="st13" d="M30.3,21.4c3.9,0,7.1-3.2,7.1-7.1s-3.2-7.1-7.1-7.1s-7.1,3.2-7.1,7.1
			C23.2,18.2,26.4,21.4,30.3,21.4z"/>
		<path id="XMLID_1147_" class="st27" d="M28.9,12.5c-0.7,0.4-0.1,1.3,0.5,0.9C29.9,13.2,29.6,12.2,28.9,12.5z"/>
		<path id="XMLID_1146_" class="st27" d="M32.1,15.4c1.3-0.7,0.2-2.3-0.9-1.7C30.2,14.3,30.9,16,32.1,15.4z"/>
		<path id="XMLID_1145_" class="st27" d="M32.1,15.4c1.3-0.7,0.2-2.3-0.9-1.7C30.2,14.3,30.9,16,32.1,15.4z"/>
		<path id="XMLID_1144_" class="st27" d="M32.1,15.4c1.3-0.7,0.2-2.3-0.9-1.7C30.2,14.3,30.9,16,32.1,15.4z"/>
		<path id="XMLID_1143_" class="st27" d="M32.1,15.4c1.3-0.7,0.2-2.3-0.9-1.7C30.2,14.3,30.9,16,32.1,15.4z"/>
		<path id="XMLID_1142_" class="st27" d="M32.1,15.4c1.3-0.7,0.2-2.3-0.9-1.7C30.2,14.3,30.9,16,32.1,15.4z"/>
		<path id="XMLID_1141_" class="st27" d="M32.1,15.4c1.3-0.7,0.2-2.3-0.9-1.7C30.2,14.3,30.9,16,32.1,15.4z"/>
		<path id="XMLID_1140_" class="st27" d="M32.1,15.4c1.3-0.7,0.2-2.3-0.9-1.7C30.2,14.3,30.9,16,32.1,15.4z"/>
		<path id="XMLID_1139_" class="st27" d="M32.1,15.4c1.3-0.7,0.2-2.3-0.9-1.7C30.2,14.3,30.9,16,32.1,15.4z"/>
		<path id="XMLID_1138_" class="st27" d="M32.1,15.4c1.3-0.7,0.2-2.3-0.9-1.7C30.2,14.3,30.9,16,32.1,15.4z"/>
		<path id="XMLID_1137_" class="st27" d="M32.1,15.4c1.3-0.7,0.2-2.3-0.9-1.7C30.2,14.3,30.9,16,32.1,15.4z"/>
		<path id="XMLID_1136_" class="st27" d="M32.1,15.4c1.3-0.7,0.2-2.3-0.9-1.7C30.2,14.3,30.9,16,32.1,15.4z"/>
		<path id="XMLID_1135_" class="st27" d="M34.7,11.1c-0.7,0.4-0.1,1.3,0.5,0.9C35.8,11.7,35.4,10.7,34.7,11.1z"/>
		<path id="XMLID_1134_" class="st27" d="M32.1,15.4c1.3-0.7,0.2-2.3-0.9-1.7C30.2,14.3,30.9,16,32.1,15.4z"/>
		<path id="XMLID_1133_" class="st27" d="M32.1,15.4c1.3-0.7,0.2-2.3-0.9-1.7C30.2,14.3,30.9,16,32.1,15.4z"/>
		<path id="XMLID_1132_" class="st27" d="M32.1,15.4c1.3-0.7,0.2-2.3-0.9-1.7C30.2,14.3,30.9,16,32.1,15.4z"/>
		<path id="XMLID_1131_" class="st27" d="M32.1,15.4c1.3-0.7,0.2-2.3-0.9-1.7C30.2,14.3,30.9,16,32.1,15.4z"/>
		<path id="XMLID_1130_" class="st27" d="M32.1,15.4c1.3-0.7,0.2-2.3-0.9-1.7C30.2,14.3,30.9,16,32.1,15.4z"/>
		<path id="XMLID_1129_" class="st27" d="M32.1,15.4c1.3-0.7,0.2-2.3-0.9-1.7C30.2,14.3,30.9,16,32.1,15.4z"/>
		<path id="XMLID_1128_" class="st27" d="M32.1,15.4c1.3-0.7,0.2-2.3-0.9-1.7C30.2,14.3,30.9,16,32.1,15.4z"/>
		<path id="XMLID_1127_" class="st27" d="M32.1,15.4c1.3-0.7,0.2-2.3-0.9-1.7C30.2,14.3,30.9,16,32.1,15.4z"/>
		<path id="XMLID_1126_" class="st27" d="M32.1,15.4c1.3-0.7,0.2-2.3-0.9-1.7C30.2,14.3,30.9,16,32.1,15.4z"/>
		<path id="XMLID_1125_" class="st27" d="M32.1,15.4c1.3-0.7,0.2-2.3-0.9-1.7C30.2,14.3,30.9,16,32.1,15.4z"/>
		<path id="XMLID_1124_" class="st27" d="M32.1,15.4c1.3-0.7,0.2-2.3-0.9-1.7C30.2,14.3,30.9,16,32.1,15.4z"/>
		<path id="XMLID_1123_" class="st27" d="M28.9,9.4c-0.7,0.4-0.1,1.3,0.5,0.9C30,10.1,29.6,9.1,28.9,9.4z"/>
		<path id="XMLID_1122_" class="st27" d="M32.1,15.4c1.3-0.7,0.2-2.3-0.9-1.7C30.2,14.3,30.9,16,32.1,15.4z"/>
		<path id="XMLID_1121_" class="st27" d="M32.1,15.4c1.3-0.7,0.2-2.3-0.9-1.7C30.2,14.3,30.9,16,32.1,15.4z"/>
		<path id="XMLID_1120_" class="st27" d="M32.1,15.4c1.3-0.7,0.2-2.3-0.9-1.7C30.2,14.3,30.9,16,32.1,15.4z"/>
		<path id="XMLID_1119_" class="st27" d="M32.1,15.4c1.3-0.7,0.2-2.3-0.9-1.7C30.2,14.3,30.9,16,32.1,15.4z"/>
		<path id="XMLID_1118_" class="st27" d="M32.1,15.4c1.3-0.7,0.2-2.3-0.9-1.7C30.2,14.3,30.9,16,32.1,15.4z"/>
		<path id="XMLID_1117_" class="st27" d="M32.1,15.4c1.3-0.7,0.2-2.3-0.9-1.7C30.2,14.3,30.9,16,32.1,15.4z"/>
		<path id="XMLID_1116_" class="st27" d="M32.1,15.4c1.3-0.7,0.2-2.3-0.9-1.7C30.2,14.3,30.9,16,32.1,15.4z"/>
		<path id="XMLID_1115_" class="st27" d="M32.1,15.4c1.3-0.7,0.2-2.3-0.9-1.7C30.2,14.3,30.9,16,32.1,15.4z"/>
		<path id="XMLID_1114_" class="st27" d="M32.1,15.4c1.3-0.7,0.2-2.3-0.9-1.7C30.2,14.3,30.9,16,32.1,15.4z"/>
		<path id="XMLID_1113_" class="st27" d="M32.1,15.4c1.3-0.7,0.2-2.3-0.9-1.7C30.2,14.3,30.9,16,32.1,15.4z"/>
		<path id="XMLID_1112_" class="st27" d="M32.1,15.4c1.3-0.7,0.2-2.3-0.9-1.7C30.2,14.3,30.9,16,32.1,15.4z"/>
		<path id="XMLID_1111_" class="st27" d="M35.4,13.7c-0.7,0.4-0.1,1.3,0.5,0.9C36.4,14.4,36.1,13.4,35.4,13.7z"/>
		<path id="XMLID_1110_" class="st27" d="M32.1,15.4c1.3-0.7,0.2-2.3-0.9-1.7C30.2,14.3,30.9,16,32.1,15.4z"/>
		<path id="XMLID_1109_" class="st27" d="M32.1,15.4c1.3-0.7,0.2-2.3-0.9-1.7C30.2,14.3,30.9,16,32.1,15.4z"/>
		<path id="XMLID_1108_" class="st27" d="M32.1,15.4c1.3-0.7,0.2-2.3-0.9-1.7C30.2,14.3,30.9,16,32.1,15.4z"/>
		<path id="XMLID_1107_" class="st27" d="M32.1,15.4c1.3-0.7,0.2-2.3-0.9-1.7C30.2,14.3,30.9,16,32.1,15.4z"/>
		<path id="XMLID_1106_" class="st27" d="M32.1,15.4c1.3-0.7,0.2-2.3-0.9-1.7C30.2,14.3,30.9,16,32.1,15.4z"/>
		<path id="XMLID_1105_" class="st27" d="M32.1,15.4c1.3-0.7,0.2-2.3-0.9-1.7C30.2,14.3,30.9,16,32.1,15.4z"/>
		<path id="XMLID_1104_" class="st27" d="M32.1,15.4c1.3-0.7,0.2-2.3-0.9-1.7C30.2,14.3,30.9,16,32.1,15.4z"/>
		<path id="XMLID_1103_" class="st27" d="M32.1,15.4c1.3-0.7,0.2-2.3-0.9-1.7C30.2,14.3,30.9,16,32.1,15.4z"/>
		<path id="XMLID_1102_" class="st27" d="M32.1,15.4c1.3-0.7,0.2-2.3-0.9-1.7C30.2,14.3,30.9,16,32.1,15.4z"/>
		<path id="XMLID_1101_" class="st27" d="M32.1,15.4c1.3-0.7,0.2-2.3-0.9-1.7C30.2,14.3,30.9,16,32.1,15.4z"/>
		<path id="XMLID_1100_" class="st27" d="M32.1,15.4c1.3-0.7,0.2-2.3-0.9-1.7C30.2,14.3,30.9,16,32.1,15.4z"/>
		<path id="XMLID_1099_" class="st27" d="M34,18c-0.7,0.4-0.1,1.3,0.5,0.9C35.1,18.6,34.7,17.6,34,18z"/>
		<path id="XMLID_1098_" class="st27" d="M32.1,15.4c1.3-0.7,0.2-2.3-0.9-1.7C30.2,14.3,30.9,16,32.1,15.4z"/>
		<path id="XMLID_1097_" class="st27" d="M32.1,15.4c1.3-0.7,0.2-2.3-0.9-1.7C30.2,14.3,30.9,16,32.1,15.4z"/>
		<path id="XMLID_1096_" class="st27" d="M32.1,15.4c1.3-0.7,0.2-2.3-0.9-1.7C30.2,14.3,30.9,16,32.1,15.4z"/>
		<path id="XMLID_1095_" class="st27" d="M32.1,15.4c1.3-0.7,0.2-2.3-0.9-1.7C30.2,14.3,30.9,16,32.1,15.4z"/>
		<path id="XMLID_1094_" class="st27" d="M32.1,15.4c1.3-0.7,0.2-2.3-0.9-1.7C30.2,14.3,30.9,16,32.1,15.4z"/>
		<path id="XMLID_1093_" class="st27" d="M32.1,15.4c1.3-0.7,0.2-2.3-0.9-1.7C30.2,14.3,30.9,16,32.1,15.4z"/>
		<path id="XMLID_1092_" class="st27" d="M32.1,15.4c1.3-0.7,0.2-2.3-0.9-1.7C30.2,14.3,30.9,16,32.1,15.4z"/>
		<path id="XMLID_1091_" class="st27" d="M32.1,15.4c1.3-0.7,0.2-2.3-0.9-1.7C30.2,14.3,30.9,16,32.1,15.4z"/>
		<path id="XMLID_1090_" class="st27" d="M32.1,15.4c1.3-0.7,0.2-2.3-0.9-1.7C30.2,14.3,30.9,16,32.1,15.4z"/>
		<path id="XMLID_1089_" class="st27" d="M32.1,15.4c1.3-0.7,0.2-2.3-0.9-1.7C30.2,14.3,30.9,16,32.1,15.4z"/>
		<path id="XMLID_1088_" class="st27" d="M32.1,15.4c1.3-0.7,0.2-2.3-0.9-1.7C30.2,14.3,30.9,16,32.1,15.4z"/>
		<path id="XMLID_1087_" class="st27" d="M31.5,16.3c-0.7,0.4-0.1,1.3,0.5,0.9C32.6,16.9,32.2,15.9,31.5,16.3z"/>
		<path id="XMLID_1086_" class="st27" d="M32.1,15.4c1.3-0.7,0.2-2.3-0.9-1.7C30.2,14.3,30.9,16,32.1,15.4z"/>
		<path id="XMLID_1085_" class="st27" d="M32.1,15.4c1.3-0.7,0.2-2.3-0.9-1.7C30.2,14.3,30.9,16,32.1,15.4z"/>
		<path id="XMLID_1084_" class="st27" d="M32.1,15.4c1.3-0.7,0.2-2.3-0.9-1.7C30.2,14.3,30.9,16,32.1,15.4z"/>
		<path id="XMLID_1083_" class="st27" d="M32.1,15.4c1.3-0.7,0.2-2.3-0.9-1.7C30.2,14.3,30.9,16,32.1,15.4z"/>
		<path id="XMLID_1082_" class="st27" d="M32.1,15.4c1.3-0.7,0.2-2.3-0.9-1.7C30.2,14.3,30.9,16,32.1,15.4z"/>
		<path id="XMLID_1081_" class="st27" d="M32.1,15.4c1.3-0.7,0.2-2.3-0.9-1.7C30.2,14.3,30.9,16,32.1,15.4z"/>
		<path id="XMLID_1080_" class="st27" d="M32.1,15.4c1.3-0.7,0.2-2.3-0.9-1.7C30.2,14.3,30.9,16,32.1,15.4z"/>
		<path id="XMLID_1079_" class="st27" d="M32.1,15.4c1.3-0.7,0.2-2.3-0.9-1.7C30.2,14.3,30.9,16,32.1,15.4z"/>
		<path id="XMLID_1078_" class="st27" d="M32.1,15.4c1.3-0.7,0.2-2.3-0.9-1.7C30.2,14.3,30.9,16,32.1,15.4z"/>
		<path id="XMLID_1077_" class="st27" d="M32.1,15.4c1.3-0.7,0.2-2.3-0.9-1.7C30.2,14.3,30.9,16,32.1,15.4z"/>
		<path id="XMLID_1076_" class="st27" d="M32.1,15.4c1.3-0.7,0.2-2.3-0.9-1.7C30.2,14.3,30.9,16,32.1,15.4z"/>
		<path id="XMLID_1075_" class="st27" d="M29.7,15.8c-0.7,0.4-0.1,1.3,0.5,0.9C30.8,16.5,30.4,15.5,29.7,15.8z"/>
		<path id="XMLID_1074_" class="st27" d="M32.1,15.4c1.3-0.7,0.2-2.3-0.9-1.7C30.2,14.3,30.9,16,32.1,15.4z"/>
		<path id="XMLID_1073_" class="st27" d="M32.1,15.4c1.3-0.7,0.2-2.3-0.9-1.7C30.2,14.3,30.9,16,32.1,15.4z"/>
		<path id="XMLID_1072_" class="st27" d="M32.1,15.4c1.3-0.7,0.2-2.3-0.9-1.7C30.2,14.3,30.9,16,32.1,15.4z"/>
		<path id="XMLID_1071_" class="st27" d="M32.1,15.4c1.3-0.7,0.2-2.3-0.9-1.7C30.2,14.3,30.9,16,32.1,15.4z"/>
		<path id="XMLID_1000_" class="st27" d="M32.1,15.4c1.3-0.7,0.2-2.3-0.9-1.7C30.2,14.3,30.9,16,32.1,15.4z"/>
		<path id="XMLID_999_" class="st27" d="M32.1,15.4c1.3-0.7,0.2-2.3-0.9-1.7C30.2,14.3,30.9,16,32.1,15.4z"/>
		<path id="XMLID_998_" class="st27" d="M32.1,15.4c1.3-0.7,0.2-2.3-0.9-1.7C30.2,14.3,30.9,16,32.1,15.4z"/>
		<path id="XMLID_997_" class="st27" d="M32.1,15.4c1.3-0.7,0.2-2.3-0.9-1.7C30.2,14.3,30.9,16,32.1,15.4z"/>
		<path id="XMLID_996_" class="st27" d="M32.1,15.4c1.3-0.7,0.2-2.3-0.9-1.7C30.2,14.3,30.9,16,32.1,15.4z"/>
		<path id="XMLID_995_" class="st27" d="M32.1,15.4c1.3-0.7,0.2-2.3-0.9-1.7C30.2,14.3,30.9,16,32.1,15.4z"/>
		<path id="XMLID_994_" class="st27" d="M32.1,15.4c1.3-0.7,0.2-2.3-0.9-1.7C30.2,14.3,30.9,16,32.1,15.4z"/>
		<path id="XMLID_993_" class="st27" d="M27.6,14.1c-0.7,0.4-0.1,1.3,0.5,0.9C28.6,14.7,28.3,13.7,27.6,14.1z"/>
		<path id="XMLID_989_" class="st27" d="M32.1,15.4c1.3-0.7,0.2-2.3-0.9-1.7C30.2,14.3,30.9,16,32.1,15.4z"/>
		<path id="XMLID_988_" class="st27" d="M32.1,15.4c1.3-0.7,0.2-2.3-0.9-1.7C30.2,14.3,30.9,16,32.1,15.4z"/>
		<path id="XMLID_985_" class="st27" d="M32.1,15.4c1.3-0.7,0.2-2.3-0.9-1.7C30.2,14.3,30.9,16,32.1,15.4z"/>
		<path id="XMLID_984_" class="st27" d="M32.1,15.4c1.3-0.7,0.2-2.3-0.9-1.7C30.2,14.3,30.9,16,32.1,15.4z"/>
		<path id="XMLID_981_" class="st27" d="M32.1,15.4c1.3-0.7,0.2-2.3-0.9-1.7C30.2,14.3,30.9,16,32.1,15.4z"/>
		<path id="XMLID_979_" class="st27" d="M32.1,15.4c1.3-0.7,0.2-2.3-0.9-1.7C30.2,14.3,30.9,16,32.1,15.4z"/>
		<path id="XMLID_964_" class="st27" d="M32.1,15.4c1.3-0.7,0.2-2.3-0.9-1.7C30.2,14.3,30.9,16,32.1,15.4z"/>
		<path id="XMLID_963_" class="st27" d="M32.1,15.4c1.3-0.7,0.2-2.3-0.9-1.7C30.2,14.3,30.9,16,32.1,15.4z"/>
		<path id="XMLID_962_" class="st27" d="M32.1,15.4c1.3-0.7,0.2-2.3-0.9-1.7C30.2,14.3,30.9,16,32.1,15.4z"/>
		<path id="XMLID_959_" class="st27" d="M32.1,15.4c1.3-0.7,0.2-2.3-0.9-1.7C30.2,14.3,30.9,16,32.1,15.4z"/>
		<path id="XMLID_958_" class="st27" d="M32.1,15.4c1.3-0.7,0.2-2.3-0.9-1.7C30.2,14.3,30.9,16,32.1,15.4z"/>
		<path id="XMLID_957_" class="st27" d="M33,10.3c-0.7,0.4-0.1,1.3,0.5,0.9C34.1,10.9,33.7,9.9,33,10.3z"/>
		<path id="XMLID_956_" class="st27" d="M32.1,15.4c1.3-0.7,0.2-2.3-0.9-1.7C30.2,14.3,30.9,16,32.1,15.4z"/>
		<path id="XMLID_955_" class="st27" d="M32.1,15.4c1.3-0.7,0.2-2.3-0.9-1.7C30.2,14.3,30.9,16,32.1,15.4z"/>
		<path id="XMLID_954_" class="st27" d="M32.1,15.4c1.3-0.7,0.2-2.3-0.9-1.7C30.2,14.3,30.9,16,32.1,15.4z"/>
		<path id="XMLID_953_" class="st27" d="M32.1,15.4c1.3-0.7,0.2-2.3-0.9-1.7C30.2,14.3,30.9,16,32.1,15.4z"/>
		<path id="XMLID_952_" class="st27" d="M32.1,15.4c1.3-0.7,0.2-2.3-0.9-1.7C30.2,14.3,30.9,16,32.1,15.4z"/>
		<path id="XMLID_951_" class="st27" d="M32.1,15.4c1.3-0.7,0.2-2.3-0.9-1.7C30.2,14.3,30.9,16,32.1,15.4z"/>
		<path id="XMLID_950_" class="st27" d="M32.1,15.4c1.3-0.7,0.2-2.3-0.9-1.7C30.2,14.3,30.9,16,32.1,15.4z"/>
		<path id="XMLID_949_" class="st27" d="M32.1,15.4c1.3-0.7,0.2-2.3-0.9-1.7C30.2,14.3,30.9,16,32.1,15.4z"/>
		<path id="XMLID_948_" class="st27" d="M32.1,15.4c1.3-0.7,0.2-2.3-0.9-1.7C30.2,14.3,30.9,16,32.1,15.4z"/>
		<path id="XMLID_947_" class="st27" d="M32.1,15.4c1.3-0.7,0.2-2.3-0.9-1.7C30.2,14.3,30.9,16,32.1,15.4z"/>
		<path id="XMLID_946_" class="st27" d="M32.1,15.4c1.3-0.7,0.2-2.3-0.9-1.7C30.2,14.3,30.9,16,32.1,15.4z"/>
		<path id="XMLID_945_" class="st27" d="M28,10.9c-0.7,0.4-0.1,1.3,0.5,0.9C29.1,11.5,28.7,10.5,28,10.9z"/>
		<path id="XMLID_944_" class="st27" d="M32.1,15.4c1.3-0.7,0.2-2.3-0.9-1.7C30.2,14.3,30.9,16,32.1,15.4z"/>
		<path id="XMLID_943_" class="st27" d="M32.1,15.4c1.3-0.7,0.2-2.3-0.9-1.7C30.2,14.3,30.9,16,32.1,15.4z"/>
		<path id="XMLID_942_" class="st27" d="M32.1,15.4c1.3-0.7,0.2-2.3-0.9-1.7C30.2,14.3,30.9,16,32.1,15.4z"/>
		<path id="XMLID_941_" class="st27" d="M32.1,15.4c1.3-0.7,0.2-2.3-0.9-1.7C30.2,14.3,30.9,16,32.1,15.4z"/>
		<path id="XMLID_940_" class="st27" d="M32.1,15.4c1.3-0.7,0.2-2.3-0.9-1.7C30.2,14.3,30.9,16,32.1,15.4z"/>
		<path id="XMLID_939_" class="st27" d="M32.1,15.4c1.3-0.7,0.2-2.3-0.9-1.7C30.2,14.3,30.9,16,32.1,15.4z"/>
		<path id="XMLID_938_" class="st27" d="M32.1,15.4c1.3-0.7,0.2-2.3-0.9-1.7C30.2,14.3,30.9,16,32.1,15.4z"/>
		<path id="XMLID_937_" class="st27" d="M32.1,15.4c1.3-0.7,0.2-2.3-0.9-1.7C30.2,14.3,30.9,16,32.1,15.4z"/>
		<path id="XMLID_936_" class="st27" d="M32.1,15.4c1.3-0.7,0.2-2.3-0.9-1.7C30.2,14.3,30.9,16,32.1,15.4z"/>
		<path id="XMLID_935_" class="st27" d="M32.1,15.4c1.3-0.7,0.2-2.3-0.9-1.7C30.2,14.3,30.9,16,32.1,15.4z"/>
		<path id="XMLID_934_" class="st27" d="M32.1,15.4c1.3-0.7,0.2-2.3-0.9-1.7C30.2,14.3,30.9,16,32.1,15.4z"/>
		<path id="XMLID_933_" class="st27" d="M31.6,12.4c-0.7,0.4-0.1,1.3,0.5,0.9C32.6,13,32.2,12,31.6,12.4z"/>
		<path id="XMLID_932_" class="st27" d="M27.5,10.4c1.3-0.7,0.2-2.3-0.9-1.7C25.7,9.3,26.3,11,27.5,10.4z"/>
		<path id="XMLID_930_" class="st27" d="M32.1,9.9c1.3-0.7,0.2-2.3-0.9-1.7C30.2,8.8,30.9,10.6,32.1,9.9z"/>
		<path id="XMLID_929_" class="st27" d="M29.8,15.4c1.2-0.6,0.1-2.1-0.8-1.5C28.1,14.4,28.7,16,29.8,15.4z"/>
		<path id="XMLID_928_" class="st27" d="M25.7,15.8c1.3-0.7,0.2-2.3-0.9-1.7C23.8,14.6,24.5,16.4,25.7,15.8z"/>
		<path id="XMLID_927_" class="st27" d="M32.4,19.4c1.3-0.7,0.2-2.3-0.9-1.7C30.5,18.3,31.1,20.1,32.4,19.4z"/>
		<path id="XMLID_926_" class="st27" d="M29.3,19.6c1.3-0.7,0.2-2.3-0.9-1.7C27.4,18.4,28,20.2,29.3,19.6z"/>
		<path id="XMLID_924_" class="st27" d="M34.9,16.7c1.3-0.7,0.2-2.3-0.9-1.7C33.1,15.6,33.7,17.3,34.9,16.7z"/>
		<path id="XMLID_923_" class="st27" d="M27.7,17.4c1.3-0.7,0.2-2.3-0.9-1.7C25.8,16.3,26.5,18.1,27.7,17.4z"/>
		<path id="XMLID_922_" class="st27" d="M27.5,13.8c1.3-0.7,0.2-2.3-0.9-1.7C25.6,12.7,26.3,14.4,27.5,13.8z"/>
		<path id="XMLID_921_" class="st27" d="M34.2,14c1.3-0.7,0.2-2.3-0.9-1.7C32.3,12.8,32.9,14.6,34.2,14z"/>
		<path id="XMLID_920_" class="st27" d="M31.2,12.3c1.3-0.7,0.2-2.3-0.9-1.7C29.3,11.1,30,12.9,31.2,12.3z"/>
	</g>
	<g id="XMLID_915_">
		<path id="XMLID_918_" class="st27" d="M95,38.7l-1.8,0.4l-0.5-0.9c-0.6,0-0.8,0.1-1.1,0.4c-0.1,0.8,0.2,0.7,0.4,1.4l-1.1,1.2
			c-0.6-0.1-2-1.3-2,0.6c0.5,0.3,0.7,0.4,1.3,0.7l-0.6,2h-0.1h-0.6c-0.4,0-0.6,0-0.8,0.1c-0.1,0.4-0.1,0.8,0,1.2
			c0.5,0.2,1.1,0.1,1.8,0.2c0.1,1-0.2,1.8-0.6,2.5c-1,0-1-0.6-2-0.6c-0.4,0.4-0.5,0.5-0.4,1.1c0.5,0.6,0.7,0.4,1.2,0.9
			c-0.3,0.3-1.4,1.2-1.9,1.4c-0.6-0.3-0.7-0.8-1.5-1c-0.5,0.2-0.7,0.4-0.7,0.9c0.3,0.6,0.6,0.5,0.8,1c-0.1,0.4-0.3,0.6-0.5,1
			S84,53.9,84,54.4c-0.9,0-1.6-0.3-1.7,0.7c0,1,0.6,0.7,1.5,0.8l0.5,2c-0.6,0.2-0.9,0.4-1.4,0.7c0,0.8,0,0.7,0.4,1.2
			c0.8,0,1.1-0.4,1.7-0.6c0.4,0.3,0.9,0.8,1.3,1.2c-0.1,0.7-0.5,1-0.5,1.9c1.8,1,1.2-0.2,2-1.3l2.1,0.1l0.3,1.5
			c2,0.4,1.1-0.9,1.2-1.9l1.9-0.8l0.8,1.2c0.6,0,0.8-0.1,1.1-0.4c0.1-1.1-0.6-1-0.7-1.7l1.5-1.1c0.4,0.3,0.9,0.8,1.4,0.9
			c0.4-0.2,0.6-0.4,0.7-0.9c-0.2-0.6-0.7-0.6-1-1.1c0.2-0.4,0.8-1.1,1.1-1.5c0.7,0.1,1,0.6,1.7,0.7c0.5-0.2,0.6-0.5,0.6-1.1
			c-0.4-0.5-1-0.7-1.5-1c0.1-0.4,0.5-1.2,0.7-1.6c1.1,0.1,2.3,1.2,2.2-0.8c-0.5-0.3-1-0.5-1.7-0.6l0.5-2c0.9,0,1.3,0.3,2,0.1
			c0.6-1.7-0.5-1.2-1.7-1.5v-2.3l1.6-0.3c0.2-0.4,0.2-0.9,0-1.3c-0.6-0.3-1.1,0-1.8,0l-0.5-1.8c0.4-0.5,0.9-0.5,1.4-1
			c0-0.6-0.2-0.8-0.6-1.1c-0.7,0-1,0.5-1.6,0.7c-1.9-1.3-0.3-1.3-0.4-2.7c-0.3-0.3-0.6-0.5-1.2-0.3l-0.7,1.3
			c-2.4,0.4-0.6-1.6-1.5-2.2c-0.4-0.3-1.1-0.2-1.2,0.4C95,37.5,95.2,38.1,95,38.7z"/>
		<path id="XMLID_917_" class="st26" d="M94.3,38.7L92.4,39l-0.5-0.9c-0.6,0-0.8,0.1-1.1,0.4c-0.1,0.8,0.2,0.7,0.4,1.4L90.1,41
			c-0.6-0.1-2-1.3-2,0.6c0.5,0.3,0.7,0.4,1.3,0.7l-0.6,2h-0.1h-0.6c-0.4,0-0.6,0-0.8,0.1c-0.1,0.4-0.1,0.8,0,1.2
			c0.5,0.2,1.1,0.1,1.8,0.2c0.1,1-0.2,1.8-0.6,2.5c-1,0-1-0.6-2-0.6c-0.4,0.4-0.5,0.5-0.4,1.1c0.5,0.6,0.7,0.4,1.2,0.9
			c-0.3,0.3-1.4,1.2-1.9,1.4c-0.6-0.3-0.7-0.8-1.5-1c-0.5,0.2-0.7,0.4-0.7,0.9c0.3,0.6,0.6,0.5,0.8,1c-0.1,0.4-0.3,0.6-0.5,1
			s-0.3,0.7-0.3,1.2c-0.9,0-1.6-0.3-1.7,0.7c0,1,0.6,0.7,1.5,0.8l0.5,2c-0.6,0.2-0.9,0.4-1.4,0.7c0,0.8,0,0.7,0.4,1.2
			c0.8,0,1.1-0.4,1.7-0.6c0.4,0.3,0.9,0.8,1.3,1.2c-0.1,0.7-0.5,1-0.5,1.9c1.8,1,1.2-0.2,2-1.3l2.1,0.1l0.3,1.5
			c2,0.4,1.1-0.9,1.2-1.9l1.9-0.8l0.8,1.2c0.6,0,0.8-0.1,1.1-0.4c0.1-1.1-0.6-1-0.7-1.7l1.5-1.1c0.4,0.3,0.9,0.8,1.4,0.9
			c0.4-0.2,0.6-0.4,0.7-0.9c-0.2-0.6-0.7-0.6-1-1.1c0.2-0.4,0.8-1.1,1.1-1.5c0.7,0.1,1,0.6,1.7,0.7c0.5-0.2,0.6-0.5,0.6-1.1
			c-0.4-0.5-1-0.7-1.5-1c0.1-0.4,0.5-1.2,0.7-1.6c1.1,0.1,2.3,1.2,2.2-0.8c-0.5-0.3-1-0.5-1.7-0.6l0.5-2c0.9,0,1.3,0.3,2,0.1
			c0.6-1.7-0.5-1.2-1.7-1.5V45l1.6-0.3c0.2-0.4,0.2-0.9,0-1.3c-0.6-0.3-1.1,0-1.8,0l-0.5-1.8c0.4-0.5,0.9-0.5,1.4-1
			c0-0.6-0.2-0.8-0.6-1.1c-0.7,0-1,0.5-1.6,0.7c-1.9-1.3-0.3-1.3-0.4-2.7c-0.3-0.3-0.6-0.5-1.2-0.3L97,38.7
			c-2.4,0.4-0.6-1.6-1.5-2.2c-0.4-0.3-1.1-0.2-1.2,0.4C94.2,37.4,94.4,38,94.3,38.7z"/>
		<path id="XMLID_916_" class="st11" d="M93.9,44.3L93,44.5L92.7,44c-0.3,0-0.4,0.1-0.6,0.2c0,0.4,0.1,0.3,0.2,0.7l-0.5,0.6
			c-0.3-0.1-1-0.6-1,0.3c0.2,0.2,0.4,0.2,0.7,0.3l-0.3,1l0,0h-0.3c-0.2,0-0.3,0-0.4,0.1c-0.1,0.2-0.1,0.4,0,0.6
			c0.3,0.1,0.6,0,0.9,0.1c0,0.5-0.1,0.9-0.3,1.3c-0.5,0-0.5-0.3-1-0.3c-0.2,0.2-0.2,0.2-0.2,0.5c0.2,0.3,0.4,0.2,0.6,0.4
			c-0.2,0.2-0.7,0.6-0.9,0.7c-0.3-0.1-0.4-0.4-0.7-0.5c-0.2,0.1-0.3,0.2-0.4,0.5c0.1,0.3,0.3,0.2,0.4,0.5c0,0.2-0.2,0.3-0.2,0.5
			c-0.1,0.2-0.1,0.4-0.2,0.6c-0.5,0-0.8-0.2-0.8,0.3s0.3,0.4,0.8,0.4l0.3,1c-0.3,0.1-0.4,0.2-0.7,0.3c0,0.4,0,0.4,0.2,0.6
			c0.4,0,0.5-0.2,0.9-0.3c0.2,0.1,0.5,0.4,0.7,0.6c0,0.4-0.2,0.5-0.3,0.9c0.9,0.5,0.6-0.1,1-0.6h1.1l0.1,0.8c1,0.2,0.5-0.4,0.6-1
			l0.9-0.4l0.4,0.6c0.3,0,0.4-0.1,0.6-0.2c0-0.5-0.3-0.5-0.3-0.9l0.7-0.6c0.2,0.2,0.4,0.4,0.7,0.4c0.2-0.1,0.3-0.2,0.4-0.4
			c-0.1-0.3-0.3-0.3-0.5-0.6c0.1-0.2,0.4-0.5,0.6-0.7c0.4,0,0.5,0.3,0.9,0.4c0.2-0.1,0.3-0.2,0.3-0.5c-0.2-0.2-0.5-0.3-0.7-0.5
			c0-0.2,0.3-0.6,0.4-0.8c0.5,0,1.2,0.6,1.1-0.4c-0.3-0.1-0.5-0.2-0.8-0.3l0.2-1c0.4,0,0.7,0.1,1,0c0.3-0.9-0.3-0.6-0.8-0.8v-1.1
			l0.8-0.1c0.1-0.2,0.1-0.4,0-0.6c-0.3-0.2-0.6,0-0.9,0l-0.2-0.9c0.2-0.2,0.5-0.2,0.7-0.5c0-0.3-0.1-0.4-0.3-0.5
			c-0.3,0-0.5,0.2-0.8,0.3c-0.9-0.7-0.1-0.6-0.2-1.3c-0.2-0.1-0.3-0.2-0.6-0.1l-0.4,0.6c-1.2,0.2-0.3-0.8-0.7-1.1
			c-0.2-0.1-0.6-0.1-0.6,0.2C93.9,43.7,94,44,93.9,44.3z"/>
	</g>
	<g id="XMLID_462_">
		<path id="XMLID_910_" class="st24" d="M40,91.3c-0.6,0-1.1,0.2-1.6,0.3c-0.2-0.7-0.3-1.4-0.1-1.8c1.1-2.5-3.3-1.4-1.1,0.3
			c0.5,0.4,0.7,1,0.8,1.6c-0.3,0.1-0.6,0.1-0.9,0.1c-0.6-0.9-0.6-0.8-0.6-2.1c0-2.5-3-1.1-0.9,0.6c0.5,0.4,0.8,1.1,0.8,1.9l-1,0.7
			c-0.3-0.3-0.4-0.4-0.6-1.3c-0.4-1.7-2.1-1-1.4,0.2c0.4,0.7,1.1,0.4,1.6,1.4L33.9,94c-2.1-0.6-3.3-5.3-5.8-4.2
			c-0.5,1.5,1,2.5,2.1,2.9c1.5,0.7,2,1,3.1,2c0,0.2-0.2,0.5-0.3,0.8c-0.2-0.1-0.4-0.3-0.6-0.4c-0.7-0.6-0.4-0.6-0.8-1.2
			c-0.5-0.7-2.3-0.5-1.5,1.3c0.4,0.4,1.4-0.2,2.8,0.7c-0.1,0.2-0.2,0.4-0.4,0.6c-2.3,0.3-1.5-1.8-3.7-1.3c-0.7,3,3.9-0.3,3.1,3.3
			v0.1c-0.5,0-0.9-0.2-1.2-0.5c-1.8-1.3-2.5,1.6-0.3,1c0.8-0.2,1.1-0.2,1.5-0.1c0,0.3-0.1,0.6-0.2,0.8c-1.1,0.1-1.8,0.1-2.5-0.4
			c-0.9-0.6-1.9-0.4-1.8,0.8c0.2,1.8,1.6,0.2,2.9,0.1c0.4,0,1.2-0.1,1.4,0.1c0,0.1,0.2,0.9,0.4,1.6c-0.5,0.2-1.1,0.3-1.5,0.2
			c-0.7-0.1-0.6-0.7-1.7,0c-0.1,0.4-0.2,0.8,0.2,1.3c1.1,0.9,0.7-0.6,3.1-1.1c0.1,0.4,0.1,0.7,0.1,0.8c-0.7,0.3-0.9,0.6-1.9,0.6
			s-1.7,0.1-1.5,1.3c1.7,1.3,1.5-1.4,3.8-1.2c0.2,0.4,0.3,0.6,0.5,0.8c-1.8,1.2-5.1,1.7-4.7,3.8c2.6,0.9,3.2-2.2,5.1-3.2
			c0.3,0.4,0.8,0.8,1,1.3c-0.8,2.1-4.9,3.2-4.1,5.8c1.7,0.6,2.5-1.2,3.3-2.9l0,0c0.3,1.8,1.9,1.3,1.9,0.2c0-1-0.2-0.6,0.2-1.5
			c0.1-0.2,0.2-0.4,0.3-0.7l0.6,0.3c0,2.2-2.1,1.9-1.3,3.7c0.9,0.4,1.5-0.1,1.5-1c0-1.4-0.1-1,0.5-2.3l1.4,0.2c0,1.4-1.5,1.9-0.4,3
			c1,0.2,1.1-0.6,0.9-1.4c-0.2-0.7-0.2-1.1,0-1.5l0.8,0.1c0.1,0.7,0.1,1.2,0,1.9c-0.2,1.2-0.3,0.4-0.7,1.3c0,1.4,1,1.5,1.9,0.8
			c0.7-1-1-1.3-0.6-4l1.7-0.3c0.6,2-0.6,2.6,0.2,3.3c1,0.4,1.8,0,1.5-1.2c-0.6-0.7-0.4,0-0.9-1c-0.2-0.4-0.3-0.8-0.4-1.2l0.7-0.1
			c0.6,0.6,0.7,1,0.7,2.1c0,0.9,0.4,1.6,1.4,1.2c1-1.6-1.3-1.5-1.3-3.6c0.2-0.2,0.6-0.4,1-0.7c0.6,0.6,0.5,0.5,0.7,1.6
			c0.2,0.8,0.9,1.1,1.5,0.6c0.3-1.6-1.2-1.1-1.8-2.5c0.3-0.2,0.6-0.4,0.7-0.4c0.6,0.2,0.8,0.6,1.1,0.9c0.7,0.8,0.4,0.4,0.6,1.5
			c0.2,1,1.8,1.2,1.9-0.3c0.7,0.6,1.4,0.9,2.2,0.3c0.2-2.4-3.3-2.6-4.7-4c0.3-0.6,0.7-1.2,0.8-1.3c2.7-0.2,4.2,3.8,7,2
			c-0.2-2.5-4.6-1.8-6.6-3c0-0.2,0.1-0.5,0.2-1c1.5-0.1,2,1.7,3.1,0.3c-0.1-1.1-0.7-1-1.7-0.8c-0.6,0.2-0.9,0.1-1.3,0
			c0.1-0.4,0.2-0.8,0.3-0.9c3.2-0.4,3.2,1.7,4.2,0.3c0.3-0.6,0.1-1-0.1-1.4c-1.4-0.4-1.2,0.2-1.8,0.4c-0.6,0.2-1.7,0.2-2.3,0.1
			c0-0.6-0.1-1.1-0.2-1.5c0.3-0.1,0.6-0.1,0.7-0.2c1.2-0.2,2.8,0.9,2.6-0.8c-0.2-1.1-1.2-1-1.8-0.3c-0.4,0.5-0.9,0.7-1.7,0.8
			c-0.1-0.3-0.1-0.6-0.2-0.9c0.9-0.5,0.9-0.6,2.1-0.6c2.4,0,0.9-2.9-0.6-1c-0.5,0.6-1.1,1-1.8,1c-0.1-0.1-0.4-0.6-0.8-1
			c0.7-0.8,3.2-0.3,2.2-2.1c-1.9,0-1.2,1.3-2.4,1.8c-0.3-0.4-0.5-0.8-0.5-0.9c1.3-1.9,2.8-1.4,3.1-2c0.3-1.4-0.6-1.7-1.2-1.5
			c0.5-0.6,0.8-1.5,0.3-2.3c-2.2-0.4-2.5,3.1-3.7,4.6c0,0-0.1,0-0.1-0.1c-0.4-0.2-0.8-0.4-1.2-0.7c0.1-1.9,1.2-1.7,1.4-2.6
			c0.4-1.4-1.6-1.7-1.5,0.2c0,1.4-0.1,1.1-0.5,2.1L42,91.4c0-0.4,0.2-0.8,0.4-1.1c1.5-2-1.5-2.6-0.9-0.3c0.2,0.8,0.2,1,0.1,1.4
			l-1-0.2c-0.1-0.9-0.1-1.9,0.4-2.6c1.8-2.4-3.1-2.3-1.3,0C40.2,89.2,40.2,90.4,40,91.3L40,91.3z M33.8,109.3c0.4-0.8,0.9-1.6,1.5-2
			l0.5,0.3C35.1,108.9,34.2,108.9,33.8,109.3L33.8,109.3z M49,107.7c-0.6-0.2-1.4-0.4-2.2-1.6c0,0,0.1-0.2,0.2-0.4
			C47.7,106.1,48.4,106.9,49,107.7L49,107.7z M48,91.1c-0.2,0.7,0.1,0.6-0.5,1.4c-0.3,0.4-0.6,0.8-1.1,1c-0.2-0.1-0.3-0.2-0.5-0.3
			C46.4,92.4,46.9,92,48,91.1C47.9,91.2,47.9,91.2,48,91.1z"/>
		<path id="XMLID_909_" class="st11" d="M40.2,106.9c3.9,0,7.1-3.2,7.1-7.1s-3.2-7.1-7.1-7.1s-7.1,3.2-7.1,7.1
			C33.2,103.7,36.3,106.9,40.2,106.9z"/>
		<g id="XMLID_463_">
			<path id="XMLID_625_" class="st27" d="M36.2,100.2c-2.2,1-0.6,3.9,1.3,3C39.4,102.3,38.1,99.2,36.2,100.2z"/>
			<path id="XMLID_624_" class="st27" d="M40.7,103c-1.6,0.7-0.6,2.9,1,2.3C43.1,104.8,42.3,102.2,40.7,103z"/>
			<path id="XMLID_465_" class="st27" d="M41.9,94c-1.6,0.7-0.6,2.7,0.9,2.2C44.3,95.7,43.5,93.2,41.9,94z"/>
			<path id="XMLID_464_" class="st27" d="M43,99.9c-1.3,0.9-0.1,2.9,1.3,2C45.5,101.1,44.2,99,43,99.9z"/>
		</g>
	</g>
</g>
</svg>
