<?xml version="1.0" encoding="utf-8"?>
<!-- Generator: Adobe Illustrator 22.1.0, SVG Export Plug-In . SVG Version: 6.00 Build 0)  -->
<svg version="1.1" id="图层_1" xmlns="http://www.w3.org/2000/svg" xmlns:xlink="http://www.w3.org/1999/xlink" x="0px" y="0px"
	 viewBox="0 0 113.4 113.4" style="enable-background:new 0 0 113.4 113.4;" xml:space="preserve">
<style type="text/css">
	.st0{fill:#FFFFFF;}
	.st1{fill:#420A17;}
	.st2{fill:#FBF4E8;}
	.st3{fill:#B3B3B3;}
	.st4{fill:none;stroke:#D18CB3;stroke-width:0.5;stroke-linecap:round;}
	.st5{fill:#150A0A;}
	.st6{fill:#FAFBFC;}
	.st7{fill:url(#XMLID_2_);}
	.st8{fill:url(#XMLID_3_);}
	.st9{fill:#AACBE5;}
	.st10{fill:#F5D2D9;stroke:#420A17;stroke-width:0.5;stroke-miterlimit:10;}
	.st11{fill:#F7E8CD;}
	.st12{fill:none;stroke:#420A17;stroke-miterlimit:10;}
	.st13{fill:#3A1E0D;}
	.st14{fill:#CFE0B3;stroke:#420A17;stroke-width:0.5;stroke-miterlimit:10;}
	.st15{fill:#DE898B;stroke:#420A17;stroke-width:0.5;stroke-miterlimit:10;}
	.st16{fill:#DE898B;}
	.st17{fill:none;stroke:#420A17;stroke-width:0.5;stroke-miterlimit:10;}
	.st18{fill:#FCFEFE;stroke:#420A17;stroke-width:0.5;stroke-miterlimit:10;}
	.st19{fill:#FCFEFF;stroke:#19A99D;stroke-miterlimit:10;}
	.st20{fill:#F0F1F2;}
	.st21{opacity:0.8;fill:#520C10;enable-background:new    ;}
	.st22{fill:none;}
</style>
<g id="XMLID_548_">
	<g id="XMLID_1098_">
		
			<ellipse id="XMLID_1102_" transform="matrix(0.6222 -0.7829 0.7829 0.6222 -17.3926 102.2358)" class="st0" cx="97.2" cy="69.1" rx="4.2" ry="17.2"/>
		<path id="XMLID_1099_" class="st1" d="M83.3,58.1L83.3,58.1c1.1-1.4,4-0.4,6.3,0.7c3.1,1.4,6.8,3.8,10.4,6.7
			c6.7,5.3,12.9,12.3,11,14.6c-1.9,2.3-10-2.1-16.7-7.4c-3.6-2.9-6.8-5.9-8.9-8.6c-0.4-0.5-0.7-1-1.1-1.5
			C83.3,61,82.5,59.2,83.3,58.1z M99.5,66.3c-3.6-2.8-7.2-5.2-10.2-6.6c-3.2-1.5-4.8-1.5-5.2-1l0,0c-0.4,0.5-0.1,2.1,2.1,4.9
			c2,2.6,5.1,5.6,8.7,8.5c8.1,6.5,14.5,8.8,15.4,7.5c0.4-0.5,0-1.7-1.1-3.4C107.6,73.7,104.3,70.1,99.5,66.3z"/>
	</g>
	<path id="XMLID_1097_" class="st0" d="M54.7,103.9h-6.4c-19.2,0-34.9-15.7-34.9-34.9V46.4c0-19.2,15.7-34.9,34.9-34.9h6.4
		c19.2,0,34.9,15.7,34.9,34.9V69C89.6,88.2,73.9,103.9,54.7,103.9z"/>
	<path id="XMLID_1094_" class="st2" d="M51,53.9c-21.8,0-34.9,17-34.9,0v-6.6c0-17,13.9-30.9,30.9-30.9h8.1
		c17,0,30.9,13.9,30.9,30.9v6.6C85.9,70.9,72.8,53.9,51,53.9z"/>
	<path id="XMLID_1093_" class="st3" d="M13.4,58v11c0,19.2,15.7,34.9,34.9,34.9h6.4c19.2,0,34.9-15.7,34.9-34.9V58
		c0,30.7-23.1,40.7-38.1,40.7C36.4,98.8,13.4,88.1,13.4,58z"/>
	<g id="XMLID_955_">
		<g id="XMLID_1090_">
			<line id="XMLID_1092_" class="st4" x1="33.4" y1="51.3" x2="28.6" y2="55.3"/>
			<line id="XMLID_1091_" class="st4" x1="37.5" y1="51.6" x2="32.8" y2="55.7"/>
		</g>
		<g id="XMLID_1087_">
			<line id="XMLID_1089_" class="st4" x1="69.4" y1="51.3" x2="64.6" y2="55.3"/>
			<line id="XMLID_1088_" class="st4" x1="73.5" y1="51.6" x2="68.8" y2="55.7"/>
		</g>
		<g id="XMLID_998_">
			<path id="XMLID_1084_" class="st5" d="M57.4,28.5c0,0,2.8-4.7,9.2-2.2C66.6,26.3,61.4,25.8,57.4,28.5z"/>
			
				<ellipse id="XMLID_1083_" transform="matrix(9.208596e-02 -0.9958 0.9958 9.208596e-02 21.1126 102.7502)" class="st6" cx="66.9" cy="39.8" rx="9.7" ry="9.6"/>
			
				<linearGradient id="XMLID_2_" gradientUnits="userSpaceOnUse" x1="126.6888" y1="37.5922" x2="125.3283" y2="50.5621" gradientTransform="matrix(0.9958 9.210000e-02 9.210000e-02 -0.9958 -61.8903 74.612)">
				<stop  offset="0" style="stop-color:#7E4B22"/>
				<stop  offset="1" style="stop-color:#150A0A"/>
			</linearGradient>
			<path id="XMLID_1082_" class="st7" d="M68.5,29c-4.6-0.4-8.8,2.5-10.3,6.8c0,0,7.4,0.4,10,3.1c0,0-9.1,0.5-10.5,2.2
				c0.8,4.4,4.3,8,8.9,8.4c5.5,0.5,10.4-3.7,10.9-9.4C78,34.5,74,29.5,68.5,29z"/>
			<path id="XMLID_1079_" class="st5" d="M68.2,35.3c-1.4-0.1-2.7,0.6-3.5,1.7c1.3,0.5,2.5,1.1,3.2,1.9c0,0-1.8,0.1-4,0.4
				c0,2.1,1.5,3.8,3.5,4c2.1,0.2,4-1.5,4.2-3.7C71.9,37.4,70.3,35.5,68.2,35.3z"/>
			<circle id="XMLID_1078_" class="st6" cx="73.2" cy="35" r="2.8"/>
			<circle id="XMLID_1077_" class="st6" cx="74.1" cy="39.2" r="1.1"/>
			<circle id="XMLID_1076_" class="st6" cx="65" cy="46.9" r="0.5"/>
			<path id="XMLID_1075_" class="st6" d="M67.2,47.1c0,0,3.5,1.2,6.7-3.4C73.9,43.6,72.4,50,67.2,47.1z"/>
			<path id="XMLID_1072_" class="st5" d="M76.7,32.2c1,0,1.8-1,1.8-1c-1,0.3-2.1,0.1-2.8-0.1c-0.5-0.5-1.2-0.9-2-1.3
				c1.6-0.6,2-2.8,2-2.8c-1.9,2.1-4,1.9-4.8,1.7c-0.1,0-0.2-0.1-0.3-0.1l0,0l0,0c-0.2-0.1-0.4-0.1-0.6-0.2c-11.3-2.5-14.1,7-14.1,7
				c0.9-0.9,2.3-1.5,2.3-1.5c-1.3,2.2-0.9,3-0.9,3c0.3-2.5,6.7-9.4,14.8-5.9c8.2,3.6,3.6,13.4,3.6,13.4c4.5-3.7,4.2-7.1,4.2-7.1
				c1.2,0.3,1.7-0.6,1.7-0.6C78.4,36.4,78.4,34.4,76.7,32.2z"/>
			<path id="XMLID_999_" class="st5" d="M58.7,47.2c0,0,7.7,6.2,15.1,0.7C73.8,47.9,68.4,51.5,58.7,47.2z"/>
		</g>
		<path id="XMLID_995_" class="st5" d="M45.6,28.5c0,0-2.8-4.7-9.2-2.2C36.4,26.3,41.6,25.8,45.6,28.5z"/>
		
			<ellipse id="XMLID_994_" transform="matrix(9.208835e-02 -0.9958 0.9958 9.208835e-02 -7.7692 71.0908)" class="st6" cx="35.1" cy="39.8" rx="9.7" ry="9.6"/>
		
			<linearGradient id="XMLID_3_" gradientUnits="userSpaceOnUse" x1="1541.9794" y1="168.4901" x2="1540.6188" y2="181.46" gradientTransform="matrix(0.9958 9.210000e-02 9.210000e-02 -0.9958 -1515.1924 74.612)">
			<stop  offset="0" style="stop-color:#7E4B22"/>
			<stop  offset="1" style="stop-color:#150A0A"/>
		</linearGradient>
		<path id="XMLID_993_" class="st8" d="M36.6,29c-4.6-0.4-8.8,2.5-10.3,6.8c0,0,7.4,0.4,10,3.1c0,0-9.1,0.5-10.5,2.2
			c0.8,4.4,4.3,8,8.9,8.4c5.5,0.5,10.4-3.7,10.9-9.4C46.1,34.5,42.1,29.5,36.6,29z"/>
		<path id="XMLID_985_" class="st5" d="M36.3,35.3c-1.4-0.1-2.7,0.6-3.5,1.7c1.3,0.5,2.5,1.1,3.2,1.9c0,0-1.8,0.1-4,0.4
			c0,2.1,1.5,3.8,3.5,4c2.1,0.2,4-1.5,4.2-3.7C40,37.4,38.4,35.5,36.3,35.3z"/>
		<circle id="XMLID_984_" class="st6" cx="41.3" cy="35" r="2.8"/>
		<circle id="XMLID_981_" class="st6" cx="42.3" cy="39.2" r="1.1"/>
		<circle id="XMLID_979_" class="st6" cx="33.1" cy="46.9" r="0.5"/>
		<path id="XMLID_964_" class="st6" d="M35.4,47.1c0,0,3.5,1.2,6.7-3.4C42,43.6,40.6,50,35.4,47.1z"/>
		<path id="XMLID_959_" class="st5" d="M26.3,32.2c-1,0-1.8-1-1.8-1c1,0.3,2.1,0.1,2.8-0.1c0.5-0.5,1.2-0.9,2-1.3
			c-1.6-0.6-2-2.8-2-2.8c1.9,2.1,4,1.9,4.8,1.7c0.1,0,0.2-0.1,0.3-0.1l0,0l0,0c0.2-0.1,0.4-0.1,0.6-0.2c11.3-2.5,14.1,7,14.1,7
			c-0.9-0.9-2.3-1.5-2.3-1.5c1.3,2.2,0.9,3,0.9,3c-0.3-2.5-6.7-9.4-14.8-5.9c-8.2,3.6-3.6,13.4-3.6,13.4c-4.5-3.7-4.2-7.1-4.2-7.1
			c-1.2,0.3-1.7-0.6-1.7-0.6C24.6,36.4,24.6,34.4,26.3,32.2z"/>
		<path id="XMLID_956_" class="st5" d="M44.3,47.2c0,0-7.7,6.2-15.1,0.7C29.2,47.9,34.6,51.5,44.3,47.2z"/>
	</g>
	<path id="XMLID_952_" class="st9" d="M54.7,99.7h-6.4c-19.2,0-35.7-15.4-35.1-37.4c0,0,22.9,11,37.9,11S90,62.1,90,62.1
		C91.4,83.4,73.9,99.7,54.7,99.7z"/>
	<g id="XMLID_950_">
		<path id="XMLID_951_" class="st10" d="M41.7,75.6c-8-1.2-27.5-12.5-28.4-13l-0.1-4.2c0.2,0.1,21.7,12.4,29,13.5L41.7,75.6z"/>
	</g>
	<g id="XMLID_948_">
		<path id="XMLID_949_" class="st10" d="M57.4,76l-0.5-3.7c9.3-1.2,32.5-13.8,32.8-13.9v3.8C88.7,62.7,67.3,74.7,57.4,76z"/>
	</g>
	<path id="XMLID_945_" class="st11" d="M54.7,104.3h-6.4c-19.2,0-35.8-15.5-35.2-37.5c0,0,23.1,5.3,38,5.3s38.4-5.4,38.4-5.4
		C91,88.1,73.9,104.3,54.7,104.3z"/>
	<g id="XMLID_943_">
		<path id="XMLID_944_" class="st10" d="M50.7,83.8C40,83.8,29,81.5,14,76.4l-0.5-3.8c14.8,5,27.3,7.5,37.6,7.5
			c14.6-0.1,30.5-4.3,38.5-8.5l-0.4,3.8c-7.8,4-21.8,8.4-38.1,8.4C50.9,83.8,50.8,83.8,50.7,83.8z"/>
	</g>
	<path id="XMLID_942_" class="st12" d="M54.7,103.9h-6.4c-19.2,0-34.9-15.7-34.9-34.9V46.4c0-19.2,15.7-34.9,34.9-34.9h6.4
		c19.2,0,34.9,15.7,34.9,34.9V69C89.6,88.2,73.9,103.9,54.7,103.9z"/>
	<path id="XMLID_941_" class="st10" d="M61.7,81c0,0,1.6,15.3,2.7,17.3c1.1,2,6.5,9.8,6.5,9.8s4.3,0.5,4.9,1.2c0.5,0.7,1.2-2,1.2-2
		s-9-9.7-9.5-10.8C67,95.4,62.8,81,62.8,81H61.7z"/>
	
		<ellipse id="XMLID_940_" transform="matrix(0.9852 -0.1712 0.1712 0.9852 -12.9436 11.8969)" class="st10" cx="62.5" cy="81" rx="2.1" ry="3.8"/>
	<path id="XMLID_939_" class="st10" d="M39,81c0,0-0.9,14.1-1.3,15.4c-0.4,1.2-4.2,12-2.5,14.9c1,1.4,1.7,1.7,1.7,1.7l3.4-4.2
		c0,0-0.4-7.5,0-9.6s0-18.2,0-18.2H39z"/>
	
		<ellipse id="XMLID_938_" transform="matrix(0.1712 -0.9852 0.9852 0.1712 -46.3631 106.7245)" class="st10" cx="40.3" cy="80.9" rx="3.8" ry="2.1"/>
	<path id="XMLID_935_" class="st13" d="M44.1,10.4c0,0-3.7-3.3-6.4-2.7c4.4-1.4,7.4-1.2,10.9,1.3c1.5-3.3,5.1-8.2,7.5-8.6
		c-1.2,3.1-2.3,6.8-1.9,8.2c2.6-2,7.4-4.6,11.4-0.4C62.1,8.6,59,9,58.7,11.1c-0.4,2.1-11.8,2.4-11.8,2.4"/>
	<path id="XMLID_934_" class="st14" d="M2,63.7c0,0,0.5-11.6,4.6-15.9S14.5,37.7,17,26c3.4-8.8,21.9-15.7,34.5-15.7
		c26,0,37.9,20.3,38,20.9s3.6,14.6,7.8,18c4.3,3.4,9.9,9.4,10,12s-3.9,7.5-3.9,7.5S93.9,54,92.7,52.3c-1.2-1.6-4.6-10.9-4.6-17.2
		C86,30.2,64.3,15.7,51,17.1c-13.2,1.5-30.9,8.3-32,13.5s-4.1,15.7-4.9,16.7S8.4,63.2,8.3,66.2C5.2,65.6,2,63.7,2,63.7z"/>
	<g id="XMLID_912_">
		<g id="XMLID_1024_">
			<path id="XMLID_1032_" class="st15" d="M89.2,28.3c0,0,0.3-4.8,3.8-4.3s4.1,7,0,8.2C88.9,33.5,89.2,28.3,89.2,28.3z"/>
			<path id="XMLID_1031_" class="st15" d="M89.8,32.4c0,0,6.5-1.4,7.7,2.3c1.2,3.6-1.6,7.5-5.1,5C89,37.2,89.7,32.6,89.8,32.4z"/>
			<path id="XMLID_1030_" class="st15" d="M88.6,33.6c0,0,3.7,2.3,3.9,4.5c0.2,2.3-0.8,6.7-5.1,5.4c-4.3-1.3-1.5-9.5-1.5-9.5
				S87.2,32.6,88.6,33.6z"/>
			<path id="XMLID_1029_" class="st15" d="M87.4,29.8c0,0-6.1-4.5-3.9-9.9s5.5-3.3,6.3-2.6C90.5,18,95.7,25.8,87.4,29.8z"/>
			<g id="XMLID_1026_">
				<path id="XMLID_1028_" class="st16" d="M88.1,31.2c0,0-2.2-6.6-5.8-5.8c-3.6,0.9-4.5,11.7,0.8,12.6
					C87.3,38.8,88.1,31.2,88.1,31.2z"/>
				<path id="XMLID_1027_" class="st17" d="M88.1,31.2c0,0-2.2-6.6-5.8-5.8c-3.6,0.9-4.5,11.7,0.8,12.6
					C87.3,38.8,88.1,31.2,88.1,31.2z"/>
			</g>
			<path id="XMLID_1025_" class="st18" d="M87,29.2c0.3-0.9,2-1.7,2.9-0.3s1.2,5.4-0.9,5.7C87,35,86.5,30.8,87,29.2z"/>
		</g>
	</g>
	<g id="XMLID_547_">
		<g id="XMLID_1015_">
			<path id="XMLID_1023_" class="st15" d="M11.6,30.7c0,0-0.3-4.8-3.8-4.3s-4.1,7,0,8.2S11.6,30.7,11.6,30.7z"/>
			<path id="XMLID_1022_" class="st15" d="M11,34.8c0,0-6.5-1.4-7.7,2.3c-1.2,3.6,1.6,7.5,5.1,5C11.8,39.6,11.1,35,11,34.8z"/>
			<path id="XMLID_1021_" class="st15" d="M12.2,36c0,0-3.7,2.3-3.9,4.5s0.8,6.7,5.1,5.4s1.5-9.5,1.5-9.5S13.5,35,12.2,36z"/>
			<path id="XMLID_1020_" class="st15" d="M13.4,32.2c0,0,6.1-4.5,3.9-9.9S11.8,19,11,19.7C10.3,20.4,5,28.2,13.4,32.2z"/>
			<g id="XMLID_1017_">
				<path id="XMLID_1019_" class="st16" d="M12.7,33.6c0,0,2.2-6.6,5.8-5.8c3.6,0.9,4.5,11.7-0.8,12.6
					C13.4,41.1,12.7,33.6,12.7,33.6z"/>
				<path id="XMLID_1018_" class="st17" d="M12.7,33.6c0,0,2.2-6.6,5.8-5.8c3.6,0.9,4.5,11.7-0.8,12.6
					C13.4,41.1,12.7,33.6,12.7,33.6z"/>
			</g>
			<path id="XMLID_1016_" class="st18" d="M13.8,31.6c-0.3-0.9-2-1.7-2.9-0.3c-0.9,1.5-1.2,5.4,0.9,5.7
				C13.7,37.4,14.3,33.2,13.8,31.6z"/>
		</g>
	</g>
	<g id="XMLID_541_">
		
			<ellipse id="XMLID_546_" transform="matrix(0.8787 -0.4773 0.4773 0.8787 -29.5998 55.9792)" class="st0" cx="95.4" cy="86.2" rx="17.2" ry="4.2"/>
		<path id="XMLID_542_" class="st1" d="M79.8,94.7L79.8,94.7c-0.8-1.5,1.2-3.9,3.1-5.6c2.5-2.3,6.1-4.7,10.2-7
			c7.5-4.1,16.3-7,17.8-4.4c1.4,2.6-5.8,8.4-13.4,12.5c-4.1,2.2-8.1,3.9-11.4,4.8c-0.6,0.2-1.2,0.3-1.8,0.4
			C82.4,95.9,80.4,95.9,79.8,94.7z M93.6,83c-4,2.2-7.6,4.6-10,6.8c-2.6,2.4-3.3,3.9-2.9,4.4l0,0c0.3,0.6,1.9,0.9,5.3-0.1
			c3.2-0.9,7.2-2.5,11.2-4.7c9.1-5,13.7-9.9,13-11.3c-0.3-0.6-1.6-0.7-3.6-0.3C103.5,78.5,99,80.1,93.6,83z"/>
	</g>
	<g id="XMLID_514_">
		<path id="XMLID_540_" class="st19" d="M87.3,94.2C82.9,104.6,74.1,107.9,64,107c-10.4-0.9-22.2-6.1-32.3-12.3
			c-6.3-3.9-11.8-8.1-15.9-11.9c-1.9-1.7-3.4-3.5-4.5-5.3C6.7,70.8,6.7,64.2,8,59l0,0c0.2-0.6,0.3-1.3,0.5-1.8
			c1.6-5.1,4.3-8.5,4.3-8.5c1.6-2.5,8.2-6.7,15.3-6.6c4.6,0.1,9.4,2,13.1,7.5c3.3,4.8,7.5,8.9,12,12.4c4.4,3.4,9.2,6.4,13.7,9.1l0,0
			l0,0c7.3,4.4,14.1,8.1,17.9,12.2C87.9,86.5,89.1,90,87.3,94.2z"/>
		<path id="XMLID_539_" class="st20" d="M67,71L67,71c-0.2,0.3-11,16.6-41.4,10.9c-6.4-1.2-11-2.7-14.4-4.4C6.7,70.8,6.7,64.2,8,59
			c0,0.3,3,16.9,22.8,20.3C50.7,82.8,66.7,71.2,67,71L67,71z"/>
		<path id="XMLID_538_" class="st20" d="M55,77.7c0,0,0.3-10.9-1.4-15.3c0-0.1,4.3,5.7,4.4,14.6L55,77.7z"/>
		<path id="XMLID_537_" class="st20" d="M48.9,97.9c0,0,24.2-5.8,28.4-20.1c0,0,1.6,13.9-25.2,24.4c-3.4,1.3-4.1,0.5-5.4,0.3
			c-2.1-0.3-3.5-0.9-3.8-1.2C41.9,99.9,48.9,97.9,48.9,97.9z"/>
		<g id="XMLID_522_">
			<circle id="XMLID_536_" class="st0" cx="30.9" cy="62.4" r="15.6"/>
			<path id="XMLID_533_" class="st2" d="M31.8,63.2c-5.5,6.8-3.6,15.3-8.9,10.9l-2.1-1.7c-5.3-4.3-6.1-12.2-1.8-17.5l2.1-2.5
				c4.3-5.3,12.2-6.1,17.5-1.8l2.1,1.7C46,56.5,37.4,56.3,31.8,63.2z"/>
			<g id="XMLID_523_">
				<g id="XMLID_524_">
					
						<ellipse id="XMLID_532_" transform="matrix(0.6306 -0.7761 0.7761 0.6306 -41.0858 41.6992)" class="st21" cx="23.3" cy="64" rx="4.3" ry="4.1"/>
					
						<ellipse id="XMLID_531_" transform="matrix(0.6306 -0.7761 0.7761 0.6306 -41.6048 40.4643)" class="st0" cx="21.7" cy="63.9" rx="2.3" ry="1.9"/>
					<circle id="XMLID_530_" class="st0" cx="24.2" cy="66.5" r="0.9"/>
					<circle id="XMLID_529_" class="st0" cx="25.5" cy="63.5" r="1.2"/>
					<circle id="XMLID_528_" class="st21" cx="31.7" cy="53.7" r="4.2"/>
					
						<ellipse id="XMLID_527_" transform="matrix(0.6306 -0.7761 0.7761 0.6306 -29.0603 43.5673)" class="st0" cx="31.2" cy="52.3" rx="2.4" ry="2"/>
					
						<ellipse id="XMLID_526_" transform="matrix(0.6306 -0.7761 0.7761 0.6306 -31.764 45.2562)" class="st0" cx="31.7" cy="56" rx="1.3" ry="1.1"/>
					
						<ellipse id="XMLID_525_" transform="matrix(0.6306 -0.7761 0.7761 0.6306 -29.3798 46.4468)" class="st0" cx="34.1" cy="54.1" rx="1" ry="0.8"/>
				</g>
			</g>
		</g>
		<g id="XMLID_516_">
			<circle id="XMLID_519_" class="st9" cx="42" cy="66.6" r="3.8"/>
			<circle id="XMLID_518_" class="st3" cx="42.1" cy="66.6" r="1.6"/>
			<path id="XMLID_517_" class="st0" d="M41.3,66.2c0.1-0.5,1.9-2.5,2.9-1.3s-1,2.5-1.7,2.7C42,67.6,40.9,67.4,41.3,66.2z"/>
		</g>
		<path id="XMLID_515_" class="st12" d="M87.3,94.2C82.9,104.6,74.1,107.9,64,107c-10.4-0.9-22.2-6.1-32.3-12.3
			c-6.3-3.9-11.8-8.1-15.9-11.9c-1.9-1.7-3.4-3.5-4.5-5.3C6.7,70.8,6.7,64.2,8,59l0,0c0.2-0.6,0.3-1.3,0.5-1.8
			c1.6-5.1,4.3-8.5,4.3-8.5c1.6-2.5,8.2-6.7,15.3-6.6c4.6,0.1,9.4,2,13.1,7.5c3.3,4.8,7.5,8.9,12,12.4c4.4,3.4,9.2,6.4,13.7,9.1l0,0
			l0,0c7.3,4.4,14.1,8.1,17.9,12.2C87.9,86.5,89.1,90,87.3,94.2z"/>
	</g>
	<g id="XMLID_503_">
		<g id="XMLID_509_">
			<path id="XMLID_513_" class="st0" d="M94,84.4c5.8-0.8,0.9-8.1-2.5-9.1c-9.3-3.4-8.5,8.6,0.6,8.6"/>
			<g id="XMLID_510_">
				<path id="XMLID_512_" class="st22" d="M94,84.4c5.8-0.8,0.9-8.1-2.5-9.1c-9.3-3.4-8.5,8.6,0.6,8.6"/>
				<path id="XMLID_511_" class="st1" d="M94.1,83.7c1.6-0.3,2.7-1,2.1-2.7c-0.4-1.3-1.3-2.4-2.2-3.3c-1.6-1.7-4.1-2.5-6.4-2.3
					c-2.5,0.3-2.9,2.8-1.8,4.6c1.3,2.2,3.9,3.1,6.3,3.1c0.4,0,0.3,1.4-0.1,1.3c-3.2-0.1-6.6-1.7-7.3-5.1c-0.5-2.4,0.4-4.8,3-5.3
					c3.6-0.7,6.9,2,8.5,5c1.4,2.5,0.9,5.5-2.3,6C93.6,85.1,93.6,83.8,94.1,83.7L94.1,83.7z"/>
			</g>
		</g>
		<g id="XMLID_504_">
			<path id="XMLID_508_" class="st0" d="M81.4,99.8c7.6,0.5,17.1-4.6,15.2-13.4c-1.3-6.2-5.2-8.9-11.3-8.3
				c-5.6,0.8-11.5,3.6-11.7,9.8C73.3,93.8,75.2,99.4,81.4,99.8z"/>
			<g id="XMLID_505_">
				<path id="XMLID_507_" class="st22" d="M81.4,99.8c7.6,0.5,17.1-4.6,15.2-13.4c-1.3-6.2-5.2-8.9-11.3-8.3
					c-5.6,0.8-11.5,3.6-11.7,9.8C73.3,93.8,75.2,99.4,81.4,99.8z"/>
				<path id="XMLID_506_" class="st1" d="M81.5,99.2c4.4,0.2,8.6-1.1,11.9-4c5.1-4.4,3.3-13.1-2.6-15.8c-4.4-2-10.8,0.1-14.2,3.1
					C70.8,87.5,74.3,98.2,81.5,99.2c0.5,0.1,0.4,1.4-0.1,1.3c-6.6-0.9-9.3-7.7-8-13.8c1.6-7.2,10.1-10.5,16.8-8.9
					c5.8,1.4,8.1,8.9,6.5,14.1c-1.9,6.2-9.5,8.8-15.3,8.6C80.9,100.5,81,99.2,81.5,99.2z"/>
			</g>
		</g>
	</g>
	<g id="XMLID_424_">
		<g id="XMLID_440_">
			<path id="XMLID_465_" class="st0" d="M6.2,83.9c-5.8-0.5-1.2-8.1,2.1-9.2c9.1-3.8,8.9,8.2-0.2,8.6"/>
			<g id="XMLID_462_">
				<path id="XMLID_464_" class="st22" d="M6.2,83.9c-5.8-0.5-1.2-8.1,2.1-9.2c9.1-3.8,8.9,8.2-0.2,8.6"/>
				<path id="XMLID_463_" class="st1" d="M6.1,83.3c-1.6-0.2-2.7-0.9-2.3-2.6c0.3-1.3,1.2-2.5,2-3.4c1.5-1.7,3.9-2.7,6.3-2.5
					c2.5,0.2,3,2.6,2,4.6c-1.2,2.3-3.7,3.2-6.1,3.4c-0.4,0-0.2,1.4,0.2,1.3c3.2-0.2,6.5-2,7-5.5c0.4-2.4-0.7-4.8-3.2-5.2
					c-3.6-0.5-6.8,2.4-8.2,5.4c-1.2,2.6-0.6,5.5,2.6,5.9C6.6,84.6,6.5,83.3,6.1,83.3L6.1,83.3z"/>
			</g>
		</g>
		<g id="XMLID_425_">
			<path id="XMLID_430_" class="st0" d="M19.4,98.8c-7.5,0.9-17.3-3.9-15.8-12.7c1-6.2,4.8-9.1,10.9-8.8c5.6,0.5,11.6,3.1,12.2,9.3
				C27.3,92.3,25.7,98,19.4,98.8z"/>
			<g id="XMLID_427_">
				<path id="XMLID_429_" class="st22" d="M19.4,98.8c-7.5,0.9-17.3-3.9-15.8-12.7c1-6.2,4.8-9.1,10.9-8.8
					c5.6,0.5,11.6,3.1,12.2,9.3C27.3,92.3,25.7,98,19.4,98.8z"/>
				<path id="XMLID_428_" class="st1" d="M19.3,98.1c-4.4,0.4-8.6-0.7-12.1-3.4c-5.3-4.2-3.9-13,1.9-15.9c4.4-2.2,10.7-0.4,14.4,2.5
					C29.5,85.9,26.5,96.8,19.3,98.1c-0.5,0.1-0.3,1.4,0.2,1.3c6.5-1.2,8.9-8.2,7.3-14.2c-1.9-7.1-10.6-10-17.2-8.1
					C3.9,78.9,2,86.5,3.8,91.6c2.2,6.1,9.9,8.4,15.7,7.9C20,99.4,19.9,98.1,19.3,98.1z"/>
			</g>
		</g>
	</g>
</g>
</svg>
