<?xml version="1.0" encoding="utf-8"?>
<!-- Generator: Adobe Illustrator 22.1.0, SVG Export Plug-In . SVG Version: 6.00 Build 0)  -->
<svg version="1.1" id="图层_1" xmlns="http://www.w3.org/2000/svg" xmlns:xlink="http://www.w3.org/1999/xlink" x="0px" y="0px"
	 viewBox="0 0 113.4 113.4" style="enable-background:new 0 0 113.4 113.4;" xml:space="preserve">
<style type="text/css">
	.st0{fill:#245C96;}
	.st1{fill:#FFFFFF;}
	.st2{fill:#3C74AB;}
	.st3{fill:#D3E6F6;}
	.st4{fill:#3A1E0D;}
	.st5{fill:#FFFFFF;stroke:#182A88;stroke-miterlimit:10;}
	.st6{fill:#E8C7AD;}
	.st7{fill:none;stroke:#3C74AB;stroke-miterlimit:10;}
	.st8{fill:#F9FDFF;}
</style>
<g id="XMLID_1_">
	<path id="XMLID_1010_" class="st0" d="M113,50c0.2-2.8-2-5.1-4-6.8c-1.3-1.1-2.8-2-4.3-2.8c-1.1-0.6-6-2.5-7.2-3.1
		c-0.1,0-0.1-0.1-0.2-0.1c-1.3-15-13.8-26.8-29.1-26.8h-5.3c-16.1,0-29.2,13.1-29.2,29.2v17.5c-1.2-0.5-1.8-1.2-2.5-2
		c-0.4-0.5-0.7-0.8-1.2-1.6c-1.1-1.9-1.7-4-2.5-6.2c0.7-1.3,1.1-3,1.2-4.5c0.1-1.4-0.4-4.6-1.9-5.7c0.2-1.1,0.3-2.3,0.4-3.5
		c0.2-2.3,1.3-4.5,1.4-6.8s-1.6-4.4-4-4.6c-2.7-0.2-4.9,1.6-6,4c-0.8,1.7-1,3.7-0.8,5.4c0.1,0.5,0.1,1.3,0.4,1.9
		c-2.7-1.2-6.1-1.4-9-1.3c-2.8,0.1-6,0.7-8,2.9c-1.8,2.1-1.3,6,0.8,7.7c-2.2,2.2-1.5,6.8,0,9c0.4,0.7,1,1.2,1.6,1.6
		C3,54.2,2.9,55.6,3,56.4c0.1,1.3,0.7,2.4,1.5,3.4c1.9,2.2,5,3,7.8,3.1c1.9,0.1,4.1-0.3,5.7-1.3c0.4,0.4,1.2,0.4,1.6,0.4
		c1.3,0,2.4-0.9,3.3-1.7c0.7-0.7,1.8-1.8,2.5-3.1c0.7,0.7,1.6,1.3,2.5,1.8c0.2,0.1,0.6,0.3,1,0.4c0.4,0.2,0.5,0.2,1.5,0.6
		c0.9,0.3,2.7,0.7,3.4,0.4c0.9,11.7,8.8,21.5,19.5,25.2c-0.5,1.6-0.9,4.1-1.1,5.7c-0.3,2.3-0.7,4.6-0.9,6.9l0,0
		C47,98,42.3,99,38.4,100.2c-1.2,0.4-3.7,1.4-5.1,2.7c-0.7,0.7-1.1,1.3-1,2.1c0.1,0.5,0.4,1.1,1.2,1.7c1.4,1,3.5,1.3,5.3,1.3
		c0.2,0,0.4,0,0.6,0c2.9,0.1,5.8,0,8.7-0.4c2.5-0.3,5-0.7,7.3-1.6h0.1c1.9-0.7,3.3-1.6,3.1-3.9c0-0.2-0.1-0.5-0.1-0.7
		c-0.1-0.3-0.2-0.5-0.4-0.8c-0.5-0.9-1.4-1.5-2.5-1.8c0.1-0.6,0.1-1.2,0.1-1.8c0.1-1.5,0.3-3,0.4-4.5c0.1-1.3,0.3-2.7,0.5-4
		c0.1-0.3,0.1-0.6,0.1-1c0-0.1,0-0.1,0-0.1c0.1-0.2,0.1-0.5,0.1-0.7c1.9,0.4,3.9,0.6,5.9,0.6h5.3c1.5,0,3-0.1,4.4-0.3
		c-0.8,1.9-1.1,4-1.5,6c-0.1,1-0.3,2-0.5,3.1c-0.1,0.4-0.3,0.8-0.4,1.3c-1.7,0.1-3.6,0.9-4.4,2.4c-0.9,1.6,0.7,3.1,1.9,3.7
		c2.1,1.1,4.7,1.5,6.9,1.9c3.7,0.7,7.4,1.1,11.1,1c1.9,0,4,0.1,5.7-0.9c2.1-1.1,0.9-2.8-0.5-3.7c-2.2-1.5-5-2.1-7.5-2.8
		c-1.7-0.5-3.4-1-5.1-1.4c-0.8-0.2-1.6-0.3-2.5-0.4c-0.7-0.1-1.5,0.1-2.2,0.1c0.4-1.9,0.8-3.7,1.3-5.5c0.4-1.9,1.1-3.7,1.6-5.7h-0.1
		c9.8-2.9,17.5-10.9,20.1-20.9c0.7,0.7,2.2,1.6,2.8,1.9c1.4,0.7,2.9,1,4.5,0.9c1.6,0,3.3-0.7,4.4-1.8c1.5-0.4,2.8-1.9,3.7-3.1
		c1.1-1.5,1-3.6-0.1-5.1c-0.7-0.9-2.1-1.6-3.5-1.7C110.7,55,112.8,52.7,113,50z M96.6,58.2c0,15.7-12.8,28.4-28.4,28.4h-5.3
		c-15.7,0-28.4-12.8-28.4-28.4V39.5c0-15.7,12.8-28.4,28.4-28.4h5.3c15.7,0,28.4,12.8,28.4,28.4L96.6,58.2L96.6,58.2z M105.1,50.2
		c-1,0.6-6.5,2.3-7.7,2.6V44c0.9,0.4,6.4,2.2,7.2,2.7c0.9,0.4,1.6,1,2.3,1.7l0,0C106.6,49.2,105.7,49.7,105.1,50.2z"/>
	<path id="XMLID_1009_" class="st1" d="M30.9,58.7c-0.1,0-0.2-0.1-0.4-0.1c-0.5-0.1-1-0.3-1.5-0.5c-1.2-0.4-2.2-1.1-3.1-2.1
		c0.4-1,0.4-2-0.1-2.8c-0.1-0.2-0.4-0.2-0.6,0c-0.4,0.8-0.5,1.8-1,2.6c-0.4,1-1.1,2.1-1.9,2.9c-0.7,0.8-1.6,1.5-2.7,1.8
		c-0.1,0.1-0.4,0.1-0.6,0.1c0.1-0.1,0.3-0.3,0.4-0.4c1.2-1.4,2.4-6.2,0.5-7.5c0.5-0.4,1-0.9,1.5-1.5c0.2-0.4,0.4-0.7,0.6-1.2
		c0.1,0.1,0.1,0.1,0.3,0.1c0.4,0.2,0.7-0.2,0.5-0.6c0-0.1-0.1-0.1-0.1-0.1c-0.1-0.1-0.3-0.2-0.4-0.3c0.1-0.7,0.2-1.6,0.2-2.3
		c0-0.3,0-0.5,0-0.8c0-0.8-0.2-1.6-0.6-2.3c-0.1-0.2-0.2-0.4-0.3-0.4c1.6-3,0.6-6.3-1.8-8.4c-0.1-0.7-0.3-1.3-0.4-1.9
		c-0.4-1.7-0.3-3.7,0.2-5.4c0.7-2.1,2.6-3.8,4.8-3.7l0,0c2.5,0.1,2.5,3.1,2,4.8c-0.7,2.7-1,5.3-1,8c0,0.3,0,0.6-0.1,0.9
		c0,0.7-0.1,1.3-0.1,2c0,0.2,0.3,0.3,0.4,0.1c0.2-0.3,0.4-0.7,0.4-1c0.1,0.1,0.2,0.3,0.3,0.4c0.7,1,0.8,2.3,0.9,3.5
		c0.1,1.3-0.3,2.6-0.8,3.8c-0.1,0.1-0.1,0.1-0.1,0.2c-0.4,0.7-0.8,1.5-1.3,2.2C25,48.9,25,48.9,25,49c-0.1,0.1,0.1,0.4,0.3,0.3
		c0.4-0.3,0.9-0.7,1.2-1c0.3,2.2,1.3,5.1,2.8,7.2c0.4,0.5,0.8,1,1.3,1.3c1,0.7,1.7,1.1,2.9,0.9V58c0,0.5,0,1,0.1,1.6
		C32.9,59.2,31.1,58.7,30.9,58.7z"/>
	<path id="XMLID_1008_" class="st1" d="M108.7,57.6c0.7,0.1,1.2,0.5,1.6,1c0.4,0.4,0.7,1,0.8,1.5c0.4,1.6-0.4,2.8-1.6,3.7
		c-0.1,0.1-0.1,0.1-0.2,0.1c0-0.1,0-0.1,0-0.1c0.1-0.4,0.1-0.7,0.2-1c0.1-0.6-0.1-1-0.2-1.6c-0.6-1.5-2.3-2.3-4-2.5
		C105.4,57.3,107.9,57.4,108.7,57.6z"/>
	<path id="XMLID_1007_" class="st1" d="M109,54.3c-2.3,1.7-5,1.9-7.5,3c-0.1,0-0.1,0.1-0.1,0.2l0,0c0,0.1,0,0.2,0.1,0.3
		c0.7,0.1,1.6,0.1,2.4,0c0.1,0,0.1,0.1,0.1,0.1c0.1,0,0.1,0,0.1,0c0.1,0,0.2-0.1,0.2-0.1c0.1,0,0.1,0,0.2-0.1
		c-0.1,0.4-0.3,0.7-0.2,1.3c-0.4,0.1-0.8,0.1-1.2,0.4c-1,0.4-1.4,1.3-1.4,2c-0.3,0-0.7,0.1-0.9,0.3c-0.1,0.1-0.1,0.2,0.1,0.2
		c0.3,0.1,0.6,0.1,0.9,0.1c0.1,0.6,0.4,1.2,1,1.6v0.1c0,0.2-0.1,0.5,0.1,0.7c0.1,0.1,0.1,0.1,0.2,0c0.1-0.1,0.1-0.3,0.1-0.4
		c0.5,0.4,1.2,0.5,1.9,0.4c0.2,0,0.4-0.1,0.6-0.1c0.1-0.1,0.1-0.3-0.1-0.3c-1.3-0.1-3.1-1.2-2.5-2.7c0-0.1,0-0.1,0.1-0.1
		c0.7-1.3,2.8-1,3.7-0.4c0.3,0.1,0.5,0.3,0.7,0.4c1.6,1.4,0.6,3.9-1,5c-1.5,1-3.5,1-5.2,0.7c-0.5-0.1-1-0.2-1.5-0.4
		c-0.4-0.1-0.7-0.3-1-0.4c-0.5-0.2-1.6-1.2-2.1-1.5c0.4-2,0.7-4,0.7-6.1v-4.3c1.5-0.4,6.8-2.1,7.8-2.6c0.3-0.1,0.6-0.4,0.9-0.6
		c0.3-0.2,0.7-0.5,0.9-0.8c0.2-0.2,0.4-0.5,0.6-0.8c0.2-0.4,0.4-0.8,0.4-1.2c0-0.1,0-0.3,0-0.5c0-0.1,0-0.2-0.1-0.3
		c0-0.1-0.1-0.1-0.2,0c-0.1,0.1-0.1,0.1-0.1,0.2c0,0,0,0.1-0.1,0.1c-0.1-0.1-0.1-0.1-0.2-0.2c-1.4-1.3-8-3.7-9.8-4.1v-3.4
		c0-0.5,0-1.1-0.1-1.6c0.3,0.1,0.6,0.3,1,0.4c0.8,0.3,5.2,2.3,6,2.8c0.4,0.3,1,0.6,1.4,0.9c0.1,0.1,0.1,0.1,0.2,0.1
		c2.3,1.6,4.8,3.6,5.7,6.3c0.2,0.7,0.2,1.3,0.1,1.9C111.4,51.9,110.3,53.3,109,54.3z"/>
	<path id="XMLID_1006_" class="st1" d="M1.9,37.1c0.2-0.5,0.7-1,1.3-1.4c1.9-1.4,4.7-1.5,7-1.5s4.7,0.4,6.9,1c1.9,0.6,3.1,2.2,3.5,4
		c0.1,0.3,0.1,0.7,0.1,1c0,0.8-0.1,1.7-0.5,2.2c-1.2,0.1-2.4,0.6-3.6,0.7c-1.7,0.3-3.5,0.4-5.2,0.3c-1.7,0-3.4-0.3-5.1-0.7
		c-1-0.2-2.1-0.7-3.1-1c-0.1,0-0.3-0.1-0.4-0.1c-0.1,0-0.1,0-0.2,0c-0.1-0.3-0.3-0.6-0.4-0.9C1.5,39.7,1.3,38.3,1.9,37.1z"/>
	<path id="XMLID_1005_" class="st1" d="M3.5,51.2c-1.5-1.6-1.6-3.7-1.1-5.7c0.1-0.7,0.4-1.3,0.6-1.9c0.4,0.1,0.8,0.4,1.2,0.6
		c0.8,0.4,1.7,0.6,2.6,0.7c1.7,0.4,3.4,0.5,5.1,0.5c1.7,0.1,3.4-0.1,5.1-0.4c1-0.1,2.2-0.4,3.1-1c0.3,0.1,0.5,0.4,0.7,0.7
		c0.7,1.7-0.4,5.3-1.3,6.2c-1.8,1.9-5.1,1.7-7.5,1.9C9.1,52.9,5.6,53.5,3.5,51.2z"/>
	<path id="XMLID_1004_" class="st1" d="M17.5,59.8c-1.7,1.3-4,1.6-6.1,1.4c-2-0.1-4.2-0.9-5.7-2.3c-0.7-0.7-1.1-1.5-1.3-2.4
		c-0.1-0.7,0.1-1.6,0.2-2.4c0.2,0.1,0.4,0.1,0.7,0.2c2.2,0.7,5,0.4,7.2,0.2c1.4-0.1,2.8-0.1,4.3-0.4c0.6-0.1,1.3-0.3,1.8-0.5
		c0.9,0.8,1,2,0.8,3.1c0,0.1-0.1,0.2-0.1,0.4C18.9,58.2,18.3,59.2,17.5,59.8z"/>
	<path id="XMLID_1003_" class="st1" d="M55.8,88.1c-0.1,0.3-0.1,0.5-0.1,0.8c-0.2,1-0.4,2.1-0.5,3.1c-0.2,1.5-0.4,3-0.5,4.5
		c-0.1,0.7-0.2,1.4-0.2,2.1c0,0.2,0,0.4,0,0.6c0.1,0.3,0.1,0.6,0.2,1c0.1,0.2,0.4,0.2,0.5,0c0.1-0.1,0.1-0.3,0.1-0.4
		c0.4,0.3,0.8,0.6,1.2,1c0.7,0.8,1.2,1.9,0.4,2.8c-0.4,0.5-1.1,0.8-1.7,1c-1.9,0.8-4,1.2-6,1.5c-4.4,0.7-9.6,1.3-13.9-0.1
		c-1.3-0.4-2.2-1.3-1-2.5l0.1-0.1c1-1.1,2.6-1.7,4.2-2.2c0.6-0.1,1.3-0.4,1.8-0.5c2.1-0.6,4.4-1,6.6-1.4c1.4-0.2,2.8-0.4,4.2-0.4
		c0,0.2-0.1,0.4-0.1,0.7c-0.1,0.6,0.8,0.7,1,0.1c0.1-0.3,0.1-0.6,0.2-0.9c0.1-0.1,0.1-0.2,0.1-0.4c0.4-1.9,0.4-4,0.6-5.9
		c0.1-1.6,0.3-3.1,0.6-4.6c0.1-0.4,0.3-1.3,0.4-1.9c0.7,0.2,1.3,0.4,2.1,0.6C56,87.1,55.9,87.6,55.8,88.1z"/>
	<path id="XMLID_1002_" class="st1" d="M75.3,86.9c-0.5,1.3-0.8,2.8-1.2,4.1c-0.5,2-1,4-1.5,6c-0.1,0.3-0.1,0.6-0.2,0.9
		c-0.1,0.7,0.8,1,1,0.3c0-0.1,0-0.1,0.1-0.2c0,0,0,0,0.1,0c1.1,0.1,2.2,0.3,3.2,0.5c1.2,0.2,2.5,0.4,3.7,0.8
		c1.3,0.4,2.5,0.7,3.8,1.1c0.7,0.2,1.5,0.4,2.2,0.7c0.6,0.1,3.3,1.1,4.5,2c0.4,0.3,0.7,0.6,0.5,0.9c-0.6,1.3-3.7,1.2-4.8,1.2
		c-5,0.1-10-0.4-14.9-1.6c-1.5-0.3-3-0.7-4.3-1.5c-1.3-0.8-1-1.8-0.2-2.5c0.7-0.6,1.9-1.1,2.8-1.3c0,0.1,0,0.1,0,0.2
		c0,0.3,0.3,0.5,0.5,0.4c0.7-0.2,1-1.1,1.2-2.1c0.2-1,0.2-2,0.3-2.6c0.1-1.1,0.3-2.2,0.5-3.3c0.1-1.1,0.5-2.2,0.7-3.4
		c0-0.2,0.1-0.4,0.1-0.7c0.7-0.1,1.5-0.3,2.2-0.4C75.5,86.6,75.4,86.7,75.3,86.9z"/>
	<g id="XMLID_8_">
		<path id="XMLID_13_" class="st2" d="M82.7,13.9c0-0.1,0.1-0.2,0.3-0.3c0.4-0.1,1,0.1,1.9,0.8v-0.1c0.1,0,6.5,2.7,7.8,2.5
			c1-0.1,2.9-0.6,4.4-2.7c1.4-1.9,2.5-2.5,2.6-2.5l0.3-0.1l-0.1,0.3c-0.4,1-0.9,2.2-0.8,2.5c0.1,0.3,1.1,1.7,1.6,2.4l0.1,0.1
			l-0.1,0.1c0,0-3.1,0.8-4.8,1.2l-1.1,0.3c-1.3,0.4-2.9,0.7-4.5-0.1c-1-0.6-1.9-1-2.4-1.2l4.3,3.8c0.1,0.1,2.4,1.9,5,0
			c2.8-1.9,6.6-3.2,6.6-3.2l0.4-0.1l-0.2,0.3c-0.4,0.5-0.8,1.3-0.8,1.5c0,0.3,0.5,1.7,0.7,2.2l0.1,0.1h-0.1c-0.1,0-5.4,1.1-6.8,1.9
			c-0.8,0.4-3.7,1.8-5.4-0.1c-1.4-1.6-5.4-6-5.5-6L82.7,13.9L82.7,13.9z"/>
		<path id="XMLID_12_" class="st1" d="M86.1,15.3L86.1,15.3L86.1,15.3c-0.2-0.2-0.4-0.4-0.7-0.6c1.6,0.7,6.2,2.5,7.4,2.4
			c1-0.1,3-0.6,4.6-2.8c0.9-1.3,1.7-1.9,2.2-2.2c-0.3,0.7-0.7,1.8-0.7,2.2v0.1c0.1,0.1,0.3,0.5,0.6,1c-1,0.4-6.3,2.1-7.5,2.2
			C90.8,17.7,87.4,16,86.1,15.3z"/>
		<path id="XMLID_11_" class="st3" d="M95.8,17.7L94.6,18c-1.4,0.4-2.8,0.7-4.3-0.1c-1.6-1-2.8-1.3-3.1-1.5l-1.2-1
			c1.3,0.7,4.8,2.3,5.9,2.2c1.3-0.1,6.5-1.9,7.5-2.2c0.4,0.5,0.7,1,0.9,1.3C99.7,16.8,97.2,17.5,95.8,17.7z"/>
		<path id="XMLID_10_" class="st3" d="M83.1,13.8c0.1,0,0.1,0,0.1,0c0.7,0.7,5.4,5,6.9,6.4c1.6,1.6,2.6,3.5,4.3,2.6
			c1.6-0.8,7.3-2.9,8.3-3.3c0.1,0.5,0.5,1.5,0.6,1.8c-0.9,0.1-5.4,1.1-6.7,1.9c-0.8,0.4-3.5,1.7-5.1-0.1c-1.4-1.6-5.4-6-5.5-6
			c0,0-3-3.1-3.1-3.1C83,13.9,83.1,13.8,83.1,13.8z"/>
		<path id="XMLID_9_" class="st1" d="M90.2,20.2c-1.4-1.4-6.1-5.7-6.9-6.4c0.3,0,1,0.3,2.5,1.7l1.2,1.1l0,0c0,0,0,0,0.1,0l4.7,4.3
			c0,0,2.5,2,5.3,0.1c2.2-1.6,5.1-2.7,6.2-3.1c-0.3,0.4-0.7,1-0.6,1.3c0,0.1,0.1,0.2,0.1,0.4c-1,0.4-6.7,2.4-8.3,3.3
			C92.8,23.8,91.7,21.8,90.2,20.2z"/>
	</g>
	<circle id="XMLID_991_" class="st4" cx="80.6" cy="10.8" r="5.4"/>
	<path id="XMLID_990_" class="st5" d="M68.2,87.1h-5.3c-15.8,0-28.8-13-28.8-28.9V39.6c0-15.9,13-28.8,28.8-28.8h5.3
		c15.9,0,28.8,13,28.8,28.8v18.6C97.1,74.1,84.1,87.1,68.2,87.1z"/>
	<path id="XMLID_987_" class="st6" d="M65.2,45.9c-18,0-28.8,14-28.8,0v-5.4c0-14,11.5-25.5,25.5-25.5h6.7c14,0,25.5,11.5,25.5,25.5
		v5.4C94.1,59.9,83.2,45.9,65.2,45.9z"/>
	<path id="XMLID_7_" class="st7" d="M68.2,87.1h-5.3c-15.8,0-28.8-13-28.8-28.9V39.6c0-15.9,13-28.8,28.8-28.8h5.3
		c15.9,0,28.8,13,28.8,28.8v18.6C97.1,74.1,84.1,87.1,68.2,87.1z"/>
	<g id="XMLID_970_">
		<g id="XMLID_971_">
			<ellipse id="XMLID_6_" class="st4" cx="52.9" cy="33.5" rx="8.7" ry="8.4"/>
			<ellipse id="XMLID_980_" class="st1" cx="51.1" cy="30.9" rx="4.7" ry="4"/>
			<circle id="XMLID_5_" class="st1" cx="50.2" cy="38.1" r="1.9"/>
			<circle id="XMLID_978_" class="st1" cx="56.7" cy="36.2" r="2.4"/>
			<circle id="XMLID_975_" class="st4" cx="80" cy="33.5" r="8.7"/>
			<ellipse id="XMLID_974_" class="st1" cx="81.8" cy="30.9" rx="4.8" ry="4"/>
			<ellipse id="XMLID_973_" class="st1" cx="76.4" cy="36.5" rx="2.7" ry="2.3"/>
			<ellipse id="XMLID_972_" class="st1" cx="82.5" cy="37.7" rx="1.9" ry="1.6"/>
		</g>
	</g>
	<path id="XMLID_969_" class="st1" d="M75.4,9.4c0,0,6.9,4.3,9.8,4.3c-0.7,1-0.7,1-0.7,1s-4.3-1.1-9.3-4.1
		C75.3,9.5,75.4,9.4,75.4,9.4z"/>
	<path id="XMLID_966_" class="st2" d="M68.2,86.7h-5.3c-15.9,0-28.8-13-28.8-28.8v-7l30.3,5.8l32.7-5.4v6.6
		C97.1,73.8,84.1,86.7,68.2,86.7z"/>
	<g id="XMLID_961_">
		<g id="XMLID_1040_">
			<path id="XMLID_1041_" class="st8" d="M67.1,74.4c-11,0-21.1-1.3-31.1-4.7l-1-3.1c20.4,6.9,50.4,5.8,61.2,0.1l-1.1,3.1
				C89.1,72.9,79.3,74.4,67.1,74.4z"/>
		</g>
	</g>
	<g id="XMLID_4_">
		<path id="XMLID_960_" class="st0" d="M63.8,58.7c-6.9,0-29.1-5.7-30.1-6v-3.1c0.2,0.1,24.2,6.2,30.3,6l0.1,3.1
			C64,58.7,63.9,58.7,63.8,58.7z"/>
	</g>
	<g id="XMLID_2_">
		<path id="XMLID_3_" class="st0" d="M35.6,62c-0.6,0-1.2,0.1-1.6,0l-0.2-3c6.1,0.7,44.7-5.5,63.8-8.9v3.1
			C95.3,53.6,47.2,62,35.6,62z"/>
	</g>
</g>
</svg>
