<?xml version="1.0" encoding="utf-8"?>
<!-- Generator: Adobe Illustrator 19.0.0, SVG Export Plug-In . SVG Version: 6.00 Build 0)  -->
<svg version="1.1" id="图层_1" xmlns="http://www.w3.org/2000/svg" xmlns:xlink="http://www.w3.org/1999/xlink" x="0px" y="0px"
	 viewBox="37 -36.4 113.4 113.4" style="enable-background:new 37 -36.4 113.4 113.4;" xml:space="preserve">
<style type="text/css">
	.st0{fill:#3D75AB;}
	.st1{fill:#FFFFFF;}
	.st2{fill:#D2E5F6;}
	.st3{fill:#392013;}
	.st4{fill:#E9C8AE;}
	.st5{opacity:0.8;fill:#501416;enable-background:new    ;}
	.st6{fill:none;}
	.st7{fill:#C1BFBF;}
	.st8{fill:#F8FCFF;}
	.st9{fill:#265C96;}
</style>
<g id="XMLID_921_">
	<g id="XMLID_1092_">
		<path id="XMLID_1097_" class="st0" d="M115.8-25.5c0-0.1,0.1-0.3,0.3-0.3c0.4-0.1,1.1,0.2,1.9,0.8v-0.1c0.1,0,6.7,2.8,8.1,2.7
			c1-0.1,3-0.6,4.6-2.8c1.5-2,2.7-2.6,2.7-2.7l0.3-0.2l-0.2,0.3c-0.5,1.1-0.9,2.4-0.9,2.6c0.1,0.3,1.2,1.8,1.7,2.5l0.1,0.1h-0.2
			c0,0-3.3,0.9-5,1.2l-1.2,0.3c-1.4,0.4-3,0.8-4.7-0.2c-1.1-0.6-2-1-2.5-1.3l4.4,4c0.1,0.1,2.5,1.9,5.2,0c2.8-2,6.8-3.3,6.9-3.4
			l0.4-0.1l-0.2,0.3c-0.4,0.5-0.8,1.3-0.8,1.6c0,0.3,0.6,1.8,0.8,2.3l0.1,0.1h-0.1c-0.1,0-5.7,1.2-7.1,1.9c-0.9,0.5-3.8,1.9-5.6-0.2
			c-1.5-1.7-5.7-6.3-5.7-6.3L115.8-25.5L115.8-25.5z"/>
		<path id="XMLID_1096_" class="st1" d="M119.2-24L119.2-24L119.2-24c-0.3-0.3-0.5-0.5-0.7-0.6c1.6,0.7,6.5,2.6,7.7,2.5
			c1.1-0.1,3.1-0.7,4.8-2.9c1-1.3,1.8-2,2.3-2.3c-0.3,0.7-0.8,1.9-0.7,2.3v0.1c0.1,0.1,0.3,0.6,0.6,1c-1.1,0.4-6.6,2.2-7.9,2.3
			C124.2-21.5,120.7-23.2,119.2-24z"/>
		<path id="XMLID_1095_" class="st2" d="M129.3-21.5l-1.2,0.3c-1.4,0.4-2.9,0.8-4.5-0.1c-1.7-1-2.8-1.4-3.2-1.5l-1.2-1.1
			c1.4,0.7,5,2.4,6.1,2.3c1.3-0.1,6.8-2,7.9-2.3c0.4,0.5,0.8,1.1,1,1.4C133.5-22.4,130.8-21.7,129.3-21.5z"/>
		<path id="XMLID_1094_" class="st2" d="M116.2-25.6c0,0,0.1,0,0.2,0c0.8,0.7,5.7,5.2,7.2,6.7c1.6,1.6,2.7,3.7,4.5,2.7
			c1.7-0.9,7.6-3,8.6-3.4c0.2,0.6,0.5,1.5,0.6,1.9c-0.9,0.2-5.7,1.2-7,1.9c-0.8,0.5-3.6,1.8-5.3-0.1c-1.5-1.7-5.7-6.3-5.7-6.3
			s-3.1-3.2-3.3-3.3C116.1-25.5,116.1-25.6,116.2-25.6z"/>
		<path id="XMLID_1093_" class="st1" d="M123.5-18.9c-1.5-1.5-6.4-6-7.2-6.7c0.3,0,1.1,0.3,2.6,1.8l1.3,1.1l0,0c0,0,0,0,0.1,0
			l4.9,4.4c0,0,2.7,2.1,5.6,0c2.3-1.6,5.4-2.8,6.4-3.2c-0.3,0.4-0.7,1.1-0.6,1.4c0,0.1,0,0.2,0.1,0.4c-1,0.4-7,2.5-8.6,3.4
			C126.2-15.2,125.2-17.3,123.5-18.9z"/>
	</g>
	<circle id="XMLID_1089_" class="st3" cx="113.6" cy="-28.7" r="5.7"/>
	<path id="XMLID_1088_" class="st1" d="M108.1-30.2c0,0,7.2,4.5,10.3,4.5c-0.8,1.1-0.8,1-0.8,1s-4.5-1.2-9.7-4.3
		C108-30.1,108.1-30.2,108.1-30.2z"/>
	<g id="XMLID_1078_">
		
			<ellipse id="XMLID_1087_" transform="matrix(-0.9499 -0.3126 0.3126 -0.9499 107.6434 52.2657)" class="st1" cx="58" cy="17.5" rx="11.4" ry="4"/>
		<path id="XMLID_1079_" class="st0" d="M64.5,23.2c-2.3,0-5.1-0.5-7.9-1.4c-5.5-1.8-10.7-5.3-9.9-7.9c0.4-1.2,2-1.9,4.4-1.9
			c2.3-0.1,5.2,0.5,8.2,1.4c5.5,1.8,10.7,5.3,9.9,7.9l0,0c-0.4,1.2-2,1.9-4.4,1.9C64.7,23.2,64.6,23.2,64.5,23.2z M51.5,12.7
			c-0.1,0-0.2,0-0.3,0c-2.1,0-3.4,0.5-3.7,1.4c-0.5,1.6,3.2,4.8,9.4,6.9c2.9,0.9,5.7,1.4,7.9,1.4c2.1,0,3.4-0.5,3.7-1.4l0,0
			c0.5-1.6-3.2-4.8-9.4-6.9C56.4,13.2,53.7,12.7,51.5,12.7z"/>
	</g>
	<path id="XMLID_1077_" class="st1" d="M100.9,51.9h-5.5c-16.5,0-30.1-13.5-30.1-30.1V2.5c0-16.5,13.5-30.1,30.1-30.1h5.5
		c16.6,0,30.1,13.5,30.1,30.1v19.4C131,38.4,117.5,51.9,100.9,51.9z"/>
	<path id="XMLID_1074_" class="st4" d="M97.8,8.9c-8,0,0.7,5.6-19.7,4.6c-6.7,2.6-10.4,3.8-10.4-4.6V3.2c0-9.7-1.7-18.3,13-22.8
		c4-2.4,8.6-3.8,13.6-3.8h7c14.6,0,26.6,12,26.6,26.6v5.7C127.9,23.5,116.6,8.9,97.8,8.9z"/>
	<ellipse id="XMLID_1073_" class="st5" cx="84.9" cy="-4" rx="13.5" ry="12.9"/>
	<ellipse id="XMLID_1072_" class="st1" cx="82.1" cy="-8.1" rx="7.3" ry="6.1"/>
	<circle id="XMLID_1071_" class="st1" cx="80.8" cy="3.2" r="2.8"/>
	<circle id="XMLID_1000_" class="st1" cx="90.7" cy="0.3" r="3.7"/>
	<circle id="XMLID_999_" class="st5" cx="113.2" cy="-4" r="9"/>
	<ellipse id="XMLID_998_" class="st1" cx="115" cy="-6.7" rx="5" ry="4.2"/>
	<ellipse id="XMLID_997_" class="st1" cx="109.4" cy="-0.9" rx="2.8" ry="2.4"/>
	<ellipse id="XMLID_996_" class="st1" cx="115.9" cy="0.5" rx="2" ry="1.7"/>
	<path id="XMLID_964_" class="st0" d="M65,16v5.9c0,13.3,8.5,24.6,20.4,28.7c-0.5,1.7-0.9,4.3-1.1,5.9c-0.3,2.4-0.7,4.8-0.9,7.2l0,0
		c-4.4-0.2-9.2,0.8-13.3,2c-1.3,0.4-3.8,1.4-5.3,2.8c-0.7,0.7-1.1,1.4-1,2.2c0.1,0.6,0.5,1.2,1.3,1.8c1.5,1.1,3.7,1.3,5.5,1.4
		c0.2,0,0.4,0,0.6,0c3,0.2,6,0,9-0.4c2.6-0.3,5.2-0.8,7.6-1.7h0.1c1.9-0.7,3.4-1.7,3.2-4c0-0.3-0.1-0.5-0.2-0.7
		c-0.1-0.3-0.2-0.6-0.4-0.8c-0.6-0.9-1.5-1.5-2.5-1.9c0.1-0.6,0.1-1.2,0.2-1.8c0.1-1.6,0.3-3.1,0.5-4.7c0.2-1.4,0.3-2.8,0.5-4.2
		c0-0.3,0.1-0.7,0.1-1v-0.1c0-0.3,0.1-0.5,0.1-0.8c2,0.4,4,0.6,6.1,0.6h5.5c1.6,0,3.1-0.1,4.6-0.3c-0.9,2-1.2,4.2-1.5,6.3
		c-0.2,1.1-0.3,2.1-0.5,3.2c-0.1,0.4-0.3,0.9-0.4,1.3c-1.8,0.1-3.8,0.9-4.6,2.5c-0.9,1.7,0.7,3.2,2.1,3.9c2.2,1.2,4.9,1.6,7.3,2
		c3.8,0.7,7.7,1.1,11.6,1.1c2,0,4.2,0,6-0.9c2.2-1.2,0.9-2.9-0.6-3.9c-2.3-1.6-5.2-2.2-7.9-3c-1.8-0.5-3.5-1.1-5.3-1.5
		c-0.9-0.2-1.7-0.3-2.6-0.4c-0.8-0.1-1.5,0.1-2.3,0.1c0.4-1.9,0.9-3.8,1.3-5.8c0.5-2,1.2-3.9,1.7-5.9h-0.1c8.1-2.4,14.7-8,18.5-15.4
		c0.9,1.1,3.3,3.1,5.3,3.9c1.5,0.6,3.1,1,4.6,0.9c1.7,0,3.4-0.7,4.6-1.9c1.6-0.5,2.9-2,3.8-3.2c1.2-1.6,1-3.7-0.1-5.3
		c-0.7-1-2.2-1.6-3.7-1.8c2.7-1.5,4.8-3.8,5-6.7s-2.1-5.4-4.2-7.1c-1.4-1.1-2.9-2.1-4.5-3c-1.2-0.7-6.3-2.6-7.5-3.2
		c0,0-0.1,0-0.1-0.1V2.3c0-16.8-13.7-30.5-30.5-30.5h-5.5C78.6-28,65-14.3,65,2.5v9.9 M130.6,21.9c0,16.4-13.3,29.7-29.7,29.7h-5.5
		c-16.4,0-29.7-13.3-29.7-29.7V2.5c0-16.4,13.3-29.7,29.7-29.7h5.5c16.4,0,29.7,13.3,29.7,29.7C130.6,2.5,130.6,21.9,130.6,21.9z
		 M139.4,21.9c-0.9,0.6-6.7,2.3-8.1,2.7c0.1-0.9,0.1-1.8,0.1-2.7v-6.4c0.9,0.4,6.7,2.4,7.6,2.8c0.9,0.5,2.4,1.3,2.4,1.8
		C141.4,20.6,140.1,21.4,139.4,21.9z"/>
	<line id="XMLID_963_" class="st6" x1="65" y1="13.7" x2="65" y2="15.3"/>
	<path id="XMLID_962_" class="st1" d="M143.2,29.7c0.7,0.2,1.3,0.5,1.7,1c0.4,0.4,0.7,1,0.9,1.6c0.4,1.6-0.5,2.8-1.6,3.9
		c-0.1,0.1-0.1,0.1-0.2,0.2v-0.1c0.1-0.4,0.2-0.7,0.2-1.1c0-0.6-0.1-1.1-0.3-1.6c-0.6-1.6-2.4-2.4-4.2-2.5
		C139.7,29.3,142.4,29.5,143.2,29.7z"/>
	<path id="XMLID_959_" class="st1" d="M143.5,26.1c-2.4,1.8-5.2,2-7.9,3.1c-0.1,0-0.2,0.1-0.2,0.2l0,0c0,0.1,0,0.3,0.2,0.3
		c0.8,0.1,1.6,0.1,2.5,0c0.1,0,0.3,0,0.5-0.1c0.1,0,0.2,0,0.2,0c-0.2,0.4-0.3,0.8-0.2,1.3c-0.4,0.1-0.9,0.2-1.3,0.4
		c-1.1,0.5-1.5,1.3-1.5,2.1c0,0.3,0,0.4,0.1,0.6c0.1,0.6,0.5,1.2,1,1.7c0,0.1,0.3,0.2,0.4,0.3c0.6,0.4,1.3,0.5,2,0.4
		c0.2,0,0.4-0.1,0.6-0.2c0.1-0.1,0.1-0.3,0-0.3c-1.4,0-3.3-1.2-2.6-2.8c0-0.1,0-0.1,0.1-0.2c0.7-1.3,2.8-1,3.9-0.5
		c0.3,0.1,0.5,0.3,0.7,0.5c1.6,1.4,0.7,4-1,5.2c-1.5,1.1-3.7,1.1-5.5,0.8c-0.5-0.1-1-0.3-1.5-0.5c-0.4-0.1-0.7-0.3-1.1-0.5
		c-1.6-0.8-3.7-2.6-4.4-3.4c1.3-2.8,2.2-5.8,2.6-9c1.6-0.5,8.3-2.8,9.3-3.4c2.9-1.8,1.8-3.2,1.2-3.7c-1.5-1.4-8.3-3.9-10.3-4.3V8.8
		c0.3,0.2,0.6,0.3,1,0.5c0.8,0.3,5.4,2.4,6.2,2.9c0.5,0.3,1,0.6,1.5,0.9c0.1,0.1,0.2,0.1,0.3,0.2c2.4,1.6,5.1,3.8,6,6.6
		c0.2,0.7,0.2,1.3,0.1,1.9C146,23.7,144.8,25.1,143.5,26.1z"/>
	<path id="XMLID_958_" class="st1" d="M88.1,53c-0.1,0.3-0.1,0.6-0.2,0.9c-0.2,1.1-0.4,2.2-0.5,3.3c-0.2,1.6-0.4,3.1-0.6,4.7
		c-0.1,0.7-0.2,1.5-0.2,2.2c0,0.2,0,0.4,0,0.6c0,0.3,0.1,0.7,0.3,1c0.1,0.2,0.5,0.2,0.6,0c0.1-0.2,0.1-0.3,0.2-0.5
		c0.5,0.3,0.9,0.6,1.3,1c0.8,0.9,1.2,2,0.4,3c-0.4,0.5-1.2,0.8-1.8,1.1c-2,0.8-4.2,1.2-6.3,1.6c-4.6,0.8-10,1.3-14.5-0.1
		c-1.4-0.4-2.2-1.4-1.1-2.7c0,0,0-0.1,0.1-0.1c1.1-1.2,2.8-1.8,4.4-2.3c0.6-0.2,1.3-0.4,1.9-0.5c2.2-0.6,4.6-1.1,6.9-1.5
		c1.5-0.2,2.9-0.4,4.4-0.5c0,0.2,0,0.5-0.1,0.7c0,0.6,0.9,0.7,1,0.1c0.1-0.3,0.2-0.6,0.2-0.9c0.1-0.1,0.2-0.3,0.1-0.4
		c0.4-2,0.5-4.1,0.6-6.1c0.2-1.6,0.3-3.2,0.6-4.8c0.1-0.5,0.3-1.3,0.5-2c0.7,0.2,1.4,0.4,2.1,0.6C88.3,52,88.2,52.5,88.1,53z"/>
	<path id="XMLID_957_" class="st1" d="M108.4,51.8c-0.5,1.4-0.9,2.9-1.3,4.3c-0.6,2.1-1.1,4.2-1.5,6.3c-0.1,0.3-0.1,0.6-0.2,0.9
		c-0.2,0.7,0.9,1,1.1,0.3c0-0.1,0-0.2,0.1-0.3l0,0c1.1,0.2,2.2,0.3,3.4,0.5c1.3,0.2,2.5,0.5,3.8,0.8c1.3,0.4,2.7,0.8,4,1.2
		c0.8,0.2,1.5,0.5,2.3,0.7c0.6,0.2,3.4,1.2,4.6,2.1c0.4,0.3,0.7,0.6,0.5,0.9c-0.6,1.4-3.8,1.2-5.1,1.3c-5.2,0-10.4-0.5-15.6-1.6
		c-1.5-0.3-3.1-0.7-4.4-1.6c-1.4-0.9-1.1-1.8-0.2-2.6c0.7-0.7,1.9-1.2,2.9-1.4c0,0.1,0,0.2,0,0.2c0,0.3,0.3,0.6,0.6,0.4
		c0.7-0.3,1.1-1.2,1.3-2.2s0.3-2.1,0.3-2.7c0.2-1.2,0.3-2.3,0.5-3.5s0.5-2.3,0.7-3.5c0-0.2,0.1-0.4,0.1-0.7c0.8-0.1,1.5-0.3,2.3-0.5
		C108.5,51.5,108.5,51.7,108.4,51.8z"/>
	<g id="XMLID_950_">
		<path id="XMLID_956_" class="st7" d="M65.9,3.4c-1.5,0.3-3,0.9-4.5,1.4c0,1.7,1,3.3,2.2,4.5c1.4-0.8,2.8-1.7,4.2-2.6
			c-0.5-1.2-1-2.4-1.7-3.3"/>
		<g id="XMLID_951_">
			<path id="XMLID_955_" class="st6" d="M65.9,3.4c-1.5,0.3-3,0.9-4.5,1.4c0,1.7,1,3.3,2.2,4.5c1.4-0.8,2.8-1.7,4.2-2.6
				c-0.5-1.2-1-2.4-1.7-3.3"/>
			<path id="XMLID_952_" class="st0" d="M65.7,3c-1.5,0.3-3,0.9-4.5,1.4c-0.1,0-0.2,0.2-0.2,0.3c0.1,2,1.1,3.5,2.5,4.9
				c0.1,0.1,0.3,0.2,0.4,0.1c1.4-0.8,2.8-1.7,4.2-2.6c0.1-0.1,0.1-0.3,0.1-0.4c-0.5-1.2-1-2.5-1.9-3.5c-0.4-0.5-0.8-0.1-0.5,0.4
				c0.7,0.9,1.2,2,1.6,3.1c0-0.1,0-0.2,0.1-0.4c-1.4,0.9-2.7,1.8-4.2,2.6c0.1,0,0.3,0.1,0.4,0.1c-1.1-1.2-1.9-2.4-2-4.1
				c-0.1,0.1-0.1,0.2-0.2,0.3c1.5-0.5,3-1.1,4.5-1.4C66.6,3.7,66.1,2.9,65.7,3L65.7,3z"/>
		</g>
	</g>
	<path id="XMLID_949_" class="st1" d="M54,14.3c1.8-0.8,3.5-1.7,5.3-2.6c0.9-0.4,4.5-1.5,4.9-2.4c0.5-1.1-0.3-2.7-0.9-3.6
		c-1.1-1.6-1.8-1.4-3.6-1c-3.6,0.8-6.9,2.6-10.3,4.1c-1.6,0.7-5,1.6-6.2,2.8c-1.3,1.3-0.6,4.2,0.6,5.5c1.1,1.1,2.9,0.3,4.4-0.2
		C50.1,16.2,52.1,15.2,54,14.3z"/>
	<g id="XMLID_944_">
		<path id="XMLID_948_" class="st6" d="M54,14.3c1.8-0.8,3.5-1.7,5.3-2.6c0.9-0.4,4.5-1.5,4.9-2.4c0.5-1.1-0.3-2.7-0.9-3.6
			c-1.1-1.6-1.8-1.4-3.6-1c-3.6,0.8-6.9,2.6-10.3,4.1c-1.6,0.7-5,1.6-6.2,2.8c-1.3,1.3-0.6,4.2,0.6,5.5c1.1,1.1,2.9,0.3,4.4-0.2
			C50.1,16.2,52.1,15.2,54,14.3z"/>
		<path id="XMLID_945_" class="st0" d="M54.3,14.7c2.7-1.3,5.4-2.6,8.2-3.8c2.1-0.8,2.6-1.8,1.7-3.9c-2.1-5.2-7.7-2-11.4-0.3
			C49.9,8,46.7,9,43.9,10.4c-2,1-1.9,3-1.3,4.8C44.3,20.6,51.3,16.2,54.3,14.7c0.1-0.1-0.4-0.9-0.6-0.8c-1.9,0.9-3.9,1.8-5.9,2.5
			c-0.9,0.3-1.7,0.6-2.6,0.7c-3.1,0.5-2.7-4-1.7-5.2c0.9-1.2,3.1-1.6,4.4-2.1c1.9-0.7,3.7-1.5,5.5-2.3c2.1-1,4.3-1.8,6.6-2.4
			c0.6-0.1,1.2-0.2,1.8-0.2c1.4-0.1,2.7,3.9,1.2,4.8c-1.1,0.7-2.5,1-3.7,1.5c-1.9,0.8-3.7,1.9-5.6,2.8C53.6,14,54.1,14.8,54.3,14.7z
			"/>
	</g>
	<g id="XMLID_937_">
		<path id="XMLID_943_" class="st1" d="M59.1,11.1c4.6-2.1,4.4,5.5,2.4,7.8c-5.1,6.7-10.1-2.3-3.5-6.5"/>
		<g id="XMLID_938_">
			<path id="XMLID_942_" class="st6" d="M59.1,11.1c4.6-2.1,4.4,5.5,2.4,7.8c-5.1,6.7-10.1-2.3-3.5-6.5"/>
			<path id="XMLID_939_" class="st0" d="M59.5,11.5c1.2-0.5,2.4-0.5,2.8,1c0.3,1.1,0.2,2.3,0,3.4c-0.4,2-1.8,3.7-3.6,4.6
				c-2,0.9-3.4-0.7-3.5-2.5c-0.1-2.2,1.4-4,3.1-5.2c0.3-0.2-0.4-1.1-0.7-0.9c-2.3,1.5-4,4.3-2.9,7.1c0.8,2,2.6,3.3,4.6,2.5
				c2.9-1.2,4.1-4.7,3.8-7.6c-0.2-2.5-1.9-4.4-4.5-3.3C58.5,10.7,59.1,11.7,59.5,11.5L59.5,11.5z"/>
		</g>
	</g>
	<g id="XMLID_929_">
		<path id="XMLID_936_" class="st1" d="M42.8,5.7C48,1.8,57.3,1.1,60.1,8.3c1.9,5.1,0.4,8.9-4.3,11.2c-4.4,2-10,2.7-13.1-1.7
			C39.8,13.9,38.6,9,42.8,5.7z"/>
		<g id="XMLID_930_">
			<path id="XMLID_935_" class="st6" d="M42.8,5.7C48,1.8,57.3,1.1,60.1,8.3c1.9,5.1,0.4,8.9-4.3,11.2c-4.4,2-10,2.7-13.1-1.7
				C39.8,13.9,38.6,9,42.8,5.7z"/>
			<path id="XMLID_932_" class="st0" d="M43.2,6.2C46.3,4,49.9,3,53.7,3.5c5.8,0.8,8.5,8,5.5,12.7c-2.3,3.5-7.9,4.9-11.8,4.4
				C40.9,19.6,38.4,10.2,43.2,6.2c0.4-0.3-0.4-1.2-0.7-0.9C38.2,9,39.4,15.2,43.1,19c4.5,4.5,12.2,2.9,16.3-1.4
				c3.6-3.7,1.7-10.2-1.9-13.2c-4.2-3.6-11-2-15.1,0.9C42.1,5.5,42.8,6.5,43.2,6.2z"/>
		</g>
	</g>
	<path id="XMLID_926_" class="st0" d="M101,51.8h-5.5c-16.5,0-30.1-13.5-30.1-30.1v-7.3L97,20.5l34-5.7v6.9
		C131,38.3,117.5,51.8,101,51.8z"/>
	<g id="XMLID_920_">
		<g id="XMLID_1104_">
			<path id="XMLID_1105_" class="st8" d="M99.8,38.9c-11.4,0-22-1.4-32.4-4.9l-1.1-3.2c21.3,7.2,52.5,6.1,63.9,0.2l-1.2,3.1
				C122.7,37.3,112.5,38.9,99.8,38.9z"/>
		</g>
	</g>
	<g id="XMLID_918_">
		<path id="XMLID_919_" class="st9" d="M96.3,22.5c-7.2,0-30.3-6-31.3-6.3V13c0.2,0.1,25.2,6.4,31.5,6.2l0.1,3.2
			C96.5,22.5,96.4,22.5,96.3,22.5z"/>
	</g>
	<g id="XMLID_916_">
		<path id="XMLID_917_" class="st9" d="M66.8,26c-0.6,0-1.2,0-1.6,0L65,22.9c6.4,0.7,46.6-5.8,66.5-9.3v3.2
			C129.2,17.2,79,26,66.8,26z"/>
	</g>
	<g id="XMLID_444_">
		<path id="XMLID_913_" class="st7" d="M104.2-11.2C99.7-21.9,87.4-27,76.7-22.5S60.9-5.7,65.4,5s16.8,15.8,27.5,11.3
			C103.6,11.8,108.7-0.5,104.2-11.2z M70.2,3c-3.4-8.1,0.4-17.4,8.5-20.7c8.1-3.4,17.4,0.4,20.7,8.5c3.4,8.1-0.4,17.4-8.5,20.7
			C82.8,14.9,73.6,11.1,70.2,3z"/>
		<g id="XMLID_462_">
			<path id="XMLID_910_" class="st6" d="M104.2-11.2C99.7-21.9,87.4-27,76.7-22.5S60.9-5.7,65.4,5s16.8,15.8,27.5,11.3
				C103.6,11.8,108.7-0.5,104.2-11.2z M70.2,3c-3.4-8.1,0.4-17.4,8.5-20.7c8.1-3.4,17.4,0.4,20.7,8.5c3.4,8.1-0.4,17.4-8.5,20.7
				C82.8,14.9,73.6,11.1,70.2,3z"/>
			<path id="XMLID_624_" class="st0" d="M104.5-11.2c-4.5-10-16-16.1-26.7-12.2C66.1-19.2,60.5-6.5,65.1,5c4,10.2,16.2,16,26.6,12.3
				C103.4,13.1,109,0.3,104.5-11.2c-0.1-0.3-0.8-0.8-0.6-0.2c4,10.1-0.3,21.5-9.9,26.6c-10.5,5.6-23.7,0.5-28.4-10.1
				c-4.4-10,0.5-21.6,9.9-26.6C86-27.1,99.2-22,103.9-11.4C104-11.1,104.7-10.6,104.5-11.2z"/>
			<path id="XMLID_463_" class="st0" d="M70.5,3.1c-2.9-7.5,0.1-15.8,7.1-19.8c7.9-4.5,18-0.7,21.6,7.3c3.3,7.4-0.4,15.9-7.1,19.8
				C84.2,14.9,74.1,11.2,70.5,3.1c-0.1-0.3-0.8-0.8-0.6-0.2c3.6,7.9,12.2,12.1,20.5,9.3c8.8-3,12.5-13.1,9.3-21.3
				c-3.2-8.1-12.5-12-20.5-9.3c-8.8,3-12.5,13.1-9.3,21.3C70,3.2,70.7,3.7,70.5,3.1z"/>
		</g>
	</g>
</g>
</svg>
