<?xml version="1.0" encoding="utf-8"?>
<!-- Generator: Adobe Illustrator 19.0.0, SVG Export Plug-In . SVG Version: 6.00 Build 0)  -->
<svg version="1.1" id="图层_1" xmlns="http://www.w3.org/2000/svg" xmlns:xlink="http://www.w3.org/1999/xlink" x="0px" y="0px"
	 viewBox="0 0 113.4 113.4" style="enable-background:new 0 0 113.4 113.4;" xml:space="preserve">
<style type="text/css">
	.st0{fill:#FFFFFF;}
	.st1{fill:#420A17;}
	.st2{fill:#FBF4E8;}
	.st3{fill:#B3B3B3;}
	.st4{fill:none;stroke:#D18CB3;stroke-width:0.5;stroke-linecap:round;}
	.st5{fill:#150A0A;}
	.st6{fill:#FAFBFC;}
	.st7{fill:url(#XMLID_2_);}
	.st8{fill:url(#XMLID_3_);}
	.st9{fill:#AACBE5;}
	.st10{fill:#F5D2D9;stroke:#420A17;stroke-width:0.5;stroke-miterlimit:10;}
	.st11{fill:#F7E8CD;}
	.st12{fill:none;stroke:#420A17;stroke-miterlimit:10;}
	.st13{fill:#3A1E0D;}
	.st14{fill:#CFE0B3;stroke:#420A17;stroke-width:0.5;stroke-miterlimit:10;}
	.st15{fill:#DE898B;stroke:#420A17;stroke-width:0.5;stroke-miterlimit:10;}
	.st16{fill:#DE898B;}
	.st17{fill:none;stroke:#420A17;stroke-width:0.5;stroke-miterlimit:10;}
	.st18{fill:#FCFEFE;stroke:#420A17;stroke-width:0.5;stroke-miterlimit:10;}
	.st19{fill:none;}
</style>
<g id="XMLID_424_">
	<g id="XMLID_1151_">
		
			<ellipse id="XMLID_1155_" transform="matrix(-0.6222 0.7829 -0.7829 -0.6222 197.6643 34.0987)" class="st0" cx="90.6" cy="64.7" rx="4.1" ry="17.1"/>
		<path id="XMLID_1152_" class="st1" d="M76.8,53.8L76.8,53.8c1.1-1.3,4-0.4,6.3,0.7c3,1.4,6.7,3.8,10.3,6.6
			c6.7,5.3,12.8,12.2,10.9,14.5s-9.9-2-16.6-7.3c-3.6-2.9-6.7-5.9-8.8-8.6c-0.4-0.5-0.7-1-1.1-1.5C76.8,56.7,76,54.9,76.8,53.8z
			 M92.9,61.9c-3.6-2.8-7.2-5.1-10.1-6.5c-3.2-1.5-4.8-1.5-5.2-1l0,0c-0.4,0.5-0.1,2,2.1,4.8c2,2.6,5.1,5.6,8.6,8.4
			c8.1,6.4,14.4,8.7,15.3,7.5c0.4-0.5,0-1.7-1.1-3.4C100.9,69.2,97.7,65.7,92.9,61.9z"/>
	</g>
	<g id="XMLID_1146_">
		
			<ellipse id="XMLID_1150_" transform="matrix(-0.723 -0.6908 0.6908 -0.723 -15.4388 123.4121)" class="st0" cx="17" cy="64.8" rx="4.1" ry="17.1"/>
		<path id="XMLID_1147_" class="st1" d="M29.2,52.1L29.2,52.1c1.2,1.2,0,4-1.3,6.2c-1.7,2.9-4.4,6.3-7.6,9.7
			C14.5,74.1,7,79.5,4.9,77.5c-2.2-2.1,2.9-9.7,8.8-15.9c3.2-3.3,6.5-6.2,9.3-8c0.5-0.3,1-0.6,1.5-0.9
			C26.4,51.8,28.2,51.2,29.2,52.1z M19.7,67.3c3.1-3.3,5.8-6.7,7.4-9.5c1.8-3.1,1.9-4.6,1.4-5.1l0,0c-0.5-0.4-2-0.3-5,1.7
			c-2.8,1.8-6,4.6-9.2,7.8c-7.1,7.5-10,13.5-8.9,14.6C6,77.3,7.2,77,9,76C11.6,74.6,15.4,71.7,19.7,67.3z"/>
	</g>
	<path id="XMLID_1145_" class="st0" d="M57.1,103.5h-6.3c-19.1,0-34.7-15.6-34.7-34.7V46.5c0-19.1,15.6-34.7,34.7-34.7h6.3
		c19.1,0,34.7,15.6,34.7,34.7v22.4C91.7,87.9,76.1,103.5,57.1,103.5z"/>
	<path id="XMLID_1142_" class="st2" d="M53.5,53.9c-21.6,0-34.7,16.9-34.7,0v-6.5c0-16.9,13.8-30.6,30.6-30.6h8
		C74.3,16.8,88,30.6,88,47.4V54C88.1,70.8,75.1,53.9,53.5,53.9z"/>
	<path id="XMLID_1141_" class="st3" d="M16.1,58v10.9c0,19.1,15.6,34.7,34.7,34.7h6.3c19.1,0,34.7-15.6,34.7-34.7V58
		c0,30.5-22.9,40.4-37.8,40.4C39,98.5,16.1,87.9,16.1,58z"/>
	<g id="XMLID_1080_">
		<g id="XMLID_1138_">
			<line id="XMLID_1140_" class="st4" x1="35.9" y1="51.3" x2="31.2" y2="55.4"/>
			<line id="XMLID_1139_" class="st4" x1="40.1" y1="51.7" x2="35.3" y2="55.7"/>
		</g>
		<g id="XMLID_1135_">
			<line id="XMLID_1137_" class="st4" x1="71.7" y1="51.3" x2="66.9" y2="55.4"/>
			<line id="XMLID_1136_" class="st4" x1="75.8" y1="51.7" x2="71.1" y2="55.7"/>
		</g>
		<g id="XMLID_1116_">
			<path id="XMLID_1132_" class="st5" d="M59.8,28.7c0,0,2.8-4.6,9.2-2.2C69,26.5,63.8,26,59.8,28.7z"/>
			
				<ellipse id="XMLID_1131_" transform="matrix(9.208596e-02 -0.9958 0.9958 9.208596e-02 23.1982 105.2285)" class="st6" cx="69.3" cy="39.9" rx="9.7" ry="9.5"/>
			
				<linearGradient id="XMLID_2_" gradientUnits="userSpaceOnUse" x1="101.9661" y1="-1.6935" x2="100.6152" y2="11.1841" gradientTransform="matrix(0.9958 9.210000e-02 9.210000e-02 -0.9958 -31.4341 37.8156)">
				<stop  offset="0" style="stop-color:#7E4B22"/>
				<stop  offset="1" style="stop-color:#150A0A"/>
			</linearGradient>
			<path id="XMLID_1130_" class="st7" d="M70.8,29.2c-4.6-0.4-8.8,2.5-10.3,6.8c0,0,7.3,0.4,9.9,3.1c0,0-9.1,0.5-10.4,2.2
				c0.8,4.4,4.3,7.9,8.8,8.3c5.4,0.5,10.3-3.7,10.8-9.3C80.3,34.6,76.3,29.7,70.8,29.2z"/>
			<path id="XMLID_1127_" class="st5" d="M70.5,35.4c-1.4-0.1-2.7,0.6-3.5,1.7c1.3,0.5,2.5,1.1,3.2,1.9c0,0-1.8,0.1-3.9,0.4
				c0,2.1,1.5,3.8,3.5,4c2.1,0.2,4-1.5,4.2-3.7C74.2,37.6,72.6,35.6,70.5,35.4z"/>
			<circle id="XMLID_1126_" class="st6" cx="75.5" cy="35.2" r="2.7"/>
			<circle id="XMLID_1125_" class="st6" cx="76.4" cy="39.3" r="1.1"/>
			<circle id="XMLID_1124_" class="st6" cx="67.3" cy="47" r="0.5"/>
			<path id="XMLID_1123_" class="st6" d="M69.6,47.2c0,0,3.4,1.1,6.6-3.4C76.2,43.7,74.7,50.1,69.6,47.2z"/>
			<path id="XMLID_1120_" class="st5" d="M79,32.4c1,0,1.8-1,1.8-1c-1,0.3-2,0.1-2.8-0.1c-0.5-0.5-1.2-0.9-2-1.3
				c1.6-0.6,2-2.8,2-2.8c-1.9,2.1-4,1.8-4.7,1.7c-0.1,0-0.2-0.1-0.3-0.1l0,0l0,0c-0.2-0.1-0.4-0.1-0.6-0.2c-11.2-2.4-14,6.9-14,6.9
				c0.9-0.9,2.3-1.5,2.3-1.5c-1.3,2.2-0.9,3-0.9,3c0.3-2.5,6.6-9.4,14.7-5.8s3.6,13.3,3.6,13.3c4.5-3.7,4.2-7,4.2-7
				c1.2,0.3,1.7-0.6,1.7-0.6C80.6,36.6,80.7,34.5,79,32.4z"/>
			<path id="XMLID_1117_" class="st5" d="M61.1,47.3c0,0,7.6,6.1,15,0.7C76.1,47.9,70.7,51.5,61.1,47.3z"/>
		</g>
		<path id="XMLID_1113_" class="st5" d="M48.1,28.7c0,0-2.8-4.6-9.2-2.2C39,26.5,44.1,26,48.1,28.7z"/>
		
			<ellipse id="XMLID_1112_" transform="matrix(9.208596e-02 -0.9958 0.9958 9.208596e-02 -5.5807 73.6586)" class="st6" cx="37.6" cy="39.9" rx="9.7" ry="9.5"/>
		
			<linearGradient id="XMLID_3_" gradientUnits="userSpaceOnUse" x1="1517.5443" y1="129.2318" x2="1516.1935" y2="142.1094" gradientTransform="matrix(0.9958 9.210000e-02 9.210000e-02 -0.9958 -1484.7361 37.8156)">
			<stop  offset="0" style="stop-color:#7E4B22"/>
			<stop  offset="1" style="stop-color:#150A0A"/>
		</linearGradient>
		<path id="XMLID_1111_" class="st8" d="M39.2,29.2c-4.6-0.4-8.8,2.5-10.3,6.8c0,0,7.3,0.4,9.9,3.1c0,0-9.1,0.5-10.4,2.2
			c0.8,4.4,4.3,7.9,8.8,8.3c5.4,0.5,10.3-3.7,10.8-9.3C48.6,34.6,44.6,29.7,39.2,29.2z"/>
		<path id="XMLID_1108_" class="st5" d="M38.9,35.4c-1.4-0.1-2.7,0.6-3.5,1.7c1.3,0.5,2.5,1.1,3.2,1.9c0,0-1.8,0.1-3.9,0.4
			c0,2.1,1.5,3.8,3.5,4c2.1,0.2,4-1.5,4.2-3.7C42.5,37.6,41,35.6,38.9,35.4z"/>
		<circle id="XMLID_1107_" class="st6" cx="43.8" cy="35.2" r="2.7"/>
		<circle id="XMLID_1106_" class="st6" cx="44.8" cy="39.3" r="1.1"/>
		<circle id="XMLID_1105_" class="st6" cx="35.7" cy="47" r="0.5"/>
		<path id="XMLID_1104_" class="st6" d="M37.9,47.2c0,0,3.4,1.1,6.6-3.4C44.5,43.7,43.1,50.1,37.9,47.2z"/>
		<path id="XMLID_1095_" class="st5" d="M28.9,32.4c-1,0-1.8-1-1.8-1c1,0.3,2,0.1,2.8-0.1c0.5-0.5,1.2-0.9,2-1.3
			c-1.6-0.6-2-2.8-2-2.8c1.9,2.1,4,1.8,4.7,1.7c0.1,0,0.2-0.1,0.3-0.1l0,0l0,0c0.2-0.1,0.4-0.1,0.6-0.2c11.2-2.4,14,6.9,14,6.9
			c-0.9-0.9-2.3-1.5-2.3-1.5c1.3,2.2,0.9,3,0.9,3c-0.3-2.5-6.6-9.4-14.7-5.8s-3.6,13.3-3.6,13.3c-4.5-3.7-4.2-7-4.2-7
			c-1.2,0.3-1.7-0.6-1.7-0.6C27.3,36.6,27.2,34.5,28.9,32.4z"/>
		<path id="XMLID_1081_" class="st5" d="M46.8,47.3c0,0-7.6,6.1-15,0.7C31.9,47.9,37.2,51.5,46.8,47.3z"/>
	</g>
	<path id="XMLID_1071_" class="st9" d="M57.1,99.4h-6.3c-19.1,0-41.5-12.1-34.7-37c0,0,22.6,10.8,37.4,10.8s38.3-11.1,38.3-11.1
		C97.4,88.4,76.1,99.4,57.1,99.4z"/>
	<g id="XMLID_1056_">
		<path id="XMLID_1057_" class="st10" d="M44.3,75.4C36.3,74.2,17,63,16.1,62.6L16,58.3c0.2,0.1,21.5,12.3,28.8,13.4L44.3,75.4z"/>
	</g>
	<g id="XMLID_1054_">
		<path id="XMLID_1055_" class="st10" d="M59.8,75.8l-0.5-3.6c9.2-1.2,32.3-13.7,32.5-13.8v3.8C90.9,62.7,69.6,74.5,59.8,75.8z"/>
	</g>
	<path id="XMLID_1051_" class="st11" d="M57.1,104h-6.3c-19.1,0-46.5-13.8-36-37.6c0,0,24,5.6,38.8,5.6s39.7-5.6,39.7-5.6
		C100.8,91.4,76.1,104,57.1,104z"/>
	<g id="XMLID_1049_">
		<path id="XMLID_1050_" class="st10" d="M53.2,83.6c-10.6,0-25.7-3.1-40.7-8.2l0.6-4c14.7,5,30.2,8.5,40.4,8.5
			c14.5-0.1,32.8-5,40.7-9.1l0.6,3.1c-7.7,4-25.2,9.6-41.4,9.7C53.4,83.6,53.3,83.6,53.2,83.6z"/>
	</g>
	<path id="XMLID_1048_" class="st12" d="M57.1,103.5h-6.3c-19.1,0-48.9-12.9-34.7-39.8V46.5c0-19.1,15.6-34.7,34.7-34.7h6.3
		c19.1,0,34.7,15.6,34.7,34.7v17.2C104.3,90.6,76.1,103.5,57.1,103.5z"/>
	<path id="XMLID_1047_" class="st10" d="M64.1,80.8c0,0,1.6,15.2,2.6,17.2s6.5,9.8,6.5,9.8s4.3,0.5,4.8,1.2s1.2-2,1.2-2
		s-9-9.6-9.4-10.7s-4.7-15.5-4.7-15.5H64.1z"/>
	
		<ellipse id="XMLID_1046_" transform="matrix(-0.1712 -0.9852 0.9852 -0.1712 -3.7085 158.4723)" class="st10" cx="64.8" cy="80.8" rx="3.8" ry="2.1"/>
	<path id="XMLID_1045_" class="st10" d="M41.5,80.8c0,0-0.9,14-1.3,15.3S36,108,37.7,110.9c1,1.4,1.7,1.7,1.7,1.7l3.4-4.1
		c0,0-0.4-7.5,0-9.5s0-18.1,0-18.1h-1.3V80.8z"/>
	
		<ellipse id="XMLID_1044_" transform="matrix(-0.1712 0.9852 -0.9852 -0.1712 129.5849 52.4957)" class="st10" cx="42.7" cy="80.8" rx="3.8" ry="2.1"/>
	<path id="XMLID_1041_" class="st13" d="M46.6,10.8c0,0-3.7-3.3-6.4-2.7c4.3-1.4,7.4-1.2,10.9,1.3c1.5-3.3,5.1-8.2,7.4-8.5
		C57.3,4,56.3,7.6,56.6,9c2.5-1.9,7.4-4.6,11.3-0.4C64.4,9,61.3,9.4,61,11.5c-0.4,2.1-11.7,2.3-11.7,2.3"/>
	<path id="XMLID_1040_" class="st14" d="M4.8,63.7c0,0,0.5-11.5,4.5-15.8s7.9-10.1,10.4-21.7c3.4-8.8,21.7-15.6,34.3-15.6
		c25.8,0,37.6,20.1,37.7,20.7s3.6,14.5,7.8,17.9c4.2,3.4,9.8,9.3,9.9,11.9s-3.8,7.4-3.8,7.4S96.2,53.9,95,52.2
		c-1.2-1.6-4.6-10.8-4.5-17c-2.2-4.9-23.7-19.3-36.9-17.9s-30.7,8.2-31.9,13.4s-4.1,15.5-4.8,16.6C16,48.4,11.1,63.1,11,66.1
		C8,65.5,4.8,63.7,4.8,63.7z"/>
	<g id="XMLID_1000_">
		<g id="XMLID_928_">
			<path id="XMLID_936_" class="st15" d="M91.3,28.5c0,0,0.3-4.7,3.8-4.3c3.5,0.5,4.1,6.9,0,8.2C91.1,33.6,91.3,28.5,91.3,28.5z"/>
			<path id="XMLID_935_" class="st15" d="M92,32.6c0,0,6.4-1.3,7.6,2.2c1.2,3.6-1.6,7.5-5,5S91.9,32.8,92,32.6z"/>
			<path id="XMLID_934_" class="st15" d="M90.7,33.8c0,0,3.7,2.3,3.9,4.5c0.2,2.2-0.8,6.7-5,5.4s-1.5-9.4-1.5-9.4
				S89.4,32.8,90.7,33.8z"/>
			<path id="XMLID_933_" class="st15" d="M89.6,30c0,0-6.1-4.5-3.9-9.9s5.5-3.3,6.2-2.6C92.6,18.3,97.9,26,89.6,30z"/>
			<g id="XMLID_930_">
				<path id="XMLID_932_" class="st16" d="M90.3,31.4c0,0-2.2-6.6-5.8-5.7c-3.6,0.9-4.5,11.6,0.8,12.5
					C89.5,38.9,90.3,31.4,90.3,31.4z"/>
				<path id="XMLID_931_" class="st17" d="M90.3,31.4c0,0-2.2-6.6-5.8-5.7c-3.6,0.9-4.5,11.6,0.8,12.5
					C89.5,38.9,90.3,31.4,90.3,31.4z"/>
			</g>
			<path id="XMLID_929_" class="st18" d="M89.2,29.4c0.3-0.9,2-1.7,2.9-0.3c0.9,1.4,1.2,5.4-0.9,5.7S88.7,31,89.2,29.4z"/>
		</g>
	</g>
	<g id="XMLID_971_">
		<g id="XMLID_937_">
			<path id="XMLID_945_" class="st15" d="M14.3,30.9c0,0-0.3-4.7-3.8-4.3s-4.1,6.9,0,8.2S14.3,30.9,14.3,30.9z"/>
			<path id="XMLID_944_" class="st15" d="M13.7,34.9c0,0-6.4-1.3-7.6,2.2c-1.2,3.6,1.6,7.5,5,5S13.8,35.2,13.7,34.9z"/>
			<path id="XMLID_943_" class="st15" d="M14.9,36.1c0,0-3.7,2.3-3.9,4.5s0.8,6.7,5,5.4s1.5-9.4,1.5-9.4S16.3,35.2,14.9,36.1z"/>
			<path id="XMLID_942_" class="st15" d="M16.1,32.4c0,0,6.1-4.5,3.9-9.9s-5.5-3.3-6.2-2.6C13.1,20.7,7.8,28.4,16.1,32.4z"/>
			<g id="XMLID_939_">
				<path id="XMLID_941_" class="st16" d="M15.4,33.8c0,0,2.2-6.6,5.8-5.7s4.5,11.6-0.8,12.5C16.2,41.3,15.4,33.8,15.4,33.8z"/>
				<path id="XMLID_940_" class="st17" d="M15.4,33.8c0,0,2.2-6.6,5.8-5.7s4.5,11.6-0.8,12.5C16.2,41.3,15.4,33.8,15.4,33.8z"/>
			</g>
			<path id="XMLID_938_" class="st18" d="M16.5,31.8c-0.3-0.9-2-1.7-2.9-0.3s-1.2,5.4,0.9,5.7S17,33.3,16.5,31.8z"/>
		</g>
	</g>
	<g id="XMLID_958_">
		<g id="XMLID_966_">
			<path id="XMLID_970_" class="st0" d="M103.1,79.6c5.7-0.8,0.8-8.1-2.5-9.1c-9.2-3.4-8.5,8.5,0.6,8.5"/>
			<g id="XMLID_967_">
				<path id="XMLID_969_" class="st19" d="M103.1,79.6c5.7-0.8,0.8-8.1-2.5-9.1c-9.2-3.4-8.5,8.5,0.6,8.5"/>
				<path id="XMLID_968_" class="st1" d="M103.1,79c1.5-0.3,2.6-1,2.1-2.7c-0.4-1.3-1.3-2.4-2.2-3.3c-1.6-1.6-4-2.5-6.3-2.2
					c-2.5,0.3-2.8,2.7-1.8,4.6c1.3,2.2,3.9,3,6.3,3.1c0.4,0,0.3,1.3-0.1,1.3c-3.2-0.1-6.5-1.7-7.2-5.1c-0.5-2.4,0.4-4.8,3-5.3
					c3.6-0.7,6.9,2,8.4,4.9c1.3,2.5,0.8,5.5-2.3,6C102.7,80.4,102.7,79.1,103.1,79L103.1,79z"/>
			</g>
		</g>
		<g id="XMLID_960_">
			<path id="XMLID_965_" class="st0" d="M90.6,95c7.5,0.5,16.9-4.6,15.1-13.3c-1.3-6.1-5.2-8.8-11.2-8.2C89,74.2,83.1,77,82.8,83.2
				C82.5,88.9,84.4,94.5,90.6,95z"/>
			<g id="XMLID_961_">
				<path id="XMLID_963_" class="st19" d="M90.6,95c7.5,0.5,16.9-4.6,15.1-13.3c-1.3-6.1-5.2-8.8-11.2-8.2
					C89,74.2,83.1,77,82.8,83.2C82.5,88.9,84.4,94.5,90.6,95z"/>
				<path id="XMLID_962_" class="st1" d="M90.6,94.3c4.3,0.2,8.5-1.1,11.8-3.9c5.1-4.4,3.3-13-2.6-15.7c-4.4-2-10.7,0.1-14.1,3.1
					C80,82.7,83.5,93.4,90.6,94.3c0.5,0.1,0.4,1.4-0.1,1.3c-6.5-0.9-9.2-7.7-7.9-13.7c1.5-7.1,10-10.4,16.7-8.8
					c5.8,1.4,8,8.9,6.4,14c-1.9,6.1-9.4,8.8-15.2,8.5C90,95.6,90.1,94.3,90.6,94.3z"/>
			</g>
		</g>
	</g>
	<g id="XMLID_521_">
		<g id="XMLID_613_">
			<path id="XMLID_957_" class="st0" d="M7,79.9c-5.8-0.5-1.2-8,2.1-9.2c9-3.8,8.8,8.1-0.2,8.5"/>
			<g id="XMLID_922_">
				<path id="XMLID_954_" class="st19" d="M7,79.9c-5.8-0.5-1.2-8,2.1-9.2c9-3.8,8.8,8.1-0.2,8.5"/>
				<path id="XMLID_927_" class="st1" d="M7,79.2c-1.5-0.2-2.7-0.9-2.2-2.6c0.3-1.3,1.2-2.4,2-3.4c1.5-1.7,3.9-2.7,6.2-2.5
					c2.5,0.2,3,2.6,2,4.5c-1.2,2.2-3.7,3.2-6.1,3.4c-0.4,0-0.2,1.4,0.2,1.3c3.2-0.2,6.4-2,7-5.4c0.4-2.4-0.6-4.8-3.2-5.1
					c-3.6-0.5-6.8,2.3-8.2,5.3c-1.2,2.6-0.6,5.5,2.5,5.9C7.4,80.6,7.4,79.3,7,79.2L7,79.2z"/>
			</g>
		</g>
		<g id="XMLID_534_">
			<path id="XMLID_612_" class="st0" d="M20.2,94.6C12.7,95.5,3.1,90.8,4.5,82c1-6.2,4.8-9.1,10.8-8.7c5.6,0.5,11.5,3.1,12.1,9.2
				C28,88.2,26.4,93.8,20.2,94.6z"/>
			<g id="XMLID_535_">
				<path id="XMLID_550_" class="st19" d="M20.2,94.6C12.7,95.5,3.1,90.8,4.5,82c1-6.2,4.8-9.1,10.8-8.7c5.6,0.5,11.5,3.1,12.1,9.2
					C28,88.2,26.4,93.8,20.2,94.6z"/>
				<path id="XMLID_549_" class="st1" d="M20.1,94c-4.3,0.4-8.6-0.7-12-3.4C2.8,86.4,4.2,77.7,10,74.8c4.3-2.2,10.7-0.4,14.3,2.4
					C30.2,81.9,27.2,92.7,20.1,94c-0.5,0.1-0.3,1.4,0.2,1.3c6.5-1.2,8.9-8.1,7.3-14.1c-1.9-7.1-10.5-9.9-17.1-8
					c-5.7,1.7-7.6,9.2-5.8,14.3c2.2,6,9.8,8.3,15.6,7.8C20.8,95.2,20.7,93.9,20.1,94z"/>
			</g>
		</g>
	</g>
</g>
</svg>
