<svg 
 xmlns="http://www.w3.org/2000/svg"
 xmlns:xlink="http://www.w3.org/1999/xlink"
 width="67px" height="58px">
<path fill-rule="evenodd"  fill="rgb(255, 255, 255)"
 d="M35.714,57.999 C35.686,57.997 35.659,57.995 35.632,57.994 L35.616,57.993 C34.937,57.973 34.354,57.489 34.199,56.817 L24.359,14.148 C24.359,14.144 24.356,14.142 24.352,14.142 L22.869,7.945 C22.866,7.945 21.347,14.115 21.346,14.119 L15.390,37.867 C15.231,38.500 14.660,38.909 13.935,38.909 L1.550,38.909 C0.656,38.909 -0.067,38.175 0.006,37.282 C0.069,36.511 0.715,35.903 1.500,35.903 L12.759,35.903 C12.763,35.903 12.766,35.901 12.766,35.898 L21.516,1.044 C21.672,0.419 22.254,-0.001 22.962,-0.001 L22.982,-0.001 C23.680,0.006 24.275,0.483 24.431,1.160 L35.829,50.556 C35.831,50.563 35.842,50.563 35.844,50.556 L44.335,21.680 C44.520,21.048 45.096,20.595 45.734,20.579 C45.756,20.579 45.772,20.579 45.787,20.579 C46.434,20.579 46.983,20.954 47.187,21.536 L52.247,35.898 C52.248,35.901 52.251,35.902 52.254,35.902 L65.450,35.902 C66.344,35.902 67.067,36.637 66.994,37.530 C66.931,38.301 66.285,38.909 65.500,38.909 L51.183,38.909 C50.653,38.909 50.003,38.670 49.768,37.999 L45.892,27.079 C45.890,27.073 45.880,27.073 45.878,27.080 L37.098,56.924 C36.916,57.541 36.352,57.976 35.714,57.999 Z"/>
</svg>
