<svg 
 xmlns="http://www.w3.org/2000/svg"
 xmlns:xlink="http://www.w3.org/1999/xlink"
 width="42px" height="41px">
<path fill-rule="evenodd"  fill="rgb(255, 255, 255)"
 d="M39.642,12.987 C37.592,8.045 33.669,4.118 28.733,2.067 C23.774,0.031 18.213,0.031 13.253,2.067 C8.321,4.123 4.400,8.048 2.347,12.987 C0.336,17.941 0.336,23.487 2.347,28.441 C4.397,33.382 8.319,37.308 13.253,39.361 C18.213,41.396 23.774,41.396 28.733,39.361 C33.671,37.313 37.595,33.385 39.642,28.441 C41.665,23.489 41.665,17.939 39.642,12.987 L39.642,12.987 ZM29.702,24.919 L20.291,24.919 C19.963,24.920 19.645,24.808 19.390,24.601 C19.000,24.381 18.769,23.958 18.794,23.511 L18.794,9.642 C18.794,8.011 21.344,8.011 21.344,9.642 L21.344,22.103 L29.700,22.103 C30.447,22.103 31.109,22.763 31.109,23.514 C31.113,23.889 30.966,24.249 30.701,24.513 C30.437,24.778 30.076,24.924 29.703,24.919 L29.702,24.919 Z"/>
</svg>
