<?xml version="1.0" encoding="utf-8"?>
<!-- Generator: Adobe Illustrator 19.0.0, SVG Export Plug-In . SVG Version: 6.00 Build 0)  -->
<svg version="1.1" id="图层_1" xmlns="http://www.w3.org/2000/svg" xmlns:xlink="http://www.w3.org/1999/xlink" x="0px" y="0px"
	 viewBox="0 0 113.4 113.4" style="enable-background:new 0 0 113.4 113.4;" xml:space="preserve">
<style type="text/css">
	.st0{fill:#FFFFFF;}
	.st1{fill:#3C74AB;}
	.st2{fill:#D3E6F6;}
	.st3{fill:#3A1E0D;}
	.st4{fill:#FFFFFF;stroke:#182A88;stroke-miterlimit:10;}
	.st5{fill:#E8C7AD;}
	.st6{fill:none;stroke:#3C74AB;stroke-miterlimit:10;}
	.st7{opacity:0.43;}
	.st8{fill:#FFFEFE;}
	.st9{fill:#FFFDFE;}
	.st10{fill:#FEFCFD;}
	.st11{fill:#FEFCFC;}
	.st12{fill:#FEFBFA;}
	.st13{fill:#FEFAF9;}
	.st14{fill:#FEF9F8;}
	.st15{fill:#FEF8F7;}
	.st16{fill:#FEF7F6;}
	.st17{fill:#FEF5F5;}
	.st18{fill:#FEF5F4;}
	.st19{fill:#FEF5F3;}
	.st20{fill:#FEF4F2;}
	.st21{fill:#FEF3F0;}
	.st22{fill:#FDF2EF;}
	.st23{fill:#FDF0EE;}
	.st24{fill:#FCEFED;}
	.st25{fill:#FCEEEC;}
	.st26{fill:#FCEDEA;}
	.st27{fill:#FCECEA;}
	.st28{fill:#FBECE9;}
	.st29{fill:#FBEBE7;}
	.st30{fill:#FBEAE7;}
	.st31{fill:#FBE9E5;}
	.st32{fill:#FBE8E5;}
	.st33{fill:#FBE7E4;}
	.st34{fill:#FBE6E3;}
	.st35{fill:#FBE6E2;}
	.st36{fill:#FAE6E1;}
	.st37{fill:#FBE4E0;}
	.st38{fill:#FBE4DF;}
	.st39{fill:#FBE3DE;}
	.st40{fill:#FAE2DD;}
	.st41{fill:#FAE0DC;}
	.st42{fill:#FAE0DB;}
	.st43{fill:#FADEDA;}
	.st44{fill:#FADED9;}
	.st45{fill:#FADDD8;}
	.st46{fill:#F9DCD7;}
	.st47{fill:#F9DCD6;}
	.st48{fill:#FADBD5;}
	.st49{fill:#FADAD5;}
	.st50{fill:#F9D9D3;}
	.st51{fill:#F9D8D3;}
	.st52{fill:#F8D8D2;}
	.st53{fill:#F9D7D0;}
	.st54{fill:#F8D6D0;}
	.st55{fill:#F8D5CF;}
	.st56{fill:#F8D5CE;}
	.st57{fill:#F8D3CD;}
	.st58{fill:#F7D2CB;}
	.st59{fill:#F6D1CA;}
	.st60{fill:#F6D1C9;}
	.st61{fill:#F6CFC8;}
	.st62{fill:#F6CFC7;}
	.st63{fill:#F6CDC6;}
	.st64{fill:#F5CCC4;}
	.st65{fill:#F5CBC4;}
	.st66{fill:#F6CBC3;}
	.st67{fill:#F5CAC2;}
	.st68{fill:#F5CAC1;}
	.st69{fill:#F5C8C0;}
	.st70{fill:#F4C7BF;}
	.st71{fill:#F5C7BE;}
	.st72{fill:#F5C6BD;}
	.st73{fill:#F5C4BC;}
	.st74{fill:#F5C4BB;}
	.st75{fill:#F5C3BA;}
	.st76{fill:#F4C2BA;}
	.st77{fill:#F4C2B8;}
	.st78{fill:#F4C1B8;}
	.st79{fill:#F4C0B7;}
	.st80{fill:#F3BFB5;}
	.st81{fill:#F3BEB5;}
	.st82{fill:#F2BDB4;}
	.st83{fill:#F3BCB3;}
	.st84{fill:#F3BBB2;}
	.st85{fill:#F3BBB1;}
	.st86{fill:#F3BAB0;}
	.st87{fill:#F3B9AF;}
	.st88{fill:#F3B8AE;}
	.st89{fill:#F2B7AD;}
	.st90{fill:#F2B5AC;}
	.st91{fill:#F2B5AB;}
	.st92{fill:#F2B4AA;}
	.st93{fill:#F2B4A9;}
	.st94{fill:#F2B3A8;}
	.st95{fill:#F0B2A7;}
	.st96{fill:#F0B0A5;}
	.st97{fill:#F0AFA4;}
	.st98{fill:#F0AEA3;}
	.st99{fill:#F0ADA2;}
	.st100{fill:#F0ACA1;}
	.st101{fill:#EFACA0;}
	.st102{fill:#EFAB9F;}
	.st103{fill:#EFAA9E;}
	.st104{fill:#F0A99D;}
	.st105{fill:#F0A99C;}
	.st106{fill:#F0A79B;}
	.st107{fill:#EFA79B;}
	.st108{fill:#EFA599;}
	.st109{fill:#EFA498;}
	.st110{fill:#EFA497;}
	.st111{fill:#EFA396;}
	.st112{fill:#EEA294;}
	.st113{fill:#EEA193;}
	.st114{fill:#EEA092;}
	.st115{fill:#EE9F92;}
	.st116{fill:#EE9D91;}
	.st117{fill:#EE9E90;}
	.st118{fill:#EC9D8F;}
	.st119{fill:#ED9B8D;}
	.st120{fill:#ED9A8C;}
	.st121{fill:#ED998B;}
	.st122{fill:#ED988A;}
	.st123{fill:#EC9789;}
	.st124{fill:#EC9788;}
	.st125{fill:#EC9687;}
	.st126{fill:#EC9586;}
	.st127{fill:#EC9485;}
	.st128{fill:#EC9384;}
	.st129{fill:#EB9283;}
	.st130{fill:#EB9182;}
	.st131{fill:#EB9081;}
	.st132{fill:#EB9080;}
	.st133{fill:#EB8F7F;}
	.st134{fill:#EA8E7E;}
	.st135{fill:#EA8D7D;}
	.st136{fill:#EA8C7C;}
	.st137{fill:#EA8B7B;}
	.st138{fill:#EA8A7A;}
	.st139{fill:#EB8979;}
	.st140{fill:#EA8877;}
	.st141{fill:#E98877;}
	.st142{fill:#E98675;}
	.st143{fill:#EA8674;}
	.st144{fill:#E98573;}
	.st145{fill:#E98472;}
	.st146{fill:#E98271;}
	.st147{fill:#E88170;}
	.st148{fill:#E8806F;}
	.st149{fill:#E8806E;}
	.st150{fill:#E87F6D;}
	.st151{fill:#E77E6C;}
	.st152{fill:#E77D6B;}
	.st153{fill:#E77C6A;}
	.st154{fill:#E67B69;}
	.st155{fill:#E67B68;}
	.st156{fill:#E67A67;}
	.st157{fill:#E67A66;}
	.st158{fill:#E67965;}
	.st159{fill:#E67864;}
	.st160{fill:#E57763;}
	.st161{fill:#E57562;}
	.st162{fill:#E57461;}
	.st163{fill:#E57360;}
	.st164{fill:#E5735F;}
	.st165{fill:#E5735E;}
	.st166{fill:#E4725D;}
	.st167{fill:#E4715C;}
	.st168{fill:#E5705B;}
	.st169{fill:#E56F5A;}
	.st170{fill:#E46D59;}
	.st171{fill:#E56C58;}
	.st172{fill:#E46B58;}
	.st173{fill:#E46A57;}
	.st174{fill:#E46A56;}
	.st175{fill:#E46A55;}
	.st176{fill:#E56954;}
	.st177{fill:#E56852;}
	.st178{fill:#E36752;}
	.st179{fill:#E46650;}
	.st180{fill:#E4654F;}
	.st181{fill:#E3634E;}
	.st182{fill:#E3634D;}
	.st183{fill:#E3624C;}
	.st184{fill:#E2614B;}
	.st185{fill:#E2604A;}
	.st186{fill:#E25F49;}
	.st187{fill:#E25E48;}
	.st188{fill:#E25D47;}
	.st189{fill:#E15D46;}
	.st190{fill:#E05D45;}
	.st191{fill:#E05C44;}
	.st192{fill:#E05B43;}
	.st193{fill:#E05A42;}
	.st194{fill:#E05941;}
	.st195{fill:#E05840;}
	.st196{fill:#DF573F;}
	.st197{fill:#DF563E;}
	.st198{fill:#DF563D;}
	.st199{fill:#DF553C;}
	.st200{fill:#E0543B;}
	.st201{fill:#E0533A;}
	.st202{fill:#DF5239;}
	.st203{fill:#DF5138;}
	.st204{fill:#DF5038;}
	.st205{fill:#DF4F36;}
	.st206{fill:#DF4E36;}
	.st207{fill:#DF4D35;}
	.st208{fill:#DE4D34;}
	.st209{fill:#DE4C33;}
	.st210{fill:#DE4B32;}
	.st211{fill:#DE4A31;}
	.st212{fill:#DE4930;}
	.st213{fill:#DE482F;}
	.st214{fill:#DD472E;}
	.st215{fill:#DD472D;}
	.st216{fill:#DC462B;}
	.st217{fill:#DC452A;}
	.st218{fill:#DC4429;}
	.st219{fill:#DD4428;}
	.st220{fill:#DC4327;}
	.st221{fill:#DC4226;}
	.st222{fill:#DB4125;}
	.st223{fill:#DB4124;}
	.st224{fill:#DC4023;}
	.st225{fill:#DC3E21;}
	.st226{fill:#DB3D21;}
	.st227{fill:#DB3C1F;}
	.st228{fill:#DB3B1D;}
	.st229{fill:#DB3A1C;}
	.st230{fill:#DB3A1B;}
	.st231{fill:#DA391A;}
	.st232{fill:#DA3919;}
	.st233{fill:#DA3818;}
	.st234{fill:#DA3618;}
	.st235{fill:#F9FDFF;}
	.st236{fill:#245C96;}
	.st237{fill:none;}
	.st238{fill:#EA8E35;}
	.st239{opacity:0.6;fill:#EA8E35;enable-background:new    ;}
	.st240{fill:#97D4E3;}
	.st241{fill:#F6F6F6;}
	.st242{fill:none;stroke:#DA91BC;stroke-width:0.5;stroke-linecap:round;}
	.st243{fill:#562F23;}
</style>
<g id="XMLID_1150_">
	
		<ellipse id="XMLID_1159_" transform="matrix(-0.3221 -0.9467 0.9467 -0.3221 -39.2258 116.4966)" class="st0" cx="22.1" cy="72.3" rx="3.2" ry="13.5"/>
	<path id="XMLID_1151_" class="st1" d="M33.2,70.9c-0.4,0.3-0.8,0.6-1.2,0.8c-2.2,1.4-5.4,2.8-8.8,4C16.9,77.9,9.8,79,9,76.8
		s5.6-5.7,11.9-7.9c3.4-1.2,6.8-1.9,9.4-2.2c2-0.2,4.4-0.1,4.9,1.1l0,0C35.5,68.8,34.5,70,33.2,70.9z M11.4,74.3
		c-1.3,1-1.9,1.8-1.7,2.2c0.4,1.1,5.7,1.1,13.4-1.5c3.4-1.2,6.5-2.5,8.6-3.9c2.4-1.5,3-2.5,2.8-3l0,0c-0.2-0.5-1.3-0.9-4.1-0.7
		c-2.6,0.2-5.9,1-9.2,2.2C16.6,71.1,13.3,72.9,11.4,74.3z"/>
</g>
<g id="XMLID_1142_">
	<path id="XMLID_1147_" class="st1" d="M75.7,29.8c0-0.1,0.1-0.2,0.3-0.3c0.4-0.1,1,0.2,1.9,0.8v-0.1c0.1,0,6.6,2.8,7.9,2.6
		c1-0.1,3-0.6,4.5-2.7c1.4-1.9,2.6-2.6,2.7-2.6l0.3-0.2l-0.1,0.3c-0.5,1.1-0.9,2.3-0.8,2.5c0.1,0.3,1.1,1.7,1.7,2.4l0.1,0.1H94
		c0,0-3.2,0.9-4.9,1.2l-1.2,0.3c-1.4,0.4-3,0.8-4.6-0.2c-1.1-0.6-1.9-1-2.5-1.2l4.3,3.9c0.1,0.1,2.5,1.9,5.1,0
		c2.8-1.9,6.7-3.3,6.7-3.3l0.4-0.1l-0.2,0.3c-0.4,0.5-0.8,1.3-0.8,1.5c0,0.3,0.6,1.7,0.8,2.3l0.1,0.1h-0.1c-0.1,0-5.6,1.1-6.9,1.9
		c-0.9,0.5-3.8,1.9-5.5-0.2c-1.4-1.7-5.6-6.1-5.6-6.2L75.7,29.8L75.7,29.8z"/>
	<path id="XMLID_1146_" class="st0" d="M79.1,31.3L79.1,31.3L79.1,31.3c-0.3-0.2-0.5-0.4-0.7-0.6c1.6,0.7,6.4,2.6,7.5,2.4
		c1.1-0.1,3.1-0.6,4.7-2.8c0.9-1.3,1.8-2,2.2-2.3c-0.3,0.7-0.7,1.8-0.7,2.2v0.1c0.1,0.1,0.3,0.5,0.6,1c-1.1,0.4-6.4,2.2-7.7,2.3
		C84,33.7,80.5,32,79.1,31.3z"/>
	<path id="XMLID_1145_" class="st2" d="M89,33.8L87.9,34c-1.4,0.4-2.9,0.8-4.4-0.1c-1.7-1-2.8-1.4-3.1-1.5l-1.2-1.1
		c1.4,0.7,4.9,2.4,6,2.3c1.3-0.1,6.7-1.9,7.7-2.3c0.4,0.5,0.8,1.1,0.9,1.4C93.1,32.8,90.5,33.5,89,33.8z"/>
	<path id="XMLID_1144_" class="st2" d="M76.1,29.7c0,0,0.1,0,0.2,0c0.8,0.7,5.6,5.1,7,6.6c1.6,1.6,2.6,3.6,4.4,2.7
		c1.6-0.9,7.4-3,8.5-3.4c0.2,0.6,0.5,1.5,0.6,1.8c-0.9,0.2-5.6,1.2-6.9,1.9c-0.8,0.4-3.6,1.8-5.2-0.1c-1.4-1.7-5.6-6.1-5.6-6.2
		c0,0-3.1-3.1-3.2-3.2C76,29.8,76.1,29.7,76.1,29.7z"/>
	<path id="XMLID_1143_" class="st0" d="M83.3,36.3c-1.5-1.5-6.3-5.9-7-6.6c0.3,0,1.1,0.3,2.6,1.8l1.3,1.1l0,0c0,0,0,0,0.1,0l4.8,4.3
		c0,0,2.6,2,5.5,0c2.3-1.6,5.3-2.8,6.3-3.1c-0.3,0.4-0.7,1.1-0.6,1.4c0,0.1,0,0.2,0.1,0.4c-1,0.4-6.8,2.5-8.5,3.4
		C86,39.9,85,37.9,83.3,36.3z"/>
</g>
<circle id="XMLID_1139_" class="st3" cx="73.6" cy="26.7" r="5.6"/>
<path id="XMLID_1138_" class="st4" d="M60.9,104.7h-5.4C39.3,104.7,26,91.4,26,75.2v-19C26,40,39.3,26.7,55.5,26.7h5.4
	c16.2,0,29.5,13.3,29.5,29.5v19C90.4,91.4,77.1,104.7,60.9,104.7z"/>
<path id="XMLID_1135_" class="st5" d="M57.9,62.5c-18.4,0-29.5,14.4-29.5,0v-5.6c0-14.3,11.7-26.1,26.1-26.1h6.8
	c14.3,0,26.1,11.7,26.1,26.1v5.6C87.3,76.8,76.2,62.5,57.9,62.5z"/>
<path id="XMLID_1132_" class="st6" d="M60.9,104.7h-5.4C39.3,104.7,26,91.4,26,75.2v-19C26,40,39.3,26.7,55.5,26.7h5.4
	c16.2,0,29.5,13.3,29.5,29.5v19C90.4,91.4,77.1,104.7,60.9,104.7z"/>
<path id="XMLID_1131_" class="st0" d="M68.2,25.2c0,0,7.1,4.4,10.1,4.4c-0.7,1.1-0.8,1-0.8,1s-4.4-1.2-9.5-4.2
	C68.1,25.3,68.2,25.2,68.2,25.2z"/>
<g id="XMLID_963_" class="st7">
	<ellipse id="XMLID_1393_" class="st0" cx="59.2" cy="66.6" rx="21.7" ry="13.5"/>
	<ellipse id="XMLID_1392_" class="st0" cx="59.2" cy="66.6" rx="21.6" ry="13.4"/>
	<ellipse id="XMLID_1391_" class="st8" cx="59.2" cy="66.6" rx="21.5" ry="13.4"/>
	<ellipse id="XMLID_1390_" class="st9" cx="59.2" cy="66.6" rx="21.5" ry="13.3"/>
	<ellipse id="XMLID_1389_" class="st10" cx="59.2" cy="66.6" rx="21.4" ry="13.3"/>
	<ellipse id="XMLID_1388_" class="st11" cx="59.2" cy="66.6" rx="21.3" ry="13.2"/>
	<ellipse id="XMLID_1387_" class="st12" cx="59.2" cy="66.6" rx="21.2" ry="13.2"/>
	<ellipse id="XMLID_1386_" class="st13" cx="59.2" cy="66.6" rx="21.1" ry="13.2"/>
	<ellipse id="XMLID_1385_" class="st14" cx="59.2" cy="66.6" rx="21.1" ry="13.1"/>
	<ellipse id="XMLID_1384_" class="st15" cx="59.2" cy="66.6" rx="21" ry="13.1"/>
	<ellipse id="XMLID_1383_" class="st16" cx="59.2" cy="66.6" rx="20.9" ry="13"/>
	<ellipse id="XMLID_1382_" class="st17" cx="59.2" cy="66.6" rx="20.8" ry="13"/>
	<ellipse id="XMLID_1381_" class="st18" cx="59.2" cy="66.6" rx="20.7" ry="12.9"/>
	<ellipse id="XMLID_1380_" class="st19" cx="59.2" cy="66.6" rx="20.7" ry="12.9"/>
	<ellipse id="XMLID_1379_" class="st20" cx="59.2" cy="66.6" rx="20.6" ry="12.8"/>
	<ellipse id="XMLID_1378_" class="st21" cx="59.2" cy="66.6" rx="20.5" ry="12.8"/>
	<ellipse id="XMLID_1377_" class="st22" cx="59.2" cy="66.6" rx="20.4" ry="12.7"/>
	<ellipse id="XMLID_1376_" class="st23" cx="59.2" cy="66.6" rx="20.3" ry="12.7"/>
	<ellipse id="XMLID_1375_" class="st24" cx="59.2" cy="66.6" rx="20.3" ry="12.6"/>
	<ellipse id="XMLID_1374_" class="st25" cx="59.2" cy="66.6" rx="20.2" ry="12.6"/>
	<ellipse id="XMLID_1373_" class="st26" cx="59.2" cy="66.6" rx="20.1" ry="12.5"/>
	<ellipse id="XMLID_1372_" class="st27" cx="59.2" cy="66.6" rx="20" ry="12.5"/>
	<ellipse id="XMLID_1371_" class="st28" cx="59.2" cy="66.6" rx="19.9" ry="12.4"/>
	<ellipse id="XMLID_1370_" class="st29" cx="59.2" cy="66.6" rx="19.9" ry="12.4"/>
	<ellipse id="XMLID_1369_" class="st30" cx="59.2" cy="66.6" rx="19.8" ry="12.3"/>
	<ellipse id="XMLID_1368_" class="st31" cx="59.2" cy="66.6" rx="19.7" ry="12.3"/>
	<ellipse id="XMLID_1367_" class="st32" cx="59.2" cy="66.6" rx="19.6" ry="12.2"/>
	<ellipse id="XMLID_1366_" class="st33" cx="59.2" cy="66.6" rx="19.5" ry="12.2"/>
	<ellipse id="XMLID_1365_" class="st34" cx="59.2" cy="66.6" rx="19.5" ry="12.1"/>
	<ellipse id="XMLID_1364_" class="st35" cx="59.2" cy="66.6" rx="19.4" ry="12.1"/>
	<ellipse id="XMLID_1363_" class="st36" cx="59.2" cy="66.6" rx="19.3" ry="12"/>
	<ellipse id="XMLID_1362_" class="st37" cx="59.2" cy="66.6" rx="19.2" ry="12"/>
	<ellipse id="XMLID_1361_" class="st38" cx="59.2" cy="66.6" rx="19.1" ry="11.9"/>
	<ellipse id="XMLID_1360_" class="st39" cx="59.2" cy="66.6" rx="19.1" ry="11.9"/>
	<ellipse id="XMLID_1359_" class="st40" cx="59.2" cy="66.6" rx="19" ry="11.8"/>
	<ellipse id="XMLID_1358_" class="st41" cx="59.2" cy="66.6" rx="18.9" ry="11.8"/>
	<ellipse id="XMLID_1357_" class="st42" cx="59.2" cy="66.6" rx="18.8" ry="11.7"/>
	<ellipse id="XMLID_1356_" class="st43" cx="59.2" cy="66.6" rx="18.8" ry="11.7"/>
	<ellipse id="XMLID_1355_" class="st44" cx="59.2" cy="66.6" rx="18.7" ry="11.6"/>
	<ellipse id="XMLID_1354_" class="st45" cx="59.2" cy="66.6" rx="18.6" ry="11.6"/>
	<ellipse id="XMLID_1353_" class="st46" cx="59.2" cy="66.6" rx="18.5" ry="11.5"/>
	<ellipse id="XMLID_1352_" class="st47" cx="59.2" cy="66.6" rx="18.4" ry="11.5"/>
	<ellipse id="XMLID_1351_" class="st48" cx="59.2" cy="66.6" rx="18.4" ry="11.4"/>
	<ellipse id="XMLID_1350_" class="st49" cx="59.2" cy="66.6" rx="18.3" ry="11.4"/>
	<ellipse id="XMLID_1349_" class="st50" cx="59.2" cy="66.6" rx="18.2" ry="11.3"/>
	<ellipse id="XMLID_1348_" class="st51" cx="59.2" cy="66.6" rx="18.1" ry="11.3"/>
	<ellipse id="XMLID_1347_" class="st52" cx="59.2" cy="66.6" rx="18" ry="11.2"/>
	<ellipse id="XMLID_1346_" class="st53" cx="59.2" cy="66.6" rx="18" ry="11.2"/>
	<ellipse id="XMLID_1345_" class="st54" cx="59.2" cy="66.6" rx="17.9" ry="11.1"/>
	<ellipse id="XMLID_1344_" class="st55" cx="59.2" cy="66.6" rx="17.8" ry="11.1"/>
	<ellipse id="XMLID_1343_" class="st56" cx="59.2" cy="66.6" rx="17.7" ry="11"/>
	<ellipse id="XMLID_1342_" class="st57" cx="59.2" cy="66.6" rx="17.6" ry="11"/>
	<ellipse id="XMLID_1341_" class="st58" cx="59.2" cy="66.6" rx="17.6" ry="10.9"/>
	<ellipse id="XMLID_1340_" class="st59" cx="59.2" cy="66.6" rx="17.5" ry="10.9"/>
	<ellipse id="XMLID_1339_" class="st60" cx="59.2" cy="66.6" rx="17.4" ry="10.8"/>
	<ellipse id="XMLID_1338_" class="st61" cx="59.2" cy="66.6" rx="17.3" ry="10.8"/>
	<ellipse id="XMLID_1337_" class="st62" cx="59.2" cy="66.6" rx="17.2" ry="10.7"/>
	<ellipse id="XMLID_1336_" class="st63" cx="59.2" cy="66.6" rx="17.2" ry="10.7"/>
	<ellipse id="XMLID_1335_" class="st64" cx="59.2" cy="66.6" rx="17.1" ry="10.6"/>
	<ellipse id="XMLID_1334_" class="st65" cx="59.2" cy="66.6" rx="17" ry="10.6"/>
	<ellipse id="XMLID_1333_" class="st66" cx="59.2" cy="66.6" rx="16.9" ry="10.5"/>
	<ellipse id="XMLID_1332_" class="st67" cx="59.2" cy="66.6" rx="16.8" ry="10.5"/>
	<ellipse id="XMLID_1331_" class="st68" cx="59.2" cy="66.6" rx="16.8" ry="10.4"/>
	<ellipse id="XMLID_1330_" class="st69" cx="59.2" cy="66.6" rx="16.7" ry="10.4"/>
	<ellipse id="XMLID_1329_" class="st70" cx="59.2" cy="66.6" rx="16.6" ry="10.3"/>
	<ellipse id="XMLID_1328_" class="st71" cx="59.2" cy="66.6" rx="16.5" ry="10.3"/>
	<ellipse id="XMLID_1327_" class="st72" cx="59.2" cy="66.6" rx="16.5" ry="10.2"/>
	<ellipse id="XMLID_1326_" class="st73" cx="59.2" cy="66.6" rx="16.4" ry="10.2"/>
	<ellipse id="XMLID_1325_" class="st74" cx="59.2" cy="66.6" rx="16.3" ry="10.1"/>
	<ellipse id="XMLID_1324_" class="st75" cx="59.2" cy="66.6" rx="16.2" ry="10.1"/>
	<ellipse id="XMLID_1323_" class="st76" cx="59.2" cy="66.6" rx="16.1" ry="10"/>
	<ellipse id="XMLID_1322_" class="st77" cx="59.2" cy="66.6" rx="16.1" ry="10"/>
	<ellipse id="XMLID_1321_" class="st78" cx="59.2" cy="66.6" rx="16" ry="9.9"/>
	<ellipse id="XMLID_1320_" class="st79" cx="59.2" cy="66.6" rx="15.9" ry="9.9"/>
	<ellipse id="XMLID_1319_" class="st80" cx="59.2" cy="66.6" rx="15.8" ry="9.8"/>
	<ellipse id="XMLID_1318_" class="st81" cx="59.2" cy="66.6" rx="15.7" ry="9.8"/>
	<ellipse id="XMLID_1317_" class="st82" cx="59.2" cy="66.6" rx="15.7" ry="9.7"/>
	<ellipse id="XMLID_1316_" class="st83" cx="59.2" cy="66.6" rx="15.6" ry="9.7"/>
	<ellipse id="XMLID_1315_" class="st84" cx="59.2" cy="66.6" rx="15.5" ry="9.6"/>
	<ellipse id="XMLID_1314_" class="st85" cx="59.2" cy="66.6" rx="15.4" ry="9.6"/>
	<ellipse id="XMLID_1313_" class="st86" cx="59.2" cy="66.6" rx="15.3" ry="9.5"/>
	<ellipse id="XMLID_1312_" class="st87" cx="59.2" cy="66.6" rx="15.3" ry="9.5"/>
	<ellipse id="XMLID_1311_" class="st88" cx="59.2" cy="66.6" rx="15.2" ry="9.4"/>
	<ellipse id="XMLID_1310_" class="st89" cx="59.2" cy="66.6" rx="15.1" ry="9.4"/>
	<ellipse id="XMLID_1309_" class="st90" cx="59.2" cy="66.6" rx="15" ry="9.3"/>
	<ellipse id="XMLID_1308_" class="st91" cx="59.2" cy="66.6" rx="14.9" ry="9.3"/>
	<ellipse id="XMLID_1307_" class="st92" cx="59.2" cy="66.6" rx="14.9" ry="9.2"/>
	<ellipse id="XMLID_1306_" class="st93" cx="59.2" cy="66.6" rx="14.8" ry="9.2"/>
	<ellipse id="XMLID_1305_" class="st94" cx="59.2" cy="66.6" rx="14.7" ry="9.1"/>
	<ellipse id="XMLID_1304_" class="st95" cx="59.2" cy="66.6" rx="14.6" ry="9.1"/>
	<ellipse id="XMLID_1303_" class="st96" cx="59.2" cy="66.6" rx="14.5" ry="9.1"/>
	<ellipse id="XMLID_1302_" class="st97" cx="59.2" cy="66.6" rx="14.5" ry="9"/>
	<ellipse id="XMLID_1301_" class="st98" cx="59.2" cy="66.6" rx="14.4" ry="9"/>
	<ellipse id="XMLID_1300_" class="st99" cx="59.2" cy="66.6" rx="14.3" ry="8.9"/>
	<ellipse id="XMLID_1299_" class="st100" cx="59.2" cy="66.6" rx="14.2" ry="8.9"/>
	<ellipse id="XMLID_1298_" class="st101" cx="59.2" cy="66.6" rx="14.1" ry="8.8"/>
	<ellipse id="XMLID_1297_" class="st102" cx="59.2" cy="66.6" rx="14.1" ry="8.8"/>
	<ellipse id="XMLID_1296_" class="st103" cx="59.2" cy="66.6" rx="14" ry="8.7"/>
	<ellipse id="XMLID_1295_" class="st104" cx="59.2" cy="66.6" rx="13.9" ry="8.7"/>
	<ellipse id="XMLID_1294_" class="st105" cx="59.2" cy="66.6" rx="13.8" ry="8.6"/>
	<ellipse id="XMLID_1293_" class="st106" cx="59.2" cy="66.6" rx="13.8" ry="8.6"/>
	<ellipse id="XMLID_1292_" class="st107" cx="59.2" cy="66.6" rx="13.7" ry="8.5"/>
	<ellipse id="XMLID_1291_" class="st108" cx="59.2" cy="66.6" rx="13.6" ry="8.5"/>
	<ellipse id="XMLID_1290_" class="st109" cx="59.2" cy="66.6" rx="13.5" ry="8.4"/>
	<ellipse id="XMLID_1289_" class="st109" cx="59.2" cy="66.6" rx="13.4" ry="8.4"/>
	<ellipse id="XMLID_1288_" class="st110" cx="59.2" cy="66.6" rx="13.4" ry="8.3"/>
	<ellipse id="XMLID_1287_" class="st111" cx="59.2" cy="66.6" rx="13.3" ry="8.3"/>
	<ellipse id="XMLID_1286_" class="st112" cx="59.2" cy="66.6" rx="13.2" ry="8.2"/>
	<ellipse id="XMLID_1285_" class="st113" cx="59.2" cy="66.6" rx="13.1" ry="8.2"/>
	<ellipse id="XMLID_1284_" class="st114" cx="59.2" cy="66.6" rx="13" ry="8.1"/>
	<ellipse id="XMLID_1283_" class="st115" cx="59.2" cy="66.6" rx="13" ry="8.1"/>
	<ellipse id="XMLID_1282_" class="st116" cx="59.2" cy="66.6" rx="12.9" ry="8"/>
	<ellipse id="XMLID_1281_" class="st117" cx="59.2" cy="66.6" rx="12.8" ry="8"/>
	<ellipse id="XMLID_1280_" class="st118" cx="59.2" cy="66.6" rx="12.7" ry="7.9"/>
	<ellipse id="XMLID_1279_" class="st119" cx="59.2" cy="66.6" rx="12.6" ry="7.9"/>
	<ellipse id="XMLID_1278_" class="st119" cx="59.2" cy="66.6" rx="12.6" ry="7.8"/>
	<ellipse id="XMLID_1277_" class="st120" cx="59.2" cy="66.6" rx="12.5" ry="7.8"/>
	<ellipse id="XMLID_1276_" class="st121" cx="59.2" cy="66.6" rx="12.4" ry="7.7"/>
	<ellipse id="XMLID_1275_" class="st122" cx="59.2" cy="66.6" rx="12.3" ry="7.7"/>
	<ellipse id="XMLID_1274_" class="st123" cx="59.2" cy="66.6" rx="12.2" ry="7.6"/>
	<ellipse id="XMLID_1273_" class="st124" cx="59.2" cy="66.6" rx="12.2" ry="7.6"/>
	<ellipse id="XMLID_1272_" class="st125" cx="59.2" cy="66.6" rx="12.1" ry="7.5"/>
	<ellipse id="XMLID_1271_" class="st126" cx="59.2" cy="66.6" rx="12" ry="7.5"/>
	<ellipse id="XMLID_1270_" class="st127" cx="59.2" cy="66.6" rx="11.9" ry="7.4"/>
	<ellipse id="XMLID_1269_" class="st128" cx="59.2" cy="66.6" rx="11.8" ry="7.4"/>
	<ellipse id="XMLID_1268_" class="st129" cx="59.2" cy="66.6" rx="11.8" ry="7.3"/>
	<ellipse id="XMLID_1267_" class="st130" cx="59.2" cy="66.6" rx="11.7" ry="7.3"/>
	<ellipse id="XMLID_1266_" class="st131" cx="59.2" cy="66.6" rx="11.6" ry="7.2"/>
	<ellipse id="XMLID_1265_" class="st132" cx="59.2" cy="66.6" rx="11.5" ry="7.2"/>
	<ellipse id="XMLID_1264_" class="st133" cx="59.2" cy="66.6" rx="11.4" ry="7.1"/>
	<ellipse id="XMLID_1263_" class="st134" cx="59.2" cy="66.6" rx="11.4" ry="7.1"/>
	<ellipse id="XMLID_1262_" class="st135" cx="59.2" cy="66.6" rx="11.3" ry="7"/>
	<ellipse id="XMLID_1261_" class="st136" cx="59.2" cy="66.6" rx="11.2" ry="7"/>
	<ellipse id="XMLID_1260_" class="st137" cx="59.2" cy="66.6" rx="11.1" ry="6.9"/>
	<ellipse id="XMLID_1259_" class="st138" cx="59.2" cy="66.6" rx="11.1" ry="6.9"/>
	<ellipse id="XMLID_1258_" class="st139" cx="59.2" cy="66.6" rx="11" ry="6.8"/>
	<ellipse id="XMLID_1257_" class="st140" cx="59.2" cy="66.6" rx="10.9" ry="6.8"/>
	<ellipse id="XMLID_1256_" class="st141" cx="59.2" cy="66.6" rx="10.8" ry="6.7"/>
	<ellipse id="XMLID_1255_" class="st142" cx="59.2" cy="66.6" rx="10.7" ry="6.7"/>
	<ellipse id="XMLID_1254_" class="st143" cx="59.2" cy="66.6" rx="10.7" ry="6.6"/>
	<ellipse id="XMLID_1253_" class="st144" cx="59.2" cy="66.6" rx="10.6" ry="6.6"/>
	<ellipse id="XMLID_1252_" class="st145" cx="59.2" cy="66.6" rx="10.5" ry="6.5"/>
	<ellipse id="XMLID_1251_" class="st146" cx="59.2" cy="66.6" rx="10.4" ry="6.5"/>
	<ellipse id="XMLID_1250_" class="st147" cx="59.2" cy="66.6" rx="10.3" ry="6.4"/>
	<ellipse id="XMLID_1249_" class="st148" cx="59.2" cy="66.6" rx="10.3" ry="6.4"/>
	<ellipse id="XMLID_1248_" class="st149" cx="59.2" cy="66.6" rx="10.2" ry="6.3"/>
	<ellipse id="XMLID_1247_" class="st150" cx="59.2" cy="66.6" rx="10.1" ry="6.3"/>
	<ellipse id="XMLID_1246_" class="st151" cx="59.2" cy="66.6" rx="10" ry="6.2"/>
	<ellipse id="XMLID_1245_" class="st152" cx="59.2" cy="66.6" rx="9.9" ry="6.2"/>
	<ellipse id="XMLID_1244_" class="st153" cx="59.2" cy="66.6" rx="9.9" ry="6.1"/>
	<ellipse id="XMLID_1243_" class="st154" cx="59.2" cy="66.6" rx="9.8" ry="6.1"/>
	<ellipse id="XMLID_1242_" class="st155" cx="59.2" cy="66.6" rx="9.7" ry="6"/>
	<ellipse id="XMLID_1241_" class="st156" cx="59.2" cy="66.6" rx="9.6" ry="6"/>
	<ellipse id="XMLID_1240_" class="st157" cx="59.2" cy="66.6" rx="9.5" ry="5.9"/>
	<ellipse id="XMLID_1239_" class="st158" cx="59.2" cy="66.6" rx="9.5" ry="5.9"/>
	<ellipse id="XMLID_1238_" class="st159" cx="59.2" cy="66.6" rx="9.4" ry="5.8"/>
	<ellipse id="XMLID_1237_" class="st160" cx="59.2" cy="66.6" rx="9.3" ry="5.8"/>
	<ellipse id="XMLID_1236_" class="st161" cx="59.2" cy="66.6" rx="9.2" ry="5.7"/>
	<ellipse id="XMLID_1235_" class="st162" cx="59.2" cy="66.6" rx="9.1" ry="5.7"/>
	<ellipse id="XMLID_1234_" class="st163" cx="59.2" cy="66.6" rx="9.1" ry="5.6"/>
	<ellipse id="XMLID_1233_" class="st164" cx="59.2" cy="66.6" rx="9" ry="5.6"/>
	<ellipse id="XMLID_1232_" class="st165" cx="59.2" cy="66.6" rx="8.9" ry="5.5"/>
	<ellipse id="XMLID_1231_" class="st166" cx="59.2" cy="66.6" rx="8.8" ry="5.5"/>
	<ellipse id="XMLID_1230_" class="st167" cx="59.2" cy="66.6" rx="8.8" ry="5.4"/>
	<ellipse id="XMLID_1229_" class="st168" cx="59.2" cy="66.6" rx="8.7" ry="5.4"/>
	<ellipse id="XMLID_1228_" class="st169" cx="59.2" cy="66.6" rx="8.6" ry="5.3"/>
	<ellipse id="XMLID_1227_" class="st170" cx="59.2" cy="66.6" rx="8.5" ry="5.3"/>
	<ellipse id="XMLID_1226_" class="st171" cx="59.2" cy="66.6" rx="8.4" ry="5.2"/>
	<ellipse id="XMLID_1225_" class="st172" cx="59.2" cy="66.6" rx="8.4" ry="5.2"/>
	<ellipse id="XMLID_1224_" class="st173" cx="59.2" cy="66.6" rx="8.3" ry="5.1"/>
	<ellipse id="XMLID_1223_" class="st174" cx="59.2" cy="66.6" rx="8.2" ry="5.1"/>
	<ellipse id="XMLID_1222_" class="st175" cx="59.2" cy="66.6" rx="8.1" ry="5"/>
	<ellipse id="XMLID_1221_" class="st176" cx="59.2" cy="66.6" rx="8" ry="5"/>
	<ellipse id="XMLID_1220_" class="st177" cx="59.2" cy="66.6" rx="8" ry="5"/>
	<ellipse id="XMLID_1219_" class="st178" cx="59.2" cy="66.6" rx="7.9" ry="4.9"/>
	<ellipse id="XMLID_1218_" class="st179" cx="59.2" cy="66.6" rx="7.8" ry="4.9"/>
	<ellipse id="XMLID_1217_" class="st180" cx="59.2" cy="66.6" rx="7.7" ry="4.8"/>
	<ellipse id="XMLID_1216_" class="st181" cx="59.2" cy="66.6" rx="7.6" ry="4.8"/>
	<ellipse id="XMLID_1215_" class="st182" cx="59.2" cy="66.6" rx="7.6" ry="4.7"/>
	<ellipse id="XMLID_1214_" class="st183" cx="59.2" cy="66.6" rx="7.5" ry="4.7"/>
	<ellipse id="XMLID_1213_" class="st184" cx="59.2" cy="66.6" rx="7.4" ry="4.6"/>
	<ellipse id="XMLID_1212_" class="st185" cx="59.2" cy="66.6" rx="7.3" ry="4.6"/>
	<ellipse id="XMLID_1211_" class="st186" cx="59.2" cy="66.6" rx="7.2" ry="4.5"/>
	<ellipse id="XMLID_1210_" class="st187" cx="59.2" cy="66.6" rx="7.2" ry="4.5"/>
	<ellipse id="XMLID_1209_" class="st188" cx="59.2" cy="66.6" rx="7.1" ry="4.4"/>
	<ellipse id="XMLID_1208_" class="st189" cx="59.2" cy="66.6" rx="7" ry="4.4"/>
	<ellipse id="XMLID_1207_" class="st190" cx="59.2" cy="66.6" rx="6.9" ry="4.3"/>
	<ellipse id="XMLID_1206_" class="st191" cx="59.2" cy="66.6" rx="6.8" ry="4.3"/>
	<ellipse id="XMLID_1205_" class="st192" cx="59.2" cy="66.6" rx="6.8" ry="4.2"/>
	<ellipse id="XMLID_1204_" class="st193" cx="59.2" cy="66.6" rx="6.7" ry="4.2"/>
	<ellipse id="XMLID_1203_" class="st194" cx="59.2" cy="66.6" rx="6.6" ry="4.1"/>
	<ellipse id="XMLID_1202_" class="st195" cx="59.2" cy="66.6" rx="6.5" ry="4.1"/>
	<ellipse id="XMLID_1201_" class="st196" cx="59.2" cy="66.6" rx="6.4" ry="4"/>
	<ellipse id="XMLID_1200_" class="st197" cx="59.2" cy="66.6" rx="6.4" ry="4"/>
	<ellipse id="XMLID_1199_" class="st198" cx="59.2" cy="66.6" rx="6.3" ry="3.9"/>
	<ellipse id="XMLID_1198_" class="st199" cx="59.2" cy="66.6" rx="6.2" ry="3.9"/>
	<ellipse id="XMLID_1197_" class="st200" cx="59.2" cy="66.6" rx="6.1" ry="3.8"/>
	<ellipse id="XMLID_1196_" class="st201" cx="59.2" cy="66.6" rx="6.1" ry="3.8"/>
	<ellipse id="XMLID_1195_" class="st202" cx="59.2" cy="66.6" rx="6" ry="3.7"/>
	<ellipse id="XMLID_1194_" class="st203" cx="59.2" cy="66.6" rx="5.9" ry="3.7"/>
	<ellipse id="XMLID_1193_" class="st204" cx="59.2" cy="66.6" rx="5.8" ry="3.6"/>
	<ellipse id="XMLID_1192_" class="st205" cx="59.2" cy="66.6" rx="5.7" ry="3.6"/>
	<ellipse id="XMLID_1191_" class="st206" cx="59.2" cy="66.6" rx="5.7" ry="3.5"/>
	<ellipse id="XMLID_1190_" class="st207" cx="59.2" cy="66.6" rx="5.6" ry="3.5"/>
	<ellipse id="XMLID_1189_" class="st208" cx="59.2" cy="66.6" rx="5.5" ry="3.4"/>
	<ellipse id="XMLID_1188_" class="st209" cx="59.2" cy="66.6" rx="5.4" ry="3.4"/>
	<ellipse id="XMLID_1187_" class="st210" cx="59.2" cy="66.6" rx="5.3" ry="3.3"/>
	<ellipse id="XMLID_1186_" class="st211" cx="59.2" cy="66.6" rx="5.3" ry="3.3"/>
	<ellipse id="XMLID_1185_" class="st212" cx="59.2" cy="66.6" rx="5.2" ry="3.2"/>
	<ellipse id="XMLID_1184_" class="st213" cx="59.2" cy="66.6" rx="5.1" ry="3.2"/>
	<ellipse id="XMLID_1183_" class="st214" cx="59.2" cy="66.6" rx="5" ry="3.1"/>
	<ellipse id="XMLID_1182_" class="st215" cx="59.2" cy="66.6" rx="4.9" ry="3.1"/>
	<ellipse id="XMLID_1177_" class="st216" cx="59.2" cy="66.6" rx="4.9" ry="3"/>
	<ellipse id="XMLID_1176_" class="st217" cx="59.2" cy="66.6" rx="4.8" ry="3"/>
	<ellipse id="XMLID_1175_" class="st218" cx="59.2" cy="66.6" rx="4.7" ry="2.9"/>
	<ellipse id="XMLID_1173_" class="st219" cx="59.2" cy="66.6" rx="4.6" ry="2.9"/>
	<ellipse id="XMLID_1172_" class="st220" cx="59.2" cy="66.6" rx="4.5" ry="2.8"/>
	<ellipse id="XMLID_1171_" class="st221" cx="59.2" cy="66.6" rx="4.5" ry="2.8"/>
	<ellipse id="XMLID_1170_" class="st222" cx="59.2" cy="66.6" rx="4.4" ry="2.7"/>
	<ellipse id="XMLID_1169_" class="st223" cx="59.2" cy="66.6" rx="4.3" ry="2.7"/>
	<ellipse id="XMLID_1168_" class="st224" cx="59.2" cy="66.6" rx="4.2" ry="2.6"/>
	<ellipse id="XMLID_1167_" class="st225" cx="59.2" cy="66.6" rx="4.1" ry="2.6"/>
	<ellipse id="XMLID_1166_" class="st226" cx="59.2" cy="66.6" rx="4.1" ry="2.5"/>
	<ellipse id="XMLID_1165_" class="st227" cx="59.2" cy="66.6" rx="4" ry="2.5"/>
	<ellipse id="XMLID_1164_" class="st227" cx="59.2" cy="66.6" rx="3.9" ry="2.4"/>
	<ellipse id="XMLID_1156_" class="st228" cx="59.2" cy="66.6" rx="3.8" ry="2.4"/>
	<ellipse id="XMLID_1124_" class="st229" cx="59.2" cy="66.6" rx="3.7" ry="2.3"/>
	<ellipse id="XMLID_1114_" class="st230" cx="59.2" cy="66.6" rx="3.7" ry="2.3"/>
	<ellipse id="XMLID_1108_" class="st231" cx="59.2" cy="66.6" rx="3.6" ry="2.2"/>
	<ellipse id="XMLID_1107_" class="st232" cx="59.2" cy="66.6" rx="3.5" ry="2.2"/>
	<ellipse id="XMLID_989_" class="st233" cx="59.2" cy="66.6" rx="3.4" ry="2.1"/>
	<ellipse id="XMLID_988_" class="st234" cx="59.2" cy="66.6" rx="3.4" ry="2.1"/>
</g>
<path id="XMLID_1128_" class="st1" d="M60.9,104.3h-5.4C39.3,104.3,26,91.1,26,74.9v-7.2l31,6l33.4-5.5v6.7
	C90.4,91.1,77.1,104.3,60.9,104.3z"/>
<g id="XMLID_1123_">
	<g id="XMLID_1160_">
		<path id="XMLID_1161_" class="st235" d="M59.8,91.7c-11.2,0-21.6-1.4-31.8-4.8l-1.1-3.1c20.9,7.1,51.5,5.9,62.7,0.2l-1.2,3
			C82.2,90.2,72.3,91.7,59.8,91.7z"/>
	</g>
</g>
<g id="XMLID_1121_">
	<path id="XMLID_1122_" class="st236" d="M56.4,75.6c-7.1,0-29.7-5.9-30.7-6.1v-3.1c0.2,0.1,24.7,6.3,30.9,6.1l0.1,3.1
		C56.6,75.6,56.5,75.6,56.4,75.6z"/>
</g>
<g id="XMLID_1119_">
	<path id="XMLID_1120_" class="st236" d="M27.4,79.1c-0.6,0-1.2,0-1.6,0L25.6,76c6.3,0.7,45.7-5.7,65.2-9.1V70
		C88.6,70.4,39.4,79.1,27.4,79.1z"/>
</g>
<g id="XMLID_1111_">
	<path id="XMLID_1117_" class="st0" d="M10.7,64.6c-0.9-4.9,6.3-2.8,8-0.3c5.1,6.6-4.7,9.1-7,1.7"/>
	<g id="XMLID_1112_">
		<path id="XMLID_1116_" class="st237" d="M10.7,64.6c-0.9-4.9,6.3-2.8,8-0.3c5.1,6.6-4.7,9.1-7,1.7"/>
		<path id="XMLID_1113_" class="st1" d="M11.2,64.4C11,63.1,11.3,62,12.9,62c1.1,0,2.3,0.4,3.3,0.9c1.8,0.9,3.1,2.6,3.5,4.5
			c0.4,2.1-1.5,3-3.3,2.6c-2.1-0.4-3.5-2.3-4.1-4.3c-0.1-0.3-1.2,0.1-1,0.4c0.9,2.6,3.1,4.8,6,4.5c2.1-0.2,3.8-1.6,3.5-3.8
			c-0.4-3.1-3.4-5-6.2-5.5c-2.4-0.4-4.6,0.7-4.3,3.4C10.2,65.1,11.3,64.8,11.2,64.4L11.2,64.4z"/>
	</g>
</g>
<g id="XMLID_1104_">
	<path id="XMLID_1110_" class="st0" d="M104.4,72.1c1.8-4.6-5.6-4-7.8-2c-6.4,5.4,2.7,9.8,6.5,3.1"/>
	<g id="XMLID_1105_">
		<path id="XMLID_1109_" class="st237" d="M104.4,72.1c1.8-4.6-5.6-4-7.8-2c-6.4,5.4,2.7,9.8,6.5,3.1"/>
		<path id="XMLID_1106_" class="st1" d="M103.9,71.8c0.5-1.2,0.4-2.4-1.1-2.7c-1.1-0.2-2.3-0.1-3.4,0.2c-1.9,0.5-3.6,1.9-4.3,3.7
			c-0.8,2,0.8,3.3,2.7,3.3c2.2,0,3.9-1.6,4.9-3.3c0.2-0.3,1.1,0.4,0.9,0.6c-1.4,2.3-4,4.1-6.8,3.2c-2-0.6-3.4-2.3-2.7-4.4
			c1-2.9,4.4-4.2,7.2-4.1c2.4,0.1,4.4,1.7,3.5,4.2C104.8,72.7,103.8,72.2,103.9,71.8L103.9,71.8z"/>
	</g>
</g>
<g id="XMLID_1086_">
	<path id="XMLID_1103_" class="st0" d="M33.1,61.7V85c0,0.9-0.9,1.6-1.9,1.6H22c-1.1,0-1.9-0.7-1.9-1.6V61.7H33.1z"/>
	<path id="XMLID_1102_" class="st238" d="M32,63.6v20.3c0,0.8-0.7,1.4-1.6,1.4h-7.8c-0.9,0-1.6-0.6-1.6-1.4V63.6H32z"/>
	<path id="XMLID_1101_" class="st239" d="M23,63.6v17.9c0,0.8,0.7,1.4,1.6,1.4H32v1c0,0.8-0.7,1.4-1.6,1.4h-7.8
		c-0.9,0-1.6-0.6-1.6-1.4V63.6H23z"/>
	<path id="XMLID_1100_" class="st0" d="M20.5,79.7l0.1-1.6c-4.5-0.2-4.8-3.1-4.8-3.3v-8.2h4.9V65h-7v9.8c0,0.1,0.1,1.2,0.9,2.3
		C15.5,78.2,17.1,79.5,20.5,79.7z"/>
	<path id="XMLID_1099_" class="st0" d="M32.9,61.9H20.1c-0.3-1.2,0.8-1.7,0.8-1.7c1.4-0.8,2.2,0.2,2.2,0.2c0.5,0.9,1.4,0.9,1.4,0.9
		c1,0.2,1.4-0.8,1.4-0.8c1.3-0.9,2.7,0.3,2.7,0.3c0.9,0.6,1.3,0.1,1.3,0.1c0.7-1,1.5-0.8,1.5-0.8C33.4,60,33,61.8,32.9,61.9
		L32.9,61.9z"/>
	<path id="XMLID_1098_" class="st0" d="M29.6,69.1c0.7,0,1.2-0.4,1.2-0.9v-5.1c0-0.5-0.5-0.9-1.2-0.9s-1.2,0.4-1.2,0.9v5.1
		C28.4,68.7,28.9,69.1,29.6,69.1z"/>
	<path id="XMLID_1097_" class="st0" d="M29.6,70.8c0.5,0,0.9-0.3,0.9-0.7V70c0-0.4-0.4-0.7-0.9-0.7s-0.9,0.3-0.9,0.7v0.1
		C28.7,70.5,29.1,70.8,29.6,70.8z"/>
	<path id="XMLID_1096_" class="st0" d="M28,68c0.7,0,1.2-0.4,1.2-0.9V62c0-0.5-0.5-0.9-1.2-0.9s-1.2,0.4-1.2,0.9v5.1
		C26.8,67.6,27.4,68,28,68z"/>
	<path id="XMLID_1095_" class="st240" d="M17,65.9h2.7c0.2,0,0.4-0.1,0.4-0.3c0-0.2-0.2-0.3-0.4-0.3H17c-0.2,0-0.4,0.1-0.4,0.3
		C16.7,65.8,16.8,65.9,17,65.9z"/>
	<path id="XMLID_1094_" class="st240" d="M20.9,62.5h11.5c0.2,0,0.4-0.1,0.4-0.3s-0.2-0.3-0.4-0.3H20.9c-0.2,0-0.4,0.1-0.4,0.3
		C20.5,62.3,20.7,62.5,20.9,62.5z"/>
	<g id="XMLID_1091_">
		<path id="XMLID_1093_" class="st238" d="M23.2,86h8.1c0.1,0,0.2-0.1,0.2-0.2s-0.1-0.2-0.2-0.2h-8.1c-0.1,0-0.2,0.1-0.2,0.2
			C23,86,23.1,86,23.2,86z"/>
		<path id="XMLID_1092_" class="st238" d="M21.8,86h0.8c0.1,0,0.2-0.1,0.2-0.2s-0.1-0.2-0.2-0.2h-0.8c-0.1,0-0.2,0.1-0.2,0.2
			C21.6,86,21.7,86,21.8,86z"/>
	</g>
	<g id="XMLID_1088_">
		<path id="XMLID_1090_" class="st238" d="M14.4,74.3c0.1,0,0.2-0.1,0.2-0.2V68c0-0.1-0.1-0.2-0.2-0.2c-0.1,0-0.2,0.1-0.2,0.2v6.1
			C14.2,74.2,14.3,74.3,14.4,74.3z"/>
		<path id="XMLID_1089_" class="st238" d="M14.4,67.7c0.1,0,0.2-0.1,0.2-0.2V67c0-0.1-0.1-0.2-0.2-0.2c-0.1,0-0.2,0.1-0.2,0.2v0.6
			C14.2,67.6,14.3,67.7,14.4,67.7z"/>
	</g>
	<path id="XMLID_1087_" class="st240" d="M15.6,65.9h0.2c0.2,0,0.4-0.1,0.4-0.3c0-0.2-0.2-0.3-0.4-0.3h-0.2c-0.2,0-0.4,0.1-0.4,0.3
		C15.2,65.8,15.4,65.9,15.6,65.9z"/>
</g>
<g id="XMLID_995_">
	<g id="XMLID_1082_">
		<path id="XMLID_1083_" class="st0" d="M81,90.3c-1.4-0.6-2.3-1.2-2.6-2c-0.3-0.8-0.1-1.5,0.1-1.9c0-0.1,0.1-0.2,0.1-0.2
			c0.2-0.6,8.2-22.2,9.6-25.5c1.3-3,4.1-3.8,4.9-3.9c1-3.1,3.2-7.7,4.5-9.5c0.9-1.3,1.4-2.3,1.5-2.8c-0.3-0.2-0.4-0.6-0.3-1
			s0.5-0.6,0.9-0.6c0.1,0,0.1-0.1,0.1-0.1s0,0-0.1-0.1s-0.3-0.3-0.2-0.8c0.1-0.5,0.6-1.3,1.2-1.3c0.1,0,0.4,0,2.9,1l0.2,0.1
			c0.5,0.2,1,0.4,1.5,0.5c1.4,0.5,1.5,0.7,1.6,0.7c0.4,0.4,0.3,1.3,0,1.8c-0.2,0.5-0.5,0.5-0.7,0.5h-0.1v0.1c0.3,0.2,0.4,0.6,0.3,1
			s-0.5,0.6-0.9,0.6c-0.3,0.4-0.5,1.5-0.7,3.1c-0.2,2.2-1.6,7.1-2.9,10.1c0.5,0.6,2.1,3.1,1.1,6.2c-1.1,3.4-9.3,24.9-9.6,25.5
			c0,0,0,0.1-0.1,0.2c-0.1,0.4-0.4,1.1-1.1,1.5c-0.8,0.4-1.9,0.3-3.4-0.3L81,90.3z M100,42.3c0.2,0.1,0.3,0.3,0.3,0.6
			s-0.3,0.5-0.5,0.6h-0.1h-0.1c-0.2,0-0.3,0.1-0.4,0.2c-0.1,0.2,0,0.3,0.2,0.4l0.2,0.1v0.2c0,0.6-0.5,1.6-1.6,3.2
			c-1.3,1.8-3.5,6.5-4.5,9.5l-0.1,0.2h-0.2c0,0-3.3,0.5-4.6,3.6c-1.4,3.3-9.4,24.8-9.5,25.4c0,0.1-0.1,0.2-0.1,0.3
			c-0.1,0.4-0.4,0.9-0.1,1.4c0.3,0.6,1,1.2,2.3,1.7h0.1l7.8,2.9c1.3,0.5,2.3,0.6,2.9,0.3c0.6-0.3,0.7-0.8,0.9-1.2
			c0-0.1,0.1-0.2,0.1-0.3c0.3-0.6,8.4-22,9.5-25.4c1.1-3.2-1.1-5.7-1.1-5.8l-0.1-0.1l0.1-0.2c1.3-3,2.7-7.9,2.9-10.1
			c0.2-2,0.5-3,0.9-3.5l0.1-0.1h0.2c0.2,0,0.3,0,0.4-0.2s0-0.3-0.1-0.4h-0.1v-0.1c-0.1-0.2-0.1-0.5,0-0.8c0.1-0.2,0.3-0.3,0.6-0.2
			c0.1-0.1,0.2-0.3,0.3-0.7c0-0.3,0-0.5-0.1-0.6c0,0-0.2-0.2-1.4-0.6c-0.4-0.2-0.9-0.3-1.4-0.5l-0.2-0.1c-1.9-0.7-2.6-0.9-2.7-0.9
			s-0.3,0.2-0.5,0.4C100.1,42,100,42.2,100,42.3z"/>
	</g>
	<g id="XMLID_1080_">
		<path id="XMLID_1081_" class="st238" d="M92.9,91.1c0.2-0.5,8.1-21.1,9.2-24.4c1.1-3.3-1-5.8-1-5.8c0.9-2.2,1.9-5.5,2.5-7.9
			l-6.9-2.7c-1.2,2.2-2.6,5.3-3.4,7.6c0,0-3.2,0.5-4.6,3.7c-1.3,3.2-9,23.8-9.2,24.4c-0.2,0.5-1.3,2.2,2.2,3.5l3.5,1.3l0.3,0.1
			l3.5,1.3C92.5,93.7,92.7,91.6,92.9,91.1z"/>
	</g>
	<g id="XMLID_1078_">
		<path id="XMLID_1079_" class="st0" d="M105.4,45.8L105.4,45.8c-1.4-0.7-4.8-1.7-4.8-1.7c-0.1,0-0.2-0.2-0.2-0.3s0.2-0.2,0.3-0.2
			c0.1,0,3.5,1,4.9,1.8c0.1,0.1,0.2,0.3,0.1,0.4C105.6,45.7,105.5,45.8,105.4,45.8z"/>
	</g>
	<g id="XMLID_1076_">
		<path id="XMLID_1077_" class="st0" d="M101.4,68.6L101.4,68.6c-0.2-0.1-0.3-0.2-0.2-0.4c2.1-4.3-0.2-7-0.2-7
			c-0.1-0.1-0.1-0.3,0-0.4c0.1-0.1,0.3-0.1,0.4,0s2.5,3,0.3,7.6C101.6,68.6,101.5,68.6,101.4,68.6z"/>
	</g>
	<g id="XMLID_1074_">
		<path id="XMLID_1075_" class="st0" d="M100.8,60.6c-0.1,0-0.2-0.1-0.3-0.2c0,0-0.3-0.9,0.5-1.7c0.1-0.1,0.3-0.1,0.4,0
			s0.1,0.3,0,0.4c-0.5,0.6-0.4,1.2-0.4,1.2C101.1,60.4,101,60.5,100.8,60.6C100.9,60.6,100.8,60.6,100.8,60.6z"/>
	</g>
	<g id="XMLID_1072_">
		<path id="XMLID_1073_" class="st0" d="M92.4,91.9C92.4,91.9,92.3,91.9,92.4,91.9c-0.2-0.1-0.3-0.2-0.2-0.4l1.5-4.1
			c0.1-0.1,0.2-0.2,0.4-0.2c0.1,0.1,0.2,0.2,0.2,0.4l-1.5,4.1C92.6,91.9,92.5,92,92.4,91.9z"/>
	</g>
	<g id="XMLID_1000_">
		<path id="XMLID_1071_" class="st0" d="M89.6,60.9L89.6,60.9c-0.2-0.1-0.3-0.2-0.2-0.4c0.1-0.1,1.2-2.4,4.1-2.9
			c0.4-1.4,1.8-5.4,3.4-8c0.1-0.1,0.3-0.2,0.4-0.1c0.1,0.1,0.2,0.3,0.1,0.4C95.6,52.8,94,57.8,94,58l-0.1,0.2h-0.2
			c-2.7,0.4-3.9,2.6-3.9,2.6S89.7,60.9,89.6,60.9z"/>
	</g>
	<g id="XMLID_998_">
		
			<rect id="XMLID_999_" x="84.6" y="68.9" transform="matrix(-0.9323 -0.3618 0.3618 -0.9323 149.2718 178.6864)" class="st241" width="13.5" height="12.9"/>
	</g>
	<g id="XMLID_996_">
		<path id="XMLID_997_" class="st241" d="M99.7,41.5l0.5-1.2c0,0,0.5-0.7,1.8-0.3l4.7,1.8c0,0,1,0.7,1,1.3l-0.6,1.4l-0.2-0.5
			c0,0-0.8,0-1-0.5c0,0-1,0.1-1.2-0.6c0,0-0.6,0.4-1-0.5c0,0-0.9,0.4-1.3-0.4c0,0-0.6,0.3-1-0.4c0,0-0.7,0.4-1-0.3L99.7,41.5z"/>
	</g>
</g>
<g id="XMLID_981_">
	<path id="XMLID_994_" class="st0" d="M110.4,87.8c3.6-5.3,3.7-14.5-3.5-16.8c-5.1-1.6-8.7,0.1-10.8,4.8c-1.8,4.4-2.1,9.9,2.3,12.7
		C102.6,91.2,107.5,92.2,110.4,87.8z"/>
	<g id="XMLID_984_">
		<path id="XMLID_993_" class="st237" d="M110.4,87.8c3.6-5.3,3.7-14.5-3.5-16.8c-5.1-1.6-8.7,0.1-10.8,4.8
			c-1.8,4.4-2.1,9.9,2.3,12.7C102.6,91.2,107.5,92.2,110.4,87.8z"/>
		<path id="XMLID_985_" class="st1" d="M110,87.5c2-3.1,2.8-6.8,2.1-10.4c-1.1-5.6-8.2-7.9-12.7-4.7c-3.3,2.4-4.4,7.9-3.7,11.7
			C96.9,90.5,106.3,92.4,110,87.5c0.3-0.4,1.2,0.3,0.9,0.6c-3.4,4.4-9.6,3.6-13.5,0.1c-4.6-4.2-3.5-11.8,0.5-16
			c3.5-3.7,9.9-2.2,13.1,1.1c3.7,4,2.5,10.7-0.1,14.8C110.7,88.5,109.7,87.9,110,87.5z"/>
	</g>
</g>
<g id="XMLID_957_">
	<path id="XMLID_979_" class="st0" d="M1.5,78.7C-0.9,72.8,0.8,63.8,8.4,63c5.3-0.5,8.5,1.9,9.6,6.9c0.8,4.7,0.1,10.1-4.9,12
		C8.5,83.7,3.5,83.6,1.5,78.7z"/>
	<g id="XMLID_958_">
		<path id="XMLID_964_" class="st237" d="M1.5,78.7C-0.9,72.8,0.8,63.8,8.4,63c5.3-0.5,8.5,1.9,9.6,6.9c0.8,4.7,0.1,10.1-4.9,12
			C8.5,83.7,3.5,83.6,1.5,78.7z"/>
		<path id="XMLID_959_" class="st1" d="M2.1,78.5c-1.3-3.5-1.4-7.2,0-10.6c2.2-5.3,9.7-6.1,13.4-2c2.8,3.1,2.7,8.7,1.2,12.3
			C14.2,84.1,4.7,84,2.1,78.5c-0.2-0.4-1.2,0-1,0.4c2.4,5,8.6,5.5,13.2,2.8c5.3-3,5.7-10.8,2.7-15.7c-2.6-4.3-9.3-4.2-13-1.6
			c-4.5,3.1-4.6,9.9-2.9,14.5C1.2,79.4,2.2,78.9,2.1,78.5z"/>
	</g>
</g>
<g id="XMLID_944_">
	<ellipse id="XMLID_956_" class="st0" cx="45.1" cy="49.9" rx="9" ry="8.6"/>
	<circle id="XMLID_955_" class="st0" cx="73" cy="49.9" r="8.9"/>
	<g id="XMLID_952_">
		<line id="XMLID_954_" class="st242" x1="43.7" y1="59.9" x2="39.6" y2="63.3"/>
		<line id="XMLID_953_" class="st242" x1="47.2" y1="60.1" x2="43.2" y2="63.6"/>
	</g>
	<g id="XMLID_949_">
		<line id="XMLID_951_" class="st242" x1="74" y1="59.9" x2="70" y2="63.3"/>
		<line id="XMLID_950_" class="st242" x1="77.5" y1="60.1" x2="73.5" y2="63.6"/>
	</g>
	<g id="XMLID_947_">
		<path id="XMLID_948_" class="st243" d="M43.6,56.4C43.5,56.4,43.5,56.4,43.6,56.4c-0.5,0-1.5-1.1-3.4-3.2c-0.4-0.5-0.9-1-1-1
			c-0.1-0.1-0.1-0.2-0.1-0.3c-0.1-0.7,1-4.1,1.3-4.4c0.3-0.3,4.4-2.3,4.8-2.3c0.1,0,0.4,0,2.5,1.9c0.8,0.7,2.1,1.9,2.2,2.2
			c0.1,0.5-1.5,3.9-1.5,4c-0.2,0.4-4,2-4.4,1.9c-0.5-0.1-3.3-3.1-3.4-3.3c-0.3-0.5,0.7-3.3,1-3.7s3.1-1.6,3.3-1.6
			c0.4,0,3.3,2.5,3.4,2.9c0.1,0.5-0.7,2.9-0.9,3.1c-0.3,0.3-2.7,1.3-3,1.3c-0.4,0-2.6-2.3-2.6-2.5c-0.1-0.3,0.6-2.6,1-2.8
			c0,0,1.4-0.9,2.1-0.7c0.5,0.2,2,1.7,2.1,2.1c0.1,0.4-0.2,1.7-0.5,2s-1.4,0.8-1.8,0.8c-0.4,0-1.8-1.1-1.8-1.7
			c0-0.6,0.4-1.6,0.7-1.9c0.2-0.2,0.7-0.2,1.1-0.1c0.5,0.1,0.9,0.5,1,1c0.2,0.8-0.2,1.5-0.6,1.7c-0.3,0.2-0.5,0-0.5,0
			c-0.2-0.2-0.7-0.7-0.6-1.1c0-0.1,0.1-0.2,0.3-0.2c0.1,0,0.2,0.1,0.2,0.3c0,0.1,0.1,0.3,0.4,0.6c0.1,0,0.2-0.1,0.3-0.3
			s0.3-0.5,0.2-0.9s-0.4-0.5-0.6-0.6c-0.4-0.1-0.6,0-0.7,0c-0.2,0.2-0.5,1.1-0.5,1.6c0,0.3,1,1.2,1.3,1.2c0.2,0,1.2-0.4,1.4-0.6
			c0.2-0.2,0.4-1.4,0.4-1.6c-0.1-0.3-1.3-1.6-1.8-1.8c-0.3-0.1-1.3,0.4-1.7,0.7c-0.2,0.2-0.8,1.9-0.8,2.3c0.2,0.3,1.9,1.9,2.2,2.1
			c0.4-0.1,2.4-0.9,2.6-1.1c0.2-0.3,0.9-2.4,0.8-2.7c-0.1-0.3-2.5-2.3-3-2.5c-0.4,0.1-2.7,1.1-3,1.4c-0.3,0.3-1,2.8-0.9,3.2
			c0.2,0.3,2.6,2.9,3,3.1c0.5,0,3.6-1.4,3.9-1.7c0.3-0.6,1.5-3.2,1.5-3.6c-0.3-0.5-3.8-3.6-4.3-3.8c-0.5,0.1-4.2,1.9-4.5,2.2
			s-1.2,3.5-1.2,4c0.1,0.1,0.4,0.4,1,1c0.9,1,2.7,2.9,3.1,3c0.5,0,4.8-1.5,5.2-1.9c0.5-0.5,2.4-4.5,2.2-5c-0.5-0.6-4.9-4.9-5.5-4.9
			c-0.4,0-3.5,1.6-6.2,3.1c-0.1,0.1-0.3,0-0.3-0.1c-0.1-0.1,0-0.3,0.1-0.3c0.9-0.5,5.7-3.2,6.4-3.2c0.9,0,5.7,4.9,5.9,5.1
			c0.6,0.7-1.9,5.3-2.2,5.7C48.6,54.9,44.3,56.4,43.6,56.4z"/>
	</g>
	<g id="XMLID_945_">
		<path id="XMLID_946_" class="st243" d="M74.5,56.2c-0.5,0-1.8-0.5-4.2-1.6C69.7,54.3,69.1,54,69,54s-0.2-0.2-0.2-0.2
			c-0.4-0.6-0.8-4.1-0.6-4.6c0.2-0.4,3.1-3.9,3.5-4.1c0.1,0,0.3-0.1,3.1,0.7c1,0.3,2.7,0.9,2.9,1.1c0.3,0.4,0.2,4.2,0.2,4.3
			c0,0.5-2.9,3.4-3.3,3.5c-0.5,0.1-4.3-1.6-4.4-1.7c-0.5-0.3-0.7-3.3-0.6-3.8c0.2-0.5,2.2-2.7,2.4-2.8c0.4-0.2,4,0.9,4.3,1.3
			c0.3,0.4,0.5,2.9,0.4,3.2c-0.1,0.4-2,2.3-2.2,2.4c-0.4,0.2-3.3-1.1-3.4-1.2c-0.2-0.2-0.4-2.6-0.2-3c0,0,0.9-1.4,1.7-1.5
			c0.6-0.1,2.5,0.7,2.8,1.1c0.2,0.3,0.4,1.6,0.3,2s-1,1.3-1.3,1.4c-0.4,0.2-2-0.3-2.3-0.9c-0.2-0.5-0.3-1.6-0.2-2
			c0.1-0.3,0.6-0.5,1-0.6c0.5-0.1,1,0.1,1.3,0.5c0.5,0.6,0.4,1.4,0.1,1.8c-0.2,0.3-0.4,0.2-0.5,0.2c-0.3-0.1-0.9-0.4-1-0.8
			c0-0.1,0-0.3,0.2-0.3c0.1,0,0.3,0,0.3,0.2c0,0.1,0.2,0.2,0.6,0.4c0-0.1,0.1-0.2,0.2-0.4c0-0.2,0-0.5-0.2-0.9
			C73.7,49,73.3,49,73.1,49c-0.4,0-0.6,0.2-0.6,0.3c-0.1,0.3,0,1.2,0.1,1.6c0.1,0.3,1.4,0.7,1.7,0.6c0.2-0.1,1-0.9,1-1.1
			c0.1-0.2-0.1-1.4-0.3-1.6c-0.2-0.2-1.9-1-2.3-0.9c-0.3,0-1,0.9-1.3,1.3c-0.1,0.3,0.1,2.1,0.2,2.5c0.4,0.2,2.5,1,2.9,1.1
			c0.3-0.2,1.8-1.8,2-2.1c0.1-0.3-0.1-2.5-0.3-2.8c-0.2-0.2-3.2-1.1-3.7-1.1c-0.3,0.2-2.1,2.1-2.2,2.5s0.2,3,0.4,3.3
			c0.3,0.2,3.6,1.6,4,1.6c0.4-0.2,2.7-2.7,2.9-3.1c0-0.7,0.1-3.5-0.1-3.9c-0.5-0.3-4.9-1.7-5.5-1.7l0,0c-0.4,0.3-3.1,3.4-3.2,3.8
			c-0.1,0.4,0.3,3.7,0.5,4.2c0.2,0.1,0.5,0.2,1.3,0.6c1.2,0.5,3.6,1.6,4,1.5c0.5-0.2,3.8-3.3,4.1-3.8c0.3-0.6,0.4-5.1,0-5.5
			c-0.7-0.4-6.4-2.5-7.1-2.3c-0.4,0.2-2.5,2.8-4.4,5.4c-0.1,0.1-0.2,0.1-0.3,0c-0.1-0.1-0.1-0.2,0-0.3c0.7-0.9,4-5.2,4.6-5.5
			c0.8-0.4,7.2,2.2,7.5,2.3c0.8,0.4,0.4,5.6,0.2,6.1c-0.3,0.7-3.7,3.8-4.3,4.1C74.6,56.1,74.6,56.2,74.5,56.2z"/>
	</g>
</g>
<g id="XMLID_444_">
	<g id="XMLID_940_">
		<path id="XMLID_941_" class="st243" d="M42.8,45.7c-0.3,0-0.6,0-0.9,0c-6.5-0.2-10.8-2.1-12.1-5.5c-2.7-6.9,8.2-17.7,24.3-24
			c7.8-3.1,15.6-4.6,22-4.5c6.5,0.2,10.8,2.1,12.1,5.5c1.3,3.4-0.5,7.8-5.1,12.3s-11.4,8.7-19.2,11.7C56.5,44.2,49.1,45.7,42.8,45.7
			z M75.2,12.2c-6.2,0-13.6,1.6-20.9,4.5c-15.9,6.2-26.7,16.7-24,23.4c1.3,3.2,5.4,5,11.7,5.2c6.4,0.2,14.1-1.4,21.8-4.4
			s14.5-7.2,19-11.6s6.3-8.6,5-11.8l0,0c-1.3-3.2-5.4-5-11.7-5.2C75.8,12.2,75.5,12.2,75.2,12.2z"/>
	</g>
	<g id="XMLID_936_">
		<path id="XMLID_937_" class="st243" d="M50.2,42.9c-12.1,0-21.3-3.5-22.2-9.2c-1.2-7.3,11.8-15.5,28.9-18.2s32,1,33.2,8.3
			c1.2,7.3-11.8,15.5-28.9,18.2C57.3,42.6,53.6,42.9,50.2,42.9z M67.9,15c-3.5,0-7.2,0.3-11,0.9c-16.8,2.7-29.6,10.6-28.5,17.7
			S44.1,44.2,61,41.5c16.8-2.7,29.6-10.6,28.5-17.7C88.7,18.4,79.7,15,67.9,15z"/>
	</g>
	<g id="XMLID_932_">
		<path id="XMLID_933_" class="st243" d="M50.2,40.2c-12.1,0-21.3-3.5-22.2-9.2c-1.2-7.3,11.8-15.5,28.9-18.2
			c8.3-1.3,16.2-1.2,22.5,0.3c6.3,1.6,10.1,4.4,10.7,8c1.2,7.3-11.8,15.5-28.9,18.2C57.3,39.9,53.6,40.2,50.2,40.2z M67.9,12.3
			c-3.5,0-7.2,0.3-11,0.9c-16.8,2.7-29.6,10.6-28.5,17.7S44.1,41.5,61,38.8c16.8-2.7,29.6-10.6,28.5-17.7c-0.5-3.4-4.2-6.1-10.3-7.6
			C75.9,12.7,72.1,12.3,67.9,12.3z"/>
	</g>
	<g id="XMLID_927_">
		<path id="XMLID_928_" class="st243" d="M50.2,42.9c-12.1,0-21.3-3.5-22.2-9.2c-1.2-7.3,11.8-15.5,28.9-18.2s32,1,33.2,8.3
			c1.2,7.3-11.8,15.5-28.9,18.2C57.3,42.6,53.6,42.9,50.2,42.9z M67.9,15c-3.5,0-7.2,0.3-11,0.9c-16.8,2.7-29.6,10.6-28.5,17.7
			S44.1,44.2,61,41.5c16.8-2.7,29.6-10.6,28.5-17.7C88.7,18.4,79.7,15,67.9,15z"/>
	</g>
	<g id="XMLID_922_">
		<path id="XMLID_923_" class="st243" d="M50.2,40.2c-12.1,0-21.3-3.5-22.2-9.2c-1.2-7.3,11.8-15.5,28.9-18.2
			c8.3-1.3,16.2-1.2,22.5,0.3c6.3,1.6,10.1,4.4,10.7,8c1.2,7.3-11.8,15.5-28.9,18.2C57.3,39.9,53.6,40.2,50.2,40.2z M67.9,12.3
			c-3.5,0-7.2,0.3-11,0.9c-16.8,2.7-29.6,10.6-28.5,17.7S44.1,41.5,61,38.8c16.8-2.7,29.6-10.6,28.5-17.7c-0.5-3.4-4.2-6.1-10.3-7.6
			C75.9,12.7,72.1,12.3,67.9,12.3z"/>
	</g>
	<g id="XMLID_920_">
		<path id="XMLID_921_" class="st243" d="M38.8,35.3c-0.6,0-1.2-0.2-1.8-0.4c-1-0.5-1.7-1.3-2-2.2c-0.3-1-0.1-2.2,0.7-2.9
			c0.5-0.4,1.2-0.6,2-0.5c0.7,0.1,1.4,0.5,1.7,1.1c0.2,0.4,0.3,0.8,0.3,1.2c-0.1,0.4-0.3,0.8-0.7,1c-0.4,0.3-0.8,0.3-1.2,0.2
			s-0.7-0.4-1-0.8c-0.2-0.4-0.2-0.9-0.1-1.2v-0.1h0.1c0.2-0.1,0.4-0.1,0.7,0c0.2,0.1,0.4,0.3,0.5,0.5c0,0.1,0,0.3-0.2,0.3
			c-0.1,0-0.3,0-0.3-0.2c0-0.1-0.1-0.1-0.2-0.2c-0.1,0-0.1,0-0.2,0c-0.1,0.2,0,0.5,0.1,0.7c0.1,0.3,0.4,0.5,0.6,0.5
			c0.3,0.1,0.6,0,0.8-0.2c0.3-0.2,0.4-0.4,0.5-0.7c0-0.3,0-0.6-0.2-0.8c-0.3-0.4-0.8-0.8-1.3-0.9c-0.6-0.1-1.2,0.1-1.5,0.4
			c-0.6,0.5-0.8,1.5-0.6,2.4c0.3,0.8,0.9,1.5,1.8,1.9c0.5,0.3,1.1,0.4,1.6,0.4c0.7,0,1.4-0.4,1.9-0.9c0.5-0.6,0.8-1.3,0.8-1.9
			c-0.1-1.4-1.4-2.7-2.9-2.7c-0.1,0-0.3-0.1-0.3-0.2s0.1-0.3,0.2-0.3c1.7,0,3.3,1.4,3.4,3.1c0,0.8-0.3,1.7-0.9,2.3
			C40.5,34.9,39.7,35.2,38.8,35.3C38.9,35.3,38.9,35.3,38.8,35.3z"/>
	</g>
	<g id="XMLID_918_">
		<path id="XMLID_919_" class="st243" d="M43.9,14.3L43.9,14.3c-0.2-0.1-0.3-0.2-0.2-0.3c0.8-1.6,1.4-3.3,1.9-5.1
			c0-0.1,0.2-0.2,0.3-0.2c0,0,0.1,0.2,0.1,0.3c-0.5,1.8-1.1,3.5-1.9,5.2C44,14.3,44,14.3,43.9,14.3z"/>
	</g>
	<g id="XMLID_916_">
		<path id="XMLID_917_" class="st243" d="M45.7,14.3L45.7,14.3c-0.2-0.1-0.3-0.2-0.2-0.3c0.8-1.6,1.4-3.3,1.9-5.1
			c0-0.1,0.2-0.2,0.3-0.2s0.2,0.2,0.2,0.3c-0.5,1.8-1.1,3.5-1.9,5.2C45.9,14.3,45.8,14.3,45.7,14.3z"/>
	</g>
	<g id="XMLID_914_">
		<path id="XMLID_915_" class="st243" d="M44.1,11.1c-0.5,0-1,0-1.5,0c-0.1,0-0.2-0.1-0.2-0.3c0-0.1,0.1-0.2,0.3-0.2
			c1.8,0.1,3.6,0,5.4-0.2c0.1,0,0.3,0.1,0.3,0.2c0,0.1-0.1,0.3-0.2,0.3C46.8,11,45.5,11.1,44.1,11.1z"/>
	</g>
	<g id="XMLID_912_">
		<path id="XMLID_913_" class="st243" d="M44.9,12.8c-0.5,0-1,0-1.5,0c-0.1,0-0.2-0.1-0.2-0.3c0-0.1,0.1-0.2,0.3-0.2
			c1.8,0.1,3.6,0,5.4-0.2c0.1,0,0.3,0.1,0.3,0.2c0,0.1-0.1,0.3-0.2,0.3C47.5,12.7,46.2,12.8,44.9,12.8z"/>
	</g>
	<path id="XMLID_911_" class="st0" d="M81,17.9c0.3-2.3,2.7-3.8,2.7-3.8c-2-0.7-2.7-3.3-2.7-3.3s-0.6,2.6-2.7,3.3
		C78.3,14.1,80.5,15.5,81,17.9z"/>
	<path id="XMLID_625_" class="st243" d="M81,19.5l-0.3-1.6c-0.4-2.2-2.5-3.6-2.5-3.6L77.7,14l0.5-0.2c1.9-0.6,2.5-3.1,2.5-3.1l0.2-1
		l0.2,1c0,0,0.6,2.5,2.5,3.1l0.5,0.2l-0.5,0.3c0,0-2.3,1.4-2.5,3.6L81,19.5z M78.8,14.1c0.6,0.4,1.6,1.4,2.1,2.7
		c0.5-1.4,1.6-2.3,2.2-2.8c-1.2-0.6-1.8-1.8-2.1-2.6C80.6,12.4,80,13.6,78.8,14.1z"/>
	<g id="XMLID_462_">
		<path id="XMLID_624_" class="st0" d="M64,38.3c0.2-1.5,1.7-2.4,1.7-2.4c-1.3-0.4-1.7-2.1-1.7-2.1s-0.4,1.7-1.7,2.1
			C62.3,35.9,63.7,36.8,64,38.3z"/>
		<path id="XMLID_463_" class="st243" d="M64.1,39.9l-0.3-1.6c-0.3-1.4-1.6-2.3-1.6-2.3l-0.4-0.3l0.5-0.2c1.2-0.4,1.5-1.9,1.5-1.9
			l0.2-1l0.2,1c0,0,0.4,1.6,1.5,1.9l0.5,0.2L65.7,36c0,0-1.4,0.9-1.6,2.3V39.9z M62.8,35.9c0.3,0.3,0.9,0.8,1.2,1.5
			c0.3-0.7,0.9-1.2,1.2-1.5c-0.6-0.4-1-1-1.2-1.4C63.8,35,63.4,35.6,62.8,35.9z"/>
	</g>
</g>
</svg>
