<svg 
 xmlns="http://www.w3.org/2000/svg"
 xmlns:xlink="http://www.w3.org/1999/xlink"
 width="41px" height="41px">
<path fill-rule="evenodd"  fill="rgb(255, 255, 255)"
 d="M39.208,0.573 L1.991,0.573 C1.136,0.573 0.440,1.278 0.440,2.146 C0.440,3.014 1.136,3.719 1.991,3.719 L3.121,3.719 L3.121,39.079 C3.121,40.482 5.148,41.350 6.410,40.627 L18.950,33.457 C19.965,32.873 21.235,32.873 22.250,33.457 L34.789,40.627 C36.052,41.350 38.036,40.485 38.036,39.079 L38.036,3.719 L39.208,3.719 C40.064,3.719 40.760,3.014 40.760,2.146 C40.760,1.278 40.064,0.573 39.208,0.573 ZM31.093,23.692 C31.093,24.491 30.453,25.139 29.662,25.139 L11.537,25.139 C10.747,25.139 10.106,24.491 10.106,23.692 L10.106,22.727 C10.106,21.928 10.747,21.280 11.537,21.280 L29.662,21.280 C30.453,21.280 31.093,21.928 31.093,22.727 L31.093,23.692 ZM31.093,14.044 C31.093,14.844 30.453,15.491 29.662,15.491 L11.537,15.491 C10.747,15.491 10.106,14.844 10.106,14.044 L10.106,13.080 C10.106,12.281 10.747,11.633 11.537,11.633 L29.662,11.633 C30.453,11.633 31.093,12.281 31.093,13.080 L31.093,14.044 Z"/>
</svg>
