<?xml version="1.0" encoding="utf-8"?>
<!-- Generator: Adobe Illustrator 21.0.0, SVG Export Plug-In . SVG Version: 6.00 Build 0)  -->
<svg version="1.1" id="图层_1" xmlns="http://www.w3.org/2000/svg" xmlns:xlink="http://www.w3.org/1999/xlink" x="0px" y="0px"
	 viewBox="0 0 1134 193.2" style="enable-background:new 0 0 1134 193.2;" xml:space="preserve">
<style type="text/css">
	.st0{fill:#FFFFFF;}
</style>
<path class="st0" d="M1063.1,86.5H70.9v52.3c0,1.9,0.4,3.7,1,5.3c-0.7,2.4-1,5-1,7.6c0,15.9,12.9,28.8,28.9,28.8
	c12.9,0,23.7-8.4,27.5-20c3.7,11.6,14.6,20,27.5,20c12.9,0,23.8-8.4,27.5-20c3.7,11.6,14.6,20,27.5,20c12.9,0,23.7-8.4,27.5-20
	c3.7,11.6,14.6,20,27.5,20c12.9,0,23.8-8.4,27.5-20c3.7,11.6,14.6,20,27.5,20c12.9,0,23.7-8.4,27.5-20c3.7,11.6,14.6,20,27.5,20
	c12.9,0,23.8-8.4,27.5-20c3.7,11.6,14.6,20,27.5,20c12.8,0,23.7-8.4,27.5-19.9c3.8,11.6,14.6,19.9,27.5,19.9
	c12.9,0,23.8-8.4,27.5-20c3.7,11.6,14.6,20,27.5,20c12.8,0,23.7-8.4,27.5-19.9c3.8,11.6,14.6,19.9,27.5,19.9
	c12.9,0,23.8-8.4,27.5-20c3.7,11.6,14.6,20,27.5,20c12.8,0,23.7-8.4,27.5-19.9c3.8,11.6,14.6,19.9,27.5,19.9
	c12.9,0,23.8-8.4,27.5-20c3.7,11.6,14.6,20,27.5,20c12.8,0,23.7-8.4,27.5-19.9c3.8,11.6,14.6,19.9,27.5,19.9
	c12.9,0,23.8-8.4,27.5-20c3.7,11.6,14.6,20,27.5,20c12.8,0,23.7-8.4,27.5-20c3.7,11.6,14.6,20,27.5,20c12.9,0,23.8-8.4,27.5-20
	c3.7,11.6,14.6,20,27.5,20c12.8,0,23.7-8.4,27.5-20c3.7,11.6,14.6,20,27.5,20c15.9,0,28.9-12.9,28.9-28.8c0-2.6-0.4-5.2-1-7.6
	c0.7-1.7,1-3.5,1-5.3V86.5z"/>
</svg>
