<?xml version="1.0" encoding="utf-8"?>
<!-- Generator: Adobe Illustrator 19.0.0, SVG Export Plug-In . SVG Version: 6.00 Build 0)  -->
<svg version="1.1" id="图层_1" xmlns="http://www.w3.org/2000/svg" xmlns:xlink="http://www.w3.org/1999/xlink" x="0px" y="0px"
	 viewBox="-564 389.9 63 63" style="enable-background:new -564 389.9 63 63;" xml:space="preserve">
<style type="text/css">
	.st0{fill:#EAA926;}
</style>
<path class="st0" d="M-504,407.7h-14.9v-14.9c0-1.6-1.3-3-3-3h-21.4c-1.7,0-3,1.3-3,3v14.9H-561c-1.6,0-3,1.3-3,3v21.4
	c0,1.7,1.3,3,3,3h14.8v14.9c0,1.6,1.3,3,3,3h21.4c1.7,0,3-1.3,3-3v-14.9h14.9c1.6,0,3-1.3,3-3v-21.4
	C-501,409.1-502.3,407.7-504,407.7z M-503.7,432.1c0,0.2-0.1,0.3-0.2,0.3h-17.6v17.6c0,0.1-0.1,0.2-0.3,0.2h-21.4
	c-0.2,0-0.3-0.1-0.3-0.2v-17.6c0.5,0.8,1.7,0.9,1.7,0.9s-0.3-6,1.8-6.8c0,0,8.5,0.6,12.4-3.2c3.8-3.8,6.1-12.8,6.1-12.8
	s-9.2,0.3-13.9,3.4c-6.3,4.1-4.9,12.1-4.9,12.1c-1.4,1.1-3.1,3.8-3.1,6.5c0,0,0,0,0,0H-561c-0.1,0-0.2-0.1-0.2-0.3v-21.4
	c0-0.1,0.1-0.3,0.2-0.3h17.5v-17.6c0-0.1,0.1-0.2,0.3-0.2h21.4c0.2,0,0.3,0.1,0.3,0.2v17.6h17.6c0.1,0,0.2,0.1,0.2,0.3V432.1
	L-503.7,432.1z"/>
</svg>
