<?xml version="1.0" encoding="utf-8"?>
<!-- Generator: Adobe Illustrator 19.0.0, SVG Export Plug-In . SVG Version: 6.00 Build 0)  -->
<svg version="1.1" id="图层_1" xmlns="http://www.w3.org/2000/svg" xmlns:xlink="http://www.w3.org/1999/xlink" x="0px" y="0px"
	 viewBox="31 -31.7 102.7 102.7" style="enable-background:new 31 -31.7 102.7 102.7;" xml:space="preserve">
<style type="text/css">
	.st0{display:none;fill:#606060;}
	.st1{display:none;fill:#FFFFFF;}
	.st2{fill:#50B593;}
	.st3{fill:#FFFFFF;}
</style>
<circle class="st0" cx="-1016" cy="758.4" r="51.4"/>
<title>Group 6</title>
<desc>Created with Sketch.</desc>
<path id="Fill-14" class="st1" d="M-993.3,779.7c-0.4-0.3-0.9-0.5-1.3-0.3c-0.4,0.1-0.6,0.3-0.8,0.5l-0.2,0.2
	c-0.1,0.1-0.2,0.2-0.4,0.4l0,0c-0.1,0.1-0.2,0.2-0.4,0.4c-0.5,0.5-0.9,0.9-1.3,1.3c-0.6,0.6-1,1-1.5,1.5c-3.9,3.3-5.5,3.8-8.9,4.9
	l-0.2,0.1c-1.7,0.5-3.4,0.9-5.1,1c-4.2,0.4-8.1,0-11.7-1.3s-7-3.4-10-6.3c-0.3-0.3-0.6-0.6-0.8-0.8c-0.3-0.3-0.6-0.7-1-1
	s-1.4-0.7-2.1,0.1c-1,1,0.1,2.2,0.2,2.4l0.1,0.1c0.4,0.4,0.9,0.9,1.3,1.3c1,1,2,2,3.2,2.9c4,3,8.2,4.9,12.7,5.7
	c4.4,0.8,9.1,0.5,14-0.8c4.7-1.3,8.8-3.8,12.3-7.3c0.6-0.6,1.3-1.4,1.9-2.2l0,0l0,0l0,0c0.1-0.1,0.4-0.4,0.5-0.8l0,0
	C-992.6,780.7-992.8,780.1-993.3,779.7L-993.3,779.7z M-1037.4,737.4c0.4-0.1,0.6-0.3,0.8-0.5l0.2-0.2c0.1-0.1,0.2-0.2,0.4-0.4
	c0.1-0.1,0.2-0.2,0.4-0.4c0.5-0.5,0.9-0.9,1.3-1.3c0.6-0.6,1.1-1.1,1.5-1.5c0.5-0.5,1.2-0.9,1.9-1.1c1.4-0.6,2.8,0,3.8,0.6
	c1.3,0.7,2.8,1.2,4.5,1.4c2.4,0.4,4.4,0.2,6.2-0.6l2.7-1.2l-2.9-0.7c-0.8-0.2-1.4-0.7-2.1-1.3l-0.2-0.2c-0.3-0.2-1.7-1.7-4.4-1.6
	c-5.4,0.9,1-0.8,1-0.8l3-0.4c0.2,0,0.4,0,0.6-0.1c4.2-0.4,8.1,0,11.7,1.3s7,3.4,10,6.3c0.2,0.2,0.5,0.5,0.8,0.8s0.6,0.7,1,1
	c0.3,0.3,1.6,0.5,2.2-0.1c0.5-0.5,0.4-1.2,0.4-1.5c-0.1-0.4-0.3-0.7-0.6-0.9l0,0c-0.4-0.4-0.9-0.9-1.3-1.3c-1-1-2-2-3.1-2.9
	c-4-3-8.2-4.9-12.7-5.7s-9.2-0.5-14,0.9c-4.7,1.3-8.8,3.8-12.4,7.3c-0.7,0.7-1.4,1.4-1.9,2.1v0.1c-0.1,0.2-0.4,0.4-0.5,0.8
	c-0.2,0.6,0,1.1,0.5,1.5C-1038.3,737.4-1037.8,737.5-1037.4,737.4z M-996.8,742.3c-7.5,3.5-15.3,1.8-24.2,4.2
	c-7.1,2-13.1,6.9-15.4,20.2c3.9-5.1,8.1-8.7,12.6-11.3c4.3-2.5,8.9-4,14.1-5.2c0.6-0.1,0.8,0.7,0.2,0.9c-6.7,2.2-12.5,5-17.4,8.7
	c-5.4,4-9.6,9.1-12.6,14.9c-0.1,0.2,0,0.5,0.3,0.5h1c0.1,0,0.2-0.1,0.3-0.2c7.8-12.8,18.6-4.7,29.5-9c10-4,14.7-12.5,15.9-21.4
	C-992.4,744-992.3,740.1-996.8,742.3z"/>
<path class="st2" d="M82.3,71C54,71,31,48,31,19.7s23-51.4,51.4-51.4s51.4,23,51.4,51.4S110.7,71,82.3,71z M83-12.7
	C64.7-12.7,50,2,50,20.2S64.7,53,82.9,53c18.2,0,32.9-14.7,32.9-32.9C115.8,2,101.2-12.7,83-12.7z M83,48.2c-15.4,0-28-12.5-28-28
	c0-15.4,12.5-28,28-28c15.4,0,28,12.5,28,28C110.8,35.7,98.3,48.2,83,48.2z M83-1.7c-12.1,0-22,9.8-22,22c0,12.1,9.8,22,22,22
	c12.1,0,22-9.8,22-22C104.8,8,95.1-1.7,83-1.7z M83,36.8c-9.1,0-16.5-7.4-16.5-16.5S73.8,3.8,83,3.8s16.5,7.4,16.5,16.5
	S92.1,36.8,83,36.8z M83,12.9c-4,0-7.3,3.3-7.3,7.3s3.3,7.3,7.3,7.3s7.3-3.3,7.3-7.3S87,12.9,83,12.9z"/>
<path id="Fill-10" class="st1" d="M-1003.1,766.1c-1.2-0.2-2.2,0.5-2.4,1.7s0.5,2.1,1.7,2.4c8.5,1.4,11.2,4.1,11.2,5
	c0,1.9-8.3,6-23.4,6s-23.4-3.8-23.4-6c0-1,2.7-3.6,11-5c1.2-0.2,1.9-1.2,1.7-2.4s-1.2-1.9-2.4-1.7c-5.4,1-14.4,3.3-14.4,8.8
	c0,6.7,13.6,10,27.3,10c13.6,0,27.5-3.3,27.7-9.8C-988.5,769.4-997.7,767-1003.1,766.1 M-1043.1,746.1c0.1,0.1,0.2,0.3,0.3,0.4
	c0.2,0.2,0.4,0.4,0.5,0.7c0,0.2,0.2,0.3,0.3,0.5c0.1,0.1,0.2,0.3,0.3,0.4c0.1,0.2,0.3,0.5,0.4,0.7s0.3,0.4,0.4,0.6
	c0.2,0.6,0.6,1.1,1.1,1.5c0.3,0.3,0.7,0.5,1,0.8c0.3,0.4,0.7,0.6,1.2,0.8c0.6,0.3,1.2,0.5,1.7,0.8c0.6,0.3,1.3,0.5,1.9,0.6
	c0.7,0.2,1.3,0.6,1.7,1.2c0.3,0.5,0.7,1.1,0.9,1.7c0.2,0.3,0.3,0.7,0.4,1c0.1,0.2,0.1,0.4,0.3,0.6c0.3,0.3,0.5,0.6,0.6,1
	c0,0,0,0.1,0.1,0.1c0.4,0.5,0.9,1.1,1.4,1.6c0.7,0.7,1.4,1.4,2.1,2.1c0.3,0.3,0.5,0.5,0.7,0.8c0.6,0.8,1.1,1.5,1.4,2.5
	c0.2,0.5,0.3,1,0.3,1.4s-0.1,0.9-0.1,1.3c0,0.5-0.1,0.9-0.1,1.4c0,0.8,0.1,1.6,0.2,2.4c0,0.5-0.3,0.9-0.7,1.3
	c-0.3,0.3-0.6,0.5-0.8,0.9c-0.2,0.2-0.2,0.5-0.1,0.8c0.1,0.1,0.1,0.3,0.2,0.4h19c0-0.1,0.1-0.3,0.1-0.4c0.1-0.1,0.1-0.3,0.1-0.4
	c-0.1-0.5-0.5-0.8-0.8-1.1c-0.5-0.4-0.8-0.8-0.8-1.5c0-0.4,0.1-0.8,0.1-1.2c0-0.6,0-1.3,0.1-1.9c0-0.8,0-1.7-0.2-2.5
	c-0.1-0.3-0.1-0.6,0-0.9c0.3-1.4,1.2-2.4,2.3-3.3c0.2-0.2,0.5-0.4,0.7-0.6c0.1-0.1,0.2-0.3,0.4-0.4c0.3-0.2,0.5-0.4,0.6-0.7
	c0.1-0.1,0.1-0.2,0.2-0.3c0.2-0.1,0.3-0.3,0.4-0.5c0-0.1,0.1-0.2,0.2-0.3c0.2-0.2,0.4-0.4,0.6-0.6c0.3-0.4,0.5-0.8,0.7-1.2
	c0.1-0.4,0.3-0.7,0.6-1.1c0.1-0.2,0.2-0.3,0.2-0.5c0.1-0.4,0.2-0.8,0.5-1.1c0.1-0.1,0.1-0.2,0.2-0.3c0.1-0.3,0.3-0.5,0.6-0.6
	c0.1,0,0.1-0.1,0.2-0.2c0.1-0.2,0.2-0.3,0.5-0.4c0.2-0.1,0.5-0.2,0.7-0.2c0.5-0.2,0.9-0.4,1.4-0.5c0.4-0.1,0.7-0.2,1-0.4
	c0.1,0,0.1-0.1,0.2-0.1c0.3-0.1,0.6-0.2,0.9-0.3c0.8-0.4,1.5-0.9,2.1-1.6c0.1-0.1,0.2-0.3,0.4-0.4c0.3-0.2,0.6-0.4,0.6-0.7
	c0-0.1,0.1-0.2,0.2-0.3c0.2-0.3,0.4-0.6,0.5-0.9c0.1-0.3,0.2-0.5,0.4-0.7c0.3-0.3,0.5-0.6,0.5-0.9c0-0.1,0.1-0.2,0.2-0.3l0.4-0.6
	c0.1-0.1,0.1-0.2,0.1-0.3c0.2-0.3,0.6-0.6,0.7-1c0.1-0.3,0.1-0.5,0.2-0.8c0.2-0.8-0.1-1.4-0.5-2.1c-0.2-0.3-0.6-0.7-0.6-1.1
	c0,0,0-0.1-0.1-0.1c-0.1-0.3-0.3-0.5-0.4-0.8c-0.1-0.3-0.3-0.7-0.6-0.9c-0.1,0-0.1-0.1-0.2-0.2c-0.2-0.3-0.3-0.6-0.6-0.9
	c-0.3-0.4-0.6-0.7-1-1c-0.5-0.5-1.1-1.1-1.6-1.6c-0.5-0.4-1-0.8-1.6-1.3c-0.3-0.2-0.6-0.4-0.7-0.7c0-0.1-0.2-0.2-0.3-0.2
	c-0.2-0.1-0.4-0.2-0.5-0.4c-0.1-0.1-0.3-0.2-0.4-0.3l-0.5-0.4c-0.1-0.1-0.3-0.3-0.4-0.3c-1-0.3-2-0.2-3,0.1
	c-0.3,0.1-0.7,0.2-1.1,0.3c-0.5,0.1-0.9,0.2-1.4,0.4c-0.2,0.1-0.5,0.2-0.7,0.4c-0.2,0.1-0.3,0.3-0.4,0.4c-0.1,0.3-0.3,0.6-0.3,0.9
	c-0.1,0.6,0,1.1,0.4,1.5c0.6,0.6,1.6,0.8,2.4,0.4c0.5-0.2,0.9-0.5,1.4-0.8s1.1-0.5,1.7-0.3c0.3,0.1,0.7,0.2,0.8,0.6
	c0,0.1,0.2,0.2,0.2,0.2c0.2,0.1,0.3,0.2,0.3,0.4c0,0.1,0,0.2,0.1,0.3c0.8,1.4,1.3,3,1.8,4.5c0.1,0.5,0.2,1,0.2,1.5
	c0,0.6-0.2,1-0.9,1.2c-0.5,0.1-1.1,0.2-1.6,0.3c-0.5,0-0.9,0.2-1.3,0.5s-0.8,0.7-1.2,1c-0.4,0.4-0.9,0.7-1.5,0.8s-1.2,0.1-1.8,0.1
	c-0.5,0-0.9,0.2-1.3,0.5c-0.1,0.1-0.3,0.2-0.4,0.3c-0.2,0.1-0.5,0.2-0.6,0.4c0,0.1-0.1,0.1-0.2,0.2c-0.3,0.1-0.4,0.3-0.6,0.5
	c-0.3,0.3-0.6,0.6-0.9,1c-0.2,0.3-0.5,0.4-0.8,0.6c-0.5,0.3-1.1,0.3-1.6,0s-0.9-0.8-1.4-1.2c-0.5-0.5-0.7-1.2-0.7-1.9
	c0-0.5,0.2-0.9,0.4-1.3c0.2-0.3,0.4-0.5,0.5-0.8c0.5-0.8,0.5-1.5,0.2-2.4c-0.2-0.6-0.4-1.2-0.3-1.9c0-0.4,0.1-0.8,0.1-1.2
	c0-0.5-0.1-1.1-0.5-1.4c-0.5-0.5-1.2-0.8-1.9-1.1c-0.6-0.2-1.3-0.4-1.9-0.5c-0.7-0.1-1.4-0.2-2.1,0c-0.9,0.3-1.7,0.5-2.2,1.3
	c-0.4,0.6-0.6,1.3-0.5,2c0.1,0.4,0.2,0.7,0.1,1.1c0,0.5-0.2,1-0.3,1.5c-0.1,0.6-0.3,1.2-0.1,1.9c0.1,0.3,0.3,0.6,0.4,0.9
	c0.3,0.5,0.5,1.1,0.5,1.7c0.1,0.7,0,1.4-0.3,2c-0.2,0.4-0.5,0.6-0.8,0.9c-0.4,0.3-0.7,0.6-1.2,0.7c-0.3,0.1-0.7,0.1-1-0.2
	c-0.1-0.1-0.2-0.2-0.3-0.2c-0.4-0.1-0.7-0.4-0.9-0.7c-0.4-0.6-1-1.1-1.6-1.5c-0.4-0.3-0.9-0.4-1.4-0.7c-0.3-0.2-0.8-0.2-1.3-0.2
	c-0.6,0-1.3-0.1-1.9-0.4c-0.4-0.2-0.9-0.4-1.1-0.9c-0.1-0.1-0.2-0.2-0.3-0.3c-0.2-0.1-0.4-0.2-0.6-0.3c-0.1-0.1-0.2-0.2-0.4-0.3
	c-0.6-0.2-1.2-0.4-1.8-0.4c-0.5,0-0.8-0.1-1.2-0.5c-0.1-0.1-0.2-0.2-0.2-0.3c0-0.4-0.1-0.9,0-1.3c0.2-0.9,0.6-1.7,0.9-2.6
	c0.1-0.4,0.3-0.8,0.4-1.2c0.1-0.6,0.3-1.2,0.6-1.7c0.2-0.4,0.5-0.8,1-1.1c0.6-0.3,1.3-0.3,1.9,0c0.4,0.2,0.9,0.5,1.3,0.7
	c0.3,0.1,0.6,0.2,0.9,0.1c0.6-0.1,1.1-0.4,1.4-0.8c0.3-0.4,0.6-0.9,0.5-1.4c-0.2-0.9-0.8-1.4-1.6-1.7c-0.5-0.2-1.1-0.3-1.7-0.4
	c-0.8-0.2-1.7-0.3-2.5-0.3c-0.3,0-0.6,0.1-0.8,0.2c-0.3,0.1-0.5,0.3-0.8,0.4c-0.4,0.2-0.8,0.4-1,0.8c-0.2,0.3-0.5,0.6-0.7,0.9
	c-0.5,0.6-1.1,1.1-1.6,1.6c-0.4,0.4-0.7,0.8-1.1,1.2c-0.2,0.2-0.4,0.4-0.6,0.6c-0.2,0.1-0.3,0.3-0.4,0.4c-0.1,0.2-0.2,0.4-0.4,0.6
	c-0.2,0.3-0.5,0.6-0.5,1c0,0.1-0.1,0.2-0.2,0.3c-0.4,0.2-0.5,0.6-0.6,0.9c-0.3,0.6-0.5,1.3-0.9,1.8c-0.1,0.1-0.2,0.3-0.3,0.5
	c-0.2,0.4-0.3,0.8-0.4,1.2c-0.1,0.5-0.2,1,0.3,1.4C-1043.1,746-1043.1,746-1043.1,746.1"/>
<path class="st3" d="M109.6,52.4l1-0.9c0.2-0.1,0.4-0.3,0.5-0.5l0.5-0.5c0.3-0.3,0.7-0.7,1-1c0.7-0.7,1.3-1.3,1.9-2.1l0.5-0.5
	l0.2-0.3l0.2-0.3l0.9-1.1l1.2,0.9c-0.5,0.7-1.1,1.4-1.7,2.1c-0.3,0.3-0.6,0.7-0.9,1l-0.9,1l-0.5,0.5l-0.5,0.5l-1,0.9
	c-0.3,0.3-0.7,0.6-1,0.9c-0.3,0.3-0.7,0.6-1,0.9l1.7,2.1c1.6-1.3,3.1-2.7,4.5-4.2c0.7-0.7,1.4-1.5,2.1-2.3c0.3-0.4,0.7-0.8,0.9-1.2
	c0.3-0.4,0.7-0.8,0.9-1.2l0.8-1.1l-3.4-2.4c1-1.6,2-3.1,2.9-4.9l0.3-0.6c0.1-0.2,0.2-0.4,0.3-0.7l0.6-1.3l0.5-1.3l0.3-0.7l0.2-0.7
	l1.4,0.5c-1.2,3.4-2.8,6.6-4.7,9.6l2.2,1.5l0.8-1.3l0.8-1.3c0.1-0.2,0.3-0.4,0.4-0.7l0.4-0.7c0.2-0.5,0.5-0.9,0.7-1.4
	c0.4-0.9,0.9-1.8,1.2-2.8c0.2-0.5,0.4-0.9,0.5-1.4l0.5-1.4c0.1-0.2,0.1-0.4,0.2-0.7l0.2-0.7l-4-1.2l0.4-1.3l0.3-1.4l0.1-0.7l0.1-0.7
	l0.3-1.4l0.2-1.4l0.1-0.7l0-0.7l0.1-1.4c0-0.5,0-0.9,0-1.4l1.4,0l0,1.3l-0.1,1.3c0,0.9-0.2,1.8-0.3,2.6c0,0.4-0.1,0.9-0.2,1.3
	l-0.3,1.3l-0.3,1.3c-0.1,0.4-0.2,0.9-0.3,1.3l2.6,0.7c0.1-0.5,0.3-1,0.4-1.5c0.1-0.5,0.3-1,0.3-1.5c0.2-1,0.4-2,0.5-3
	c0.3-2,0.4-4.1,0.4-6.1l0-1.4l-4.1,0.1c-0.1-3.8-0.7-7.5-1.8-11.1l1.4-0.4c1,3.4,1.6,7,1.8,10.5l2.7-0.1l-0.1-1.5l-0.1-0.8
	c0-0.3-0.1-0.5-0.1-0.8l-0.2-1.5c-0.1-0.5-0.2-1-0.3-1.5c-0.1-1-0.4-2-0.7-3c-0.1-0.5-0.3-1-0.4-1.5c-0.1-0.5-0.3-1-0.4-1.5
	l-0.4-1.3l-3.9,1.4c-0.7-1.8-1.4-3.5-2.2-5.2c-0.4-0.8-0.9-1.7-1.4-2.5c-0.3-0.4-0.5-0.8-0.8-1.2l-0.4-0.6c-0.1-0.2-0.3-0.4-0.4-0.6
	l1.2-0.8c2.1,2.9,3.7,6.1,5,9.4l2.5-1l-0.6-1.4c-0.2-0.5-0.4-0.9-0.6-1.4l-0.3-0.7l-0.4-0.7l-0.7-1.4L122.6-4l-0.4-0.7l-0.4-0.7
	c-0.3-0.4-0.5-0.9-0.8-1.3l-0.9-1.3c-0.1-0.2-0.3-0.4-0.4-0.5L119.3-9L116-6.4l-0.9-1.1l-0.9-1c-0.1-0.2-0.3-0.4-0.5-0.5l-0.5-0.5
	c-0.3-0.3-0.7-0.7-1-1c-0.7-0.7-1.3-1.3-2.1-1.9l-0.5-0.5l-0.3-0.2l-0.3-0.2l-1.1-0.9l0.9-1.2c0.7,0.5,1.4,1.1,2.1,1.7
	c0.3,0.3,0.7,0.6,1,0.9l1,0.9l0.5,0.5l0.5,0.5l0.9,1c0.3,0.3,0.6,0.7,0.9,1c0.3,0.3,0.6,0.7,0.9,1l2.1-1.7c-1.3-1.6-2.7-3.1-4.2-4.5
	c-0.7-0.7-1.5-1.4-2.3-2.1c-0.4-0.3-0.8-0.7-1.2-0.9c-0.4-0.3-0.8-0.7-1.2-0.9l-1.1-0.8l-2.4,3.4c-1.6-1-3.1-2-4.9-2.9l-0.6-0.3
	c-0.2-0.1-0.4-0.2-0.7-0.3l-1.3-0.6l-1.3-0.5l-0.7-0.3l-0.7-0.2l0.5-1.4c3.4,1.2,6.6,2.8,9.6,4.7l1.5-2.2l-1.3-0.8l-1.3-0.8
	c-0.2-0.1-0.4-0.3-0.7-0.4l-0.7-0.4c-0.5-0.2-0.9-0.5-1.4-0.7c-0.9-0.4-1.8-0.9-2.8-1.2c-0.5-0.2-0.9-0.4-1.4-0.5l-1.4-0.5
	c-0.2-0.1-0.4-0.1-0.7-0.2l-0.7-0.2l-1.2,4l-1.3-0.4L91.5-22l-0.7-0.1l-0.7-0.1l-1.4-0.3l-1.4-0.2l-0.7-0.1l-0.7,0l-1.4-0.1
	c-0.5,0-0.9,0-1.4,0l0-1.4l1.3,0l1.3,0.1c0.9,0,1.8,0.2,2.6,0.3c0.4,0,0.9,0.1,1.3,0.2l1.3,0.3l1.3,0.3c0.4,0.1,0.9,0.2,1.3,0.3
	l0.7-2.6c-0.5-0.1-1-0.3-1.5-0.4s-1-0.3-1.5-0.3c-1-0.2-2-0.4-3-0.5c-2-0.3-4.1-0.4-6.1-0.4L81-27l0.1,4.1
	c-3.8,0.1-7.5,0.7-11.1,1.8l-0.4-1.4c3.4-1,7-1.6,10.5-1.8L79.9-27l-1.5,0.1l-0.8,0.1c-0.3,0-0.5,0.1-0.8,0.1l-1.5,0.2
	c-0.5,0.1-1,0.2-1.5,0.3c-1,0.1-2,0.4-3,0.7c-0.5,0.1-1,0.3-1.5,0.4c-0.5,0.1-1,0.3-1.5,0.4l-1.3,0.4l1.4,3.9
	c-1.8,0.7-3.5,1.4-5.2,2.2c-0.8,0.4-1.7,0.9-2.5,1.4c-0.4,0.3-0.8,0.5-1.2,0.8l-0.6,0.4c-0.2,0.1-0.4,0.3-0.6,0.4l-0.8-1.2
	c2.9-2.1,6.1-3.7,9.4-5l-1-2.5l-1.4,0.6c-0.5,0.2-0.9,0.4-1.4,0.6l-0.7,0.3l-0.7,0.4L60-21.4l-1.3,0.8L58-20.2l-0.7,0.4
	c-0.4,0.3-0.9,0.5-1.3,0.8l-1.3,0.9c-0.2,0.1-0.4,0.3-0.5,0.4l-0.5,0.4l2.5,3.3l-1.1,0.9l-1,0.9c-0.2,0.1-0.4,0.3-0.5,0.5L53-11.2
	c-0.3,0.3-0.7,0.7-1,1c-0.7,0.7-1.3,1.3-1.9,2.1l-0.5,0.5l-0.2,0.3l-0.2,0.3L48.3-6l-1.2-0.9c0.5-0.7,1.1-1.4,1.7-2.1
	c0.3-0.3,0.6-0.7,0.9-1l0.9-1l0.5-0.5l0.5-0.5l1-0.9c0.3-0.3,0.7-0.6,1-0.9c0.3-0.3,0.7-0.6,1-0.9l-1.7-2.1
	c-1.6,1.3-3.1,2.7-4.5,4.2c-0.7,0.7-1.4,1.5-2.1,2.3C46-9.8,45.7-9.4,45.4-9c-0.3,0.4-0.7,0.8-0.9,1.2l-0.8,1.1l3.4,2.4
	c-1,1.6-2,3.1-2.9,4.9l-0.3,0.6c-0.1,0.2-0.2,0.4-0.3,0.7L43,3.1l-0.5,1.3l-0.3,0.7l-0.2,0.7l-1.4-0.5c1.2-3.4,2.8-6.6,4.7-9.6
	l-2.2-1.5l-0.8,1.3l-0.8,1.3c-0.1,0.2-0.3,0.4-0.4,0.7l-0.4,0.7c-0.2,0.5-0.5,0.9-0.7,1.4c-0.4,0.9-0.9,1.8-1.2,2.8
	c-0.2,0.5-0.4,0.9-0.5,1.4l-0.5,1.4c-0.1,0.2-0.1,0.4-0.2,0.7l-0.2,0.7l4,1.2L41,9l-0.3,1.4l-0.1,0.7l-0.1,0.7l-0.3,1.4L40,14.6
	L40,15.3l0,0.7l-0.1,1.4c0,0.5,0,0.9,0,1.4l-1.4,0l0-1.3l0.1-1.3c0-0.9,0.2-1.8,0.3-2.6c0-0.4,0.1-0.9,0.2-1.3l0.2-1.3l0.3-1.3
	c0.1-0.4,0.2-0.9,0.3-1.3l-2.6-0.7C37.1,8,37,8.5,36.8,9c-0.1,0.5-0.3,1-0.3,1.5c-0.2,1-0.4,2-0.5,3c-0.3,2-0.4,4.1-0.4,6.1l0,1.4
	l4.1-0.1c0.1,3.8,0.7,7.5,1.8,11.1l-1.4,0.4c-1-3.4-1.6-7-1.8-10.5L35.7,22l0.1,1.5l0.1,0.8c0,0.3,0.1,0.5,0.1,0.8l0.2,1.5
	c0.1,0.5,0.2,1,0.3,1.5c0.1,1,0.4,2,0.7,3c0.1,0.5,0.3,1,0.4,1.5c0.1,0.5,0.3,1,0.4,1.5l0.4,1.3l3.9-1.4c0.7,1.8,1.4,3.5,2.2,5.2
	c0.4,0.8,0.9,1.7,1.4,2.5c0.3,0.4,0.5,0.8,0.8,1.2l0.4,0.6c0.1,0.2,0.3,0.4,0.4,0.6l-1.2,0.8c-2.1-2.9-3.7-6.1-5-9.4l-2.5,1l0.6,1.4
	c0.2,0.5,0.4,0.9,0.6,1.4l0.3,0.7l0.4,0.7l0.7,1.4l0.8,1.3l0.4,0.7l0.4,0.7c0.3,0.4,0.5,0.9,0.8,1.3l0.9,1.3
	c0.1,0.2,0.3,0.4,0.4,0.5l0.4,0.5l3.3-2.5l0.9,1.1l0.9,1c0.1,0.2,0.3,0.4,0.5,0.5l0.5,0.5c0.3,0.3,0.7,0.7,1,1
	c0.7,0.7,1.3,1.3,2.1,1.9l0.5,0.5l0.3,0.2l0.3,0.2l1.1,0.9l-0.9,1.2c-0.7-0.5-1.4-1.1-2.1-1.7c-0.3-0.3-0.7-0.6-1-0.9l-1-0.9
	l-0.5-0.5l-0.5-0.5l-0.9-1c-0.3-0.3-0.6-0.7-0.9-1c-0.3-0.3-0.6-0.7-0.9-1L46,49c1.3,1.6,2.7,3.1,4.2,4.5c0.7,0.7,1.5,1.4,2.3,2.1
	c0.4,0.3,0.8,0.7,1.2,0.9c0.4,0.3,0.8,0.7,1.2,0.9l1.1,0.8l2.4-3.4c1.6,1,3.1,2,4.9,2.9l0.6,0.3c0.2,0.1,0.4,0.2,0.7,0.3l1.3,0.6
	l1.3,0.5l0.7,0.3l0.7,0.2l-0.5,1.4c-3.4-1.2-6.6-2.8-9.6-4.7l-1.5,2.2l1.3,0.8l1.3,0.8c0.2,0.1,0.4,0.3,0.7,0.4l0.7,0.4
	c0.5,0.2,0.9,0.5,1.4,0.7c0.9,0.4,1.8,0.9,2.8,1.2c0.5,0.2,0.9,0.4,1.4,0.5l1.4,0.5c0.2,0.1,0.4,0.1,0.7,0.2l0.7,0.2l1.2-4l1.3,0.4
	l1.4,0.3l0.7,0.1l0.7,0.1l1.4,0.3l1.4,0.2L78,62l0.7,0l1.4,0.1c0.5,0,0.9,0,1.4,0l0,1.4l-1.3,0l-1.3-0.1c-0.9,0-1.8-0.2-2.7-0.3
	c-0.4,0-0.9-0.1-1.3-0.2l-1.3-0.2l-1.3-0.3c-0.4-0.1-0.9-0.2-1.3-0.3l-0.7,2.6c0.5,0.1,1,0.3,1.5,0.4c0.5,0.1,1,0.3,1.5,0.3
	c1,0.2,2,0.4,3,0.5c2,0.3,4.1,0.4,6.1,0.4l1.4,0l-0.1-4.1c3.8-0.1,7.5-0.7,11.1-1.8l0.4,1.4c-3.4,1-7,1.6-10.5,1.8l0.1,2.7l1.5-0.1
	l0.8-0.1c0.3,0,0.5-0.1,0.8-0.1l1.5-0.2c0.5-0.1,1-0.2,1.5-0.3c1-0.1,2-0.4,3-0.7c0.5-0.1,1-0.3,1.5-0.4c0.5-0.1,1-0.3,1.5-0.4
	l1.3-0.4l-1.4-3.9c1.8-0.7,3.5-1.4,5.2-2.2c0.8-0.4,1.7-0.9,2.5-1.4c0.4-0.3,0.8-0.5,1.2-0.8l0.6-0.4c0.2-0.1,0.4-0.3,0.6-0.4
	l0.8,1.2c-2.9,2.1-6.1,3.7-9.4,5l1,2.5l1.4-0.6c0.5-0.2,0.9-0.4,1.4-0.6l0.7-0.3l0.7-0.4l1.4-0.7l1.3-0.8l0.7-0.4l0.7-0.4
	c0.4-0.3,0.9-0.5,1.3-0.8l1.3-0.9c0.2-0.1,0.4-0.3,0.5-0.4l0.5-0.4l-2.5-3.3L109.6,52.4z M110.2,56.5c-0.2,0.1-0.4,0.3-0.6,0.4
	l-1.2,0.8c-0.4,0.3-0.8,0.5-1.2,0.8c-0.8,0.5-1.6,1-2.5,1.5c-0.2,0.1-0.4,0.2-0.6,0.3l-0.7,0.3l-0.7,0.3c-0.2,0.1-0.4,0.2-0.7,0.3
	c-0.9,0.4-1.7,0.8-2.6,1.2L99,61.1c0.8-0.3,1.7-0.7,2.5-1.1c0.4-0.2,0.8-0.4,1.2-0.6c0.4-0.2,0.8-0.4,1.2-0.6l1.2-0.7l0.6-0.3
	l0.6-0.4l1.2-0.7c0.4-0.3,0.7-0.5,1.1-0.8l-1.6-2.2l-0.6,0.4c-0.2,0.1-0.4,0.3-0.7,0.4l-1.3,0.8c-0.4,0.3-0.9,0.5-1.3,0.8
	c-0.2,0.1-0.4,0.3-0.7,0.4l-0.7,0.4l-0.7,0.4l-0.3,0.2l-0.4,0.1l-1.4,0.6c-0.5,0.2-0.9,0.4-1.4,0.6c-0.3,0.1-0.5,0.2-0.7,0.3
	l-0.7,0.3l1.3,3.9l-0.7,0.2c-0.4,0.1-0.9,0.3-1.4,0.4L94,64.3l-1.4,0.3l-0.7,0.1c-0.2,0-0.5,0.1-0.7,0.1l-1.4,0.3
	c-0.5,0.1-0.9,0.1-1.4,0.2c-0.5,0.1-0.9,0.1-1.4,0.2l-1.4,0.1l-0.1-1.4c3.6-0.3,7.2-0.9,10.6-2l-0.8-2.6c-0.5,0.2-1,0.3-1.5,0.4
	L93,60.3l-0.8,0.2c-0.5,0.1-1,0.3-1.5,0.3l-1.5,0.3l-0.4,0.1l-0.4,0l-0.8,0.1c-0.5,0.1-1,0.1-1.5,0.2l-1.5,0.1l-1.5,0l0.1,4.1h-0.7
	c-3.8,0-7.7-0.5-11.4-1.4l0.4-1.4c3.5,0.9,7.1,1.3,10.8,1.4v-2.7l-1.5,0h-0.4l-0.4,0l-0.8-0.1c-1,0-2-0.2-3-0.3c-2-0.3-4-0.8-6-1.4
	l-1.2,3.9c-0.2-0.1-0.5-0.1-0.7-0.2c-3.7-1.2-7.2-2.8-10.4-4.9l0.8-1.2c3,2,6.4,3.5,9.8,4.6l0.8-2.6c-2-0.6-3.8-1.4-5.6-2.4
	c-0.5-0.3-0.9-0.5-1.4-0.7l-1.3-0.8c-0.4-0.3-0.9-0.5-1.3-0.8c-0.2-0.1-0.4-0.3-0.7-0.4l-0.6-0.4l-2.4,3.4l-0.6-0.4
	c-0.2-0.1-0.4-0.3-0.6-0.4l-0.6-0.4L53,55.2l-1.1-0.9l-0.5-0.5l-0.5-0.5l-1-1l-1-1l-0.5-0.5c-0.2-0.2-0.3-0.4-0.5-0.5l-0.9-1.1
	l1.1-0.9c2.3,2.8,5,5.3,7.9,7.4l1.6-2.2c-1.6-1.2-3.2-2.5-4.7-4s-2.8-3-4.1-4.6l-3.3,2.5c-0.1-0.2-0.3-0.4-0.4-0.6l-0.8-1.2
	c-0.3-0.4-0.5-0.8-0.8-1.2c-0.5-0.8-1-1.6-1.5-2.5c-0.1-0.2-0.2-0.4-0.3-0.6l-0.3-0.7L40.9,40c-0.1-0.2-0.2-0.4-0.3-0.7
	c-0.4-0.9-0.8-1.7-1.2-2.6l1.3-0.5c0.3,0.8,0.7,1.7,1.1,2.5c0.2,0.4,0.4,0.8,0.6,1.2c0.2,0.4,0.4,0.8,0.6,1.2l0.7,1.2l0.3,0.6
	l0.4,0.6l0.7,1.2c0.3,0.4,0.5,0.7,0.8,1.1l2.2-1.6l-0.4-0.6c-0.1-0.2-0.3-0.4-0.4-0.7l-0.8-1.3c-0.3-0.4-0.5-0.9-0.8-1.3
	c-0.1-0.2-0.3-0.4-0.4-0.7L45,38.8l-0.4-0.7l-0.2-0.3l-0.1-0.4L43.7,36c-0.2-0.5-0.4-0.9-0.6-1.4c-0.1-0.3-0.2-0.5-0.3-0.7l-0.3-0.7
	l-3.9,1.3l-0.2-0.7c-0.1-0.4-0.3-0.9-0.4-1.4l-0.4-1.4l-0.3-1.4L37.1,29c0-0.2-0.1-0.5-0.1-0.7l-0.3-1.4c-0.1-0.5-0.1-0.9-0.2-1.4
	c0-0.5-0.1-0.9-0.2-1.4l-0.1-1.4l1.4-0.1c0.3,3.6,0.9,7.2,2,10.6l2.6-0.8c-0.2-0.5-0.3-1-0.4-1.5l-0.2-0.7l-0.2-0.8
	c-0.1-0.5-0.3-1-0.3-1.5l-0.3-1.5l-0.1-0.4l0-0.4l-0.1-0.8c-0.1-0.5-0.1-1-0.2-1.5l-0.1-1.5l0-1.5l-4.1,0.1v-0.7
	c0-3.8,0.5-7.7,1.4-11.4L39,8.6c-0.9,3.5-1.3,7.1-1.4,10.8h2.7l0-1.5v-0.4l0-0.4l0.1-0.8c0-1,0.2-2,0.3-3c0.3-2,0.8-4,1.4-6L38.2,6
	c0.1-0.2,0.1-0.5,0.2-0.7c1.2-3.7,2.8-7.2,4.9-10.4l1.2,0.8c-2,3-3.5,6.4-4.6,9.8l2.6,0.8c0.6-2,1.4-3.8,2.4-5.6
	c0.3-0.4,0.5-0.9,0.7-1.4l0.8-1.3c0.3-0.4,0.5-0.9,0.8-1.3c0.1-0.2,0.3-0.4,0.4-0.7L48-4.6L44.6-7L45-7.6c0.1-0.2,0.3-0.4,0.4-0.6
	l0.4-0.6l0.9-1.1l0.9-1.1l0.5-0.5l0.5-0.5l1-1l1-1l0.5-0.5c0.2-0.2,0.4-0.3,0.5-0.5l1.1-0.9l0.9,1.1c-2.8,2.3-5.3,5-7.4,7.9l2.2,1.6
	c1.2-1.6,2.5-3.2,4-4.7s3-2.8,4.6-4l-2.5-3.3c0.2-0.1,0.4-0.3,0.6-0.4l1.2-0.8c0.4-0.3,0.8-0.5,1.2-0.8c0.8-0.5,1.6-1,2.5-1.5
	c0.2-0.1,0.4-0.2,0.6-0.3l0.7-0.3l0.7-0.3c0.2-0.1,0.4-0.2,0.7-0.3c0.9-0.4,1.7-0.8,2.6-1.2l0.5,1.3c-0.8,0.3-1.7,0.7-2.5,1.1
	c-0.4,0.2-0.8,0.4-1.2,0.6c-0.4,0.2-0.8,0.4-1.2,0.6L59.7-19l-0.6,0.3l-0.6,0.4l-1.2,0.7c-0.4,0.3-0.7,0.5-1.1,0.8l1.6,2.2l0.6-0.4
	c0.2-0.1,0.4-0.3,0.7-0.4l1.3-0.8c0.4-0.3,0.9-0.5,1.3-0.8c0.2-0.1,0.4-0.3,0.7-0.4l0.7-0.4l0.7-0.4l0.3-0.2l0.4-0.1l1.4-0.6
	c0.5-0.2,0.9-0.4,1.4-0.6c0.3-0.1,0.5-0.2,0.7-0.3l0.7-0.3l-1.3-3.9l0.7-0.2c0.4-0.1,0.9-0.3,1.4-0.4l1.4-0.4l1.4-0.3l0.7-0.1
	c0.2,0,0.5-0.1,0.7-0.1l1.4-0.3c0.5-0.1,0.9-0.1,1.4-0.2c0.5,0,0.9-0.1,1.4-0.2l1.4-0.1l0.1,1.4c-3.6,0.3-7.2,0.9-10.6,2l0.8,2.6
	c0.5-0.2,1-0.3,1.5-0.4l0.7-0.2l0.8-0.2c0.5-0.1,1-0.3,1.5-0.3l1.5-0.3l0.4-0.1l0.4,0l0.8-0.1c0.5-0.1,1-0.1,1.5-0.2l1.5-0.1l1.5,0
	l-0.1-4.1h0.7c3.8,0,7.7,0.5,11.4,1.4l-0.4,1.4c-3.5-0.9-7.1-1.3-10.8-1.4v2.7l1.5,0h0.4l0.4,0l0.8,0.1c1,0,2,0.2,3,0.3
	c2,0.3,4,0.8,6,1.4l1.2-3.9c0.2,0.1,0.5,0.1,0.7,0.2c3.7,1.2,7.2,2.8,10.4,4.9l-0.8,1.2c-3-2-6.4-3.5-9.8-4.6l-0.8,2.6
	c2,0.6,3.8,1.4,5.6,2.4c0.4,0.3,0.9,0.5,1.4,0.7l1.3,0.8c0.4,0.3,0.9,0.5,1.3,0.8c0.2,0.1,0.4,0.3,0.7,0.4l0.6,0.4l2.4-3.4l0.6,0.4
	c0.2,0.1,0.4,0.3,0.6,0.4l0.6,0.4l1.1,0.9l1.1,0.9l0.5,0.5l0.5,0.5l1,1l1,1l0.5,0.5c0.2,0.2,0.3,0.4,0.5,0.5l0.9,1.1l-1.1,0.9
	c-2.3-2.8-5-5.3-7.9-7.4l-1.6,2.2c1.6,1.2,3.2,2.5,4.7,4c1.4,1.4,2.8,3,4,4.6l3.3-2.5c0.1,0.2,0.3,0.4,0.4,0.6l0.8,1.2
	c0.3,0.4,0.5,0.8,0.8,1.2c0.5,0.8,1,1.6,1.5,2.5c0.1,0.2,0.2,0.4,0.3,0.6l0.3,0.7l0.3,0.7c0.1,0.2,0.2,0.4,0.3,0.7
	c0.4,0.9,0.8,1.7,1.2,2.6L124,3c-0.3-0.8-0.7-1.7-1.1-2.5c-0.2-0.4-0.4-0.8-0.6-1.2c-0.2-0.4-0.4-0.8-0.6-1.2L121-3.2l-0.3-0.6
	l-0.4-0.6l-0.7-1.2c-0.3-0.4-0.5-0.7-0.8-1.1L116.6-5l0.4,0.6c0.1,0.2,0.3,0.4,0.4,0.7l0.8,1.3c0.3,0.4,0.5,0.9,0.8,1.3
	c0.1,0.2,0.3,0.4,0.4,0.7l0.4,0.7l0.4,0.7l0.2,0.3l0.1,0.4l0.6,1.4c0.2,0.5,0.4,0.9,0.6,1.4c0.1,0.3,0.2,0.5,0.3,0.7l0.3,0.7
	l3.9-1.3l0.2,0.7c0.1,0.4,0.3,0.9,0.4,1.4l0.4,1.4l0.3,1.4l0.1,0.7c0,0.2,0.1,0.5,0.1,0.7l0.3,1.4c0.1,0.5,0.1,0.9,0.2,1.4
	c0.1,0.5,0.1,0.9,0.2,1.4l0.1,1.4l-1.4,0.1c-0.3-3.6-0.9-7.2-2-10.6l-2.6,0.8c0.2,0.5,0.3,1,0.4,1.5l0.2,0.7l0.2,0.8
	c0.1,0.5,0.3,1,0.3,1.5l0.3,1.5l0.1,0.4l0,0.4l0.1,0.8c0.1,0.5,0.1,1,0.2,1.5l0.1,1.5l0,1.5l4.1-0.1v0.7c0,3.8-0.5,7.7-1.4,11.4
	l-1.4-0.4c0.9-3.5,1.3-7.1,1.4-10.8h-2.7l0,1.5v0.4l0,0.4l-0.1,0.8c0,1-0.2,2-0.3,3c-0.3,2-0.8,4-1.4,6l3.9,1.2
	c-0.1,0.2-0.1,0.5-0.2,0.7c-1.2,3.7-2.8,7.2-4.9,10.4l-1.2-0.8c2-3,3.5-6.4,4.6-9.8l-2.6-0.8c-0.6,2-1.4,3.8-2.4,5.6
	c-0.3,0.4-0.5,0.9-0.7,1.4l-0.8,1.3c-0.3,0.4-0.5,0.9-0.8,1.3c-0.1,0.2-0.3,0.4-0.4,0.7l-0.4,0.6l3.4,2.4l-0.4,0.6
	c-0.1,0.2-0.3,0.4-0.4,0.6l-0.4,0.6l-0.9,1.1l-0.9,1.1l-0.5,0.5l-0.5,0.5l-1,1l-1,1l-0.5,0.5c-0.2,0.2-0.4,0.3-0.5,0.5l-1.1,0.9
	l-0.9-1.1c2.8-2.3,5.3-5,7.4-7.9l-2.2-1.6c-1.2,1.6-2.5,3.2-4,4.7c-1.4,1.4-3,2.8-4.6,4.1L110.2,56.5z"/>
</svg>
