<svg 
 xmlns="http://www.w3.org/2000/svg"
 xmlns:xlink="http://www.w3.org/1999/xlink"
 width="10px" height="20px">
<path fill-rule="evenodd"  fill="rgb(204, 204, 204)"
 d="M0.208,0.216 C-0.093,0.525 -0.093,1.025 0.208,1.334 L8.171,9.446 L0.231,17.654 C-0.070,17.963 -0.070,18.463 0.231,18.772 C0.532,19.081 1.018,19.081 1.319,18.772 L9.745,10.041 C9.769,10.017 9.769,10.017 9.769,9.994 L9.769,9.994 C9.907,9.851 10.000,9.637 10.000,9.446 C10.000,9.232 9.931,9.042 9.769,8.875 L1.296,0.216 C0.995,-0.093 0.509,-0.093 0.208,0.216 L0.208,0.216 L0.208,0.216 L0.208,0.216 M0.208,0.216 L0.208,0.216 Z"/>
</svg>
