<?xml version="1.0" encoding="utf-8"?>
<!-- Generator: Adobe Illustrator 19.0.0, SVG Export Plug-In . SVG Version: 6.00 Build 0)  -->
<svg version="1.1" id="图层_1" xmlns="http://www.w3.org/2000/svg" xmlns:xlink="http://www.w3.org/1999/xlink" x="0px" y="0px"
	 viewBox="-320 198.3 200 200" style="enable-background:new -320 198.3 200 200;" xml:space="preserve">
<style type="text/css">
	.st0{fill:#FFFFFF;}
</style>
<path class="st0" d="M-314.7,398.3c-2.3,0-4.3-1.7-4.6-4.1c-0.4-2.6,1.4-5,4-5.3c5.2-0.7,25.6-9.6,46.8-22.3
	c11.4-6.8,21.5-13.9,29.2-20.4c1.3-1.1,2.6-2.2,3.8-3.3c-2.5-0.3-4.9-0.7-7.4-1.3c-11.3-2.8-21.5-9.1-27.8-17.3
	c-4.7-6.1-7.2-13.1-7.2-20.2c0-7.8,2.8-15.3,8.5-22.3c0.1-0.1,0.2-0.3,0.3-0.4c6.9-6.9,15.2-10.7,24.1-11.1
	c8.1-0.4,16.2,2.2,22.9,7.2c7.2,5.4,12.2,13.3,14.1,22.2c2.1,9.8,0.3,20.2-5.2,30.2c-0.2,0.3-0.3,0.7-0.5,1c1.2-0.4,2.5-0.9,3.7-1.5
	c27.4-12.4,42.8-43.1,50.8-66.6c8.8-25.9,11-49,11-49.2c0.2-2.6,2.5-4.5,5.1-4.3c2.6,0.2,4.5,2.5,4.3,5.1c-0.1,1-2.3,24.4-11.5,51.4
	c-5.5,15.9-12.3,29.8-20.2,41.1c-10.1,14.4-22.1,24.8-35.7,31c-5.1,2.3-10.4,3.8-15.9,4.6c-10.9,12.1-27.7,23.5-41.7,31.9
	c-19.8,11.9-42.4,22.4-50.3,23.5C-314.2,398.3-314.5,398.3-314.7,398.3L-314.7,398.3z M-262.3,288.1c-10.9,13.5-5.3,24.9-1,30.5
	c7.2,9.4,21.4,16,36.6,15.1c2.2-2.7,3.8-5.3,5-7.7c0.1-0.1,0.1-0.2,0.2-0.3c9.7-17.4,3.8-32.9-6.3-40.5
	C-236.8,278.5-250.8,276.8-262.3,288.1L-262.3,288.1z"/>
<path class="st0" d="M-126.2,237c-1.7,0-3.3-0.9-4.2-2.5l-12-23.1l-17.6,20.8c-1.7,2-4.6,2.2-6.6,0.5c-2-1.7-2.2-4.6-0.5-6.6
	l22.2-26.1c1-1.2,2.6-1.8,4.1-1.6c1.6,0.2,2.9,1.1,3.7,2.5l15.2,29.3c1.2,2.3,0.3,5.2-2,6.3C-124.8,236.8-125.5,237-126.2,237
	L-126.2,237z"/>
</svg>
