<?xml version="1.0" encoding="utf-8"?>
<!-- Generator: Adobe Illustrator 19.0.0, SVG Export Plug-In . SVG Version: 6.00 Build 0)  -->
<svg version="1.1" id="图层_1" xmlns="http://www.w3.org/2000/svg" xmlns:xlink="http://www.w3.org/1999/xlink" x="0px" y="0px"
	 viewBox="-586 411.9 19 19" style="enable-background:new -586 411.9 19 19;" xml:space="preserve">
<style type="text/css">
	.st0{fill:#F5F5F5;}
	.st1{fill:#FFFFFF;}
	.st2{fill:#547EA3;}
</style>
<g>
	<path class="st0" d="M-576.5,430.4c-5,0-9-4-9-9c0-5,4-9,9-9s9,4,9,9C-567.5,426.4-571.5,430.4-576.5,430.4z"/>
	<path class="st1" d="M-576.5,412.9c4.7,0,8.5,3.8,8.5,8.5s-3.8,8.5-8.5,8.5s-8.5-3.8-8.5-8.5S-581.2,412.9-576.5,412.9
		 M-576.5,411.9c-5.2,0-9.5,4.3-9.5,9.5s4.3,9.5,9.5,9.5s9.5-4.3,9.5-9.5S-571.3,411.9-576.5,411.9L-576.5,411.9z"/>
</g>
<path class="st2" d="M-571.6,415.8h-2.8c-0.4,0-0.7,0.3-0.7,0.7c0,0.4,0.3,0.7,0.7,0.7h1l-2.2,2.2c-0.7-0.5-1.5-0.7-2.3-0.7
	c-1.1,0-2.1,0.4-2.9,1.2c-0.8,0.8-1.2,1.8-1.2,3s0.4,2.1,1.2,2.9c0.8,0.8,1.8,1.2,2.9,1.2c1.1,0,2.1-0.4,2.9-1.2
	c1.4-1.4,1.6-3.6,0.5-5.2l2.2-2.2v1c0,0.4,0.3,0.7,0.7,0.7c0.4,0,0.7-0.3,0.7-0.7v-2.8C-570.9,416.2-571.2,415.8-571.6,415.8z
	 M-576.1,424.7c-0.5,0.5-1.2,0.8-1.8,0.8c-0.7,0-1.4-0.3-1.9-0.8c-0.5-0.5-0.8-1.1-0.8-1.8c0-0.7,0.3-1.4,0.8-1.8
	c0.5-0.5,1.2-0.8,1.9-0.8c0.7,0,1.4,0.3,1.8,0.8C-575.1,422.1-575.1,423.7-576.1,424.7L-576.1,424.7z"/>
</svg>
