<?xml version="1.0" encoding="utf-8"?>
<!-- Generator: Adobe Illustrator 19.0.0, SVG Export Plug-In . SVG Version: 6.00 Build 0)  -->
<svg version="1.1" id="图层_1" xmlns="http://www.w3.org/2000/svg" xmlns:xlink="http://www.w3.org/1999/xlink" x="0px" y="0px"
	 viewBox="31 -31.7 102.7 102.7" style="enable-background:new 31 -31.7 102.7 102.7;" xml:space="preserve">
<style type="text/css">
	.st0{display:none;fill:#FFFFFF;}
	.st1{display:none;fill:#EA68A2;}
	.st2{fill:#EA68A2;}
	.st3{fill:#50A9B5;}
	.st4{fill:#FFFFFF;}
</style>
<title>Group 6</title>
<desc>Created with Sketch.</desc>
<path id="Fill-14" class="st0" d="M-993.3,779.7c-0.4-0.3-0.9-0.5-1.3-0.3c-0.4,0.1-0.6,0.3-0.8,0.5l-0.2,0.2
	c-0.1,0.1-0.2,0.2-0.4,0.4l0,0c-0.1,0.1-0.2,0.2-0.4,0.4c-0.5,0.5-0.9,0.9-1.3,1.3c-0.6,0.6-1,1-1.5,1.5c-3.9,3.3-5.5,3.8-8.9,4.9
	l-0.2,0.1c-1.7,0.5-3.4,0.9-5.1,1c-4.2,0.4-8.1,0-11.7-1.3s-7-3.4-10-6.3c-0.3-0.3-0.6-0.6-0.8-0.8c-0.3-0.3-0.6-0.7-1-1
	s-1.4-0.7-2.1,0.1c-1,1,0.1,2.2,0.2,2.4l0.1,0.1c0.4,0.4,0.9,0.9,1.3,1.3c1,1,2,2,3.2,2.9c4,3,8.2,4.9,12.7,5.7
	c4.4,0.8,9.1,0.5,14-0.8c4.7-1.3,8.8-3.8,12.3-7.3c0.6-0.6,1.3-1.4,1.9-2.2l0,0l0,0l0,0c0.1-0.1,0.4-0.4,0.5-0.8l0,0
	C-992.6,780.7-992.8,780.1-993.3,779.7L-993.3,779.7z M-1037.4,737.4c0.4-0.1,0.6-0.3,0.8-0.5l0.2-0.2c0.1-0.1,0.2-0.2,0.4-0.4
	c0.1-0.1,0.2-0.2,0.4-0.4c0.5-0.5,0.9-0.9,1.3-1.3c0.6-0.6,1.1-1.1,1.5-1.5c0.5-0.5,1.2-0.9,1.9-1.1c1.4-0.6,2.8,0,3.8,0.6
	c1.3,0.7,2.8,1.2,4.5,1.4c2.4,0.4,4.4,0.2,6.2-0.6l2.7-1.2l-2.9-0.7c-0.8-0.2-1.4-0.7-2.1-1.3l-0.2-0.2c-0.3-0.2-1.7-1.7-4.4-1.6
	c-5.4,0.9,1-0.8,1-0.8l3-0.4c0.2,0,0.4,0,0.6-0.1c4.2-0.4,8.1,0,11.7,1.3s7,3.4,10,6.3c0.2,0.2,0.5,0.5,0.8,0.8s0.6,0.7,1,1
	c0.3,0.3,1.6,0.5,2.2-0.1c0.5-0.5,0.4-1.2,0.4-1.5c-0.1-0.4-0.3-0.7-0.6-0.9l0,0c-0.4-0.4-0.9-0.9-1.3-1.3c-1-1-2-2-3.1-2.9
	c-4-3-8.2-4.9-12.7-5.7s-9.2-0.5-14,0.9c-4.7,1.3-8.8,3.8-12.4,7.3c-0.7,0.7-1.4,1.4-1.9,2.1v0.1c-0.1,0.2-0.4,0.4-0.5,0.8
	c-0.2,0.6,0,1.1,0.5,1.5C-1038.3,737.4-1037.8,737.5-1037.4,737.4z M-996.8,742.3c-7.5,3.5-15.3,1.8-24.2,4.2
	c-7.1,2-13.1,6.9-15.4,20.2c3.9-5.1,8.1-8.7,12.6-11.3c4.3-2.5,8.9-4,14.1-5.2c0.6-0.1,0.8,0.7,0.2,0.9c-6.7,2.2-12.5,5-17.4,8.7
	c-5.4,4-9.6,9.1-12.6,14.9c-0.1,0.2,0,0.5,0.3,0.5h1c0.1,0,0.2-0.1,0.3-0.2c7.8-12.8,18.6-4.7,29.5-9c10-4,14.7-12.5,15.9-21.4
	C-992.4,744-992.3,740.1-996.8,742.3z"/>
<path class="st1" d="M-1016,809.8c-28.4,0-51.4-23-51.4-51.4s23-51.4,51.4-51.4s51.4,23,51.4,51.4S-987.6,809.8-1016,809.8z
	 M-1015.4,726c-18.2,0-32.9,14.8-32.9,32.9c0,18.1,14.7,32.9,32.9,32.9c18.2,0,32.9-14.7,32.9-32.9
	C-982.5,740.8-997.2,726-1015.4,726z M-1015.4,786.9c-15.4,0-28-12.5-28-28c0-15.4,12.5-28,28-28c15.4,0,28,12.5,28,28
	C-987.5,774.4-1000,786.9-1015.4,786.9z M-1015.4,737c-12.1,0-22,9.8-22,22c0,12.1,9.8,22,22,22c12.1,0,22-9.8,22-22
	C-993.5,746.8-1003.3,737-1015.4,737z M-1015.4,775.5c-9.1,0-16.5-7.4-16.5-16.5s7.4-16.5,16.5-16.5s16.5,7.4,16.5,16.5
	S-1006.3,775.5-1015.4,775.5z M-1015.4,751.6c-4,0-7.3,3.3-7.3,7.3s3.3,7.3,7.3,7.3s7.3-3.3,7.3-7.3S-1011.4,751.6-1015.4,751.6z"/>
<path id="Fill-10" class="st0" d="M-1003.1,766.1c-1.2-0.2-2.2,0.5-2.4,1.7s0.5,2.1,1.7,2.4c8.5,1.4,11.2,4.1,11.2,5
	c0,1.9-8.3,6-23.4,6s-23.4-3.8-23.4-6c0-1,2.7-3.6,11-5c1.2-0.2,1.9-1.2,1.7-2.4s-1.2-1.9-2.4-1.7c-5.4,1-14.4,3.3-14.4,8.8
	c0,6.7,13.6,10,27.3,10c13.6,0,27.5-3.3,27.7-9.8C-988.5,769.4-997.7,767-1003.1,766.1 M-1043.1,746.1c0.1,0.1,0.2,0.3,0.3,0.4
	c0.2,0.2,0.4,0.4,0.5,0.7c0,0.2,0.2,0.3,0.3,0.5c0.1,0.1,0.2,0.3,0.3,0.4c0.1,0.2,0.3,0.5,0.4,0.7s0.3,0.4,0.4,0.6
	c0.2,0.6,0.6,1.1,1.1,1.5c0.3,0.3,0.7,0.5,1,0.8c0.3,0.4,0.7,0.6,1.2,0.8c0.6,0.3,1.2,0.5,1.7,0.8c0.6,0.3,1.3,0.5,1.9,0.6
	c0.7,0.2,1.3,0.6,1.7,1.2c0.3,0.5,0.7,1.1,0.9,1.7c0.2,0.3,0.3,0.7,0.4,1c0.1,0.2,0.1,0.4,0.3,0.6c0.3,0.3,0.5,0.6,0.6,1
	c0,0,0,0.1,0.1,0.1c0.4,0.5,0.9,1.1,1.4,1.6c0.7,0.7,1.4,1.4,2.1,2.1c0.3,0.3,0.5,0.5,0.7,0.8c0.6,0.8,1.1,1.5,1.4,2.5
	c0.2,0.5,0.3,1,0.3,1.4s-0.1,0.9-0.1,1.3c0,0.5-0.1,0.9-0.1,1.4c0,0.8,0.1,1.6,0.2,2.4c0,0.5-0.3,0.9-0.7,1.3
	c-0.3,0.3-0.6,0.5-0.8,0.9c-0.2,0.2-0.2,0.5-0.1,0.8c0.1,0.1,0.1,0.3,0.2,0.4h19c0-0.1,0.1-0.3,0.1-0.4c0.1-0.1,0.1-0.3,0.1-0.4
	c-0.1-0.5-0.5-0.8-0.8-1.1c-0.5-0.4-0.8-0.8-0.8-1.5c0-0.4,0.1-0.8,0.1-1.2c0-0.6,0-1.3,0.1-1.9c0-0.8,0-1.7-0.2-2.5
	c-0.1-0.3-0.1-0.6,0-0.9c0.3-1.4,1.2-2.4,2.3-3.3c0.2-0.2,0.5-0.4,0.7-0.6c0.1-0.1,0.2-0.3,0.4-0.4c0.3-0.2,0.5-0.4,0.6-0.7
	c0.1-0.1,0.1-0.2,0.2-0.3c0.2-0.1,0.3-0.3,0.4-0.5c0-0.1,0.1-0.2,0.2-0.3c0.2-0.2,0.4-0.4,0.6-0.6c0.3-0.4,0.5-0.8,0.7-1.2
	c0.1-0.4,0.3-0.7,0.6-1.1c0.1-0.2,0.2-0.3,0.2-0.5c0.1-0.4,0.2-0.8,0.5-1.1c0.1-0.1,0.1-0.2,0.2-0.3c0.1-0.3,0.3-0.5,0.6-0.6
	c0.1,0,0.1-0.1,0.2-0.2c0.1-0.2,0.2-0.3,0.5-0.4c0.2-0.1,0.5-0.2,0.7-0.2c0.5-0.2,0.9-0.4,1.4-0.5c0.4-0.1,0.7-0.2,1-0.4
	c0.1,0,0.1-0.1,0.2-0.1c0.3-0.1,0.6-0.2,0.9-0.3c0.8-0.4,1.5-0.9,2.1-1.6c0.1-0.1,0.2-0.3,0.4-0.4c0.3-0.2,0.6-0.4,0.6-0.7
	c0-0.1,0.1-0.2,0.2-0.3c0.2-0.3,0.4-0.6,0.5-0.9c0.1-0.3,0.2-0.5,0.4-0.7c0.3-0.3,0.5-0.6,0.5-0.9c0-0.1,0.1-0.2,0.2-0.3l0.4-0.6
	c0.1-0.1,0.1-0.2,0.1-0.3c0.2-0.3,0.6-0.6,0.7-1c0.1-0.3,0.1-0.5,0.2-0.8c0.2-0.8-0.1-1.4-0.5-2.1c-0.2-0.3-0.6-0.7-0.6-1.1
	c0,0,0-0.1-0.1-0.1c-0.1-0.3-0.3-0.5-0.4-0.8c-0.1-0.3-0.3-0.7-0.6-0.9c-0.1,0-0.1-0.1-0.2-0.2c-0.2-0.3-0.3-0.6-0.6-0.9
	c-0.3-0.4-0.6-0.7-1-1c-0.5-0.5-1.1-1.1-1.6-1.6c-0.5-0.4-1-0.8-1.6-1.3c-0.3-0.2-0.6-0.4-0.7-0.7c0-0.1-0.2-0.2-0.3-0.2
	c-0.2-0.1-0.4-0.2-0.5-0.4c-0.1-0.1-0.3-0.2-0.4-0.3l-0.5-0.4c-0.1-0.1-0.3-0.3-0.4-0.3c-1-0.3-2-0.2-3,0.1
	c-0.3,0.1-0.7,0.2-1.1,0.3c-0.5,0.1-0.9,0.2-1.4,0.4c-0.2,0.1-0.5,0.2-0.7,0.4c-0.2,0.1-0.3,0.3-0.4,0.4c-0.1,0.3-0.3,0.6-0.3,0.9
	c-0.1,0.6,0,1.1,0.4,1.5c0.6,0.6,1.6,0.8,2.4,0.4c0.5-0.2,0.9-0.5,1.4-0.8s1.1-0.5,1.7-0.3c0.3,0.1,0.7,0.2,0.8,0.6
	c0,0.1,0.2,0.2,0.2,0.2c0.2,0.1,0.3,0.2,0.3,0.4c0,0.1,0,0.2,0.1,0.3c0.8,1.4,1.3,3,1.8,4.5c0.1,0.5,0.2,1,0.2,1.5
	c0,0.6-0.2,1-0.9,1.2c-0.5,0.1-1.1,0.2-1.6,0.3c-0.5,0-0.9,0.2-1.3,0.5s-0.8,0.7-1.2,1c-0.4,0.4-0.9,0.7-1.5,0.8s-1.2,0.1-1.8,0.1
	c-0.5,0-0.9,0.2-1.3,0.5c-0.1,0.1-0.3,0.2-0.4,0.3c-0.2,0.1-0.5,0.2-0.6,0.4c0,0.1-0.1,0.1-0.2,0.2c-0.3,0.1-0.4,0.3-0.6,0.5
	c-0.3,0.3-0.6,0.6-0.9,1c-0.2,0.3-0.5,0.4-0.8,0.6c-0.5,0.3-1.1,0.3-1.6,0s-0.9-0.8-1.4-1.2c-0.5-0.5-0.7-1.2-0.7-1.9
	c0-0.5,0.2-0.9,0.4-1.3c0.2-0.3,0.4-0.5,0.5-0.8c0.5-0.8,0.5-1.5,0.2-2.4c-0.2-0.6-0.4-1.2-0.3-1.9c0-0.4,0.1-0.8,0.1-1.2
	c0-0.5-0.1-1.1-0.5-1.4c-0.5-0.5-1.2-0.8-1.9-1.1c-0.6-0.2-1.3-0.4-1.9-0.5c-0.7-0.1-1.4-0.2-2.1,0c-0.9,0.3-1.7,0.5-2.2,1.3
	c-0.4,0.6-0.6,1.3-0.5,2c0.1,0.4,0.2,0.7,0.1,1.1c0,0.5-0.2,1-0.3,1.5c-0.1,0.6-0.3,1.2-0.1,1.9c0.1,0.3,0.3,0.6,0.4,0.9
	c0.3,0.5,0.5,1.1,0.5,1.7c0.1,0.7,0,1.4-0.3,2c-0.2,0.4-0.5,0.6-0.8,0.9c-0.4,0.3-0.7,0.6-1.2,0.7c-0.3,0.1-0.7,0.1-1-0.2
	c-0.1-0.1-0.2-0.2-0.3-0.2c-0.4-0.1-0.7-0.4-0.9-0.7c-0.4-0.6-1-1.1-1.6-1.5c-0.4-0.3-0.9-0.4-1.4-0.7c-0.3-0.2-0.8-0.2-1.3-0.2
	c-0.6,0-1.3-0.1-1.9-0.4c-0.4-0.2-0.9-0.4-1.1-0.9c-0.1-0.1-0.2-0.2-0.3-0.3c-0.2-0.1-0.4-0.2-0.6-0.3c-0.1-0.1-0.2-0.2-0.4-0.3
	c-0.6-0.2-1.2-0.4-1.8-0.4c-0.5,0-0.8-0.1-1.2-0.5c-0.1-0.1-0.2-0.2-0.2-0.3c0-0.4-0.1-0.9,0-1.3c0.2-0.9,0.6-1.7,0.9-2.6
	c0.1-0.4,0.3-0.8,0.4-1.2c0.1-0.6,0.3-1.2,0.6-1.7c0.2-0.4,0.5-0.8,1-1.1c0.6-0.3,1.3-0.3,1.9,0c0.4,0.2,0.9,0.5,1.3,0.7
	c0.3,0.1,0.6,0.2,0.9,0.1c0.6-0.1,1.1-0.4,1.4-0.8c0.3-0.4,0.6-0.9,0.5-1.4c-0.2-0.9-0.8-1.4-1.6-1.7c-0.5-0.2-1.1-0.3-1.7-0.4
	c-0.8-0.2-1.7-0.3-2.5-0.3c-0.3,0-0.6,0.1-0.8,0.2c-0.3,0.1-0.5,0.3-0.8,0.4c-0.4,0.2-0.8,0.4-1,0.8c-0.2,0.3-0.5,0.6-0.7,0.9
	c-0.5,0.6-1.1,1.1-1.6,1.6c-0.4,0.4-0.7,0.8-1.1,1.2c-0.2,0.2-0.4,0.4-0.6,0.6c-0.2,0.1-0.3,0.3-0.4,0.4c-0.1,0.2-0.2,0.4-0.4,0.6
	c-0.2,0.3-0.5,0.6-0.5,1c0,0.1-0.1,0.2-0.2,0.3c-0.4,0.2-0.5,0.6-0.6,0.9c-0.3,0.6-0.5,1.3-0.9,1.8c-0.1,0.1-0.2,0.3-0.3,0.5
	c-0.2,0.4-0.3,0.8-0.4,1.2c-0.1,0.5-0.2,1,0.3,1.4C-1043.1,746-1043.1,746-1043.1,746.1"/>
<path id="Fill-6" class="st0" d="M-1024.5,756.2c-0.1,0.2-0.1,0.5-0.1,0.8l16.7,4.6c0.1-0.2,0.2-0.4,0.3-0.7c0.1-0.3,0.1-0.6,0-1
	l-16.5-4.5C-1024.3,755.6-1024.4,755.9-1024.5,756.2z M-1017.2,753l-3.6,0.8l11.2,3.1l-2.7-2.5L-1017.2,753z M-1014.8,763.8l3.6-0.8
	l-11.2-3.1l2.7,2.5L-1014.8,763.8z M-999.4,738.2c-0.5,1.9-2,3.2-3.8,3.7l-20.3,4.4c-8.4,1.7-11.7,12.4-5,18.6l1.7,1.6l6.7-1.5
	l-4.7-4.4c-3.4-3.1-1.8-7.8,2.5-8.8l20.3-4.4c3.9-0.9,7-3.7,8.1-7.7C-993.2,736.1-998.5,734.6-999.4,738.2z M-1020.9,743.4l6.7-1.5
	l-4.7-4.4c-1.4-1.3-2.1-3.2-1.5-5.1c0.9-3.6-4.4-5.1-5.3-1.5c-1,4,0.2,8.1,3.2,10.8L-1020.9,743.4z M-1005.1,750.3l-6.7,1.4l4.6,4.2
	c3,3.2,2.5,7.7-2.2,8.9l-20.5,4.5c-3.9,0.9-7,3.7-8.1,7.7c-0.9,3.6,4.4,5.1,5.3,1.5c0.5-1.9,2-3.2,3.8-3.7l20.5-4.5
	c8.9-2,11.2-12.6,4.7-18.7L-1005.1,750.3z M-1011.1,773.4l-6.7,1.4l4.7,4.4c1.4,1.3,2,3.2,1.5,5.1c-0.9,3.6,4.4,5.1,5.3,1.5
	c1-4-0.2-8.1-3.2-10.8L-1011.1,773.4z"/>
<path id="Fill-8" class="st0" d="M-1028.9,750.9c0-0.8,0.4-1.2,1.2-1.2h6.8v-6.8c0-0.4,0.2-0.9,0.6-1.1c0.2-0.1,0.4-0.1,0.6-0.1h3.2
	c0.9,0,1.3,0.4,1.3,1.3v6.8h6.8c0.4,0,0.9,0.1,1.1,0.4c0.1,0.2,0.2,0.4,0.2,0.6v3.6c-0.1,0.5-0.5,1-1.1,1h-6.8c-0.2,0-0.2,0-0.2,0.2
	v5.9c0,0.6-0.2,1.2-0.6,1.6c-0.1,0.1-0.3,0.2-0.5,0.2h-3.4c-0.8,0-1.2-0.4-1.2-1.2v-6.6h-6.6c-0.4,0-0.9-0.1-1.1-0.4
	c-0.1-0.2-0.2-0.4-0.2-0.8L-1028.9,750.9L-1028.9,750.9z M-997.1,738.9c-0.9,0-1.6,0.6-1.6,1.6v36.7c0,1.6-1.6,3.2-3.2,3.2h-27.8
	c-1.9,0-4.1-1.6-4.1-3.2v-3.5c0-1.6,1.9-2.5,3.8-2.5h26.5c0.9,0,1.6-0.6,1.6-1.6v-31c0-3.5-2.5-5.7-6.3-5.7h-21.4
	c-3.5,0-6.9,1.9-6.9,5.7v39.9c0.3,2.9,3.2,5.1,6,5.4h28.7c3.5,0,6.3-2.9,6.3-6v-37.4C-995.5,739.9-996.1,738.9-997.1,738.9z
	 M-1003.1,774.4h-25.9c-0.9,0-1.6,0.6-1.6,1.6c0,0.9,0.6,1.6,1.6,1.6h25.9c0.9,0,1.6-0.6,1.6-1.6S-1002.1,774.4-1003.1,774.4z"/>
<path class="st0" d="M-1019.8,757.5c0-1.3-0.3-2.5-0.7-3.6l15-8.4c1.5,1.7,3.6,2.7,5.9,2.7c4.4,0,8-3.5,8-7.9s-3.6-7.9-8-7.9
	s-8,3.5-8,7.9c0,0.6,0.1,1.3,0.3,2l-15.2,8.4c-1.9-2-4.6-3.4-7.7-3.4c-5.7,0-10.4,4.5-10.4,10.2s4.6,10.2,10.4,10.2
	c2.5,0,4.7-0.8,6.5-2.2l16.4,9.2c-0.2,0.7-0.3,1.2-0.3,1.9c0,4.4,3.6,7.9,8,7.9s8-3.5,8-7.9s-3.6-7.9-8-7.9c-2.4,0-4.5,1-6,2.7
	l-15.6-8.8C-1020.2,761-1019.8,759.3-1019.8,757.5z"/>
<path id="Fill-10_1_" class="st0" d="M-1029.4,757.3L-1029.4,757.3L-1029.4,757.3L-1029.4,757.3z M-1016.3,741.3
	C-1016.3,741.3-1016.3,741.4-1016.3,741.3L-1016.3,741.3L-1016.3,741.3z M-1007.5,744.9L-1007.5,744.9L-1007.5,744.9L-1007.5,744.9z
	 M-989.5,761.8c-0.1,0-0.1,0-0.2,0c-0.4,0-0.8-0.2-1.2-0.4c-0.1-0.1-0.3-0.1-0.4-0.1c-0.1,0-0.1,0-0.2,0c-0.5-0.1-1.1-0.1-1.6-0.1
	c0.4-0.2,0.6-0.6,0.7-0.9c0,0,0,0,0-0.1c-0.4,0.2-0.8,0-1.2,0c-0.1,0-0.2,0-0.2,0c-0.3,0-0.6,0-0.9,0.2c0.2-0.2,0.2-0.5,0.3-0.8
	c0-0.1,0-0.1,0.1-0.2c0,0,0,0,0-0.1c-0.5,0-0.9-0.1-1.3-0.1c-0.1,0-0.1,0-0.2,0s-0.2,0-0.3,0c-0.1,0-0.2,0-0.2,0.1
	c-0.2,0.1-0.4,0.1-0.6,0.3c0,0-0.1,0-0.1,0.1c-0.1,0-0.2,0.1-0.2,0.1c0.1-0.1,0.1-0.1,0.2-0.2c0,0,0-0.1,0.1-0.1
	c0.1-0.2,0.1-0.4,0.2-0.5c-0.1,0-0.2,0-0.4,0c-0.1,0-0.1,0-0.2,0c-0.3,0-0.6,0-0.9,0c-0.1,0-0.1,0-0.2,0c-0.3,0.1-0.5,0.1-0.8,0.3
	c0.1-0.2,0.1-0.5,0.2-0.7c-0.3,0.1-0.6,0.2-0.8,0.2c-0.1,0-0.1,0-0.2,0s-0.1,0-0.2,0c-0.5,0.1-0.9,0.3-1.2,0.7
	c0.1-0.3,0.1-0.6,0-0.9c-0.2,0.1-0.4,0.2-0.6,0.3c-0.1,0-0.1,0.1-0.2,0.1c-0.6,0.2-1.1,0.7-1.4,1.2c0.1-0.3,0-0.5,0-0.8
	c-0.3,0.2-0.7,0.3-1.1,0.5c-0.1,0-0.1,0.1-0.2,0.1s-0.1,0.1-0.2,0.1c-0.1,0.1-0.2,0.1-0.3,0.2c-0.1,0.1-0.2,0.1-0.3,0.2
	c-1,0.8-1.9,1.7-3.2,2.1c-0.1,0-0.3,0.1-0.4,0.1s-0.2,0-0.3,0s-0.2,0-0.3,0c-0.2,0-0.4,0-0.5-0.1c0,0-0.3-0.1-0.6-0.2c0,0,0,0-0.1,0
	c-0.2-0.1-0.4-0.2-0.6-0.3c0.2-0.3,0.4-0.6,0.6-0.9c0,0,0,0,0.1-0.1c0.2-0.1,0.3-0.3,0.5-0.4l0.1-0.1c0.1-0.1,0.2-0.2,0.3-0.3
	c0.2-0.1,0.4-0.3,0.7-0.4l0,0c0.1-0.1,0.2-0.2,0.4-0.2c0.4-0.2,0.7-0.4,1.1-0.5c0.2-0.1,0.5-0.2,0.7-0.2c0.2-0.1,0.5-0.2,0.7-0.2
	c0.7-0.2,1.4-0.4,2.2-0.7c0.8-0.3,1.5-0.6,2.2-1c0.2-0.1,0.4-0.2,0.6-0.4c0.1-0.1,0.3-0.2,0.4-0.3s0.3-0.2,0.4-0.3s0.2-0.1,0.2-0.2
	c0.3-0.3,0.7-0.6,1.2-0.6c-0.3-0.2-0.7-0.3-1-0.5c0.5,0,1-0.2,1.4-0.5c0.1,0,0.1-0.1,0.2-0.2c0.1,0,0.1-0.1,0.2-0.1s0.1-0.1,0.2-0.1
	c0.1-0.1,0.1-0.1,0.2-0.2c0.1-0.1,0.1-0.1,0.2-0.2c0.3-0.3,0.7-0.4,1-0.4c-0.3-0.2-0.6-0.4-1-0.4c-0.1,0-0.1,0-0.2,0
	c0.1,0,0.2,0,0.2-0.1s0.2,0,0.2-0.1c0.2-0.1,0.4-0.2,0.6-0.4c0.1-0.1,0.1-0.1,0.2-0.2c0-0.1,0.1-0.1,0.1-0.2
	c0.1-0.1,0.1-0.1,0.2-0.2c0.2-0.3,0.3-0.6,0.5-0.9c0.1-0.1,0.1-0.2,0.2-0.3c-0.2,0-0.4-0.1-0.5-0.1s-0.2-0.1-0.3-0.1
	c0.1,0,0.1-0.1,0.2-0.1c0.1-0.1,0.2-0.2,0.2-0.2c0.1-0.1,0.1-0.2,0.2-0.3c0-0.1,0.1-0.1,0.1-0.2c0-0.1,0.1-0.1,0.1-0.2
	c0.1-0.3,0.2-0.6,0.4-0.8c-0.2,0-0.4-0.1-0.6-0.1c-0.1,0-0.1,0-0.2,0s-0.2,0-0.4,0c0.1,0,0.1-0.1,0.2-0.1s0.1-0.1,0.2-0.1
	c0,0,0.1,0,0.1-0.1c0.1-0.1,0.2-0.3,0.3-0.4c0,0,0-0.1,0.1-0.1v-0.1c0-0.1,0.1-0.1,0.1-0.2c0.1-0.2,0.2-0.5,0.2-0.7
	c0,0,0-0.1,0.1-0.1c0-0.1,0.1-0.2,0.2-0.3c-0.3,0-0.5,0.1-0.8,0.1h-0.1l0.1-0.1c0.1-0.1,0.2-0.3,0.3-0.4c0-0.1,0.1-0.1,0.1-0.2
	c0.1-0.2,0.2-0.5,0.2-0.7c0-0.1,0-0.1,0-0.2c0-0.1,0-0.1,0-0.2c0-0.1,0-0.1,0-0.2c0-0.1,0-0.1,0-0.2c0-0.1,0-0.1,0-0.2
	c0-0.2,0.1-0.5,0.2-0.7c-0.2,0-0.4,0.1-0.6,0.2c-0.1,0-0.1,0-0.2,0s-0.2,0.1-0.2,0.1c0-0.1,0.1-0.1,0.1-0.2c0-0.1,0.1-0.1,0.1-0.2
	c0-0.1,0-0.1,0.1-0.2c0-0.1,0-0.1,0-0.2c0-0.1,0-0.2,0.1-0.3c0-0.1,0-0.2,0-0.3s0-0.2,0-0.2c0-0.1,0-0.2,0-0.2
	c0-0.4,0.1-0.8,0.3-1.2c-0.2,0-0.4,0-0.6,0.1c-0.2,0-0.4,0.1-0.6,0.2c0.3-0.4,0.4-0.9,0.5-1.5c0.1-1-0.2-2.1,0.3-3.1
	c0.1-0.2,0.3-0.3,0.5-0.3c-0.1,0-0.2,0-0.3,0l0,0h-0.1c-0.1,0-0.3,0-0.4,0c-1.9,0.2-4,1-4.9,2.8c0-0.3-0.2-0.6-0.4-0.9
	c-0.2,0.4-0.5,0.7-0.8,1c-0.1,0.1-0.3,0.2-0.4,0.3c-0.4,0.3-0.7,0.7-0.8,1.2c-0.2-0.2-0.3-0.5-0.4-0.8c-0.1,0.2-0.1,0.4-0.2,0.5
	c-0.3,0.5-0.8,0.9-0.8,1.5c-0.1-0.3-0.4-0.5-0.6-0.8c-0.1,0.4-0.3,0.6-0.5,0.9c-0.2,0.4-0.3,0.8-0.4,1.3c-0.1-0.1-0.1-0.2-0.2-0.3
	s-0.1-0.2-0.2-0.3c0,0.1-0.1,0.1-0.1,0.2c-0.2,0.2-0.3,0.4-0.4,0.6c0,0.1-0.1,0.1-0.1,0.2c-0.1,0.2-0.1,0.4-0.1,0.6
	c0,0.1,0,0.2,0.1,0.3c0,0.1,0,0.1,0.1,0.2l0,0l0,0c0,0,0-0.1-0.1-0.1c0-0.1-0.1-0.1-0.1-0.2c0-0.1-0.1-0.1-0.2-0.1
	c-0.2-0.2-0.4-0.4-0.6-0.6c0.2,0.5,0,1-0.3,1.4c0,0.1-0.1,0.2-0.1,0.2c0,0.1-0.1,0.2-0.1,0.2c0,0.1,0,0.1,0,0.2c0,0.2,0,0.4,0,0.7
	c-0.1-0.2-0.4-0.3-0.6-0.4c0,0.2-0.1,0.5-0.2,0.7c0,0.1,0,0.2-0.1,0.2c0,0.1-0.1,0.2-0.1,0.3s-0.1,0.2-0.1,0.3s0,0.2,0,0.3
	c0,0.3,0,0.6,0.2,0.9c0,0.1,0.1,0.2,0.2,0.3c-0.1-0.2-0.3-0.3-0.4-0.3l0,0l0,0l0,0l0,0c-0.2-0.1-0.3-0.1-0.5-0.2
	c0,0,0.1,0.1,0.1,0.2c0,0.1,0,0.2,0,0.2c-0.1,0.4-0.2,0.8-0.2,1.1c0,0.1,0,0.2,0,0.3c-0.1,1.1,0.3,2.1,0.5,3.1c0,0.1,0,0.2,0.1,0.3
	c0,0.2,0.1,0.4,0.1,0.6c0.1,0.3,0.1,0.5,0.1,0.8s0.1,0.5,0.1,0.8c0,0.1,0,0.2,0,0.3c0.1,0.6,0,1.1-0.1,1.7c-0.1,0.3-0.1,0.6-0.2,0.8
	c-0.1,0.3-0.2,0.5-0.3,0.8c0,0.1-0.1,0.1-0.1,0.2c-0.4,0.8-0.9,1.4-1.5,2c-0.4-0.6-0.7-1.3-1.2-1.9c-0.1-0.1-0.2-0.3-0.2-0.4
	c-0.3-0.8-0.5-1.6-0.4-2.4c0-0.4,0-0.8,0.1-1.2c0-0.4,0.1-0.8,0.2-1.2c0-0.1,0-0.2,0-0.3c0-0.3,0.1-0.5,0.1-0.8c0-0.1,0-0.3,0.1-0.4
	c0.4-1.8,1-3.7,1-5.6c0-0.1,0-0.3,0-0.4c0-0.3,0-0.6-0.1-0.9c0-0.1,0-0.3-0.1-0.4c0-0.1,0-0.2,0-0.2c-0.3,0.1-0.5,0.3-0.7,0.5
	l-0.1,0.1l0,0c0-0.1,0-0.1,0.1-0.2c0-0.1,0-0.1,0.1-0.2c0-0.1,0-0.1,0.1-0.2c0.1-0.3,0.1-0.6,0.1-1V744c0-0.1,0-0.2,0-0.4
	c-0.1-0.5-0.3-0.9-0.4-1.4c0-0.1,0-0.1,0-0.2c-0.3,0.2-0.6,0.3-0.7,0.5c0.1-0.4,0.1-0.8,0-1.2c0-0.1-0.1-0.2-0.1-0.3
	s-0.1-0.2-0.1-0.3s-0.1-0.1-0.1-0.2c-0.1-0.2-0.3-0.4-0.4-0.6c-0.1-0.1-0.1-0.2-0.2-0.3s-0.2-0.2-0.2-0.4c-0.1,0.2-0.2,0.4-0.4,0.6
	c-0.1,0.1-0.2,0.3-0.3,0.4l0,0l0,0c0-0.1,0-0.1,0-0.2l0,0l0,0c0-0.1,0-0.2,0-0.3s0-0.2,0-0.3s0-0.2,0-0.2c0-0.2-0.1-0.3-0.2-0.5
	c0-0.1-0.1-0.2-0.1-0.2c-0.2-0.3-0.4-0.6-0.5-0.9c-0.1,0.2-0.3,0.4-0.4,0.6c0,0.1-0.1,0.1-0.1,0.2c0-0.1,0-0.2-0.1-0.3
	c0-0.5-0.2-1-0.5-1.5c0-0.1-0.1-0.1-0.1-0.2c-0.2-0.3-0.4-0.5-0.5-0.9c-0.2,0.2-0.3,0.4-0.4,0.6l-0.1,0.1c0,0.1-0.1,0.1-0.1,0.2
	c0,0,0,0.1-0.1,0.1l0,0l0,0c0-0.1,0-0.3-0.1-0.4c0,0,0-0.1-0.1-0.1c-0.1-0.1-0.2-0.3-0.3-0.4l-0.1-0.1l-0.1-0.1
	c0-0.1-0.1-0.1-0.1-0.2c0,0-0.1-0.1-0.2-0.1c-0.3-0.2-0.5-0.6-0.6-0.9c-0.2,0.3-0.3,0.7-0.5,1c0-0.5-0.4-0.8-0.7-1.1l-0.1-0.1
	l-0.1-0.1l-0.1-0.1c0,0-0.1-0.1-0.2-0.1c-0.4-0.5-1.1-0.8-1.3-1.5c-0.1,0.2-0.3,0.4-0.4,0.7c0,0.1-0.1,0.2-0.1,0.3c0,0,0,0.1,0,0.2
	l0,0l0,0c0,0,0,0,0,0.1c-0.2-0.5-0.6-1-1.1-1.3c-0.1-0.1-0.2-0.2-0.3-0.3c-0.6-0.4-1.3-0.7-1.9-1c-0.2-0.1-0.4-0.2-0.6-0.3
	c-0.4-0.2-0.7-0.4-1.1-0.6c-0.2-0.1-0.3-0.2-0.4-0.4c-0.1-0.1-0.2-0.3-0.4-0.4c-0.1-0.1-0.2-0.2-0.3-0.4c0.1,0.2,0.1,0.3,0.2,0.5
	c0.1,0.3,0.2,0.7,0.2,1c0,0.2,0,0.3,0,0.5s0,0.3,0,0.5c-0.1,1.5-0.6,3.2,0.3,4.7c-0.1,0-0.1-0.1-0.2-0.1s-0.1-0.1-0.2-0.1
	c-0.3-0.1-0.6-0.1-1-0.1c0.2,0.3,0.3,0.6,0.3,0.9c0,0.1,0,0.2,0,0.2c0,0.1,0,0.2,0,0.2c0,0.1,0,0.2,0,0.3s0,0.2,0,0.3s0,0.2,0.1,0.4
	c0,0.1,0.1,0.2,0.1,0.4c0,0.1,0,0.1,0.1,0.2c0,0.1,0.1,0.1,0.1,0.2c0,0.1,0.1,0.1,0.1,0.2c0,0.1,0.1,0.1,0.1,0.2
	c-0.1,0-0.2-0.1-0.3-0.1s-0.2,0-0.2,0c-0.3-0.1-0.5-0.1-0.8-0.2c0.2,0.2,0.3,0.5,0.3,0.9c0,0.1,0,0.2,0,0.2c0,0.1,0,0.2,0,0.2
	c0,0.1,0,0.1,0,0.2c0,0.1,0,0.1,0,0.2c0,0.1,0,0.2,0.1,0.2c0.1,0.3,0.2,0.6,0.3,0.9c0,0.1,0.1,0.1,0.1,0.2c0.1,0.2,0.2,0.4,0.4,0.5
	l0.1,0.1c-0.1,0-0.1,0-0.2,0c-0.3,0-0.7-0.1-1-0.1c0.1,0.1,0.2,0.2,0.2,0.3s0.1,0.1,0.1,0.2c0.1,0.3,0.2,0.6,0.3,0.8
	c0,0.1,0.1,0.2,0.1,0.3c0,0,0,0.1,0.1,0.1c0,0,0,0.1,0.1,0.1c0.1,0.2,0.2,0.4,0.4,0.5c0,0,0.1,0.1,0.2,0.1s0.2,0.1,0.2,0.1
	c0.1,0,0.2,0.1,0.3,0.1c-0.1,0-0.3,0-0.4,0s-0.1,0-0.2,0c-0.2,0-0.5,0.1-0.7,0.1c0.3,0.3,0.4,0.7,0.6,1c0,0.1,0.1,0.1,0.1,0.2
	c0,0.1,0.1,0.1,0.1,0.2c0.1,0.1,0.2,0.2,0.2,0.3c0.1,0.1,0.2,0.2,0.3,0.3c0.1,0,0.1,0.1,0.2,0.2c-0.1,0-0.3,0.1-0.4,0.1
	c-0.2,0.1-0.4,0.2-0.7,0.2c0.1,0.1,0.2,0.3,0.3,0.4c0.2,0.4,0.4,0.7,0.6,1c0.1,0.1,0.1,0.2,0.2,0.3s0.3,0.3,0.4,0.4
	c0.1,0.1,0.1,0.1,0.2,0.2c0.1,0.1,0.2,0.1,0.3,0.2c0.1,0.1,0.2,0.1,0.3,0.1c0.2,0.1,0.4,0.1,0.6,0.2c-0.3,0.1-0.6,0.2-0.9,0.4
	c0.1,0,0.3,0.1,0.4,0.2c0.9,1.1,2.1,1.8,3.6,1.9c-0.3,0.2-0.6,0.3-0.9,0.4c0.2,0,0.3,0.1,0.4,0.2c0.1,0.1,0.2,0.1,0.3,0.2
	c0.3,0.2,0.6,0.4,0.9,0.6c0.1,0,0.2,0.1,0.3,0.1c0.2,0.1,0.3,0.1,0.5,0.2c0.2,0.1,0.5,0.2,0.7,0.2c0.2,0.1,0.5,0.1,0.7,0.2
	c1.3,0.3,2.5,0.7,3.8,1.1c0.1,0,0.2,0.1,0.4,0.1c0.1,0,0.2,0.1,0.3,0.1c0.1,0.1,0.3,0.1,0.4,0.2c1.1,0.5,2.2,1.2,2.9,2.2
	c0.1,0.1,0.1,0.2,0.2,0.4c0.2,0.5,0.5,1,0.7,1.5c-0.4,0.1-0.9,0.2-1.3,0.2c-0.1,0-0.3,0-0.4,0c-0.2,0-0.4,0-0.7-0.1
	c-0.3,0-0.6-0.1-0.9-0.1c-0.3-0.1-0.6-0.1-0.8-0.2c-0.6-0.2-1.1-0.4-1.5-0.8c-0.1,0-0.2-0.1-0.2-0.1c-0.2-0.1-0.4-0.3-0.7-0.5
	c-0.2-0.2-0.4-0.3-0.6-0.5c-0.1-0.1-0.3-0.3-0.4-0.4c-0.1-0.1-0.1-0.1-0.2-0.2c-0.8-0.7-1.5-1.5-2.4-2c-0.1,0-0.2-0.1-0.3-0.1
	c-0.4-0.2-0.7-0.3-1.1-0.4c-0.1,0-0.2-0.1-0.2-0.1c-0.1,0-0.1-0.1-0.1-0.1c0,0.2,0,0.4,0,0.5l0,0l0,0l0,0l0,0c0,0.2,0,0.4,0.1,0.5
	c0-0.1-0.1-0.2-0.2-0.3c-0.2-0.3-0.4-0.5-0.7-0.6c-0.1,0-0.2-0.1-0.3-0.1c-0.1,0-0.2-0.1-0.3-0.1s-0.2,0-0.3-0.1
	c-0.1,0-0.2,0-0.2-0.1c-0.2-0.1-0.5-0.1-0.7-0.2c0,0.2-0.1,0.5,0,0.7c-0.2-0.2-0.4-0.3-0.6-0.4c-0.1,0-0.1-0.1-0.2-0.1
	s-0.2,0-0.2-0.1c-0.1,0-0.2,0-0.2,0c-0.5,0-1.1-0.1-1.4-0.5c0.1,0.3,0.1,0.5,0.2,0.8c0,0.1,0,0.1,0,0.2c0,0.1,0,0.1,0.1,0.2
	c0,0,0,0.1,0.1,0.1l0,0l0,0l-0.1-0.1c-0.1-0.1-0.2-0.2-0.3-0.2c-0.1-0.1-0.3-0.2-0.5-0.2c-0.1,0-0.2,0-0.2,0c-0.2,0-0.5,0-0.7,0.1
	c-0.1,0-0.1,0-0.2,0c0.1,0.1,0.1,0.2,0.1,0.3s0.1,0.2,0.1,0.3c-0.4-0.2-0.8-0.3-1.3-0.3c-0.4,0-0.7,0.1-1.1,0
	c0.1,0.3,0.2,0.6,0.4,0.9c-0.5-0.3-1.1-0.1-1.7,0c-0.2,0-0.4,0-0.6-0.1c0.2,0.2,0.3,0.5,0.4,0.7c-0.5-0.2-1-0.1-1.4,0
	c-0.2,0-0.3,0.1-0.5,0.1c-0.4,0.1-0.8,0.3-1.2,0.2c0.2,0.3,0.3,0.6,0.6,0.8c-2-0.1-3.8,1.3-4.9,2.8c-0.1,0.1-0.2,0.2-0.3,0.4
	c0,0,0,0.1-0.1,0.1l0,0c-0.1,0.1-0.1,0.2-0.2,0.3c0.1-0.1,0.1-0.1,0.2-0.2l0,0c0.1,0,0.2-0.1,0.3-0.1c1,0,1.8,0.9,2.8,1.3
	c0.5,0.2,1,0.4,1.5,0.3c-0.2,0.1-0.3,0.2-0.5,0.4c-0.1,0.1-0.3,0.3-0.3,0.5c0.4-0.1,0.8,0.1,1.2,0.3c0.1,0,0.1,0.1,0.2,0.1
	s0.1,0.1,0.2,0.1s0.2,0.1,0.3,0.1s0.2,0.1,0.3,0.1c0.1,0,0.1,0,0.2,0.1c0.1,0,0.1,0,0.2,0s0.1,0,0.2,0s0.1,0,0.2,0
	c-0.1,0-0.1,0.1-0.2,0.2l-0.1,0.1c-0.2,0.1-0.3,0.3-0.5,0.5c0.2,0,0.5,0.1,0.7,0.2c0.1,0,0.1,0.1,0.2,0.1s0.1,0.1,0.2,0.1
	s0.1,0.1,0.2,0.1s0.1,0.1,0.2,0.1s0.1,0,0.2,0.1c0.2,0.1,0.5,0.1,0.7,0.2c0.1,0,0.1,0,0.2,0c0.2,0,0.4,0,0.5,0h0.1l-0.1,0.1
	c-0.2,0.2-0.4,0.4-0.5,0.6c0.1,0,0.2,0,0.3,0c0.1,0,0.1,0,0.2,0c0.2,0.1,0.5,0.1,0.7,0.2c0.1,0,0.2,0,0.2,0h0.1h0.1
	c0.2,0,0.4,0,0.5-0.1c0,0,0.1,0,0.1-0.1c0.1,0,0.1-0.1,0.2-0.1s0.1-0.1,0.2-0.1c-0.1,0.1-0.2,0.2-0.2,0.3s-0.1,0.1-0.1,0.2
	c-0.1,0.2-0.1,0.4-0.2,0.5c0.3-0.1,0.6,0,1,0c0.1,0,0.1,0,0.2,0s0.1,0,0.2,0s0.2,0,0.3,0c0.1,0,0.2,0,0.3-0.1c0.1,0,0.1,0,0.2-0.1
	c0,0.1-0.1,0.2-0.1,0.3c-0.1,0.2-0.1,0.4-0.1,0.5c0.1,0,0.3,0,0.4,0c0.3,0,0.6,0.1,1,0c0.1,0,0.2,0,0.3,0s0.1,0,0.2,0s0.2,0,0.2-0.1
	c0.2-0.1,0.4-0.2,0.6-0.3c0.1,0,0.1-0.1,0.2-0.2c0.1-0.1,0.1-0.1,0.2-0.2c0,0.1,0,0.1-0.1,0.2c-0.1,0.3-0.2,0.7-0.1,1.1
	c0.2-0.3,0.5-0.6,0.9-0.7c0.1,0,0.2-0.1,0.3-0.1c0.1,0,0.2-0.1,0.3-0.1s0.1,0,0.2-0.1c0.1,0,0.2-0.1,0.2-0.1c0.1,0,0.2-0.1,0.2-0.1
	c0.5-0.2,0.8-0.6,1.1-1c0,0.4-0.1,0.7-0.1,1.1c0.2-0.4,0.7-0.6,1.1-0.7c0.1,0,0.2-0.1,0.3-0.1c0.2-0.1,0.3-0.1,0.5-0.2
	c0.2-0.1,0.3-0.1,0.5-0.2c0.2-0.1,0.4-0.2,0.6-0.3c0.7-0.4,1.3-0.8,1.9-1.4c0.6-0.5,1.1-1,1.7-1.5c0.2-0.2,0.4-0.3,0.6-0.5
	s0.4-0.3,0.6-0.5c0.3-0.2,0.7-0.5,1-0.7c0.1-0.1,0.2-0.1,0.3-0.2c0,0,0.1,0,0.1-0.1c0.2-0.1,0.4-0.2,0.6-0.3
	c0.1-0.1,0.3-0.1,0.4-0.2c0,0,0.1,0,0.1-0.1c0.2-0.1,0.3-0.1,0.5-0.2c0.4,0,0.7,0,1.1-0.1c0,0.3,0,0.7,0,1c-0.1,0.3-0.1,0.5-0.1,0.5
	c-0.1,0.2-0.1,0.3-0.2,0.5c0,0.1-0.1,0.2-0.1,0.2c-0.1,0.1-0.1,0.1-0.2,0.2c-0.1,0.1-0.2,0.2-0.3,0.3c-1,0.9-2.3,1.2-3.4,1.7
	c-0.1,0-0.2,0.1-0.3,0.1s-0.2,0.1-0.3,0.1c-0.1,0-0.1,0.1-0.2,0.1s-0.1,0.1-0.2,0.1c-0.3,0.2-0.6,0.5-1,0.7c0.2,0.1,0.4,0.3,0.7,0.4
	c-0.6,0-1.2,0.2-1.7,0.6c-0.1,0-0.1,0.1-0.2,0.1c-0.2,0.1-0.4,0.3-0.6,0.4c0.2,0.2,0.5,0.4,0.8,0.4c-0.5,0-0.9,0.3-1.3,0.7l-0.1,0.1
	l-0.1,0.1c-0.2,0.2-0.4,0.4-0.6,0.6c0.2,0,0.4,0.2,0.7,0.2c-0.3,0.1-0.5,0.3-0.7,0.5l-0.1,0.1c-0.2,0.2-0.3,0.5-0.5,0.7
	c0,0.1-0.1,0.1-0.1,0.2c-0.1,0.1-0.1,0.2-0.2,0.3c0.2,0,0.4,0.1,0.6,0.1h0.1c0.1,0,0.2,0,0.3,0c-0.1,0.1-0.1,0.1-0.2,0.1
	c0,0-0.1,0-0.1,0.1c-0.2,0.1-0.4,0.2-0.5,0.4c-0.1,0.1-0.1,0.1-0.2,0.2c-0.1,0.1-0.1,0.2-0.2,0.3c0,0.1,0,0.1-0.1,0.2
	c-0.2,0.4-0.3,0.9-0.6,1.2h0.1c0.1,0,0.1,0,0.2,0c0.3,0.1,0.5,0.2,0.8,0.1c-0.3,0.1-0.5,0.4-0.6,0.7c0,0.1-0.1,0.2-0.1,0.2
	c-0.1,0.4-0.2,0.8-0.6,1c0,0,0,0,0.1,0c0.4,0.1,0.8,0.1,1.2-0.1c-0.3,0.5-0.5,0.9-0.7,1.4c0,0.1,0,0.1-0.1,0.2
	c0,0.1-0.1,0.3-0.1,0.4c-0.1,0.4-0.1,0.8-0.3,1.2c0,0.1,0,0.1-0.1,0.2c-0.1,0.1-0.2,0.3-0.3,0.4c0.2-0.1,0.3-0.2,0.5-0.2
	c0.1,0,0.2-0.1,0.2-0.1c0.4-0.1,0.9-0.2,1.3-0.3c0.1,0,0.2,0,0.2-0.1c0.2-0.1,0.3-0.1,0.5-0.2c0.1,0,0.1,0,0.2-0.1
	c0.1,0,0.1,0,0.2-0.1c0.1,0,0.1,0,0.2-0.1c0.2-0.1,0.4-0.2,0.5-0.3l0.1-0.1l0.1-0.1l0.1-0.1c-0.1,0.2-0.1,0.4,0,0.6
	c0.3-0.2,0.6-0.3,1-0.5c0.1-0.1,0.2-0.1,0.3-0.2c0.1-0.1,0.3-0.2,0.4-0.3c0,0,0.1,0,0.1-0.1c0.1-0.1,0.2-0.1,0.2-0.2l0.1-0.1
	c0,0,0-0.1,0.1-0.1l0,0v0.1v0.1c0,0,0,0.1,0.1,0.1v0.1v0.1c0,0,0,0.1,0.1,0.1c0,0,0-0.1,0.1-0.1l0.1-0.1c0.2-0.1,0.4-0.3,0.6-0.4
	l0.1-0.1c0.1-0.1,0.2-0.2,0.2-0.2l0.1-0.1c0.1-0.1,0.2-0.3,0.3-0.4c-0.1,0.2,0.1,0.4,0.2,0.6c0,0.1,0.1,0.1,0.1,0.2
	c0,0,0-0.1,0.1-0.1l0.1-0.1c0.2-0.2,0.4-0.3,0.6-0.4l0.1-0.1c0.1-0.1,0.1-0.1,0.2-0.2c0,0,0.1-0.1,0.1-0.2c0.2-0.2,0.3-0.5,0.4-0.7
	c0-0.1,0-0.1,0.1-0.2c0-0.1,0-0.1,0.1-0.2c0,0.1,0.1,0.2,0.1,0.2s0,0,0.1,0.1c0,0,0,0,0.1,0.1s0.1,0.1,0.2,0.2
	c0.1-0.2,0.2-0.4,0.3-0.5c0,0,0-0.1,0.1-0.1c0,0,0.1-0.1,0.1-0.2c0-0.1,0.1-0.1,0.1-0.2c0,0,0-0.1,0.1-0.1c0-0.1,0.1-0.1,0.1-0.2
	c0-0.2,0-0.4,0-0.6c0,0.3,0.4,0.5,0.6,0.7l0.1,0.1c0-0.1,0.1-0.3,0.2-0.4c0.2-0.3,0.4-0.6,0.6-0.9c0-0.1,0.1-0.1,0.1-0.2
	c0.1-0.2,0.1-0.3,0.1-0.5v-0.1c0-0.1,0-0.1-0.1-0.2V772c0,0,0,0.1,0.1,0.1c0,0.1,0.1,0.1,0.2,0.1h0.1c0.1,0,0.3,0,0.4,0.1
	c-0.1-0.1,0.1-0.3,0.1-0.4v-0.1c0-0.1,0.1-0.3,0.1-0.4c0-0.1,0-0.1,0-0.2c0-0.3,0-0.7-0.1-1c0.1,0.2,0.2,0.3,0.4,0.4v-0.1v-0.1
	c0.1-0.2,0.3-0.4,0.3-0.7c0-0.1,0-0.1,0-0.2c0-0.2,0-0.3,0-0.5v-0.1c0-0.3,0-0.6-0.1-0.9c0-0.1,0-0.2,0-0.3
	c-0.1-0.4-0.2-0.8-0.3-1.2c0-0.2-0.1-0.3-0.1-0.5c-0.1-0.3-0.2-0.6-0.4-0.9c-0.1-0.2-0.1-0.4-0.2-0.5c-0.1-0.2-0.1-0.4-0.2-0.5
	c-0.1-0.2-0.1-0.4-0.2-0.5c-0.1-0.2-0.1-0.4-0.2-0.6c-0.1-0.2-0.1-0.4-0.1-0.6s-0.1-0.4-0.1-0.6c0-0.1,0-0.3,0-0.4
	c0-0.2,0.1-0.5,0.1-0.7c1,2,2.1,3.9,3,5.9c1.8,3.6,3.7,7.2,5.5,10.9c0.9,1.8,2.1,4.9,2.2,5.7c0,0.1,0,0.2,0,0.4
	c0.1,0.4-0.1,0.9,0.3,1.2c0.1,0.1,0.3,0.1,0.5,0c0,0,0.1,0,0.2,0s0.2-0.1,0.2-0.3c0-0.4-0.1-0.8-0.1-1.2c0-0.1,0-0.1,0-0.2
	c0-0.1,0-0.1-0.1-0.2c-0.1-0.3-0.2-0.7-0.3-1c-0.3-0.8-0.3-0.7-1.1-2.2l0,0c-0.3-0.6-0.6-1.2-0.9-1.8c-0.6-1.2-1.2-2.4-1.8-3.6
	c-1.3-2.4-2.5-4.7-3.7-7.1c-0.9-1.8-1.9-3.6-2.9-5.4c-0.2-0.4-0.4-0.8-0.6-1.2c0.3,0.1,0.6,0.2,0.9,0.2c0.1,0.1,0.2,0.1,0.2,0.2
	c0.2,0.1,0.3,0.3,0.5,0.4c0.2,0.1,0.3,0.3,0.4,0.4c0.1,0.2,0.3,0.3,0.4,0.5c0.1,0.1,0.2,0.3,0.4,0.4c0.1,0.1,0.2,0.3,0.3,0.4
	c0.1,0.2,0.2,0.3,0.3,0.4c0.2,0.3,0.4,0.5,0.6,0.8c0.1,0.1,0.2,0.3,0.3,0.4c0.3,0.3,0.6,0.6,0.9,0.9c0.1,0.1,0.2,0.1,0.2,0.2
	c0.2,0.2,0.5,0.4,0.7,0.5l0.1,0.1c0.1,0.1,0.3,0.2,0.4,0.3l0.1,0.1c0.2,0.1,0.5,0.1,0.8,0.1h0.1c0,0,0.1,0,0.1,0.1
	c0-0.2,0-0.4-0.2-0.6c0.2,0.2,0.5,0.4,0.8,0.6c0,0,0.1,0,0.1,0.1c0.1,0.1,0.3,0.1,0.4,0.1h0.1c0.1,0,0.3,0,0.4,0.2
	c0-0.1,0-0.3,0.1-0.4v-0.1c0-0.1,0-0.1,0-0.2v-0.1c0,0,0,0.1,0.1,0.1c0,0.1,0.1,0.1,0.1,0.2l0.1,0.1c0.1,0.1,0.3,0.2,0.5,0.2
	c0.1,0,0.1,0,0.2,0c0.3,0,0.7,0,1.1,0c0.1,0,0.3,0,0.4,0.1v-0.1c0-0.3,0-0.8-0.3-0.9c0.2,0.1,0.3,0.3,0.5,0.4c0.1,0,0.1,0,0.2,0h0.1
	c0.1,0,0.1,0,0.2,0s0.1,0,0.2,0h0.1c0.2,0,0.4-0.1,0.6,0c0-0.1-0.1-0.2-0.1-0.3v-0.1v-0.1c0-0.1-0.1-0.2-0.2-0.2c0.1,0,0.1,0,0.2,0
	s0.1,0,0.2,0c0.3,0,0.6,0,0.8,0c0.1,0,0.1,0,0.2,0s0.2,0,0.2-0.1h0.1c0.3-0.1,0.5-0.2,0.7-0.3h0.1h0.1c0-0.1-0.1-0.1-0.1-0.2
	c-0.1-0.2-0.2-0.4-0.4-0.5c0.2,0,0.3,0,0.5,0c0.1,0,0.1,0,0.2,0s0.2,0,0.3-0.1c0.1,0,0.1,0,0.2-0.1c0.2-0.1,0.4-0.2,0.6-0.3h0.1h0.1
	c0,0,0-0.1-0.1-0.1c0,0,0-0.1-0.1-0.1c0,0,0-0.1-0.1-0.1c0,0,0-0.1-0.1-0.1c0,0,0,0-0.1-0.1c0,0,0,0-0.1,0l0,0h0.1h0.1
	c0.1,0,0.2-0.1,0.3-0.1h0.1c0.1-0.1,0.3-0.1,0.4-0.2c0.1-0.1,0.2-0.1,0.3-0.2c0.3-0.2,0.6-0.4,0.9-0.6c-0.1-0.2-0.3-0.3-0.5-0.3
	c0.1,0,0.1,0,0.2,0s0.1,0,0.2,0c0,0,0.1,0,0.1-0.1c0.2-0.1,0.4-0.2,0.6-0.3c0.1,0,0.1-0.1,0.2-0.1l0.1-0.1l0.1-0.1
	c0.1-0.1,0.3-0.2,0.4-0.3c0.1-0.1,0.1-0.1,0.2-0.2c0.3-0.3,0.6-0.7,1-1c0.1-0.1,0.1-0.1,0.2-0.2c0.1-0.1,0.3-0.2,0.5-0.3
	C-989.2,761.8-989.3,761.8-989.5,761.8z"/>
<path id="Fill-12" class="st0" d="M-1001.7,749.6c0,0,8.6-12.2,9.3-13.3s1.2-2.8-1-4.2c-2.2-1.5-2.9-1.7-4.7,0.3
	c-1.8,2-18.9,22.6-18.9,22.6h11.2l1.6-1.9c0,0,4.7,0.3,4.7,2.1c0,1.9-12.1,2.4-16.9,2.4s-16.1-0.8-16.1-2.7s10.9-2.7,13.5-2.7
	l3.1-3.7c0,0-26.5,0.5-27,6.6c-0.5,6.2,1.9,17.6,14.5,24.1c0,0,0.6,0.9,0.8,1.9c0.2,0.9,0.4,4.8,11.4,4.8c12.4,0,11.9-4.4,12.2-5.6
	c0.4-1.2,0.2-1.1,1.3-1.6s12.3-4.1,13.7-23.1C-989,755.7-988,751.7-1001.7,749.6"/>
<path id="Fill-6_1_" class="st0" d="M-1021.8,780.8l-5.2-5.2l2-2l5.2,5.2L-1021.8,780.8z M-984.9,746.1l-7.3-7.3
	c-0.6-0.6-1.9-0.3-2.5,0.3l-35.8,35.8c-0.6,0.6-0.2,1.2,0.4,1.8l7.3,7.3c0.6,0.6,1.1,0.8,1.7,0.3l35.8-35.8
	C-984.8,747.9-984.4,746.7-984.9,746.1z M-1030.7,764.9c0.3,1.7,1.4,3.3,3.2,4.6c-0.4-0.9-0.6-1.8-0.7-2.8c-0.1-3.7,2.6-6.4,4.7-8.5
	c0.2-0.2,0.4-0.4,0.5-0.5c1.6-1.7,2.4-3.8,2-5.7c-0.2-1.3-1.1-2.6-2.3-3.7c1.7,4.6-0.3,6.7-3.1,8.7c-0.3,0.3-0.7,0.5-1,0.8
	C-1029.8,760-1031.1,762.6-1030.7,764.9z M-1032.9,754.1c-2.1,2.1-4.9,4.9-4.8,8.7c0,1,0.3,1.9,0.7,2.8c-1.9-1.4-3-3-3.3-4.8
	c-0.4-2.4,0.9-5.1,3.4-7.1c0.3-0.3,0.7-0.6,1.1-0.8c2.8-2.1,4.9-4.2,3.1-9c1.3,1.1,2.2,2.4,2.4,3.8c0.4,2-0.4,4.1-2.1,5.8
	C-1032.6,753.7-1032.7,753.9-1032.9,754.1z M-1030.7,755.2c2.2-2.2,3.2-5.2,2.7-7.9c-0.4-2.1-1.9-5.2-6.9-7.5l0,0l0,0c0,0,0,0-0.1,0
	s-0.1,0-0.2-0.1h-0.1h-0.1h-0.1h-0.1h-0.1h-0.1h-0.1h-0.1l0,0l-0.1,0.1c0,0-0.1,0-0.1,0.1c0,0,0,0.1-0.1,0.1l-0.1,0.1c0,0,0,0,0,0.1
	l-0.1,0.1l0,0c0,0,0,0,0,0.1v0.1v0.1v0.1v0.1v0.1v0.1v0.1c0,0,0,0.1,0.1,0.1c0,0,0,0,0,0.1c3.7,6.3,1.8,7.7-0.8,9.6
	c-0.4,0.3-0.8,0.6-1.1,0.9c-3.1,2.6-4.7,6.1-4.2,9.3c0.4,2.6,2.4,6.3,9.5,9.2l0,0h0.1c0,0,0,0,0.1,0h0.1c0,0,0,0,0.1,0l0,0
	c0.1,0,0.2,0,0.3,0h0.1c0.1,0,0.1-0.1,0.2-0.1c0,0,0,0,0.1,0c0.1-0.1,0.1-0.1,0.2-0.2l0,0l0,0c0.1-0.1,0.1-0.2,0.1-0.2l0,0l0,0v-0.1
	v-0.1v-0.1v-0.1v-0.1v-0.1v-0.1V769c0,0,0-0.1-0.1-0.1c0,0,0-0.1-0.1-0.1c0,0,0-0.1-0.1-0.1l-0.1-0.1l0,0c-2.2-2-3.4-3.9-3.5-5.7
	c-0.1-2.8,2.2-5.1,4.1-7C-1031.1,755.6-1030.9,755.4-1030.7,755.2z"/>
<path id="Fill-8_1_" class="st0" d="M-986.3,768.5c-4.7,7-7.9,2.8-7.9,2.8s-11.3,9.1-23.2,8.5c-7.9-0.4-14.6-3.1-20-8.1
	c-4.6,2.6-7,0.9-7-5.2c-2.9,6.3,1.2,10.4,3,10.4s6.5-0.1,7.2,2.4c0.6,2.5-4.3,1.3-4.3,3c0.2,2.7,11.5-0.1,13-0.1
	c1.6,0,4,1.2,8.1,1.1c4.1,0,9-1.5,10.4-1.3c7.7,3.4,15.7-0.1,14.5-0.1c-1.2,0-6.2-0.7-6.2-2.3c0-0.5-0.1-1.3,6.2-1.8
	C-986.2,777.3-985.5,767.7-986.3,768.5 M-979.5,749.9c-3.2-5.1-8.1-2.2-9.2-1.4c-0.8,0.5-3.5,1.6-8.3,3.1c-1.2-2.5-2-3.7-2.2-3.7
	c-0.3,0,2.1-2,2.4-3.9c-0.8,0.8-3.7,1.3-8.1,1.9c-1.3,0.2-3.7,0.1-10.3,0c-4.3-0.1-6.2-0.1-7.9-0.1c-3.6,0-7.1-0.7-10.6-2.2h-0.1
	c0.1,2.8,1.9,4.7,2.2,4.7s-3.5,3.5-3.1,5.2c0.4,1.6-2.8-6.1-8-5.6s0.3,3.6,0.6,3.8c0.7,0.7,2.6,3.7,2.1,10.8c-0.4,4.7,1.9,8,6.9,9.8
	c2.7,3.8,8.8,5.7,18.1,5.6c14-0.1,19.2-6.6,20.2-10.1c0.9-3.4,0.6-6.2-0.1-8.3c0-0.6,7.1-2.6,7.7-2.6
	C-986.9,756.8-976.3,755.1-979.5,749.9 M-1033.5,742.6c3.4,1.5,6.8,2.2,10.3,2.1c1.8,0,3.6,0,7.8,0.1c6.6,0.2,9,0.2,10.3,0
	c4-0.5,7.2-1.1,7.6-1.6c0.1-0.2,0.4-0.2,0.6-0.1c-0.4-0.8-2-1.4-5.5-1.4c-0.9,0-1.5-3.9-10.1-3.8v-1.5c0.2-0.7,0.4-1,0.6-1
	c0.3,0,3.6-1.9-3.2-2.1c-6.8-0.3-4,2.2-3.5,2.2c0.4,0,0.8,0.4,0.8,1s-0.2,1.3-0.3,1.5c-1.4,0.5-8-0.6-10.4,3.4
	c-0.7,0.6-4.6-0.7-5.2,1.3C-1033.7,742.6-1033.6,742.6-1033.5,742.6"/>
<path id="Fill-12_1_" class="st0" d="M-1007.6,771.5c1.9-1.1,2-2.6,1.1-6.1c4.9-3.6,0.2-7.4-1.2-7.4h-4.8c-3.6,0-3.6,5.7-2.1,5.6
	c2.1-0.1,2.8,0.7,2.7,1.7c-0.1,1.5-1.8,0.8-3.1,1.1c-0.8,0.2-0.8,3.2,0.6,3.1c2.5-0.1,2.5,0.7,2.4,1.6c-0.1,1.2-2.9,0.3-2.9,2.1
	c0,1,0,5.1,0,6s0.2,2.7,1.8,2.4C-1007.7,780.7-1006.8,773.4-1007.6,771.5 M-997.8,754.4c0-0.6-0.4-1.1-1-1.1s-1.1,0.4-1.1,1
	c-0.3,5-0.9,7.8-1.5,10.3c-0.8,3.5-1.4,6.1-0.5,12.6c0.5,3.8-4.7,7.8-6.8,9c-0.5,0.3-0.7,1-0.4,1.5c0.2,0.4,0.6,0.6,0.9,0.6
	c0.2,0,0.4,0,0.5-0.1c0.4-0.2,8.7-5.2,7.9-11.2c-0.8-6.1-0.3-8.4,0.4-11.8c0.2-0.9,0.4-1.8,0.6-2.9c1.4,3.5,3.4,5.1,3.5,5.2
	c0.5,0.4,1.2,0.3,1.5-0.2c0.4-0.5,0.3-1.2-0.2-1.5C-994.1,765.4-998,762.3-997.8,754.4 M-990,749.5c1.1-6.9-1.2-11.2-3.4-13.6
	c-2.6-2.8-6.3-4.5-9.9-4.3c-2.3-2.5-5.9-3-6.1-3c-0.6-0.1-1.1,0.3-1.2,1c-0.1,0.6,0.3,1.2,0.9,1.2c0.1,0,3.4,0.5,5,2.7l0.4,0.5
	l0.6-0.1c3-0.3,6.4,1.1,8.7,3.6c1.9,2.1,3.9,5.8,2.8,12.1l-0.1,0.4l0.2,0.4c2.8,4.8,2.7,8.4,2.6,10.8c0,0.3,0,0.7,0,1
	c0,0.6,0.5,1.1,1.1,1.1s1.1-0.5,1.1-1.1c0-0.3,0-0.6,0-0.9C-987.1,758.7-987,754.7-990,749.5 M-1017.5,763.7
	c1.5,0.1,1.5-5.6-2.1-5.6h-4.8c-1.4,0-6.1,3.8-1.2,7.4c-0.9,3.4-0.8,5,1.1,6.1c-0.8,1.9,0.1,9.1,5.4,10.3c1.5,0.3,1.8-1.4,1.8-2.4
	c0-0.9,0-5.1,0-6c0-1.9-2.8-0.9-2.9-2.1c-0.1-0.9-0.1-1.7,2.4-1.6c1.4,0,1.4-2.9,0.6-3.1c-1.2-0.3-3,0.3-3.1-1.1
	C-1020.3,764.4-1019.6,763.6-1017.5,763.7 M-1023.3,786.1c-2.1-1.2-7.3-5.2-6.8-9c0.9-6.5,0.3-9-0.5-12.6c-0.5-2.5-1.2-5.3-1.5-10.3
	c0-0.6-0.5-1.1-1.1-1c-0.6,0-1.1,0.5-1,1.1c0.2,7.9-3.7,11-3.9,11.1c-0.5,0.4-0.6,1.1-0.2,1.5c0.4,0.5,1,0.6,1.5,0.2
	c0.1-0.1,2.1-1.6,3.5-5.2c0.2,1.1,0.4,2,0.6,2.9c0.8,3.4,1.3,5.7,0.4,11.8c-0.8,6,7.5,11,7.9,11.2c0.2,0.1,0.4,0.1,0.5,0.1
	c0.4,0,0.7-0.2,0.9-0.6C-1022.6,787.1-1022.7,786.4-1023.3,786.1 M-1037.1,737.5c2.2-2.5,5.6-3.9,8.7-3.6l0.6,0.1l0.4-0.5
	c1.6-2.2,4.9-2.7,5-2.7c0.6-0.1,1-0.6,0.9-1.2c-0.1-0.6-0.6-1-1.2-1c-0.2,0-3.8,0.5-6.1,3c-3.6-0.2-7.3,1.5-9.9,4.3
	c-2.2,2.4-4.5,6.7-3.4,13.6c-2.9,5.2-2.8,9.2-2.7,11.6c0,0.3,0,0.6,0,0.9c0,0.6,0.5,1.1,1.1,1.1s1.1-0.5,1.1-1.1c0-0.3,0-0.6,0-1
	c-0.1-2.4-0.2-5.9,2.6-10.8l0.2-0.4l-0.1-0.4C-1040.9,743.3-1038.9,739.5-1037.1,737.5"/>
<path id="Fill-14_1_" class="st0" d="M-998.4,773.4c4.1,0,7.4-3.3,7.4-7.4c0-4.1-3.3-7.4-7.4-7.4s-7.4,3.3-7.4,7.4
	C-1005.9,770.1-1002.5,773.4-998.4,773.4z M-989.6,775.6h-12.5l-8.5-8.7c-0.7-0.7-1-1-2.2-1c-2,0-30.2,0-30.2,0
	c-1.4,0-2.6,1.2-2.6,2.6v6.6c0,1.4,1.1,2.6,2.6,2.6h34l3.3,3.3c0.3,0.3,0.7,0.6,1.1,0.7c0.4,0.2,0.8,0.2,1.2,0.2h13.9
	c1.8,0,3.3-1.5,3.2-3.3C-986.4,777.1-987.9,775.6-989.6,775.6z M-1043.1,779.4c-0.9,0-1.8-0.3-2.6-0.9v3.6h38.6l-2.7-2.7
	L-1043.1,779.4L-1043.1,779.4z M-1022.9,746.1c3.9,0,7.1-3.2,7.1-7.2s-3.2-7.2-7.1-7.2c-0.8,0-1.6,0.1-2.4,0.4
	c-2,0.7-3.6,2.3-4.4,4.4c-0.3,0.8-0.4,1.6-0.4,2.4C-1030,742.9-1026.8,746.1-1022.9,746.1z M-1026.8,762.5c1.2-2.2,4.8-3.3,4-6.4
	V756l3.3,3.1c0.2,0.2,0.5,0.4,0.9,0.5l9,3.4c0.3,0.1,0.6,0.2,0.9,0.2c1,0,2-0.6,2.4-1.7c0.5-1.3-0.2-2.8-1.5-3.3l-7.9-3
	c-0.4-0.1-0.7-0.4-1-0.6c-0.3-0.3-7-6.6-7-6.7c-0.3-0.3-0.7-0.5-1.1-0.6c-0.1,0-0.2-0.1-0.3-0.1c-0.1,0-0.2-0.1-0.3-0.1
	c-1.7-0.5-3.7-0.9-5.5-0.7c-0.6,0.1-1.2,0.2-1.7,0.5c-0.6,0.4-0.8,1.1-1.1,1.7c-1.7,3.7-5.3,13.3-6.3,15.7h12.5
	C-1027.5,763.8-1027.2,763.1-1026.8,762.5z"/>
<path class="st2" d="M82.3,71C54,71,31,48,31,19.7s23-51.4,51.4-51.4s51.4,23,51.4,51.4S110.7,71,82.3,71z M62.2,37.9
	c3.3,3.8,14.9,15.4,19.5,16.3c0,0,1.6-0.4,3.7-1.9c0,0,5.7-4,10-8.6l3.9-3.9l5.4-5.8l3-3.7c0,0,0.7-0.9,1.5-2H89l-5.4,7.2
	c-0.7,0.9-1.9,1.1-2.8,0.4l0,0l0,0l0,0c-0.2-0.2-0.4-0.4-0.6-0.7l-6.1-12.4l-1.9,3.9c-0.4,0.8-1.2,1.4-2.1,1.6H54.2
	C56.7,31.9,60,35.3,62.2,37.9z M98-1.5c0,0-8.3-1.6-16.2,7.2c0,0-5.6-7.4-14.8-7.2c0,0-2.8,0-5.5,0.8c0,0-6,2-8.5,5.7
	c0,0-3.3,4.1-3,9.7c0,0-0.3,3.3,1.7,8.7c0.1,0.3,0.2,0.6,0.3,0.8c0.2,0,0.4-0.1,0.5-0.1h16.3l3.3-6.8c0.6-1,1.9-1.4,2.9-0.9
	c0.4,0.2,0.7,0.5,0.9,0.9l6.4,13.1l4.1-5.4c0.2-0.2,0.4-0.4,0.6-0.5l0.1-0.1l0,0c0.3-0.1,0.6-0.2,0.8-0.2h23.5
	c0.6-1.4,2.1-5.3,2-10.6C113.6,13.7,113.8,0.8,98-1.5z"/>
<circle class="st3" cx="82.3" cy="19.7" r="51.4"/>
<path id="Fill-12_2_" class="st4" d="M96.6,10.8c0,0,8.6-12.2,9.3-13.3c0.7-1.1,1.2-2.8-1-4.2c-2.2-1.5-2.9-1.7-4.7,0.3
	c-1.8,2-18.9,22.6-18.9,22.6h11.2l1.6-1.9c0,0,4.7,0.3,4.7,2.1c0,1.9-12.1,2.4-16.9,2.4S65.8,18,65.8,16.1c0-1.9,10.9-2.7,13.5-2.7
	l3.1-3.7c0,0-26.5,0.5-27,6.6c-0.5,6.2,1.9,17.6,14.5,24.1c0,0,0.6,0.9,0.8,1.9c0.2,0.9,0.4,4.8,11.4,4.8c12.4,0,11.9-4.4,12.2-5.6
	c0.4-1.2,0.2-1.1,1.3-1.6c1.1-0.5,12.3-4.1,13.7-23.1C109.4,16.9,110.4,12.9,96.6,10.8"/>
<path class="st4" d="M109.6,52.4l1-0.9c0.2-0.1,0.4-0.3,0.5-0.5l0.5-0.5c0.3-0.3,0.7-0.7,1-1c0.7-0.7,1.3-1.3,1.9-2.1l0.5-0.5
	l0.2-0.3l0.2-0.3l0.9-1.1l1.2,0.9c-0.5,0.7-1.1,1.4-1.7,2.1c-0.3,0.3-0.6,0.7-0.9,1l-0.9,1l-0.5,0.5l-0.5,0.5l-1,0.9
	c-0.3,0.3-0.7,0.6-1,0.9c-0.3,0.3-0.7,0.6-1,0.9l1.7,2.1c1.6-1.3,3.1-2.7,4.5-4.2c0.7-0.7,1.4-1.5,2.1-2.3c0.3-0.4,0.7-0.8,0.9-1.2
	c0.3-0.4,0.7-0.8,0.9-1.2l0.8-1.1l-3.4-2.4c1-1.6,2-3.1,2.9-4.9l0.3-0.6c0.1-0.2,0.2-0.4,0.3-0.7l0.6-1.3l0.5-1.3l0.3-0.7l0.2-0.7
	l1.4,0.5c-1.2,3.4-2.8,6.6-4.7,9.6l2.2,1.5l0.8-1.3l0.8-1.3c0.1-0.2,0.3-0.4,0.4-0.7l0.4-0.7c0.2-0.5,0.5-0.9,0.7-1.4
	c0.4-0.9,0.9-1.8,1.2-2.8c0.2-0.5,0.4-0.9,0.5-1.4l0.5-1.4c0.1-0.2,0.1-0.4,0.2-0.7l0.2-0.7l-4-1.2l0.4-1.3l0.3-1.4l0.1-0.7l0.1-0.7
	l0.3-1.4l0.2-1.4l0.1-0.7l0-0.7l0.1-1.4c0-0.5,0-0.9,0-1.4l1.4,0l0,1.3l-0.1,1.3c0,0.9-0.2,1.8-0.3,2.6c0,0.4-0.1,0.9-0.2,1.3
	l-0.3,1.3l-0.3,1.3c-0.1,0.4-0.2,0.9-0.3,1.3l2.6,0.7c0.1-0.5,0.3-1,0.4-1.5c0.1-0.5,0.3-1,0.3-1.5c0.2-1,0.4-2,0.5-3
	c0.3-2,0.4-4.1,0.4-6.1l0-1.4l-4.1,0.1c-0.1-3.8-0.7-7.5-1.8-11.1l1.4-0.4c1,3.4,1.6,7,1.8,10.5l2.7-0.1l-0.1-1.5l-0.1-0.8
	c0-0.3-0.1-0.5-0.1-0.8l-0.2-1.5c-0.1-0.5-0.2-1-0.3-1.5c-0.1-1-0.4-2-0.7-3c-0.1-0.5-0.3-1-0.4-1.5c-0.1-0.5-0.3-1-0.4-1.5
	l-0.4-1.3l-3.9,1.4c-0.7-1.8-1.4-3.5-2.2-5.2c-0.4-0.8-0.9-1.7-1.4-2.5c-0.3-0.4-0.5-0.8-0.8-1.2l-0.4-0.6c-0.1-0.2-0.3-0.4-0.4-0.6
	l1.2-0.8c2.1,2.9,3.7,6.1,5,9.4l2.5-1l-0.6-1.4c-0.2-0.5-0.4-0.9-0.6-1.4l-0.3-0.7l-0.4-0.7l-0.7-1.4L122.6-4l-0.4-0.7l-0.4-0.7
	c-0.3-0.4-0.5-0.9-0.8-1.3l-0.9-1.3c-0.1-0.2-0.3-0.4-0.4-0.5L119.3-9L116-6.4l-0.9-1.1l-0.9-1c-0.1-0.2-0.3-0.4-0.5-0.5l-0.5-0.5
	c-0.3-0.3-0.7-0.7-1-1c-0.7-0.7-1.3-1.3-2.1-1.9l-0.5-0.5l-0.3-0.2l-0.3-0.2l-1.1-0.9l0.9-1.2c0.7,0.5,1.4,1.1,2.1,1.7
	c0.3,0.3,0.7,0.6,1,0.9l1,0.9l0.5,0.5l0.5,0.5l0.9,1c0.3,0.3,0.6,0.7,0.9,1c0.3,0.3,0.6,0.7,0.9,1l2.1-1.7c-1.3-1.6-2.7-3.1-4.2-4.5
	c-0.7-0.7-1.5-1.4-2.3-2.1c-0.4-0.3-0.8-0.7-1.2-0.9c-0.4-0.3-0.8-0.7-1.2-0.9l-1.1-0.8l-2.4,3.4c-1.6-1-3.1-2-4.9-2.9l-0.6-0.3
	c-0.2-0.1-0.4-0.2-0.7-0.3l-1.3-0.6l-1.3-0.5l-0.7-0.3l-0.7-0.2l0.5-1.4c3.4,1.2,6.6,2.8,9.6,4.7l1.5-2.2l-1.3-0.8l-1.3-0.8
	c-0.2-0.1-0.4-0.3-0.7-0.4l-0.7-0.4c-0.5-0.2-0.9-0.5-1.4-0.7c-0.9-0.4-1.8-0.9-2.8-1.2c-0.5-0.2-0.9-0.4-1.4-0.5l-1.4-0.5
	c-0.2-0.1-0.4-0.1-0.7-0.2l-0.7-0.2l-1.2,4l-1.3-0.4L91.5-22l-0.7-0.1l-0.7-0.1l-1.4-0.3l-1.4-0.2l-0.7-0.1l-0.7,0l-1.4-0.1
	c-0.5,0-0.9,0-1.4,0l0-1.4l1.3,0l1.3,0.1c0.9,0,1.8,0.2,2.6,0.3c0.4,0,0.9,0.1,1.3,0.2l1.3,0.3l1.3,0.3c0.4,0.1,0.9,0.2,1.3,0.3
	l0.7-2.6c-0.5-0.1-1-0.3-1.5-0.4s-1-0.3-1.5-0.3c-1-0.2-2-0.4-3-0.5c-2-0.3-4.1-0.4-6.1-0.4L81-27l0.1,4.1
	c-3.8,0.1-7.5,0.7-11.1,1.8l-0.4-1.4c3.4-1,7-1.6,10.5-1.8L79.9-27l-1.5,0.1l-0.8,0.1c-0.3,0-0.5,0.1-0.8,0.1l-1.5,0.2
	c-0.5,0.1-1,0.2-1.5,0.3c-1,0.1-2,0.4-3,0.7c-0.5,0.1-1,0.3-1.5,0.4c-0.5,0.1-1,0.3-1.5,0.4l-1.3,0.4l1.4,3.9
	c-1.8,0.7-3.5,1.4-5.2,2.2c-0.8,0.4-1.7,0.9-2.5,1.4c-0.4,0.3-0.8,0.5-1.2,0.8l-0.6,0.4c-0.2,0.1-0.4,0.3-0.6,0.4l-0.8-1.2
	c2.9-2.1,6.1-3.7,9.4-5l-1-2.5l-1.4,0.6c-0.5,0.2-0.9,0.4-1.4,0.6l-0.7,0.3l-0.7,0.4L60-21.4l-1.3,0.8L58-20.2l-0.7,0.4
	c-0.4,0.3-0.9,0.5-1.3,0.8l-1.3,0.9c-0.2,0.1-0.4,0.3-0.5,0.4l-0.5,0.4l2.5,3.3l-1.1,0.9l-1,0.9c-0.2,0.1-0.4,0.3-0.5,0.5L53-11.2
	c-0.3,0.3-0.7,0.7-1,1c-0.7,0.7-1.3,1.3-1.9,2.1l-0.5,0.5l-0.2,0.3l-0.2,0.3L48.3-6l-1.2-0.9c0.5-0.7,1.1-1.4,1.7-2.1
	c0.3-0.3,0.6-0.7,0.9-1l0.9-1l0.5-0.5l0.5-0.5l1-0.9c0.3-0.3,0.7-0.6,1-0.9c0.3-0.3,0.7-0.6,1-0.9l-1.7-2.1
	c-1.6,1.3-3.1,2.7-4.5,4.2c-0.7,0.7-1.4,1.5-2.1,2.3C46-9.8,45.7-9.4,45.4-9c-0.3,0.4-0.7,0.8-0.9,1.2l-0.8,1.1l3.4,2.4
	c-1,1.6-2,3.1-2.9,4.9l-0.3,0.6c-0.1,0.2-0.2,0.4-0.3,0.7L43,3.1l-0.5,1.3l-0.3,0.7l-0.2,0.7l-1.4-0.5c1.2-3.4,2.8-6.6,4.7-9.6
	l-2.2-1.5l-0.8,1.3l-0.8,1.3c-0.1,0.2-0.3,0.4-0.4,0.7l-0.4,0.7c-0.2,0.5-0.5,0.9-0.7,1.4c-0.4,0.9-0.9,1.8-1.2,2.8
	c-0.2,0.5-0.4,0.9-0.5,1.4l-0.5,1.4c-0.1,0.2-0.1,0.4-0.2,0.7l-0.2,0.7l4,1.2L41,9l-0.3,1.4l-0.1,0.7l-0.1,0.7l-0.3,1.4L40,14.6
	L40,15.3l0,0.7l-0.1,1.4c0,0.5,0,0.9,0,1.4l-1.4,0l0-1.3l0.1-1.3c0-0.9,0.2-1.8,0.3-2.6c0-0.4,0.1-0.9,0.2-1.3l0.2-1.3l0.3-1.3
	c0.1-0.4,0.2-0.9,0.3-1.3l-2.6-0.7C37.1,8,37,8.5,36.8,9c-0.1,0.5-0.3,1-0.3,1.5c-0.2,1-0.4,2-0.5,3c-0.3,2-0.4,4.1-0.4,6.1l0,1.4
	l4.1-0.1c0.1,3.8,0.7,7.5,1.8,11.1l-1.4,0.4c-1-3.4-1.6-7-1.8-10.5L35.7,22l0.1,1.5l0.1,0.8c0,0.3,0.1,0.5,0.1,0.8l0.2,1.5
	c0.1,0.5,0.2,1,0.3,1.5c0.1,1,0.4,2,0.7,3c0.1,0.5,0.3,1,0.4,1.5c0.1,0.5,0.3,1,0.4,1.5l0.4,1.3l3.9-1.4c0.7,1.8,1.4,3.5,2.2,5.2
	c0.4,0.8,0.9,1.7,1.4,2.5c0.3,0.4,0.5,0.8,0.8,1.2l0.4,0.6c0.1,0.2,0.3,0.4,0.4,0.6l-1.2,0.8c-2.1-2.9-3.7-6.1-5-9.4l-2.5,1l0.6,1.4
	c0.2,0.5,0.4,0.9,0.6,1.4l0.3,0.7l0.4,0.7l0.7,1.4l0.8,1.3l0.4,0.7l0.4,0.7c0.3,0.4,0.5,0.9,0.8,1.3l0.9,1.3
	c0.1,0.2,0.3,0.4,0.4,0.5l0.4,0.5l3.3-2.5l0.9,1.1l0.9,1c0.1,0.2,0.3,0.4,0.5,0.5l0.5,0.5c0.3,0.3,0.7,0.7,1,1
	c0.7,0.7,1.3,1.3,2.1,1.9l0.5,0.5l0.3,0.2l0.3,0.2l1.1,0.9l-0.9,1.2c-0.7-0.5-1.4-1.1-2.1-1.7c-0.3-0.3-0.7-0.6-1-0.9l-1-0.9
	l-0.5-0.5l-0.5-0.5l-0.9-1c-0.3-0.3-0.6-0.7-0.9-1c-0.3-0.3-0.6-0.7-0.9-1L46,49c1.3,1.6,2.7,3.1,4.2,4.5c0.7,0.7,1.5,1.4,2.3,2.1
	c0.4,0.3,0.8,0.7,1.2,0.9c0.4,0.3,0.8,0.7,1.2,0.9l1.1,0.8l2.4-3.4c1.6,1,3.1,2,4.9,2.9l0.6,0.3c0.2,0.1,0.4,0.2,0.7,0.3l1.3,0.6
	l1.3,0.5l0.7,0.3l0.7,0.2l-0.5,1.4c-3.4-1.2-6.6-2.8-9.6-4.7l-1.5,2.2l1.3,0.8l1.3,0.8c0.2,0.1,0.4,0.3,0.7,0.4l0.7,0.4
	c0.5,0.2,0.9,0.5,1.4,0.7c0.9,0.4,1.8,0.9,2.8,1.2c0.5,0.2,0.9,0.4,1.4,0.5l1.4,0.5c0.2,0.1,0.4,0.1,0.7,0.2l0.7,0.2l1.2-4l1.3,0.4
	l1.4,0.3l0.7,0.1l0.7,0.1l1.4,0.3l1.4,0.2L78,62l0.7,0l1.4,0.1c0.5,0,0.9,0,1.4,0l0,1.4l-1.3,0l-1.3-0.1c-0.9,0-1.8-0.2-2.7-0.3
	c-0.4,0-0.9-0.1-1.3-0.2l-1.3-0.2l-1.3-0.3c-0.4-0.1-0.9-0.2-1.3-0.3l-0.7,2.6c0.5,0.1,1,0.3,1.5,0.4c0.5,0.1,1,0.3,1.5,0.3
	c1,0.2,2,0.4,3,0.5c2,0.3,4.1,0.4,6.1,0.4l1.4,0l-0.1-4.1c3.8-0.1,7.5-0.7,11.1-1.8l0.4,1.4c-3.4,1-7,1.6-10.5,1.8l0.1,2.7l1.5-0.1
	l0.8-0.1c0.3,0,0.5-0.1,0.8-0.1l1.5-0.2c0.5-0.1,1-0.2,1.5-0.3c1-0.1,2-0.4,3-0.7c0.5-0.1,1-0.3,1.5-0.4c0.5-0.1,1-0.3,1.5-0.4
	l1.3-0.4l-1.4-3.9c1.8-0.7,3.5-1.4,5.2-2.2c0.8-0.4,1.7-0.9,2.5-1.4c0.4-0.3,0.8-0.5,1.2-0.8l0.6-0.4c0.2-0.1,0.4-0.3,0.6-0.4
	l0.8,1.2c-2.9,2.1-6.1,3.7-9.4,5l1,2.5l1.4-0.6c0.5-0.2,0.9-0.4,1.4-0.6l0.7-0.3l0.7-0.4l1.4-0.7l1.3-0.8l0.7-0.4l0.7-0.4
	c0.4-0.3,0.9-0.5,1.3-0.8l1.3-0.9c0.2-0.1,0.4-0.3,0.5-0.4l0.5-0.4l-2.5-3.3L109.6,52.4z M110.2,56.5c-0.2,0.1-0.4,0.3-0.6,0.4
	l-1.2,0.8c-0.4,0.3-0.8,0.5-1.2,0.8c-0.8,0.5-1.6,1-2.5,1.5c-0.2,0.1-0.4,0.2-0.6,0.3l-0.7,0.3l-0.7,0.3c-0.2,0.1-0.4,0.2-0.7,0.3
	c-0.9,0.4-1.7,0.8-2.6,1.2L99,61.1c0.8-0.3,1.7-0.7,2.5-1.1c0.4-0.2,0.8-0.4,1.2-0.6c0.4-0.2,0.8-0.4,1.2-0.6l1.2-0.7l0.6-0.3
	l0.6-0.4l1.2-0.7c0.4-0.3,0.7-0.5,1.1-0.8l-1.6-2.2l-0.6,0.4c-0.2,0.1-0.4,0.3-0.7,0.4l-1.3,0.8c-0.4,0.3-0.9,0.5-1.3,0.8
	c-0.2,0.1-0.4,0.3-0.7,0.4l-0.7,0.4l-0.7,0.4l-0.3,0.2l-0.4,0.1l-1.4,0.6c-0.5,0.2-0.9,0.4-1.4,0.6c-0.3,0.1-0.5,0.2-0.7,0.3
	l-0.7,0.3l1.3,3.9l-0.7,0.2c-0.4,0.1-0.9,0.3-1.4,0.4L94,64.3l-1.4,0.3l-0.7,0.1c-0.2,0-0.5,0.1-0.7,0.1l-1.4,0.3
	c-0.5,0.1-0.9,0.1-1.4,0.2c-0.5,0.1-0.9,0.1-1.4,0.2l-1.4,0.1l-0.1-1.4c3.6-0.3,7.2-0.9,10.6-2l-0.8-2.6c-0.5,0.2-1,0.3-1.5,0.4
	L93,60.3l-0.8,0.2c-0.5,0.1-1,0.3-1.5,0.3l-1.5,0.3l-0.4,0.1l-0.4,0l-0.8,0.1c-0.5,0.1-1,0.1-1.5,0.2l-1.5,0.1l-1.5,0l0.1,4.1h-0.7
	c-3.8,0-7.7-0.5-11.4-1.4l0.4-1.4c3.5,0.9,7.1,1.3,10.8,1.4v-2.7l-1.5,0h-0.4l-0.4,0l-0.8-0.1c-1,0-2-0.2-3-0.3c-2-0.3-4-0.8-6-1.4
	l-1.2,3.9c-0.2-0.1-0.5-0.1-0.7-0.2c-3.7-1.2-7.2-2.8-10.4-4.9l0.8-1.2c3,2,6.4,3.5,9.8,4.6l0.8-2.6c-2-0.6-3.8-1.4-5.6-2.4
	c-0.5-0.3-0.9-0.5-1.4-0.7l-1.3-0.8c-0.4-0.3-0.9-0.5-1.3-0.8c-0.2-0.1-0.4-0.3-0.7-0.4l-0.6-0.4l-2.4,3.4l-0.6-0.4
	c-0.2-0.1-0.4-0.3-0.6-0.4l-0.6-0.4L53,55.2l-1.1-0.9l-0.5-0.5l-0.5-0.5l-1-1l-1-1l-0.5-0.5c-0.2-0.2-0.3-0.4-0.5-0.5l-0.9-1.1
	l1.1-0.9c2.3,2.8,5,5.3,7.9,7.4l1.6-2.2c-1.6-1.2-3.2-2.5-4.7-4s-2.8-3-4.1-4.6l-3.3,2.5c-0.1-0.2-0.3-0.4-0.4-0.6l-0.8-1.2
	c-0.3-0.4-0.5-0.8-0.8-1.2c-0.5-0.8-1-1.6-1.5-2.5c-0.1-0.2-0.2-0.4-0.3-0.6l-0.3-0.7L40.9,40c-0.1-0.2-0.2-0.4-0.3-0.7
	c-0.4-0.9-0.8-1.7-1.2-2.6l1.3-0.5c0.3,0.8,0.7,1.7,1.1,2.5c0.2,0.4,0.4,0.8,0.6,1.2c0.2,0.4,0.4,0.8,0.6,1.2l0.7,1.2l0.3,0.6
	l0.4,0.6l0.7,1.2c0.3,0.4,0.5,0.7,0.8,1.1l2.2-1.6l-0.4-0.6c-0.1-0.2-0.3-0.4-0.4-0.7l-0.8-1.3c-0.3-0.4-0.5-0.9-0.8-1.3
	c-0.1-0.2-0.3-0.4-0.4-0.7L45,38.8l-0.4-0.7l-0.2-0.3l-0.1-0.4L43.7,36c-0.2-0.5-0.4-0.9-0.6-1.4c-0.1-0.3-0.2-0.5-0.3-0.7l-0.3-0.7
	l-3.9,1.3l-0.2-0.7c-0.1-0.4-0.3-0.9-0.4-1.4l-0.4-1.4l-0.3-1.4L37.1,29c0-0.2-0.1-0.5-0.1-0.7l-0.3-1.4c-0.1-0.5-0.1-0.9-0.2-1.4
	c0-0.5-0.1-0.9-0.2-1.4l-0.1-1.4l1.4-0.1c0.3,3.6,0.9,7.2,2,10.6l2.6-0.8c-0.2-0.5-0.3-1-0.4-1.5l-0.2-0.7l-0.2-0.8
	c-0.1-0.5-0.3-1-0.3-1.5l-0.3-1.5l-0.1-0.4l0-0.4l-0.1-0.8c-0.1-0.5-0.1-1-0.2-1.5l-0.1-1.5l0-1.5l-4.1,0.1v-0.7
	c0-3.8,0.5-7.7,1.4-11.4L39,8.6c-0.9,3.5-1.3,7.1-1.4,10.8h2.7l0-1.5v-0.4l0-0.4l0.1-0.8c0-1,0.2-2,0.3-3c0.3-2,0.8-4,1.4-6L38.2,6
	c0.1-0.2,0.1-0.5,0.2-0.7c1.2-3.7,2.8-7.2,4.9-10.4l1.2,0.8c-2,3-3.5,6.4-4.6,9.8l2.6,0.8c0.6-2,1.4-3.8,2.4-5.6
	c0.3-0.4,0.5-0.9,0.7-1.4l0.8-1.3c0.3-0.4,0.5-0.9,0.8-1.3c0.1-0.2,0.3-0.4,0.4-0.7L48-4.6L44.6-7L45-7.6c0.1-0.2,0.3-0.4,0.4-0.6
	l0.4-0.6l0.9-1.1l0.9-1.1l0.5-0.5l0.5-0.5l1-1l1-1l0.5-0.5c0.2-0.2,0.4-0.3,0.5-0.5l1.1-0.9l0.9,1.1c-2.8,2.3-5.3,5-7.4,7.9l2.2,1.6
	c1.2-1.6,2.5-3.2,4-4.7s3-2.8,4.6-4l-2.5-3.3c0.2-0.1,0.4-0.3,0.6-0.4l1.2-0.8c0.4-0.3,0.8-0.5,1.2-0.8c0.8-0.5,1.6-1,2.5-1.5
	c0.2-0.1,0.4-0.2,0.6-0.3l0.7-0.3l0.7-0.3c0.2-0.1,0.4-0.2,0.7-0.3c0.9-0.4,1.7-0.8,2.6-1.2l0.5,1.3c-0.8,0.3-1.7,0.7-2.5,1.1
	c-0.4,0.2-0.8,0.4-1.2,0.6c-0.4,0.2-0.8,0.4-1.2,0.6L59.7-19l-0.6,0.3l-0.6,0.4l-1.2,0.7c-0.4,0.3-0.7,0.5-1.1,0.8l1.6,2.2l0.6-0.4
	c0.2-0.1,0.4-0.3,0.7-0.4l1.3-0.8c0.4-0.3,0.9-0.5,1.3-0.8c0.2-0.1,0.4-0.3,0.7-0.4l0.7-0.4l0.7-0.4l0.3-0.2l0.4-0.1l1.4-0.6
	c0.5-0.2,0.9-0.4,1.4-0.6c0.3-0.1,0.5-0.2,0.7-0.3l0.7-0.3l-1.3-3.9l0.7-0.2c0.4-0.1,0.9-0.3,1.4-0.4l1.4-0.4l1.4-0.3l0.7-0.1
	c0.2,0,0.5-0.1,0.7-0.1l1.4-0.3c0.5-0.1,0.9-0.1,1.4-0.2c0.5,0,0.9-0.1,1.4-0.2l1.4-0.1l0.1,1.4c-3.6,0.3-7.2,0.9-10.6,2l0.8,2.6
	c0.5-0.2,1-0.3,1.5-0.4l0.7-0.2l0.8-0.2c0.5-0.1,1-0.3,1.5-0.3l1.5-0.3l0.4-0.1l0.4,0l0.8-0.1c0.5-0.1,1-0.1,1.5-0.2l1.5-0.1l1.5,0
	l-0.1-4.1h0.7c3.8,0,7.7,0.5,11.4,1.4l-0.4,1.4c-3.5-0.9-7.1-1.3-10.8-1.4v2.7l1.5,0h0.4l0.4,0l0.8,0.1c1,0,2,0.2,3,0.3
	c2,0.3,4,0.8,6,1.4l1.2-3.9c0.2,0.1,0.5,0.1,0.7,0.2c3.7,1.2,7.2,2.8,10.4,4.9l-0.8,1.2c-3-2-6.4-3.5-9.8-4.6l-0.8,2.6
	c2,0.6,3.8,1.4,5.6,2.4c0.4,0.3,0.9,0.5,1.4,0.7l1.3,0.8c0.4,0.3,0.9,0.5,1.3,0.8c0.2,0.1,0.4,0.3,0.7,0.4l0.6,0.4l2.4-3.4l0.6,0.4
	c0.2,0.1,0.4,0.3,0.6,0.4l0.6,0.4l1.1,0.9l1.1,0.9l0.5,0.5l0.5,0.5l1,1l1,1l0.5,0.5c0.2,0.2,0.3,0.4,0.5,0.5l0.9,1.1l-1.1,0.9
	c-2.3-2.8-5-5.3-7.9-7.4l-1.6,2.2c1.6,1.2,3.2,2.5,4.7,4c1.4,1.4,2.8,3,4,4.6l3.3-2.5c0.1,0.2,0.3,0.4,0.4,0.6l0.8,1.2
	c0.3,0.4,0.5,0.8,0.8,1.2c0.5,0.8,1,1.6,1.5,2.5c0.1,0.2,0.2,0.4,0.3,0.6l0.3,0.7l0.3,0.7c0.1,0.2,0.2,0.4,0.3,0.7
	c0.4,0.9,0.8,1.7,1.2,2.6L124,3c-0.3-0.8-0.7-1.7-1.1-2.5c-0.2-0.4-0.4-0.8-0.6-1.2c-0.2-0.4-0.4-0.8-0.6-1.2L121-3.2l-0.3-0.6
	l-0.4-0.6l-0.7-1.2c-0.3-0.4-0.5-0.7-0.8-1.1L116.6-5l0.4,0.6c0.1,0.2,0.3,0.4,0.4,0.7l0.8,1.3c0.3,0.4,0.5,0.9,0.8,1.3
	c0.1,0.2,0.3,0.4,0.4,0.7l0.4,0.7l0.4,0.7l0.2,0.3l0.1,0.4l0.6,1.4c0.2,0.5,0.4,0.9,0.6,1.4c0.1,0.3,0.2,0.5,0.3,0.7l0.3,0.7
	l3.9-1.3l0.2,0.7c0.1,0.4,0.3,0.9,0.4,1.4l0.4,1.4l0.3,1.4l0.1,0.7c0,0.2,0.1,0.5,0.1,0.7l0.3,1.4c0.1,0.5,0.1,0.9,0.2,1.4
	c0.1,0.5,0.1,0.9,0.2,1.4l0.1,1.4l-1.4,0.1c-0.3-3.6-0.9-7.2-2-10.6l-2.6,0.8c0.2,0.5,0.3,1,0.4,1.5l0.2,0.7l0.2,0.8
	c0.1,0.5,0.3,1,0.3,1.5l0.3,1.5l0.1,0.4l0,0.4l0.1,0.8c0.1,0.5,0.1,1,0.2,1.5l0.1,1.5l0,1.5l4.1-0.1v0.7c0,3.8-0.5,7.7-1.4,11.4
	l-1.4-0.4c0.9-3.5,1.3-7.1,1.4-10.8h-2.7l0,1.5v0.4l0,0.4l-0.1,0.8c0,1-0.2,2-0.3,3c-0.3,2-0.8,4-1.4,6l3.9,1.2
	c-0.1,0.2-0.1,0.5-0.2,0.7c-1.2,3.7-2.8,7.2-4.9,10.4l-1.2-0.8c2-3,3.5-6.4,4.6-9.8l-2.6-0.8c-0.6,2-1.4,3.8-2.4,5.6
	c-0.3,0.4-0.5,0.9-0.7,1.4l-0.8,1.3c-0.3,0.4-0.5,0.9-0.8,1.3c-0.1,0.2-0.3,0.4-0.4,0.7l-0.4,0.6l3.4,2.4l-0.4,0.6
	c-0.1,0.2-0.3,0.4-0.4,0.6l-0.4,0.6l-0.9,1.1l-0.9,1.1l-0.5,0.5l-0.5,0.5l-1,1l-1,1l-0.5,0.5c-0.2,0.2-0.4,0.3-0.5,0.5l-1.1,0.9
	l-0.9-1.1c2.8-2.3,5.3-5,7.4-7.9l-2.2-1.6c-1.2,1.6-2.5,3.2-4,4.7c-1.4,1.4-3,2.8-4.6,4.1L110.2,56.5z"/>
</svg>
