<?xml version="1.0" encoding="utf-8"?>
<!-- Generator: Adobe Illustrator 19.0.0, SVG Export Plug-In . SVG Version: 6.00 Build 0)  -->
<svg version="1.1" id="图层_1" xmlns="http://www.w3.org/2000/svg" xmlns:xlink="http://www.w3.org/1999/xlink" x="0px" y="0px"
	 viewBox="-559 384.9 73 73" style="enable-background:new -559 384.9 73 73;" xml:space="preserve">
<style type="text/css">
	.st0{fill:#EAA926;}
</style>
<g>
	<path class="st0" d="M-486.1,429.8c0,0.2,0,0.4-0.1,0.6c-0.1,0.8-0.2,1.6-0.4,2.5c0,0.2-0.1,0.5-0.2,0.7c-0.1,0.3-0.1,0.6-0.2,0.8
		c0,0.1,0,0.1-0.1,0.1c-1.3,5.3-4.1,10.2-8.1,14.3c-1.5,1.5-3.1,2.8-4.9,4c0,0,0,0,0,0c-0.7,0.5-1.4,0.9-2.2,1.3
		c-0.3,0.1-0.5,0.3-0.8,0.4c-0.5,0.3-1.1,0.5-1.6,0.8c-0.3,0.1-0.6,0.3-0.9,0.4h12.7c0.6,0,1.1,0.5,1.1,1.1c0,0.6-0.5,1.1-1.1,1.1
		h-48.1c-0.6,0-1.1-0.5-1.1-1.1c0-0.6,0.5-1.1,1.1-1.1h12.6c-3.8-1.5-7.3-3.8-10.3-6.8c-5.8-5.8-9-13.5-9-21.7
		c0-0.2,0.1-0.3,0.1-0.5l-10.2-10.2c-1.9-1.9-1.9-5,0-6.9c0.9-0.9,2.2-1.4,3.5-1.4c1.3,0,2.5,0.5,3.5,1.4l16.5,16.5h47
		c0.6,0,1.1,0.5,1.1,1.1C-486,428-486.1,428.9-486.1,429.8z M-545.3,428.3c0.6,15.2,13.2,27.4,28.5,27.4c0.9,0,1.8,0,2.7-0.1
		c0.1,0,0.3,0,0.4,0c0.7-0.1,1.5-0.2,2.2-0.3c0.2,0,0.3-0.1,0.5-0.1c0.8-0.2,1.6-0.4,2.4-0.6c0.1,0,0.3-0.1,0.4-0.1
		c0.6-0.2,1.3-0.4,1.9-0.7c0.3-0.1,0.6-0.2,0.9-0.4c0.5-0.2,0.9-0.4,1.3-0.6c0.3-0.2,0.6-0.3,0.9-0.5c0.5-0.3,0.9-0.5,1.4-0.8
		c0.2-0.1,0.4-0.2,0.6-0.4c0,0,0,0,0,0c6-3.9,10.4-10,12.1-17.1c0.1-0.6,0.2-1.1,0.3-1.7c0.1-0.4,0.2-0.7,0.2-1.1c0-0.1,0-0.2,0-0.3
		c0.1-0.8,0.2-1.6,0.2-2.5H-545.3z M-506.1,450.4c-0.2,0.1-0.3,0.1-0.5,0.1c-0.4,0-0.8-0.2-1-0.6c-0.3-0.5-0.1-1.2,0.4-1.5
		c6.4-3.5,11.2-9.1,13.5-15.9c0.2-0.6,0.8-0.9,1.4-0.7c0.6,0.2,0.9,0.8,0.7,1.4C-494,440.5-499.2,446.6-506.1,450.4z M-487.2,404.7
		l-9.6,4.4c-0.1,0.1-0.3,0.1-0.5,0.1c-0.4,0-0.8-0.2-1-0.6c-0.3-0.6,0-1.2,0.5-1.5l9.6-4.4c0.6-0.3,1.2,0,1.5,0.5
		C-486.4,403.8-486.7,404.4-487.2,404.7z M-502.4,400.3c-0.2,0.3-0.6,0.5-0.9,0.5c-0.2,0-0.4-0.1-0.6-0.2c-0.5-0.3-0.6-1-0.3-1.5
		l6.1-8.7c0.3-0.5,1-0.6,1.5-0.3c0.5,0.3,0.6,1,0.3,1.5L-502.4,400.3z M-513.3,397.7c0,0-0.1,0-0.1,0c-0.6-0.1-1.1-0.6-1-1.2l1-10.6
		c0.1-0.6,0.6-1.1,1.2-1c0.6,0.1,1.1,0.6,1,1.2l-1,10.6C-512.2,397.2-512.7,397.7-513.3,397.7z"/>
</g>
</svg>
