<?xml version="1.0" standalone="no"?><!DOCTYPE svg PUBLIC "-//W3C//DTD SVG 1.1//EN" "http://www.w3.org/Graphics/SVG/1.1/DTD/svg11.dtd"><svg class="icon" fill="#999999" width="200px" height="200.00px" viewBox="0 0 1024 1024" version="1.1" xmlns="http://www.w3.org/2000/svg"><path d="M215.8592 0.9216C92.50816 11.63264 0.6144 120.40192 0.6144 244.224v4.4032c0 124.06784 100.06528 224.17408 223.47776 224.17408h211.43552a37.84704 37.84704 0 0 0 37.888-37.888v-198.53312c0-137.5232-117.4528-247.62368-257.55648-235.45856zM786.98496 0c-130.56 0-236.42112 105.84064-236.42112 236.40064v198.53312a37.86752 37.86752 0 0 0 37.888 37.888h198.53312c130.56 0 236.40064-105.86112 236.40064-236.40064C1023.3856 105.84064 917.54496 0 786.98496 0zM0.6144 787.70176C0.67584 918.17984 106.43456 1023.93856 236.91264 1024c131.74784 0.06144 236.50304-111.67744 236.50304-243.42528v-171.78624c0-40.71424-16.896-57.61024-37.82656-57.61024h-191.56992C112.27136 551.19872 0.55296 655.95392 0.6144 787.70176z m778.52672-236.50304h-190.68928a37.888 37.888 0 0 0-37.888 37.888v198.51264C550.58432 918.15936 656.42496 1024 786.98496 1024c132.01408 0 238.77632-108.2368 236.3392-240.82432-2.3552-130.12992-114.01216-231.97696-244.18304-231.97696z m0 0" /></svg>
