<?xml version="1.0" encoding="utf-8"?>
<!-- Generator: Adobe Illustrator 19.0.0, SVG Export Plug-In . SVG Version: 6.00 Build 0)  -->
<svg version="1.1" id="图层_1" xmlns="http://www.w3.org/2000/svg" xmlns:xlink="http://www.w3.org/1999/xlink" x="0px" y="0px"
	 viewBox="-469 338.9 252 165" style="enable-background:new -469 338.9 252 165;" xml:space="preserve">
<style type="text/css">
	.st0{fill:#CF9155;}
</style>
<path class="st0" d="M-443.9,451.7h3.5c0.9,0,1.8,0.9,1.8,1.8c0,0.9-0.6,1.8-1.8,1.8h-3.5v3.5c0,0.9-0.9,1.8-1.8,1.8
	c-0.6,0-0.9-0.3-1.2-0.3c-0.3-0.3-0.6-0.9-0.6-1.2v-3.5h-3.2c-0.9,0-1.8-0.9-1.8-1.8s0.6-1.8,1.8-1.8h3.5v-3.5
	c0-0.9,0.9-1.8,1.8-1.8c0.9,0,1.8,0.6,1.8,1.8v3.2H-443.9z M-222.3,438.2v-3.5c0-0.3-0.3-0.9-0.6-1.2c-0.3-0.3-0.6-0.3-1.2-0.3
	c-0.9,0-1.8,0.9-1.8,1.8v3.5h-3.5c-0.6,0-0.9,0.3-1.2,0.6c-0.3,0.3-0.6,0.9-0.6,1.2c0,0.9,0.9,1.8,1.8,1.8h3.5v2.9
	c0,0.9,0.9,1.8,1.8,1.8c0.9,0,1.8-0.9,1.8-1.8v-3.5h3.5c0.9,0,1.8-0.9,1.8-1.8s-0.9-1.8-1.8-1.8h-3.5V438.2z M-344.2,493.6h-84.4
	c-0.9,0-1.8-0.3-2.3-0.9c-0.6-0.6-0.9-1.5-0.9-2.4c0-1.8,1.5-3.2,3.2-3.2h15.2c-1.2-2.1-1.8-4.4-1.8-6.8v-97.5
	c0-3.5,1.5-7.1,4.1-9.4c2.6-2.4,5.9-3.8,9.4-3.8h10V366c0-3.5,1.5-7.1,4.1-9.4c2.6-2.4,5.9-3.8,9.4-3.8h80.6c3.5,0,7,1.5,9.4,3.8
	c2.6,2.7,4.1,5.9,4.1,9.4v97.5c0,2.4-0.6,4.7-1.8,6.8h18.5c1.8,0,3.2,1.5,3.2,3.2s-1.5,3.2-3.2,3.2h-40.5v3.5c0,2.4-0.6,4.7-1.8,6.8
	h1.8c1.8,0,3.2,1.5,3.2,3.2c0,1.8-1.5,3.2-3.2,3.2h-17.6c1.5,2.7,1.2,5.9-0.9,8.2c-1.2,1.2-2.9,2.1-4.7,2.1c-1.8,0-3.5-0.6-4.7-2.1
	L-344.2,493.6z M-331.9,487.1h10.8c3.8,0,6.7-2.9,6.7-6.8v-97.8c0-3.5-2.9-6.5-6.5-6.5h-81.5c-3.5,0-6.5,2.9-6.5,6.5v97.8
	c0,3.8,2.9,6.8,6.7,6.8h51l-1.8-1.8c-1.8-1.8-2.3-4.1-1.8-6.5l-3.2-3.2c-10,7.4-23.7,5.9-31.7-3.5c-7.9-9.4-7.6-23.3,1.2-32.1
	c8.8-8.8,22.9-9.1,32-1.2c9.1,8,10.8,22.1,3.5,31.8l3.2,3.2c2.3-0.6,4.7,0,6.5,1.8L-331.9,487.1z M-307.9,470.3h10
	c3.8,0,6.7-2.9,6.7-6.8V366c0-3.8-2.9-6.8-6.7-6.8h-80.6c-3.8,0-6.7,2.9-6.7,6.8v3.2h63.9c3.5,0,7,1.5,9.4,3.8
	c2.6,2.7,4.1,5.9,4.1,9.4V470.3z M-426.3,346.6h5c1.5,0,2.6,1.2,2.6,2.7c0,1.5-1.2,2.7-2.6,2.7h-5v4.7c0,1.5-1.2,2.7-2.6,2.7
	c-0.6,0-1.5-0.3-1.8-0.9c-0.3-0.3-0.6-0.9-0.6-1.8v-5h-5c-0.6,0-1.5-0.3-1.8-0.9c-0.6-0.6-0.9-1.2-0.9-1.8c0-1.5,1.2-2.7,2.6-2.7h5
	v-4.7c0-1.5,1.2-2.7,2.6-2.7c1.5,0,2.6,1.2,2.6,2.7v5H-426.3z M-465.6,490.3c0-1.8,1.5-3.2,3.2-3.2h20.2c1.8,0,3.2,1.5,3.2,3.2
	c0,1.8-1.5,3.2-3.2,3.2h-20.2c-0.9,0-1.8-0.3-2.3-0.9C-465.3,492.1-465.6,491.2-465.6,490.3L-465.6,490.3z M-359.8,468.5
	c6.5-6.5,6.5-17.1,0-23.9c-6.5-6.5-17.3-6.5-23.7,0c-6.5,6.5-6.5,17.1,0,23.9C-377.1,475.3-366.5,475.3-359.8,468.5L-359.8,468.5z
	 M-395.3,389.6c0-1.8,1.5-3.2,3.2-3.2h37.2c1.8,0,3.2,1.5,3.2,3.2c0,1.8-1.5,3.2-3.2,3.2H-392c-0.9,0-1.8-0.3-2.3-0.9
	C-395,391.3-395.3,390.5-395.3,389.6L-395.3,389.6z M-395.3,406.4c0-1.8,1.5-3.2,3.2-3.2h53.7c1.8,0,3.2,1.5,3.2,3.2
	c0,1.8-1.2,3.2-2.9,3.2H-392c-0.9,0-1.8-0.3-2.3-0.9C-395,408.1-395.3,407.2-395.3,406.4L-395.3,406.4z M-395.3,423.2
	c0-1.8,1.5-3.2,3.2-3.2h23.5c1.8,0,3.2,1.5,3.2,3.2s-1.5,3.2-3.2,3.2H-392c-0.9,0-1.8-0.3-2.3-0.9C-395,424.9-395.3,424-395.3,423.2
	L-395.3,423.2z M-458.9,402.8c-3.5,0-7-2.1-8.8-5c-1.8-3.2-1.8-7.1,0-10c1.8-2.9,5-5,8.8-5c5.6,0,10,4.4,10,10
	C-448.9,398.4-453.6,402.8-458.9,402.8L-458.9,402.8z M-458.9,397.8c1.8,0,3.5-0.9,4.4-2.7c0.9-1.5,0.9-3.5,0-5
	c-0.9-1.5-2.6-2.7-4.4-2.7c-2.6,0-5,2.4-5,5C-464.2,395.8-461.8,397.8-458.9,397.8L-458.9,397.8z M-250.7,382.8c-3.5,0-7-1.8-8.8-5
	c-1.8-3.2-1.8-7.1,0-10c1.8-2.9,5-5,8.8-5c5.6,0,10,4.4,10,10S-245.1,382.8-250.7,382.8L-250.7,382.8z M-250.7,377.8
	c1.8,0,3.5-0.9,4.4-2.7c0.9-1.5,0.9-3.5,0-5c-0.9-1.5-2.6-2.7-4.4-2.7c-2.6,0-5,2.4-5,5C-256,375.4-253.6,377.8-250.7,377.8
	L-250.7,377.8z"/>
</svg>
