<?xml version="1.0" encoding="utf-8"?>
<!-- Generator: Adobe Illustrator 19.0.0, SVG Export Plug-In . SVG Version: 6.00 Build 0)  -->
<svg version="1.1" id="图层_1" xmlns="http://www.w3.org/2000/svg" xmlns:xlink="http://www.w3.org/1999/xlink" x="0px" y="0px"
	 viewBox="31 -31.7 102.7 102.7" style="enable-background:new 31 -31.7 102.7 102.7;" xml:space="preserve">
<style type="text/css">
	.st0{display:none;fill:#FFFFFF;}
	.st1{display:none;fill:#EA68A2;}
	.st2{fill:#EA68A2;}
	.st3{fill:#50B56B;}
	.st4{fill:#FFFFFF;}
</style>
<title>Group 6</title>
<desc>Created with Sketch.</desc>
<path id="Fill-14" class="st0" d="M-1537.3,1148.9c-0.4-0.3-0.9-0.5-1.3-0.3c-0.4,0.1-0.6,0.3-0.8,0.5l-0.2,0.2
	c-0.1,0.1-0.2,0.2-0.4,0.4l0,0c-0.1,0.1-0.2,0.2-0.4,0.4c-0.5,0.5-0.9,0.9-1.3,1.3c-0.6,0.6-1,1-1.5,1.5c-3.9,3.3-5.5,3.8-8.9,4.9
	l-0.2,0.1c-1.7,0.5-3.4,0.9-5.1,1c-4.2,0.4-8.1,0-11.7-1.3s-7-3.4-10-6.3c-0.3-0.3-0.6-0.6-0.8-0.8c-0.3-0.3-0.6-0.7-1-1
	s-1.4-0.7-2.1,0.1c-1,1,0.1,2.2,0.2,2.4l0.1,0.1c0.4,0.4,0.9,0.9,1.3,1.3c1,1,2,2,3.2,2.9c4,3,8.2,4.9,12.7,5.7
	c4.4,0.8,9.1,0.5,14-0.8c4.7-1.3,8.8-3.8,12.3-7.3c0.6-0.6,1.3-1.4,1.9-2.2l0,0l0,0l0,0c0.1-0.1,0.4-0.4,0.5-0.8l0,0
	C-1536.6,1149.9-1536.8,1149.3-1537.3,1148.9L-1537.3,1148.9z M-1581.4,1106.6c0.4-0.1,0.6-0.3,0.8-0.5l0.2-0.2
	c0.1-0.1,0.2-0.2,0.4-0.4c0.1-0.1,0.2-0.2,0.4-0.4c0.5-0.5,0.9-0.9,1.3-1.3c0.6-0.6,1.1-1.1,1.5-1.5c0.5-0.5,1.2-0.9,1.9-1.1
	c1.4-0.6,2.8,0,3.8,0.6c1.3,0.7,2.8,1.2,4.5,1.4c2.4,0.4,4.4,0.2,6.2-0.6l2.7-1.2l-2.9-0.7c-0.8-0.2-1.4-0.7-2.1-1.3l-0.2-0.2
	c-0.3-0.2-1.7-1.7-4.4-1.6c-5.4,0.9,1-0.8,1-0.8l3-0.4c0.2,0,0.4,0,0.6-0.1c4.2-0.4,8.1,0,11.7,1.3s7,3.4,10,6.3
	c0.2,0.2,0.5,0.5,0.8,0.8s0.6,0.7,1,1c0.3,0.3,1.6,0.5,2.2-0.1c0.5-0.5,0.4-1.2,0.4-1.5c-0.1-0.4-0.3-0.7-0.6-0.9l0,0
	c-0.4-0.4-0.9-0.9-1.3-1.3c-1-1-2-2-3.1-2.9c-4-3-8.2-4.9-12.7-5.7c-4.5-0.8-9.2-0.5-14,0.9c-4.7,1.3-8.8,3.8-12.4,7.3
	c-0.7,0.7-1.4,1.4-1.9,2.1v0.1c-0.1,0.2-0.4,0.4-0.5,0.8c-0.2,0.6,0,1.1,0.5,1.5C-1582.3,1106.6-1581.8,1106.7-1581.4,1106.6z
	 M-1540.8,1111.5c-7.5,3.5-15.3,1.8-24.2,4.2c-7.1,2-13.1,6.9-15.4,20.2c3.9-5.1,8.1-8.7,12.6-11.3c4.3-2.5,8.9-4,14.1-5.2
	c0.6-0.1,0.8,0.7,0.2,0.9c-6.7,2.2-12.5,5-17.4,8.7c-5.4,4-9.6,9.1-12.6,14.9c-0.1,0.2,0,0.5,0.3,0.5h1c0.1,0,0.2-0.1,0.3-0.2
	c7.8-12.8,18.6-4.7,29.5-9c10-4,14.7-12.5,15.9-21.4C-1536.4,1113.2-1536.3,1109.3-1540.8,1111.5z"/>
<path class="st1" d="M-1560,1179c-28.4,0-51.4-23-51.4-51.4s23-51.4,51.4-51.4s51.4,23,51.4,51.4S-1531.6,1179-1560,1179z
	 M-1559.4,1095.2c-18.2,0-32.9,14.8-32.9,32.9s14.7,32.9,32.9,32.9c18.2,0,32.9-14.7,32.9-32.9
	C-1526.5,1110-1541.2,1095.2-1559.4,1095.2z M-1559.4,1156.1c-15.4,0-28-12.5-28-28c0-15.4,12.5-28,28-28c15.4,0,28,12.5,28,28
	C-1531.5,1143.6-1544,1156.1-1559.4,1156.1z M-1559.4,1106.2c-12.1,0-22,9.8-22,22c0,12.1,9.8,22,22,22c12.1,0,22-9.8,22-22
	C-1537.5,1116-1547.3,1106.2-1559.4,1106.2z M-1559.4,1144.7c-9.1,0-16.5-7.4-16.5-16.5s7.4-16.5,16.5-16.5s16.5,7.4,16.5,16.5
	S-1550.3,1144.7-1559.4,1144.7z M-1559.4,1120.8c-4,0-7.3,3.3-7.3,7.3s3.3,7.3,7.3,7.3s7.3-3.3,7.3-7.3
	S-1555.4,1120.8-1559.4,1120.8z"/>
<path id="Fill-10" class="st0" d="M-1547.1,1135.3c-1.2-0.2-2.2,0.5-2.4,1.7c-0.2,1.2,0.5,2.1,1.7,2.4c8.5,1.4,11.2,4.1,11.2,5
	c0,1.9-8.3,6-23.4,6s-23.4-3.8-23.4-6c0-1,2.7-3.6,11-5c1.2-0.2,1.9-1.2,1.7-2.4c-0.2-1.2-1.2-1.9-2.4-1.7c-5.4,1-14.4,3.3-14.4,8.8
	c0,6.7,13.6,10,27.3,10c13.6,0,27.5-3.3,27.7-9.8C-1532.5,1138.6-1541.7,1136.2-1547.1,1135.3 M-1587.1,1115.3
	c0.1,0.1,0.2,0.3,0.3,0.4c0.2,0.2,0.4,0.4,0.5,0.7c0,0.2,0.2,0.3,0.3,0.5c0.1,0.1,0.2,0.3,0.3,0.4c0.1,0.2,0.3,0.5,0.4,0.7
	s0.3,0.4,0.4,0.6c0.2,0.6,0.6,1.1,1.1,1.5c0.3,0.3,0.7,0.5,1,0.8c0.3,0.4,0.7,0.6,1.2,0.8c0.6,0.3,1.2,0.5,1.7,0.8
	c0.6,0.3,1.3,0.5,1.9,0.6c0.7,0.2,1.3,0.6,1.7,1.2c0.3,0.5,0.7,1.1,0.9,1.7c0.2,0.3,0.3,0.7,0.4,1c0.1,0.2,0.1,0.4,0.3,0.6
	c0.3,0.3,0.5,0.6,0.6,1c0,0,0,0.1,0.1,0.1c0.4,0.5,0.9,1.1,1.4,1.6c0.7,0.7,1.4,1.4,2.1,2.1c0.3,0.3,0.5,0.5,0.7,0.8
	c0.6,0.8,1.1,1.5,1.4,2.5c0.2,0.5,0.3,1,0.3,1.4s-0.1,0.9-0.1,1.3c0,0.5-0.1,0.9-0.1,1.4c0,0.8,0.1,1.6,0.2,2.4
	c0,0.5-0.3,0.9-0.7,1.3c-0.3,0.3-0.6,0.5-0.8,0.9c-0.2,0.2-0.2,0.5-0.1,0.8c0.1,0.1,0.1,0.3,0.2,0.4h19c0-0.1,0.1-0.3,0.1-0.4
	c0.1-0.1,0.1-0.3,0.1-0.4c-0.1-0.5-0.5-0.8-0.8-1.1c-0.5-0.4-0.8-0.8-0.8-1.5c0-0.4,0.1-0.8,0.1-1.2c0-0.6,0-1.3,0.1-1.9
	c0-0.8,0-1.7-0.2-2.5c-0.1-0.3-0.1-0.6,0-0.9c0.3-1.4,1.2-2.4,2.3-3.3c0.2-0.2,0.5-0.4,0.7-0.6c0.1-0.1,0.2-0.3,0.4-0.4
	c0.3-0.2,0.5-0.4,0.6-0.7c0.1-0.1,0.1-0.2,0.2-0.3c0.2-0.1,0.3-0.3,0.4-0.5c0-0.1,0.1-0.2,0.2-0.3c0.2-0.2,0.4-0.4,0.6-0.6
	c0.3-0.4,0.5-0.8,0.7-1.2c0.1-0.4,0.3-0.7,0.6-1.1c0.1-0.2,0.2-0.3,0.2-0.5c0.1-0.4,0.2-0.8,0.5-1.1c0.1-0.1,0.1-0.2,0.2-0.3
	c0.1-0.3,0.3-0.5,0.6-0.6c0.1,0,0.1-0.1,0.2-0.2c0.1-0.2,0.2-0.3,0.5-0.4c0.2-0.1,0.5-0.2,0.7-0.2c0.5-0.2,0.9-0.4,1.4-0.5
	c0.4-0.1,0.7-0.2,1-0.4c0.1,0,0.1-0.1,0.2-0.1c0.3-0.1,0.6-0.2,0.9-0.3c0.8-0.4,1.5-0.9,2.1-1.6c0.1-0.1,0.2-0.3,0.4-0.4
	c0.3-0.2,0.6-0.4,0.6-0.7c0-0.1,0.1-0.2,0.2-0.3c0.2-0.3,0.4-0.6,0.5-0.9s0.2-0.5,0.4-0.7c0.3-0.3,0.5-0.6,0.5-0.9
	c0-0.1,0.1-0.2,0.2-0.3l0.4-0.6c0.1-0.1,0.1-0.2,0.1-0.3c0.2-0.3,0.6-0.6,0.7-1c0.1-0.3,0.1-0.5,0.2-0.8c0.2-0.8-0.1-1.4-0.5-2.1
	c-0.2-0.3-0.6-0.7-0.6-1.1c0,0,0-0.1-0.1-0.1c-0.1-0.3-0.3-0.5-0.4-0.8s-0.3-0.7-0.6-0.9c-0.1,0-0.1-0.1-0.2-0.2
	c-0.2-0.3-0.3-0.6-0.6-0.9c-0.3-0.4-0.6-0.7-1-1c-0.5-0.5-1.1-1.1-1.6-1.6c-0.5-0.4-1-0.8-1.6-1.3c-0.3-0.2-0.6-0.4-0.7-0.7
	c0-0.1-0.2-0.2-0.3-0.2c-0.2-0.1-0.4-0.2-0.5-0.4c-0.1-0.1-0.3-0.2-0.4-0.3l-0.5-0.4c-0.1-0.1-0.3-0.3-0.4-0.3c-1-0.3-2-0.2-3,0.1
	c-0.3,0.1-0.7,0.2-1.1,0.3c-0.5,0.1-0.9,0.2-1.4,0.4c-0.2,0.1-0.5,0.2-0.7,0.4c-0.2,0.1-0.3,0.3-0.4,0.4c-0.1,0.3-0.3,0.6-0.3,0.9
	c-0.1,0.6,0,1.1,0.4,1.5c0.6,0.6,1.6,0.8,2.4,0.4c0.5-0.2,0.9-0.5,1.4-0.8s1.1-0.5,1.7-0.3c0.3,0.1,0.7,0.2,0.8,0.6
	c0,0.1,0.2,0.2,0.2,0.2c0.2,0.1,0.3,0.2,0.3,0.4c0,0.1,0,0.2,0.1,0.3c0.8,1.4,1.3,3,1.8,4.5c0.1,0.5,0.2,1,0.2,1.5
	c0,0.6-0.2,1-0.9,1.2c-0.5,0.1-1.1,0.2-1.6,0.3c-0.5,0-0.9,0.2-1.3,0.5s-0.8,0.7-1.2,1c-0.4,0.4-0.9,0.7-1.5,0.8s-1.2,0.1-1.8,0.1
	c-0.5,0-0.9,0.2-1.3,0.5c-0.1,0.1-0.3,0.2-0.4,0.3c-0.2,0.1-0.5,0.2-0.6,0.4c0,0.1-0.1,0.1-0.2,0.2c-0.3,0.1-0.4,0.3-0.6,0.5
	c-0.3,0.3-0.6,0.6-0.9,1c-0.2,0.3-0.5,0.4-0.8,0.6c-0.5,0.3-1.1,0.3-1.6,0s-0.9-0.8-1.4-1.2c-0.5-0.5-0.7-1.2-0.7-1.9
	c0-0.5,0.2-0.9,0.4-1.3c0.2-0.3,0.4-0.5,0.5-0.8c0.5-0.8,0.5-1.5,0.2-2.4c-0.2-0.6-0.4-1.2-0.3-1.9c0-0.4,0.1-0.8,0.1-1.2
	c0-0.5-0.1-1.1-0.5-1.4c-0.5-0.5-1.2-0.8-1.9-1.1c-0.6-0.2-1.3-0.4-1.9-0.5c-0.7-0.1-1.4-0.2-2.1,0c-0.9,0.3-1.7,0.5-2.2,1.3
	c-0.4,0.6-0.6,1.3-0.5,2c0.1,0.4,0.2,0.7,0.1,1.1c0,0.5-0.2,1-0.3,1.5c-0.1,0.6-0.3,1.2-0.1,1.9c0.1,0.3,0.3,0.6,0.4,0.9
	c0.3,0.5,0.5,1.1,0.5,1.7c0.1,0.7,0,1.4-0.3,2c-0.2,0.4-0.5,0.6-0.8,0.9c-0.4,0.3-0.7,0.6-1.2,0.7c-0.3,0.1-0.7,0.1-1-0.2
	c-0.1-0.1-0.2-0.2-0.3-0.2c-0.4-0.1-0.7-0.4-0.9-0.7c-0.4-0.6-1-1.1-1.6-1.5c-0.4-0.3-0.9-0.4-1.4-0.7c-0.3-0.2-0.8-0.2-1.3-0.2
	c-0.6,0-1.3-0.1-1.9-0.4c-0.4-0.2-0.9-0.4-1.1-0.9c-0.1-0.1-0.2-0.2-0.3-0.3c-0.2-0.1-0.4-0.2-0.6-0.3c-0.1-0.1-0.2-0.2-0.4-0.3
	c-0.6-0.2-1.2-0.4-1.8-0.4c-0.5,0-0.8-0.1-1.2-0.5c-0.1-0.1-0.2-0.2-0.2-0.3c0-0.4-0.1-0.9,0-1.3c0.2-0.9,0.6-1.7,0.9-2.6
	c0.1-0.4,0.3-0.8,0.4-1.2c0.1-0.6,0.3-1.2,0.6-1.7c0.2-0.4,0.5-0.8,1-1.1c0.6-0.3,1.3-0.3,1.9,0c0.4,0.2,0.9,0.5,1.3,0.7
	c0.3,0.1,0.6,0.2,0.9,0.1c0.6-0.1,1.1-0.4,1.4-0.8s0.6-0.9,0.5-1.4c-0.2-0.9-0.8-1.4-1.6-1.7c-0.5-0.2-1.1-0.3-1.7-0.4
	c-0.8-0.2-1.7-0.3-2.5-0.3c-0.3,0-0.6,0.1-0.8,0.2c-0.3,0.1-0.5,0.3-0.8,0.4c-0.4,0.2-0.8,0.4-1,0.8c-0.2,0.3-0.5,0.6-0.7,0.9
	c-0.5,0.6-1.1,1.1-1.6,1.6c-0.4,0.4-0.7,0.8-1.1,1.2c-0.2,0.2-0.4,0.4-0.6,0.6c-0.2,0.1-0.3,0.3-0.4,0.4c-0.1,0.2-0.2,0.4-0.4,0.6
	c-0.2,0.3-0.5,0.6-0.5,1c0,0.1-0.1,0.2-0.2,0.3c-0.4,0.2-0.5,0.6-0.6,0.9c-0.3,0.6-0.5,1.3-0.9,1.8c-0.1,0.1-0.2,0.3-0.3,0.5
	c-0.2,0.4-0.3,0.8-0.4,1.2c-0.1,0.5-0.2,1,0.3,1.4C-1587.1,1115.2-1587.1,1115.2-1587.1,1115.3"/>
<path id="Fill-6" class="st0" d="M-1568.5,1125.4c-0.1,0.2-0.1,0.5-0.1,0.8l16.7,4.6c0.1-0.2,0.2-0.4,0.3-0.7c0.1-0.3,0.1-0.6,0-1
	l-16.5-4.5C-1568.3,1124.8-1568.4,1125.1-1568.5,1125.4z M-1561.2,1122.2l-3.6,0.8l11.2,3.1l-2.7-2.5L-1561.2,1122.2z M-1558.8,1133
	l3.6-0.8l-11.2-3.1l2.7,2.5L-1558.8,1133z M-1543.4,1107.4c-0.5,1.9-2,3.2-3.8,3.7l-20.3,4.4c-8.4,1.7-11.7,12.4-5,18.6l1.7,1.6
	l6.7-1.5l-4.7-4.4c-3.4-3.1-1.8-7.8,2.5-8.8l20.3-4.4c3.9-0.9,7-3.7,8.1-7.7C-1537.2,1105.3-1542.5,1103.8-1543.4,1107.4z
	 M-1564.9,1112.6l6.7-1.5l-4.7-4.4c-1.4-1.3-2.1-3.2-1.5-5.1c0.9-3.6-4.4-5.1-5.3-1.5c-1,4,0.2,8.1,3.2,10.8L-1564.9,1112.6z
	 M-1549.1,1119.5l-6.7,1.4l4.6,4.2c3,3.2,2.5,7.7-2.2,8.9l-20.5,4.5c-3.9,0.9-7,3.7-8.1,7.7c-0.9,3.6,4.4,5.1,5.3,1.5
	c0.5-1.9,2-3.2,3.8-3.7l20.5-4.5c8.9-2,11.2-12.6,4.7-18.7L-1549.1,1119.5z M-1555.1,1142.6l-6.7,1.4l4.7,4.4c1.4,1.3,2,3.2,1.5,5.1
	c-0.9,3.6,4.4,5.1,5.3,1.5c1-4-0.2-8.1-3.2-10.8L-1555.1,1142.6z"/>
<path id="Fill-8" class="st0" d="M-1572.9,1120.1c0-0.8,0.4-1.2,1.2-1.2h6.8v-6.8c0-0.4,0.2-0.9,0.6-1.1c0.2-0.1,0.4-0.1,0.6-0.1
	h3.2c0.9,0,1.3,0.4,1.3,1.3v6.8h6.8c0.4,0,0.9,0.1,1.1,0.4c0.1,0.2,0.2,0.4,0.2,0.6v3.6c-0.1,0.5-0.5,1-1.1,1h-6.8
	c-0.2,0-0.2,0-0.2,0.2v5.9c0,0.6-0.2,1.2-0.6,1.6c-0.1,0.1-0.3,0.2-0.5,0.2h-3.4c-0.8,0-1.2-0.4-1.2-1.2v-6.6h-6.6
	c-0.4,0-0.9-0.1-1.1-0.4c-0.1-0.2-0.2-0.4-0.2-0.8L-1572.9,1120.1L-1572.9,1120.1z M-1541.1,1108.1c-0.9,0-1.6,0.6-1.6,1.6v36.7
	c0,1.6-1.6,3.2-3.2,3.2h-27.8c-1.9,0-4.1-1.6-4.1-3.2v-3.5c0-1.6,1.9-2.5,3.8-2.5h26.5c0.9,0,1.6-0.6,1.6-1.6v-31
	c0-3.5-2.5-5.7-6.3-5.7h-21.4c-3.5,0-6.9,1.9-6.9,5.7v39.9c0.3,2.9,3.2,5.1,6,5.4h28.7c3.5,0,6.3-2.9,6.3-6v-37.4
	C-1539.5,1109.1-1540.1,1108.1-1541.1,1108.1z M-1547.1,1143.6h-25.9c-0.9,0-1.6,0.6-1.6,1.6c0,0.9,0.6,1.6,1.6,1.6h25.9
	c0.9,0,1.6-0.6,1.6-1.6S-1546.1,1143.6-1547.1,1143.6z"/>
<path class="st0" d="M-1563.8,1126.7c0-1.3-0.3-2.5-0.7-3.6l15-8.4c1.5,1.7,3.6,2.7,5.9,2.7c4.4,0,8-3.5,8-7.9s-3.6-7.9-8-7.9
	s-8,3.5-8,7.9c0,0.6,0.1,1.3,0.3,2l-15.2,8.4c-1.9-2-4.6-3.4-7.7-3.4c-5.7,0-10.4,4.5-10.4,10.2s4.6,10.2,10.4,10.2
	c2.5,0,4.7-0.8,6.5-2.2l16.4,9.2c-0.2,0.7-0.3,1.2-0.3,1.9c0,4.4,3.6,7.9,8,7.9s8-3.5,8-7.9s-3.6-7.9-8-7.9c-2.4,0-4.5,1-6,2.7
	l-15.6-8.8C-1564.2,1130.2-1563.8,1128.5-1563.8,1126.7z"/>
<path id="Fill-10_1_" class="st0" d="M-1573.4,1126.5L-1573.4,1126.5L-1573.4,1126.5L-1573.4,1126.5z M-1560.3,1110.5
	C-1560.3,1110.5-1560.3,1110.6-1560.3,1110.5L-1560.3,1110.5L-1560.3,1110.5z M-1551.5,1114.1L-1551.5,1114.1L-1551.5,1114.1
	L-1551.5,1114.1z M-1533.5,1131c-0.1,0-0.1,0-0.2,0c-0.4,0-0.8-0.2-1.2-0.4c-0.1-0.1-0.3-0.1-0.4-0.1s-0.1,0-0.2,0
	c-0.5-0.1-1.1-0.1-1.6-0.1c0.4-0.2,0.6-0.6,0.7-0.9c0,0,0,0,0-0.1c-0.4,0.2-0.8,0-1.2,0c-0.1,0-0.2,0-0.2,0c-0.3,0-0.6,0-0.9,0.2
	c0.2-0.2,0.2-0.5,0.3-0.8c0-0.1,0-0.1,0.1-0.2c0,0,0,0,0-0.1c-0.5,0-0.9-0.1-1.3-0.1c-0.1,0-0.1,0-0.2,0s-0.2,0-0.3,0
	c-0.1,0-0.2,0-0.2,0.1c-0.2,0.1-0.4,0.1-0.6,0.3c0,0-0.1,0-0.1,0.1c-0.1,0-0.2,0.1-0.2,0.1c0.1-0.1,0.1-0.1,0.2-0.2
	c0,0,0-0.1,0.1-0.1c0.1-0.2,0.1-0.4,0.2-0.5c-0.1,0-0.2,0-0.4,0c-0.1,0-0.1,0-0.2,0c-0.3,0-0.6,0-0.9,0c-0.1,0-0.1,0-0.2,0
	c-0.3,0.1-0.5,0.1-0.8,0.3c0.1-0.2,0.1-0.5,0.2-0.7c-0.3,0.1-0.6,0.2-0.8,0.2c-0.1,0-0.1,0-0.2,0s-0.1,0-0.2,0
	c-0.5,0.1-0.9,0.3-1.2,0.7c0.1-0.3,0.1-0.6,0-0.9c-0.2,0.1-0.4,0.2-0.6,0.3c-0.1,0-0.1,0.1-0.2,0.1c-0.6,0.2-1.1,0.7-1.4,1.2
	c0.1-0.3,0-0.5,0-0.8c-0.3,0.2-0.7,0.3-1.1,0.5c-0.1,0-0.1,0.1-0.2,0.1s-0.1,0.1-0.2,0.1c-0.1,0.1-0.2,0.1-0.3,0.2
	c-0.1,0.1-0.2,0.1-0.3,0.2c-1,0.8-1.9,1.7-3.2,2.1c-0.1,0-0.3,0.1-0.4,0.1s-0.2,0-0.3,0s-0.2,0-0.3,0c-0.2,0-0.4,0-0.5-0.1
	c0,0-0.3-0.1-0.6-0.2c0,0,0,0-0.1,0c-0.2-0.1-0.4-0.2-0.6-0.3c0.2-0.3,0.4-0.6,0.6-0.9c0,0,0,0,0.1-0.1c0.2-0.1,0.3-0.3,0.5-0.4
	l0.1-0.1c0.1-0.1,0.2-0.2,0.3-0.3c0.2-0.1,0.4-0.3,0.7-0.4l0,0c0.1-0.1,0.2-0.2,0.4-0.2c0.4-0.2,0.7-0.4,1.1-0.5
	c0.2-0.1,0.5-0.2,0.7-0.2c0.2-0.1,0.5-0.2,0.7-0.2c0.7-0.2,1.4-0.4,2.2-0.7c0.8-0.3,1.5-0.6,2.2-1c0.2-0.1,0.4-0.2,0.6-0.4
	c0.1-0.1,0.3-0.2,0.4-0.3s0.3-0.2,0.4-0.3s0.2-0.1,0.2-0.2c0.3-0.3,0.7-0.6,1.2-0.6c-0.3-0.2-0.7-0.3-1-0.5c0.5,0,1-0.2,1.4-0.5
	c0.1,0,0.1-0.1,0.2-0.2c0.1,0,0.1-0.1,0.2-0.1s0.1-0.1,0.2-0.1c0.1-0.1,0.1-0.1,0.2-0.2s0.1-0.1,0.2-0.2c0.3-0.3,0.7-0.4,1-0.4
	c-0.3-0.2-0.6-0.4-1-0.4c-0.1,0-0.1,0-0.2,0c0.1,0,0.2,0,0.2-0.1s0.2,0,0.2-0.1c0.2-0.1,0.4-0.2,0.6-0.4c0.1-0.1,0.1-0.1,0.2-0.2
	c0-0.1,0.1-0.1,0.1-0.2c0.1-0.1,0.1-0.1,0.2-0.2c0.2-0.3,0.3-0.6,0.5-0.9c0.1-0.1,0.1-0.2,0.2-0.3c-0.2,0-0.4-0.1-0.5-0.1
	s-0.2-0.1-0.3-0.1c0.1,0,0.1-0.1,0.2-0.1c0.1-0.1,0.2-0.2,0.2-0.2c0.1-0.1,0.1-0.2,0.2-0.3c0-0.1,0.1-0.1,0.1-0.2s0.1-0.1,0.1-0.2
	c0.1-0.3,0.2-0.6,0.4-0.8c-0.2,0-0.4-0.1-0.6-0.1c-0.1,0-0.1,0-0.2,0s-0.2,0-0.4,0c0.1,0,0.1-0.1,0.2-0.1s0.1-0.1,0.2-0.1
	c0,0,0.1,0,0.1-0.1c0.1-0.1,0.2-0.3,0.3-0.4c0,0,0-0.1,0.1-0.1v-0.1c0-0.1,0.1-0.1,0.1-0.2c0.1-0.2,0.2-0.5,0.2-0.7
	c0,0,0-0.1,0.1-0.1c0-0.1,0.1-0.2,0.2-0.3c-0.3,0-0.5,0.1-0.8,0.1h-0.1l0.1-0.1c0.1-0.1,0.2-0.3,0.3-0.4c0-0.1,0.1-0.1,0.1-0.2
	c0.1-0.2,0.2-0.5,0.2-0.7c0-0.1,0-0.1,0-0.2s0-0.1,0-0.2s0-0.1,0-0.2s0-0.1,0-0.2s0-0.1,0-0.2c0-0.2,0.1-0.5,0.2-0.7
	c-0.2,0-0.4,0.1-0.6,0.2c-0.1,0-0.1,0-0.2,0s-0.2,0.1-0.2,0.1c0-0.1,0.1-0.1,0.1-0.2s0.1-0.1,0.1-0.2s0-0.1,0.1-0.2
	c0-0.1,0-0.1,0-0.2s0-0.2,0.1-0.3c0-0.1,0-0.2,0-0.3s0-0.2,0-0.2c0-0.1,0-0.2,0-0.2c0-0.4,0.1-0.8,0.3-1.2c-0.2,0-0.4,0-0.6,0.1
	c-0.2,0-0.4,0.1-0.6,0.2c0.3-0.4,0.4-0.9,0.5-1.5c0.1-1-0.2-2.1,0.3-3.1c0.1-0.2,0.3-0.3,0.5-0.3c-0.1,0-0.2,0-0.3,0l0,0h-0.1
	c-0.1,0-0.3,0-0.4,0c-1.9,0.2-4,1-4.9,2.8c0-0.3-0.2-0.6-0.4-0.9c-0.2,0.4-0.5,0.7-0.8,1c-0.1,0.1-0.3,0.2-0.4,0.3
	c-0.4,0.3-0.7,0.7-0.8,1.2c-0.2-0.2-0.3-0.5-0.4-0.8c-0.1,0.2-0.1,0.4-0.2,0.5c-0.3,0.5-0.8,0.9-0.8,1.5c-0.1-0.3-0.4-0.5-0.6-0.8
	c-0.1,0.4-0.3,0.6-0.5,0.9c-0.2,0.4-0.3,0.8-0.4,1.3c-0.1-0.1-0.1-0.2-0.2-0.3s-0.1-0.2-0.2-0.3c0,0.1-0.1,0.1-0.1,0.2
	c-0.2,0.2-0.3,0.4-0.4,0.6c0,0.1-0.1,0.1-0.1,0.2c-0.1,0.2-0.1,0.4-0.1,0.6c0,0.1,0,0.2,0.1,0.3c0,0.1,0,0.1,0.1,0.2l0,0l0,0
	c0,0,0-0.1-0.1-0.1c0-0.1-0.1-0.1-0.1-0.2s-0.1-0.1-0.2-0.1c-0.2-0.2-0.4-0.4-0.6-0.6c0.2,0.5,0,1-0.3,1.4c0,0.1-0.1,0.2-0.1,0.2
	c0,0.1-0.1,0.2-0.1,0.2c0,0.1,0,0.1,0,0.2c0,0.2,0,0.4,0,0.7c-0.1-0.2-0.4-0.3-0.6-0.4c0,0.2-0.1,0.5-0.2,0.7c0,0.1,0,0.2-0.1,0.2
	c0,0.1-0.1,0.2-0.1,0.3s-0.1,0.2-0.1,0.3s0,0.2,0,0.3c0,0.3,0,0.6,0.2,0.9c0,0.1,0.1,0.2,0.2,0.3c-0.1-0.2-0.3-0.3-0.4-0.3l0,0l0,0
	l0,0l0,0c-0.2-0.1-0.3-0.1-0.5-0.2c0,0,0.1,0.1,0.1,0.2s0,0.2,0,0.2c-0.1,0.4-0.2,0.8-0.2,1.1c0,0.1,0,0.2,0,0.3
	c-0.1,1.1,0.3,2.1,0.5,3.1c0,0.1,0,0.2,0.1,0.3c0,0.2,0.1,0.4,0.1,0.6c0.1,0.3,0.1,0.5,0.1,0.8s0.1,0.5,0.1,0.8c0,0.1,0,0.2,0,0.3
	c0.1,0.6,0,1.1-0.1,1.7c-0.1,0.3-0.1,0.6-0.2,0.8c-0.1,0.3-0.2,0.5-0.3,0.8c0,0.1-0.1,0.1-0.1,0.2c-0.4,0.8-0.9,1.4-1.5,2
	c-0.4-0.6-0.7-1.3-1.2-1.9c-0.1-0.1-0.2-0.3-0.2-0.4c-0.3-0.8-0.5-1.6-0.4-2.4c0-0.4,0-0.8,0.1-1.2c0-0.4,0.1-0.8,0.2-1.2
	c0-0.1,0-0.2,0-0.3c0-0.3,0.1-0.5,0.1-0.8c0-0.1,0-0.3,0.1-0.4c0.4-1.8,1-3.7,1-5.6c0-0.1,0-0.3,0-0.4c0-0.3,0-0.6-0.1-0.9
	c0-0.1,0-0.3-0.1-0.4c0-0.1,0-0.2,0-0.2c-0.3,0.1-0.5,0.3-0.7,0.5l-0.1,0.1l0,0c0-0.1,0-0.1,0.1-0.2c0-0.1,0-0.1,0.1-0.2
	c0-0.1,0-0.1,0.1-0.2c0.1-0.3,0.1-0.6,0.1-1v-0.1c0-0.1,0-0.2,0-0.4c-0.1-0.5-0.3-0.9-0.4-1.4c0-0.1,0-0.1,0-0.2
	c-0.3,0.2-0.6,0.3-0.7,0.5c0.1-0.4,0.1-0.8,0-1.2c0-0.1-0.1-0.2-0.1-0.3s-0.1-0.2-0.1-0.3s-0.1-0.1-0.1-0.2
	c-0.1-0.2-0.3-0.4-0.4-0.6c-0.1-0.1-0.1-0.2-0.2-0.3s-0.2-0.2-0.2-0.4c-0.1,0.2-0.2,0.4-0.4,0.6c-0.1,0.1-0.2,0.3-0.3,0.4l0,0l0,0
	c0-0.1,0-0.1,0-0.2l0,0l0,0c0-0.1,0-0.2,0-0.3s0-0.2,0-0.3s0-0.2,0-0.2c0-0.2-0.1-0.3-0.2-0.5c0-0.1-0.1-0.2-0.1-0.2
	c-0.2-0.3-0.4-0.6-0.5-0.9c-0.1,0.2-0.3,0.4-0.4,0.6c0,0.1-0.1,0.1-0.1,0.2c0-0.1,0-0.2-0.1-0.3c0-0.5-0.2-1-0.5-1.5
	c0-0.1-0.1-0.1-0.1-0.2c-0.2-0.3-0.4-0.5-0.5-0.9c-0.2,0.2-0.3,0.4-0.4,0.6l-0.1,0.1c0,0.1-0.1,0.1-0.1,0.2c0,0,0,0.1-0.1,0.1l0,0
	l0,0c0-0.1,0-0.3-0.1-0.4c0,0,0-0.1-0.1-0.1c-0.1-0.1-0.2-0.3-0.3-0.4l-0.1-0.1l-0.1-0.1c0-0.1-0.1-0.1-0.1-0.2c0,0-0.1-0.1-0.2-0.1
	c-0.3-0.2-0.5-0.6-0.6-0.9c-0.2,0.3-0.3,0.7-0.5,1c0-0.5-0.4-0.8-0.7-1.1l-0.1-0.1l-0.1-0.1l-0.1-0.1c0,0-0.1-0.1-0.2-0.1
	c-0.4-0.5-1.1-0.8-1.3-1.5c-0.1,0.2-0.3,0.4-0.4,0.7c0,0.1-0.1,0.2-0.1,0.3c0,0,0,0.1,0,0.2l0,0l0,0c0,0,0,0,0,0.1
	c-0.2-0.5-0.6-1-1.1-1.3c-0.1-0.1-0.2-0.2-0.3-0.3c-0.6-0.4-1.3-0.7-1.9-1c-0.2-0.1-0.4-0.2-0.6-0.3c-0.4-0.2-0.7-0.4-1.1-0.6
	c-0.2-0.1-0.3-0.2-0.4-0.4c-0.1-0.1-0.2-0.3-0.4-0.4c-0.1-0.1-0.2-0.2-0.3-0.4c0.1,0.2,0.1,0.3,0.2,0.5c0.1,0.3,0.2,0.7,0.2,1
	c0,0.2,0,0.3,0,0.5s0,0.3,0,0.5c-0.1,1.5-0.6,3.2,0.3,4.7c-0.1,0-0.1-0.1-0.2-0.1s-0.1-0.1-0.2-0.1c-0.3-0.1-0.6-0.1-1-0.1
	c0.2,0.3,0.3,0.6,0.3,0.9c0,0.1,0,0.2,0,0.2c0,0.1,0,0.2,0,0.2c0,0.1,0,0.2,0,0.3s0,0.2,0,0.3s0,0.2,0.1,0.4c0,0.1,0.1,0.2,0.1,0.4
	c0,0.1,0,0.1,0.1,0.2c0,0.1,0.1,0.1,0.1,0.2s0.1,0.1,0.1,0.2s0.1,0.1,0.1,0.2c-0.1,0-0.2-0.1-0.3-0.1s-0.2,0-0.2,0
	c-0.3-0.1-0.5-0.1-0.8-0.2c0.2,0.2,0.3,0.5,0.3,0.9c0,0.1,0,0.2,0,0.2c0,0.1,0,0.2,0,0.2c0,0.1,0,0.1,0,0.2s0,0.1,0,0.2
	s0,0.2,0.1,0.2c0.1,0.3,0.2,0.6,0.3,0.9c0,0.1,0.1,0.1,0.1,0.2c0.1,0.2,0.2,0.4,0.4,0.5l0.1,0.1c-0.1,0-0.1,0-0.2,0
	c-0.3,0-0.7-0.1-1-0.1c0.1,0.1,0.2,0.2,0.2,0.3s0.1,0.1,0.1,0.2c0.1,0.3,0.2,0.6,0.3,0.8c0,0.1,0.1,0.2,0.1,0.3c0,0,0,0.1,0.1,0.1
	c0,0,0,0.1,0.1,0.1c0.1,0.2,0.2,0.4,0.4,0.5c0,0,0.1,0.1,0.2,0.1s0.2,0.1,0.2,0.1c0.1,0,0.2,0.1,0.3,0.1c-0.1,0-0.3,0-0.4,0
	s-0.1,0-0.2,0c-0.2,0-0.5,0.1-0.7,0.1c0.3,0.3,0.4,0.7,0.6,1c0,0.1,0.1,0.1,0.1,0.2s0.1,0.1,0.1,0.2c0.1,0.1,0.2,0.2,0.2,0.3
	c0.1,0.1,0.2,0.2,0.3,0.3c0.1,0,0.1,0.1,0.2,0.2c-0.1,0-0.3,0.1-0.4,0.1c-0.2,0.1-0.4,0.2-0.7,0.2c0.1,0.1,0.2,0.3,0.3,0.4
	c0.2,0.4,0.4,0.7,0.6,1c0.1,0.1,0.1,0.2,0.2,0.3s0.3,0.3,0.4,0.4s0.1,0.1,0.2,0.2s0.2,0.1,0.3,0.2c0.1,0.1,0.2,0.1,0.3,0.1
	c0.2,0.1,0.4,0.1,0.6,0.2c-0.3,0.1-0.6,0.2-0.9,0.4c0.1,0,0.3,0.1,0.4,0.2c0.9,1.1,2.1,1.8,3.6,1.9c-0.3,0.2-0.6,0.3-0.9,0.4
	c0.2,0,0.3,0.1,0.4,0.2s0.2,0.1,0.3,0.2c0.3,0.2,0.6,0.4,0.9,0.6c0.1,0,0.2,0.1,0.3,0.1c0.2,0.1,0.3,0.1,0.5,0.2s0.5,0.2,0.7,0.2
	c0.2,0.1,0.5,0.1,0.7,0.2c1.3,0.3,2.5,0.7,3.8,1.1c0.1,0,0.2,0.1,0.4,0.1c0.1,0,0.2,0.1,0.3,0.1c0.1,0.1,0.3,0.1,0.4,0.2
	c1.1,0.5,2.2,1.2,2.9,2.2c0.1,0.1,0.1,0.2,0.2,0.4c0.2,0.5,0.5,1,0.7,1.5c-0.4,0.1-0.9,0.2-1.3,0.2c-0.1,0-0.3,0-0.4,0
	c-0.2,0-0.4,0-0.7-0.1c-0.3,0-0.6-0.1-0.9-0.1c-0.3-0.1-0.6-0.1-0.8-0.2c-0.6-0.2-1.1-0.4-1.5-0.8c-0.1,0-0.2-0.1-0.2-0.1
	c-0.2-0.1-0.4-0.3-0.7-0.5c-0.2-0.2-0.4-0.3-0.6-0.5c-0.1-0.1-0.3-0.3-0.4-0.4s-0.1-0.1-0.2-0.2c-0.8-0.7-1.5-1.5-2.4-2
	c-0.1,0-0.2-0.1-0.3-0.1c-0.4-0.2-0.7-0.3-1.1-0.4c-0.1,0-0.2-0.1-0.2-0.1c-0.1,0-0.1-0.1-0.1-0.1c0,0.2,0,0.4,0,0.5l0,0l0,0l0,0
	l0,0c0,0.2,0,0.4,0.1,0.5c0-0.1-0.1-0.2-0.2-0.3c-0.2-0.3-0.4-0.5-0.7-0.6c-0.1,0-0.2-0.1-0.3-0.1c-0.1,0-0.2-0.1-0.3-0.1
	s-0.2,0-0.3-0.1c-0.1,0-0.2,0-0.2-0.1c-0.2-0.1-0.5-0.1-0.7-0.2c0,0.2-0.1,0.5,0,0.7c-0.2-0.2-0.4-0.3-0.6-0.4
	c-0.1,0-0.1-0.1-0.2-0.1s-0.2,0-0.2-0.1c-0.1,0-0.2,0-0.2,0c-0.5,0-1.1-0.1-1.4-0.5c0.1,0.3,0.1,0.5,0.2,0.8c0,0.1,0,0.1,0,0.2
	s0,0.1,0.1,0.2c0,0,0,0.1,0.1,0.1l0,0l0,0l-0.1-0.1c-0.1-0.1-0.2-0.2-0.3-0.2c-0.1-0.1-0.3-0.2-0.5-0.2c-0.1,0-0.2,0-0.2,0
	c-0.2,0-0.5,0-0.7,0.1c-0.1,0-0.1,0-0.2,0c0.1,0.1,0.1,0.2,0.1,0.3s0.1,0.2,0.1,0.3c-0.4-0.2-0.8-0.3-1.3-0.3c-0.4,0-0.7,0.1-1.1,0
	c0.1,0.3,0.2,0.6,0.4,0.9c-0.5-0.3-1.1-0.1-1.7,0c-0.2,0-0.4,0-0.6-0.1c0.2,0.2,0.3,0.5,0.4,0.7c-0.5-0.2-1-0.1-1.4,0
	c-0.2,0-0.3,0.1-0.5,0.1c-0.4,0.1-0.8,0.3-1.2,0.2c0.2,0.3,0.3,0.6,0.6,0.8c-2-0.1-3.8,1.3-4.9,2.8c-0.1,0.1-0.2,0.2-0.3,0.4
	c0,0,0,0.1-0.1,0.1l0,0c-0.1,0.1-0.1,0.2-0.2,0.3c0.1-0.1,0.1-0.1,0.2-0.2l0,0c0.1,0,0.2-0.1,0.3-0.1c1,0,1.8,0.9,2.8,1.3
	c0.5,0.2,1,0.4,1.5,0.3c-0.2,0.1-0.3,0.2-0.5,0.4c-0.1,0.1-0.3,0.3-0.3,0.5c0.4-0.1,0.8,0.1,1.2,0.3c0.1,0,0.1,0.1,0.2,0.1
	s0.1,0.1,0.2,0.1s0.2,0.1,0.3,0.1s0.2,0.1,0.3,0.1c0.1,0,0.1,0,0.2,0.1c0.1,0,0.1,0,0.2,0s0.1,0,0.2,0s0.1,0,0.2,0
	c-0.1,0-0.1,0.1-0.2,0.2l-0.1,0.1c-0.2,0.1-0.3,0.3-0.5,0.5c0.2,0,0.5,0.1,0.7,0.2c0.1,0,0.1,0.1,0.2,0.1s0.1,0.1,0.2,0.1
	s0.1,0.1,0.2,0.1s0.1,0.1,0.2,0.1s0.1,0,0.2,0.1c0.2,0.1,0.5,0.1,0.7,0.2c0.1,0,0.1,0,0.2,0c0.2,0,0.4,0,0.5,0h0.1l-0.1,0.1
	c-0.2,0.2-0.4,0.4-0.5,0.6c0.1,0,0.2,0,0.3,0c0.1,0,0.1,0,0.2,0c0.2,0.1,0.5,0.1,0.7,0.2c0.1,0,0.2,0,0.2,0h0.1h0.1
	c0.2,0,0.4,0,0.5-0.1c0,0,0.1,0,0.1-0.1c0.1,0,0.1-0.1,0.2-0.1s0.1-0.1,0.2-0.1c-0.1,0.1-0.2,0.2-0.2,0.3s-0.1,0.1-0.1,0.2
	c-0.1,0.2-0.1,0.4-0.2,0.5c0.3-0.1,0.6,0,1,0c0.1,0,0.1,0,0.2,0s0.1,0,0.2,0s0.2,0,0.3,0c0.1,0,0.2,0,0.3-0.1c0.1,0,0.1,0,0.2-0.1
	c0,0.1-0.1,0.2-0.1,0.3c-0.1,0.2-0.1,0.4-0.1,0.5c0.1,0,0.3,0,0.4,0c0.3,0,0.6,0.1,1,0c0.1,0,0.2,0,0.3,0s0.1,0,0.2,0s0.2,0,0.2-0.1
	c0.2-0.1,0.4-0.2,0.6-0.3c0.1,0,0.1-0.1,0.2-0.2s0.1-0.1,0.2-0.2c0,0.1,0,0.1-0.1,0.2c-0.1,0.3-0.2,0.7-0.1,1.1
	c0.2-0.3,0.5-0.6,0.9-0.7c0.1,0,0.2-0.1,0.3-0.1c0.1,0,0.2-0.1,0.3-0.1s0.1,0,0.2-0.1c0.1,0,0.2-0.1,0.2-0.1c0.1,0,0.2-0.1,0.2-0.1
	c0.5-0.2,0.8-0.6,1.1-1c0,0.4-0.1,0.7-0.1,1.1c0.2-0.4,0.7-0.6,1.1-0.7c0.1,0,0.2-0.1,0.3-0.1c0.2-0.1,0.3-0.1,0.5-0.2
	s0.3-0.1,0.5-0.2s0.4-0.2,0.6-0.3c0.7-0.4,1.3-0.8,1.9-1.4c0.6-0.5,1.1-1,1.7-1.5c0.2-0.2,0.4-0.3,0.6-0.5s0.4-0.3,0.6-0.5
	c0.3-0.2,0.7-0.5,1-0.7c0.1-0.1,0.2-0.1,0.3-0.2c0,0,0.1,0,0.1-0.1c0.2-0.1,0.4-0.2,0.6-0.3c0.1-0.1,0.3-0.1,0.4-0.2
	c0,0,0.1,0,0.1-0.1c0.2-0.1,0.3-0.1,0.5-0.2c0.4,0,0.7,0,1.1-0.1c0,0.3,0,0.7,0,1c-0.1,0.3-0.1,0.5-0.1,0.5
	c-0.1,0.2-0.1,0.3-0.2,0.5c0,0.1-0.1,0.2-0.1,0.2c-0.1,0.1-0.1,0.1-0.2,0.2s-0.2,0.2-0.3,0.3c-1,0.9-2.3,1.2-3.4,1.7
	c-0.1,0-0.2,0.1-0.3,0.1s-0.2,0.1-0.3,0.1c-0.1,0-0.1,0.1-0.2,0.1s-0.1,0.1-0.2,0.1c-0.3,0.2-0.6,0.5-1,0.7c0.2,0.1,0.4,0.3,0.7,0.4
	c-0.6,0-1.2,0.2-1.7,0.6c-0.1,0-0.1,0.1-0.2,0.1c-0.2,0.1-0.4,0.3-0.6,0.4c0.2,0.2,0.5,0.4,0.8,0.4c-0.5,0-0.9,0.3-1.3,0.7l-0.1,0.1
	l-0.1,0.1c-0.2,0.2-0.4,0.4-0.6,0.6c0.2,0,0.4,0.2,0.7,0.2c-0.3,0.1-0.5,0.3-0.7,0.5l-0.1,0.1c-0.2,0.2-0.3,0.5-0.5,0.7
	c0,0.1-0.1,0.1-0.1,0.2c-0.1,0.1-0.1,0.2-0.2,0.3c0.2,0,0.4,0.1,0.6,0.1h0.1c0.1,0,0.2,0,0.3,0c-0.1,0.1-0.1,0.1-0.2,0.1
	c0,0-0.1,0-0.1,0.1c-0.2,0.1-0.4,0.2-0.5,0.4c-0.1,0.1-0.1,0.1-0.2,0.2s-0.1,0.2-0.2,0.3c0,0.1,0,0.1-0.1,0.2
	c-0.2,0.4-0.3,0.9-0.6,1.2h0.1c0.1,0,0.1,0,0.2,0c0.3,0.1,0.5,0.2,0.8,0.1c-0.3,0.1-0.5,0.4-0.6,0.7c0,0.1-0.1,0.2-0.1,0.2
	c-0.1,0.4-0.2,0.8-0.6,1c0,0,0,0,0.1,0c0.4,0.1,0.8,0.1,1.2-0.1c-0.3,0.5-0.5,0.9-0.7,1.4c0,0.1,0,0.1-0.1,0.2
	c0,0.1-0.1,0.3-0.1,0.4c-0.1,0.4-0.1,0.8-0.3,1.2c0,0.1,0,0.1-0.1,0.2s-0.2,0.3-0.3,0.4c0.2-0.1,0.3-0.2,0.5-0.2
	c0.1,0,0.2-0.1,0.2-0.1c0.4-0.1,0.9-0.2,1.3-0.3c0.1,0,0.2,0,0.2-0.1c0.2-0.1,0.3-0.1,0.5-0.2c0.1,0,0.1,0,0.2-0.1
	c0.1,0,0.1,0,0.2-0.1c0.1,0,0.1,0,0.2-0.1c0.2-0.1,0.4-0.2,0.5-0.3l0.1-0.1l0.1-0.1l0.1-0.1c-0.1,0.2-0.1,0.4,0,0.6
	c0.3-0.2,0.6-0.3,1-0.5c0.1-0.1,0.2-0.1,0.3-0.2c0.1-0.1,0.3-0.2,0.4-0.3c0,0,0.1,0,0.1-0.1c0.1-0.1,0.2-0.1,0.2-0.2l0.1-0.1
	c0,0,0-0.1,0.1-0.1l0,0v0.1v0.1c0,0,0,0.1,0.1,0.1v0.1v0.1c0,0,0,0.1,0.1,0.1c0,0,0-0.1,0.1-0.1l0.1-0.1c0.2-0.1,0.4-0.3,0.6-0.4
	l0.1-0.1c0.1-0.1,0.2-0.2,0.2-0.2l0.1-0.1c0.1-0.1,0.2-0.3,0.3-0.4c-0.1,0.2,0.1,0.4,0.2,0.6c0,0.1,0.1,0.1,0.1,0.2
	c0,0,0-0.1,0.1-0.1l0.1-0.1c0.2-0.2,0.4-0.3,0.6-0.4l0.1-0.1c0.1-0.1,0.1-0.1,0.2-0.2c0,0,0.1-0.1,0.1-0.2c0.2-0.2,0.3-0.5,0.4-0.7
	c0-0.1,0-0.1,0.1-0.2c0-0.1,0-0.1,0.1-0.2c0,0.1,0.1,0.2,0.1,0.2s0,0,0.1,0.1c0,0,0,0,0.1,0.1s0.1,0.1,0.2,0.2
	c0.1-0.2,0.2-0.4,0.3-0.5c0,0,0-0.1,0.1-0.1c0,0,0.1-0.1,0.1-0.2s0.1-0.1,0.1-0.2c0,0,0-0.1,0.1-0.1c0-0.1,0.1-0.1,0.1-0.2
	c0-0.2,0-0.4,0-0.6c0,0.3,0.4,0.5,0.6,0.7l0.1,0.1c0-0.1,0.1-0.3,0.2-0.4c0.2-0.3,0.4-0.6,0.6-0.9c0-0.1,0.1-0.1,0.1-0.2
	c0.1-0.2,0.1-0.3,0.1-0.5v-0.1c0-0.1,0-0.1-0.1-0.2v-0.1c0,0,0,0.1,0.1,0.1c0,0.1,0.1,0.1,0.2,0.1h0.1c0.1,0,0.3,0,0.4,0.1
	c-0.1-0.1,0.1-0.3,0.1-0.4v-0.1c0-0.1,0.1-0.3,0.1-0.4s0-0.1,0-0.2c0-0.3,0-0.7-0.1-1c0.1,0.2,0.2,0.3,0.4,0.4v-0.1v-0.1
	c0.1-0.2,0.3-0.4,0.3-0.7c0-0.1,0-0.1,0-0.2c0-0.2,0-0.3,0-0.5v-0.1c0-0.3,0-0.6-0.1-0.9c0-0.1,0-0.2,0-0.3
	c-0.1-0.4-0.2-0.8-0.3-1.2c0-0.2-0.1-0.3-0.1-0.5c-0.1-0.3-0.2-0.6-0.4-0.9c-0.1-0.2-0.1-0.4-0.2-0.5c-0.1-0.2-0.1-0.4-0.2-0.5
	c-0.1-0.2-0.1-0.4-0.2-0.5c-0.1-0.2-0.1-0.4-0.2-0.6s-0.1-0.4-0.1-0.6s-0.1-0.4-0.1-0.6c0-0.1,0-0.3,0-0.4c0-0.2,0.1-0.5,0.1-0.7
	c1,2,2.1,3.9,3,5.9c1.8,3.6,3.7,7.2,5.5,10.9c0.9,1.8,2.1,4.9,2.2,5.7c0,0.1,0,0.2,0,0.4c0.1,0.4-0.1,0.9,0.3,1.2
	c0.1,0.1,0.3,0.1,0.5,0c0,0,0.1,0,0.2,0s0.2-0.1,0.2-0.3c0-0.4-0.1-0.8-0.1-1.2c0-0.1,0-0.1,0-0.2s0-0.1-0.1-0.2
	c-0.1-0.3-0.2-0.7-0.3-1c-0.3-0.8-0.3-0.7-1.1-2.2l0,0c-0.3-0.6-0.6-1.2-0.9-1.8c-0.6-1.2-1.2-2.4-1.8-3.6c-1.3-2.4-2.5-4.7-3.7-7.1
	c-0.9-1.8-1.9-3.6-2.9-5.4c-0.2-0.4-0.4-0.8-0.6-1.2c0.3,0.1,0.6,0.2,0.9,0.2c0.1,0.1,0.2,0.1,0.2,0.2c0.2,0.1,0.3,0.3,0.5,0.4
	s0.3,0.3,0.4,0.4c0.1,0.2,0.3,0.3,0.4,0.5c0.1,0.1,0.2,0.3,0.4,0.4c0.1,0.1,0.2,0.3,0.3,0.4c0.1,0.2,0.2,0.3,0.3,0.4
	c0.2,0.3,0.4,0.5,0.6,0.8c0.1,0.1,0.2,0.3,0.3,0.4c0.3,0.3,0.6,0.6,0.9,0.9c0.1,0.1,0.2,0.1,0.2,0.2c0.2,0.2,0.5,0.4,0.7,0.5
	l0.1,0.1c0.1,0.1,0.3,0.2,0.4,0.3l0.1,0.1c0.2,0.1,0.5,0.1,0.8,0.1h0.1c0,0,0.1,0,0.1,0.1c0-0.2,0-0.4-0.2-0.6
	c0.2,0.2,0.5,0.4,0.8,0.6c0,0,0.1,0,0.1,0.1c0.1,0.1,0.3,0.1,0.4,0.1h0.1c0.1,0,0.3,0,0.4,0.2c0-0.1,0-0.3,0.1-0.4v-0.1
	c0-0.1,0-0.1,0-0.2v-0.1c0,0,0,0.1,0.1,0.1c0,0.1,0.1,0.1,0.1,0.2l0.1,0.1c0.1,0.1,0.3,0.2,0.5,0.2c0.1,0,0.1,0,0.2,0
	c0.3,0,0.7,0,1.1,0c0.1,0,0.3,0,0.4,0.1v-0.1c0-0.3,0-0.8-0.3-0.9c0.2,0.1,0.3,0.3,0.5,0.4c0.1,0,0.1,0,0.2,0h0.1c0.1,0,0.1,0,0.2,0
	s0.1,0,0.2,0h0.1c0.2,0,0.4-0.1,0.6,0c0-0.1-0.1-0.2-0.1-0.3v-0.1v-0.1c0-0.1-0.1-0.2-0.2-0.2c0.1,0,0.1,0,0.2,0s0.1,0,0.2,0
	c0.3,0,0.6,0,0.8,0c0.1,0,0.1,0,0.2,0s0.2,0,0.2-0.1h0.1c0.3-0.1,0.5-0.2,0.7-0.3h0.1h0.1c0-0.1-0.1-0.1-0.1-0.2
	c-0.1-0.2-0.2-0.4-0.4-0.5c0.2,0,0.3,0,0.5,0c0.1,0,0.1,0,0.2,0s0.2,0,0.3-0.1c0.1,0,0.1,0,0.2-0.1c0.2-0.1,0.4-0.2,0.6-0.3h0.1h0.1
	c0,0,0-0.1-0.1-0.1c0,0,0-0.1-0.1-0.1c0,0,0-0.1-0.1-0.1c0,0,0-0.1-0.1-0.1c0,0,0,0-0.1-0.1c0,0,0,0-0.1,0l0,0h0.1h0.1
	c0.1,0,0.2-0.1,0.3-0.1h0.1c0.1-0.1,0.3-0.1,0.4-0.2s0.2-0.1,0.3-0.2c0.3-0.2,0.6-0.4,0.9-0.6c-0.1-0.2-0.3-0.3-0.5-0.3
	c0.1,0,0.1,0,0.2,0s0.1,0,0.2,0c0,0,0.1,0,0.1-0.1c0.2-0.1,0.4-0.2,0.6-0.3c0.1,0,0.1-0.1,0.2-0.1l0.1-0.1l0.1-0.1
	c0.1-0.1,0.3-0.2,0.4-0.3s0.1-0.1,0.2-0.2c0.3-0.3,0.6-0.7,1-1c0.1-0.1,0.1-0.1,0.2-0.2s0.3-0.2,0.5-0.3
	C-1533.2,1131-1533.3,1131-1533.5,1131z"/>
<path id="Fill-12" class="st0" d="M-1545.7,1118.8c0,0,8.6-12.2,9.3-13.3c0.7-1.1,1.2-2.8-1-4.2c-2.2-1.5-2.9-1.7-4.7,0.3
	c-1.8,2-18.9,22.6-18.9,22.6h11.2l1.6-1.9c0,0,4.7,0.3,4.7,2.1c0,1.9-12.1,2.4-16.9,2.4s-16.1-0.8-16.1-2.7s10.9-2.7,13.5-2.7
	l3.1-3.7c0,0-26.5,0.5-27,6.6c-0.5,6.2,1.9,17.6,14.5,24.1c0,0,0.6,0.9,0.8,1.9c0.2,0.9,0.4,4.8,11.4,4.8c12.4,0,11.9-4.4,12.2-5.6
	c0.4-1.2,0.2-1.1,1.3-1.6s12.3-4.1,13.7-23.1C-1533,1124.9-1532,1120.9-1545.7,1118.8"/>
<path id="Fill-6_1_" class="st0" d="M-1565.8,1150l-5.2-5.2l2-2l5.2,5.2L-1565.8,1150z M-1528.9,1115.3l-7.3-7.3
	c-0.6-0.6-1.9-0.3-2.5,0.3l-35.8,35.8c-0.6,0.6-0.2,1.2,0.4,1.8l7.3,7.3c0.6,0.6,1.1,0.8,1.7,0.3l35.8-35.8
	C-1528.8,1117.1-1528.4,1115.9-1528.9,1115.3z M-1574.7,1134.1c0.3,1.7,1.4,3.3,3.2,4.6c-0.4-0.9-0.6-1.8-0.7-2.8
	c-0.1-3.7,2.6-6.4,4.7-8.5c0.2-0.2,0.4-0.4,0.5-0.5c1.6-1.7,2.4-3.8,2-5.7c-0.2-1.3-1.1-2.6-2.3-3.7c1.7,4.6-0.3,6.7-3.1,8.7
	c-0.3,0.3-0.7,0.5-1,0.8C-1573.8,1129.2-1575.1,1131.8-1574.7,1134.1z M-1576.9,1123.3c-2.1,2.1-4.9,4.9-4.8,8.7
	c0,1,0.3,1.9,0.7,2.8c-1.9-1.4-3-3-3.3-4.8c-0.4-2.4,0.9-5.1,3.4-7.1c0.3-0.3,0.7-0.6,1.1-0.8c2.8-2.1,4.9-4.2,3.1-9
	c1.3,1.1,2.2,2.4,2.4,3.8c0.4,2-0.4,4.1-2.1,5.8C-1576.6,1122.9-1576.7,1123.1-1576.9,1123.3z M-1574.7,1124.4
	c2.2-2.2,3.2-5.2,2.7-7.9c-0.4-2.1-1.9-5.2-6.9-7.5l0,0l0,0c0,0,0,0-0.1,0s-0.1,0-0.2-0.1h-0.1h-0.1h-0.1h-0.1h-0.1h-0.1h-0.1h-0.1
	l0,0l-0.1,0.1c0,0-0.1,0-0.1,0.1c0,0,0,0.1-0.1,0.1l-0.1,0.1c0,0,0,0,0,0.1l-0.1,0.1l0,0c0,0,0,0,0,0.1v0.1v0.1v0.1v0.1v0.1v0.1v0.1
	c0,0,0,0.1,0.1,0.1c0,0,0,0,0,0.1c3.7,6.3,1.8,7.7-0.8,9.6c-0.4,0.3-0.8,0.6-1.1,0.9c-3.1,2.6-4.7,6.1-4.2,9.3
	c0.4,2.6,2.4,6.3,9.5,9.2l0,0h0.1c0,0,0,0,0.1,0h0.1c0,0,0,0,0.1,0l0,0c0.1,0,0.2,0,0.3,0h0.1c0.1,0,0.1-0.1,0.2-0.1c0,0,0,0,0.1,0
	c0.1-0.1,0.1-0.1,0.2-0.2l0,0l0,0c0.1-0.1,0.1-0.2,0.1-0.2l0,0l0,0v-0.1v-0.1v-0.1v-0.1v-0.1v-0.1v-0.1v-0.1c0,0,0-0.1-0.1-0.1
	c0,0,0-0.1-0.1-0.1c0,0,0-0.1-0.1-0.1l-0.1-0.1l0,0c-2.2-2-3.4-3.9-3.5-5.7c-0.1-2.8,2.2-5.1,4.1-7
	C-1575.1,1124.8-1574.9,1124.6-1574.7,1124.4z"/>
<path class="st2" d="M82.3,71C54,71,31,48,31,19.7s23-51.4,51.4-51.4s51.4,23,51.4,51.4S110.7,71,82.3,71z M62.2,37.9
	c3.3,3.8,14.9,15.4,19.5,16.3c0,0,1.6-0.4,3.7-1.9c0,0,5.7-4,10-8.6l3.9-3.9l5.4-5.8l3-3.7c0,0,0.7-0.9,1.5-2H89l-5.4,7.2
	c-0.7,0.9-1.9,1.1-2.8,0.4l0,0l0,0l0,0c-0.2-0.2-0.4-0.4-0.6-0.7l-6.1-12.4l-1.9,3.9c-0.4,0.8-1.2,1.4-2.1,1.6H54.2
	C56.7,31.9,60,35.3,62.2,37.9z M98-1.5c0,0-8.3-1.6-16.2,7.2c0,0-5.6-7.4-14.8-7.2c0,0-2.8,0-5.5,0.8c0,0-6,2-8.5,5.7
	c0,0-3.3,4.1-3,9.7c0,0-0.3,3.3,1.7,8.7c0.1,0.3,0.2,0.6,0.3,0.8c0.2,0,0.4-0.1,0.5-0.1h16.3l3.3-6.8c0.6-1,1.9-1.4,2.9-0.9
	c0.4,0.2,0.7,0.5,0.9,0.9l6.4,13.1l4.1-5.4c0.2-0.2,0.4-0.4,0.6-0.5l0.1-0.1l0,0c0.3-0.1,0.6-0.2,0.8-0.2h23.5
	c0.6-1.4,2.1-5.3,2-10.6C113.6,13.7,113.8,0.8,98-1.5z"/>
<circle class="st3" cx="82.3" cy="19.7" r="51.4"/>
<path id="Fill-8_1_" class="st4" d="M112.1,29.8c-4.7,7-7.9,2.8-7.9,2.8S92.9,41.7,81,41c-7.9-0.4-14.6-3.1-20-8.1
	c-4.6,2.6-7,0.9-7-5.2C51,34,55.2,38.1,57,38.1s6.5-0.1,7.2,2.4c0.6,2.5-4.3,1.3-4.3,3c0.2,2.7,11.5-0.1,13-0.1c1.6,0,4,1.2,8.1,1.1
	c4.1,0,9-1.5,10.4-1.3c7.7,3.4,15.7-0.1,14.5-0.1s-6.2-0.7-6.2-2.3c0-0.5-0.1-1.3,6.2-1.8C112.1,38.5,112.8,28.9,112.1,29.8
	 M118.8,11.2c-3.2-5.1-8.1-2.2-9.2-1.4c-0.8,0.5-3.5,1.6-8.3,3.1c-1.2-2.5-2-3.7-2.2-3.7c-0.3,0,2.1-2,2.4-3.9
	c-0.8,0.8-3.7,1.3-8.1,1.9c-1.3,0.2-3.7,0.1-10.3,0C78.8,7,76.9,7,75.2,7c-3.6,0-7.1-0.7-10.6-2.2h-0.1c0.1,2.8,1.9,4.7,2.2,4.7
	s-3.5,3.5-3.1,5.2c0.4,1.6-2.8-6.1-8-5.6s0.3,3.6,0.6,3.8c0.7,0.7,2.6,3.7,2.1,10.8c-0.4,4.7,1.9,8,6.9,9.8
	c2.7,3.8,8.8,5.7,18.1,5.6c14-0.1,19.2-6.6,20.2-10.1c0.9-3.4,0.6-6.2-0.1-8.3c0-0.6,7.1-2.6,7.7-2.6
	C111.5,18,122.1,16.4,118.8,11.2 M64.8,3.9c3.4,1.5,6.8,2.2,10.3,2.1c1.8,0,3.6,0,7.8,0.1c6.6,0.2,9,0.2,10.3,0
	c4-0.5,7.2-1.1,7.6-1.6c0.1-0.2,0.4-0.2,0.6-0.1C101,3.6,99.4,3,95.9,3C95,3,94.4-0.9,85.8-0.8v-1.5c0.2-0.7,0.4-1,0.6-1
	c0.3,0,3.6-1.9-3.2-2.1c-6.8-0.3-4,2.2-3.5,2.2c0.4,0,0.8,0.4,0.8,1s-0.2,1.3-0.3,1.5c-1.4,0.5-8-0.6-10.4,3.4
	C69.1,3.3,65.2,2,64.6,4C64.6,3.9,64.7,3.9,64.8,3.9"/>
<path class="st4" d="M109.6,52.4l1-0.9c0.2-0.1,0.4-0.3,0.5-0.5l0.5-0.5c0.3-0.3,0.7-0.7,1-1c0.7-0.7,1.3-1.3,1.9-2.1l0.5-0.5
	l0.2-0.3l0.2-0.3l0.9-1.1l1.2,0.9c-0.5,0.7-1.1,1.4-1.7,2.1c-0.3,0.3-0.6,0.7-0.9,1l-0.9,1l-0.5,0.5l-0.5,0.5l-1,0.9
	c-0.3,0.3-0.7,0.6-1,0.9c-0.3,0.3-0.7,0.6-1,0.9l1.7,2.1c1.6-1.3,3.1-2.7,4.5-4.2c0.7-0.7,1.4-1.5,2.1-2.3c0.3-0.4,0.7-0.8,0.9-1.2
	c0.3-0.4,0.7-0.8,0.9-1.2l0.8-1.1l-3.4-2.4c1-1.6,2-3.1,2.9-4.9l0.3-0.6c0.1-0.2,0.2-0.4,0.3-0.7l0.6-1.3l0.5-1.3l0.3-0.7l0.2-0.7
	l1.4,0.5c-1.2,3.4-2.8,6.6-4.7,9.6l2.2,1.5l0.8-1.3l0.8-1.3c0.1-0.2,0.3-0.4,0.4-0.7l0.4-0.7c0.2-0.5,0.5-0.9,0.7-1.4
	c0.4-0.9,0.9-1.8,1.2-2.8c0.2-0.5,0.4-0.9,0.5-1.4l0.5-1.4c0.1-0.2,0.1-0.4,0.2-0.7l0.2-0.7l-4-1.2l0.4-1.3l0.3-1.4l0.1-0.7l0.1-0.7
	l0.3-1.4l0.2-1.4l0.1-0.7l0-0.7l0.1-1.4c0-0.5,0-0.9,0-1.4l1.4,0l0,1.3l-0.1,1.3c0,0.9-0.2,1.8-0.3,2.6c0,0.4-0.1,0.9-0.2,1.3
	l-0.3,1.3l-0.3,1.3c-0.1,0.4-0.2,0.9-0.3,1.3l2.6,0.7c0.1-0.5,0.3-1,0.4-1.5c0.1-0.5,0.3-1,0.3-1.5c0.2-1,0.4-2,0.5-3
	c0.3-2,0.4-4.1,0.4-6.1l0-1.4l-4.1,0.1c-0.1-3.8-0.7-7.5-1.8-11.1l1.4-0.4c1,3.4,1.6,7,1.8,10.5l2.7-0.1l-0.1-1.5l-0.1-0.8
	c0-0.3-0.1-0.5-0.1-0.8l-0.2-1.5c-0.1-0.5-0.2-1-0.3-1.5c-0.1-1-0.4-2-0.7-3c-0.1-0.5-0.3-1-0.4-1.5c-0.1-0.5-0.3-1-0.4-1.5
	l-0.4-1.3l-3.9,1.4c-0.7-1.8-1.4-3.5-2.2-5.2c-0.4-0.8-0.9-1.7-1.4-2.5c-0.3-0.4-0.5-0.8-0.8-1.2l-0.4-0.6c-0.1-0.2-0.3-0.4-0.4-0.6
	l1.2-0.8c2.1,2.9,3.7,6.1,5,9.4l2.5-1l-0.6-1.4c-0.2-0.5-0.4-0.9-0.6-1.4l-0.3-0.7l-0.4-0.7l-0.7-1.4L122.6-4l-0.4-0.7l-0.4-0.7
	c-0.3-0.4-0.5-0.9-0.8-1.3l-0.9-1.3c-0.1-0.2-0.3-0.4-0.4-0.5L119.3-9L116-6.4l-0.9-1.1l-0.9-1c-0.1-0.2-0.3-0.4-0.5-0.5l-0.5-0.5
	c-0.3-0.3-0.7-0.7-1-1c-0.7-0.7-1.3-1.3-2.1-1.9l-0.5-0.5l-0.3-0.2l-0.3-0.2l-1.1-0.9l0.9-1.2c0.7,0.5,1.4,1.1,2.1,1.7
	c0.3,0.3,0.7,0.6,1,0.9l1,0.9l0.5,0.5l0.5,0.5l0.9,1c0.3,0.3,0.6,0.7,0.9,1c0.3,0.3,0.6,0.7,0.9,1l2.1-1.7c-1.3-1.6-2.7-3.1-4.2-4.5
	c-0.7-0.7-1.5-1.4-2.3-2.1c-0.4-0.3-0.8-0.7-1.2-0.9c-0.4-0.3-0.8-0.7-1.2-0.9l-1.1-0.8l-2.4,3.4c-1.6-1-3.1-2-4.9-2.9l-0.6-0.3
	c-0.2-0.1-0.4-0.2-0.7-0.3l-1.3-0.6l-1.3-0.5l-0.7-0.3l-0.7-0.2l0.5-1.4c3.4,1.2,6.6,2.8,9.6,4.7l1.5-2.2l-1.3-0.8l-1.3-0.8
	c-0.2-0.1-0.4-0.3-0.7-0.4l-0.7-0.4c-0.5-0.2-0.9-0.5-1.4-0.7c-0.9-0.4-1.8-0.9-2.8-1.2c-0.5-0.2-0.9-0.4-1.4-0.5l-1.4-0.5
	c-0.2-0.1-0.4-0.1-0.7-0.2l-0.7-0.2l-1.2,4l-1.3-0.4L91.5-22l-0.7-0.1l-0.7-0.1l-1.4-0.3l-1.4-0.2l-0.7-0.1l-0.7,0l-1.4-0.1
	c-0.5,0-0.9,0-1.4,0l0-1.4l1.3,0l1.3,0.1c0.9,0,1.8,0.2,2.6,0.3c0.4,0,0.9,0.1,1.3,0.2l1.3,0.3l1.3,0.3c0.4,0.1,0.9,0.2,1.3,0.3
	l0.7-2.6c-0.5-0.1-1-0.3-1.5-0.4s-1-0.3-1.5-0.3c-1-0.2-2-0.4-3-0.5c-2-0.3-4.1-0.4-6.1-0.4L81-27l0.1,4.1
	c-3.8,0.1-7.5,0.7-11.1,1.8l-0.4-1.4c3.4-1,7-1.6,10.5-1.8L79.9-27l-1.5,0.1l-0.8,0.1c-0.3,0-0.5,0.1-0.8,0.1l-1.5,0.2
	c-0.5,0.1-1,0.2-1.5,0.3c-1,0.1-2,0.4-3,0.7c-0.5,0.1-1,0.3-1.5,0.4c-0.5,0.1-1,0.3-1.5,0.4l-1.3,0.4l1.4,3.9
	c-1.8,0.7-3.5,1.4-5.2,2.2c-0.8,0.4-1.7,0.9-2.5,1.4c-0.4,0.3-0.8,0.5-1.2,0.8l-0.6,0.4c-0.2,0.1-0.4,0.3-0.6,0.4l-0.8-1.2
	c2.9-2.1,6.1-3.7,9.4-5l-1-2.5l-1.4,0.6c-0.5,0.2-0.9,0.4-1.4,0.6l-0.7,0.3l-0.7,0.4L60-21.4l-1.3,0.8L58-20.2l-0.7,0.4
	c-0.4,0.3-0.9,0.5-1.3,0.8l-1.3,0.9c-0.2,0.1-0.4,0.3-0.5,0.4l-0.5,0.4l2.5,3.3l-1.1,0.9l-1,0.9c-0.2,0.1-0.4,0.3-0.5,0.5L53-11.2
	c-0.3,0.3-0.7,0.7-1,1c-0.7,0.7-1.3,1.3-1.9,2.1l-0.5,0.5l-0.2,0.3l-0.2,0.3L48.3-6l-1.2-0.9c0.5-0.7,1.1-1.4,1.7-2.1
	c0.3-0.3,0.6-0.7,0.9-1l0.9-1l0.5-0.5l0.5-0.5l1-0.9c0.3-0.3,0.7-0.6,1-0.9c0.3-0.3,0.7-0.6,1-0.9l-1.7-2.1
	c-1.6,1.3-3.1,2.7-4.5,4.2c-0.7,0.7-1.4,1.5-2.1,2.3C46-9.8,45.7-9.4,45.4-9c-0.3,0.4-0.7,0.8-0.9,1.2l-0.8,1.1l3.4,2.4
	c-1,1.6-2,3.1-2.9,4.9l-0.3,0.6c-0.1,0.2-0.2,0.4-0.3,0.7L43,3.1l-0.5,1.3l-0.3,0.7l-0.2,0.7l-1.4-0.5c1.2-3.4,2.8-6.6,4.7-9.6
	l-2.2-1.5l-0.8,1.3l-0.8,1.3c-0.1,0.2-0.3,0.4-0.4,0.7l-0.4,0.7c-0.2,0.5-0.5,0.9-0.7,1.4c-0.4,0.9-0.9,1.8-1.2,2.8
	c-0.2,0.5-0.4,0.9-0.5,1.4l-0.5,1.4c-0.1,0.2-0.1,0.4-0.2,0.7l-0.2,0.7l4,1.2L41,9l-0.3,1.4l-0.1,0.7l-0.1,0.7l-0.3,1.4L40,14.6
	L40,15.3l0,0.7l-0.1,1.4c0,0.5,0,0.9,0,1.4l-1.4,0l0-1.3l0.1-1.3c0-0.9,0.2-1.8,0.3-2.6c0-0.4,0.1-0.9,0.2-1.3l0.2-1.3l0.3-1.3
	c0.1-0.4,0.2-0.9,0.3-1.3l-2.6-0.7C37.1,8,37,8.5,36.8,9c-0.1,0.5-0.3,1-0.3,1.5c-0.2,1-0.4,2-0.5,3c-0.3,2-0.4,4.1-0.4,6.1l0,1.4
	l4.1-0.1c0.1,3.8,0.7,7.5,1.8,11.1l-1.4,0.4c-1-3.4-1.6-7-1.8-10.5L35.7,22l0.1,1.5l0.1,0.8c0,0.3,0.1,0.5,0.1,0.8l0.2,1.5
	c0.1,0.5,0.2,1,0.3,1.5c0.1,1,0.4,2,0.7,3c0.1,0.5,0.3,1,0.4,1.5c0.1,0.5,0.3,1,0.4,1.5l0.4,1.3l3.9-1.4c0.7,1.8,1.4,3.5,2.2,5.2
	c0.4,0.8,0.9,1.7,1.4,2.5c0.3,0.4,0.5,0.8,0.8,1.2l0.4,0.6c0.1,0.2,0.3,0.4,0.4,0.6l-1.2,0.8c-2.1-2.9-3.7-6.1-5-9.4l-2.5,1l0.6,1.4
	c0.2,0.5,0.4,0.9,0.6,1.4l0.3,0.7l0.4,0.7l0.7,1.4l0.8,1.3l0.4,0.7l0.4,0.7c0.3,0.4,0.5,0.9,0.8,1.3l0.9,1.3
	c0.1,0.2,0.3,0.4,0.4,0.5l0.4,0.5l3.3-2.5l0.9,1.1l0.9,1c0.1,0.2,0.3,0.4,0.5,0.5l0.5,0.5c0.3,0.3,0.7,0.7,1,1
	c0.7,0.7,1.3,1.3,2.1,1.9l0.5,0.5l0.3,0.2l0.3,0.2l1.1,0.9l-0.9,1.2c-0.7-0.5-1.4-1.1-2.1-1.7c-0.3-0.3-0.7-0.6-1-0.9l-1-0.9
	l-0.5-0.5l-0.5-0.5l-0.9-1c-0.3-0.3-0.6-0.7-0.9-1c-0.3-0.3-0.6-0.7-0.9-1L46,49c1.3,1.6,2.7,3.1,4.2,4.5c0.7,0.7,1.5,1.4,2.3,2.1
	c0.4,0.3,0.8,0.7,1.2,0.9c0.4,0.3,0.8,0.7,1.2,0.9l1.1,0.8l2.4-3.4c1.6,1,3.1,2,4.9,2.9l0.6,0.3c0.2,0.1,0.4,0.2,0.7,0.3l1.3,0.6
	l1.3,0.5l0.7,0.3l0.7,0.2l-0.5,1.4c-3.4-1.2-6.6-2.8-9.6-4.7l-1.5,2.2l1.3,0.8l1.3,0.8c0.2,0.1,0.4,0.3,0.7,0.4l0.7,0.4
	c0.5,0.2,0.9,0.5,1.4,0.7c0.9,0.4,1.8,0.9,2.8,1.2c0.5,0.2,0.9,0.4,1.4,0.5l1.4,0.5c0.2,0.1,0.4,0.1,0.7,0.2l0.7,0.2l1.2-4l1.3,0.4
	l1.4,0.3l0.7,0.1l0.7,0.1l1.4,0.3l1.4,0.2L78,62l0.7,0l1.4,0.1c0.5,0,0.9,0,1.4,0l0,1.4l-1.3,0l-1.3-0.1c-0.9,0-1.8-0.2-2.7-0.3
	c-0.4,0-0.9-0.1-1.3-0.2l-1.3-0.2l-1.3-0.3c-0.4-0.1-0.9-0.2-1.3-0.3l-0.7,2.6c0.5,0.1,1,0.3,1.5,0.4c0.5,0.1,1,0.3,1.5,0.3
	c1,0.2,2,0.4,3,0.5c2,0.3,4.1,0.4,6.1,0.4l1.4,0l-0.1-4.1c3.8-0.1,7.5-0.7,11.1-1.8l0.4,1.4c-3.4,1-7,1.6-10.5,1.8l0.1,2.7l1.5-0.1
	l0.8-0.1c0.3,0,0.5-0.1,0.8-0.1l1.5-0.2c0.5-0.1,1-0.2,1.5-0.3c1-0.1,2-0.4,3-0.7c0.5-0.1,1-0.3,1.5-0.4c0.5-0.1,1-0.3,1.5-0.4
	l1.3-0.4l-1.4-3.9c1.8-0.7,3.5-1.4,5.2-2.2c0.8-0.4,1.7-0.9,2.5-1.4c0.4-0.3,0.8-0.5,1.2-0.8l0.6-0.4c0.2-0.1,0.4-0.3,0.6-0.4
	l0.8,1.2c-2.9,2.1-6.1,3.7-9.4,5l1,2.5l1.4-0.6c0.5-0.2,0.9-0.4,1.4-0.6l0.7-0.3l0.7-0.4l1.4-0.7l1.3-0.8l0.7-0.4l0.7-0.4
	c0.4-0.3,0.9-0.5,1.3-0.8l1.3-0.9c0.2-0.1,0.4-0.3,0.5-0.4l0.5-0.4l-2.5-3.3L109.6,52.4z M110.2,56.5c-0.2,0.1-0.4,0.3-0.6,0.4
	l-1.2,0.8c-0.4,0.3-0.8,0.5-1.2,0.8c-0.8,0.5-1.6,1-2.5,1.5c-0.2,0.1-0.4,0.2-0.6,0.3l-0.7,0.3l-0.7,0.3c-0.2,0.1-0.4,0.2-0.7,0.3
	c-0.9,0.4-1.7,0.8-2.6,1.2L99,61.1c0.8-0.3,1.7-0.7,2.5-1.1c0.4-0.2,0.8-0.4,1.2-0.6c0.4-0.2,0.8-0.4,1.2-0.6l1.2-0.7l0.6-0.3
	l0.6-0.4l1.2-0.7c0.4-0.3,0.7-0.5,1.1-0.8l-1.6-2.2l-0.6,0.4c-0.2,0.1-0.4,0.3-0.7,0.4l-1.3,0.8c-0.4,0.3-0.9,0.5-1.3,0.8
	c-0.2,0.1-0.4,0.3-0.7,0.4l-0.7,0.4l-0.7,0.4l-0.3,0.2l-0.4,0.1l-1.4,0.6c-0.5,0.2-0.9,0.4-1.4,0.6c-0.3,0.1-0.5,0.2-0.7,0.3
	l-0.7,0.3l1.3,3.9l-0.7,0.2c-0.4,0.1-0.9,0.3-1.4,0.4L94,64.3l-1.4,0.3l-0.7,0.1c-0.2,0-0.5,0.1-0.7,0.1l-1.4,0.3
	c-0.5,0.1-0.9,0.1-1.4,0.2c-0.5,0.1-0.9,0.1-1.4,0.2l-1.4,0.1l-0.1-1.4c3.6-0.3,7.2-0.9,10.6-2l-0.8-2.6c-0.5,0.2-1,0.3-1.5,0.4
	L93,60.3l-0.8,0.2c-0.5,0.1-1,0.3-1.5,0.3l-1.5,0.3l-0.4,0.1l-0.4,0l-0.8,0.1c-0.5,0.1-1,0.1-1.5,0.2l-1.5,0.1l-1.5,0l0.1,4.1h-0.7
	c-3.8,0-7.7-0.5-11.4-1.4l0.4-1.4c3.5,0.9,7.1,1.3,10.8,1.4v-2.7l-1.5,0h-0.4l-0.4,0l-0.8-0.1c-1,0-2-0.2-3-0.3c-2-0.3-4-0.8-6-1.4
	l-1.2,3.9c-0.2-0.1-0.5-0.1-0.7-0.2c-3.7-1.2-7.2-2.8-10.4-4.9l0.8-1.2c3,2,6.4,3.5,9.8,4.6l0.8-2.6c-2-0.6-3.8-1.4-5.6-2.4
	c-0.5-0.3-0.9-0.5-1.4-0.7l-1.3-0.8c-0.4-0.3-0.9-0.5-1.3-0.8c-0.2-0.1-0.4-0.3-0.7-0.4l-0.6-0.4l-2.4,3.4l-0.6-0.4
	c-0.2-0.1-0.4-0.3-0.6-0.4l-0.6-0.4L53,55.2l-1.1-0.9l-0.5-0.5l-0.5-0.5l-1-1l-1-1l-0.5-0.5c-0.2-0.2-0.3-0.4-0.5-0.5l-0.9-1.1
	l1.1-0.9c2.3,2.8,5,5.3,7.9,7.4l1.6-2.2c-1.6-1.2-3.2-2.5-4.7-4s-2.8-3-4.1-4.6l-3.3,2.5c-0.1-0.2-0.3-0.4-0.4-0.6l-0.8-1.2
	c-0.3-0.4-0.5-0.8-0.8-1.2c-0.5-0.8-1-1.6-1.5-2.5c-0.1-0.2-0.2-0.4-0.3-0.6l-0.3-0.7L40.9,40c-0.1-0.2-0.2-0.4-0.3-0.7
	c-0.4-0.9-0.8-1.7-1.2-2.6l1.3-0.5c0.3,0.8,0.7,1.7,1.1,2.5c0.2,0.4,0.4,0.8,0.6,1.2c0.2,0.4,0.4,0.8,0.6,1.2l0.7,1.2l0.3,0.6
	l0.4,0.6l0.7,1.2c0.3,0.4,0.5,0.7,0.8,1.1l2.2-1.6l-0.4-0.6c-0.1-0.2-0.3-0.4-0.4-0.7l-0.8-1.3c-0.3-0.4-0.5-0.9-0.8-1.3
	c-0.1-0.2-0.3-0.4-0.4-0.7L45,38.8l-0.4-0.7l-0.2-0.3l-0.1-0.4L43.7,36c-0.2-0.5-0.4-0.9-0.6-1.4c-0.1-0.3-0.2-0.5-0.3-0.7l-0.3-0.7
	l-3.9,1.3l-0.2-0.7c-0.1-0.4-0.3-0.9-0.4-1.4l-0.4-1.4l-0.3-1.4L37.1,29c0-0.2-0.1-0.5-0.1-0.7l-0.3-1.4c-0.1-0.5-0.1-0.9-0.2-1.4
	c0-0.5-0.1-0.9-0.2-1.4l-0.1-1.4l1.4-0.1c0.3,3.6,0.9,7.2,2,10.6l2.6-0.8c-0.2-0.5-0.3-1-0.4-1.5l-0.2-0.7l-0.2-0.8
	c-0.1-0.5-0.3-1-0.3-1.5l-0.3-1.5l-0.1-0.4l0-0.4l-0.1-0.8c-0.1-0.5-0.1-1-0.2-1.5l-0.1-1.5l0-1.5l-4.1,0.1v-0.7
	c0-3.8,0.5-7.7,1.4-11.4L39,8.6c-0.9,3.5-1.3,7.1-1.4,10.8h2.7l0-1.5v-0.4l0-0.4l0.1-0.8c0-1,0.2-2,0.3-3c0.3-2,0.8-4,1.4-6L38.2,6
	c0.1-0.2,0.1-0.5,0.2-0.7c1.2-3.7,2.8-7.2,4.9-10.4l1.2,0.8c-2,3-3.5,6.4-4.6,9.8l2.6,0.8c0.6-2,1.4-3.8,2.4-5.6
	c0.3-0.4,0.5-0.9,0.7-1.4l0.8-1.3c0.3-0.4,0.5-0.9,0.8-1.3c0.1-0.2,0.3-0.4,0.4-0.7L48-4.6L44.6-7L45-7.6c0.1-0.2,0.3-0.4,0.4-0.6
	l0.4-0.6l0.9-1.1l0.9-1.1l0.5-0.5l0.5-0.5l1-1l1-1l0.5-0.5c0.2-0.2,0.4-0.3,0.5-0.5l1.1-0.9l0.9,1.1c-2.8,2.3-5.3,5-7.4,7.9l2.2,1.6
	c1.2-1.6,2.5-3.2,4-4.7s3-2.8,4.6-4l-2.5-3.3c0.2-0.1,0.4-0.3,0.6-0.4l1.2-0.8c0.4-0.3,0.8-0.5,1.2-0.8c0.8-0.5,1.6-1,2.5-1.5
	c0.2-0.1,0.4-0.2,0.6-0.3l0.7-0.3l0.7-0.3c0.2-0.1,0.4-0.2,0.7-0.3c0.9-0.4,1.7-0.8,2.6-1.2l0.5,1.3c-0.8,0.3-1.7,0.7-2.5,1.1
	c-0.4,0.2-0.8,0.4-1.2,0.6c-0.4,0.2-0.8,0.4-1.2,0.6L59.7-19l-0.6,0.3l-0.6,0.4l-1.2,0.7c-0.4,0.3-0.7,0.5-1.1,0.8l1.6,2.2l0.6-0.4
	c0.2-0.1,0.4-0.3,0.7-0.4l1.3-0.8c0.4-0.3,0.9-0.5,1.3-0.8c0.2-0.1,0.4-0.3,0.7-0.4l0.7-0.4l0.7-0.4l0.3-0.2l0.4-0.1l1.4-0.6
	c0.5-0.2,0.9-0.4,1.4-0.6c0.3-0.1,0.5-0.2,0.7-0.3l0.7-0.3l-1.3-3.9l0.7-0.2c0.4-0.1,0.9-0.3,1.4-0.4l1.4-0.4l1.4-0.3l0.7-0.1
	c0.2,0,0.5-0.1,0.7-0.1l1.4-0.3c0.5-0.1,0.9-0.1,1.4-0.2c0.5,0,0.9-0.1,1.4-0.2l1.4-0.1l0.1,1.4c-3.6,0.3-7.2,0.9-10.6,2l0.8,2.6
	c0.5-0.2,1-0.3,1.5-0.4l0.7-0.2l0.8-0.2c0.5-0.1,1-0.3,1.5-0.3l1.5-0.3l0.4-0.1l0.4,0l0.8-0.1c0.5-0.1,1-0.1,1.5-0.2l1.5-0.1l1.5,0
	l-0.1-4.1h0.7c3.8,0,7.7,0.5,11.4,1.4l-0.4,1.4c-3.5-0.9-7.1-1.3-10.8-1.4v2.7l1.5,0h0.4l0.4,0l0.8,0.1c1,0,2,0.2,3,0.3
	c2,0.3,4,0.8,6,1.4l1.2-3.9c0.2,0.1,0.5,0.1,0.7,0.2c3.7,1.2,7.2,2.8,10.4,4.9l-0.8,1.2c-3-2-6.4-3.5-9.8-4.6l-0.8,2.6
	c2,0.6,3.8,1.4,5.6,2.4c0.4,0.3,0.9,0.5,1.4,0.7l1.3,0.8c0.4,0.3,0.9,0.5,1.3,0.8c0.2,0.1,0.4,0.3,0.7,0.4l0.6,0.4l2.4-3.4l0.6,0.4
	c0.2,0.1,0.4,0.3,0.6,0.4l0.6,0.4l1.1,0.9l1.1,0.9l0.5,0.5l0.5,0.5l1,1l1,1l0.5,0.5c0.2,0.2,0.3,0.4,0.5,0.5l0.9,1.1l-1.1,0.9
	c-2.3-2.8-5-5.3-7.9-7.4l-1.6,2.2c1.6,1.2,3.2,2.5,4.7,4c1.4,1.4,2.8,3,4,4.6l3.3-2.5c0.1,0.2,0.3,0.4,0.4,0.6l0.8,1.2
	c0.3,0.4,0.5,0.8,0.8,1.2c0.5,0.8,1,1.6,1.5,2.5c0.1,0.2,0.2,0.4,0.3,0.6l0.3,0.7l0.3,0.7c0.1,0.2,0.2,0.4,0.3,0.7
	c0.4,0.9,0.8,1.7,1.2,2.6L124,3c-0.3-0.8-0.7-1.7-1.1-2.5c-0.2-0.4-0.4-0.8-0.6-1.2c-0.2-0.4-0.4-0.8-0.6-1.2L121-3.2l-0.3-0.6
	l-0.4-0.6l-0.7-1.2c-0.3-0.4-0.5-0.7-0.8-1.1L116.6-5l0.4,0.6c0.1,0.2,0.3,0.4,0.4,0.7l0.8,1.3c0.3,0.4,0.5,0.9,0.8,1.3
	c0.1,0.2,0.3,0.4,0.4,0.7l0.4,0.7l0.4,0.7l0.2,0.3l0.1,0.4l0.6,1.4c0.2,0.5,0.4,0.9,0.6,1.4c0.1,0.3,0.2,0.5,0.3,0.7l0.3,0.7
	l3.9-1.3l0.2,0.7c0.1,0.4,0.3,0.9,0.4,1.4l0.4,1.4l0.3,1.4l0.1,0.7c0,0.2,0.1,0.5,0.1,0.7l0.3,1.4c0.1,0.5,0.1,0.9,0.2,1.4
	c0.1,0.5,0.1,0.9,0.2,1.4l0.1,1.4l-1.4,0.1c-0.3-3.6-0.9-7.2-2-10.6l-2.6,0.8c0.2,0.5,0.3,1,0.4,1.5l0.2,0.7l0.2,0.8
	c0.1,0.5,0.3,1,0.3,1.5l0.3,1.5l0.1,0.4l0,0.4l0.1,0.8c0.1,0.5,0.1,1,0.2,1.5l0.1,1.5l0,1.5l4.1-0.1v0.7c0,3.8-0.5,7.7-1.4,11.4
	l-1.4-0.4c0.9-3.5,1.3-7.1,1.4-10.8h-2.7l0,1.5v0.4l0,0.4l-0.1,0.8c0,1-0.2,2-0.3,3c-0.3,2-0.8,4-1.4,6l3.9,1.2
	c-0.1,0.2-0.1,0.5-0.2,0.7c-1.2,3.7-2.8,7.2-4.9,10.4l-1.2-0.8c2-3,3.5-6.4,4.6-9.8l-2.6-0.8c-0.6,2-1.4,3.8-2.4,5.6
	c-0.3,0.4-0.5,0.9-0.7,1.4l-0.8,1.3c-0.3,0.4-0.5,0.9-0.8,1.3c-0.1,0.2-0.3,0.4-0.4,0.7l-0.4,0.6l3.4,2.4l-0.4,0.6
	c-0.1,0.2-0.3,0.4-0.4,0.6l-0.4,0.6l-0.9,1.1l-0.9,1.1l-0.5,0.5l-0.5,0.5l-1,1l-1,1l-0.5,0.5c-0.2,0.2-0.4,0.3-0.5,0.5l-1.1,0.9
	l-0.9-1.1c2.8-2.3,5.3-5,7.4-7.9l-2.2-1.6c-1.2,1.6-2.5,3.2-4,4.7c-1.4,1.4-3,2.8-4.6,4.1L110.2,56.5z"/>
</svg>
