<?xml version="1.0" encoding="utf-8"?>
<!-- Generator: Adobe Illustrator 19.0.0, SVG Export Plug-In . SVG Version: 6.00 Build 0)  -->
<svg version="1.1" id="图层_1" xmlns="http://www.w3.org/2000/svg" xmlns:xlink="http://www.w3.org/1999/xlink" x="0px" y="0px"
	 viewBox="-566 387.9 58 66" style="enable-background:new -566 387.9 58 66;" xml:space="preserve">
<style type="text/css">
	.st0{fill:#EAA926;}
</style>
<g>
	<path class="st0" d="M-552.3,387.9c-7.6,0-13.7,7.3-13.7,16.4c0,7.1,3.9,13.4,9.5,15.6c-0.5,5.4-2.4,24.8-2.4,27.3
		c0,3.7,3,6.7,6.7,6.7c0,0,0,0,0,0c4,0,6.7-2.6,6.7-6.7c0-3.1-1.8-22.2-2.3-27.4c5.5-2.3,9.3-8.5,9.3-15.5
		C-538.6,395.2-544.7,387.9-552.3,387.9L-552.3,387.9z M-550.1,417c-0.9,0.2-1.4,1.1-1.2,2c0,0,0,0,0,0c0,0,0,0.1,0.1,0.1
		c0.8,8.7,2.3,25.3,2.3,27.9c0,2.8-1.8,3.4-3.3,3.4c-1.9,0-3.3-1.5-3.3-3.4c0-2.3,1.8-21.2,2.5-28.3c0.1-0.8-0.4-1.6-1.2-1.8
		c-0.1,0-0.1-0.1-0.1-0.1c-4.8-1.3-8.2-6.6-8.2-12.7c0-7.2,4.6-13,10.4-13c5.7,0,10.4,5.8,10.4,13
		C-541.9,410.4-545.4,415.7-550.1,417L-550.1,417z M-509.7,389.8c-0.9,0-1.7,0.8-1.7,1.7v15.4c0,4.7-3.3,8.8-7.8,9.8
		c-0.9,0.2-1.5,1.1-1.3,2c0,0,0,0.1,0,0.1c0.8,8.7,2.4,25.6,2.4,28.3c0,2.8-1.8,3.4-3.3,3.4c-1.9,0-3.3-1.5-3.3-3.4
		c0-2.3,1.8-21.2,2.5-28.3v-0.1c0.1-0.9-0.4-1.7-1.3-2c-4.6-1-7.9-5.1-7.9-9.8v-15.4c0-1-0.7-1.7-1.7-1.7c-0.9,0-1.7,0.8-1.7,1.7
		v15.4c0,5.8,3.7,10.9,9.1,12.8c-0.5,5.2-2.4,24.9-2.4,27.4c0,3.7,3,6.7,6.7,6.7c0,0,0,0,0,0c4,0,6.7-2.6,6.7-6.7
		c0-3.1-1.8-22.5-2.3-27.5c5.3-1.9,8.9-7,8.9-12.7v-15.4C-508,390.5-508.7,389.8-509.7,389.8L-509.7,389.8z M-525.4,409.4
		c1,0,1.7-0.8,1.7-1.7v-16.2c0-1-0.7-1.7-1.7-1.7s-1.7,0.8-1.7,1.7v16.3C-527.1,408.7-526.4,409.4-525.4,409.4L-525.4,409.4z
		 M-517.1,409.4c1,0,1.7-0.8,1.7-1.7v-16.2c0-1-0.7-1.7-1.7-1.7c-0.9,0-1.7,0.8-1.7,1.7v16.3C-518.8,408.7-518.1,409.4-517.1,409.4
		L-517.1,409.4z"/>
</g>
</svg>
