<?xml version="1.0" encoding="utf-8"?>
<!-- Generator: Adobe Illustrator 19.0.0, SVG Export Plug-In . SVG Version: 6.00 Build 0)  -->
<svg version="1.1" id="图层_1" xmlns="http://www.w3.org/2000/svg" xmlns:xlink="http://www.w3.org/1999/xlink" x="0px" y="0px"
	 viewBox="0 0 200 200" style="enable-background:new 0 0 200 200;" xml:space="preserve">
<style type="text/css">
	.st0{fill:#FFF1E2;}
	.st1{fill:#FBC7BE;}
	.st2{fill:#F27171;}
</style>
<circle id="XMLID_5_" class="st0" cx="100" cy="100.1" r="99.7"/>
<g id="XMLID_2_">
	<path id="XMLID_4_" class="st1" d="M155.2,77.2c-0.4-2.1-1.1-4.1-2.3-5.9c-0.6-0.9-1.3-1.8-2-2.5c-0.2-0.2-0.5-0.4-0.6-0.6
		l-0.5-0.5l-0.7-0.6c-0.2-0.2-0.5-0.3-0.7-0.5c-1-0.6-2.2-1.1-3.4-1.4c-1.2-0.3-2.5-0.3-3.6-0.2c-2.2,0.2-3.9,0.6-5.1,1.2
		c-3.3,1.6-5.1,2.8-5.7,3c-0.3,0.2-0.6,0.4-0.9,0.5c-4.7-7-15.7-11.8-28.8-11.8h-0.1c-0.3,0-0.5,0-0.7,0s-0.5,0-0.7,0h-0.1
		c-13.1,0-24.1,4.8-28.8,11.8c-0.3-0.2-0.6-0.3-0.9-0.5c-0.6-0.3-2.5-1.5-5.7-3c-1.2-0.6-2.9-1-5.1-1.2c-1.1-0.1-2.3-0.1-3.6,0.2
		c-1.2,0.3-2.3,0.7-3.4,1.4c-0.3,0.1-0.5,0.3-0.7,0.5l-0.7,0.6l-0.5,0.5c-0.2,0.2-0.5,0.4-0.6,0.6c-0.7,0.7-1.5,1.6-2,2.5
		c-1.2,1.8-1.9,3.8-2.3,5.9c-0.3,2.1-0.2,4.2,0.6,6.2c0.7,2,2,3.8,3.8,5.1c1.8,1.3,4.1,1.9,6.1,1.8c1.7-0.2,3.2-0.7,4.5-1.7
		c0.8-0.6,1.7-1.3,2.3-2.1c0.6-0.6,0.8-1.2,1.1-1.6l0.3-0.6c0.6-1.2,0.2-2.6-0.9-3.2c-0.7-0.4-1.6-0.4-2.2,0L60,81.2l-0.5,0.3
		c-0.3,0.2-0.7,0.4-1.2,0.6c-0.6,0.3-1.1,0.5-1.8,0.6c-0.6,0.1-1.2,0.2-1.6,0c-0.4-0.2-0.6-0.3-0.8-0.6c-0.3-0.4-0.6-0.9-1-1.7
		s-0.7-1.7-0.8-2.6c-0.1-1,0-2,0.5-2.8c0.3-0.4,0.6-0.7,0.9-1c0.1-0.1,0.2-0.1,0.3-0.2l0.5-0.3l0,0c0,0-0.2,0.2-0.1,0.1l0,0l0,0h0.1
		l0.2-0.1c0.1-0.1,0.2-0.1,0.3-0.1c0.4-0.1,0.7,0,1,0.1c0.3,0.1,0.6,0.3,0.8,0.6c0.6,0.5,1.6,1.1,2.8,1.8c1.2,0.6,2.7,1.3,4.3,1.7
		c0.8,0.2,1.7,0.3,2.6,0.2c0.6,0,1.1-0.2,1.6-0.3v0.1c-0.6,1.8-0.8,3.6-0.9,5.5c-0.1,1.8,0,3.7,0.5,5.8c0.5,2.2,1.3,4.3,2.4,6.4
		c1.1,2.1,2.6,4.1,4.2,5.9c1.8,1.8,3.6,3.5,5.6,4.9c2,1.5,4.1,2.8,6.4,4c1.2,0.6,1.8,0.9,2.4,1.5c0.6,0.6,1,1,1.4,1.8
		c0,0,1,31.6-4.3,37c-5.3,5.3,13-0.1,13-0.1s-0.2-1.2-0.4-3.2c-0.2-2,0.8-5.3,0.8-8.9l-1.5-27.7c0,0,1.7-29-16.2-36.6
		c0,0,10.6,2.8,18.5,2.8h0.2c8,0,18.5-2.8,18.5-2.8c-18,7.6-16.2,36.6-16.2,36.6l-0.3,28c-0.1,2.9-0.2,5.7-0.4,8.5
		c-0.2,2-0.4,3.2-0.4,3.2s18.3,5.3,13,0.1c-5.3-5.3-4.3-37-4.3-37c0.4-0.7,0.8-1.2,1.4-1.8c0.6-0.6,1.2-0.8,2.4-1.5
		c2.2-1.2,4.3-2.5,6.4-4c2-1.5,4-3,5.6-4.9c1.7-1.8,3.1-3.8,4.2-5.9c1.1-2,1.8-4.1,2.4-6.4c0.5-2.1,0.6-4.1,0.5-5.8
		c-0.1-1.8-0.4-3.7-0.9-5.5v-0.1c0.5,0.2,1,0.3,1.6,0.3c0.8,0,1.8,0,2.6-0.2c1.7-0.4,3.1-1,4.3-1.7c1.2-0.6,2.1-1.4,2.8-1.8
		c0.4-0.3,0.6-0.4,0.8-0.6c0.3-0.1,0.6-0.2,1-0.1c0.1,0,0.2,0,0.3,0.1l0.2,0.1h0.1l0,0l0,0c0.1,0.1-0.1-0.1-0.1-0.1l0,0l0.5,0.3
		c0.1,0,0.1,0.1,0.3,0.2c0.4,0.3,0.7,0.6,0.9,1c0.5,0.8,0.6,1.8,0.5,2.8c-0.1,1-0.5,1.8-0.8,2.6s-0.7,1.3-1,1.7
		c-0.3,0.4-0.5,0.5-0.8,0.6c-0.4,0.1-0.9,0.1-1.6,0c-0.6-0.2-1.2-0.4-1.8-0.6c-0.6-0.3-0.9-0.5-1.2-0.6l-0.5-0.3l-0.3-0.1
		c-1.2-0.6-2.6-0.2-3.2,1c-0.4,0.7-0.4,1.6,0,2.2l0.3,0.6c0.2,0.4,0.6,0.9,1.1,1.6c0.6,0.8,1.5,1.6,2.3,2.1c1.3,0.9,2.9,1.6,4.5,1.7
		c1.9,0.2,4.3-0.5,6.1-1.8c1.8-1.3,3-3,3.8-5.1C155.4,81.5,155.5,79.3,155.2,77.2L155.2,77.2z"/>
	<path id="XMLID_3_" class="st2" d="M81.4,73.5h37.2c0,0-16.8,13.1-16.8,76.2h-4.1C97.7,149.7,102.4,94.5,81.4,73.5z"/>
</g>
</svg>
