<?xml version="1.0" encoding="utf-8"?>
<!-- Generator: Adobe Illustrator 19.0.0, SVG Export Plug-In . SVG Version: 6.00 Build 0)  -->
<svg version="1.1" id="图层_1" xmlns="http://www.w3.org/2000/svg" xmlns:xlink="http://www.w3.org/1999/xlink" x="0px" y="0px"
	 viewBox="25 25 150 150" style="enable-background:new 0 0 200 200;fill:#FFFFFF;" xml:space="preserve">
<path class="st0" d="M126.5,149.8c-0.1-3,0.7-5.7,2.3-7.8l0-0.1c0.7-1.1,1.7-1.9,2.7-2.7c0.5-0.4,1-0.8,1.4-1.2
	c0.8-0.6,1.2-1.7,1-2.8c-0.1-1-0.7-1.8-1.5-2.1c-1.4-0.6-2.8-0.9-4.2-1.2c-0.9-0.2-1.7-0.4-2.6-0.6c-4.2-1.2-8.3-2.4-12.1-4.4
	c-2.8-1.5-5-3.6-6.3-6.2v0c-1.1-2-2.3-4.4-2.7-6.9v0c-0.3-1.3,0.5-2.7,1.4-4c2-2.8,3.4-5.9,4-9.2v-0.1c0.7-5.2-0.3-9.1-2.7-11.7
	c-1.6-1.8-4-2.8-6.8-2.8c-0.7,0-1.4,0.1-2.1,0.2c-1,0.1-2,0.2-3.1,0.2c-8,0-16.4-4.1-22.3-11c-2-2.2-3.5-5.2-4.5-8.6v0
	C66.9,61,66.7,54.7,68,49l0-0.1c0-0.1,0-0.2,0-0.4c0.1-0.9,0.3-2.4-1-3c-0.2-0.1-0.4-0.2-0.6-0.3C66.3,45.2,66,45,65.9,45v-0.1
	c0.7-1.6,2.3-2.7,3.9-3.7c0.3-0.2,0.5-0.3,0.8-0.5c2.5-1.8,5.3-2.9,8-4c6-2.4,12.6-3.7,19.2-3.7c2,0,4,0.1,5.9,0.3h0
	c7,0.5,13.1,2.6,17.7,5.9l0,0c3.4,2.2,6.3,5.7,8.8,10.2l0,0c1.6,2.7,2.4,6,2.3,9.6c0,1.4-0.3,2.7-0.7,4.1c-0.2,0.6-0.3,1.3-0.4,1.9
	c-0.2,0.8,0,1.6,0.5,2.3c0.5,0.6,1.3,0.9,2.1,0.7h0c1.2-0.4,1.9-1.6,2.2-2.3v0c1-2.7,1.4-5.6,1.2-8.9v0c-0.6-7-4.3-13.8-10.3-19.2
	c-0.1-0.1-0.3-0.3-0.4-0.4c-0.7-0.6-1.3-1.3-1.5-2v0c-0.2-0.7,0.4-1.3,1.4-2c2.8-1.8,6.1-2.3,8.3-2.3c7.6,0.4,14.6,4,19,9.6
	c2.9,3.7,3.6,8.2,3.6,11.4c-0.2,2.5-0.7,5.3-2.8,6.9c-0.4,0.3-1,0.6-1.5,0.9c-0.9,0.5-1.9,0.9-2.6,1.9l0,0c-0.4,0.6-0.4,1.3-0.2,1.9
	c0.3,0.6,0.8,1.1,1.4,1.2h0c2,0.2,4-0.6,6.2-2.4c2.8-2.3,4.3-6.3,4.1-10.8c0.2-5.6-1.8-11.2-5.6-15.5c-5-5.5-12.1-9.1-20.1-10.1h0
	c-0.5,0-0.9,0-1.4,0c-4.8,0-9.5,1.7-12.9,4.5l-0.3,0.2c-0.8,0.7-1.8,1.4-2.5,1.4c-0.1,0-0.2,0-0.2,0c-0.7-0.2-1.5-0.5-2.2-0.8
	c-0.8-0.3-1.5-0.6-2.3-0.8c-5.2-1.5-10.7-2.3-16.2-2.3c-7.5,0-14.6,1.4-21.2,4.1c-7.1,2.7-12.1,6.2-15.5,10.6
	c-1.1,1.5-2,3.3-2.8,5.5c-0.4,1.3-1.2,2.5-1.9,3.7c-0.6,0.9-1.2,1.9-1.6,2.9c-2.2,4.6-3.6,9.8-4.5,16.2c-0.2,1.1-0.4,2.1-0.6,3.2
	c-0.4,2.1-0.8,4.2-1.3,6.4c-0.1,0.4-0.2,0.9-0.4,1.3c-0.7,2.7-1.5,5.5-3,7.9c-1.3,2.1-2.8,4.2-4.3,6.1c-1.5,2-3.1,4-4.4,6.2
	c-1.3,1.8-1.1,4.4,0.5,5.9c1,1.2,2.4,1.8,3.8,2.3c1.1,0.4,2.1,0.8,2.8,1.5c0.8,0.8,0.8,2.1,0.8,3.4c0,0.4,0,0.8,0,1.3
	c-0.1,1.2,0.3,2.3,0.7,3.3c0.1,0.3,0.2,0.5,0.3,0.8l0,0.1c0.4,0.9,0.3,1.9,0.3,2.9c-0.1,1.1-0.1,2.2,0.3,3.4
	c0.3,0.9,0.8,1.7,1.3,2.5c0.5,0.8,1,1.6,1.2,2.4c0.5,1.5,0.5,3.1,0.6,4.8c0.1,2.3,0.2,4.7,1.4,6.8c2,3.6,6,5.8,10.6,5.8
	c1.1,0,2.2-0.1,3.2-0.4c3.8-1.1,7.6-2.7,11.2-4.2c1.7-0.7,3.4-1.4,5.1-2.1c0.2-0.1,0.3-0.1,0.5-0.2c0.9-0.4,1.8-0.7,2.7-0.7
	c0.1,0,0.3,0,0.4,0h0.1c1,0,1.7,0.9,2,1.9c0.4,2.1,0.5,3.9,0.3,5.6v0.1c-0.2,4.4-1.3,8.9-3.3,13.9c-0.2,0.5-0.5,1-0.7,1.6
	c-1.2,2.7-2.4,5.5-4.3,7.8l-0.6,0.8l1,0.3c1.2,0.4,2.5,0.8,3.9,1l0.5,0.1l0.2-0.5c0.4-0.9,0.9-1.7,1.4-2.5c0.2-0.3,0.4-0.6,0.6-1
	l0,0c1.6-3.1,2.9-6.2,3.9-9.4c0.1-0.4,0.2-0.8,0.4-1.2c0.6-1.8,1.2-3.6,1.4-5.6c0.1-0.8,0.2-1.7,0.3-2.6c0.3-2.8,0.7-5.7,0.1-8.5
	c-0.3-3.2-2.5-6-5.4-6.8c-0.6-0.2-1.1-0.3-1.8-0.3c-1.4,0-2.7,0.5-3.9,0.9c-1.9,0.8-3.8,1.5-5.6,2.3c-2.9,1.2-6,2.5-9.1,3.7
	c-1.4,0.5-2.9,0.8-4.4,0.8c-1,0-2-0.1-3-0.4c-1.7-0.5-3-1.7-3.5-3.2c-0.6-1.8-0.8-3.7-0.9-5.6c-0.1-1.3-0.2-2.7-0.5-4.1
	c-0.3-1.3-0.9-2.5-1.5-3.6c-0.3-0.5-0.5-0.9-0.7-1.4c-0.4-0.8-0.2-1.8,0-2.8c0.1-0.5,0.2-0.9,0.2-1.4v-0.1c-0.1-1-0.6-1.9-1-2.7
	c-0.4-0.7-0.7-1.3-0.8-2c-0.1-0.8-0.1-1.7-0.1-2.5c0-1,0.1-2-0.1-3.1v0c-0.5-2-2.2-3.8-4.6-4.9c-0.3-0.2-0.6-0.3-1-0.4
	c-1-0.4-1.9-0.8-2.3-1.7c-0.1-0.6,0.3-1.2,0.7-1.9l0.1-0.2c0.9-1.3,1.9-2.6,2.8-3.8c1.3-1.7,2.6-3.4,3.8-5.2
	c1.6-2.4,2.9-5.4,3.9-9.2c1.1-4.3,2-8.3,2.7-12.3v0c1-7,2.8-13.2,5.5-18.5c0.5-0.9,1-2,1.7-2.7c0.3,1.3,0.2,2.7,0,4.2
	c-0.1,1-0.2,2.1-0.2,3.2c0.1,6.5,1.7,12.5,4.8,17.5c1.9,3.1,4.6,5.6,7.2,7.9l0,0c3.9,3.2,8.7,5.6,14,7.1h0c2.8,0.7,4.9,1,6.9,1
	c1.3,0,2.5-0.1,3.7-0.4l0,0c0.4-0.1,0.9-0.2,1.3-0.2c1.5,0,2.9,0.7,3.8,1.8c1.5,2.1,1.8,5,1,8.1c-1.1,3.5-2.7,6.2-4.8,8l0,0
	c-0.4,0.4-0.9,0.7-1.4,1c-0.8,0.5-1.6,0.9-2.2,1.7l0,0.1l0,0.2c-0.1,0.6-0.1,1.2,0,1.8l0,0.2l0.1,0.2c0.5,0.6,1.1,0.9,1.7,1.2
	c0.6,0.4,1.2,0.7,1.5,1.2c0.4,0.7,0.7,1.5,1,2.3c0.2,0.5,0.4,1.1,0.6,1.7c1.2,3,3.1,5.8,5.4,8c4.9,4.3,11.1,6.1,17.1,7.8l0.1,0
	c0.6,0.1,1.1,0.5,1.5,0.9c-0.1,0.8-0.6,1.6-1.2,2.4c-0.3,0.4-0.5,0.7-0.7,1.1c-1.7,2.6-2.1,5.7-2.2,7.8v0
	c-0.2,5.3,1.1,10.8,3.7,16.1l0,0c1.5,2.8,3.3,5.4,4.9,7.7l0.3,0.4l0.5-0.2c1.1-0.4,2.3-0.8,3.5-1.3l0.9-0.4l-0.6-0.7
	C129.8,164,126.9,156.9,126.5,149.8L126.5,149.8z"/>
<path class="st0" d="M162.4,83.2c-0.9-4.2-3.3-8-5.3-11.1c-1.4-2.1-3.3-3.8-5.2-5.4c-0.5-0.5-1.1-0.9-1.6-1.4l0,0
	c-1.4-1.1-3.1-2-4.7-2.4c-0.2-0.1-0.4-0.1-0.6-0.1c-0.7,0-1.4,0.4-1.8,1.1c-0.4,0.6-0.4,1.4-0.1,2.1l0,0c0.6,0.9,1.4,1.5,2.2,2.1
	c0.4,0.3,0.8,0.6,1.2,0.9l0.1,0.1c2.8,1.9,5.3,4.3,7.3,7.2c1.9,2.7,3.2,6.1,4.1,10.5c1.1,5.7,1.3,10.7,0.6,15.2
	c-0.5,3.7-1.3,7.6-2.7,11.3c-2.7,7.1-7.4,13.4-13.5,18.4c-0.6,0.5-1.3,1-1.9,1.5c-1.6,1.3-3.2,2.6-4.9,3.8c-1.4,0.9-2.6,2.1-3.8,3.9
	c-1.2,1.6-2.8,4-2.1,6.7v0c0.3,1.1,1.2,1.8,2.2,1.8c0.5,0,1-0.2,1.4-0.5l0.1-0.1l0.1-0.1c0.3-0.6,0.5-1.3,0.8-1.9
	c0.3-0.9,0.6-1.8,1.2-2.5c0.8-1.2,1.9-2.1,3-3c0.4-0.3,0.9-0.7,1.3-1.1c1-0.8,2-1.6,3-2.4c2.3-1.8,4.7-3.7,6.8-5.9
	c5-5.1,8.9-11.4,11.4-18.4C164.4,104.1,164.8,93.7,162.4,83.2L162.4,83.2z"/>
</svg>
