<?xml version="1.0" encoding="utf-8"?>
<!-- Generator: Adobe Illustrator 19.0.0, SVG Export Plug-In . SVG Version: 6.00 Build 0)  -->
<svg version="1.1" id="图层_1" xmlns="http://www.w3.org/2000/svg" xmlns:xlink="http://www.w3.org/1999/xlink" x="0px" y="0px"
	 viewBox="55 55 90 90" style="enable-background:new 0 0 200 200;" xml:space="preserve">
<style type="text/css">
	.st0{opacity:0.4;fill:#CF9155;}
	.st1{opacity:0.4;fill:#FFFFFF;}
</style>
<circle class="st0" cx="100" cy="100" r="45"/>
<path class="st1" d="M66.4,99.2L92.7,122c0.9,0.8,2.4,0.1,2.4-1.1v-13.2c0-0.6,0.4-1.2,1-1.4c5.7-1.6,33-7.7,33.2,18.2
	c0,1.7,2.3,2,2.8,0.4c4.2-14.5,5.5-39.1-35.9-37.4c-0.8,0-1.5-0.6-1.5-1.5L95,75.5c0-1.2-1.4-1.9-2.4-1.1L66.4,97.1
	C65.8,97.6,65.8,98.6,66.4,99.2z"/>
</svg>
