<?xml version="1.0" encoding="utf-8"?>
<!-- Generator: Adobe Illustrator 19.0.0, SVG Export Plug-In . SVG Version: 6.00 Build 0)  -->
<svg version="1.1" id="图层_1" xmlns="http://www.w3.org/2000/svg" xmlns:xlink="http://www.w3.org/1999/xlink" x="0px" y="0px"
	 viewBox="0 0 200 200" style="enable-background:new 0 0 200 200;" xml:space="preserve">
<style type="text/css">
	.st0{fill:#FEF2F7;}
	.st1{fill:#F27798;}
	.st2{opacity:0.26;}
	.st3{fill:#FFFFFF;}
	.st4{fill:#FFFEFE;}
	.st5{fill:#FFFCFD;}
	.st6{fill:#FFFCFC;}
	.st7{fill:#FFFCFA;}
	.st8{fill:#FFFBFA;}
	.st9{fill:#FFFAF8;}
	.st10{fill:#FFF9F7;}
	.st11{fill:#FFF8F7;}
	.st12{fill:#FDF6F5;}
	.st13{fill:#FFF6F5;}
	.st14{fill:#FEF4F3;}
	.st15{fill:#FFF5F2;}
	.st16{fill:#FEF3F1;}
	.st17{fill:#FEF3F0;}
	.st18{fill:#FDF1EF;}
	.st19{fill:#FCF0EE;}
	.st20{fill:#FCEFED;}
	.st21{fill:#FCEFEC;}
	.st22{fill:#FCEDEB;}
	.st23{fill:#FCEEEB;}
	.st24{fill:#FBECE9;}
	.st25{fill:#FBEBE8;}
	.st26{fill:#FAEAE7;}
	.st27{fill:#FAE9E6;}
	.st28{fill:#FAE8E4;}
	.st29{fill:#FAE7E3;}
	.st30{fill:#F9E5E2;}
	.st31{fill:#F9E5E1;}
	.st32{fill:#FAE5E0;}
	.st33{fill:#FAE4DF;}
	.st34{fill:#FAE3DE;}
	.st35{fill:#FAE2DE;}
	.st36{fill:#F8E1DD;}
	.st37{fill:#F8E0DC;}
	.st38{fill:#F8DFDB;}
	.st39{fill:#F8DEDA;}
	.st40{fill:#F8DED8;}
	.st41{fill:#F8DDD8;}
	.st42{fill:#F7DCD7;}
	.st43{fill:#F7DBD6;}
	.st44{fill:#F7DAD5;}
	.st45{fill:#F7D8D4;}
	.st46{fill:#F6D8D3;}
	.st47{fill:#F8D7D2;}
	.st48{fill:#F7D7D1;}
	.st49{fill:#F6D6D0;}
	.st50{fill:#F6D5CF;}
	.st51{fill:#F6D4CE;}
	.st52{fill:#F6D3CD;}
	.st53{fill:#F6D2CC;}
	.st54{fill:#F5D1CB;}
	.st55{fill:#F5D0CA;}
	.st56{fill:#F5CFC8;}
	.st57{fill:#F5CEC7;}
	.st58{fill:#F6CDC6;}
	.st59{fill:#F5CCC5;}
	.st60{fill:#F5CBC5;}
	.st61{fill:#F4CAC3;}
	.st62{fill:#F4C9C3;}
	.st63{fill:#F4C9C2;}
	.st64{fill:#F4C8C1;}
	.st65{fill:#F3C7C0;}
	.st66{fill:#F4C7BF;}
	.st67{fill:#F4C5BE;}
	.st68{fill:#F4C4BD;}
	.st69{fill:#F4C3BB;}
	.st70{fill:#F4C2BA;}
	.st71{fill:#F3C1B9;}
	.st72{fill:#F3C1B8;}
	.st73{fill:#F2C0B7;}
	.st74{fill:#F2BEB6;}
	.st75{fill:#F3BEB5;}
	.st76{fill:#F3BCB3;}
	.st77{fill:#F1BCB3;}
	.st78{fill:#F0BAB2;}
	.st79{fill:#F1BAB1;}
	.st80{fill:#F0B9B0;}
	.st81{fill:#F1B9AF;}
	.st82{fill:#F1B8AE;}
	.st83{fill:#F1B6AD;}
	.st84{fill:#F0B6AC;}
	.st85{fill:#F0B5AB;}
	.st86{fill:#F0B4AA;}
	.st87{fill:#F1B3AA;}
	.st88{fill:#F1B3A8;}
	.st89{fill:#F1B2A7;}
	.st90{fill:#F0B1A6;}
	.st91{fill:#F0B0A5;}
	.st92{fill:#F0AFA5;}
	.st93{fill:#F0AEA4;}
	.st94{fill:#EFADA2;}
	.st95{fill:#EFACA1;}
	.st96{fill:#EFACA0;}
	.st97{fill:#EFAB9F;}
	.st98{fill:#EFAA9E;}
	.st99{fill:#EEA99D;}
	.st100{fill:#EEA89C;}
	.st101{fill:#EFA79B;}
	.st102{fill:#EEA79A;}
	.st103{fill:#EEA599;}
	.st104{fill:#EEA499;}
	.st105{fill:#EEA497;}
	.st106{fill:#EEA397;}
	.st107{fill:#EEA295;}
	.st108{fill:#EDA194;}
	.st109{fill:#EDA094;}
	.st110{fill:#EDA093;}
	.st111{fill:#ED9E91;}
	.st112{fill:#ED9D91;}
	.st113{fill:#ED9D8F;}
	.st114{fill:#EC9C8F;}
	.st115{fill:#ED9B8D;}
	.st116{fill:#EC9A8D;}
	.st117{fill:#EC9A8C;}
	.st118{fill:#EC988B;}
	.st119{fill:#EC978A;}
	.st120{fill:#EB9689;}
	.st121{fill:#EB9688;}
	.st122{fill:#EB9687;}
	.st123{fill:#EB9486;}
	.st124{fill:#EB9485;}
	.st125{fill:#EB9384;}
	.st126{fill:#EA9283;}
	.st127{fill:#EA9182;}
	.st128{fill:#EA9081;}
	.st129{fill:#EA9080;}
	.st130{fill:#EA8F7F;}
	.st131{fill:#EA8E7E;}
	.st132{fill:#E88C7C;}
	.st133{fill:#E88B7B;}
	.st134{fill:#E98A7A;}
	.st135{fill:#E98979;}
	.st136{fill:#E98878;}
	.st137{fill:#E98777;}
	.st138{fill:#E88776;}
	.st139{fill:#E88675;}
	.st140{fill:#E88574;}
	.st141{fill:#E88473;}
	.st142{fill:#E88372;}
	.st143{fill:#E88271;}
	.st144{fill:#E78170;}
	.st145{fill:#E7806F;}
	.st146{fill:#E7806E;}
	.st147{fill:#E77F6D;}
	.st148{fill:#E77E6C;}
	.st149{fill:#E77D6B;}
	.st150{fill:#E67C6A;}
	.st151{fill:#E67B69;}
	.st152{fill:#E67B68;}
	.st153{fill:#E67967;}
	.st154{fill:#E67966;}
	.st155{fill:#E67965;}
	.st156{fill:#E67764;}
	.st157{fill:#E57663;}
	.st158{fill:#E57562;}
	.st159{fill:#E67561;}
	.st160{fill:#E67360;}
	.st161{fill:#E6735F;}
	.st162{fill:#E6735E;}
	.st163{fill:#E4725D;}
	.st164{fill:#E4715D;}
	.st165{fill:#E56F5B;}
	.st166{fill:#E56F5A;}
	.st167{fill:#E56E5A;}
	.st168{fill:#E56C59;}
	.st169{fill:#E26B57;}
	.st170{fill:#E26A56;}
	.st171{fill:#E26A55;}
	.st172{fill:#E26955;}
	.st173{fill:#E36954;}
	.st174{fill:#E36853;}
	.st175{fill:#E26652;}
	.st176{fill:#E26551;}
	.st177{fill:#E26450;}
	.st178{fill:#E3644F;}
	.st179{fill:#E3644D;}
	.st180{fill:#E2624D;}
	.st181{fill:#E2614B;}
	.st182{fill:#E2604A;}
	.st183{fill:#E25F49;}
	.st184{fill:#E25F48;}
	.st185{fill:#E25E47;}
	.st186{fill:#E25D46;}
	.st187{fill:#E15D45;}
	.st188{fill:#E15C44;}
	.st189{fill:#E15B43;}
	.st190{fill:#E15A42;}
	.st191{fill:#E15941;}
	.st192{fill:#E15940;}
	.st193{fill:#DF573E;}
	.st194{fill:#DF563E;}
	.st195{fill:#DF563D;}
	.st196{fill:#DF553B;}
	.st197{fill:#DE553B;}
	.st198{fill:#DE533A;}
	.st199{fill:#DE5238;}
	.st200{fill:#DE5137;}
	.st201{fill:#DE5037;}
	.st202{fill:#DE4F36;}
	.st203{fill:#DE4E34;}
	.st204{fill:#DD4D33;}
	.st205{fill:#DD4C32;}
	.st206{fill:#DD4B31;}
	.st207{fill:#DD4A30;}
	.st208{fill:#DD492F;}
	.st209{fill:#DD482E;}
	.st210{fill:#DC472D;}
	.st211{fill:#DC472C;}
	.st212{fill:#DC462B;}
	.st213{fill:#DC462A;}
	.st214{fill:#DC4529;}
	.st215{fill:#DC4429;}
	.st216{fill:#DA4227;}
	.st217{fill:#DA4226;}
	.st218{fill:#DA4126;}
	.st219{fill:#DA4026;}
	.st220{fill:#DA3F26;}
	.st221{fill:#DA3E27;}
	.st222{fill:#D93D27;}
	.st223{fill:#DA3C27;}
	.st224{fill:#DA3B27;}
	.st225{fill:#D93A27;}
	.st226{fill:#D93927;}
	.st227{fill:#D93827;}
</style>
<circle class="st0" cx="100.4" cy="100.1" r="99.7"/>
<path class="st1" d="M66.9,128.1l6.2-4.9l2.9,4.2l-6.2,4.9c8.1,10.3,19.3,17.1,30.4,17.1c11.2,0,22.3-6.9,30.4-17l-6.3-5l2.9-4.2
	l6.3,5c5.7-8.7,9.3-19.3,9.3-30c0-26.3-19.1-47.5-42.7-47.5c-23.5,0-42.7,21.2-42.7,47.5C57.7,108.9,61.3,119.4,66.9,128.1z
	 M100.5,45.5c26.3,0,47.6,23.6,47.6,52.8s-23.5,56.5-47.7,56.5c-24.2,0-47.6-27.4-47.6-56.5C52.8,69.1,74.2,45.5,100.5,45.5z
	 M72.2,98.2l3.5-3.6c1.8,2,4.2,3,6.8,3c2.5,0,4.9-1.1,6.7-2.8l3.5,3.7c-2.6,2.8-6.3,4.4-10.1,4.4C78.6,102.8,74.8,101.1,72.2,98.2z
	 M107.8,98.2l3.5-3.6c1.8,2,4.2,3,6.8,3c2.5,0,4.9-1.1,6.7-2.8l3.5,3.7c-2.6,2.8-6.3,4.4-10.1,4.4
	C114.2,102.8,110.6,101.1,107.8,98.2L107.8,98.2z M90.6,123.1l3.5-3.6c1.7,1.8,3.8,2.8,6.3,2.8c2.3,0,4.5-1,6.1-2.6l3.5,3.7
	c-2.5,2.6-6,4.2-9.6,4.2C96.7,127.5,93.1,125.9,90.6,123.1L90.6,123.1z"/>
<g id="XMLID_1_" class="st2">
	<ellipse class="st3" cx="74.8" cy="111.2" rx="11.7" ry="7.3"/>
	<ellipse class="st3" cx="74.8" cy="111.2" rx="11.6" ry="7.2"/>
	<ellipse class="st4" cx="74.8" cy="111.2" rx="11.6" ry="7.2"/>
	<ellipse class="st5" cx="74.8" cy="111.2" rx="11.6" ry="7.2"/>
	<ellipse class="st6" cx="74.8" cy="111.2" rx="11.5" ry="7.2"/>
	<ellipse class="st7" cx="74.8" cy="111.2" rx="11.5" ry="7.1"/>
	<ellipse class="st8" cx="74.8" cy="111.2" rx="11.4" ry="7.1"/>
	<ellipse class="st9" cx="74.8" cy="111.2" rx="11.4" ry="7.1"/>
	<ellipse class="st10" cx="74.8" cy="111.2" rx="11.4" ry="7.1"/>
	<ellipse class="st11" cx="74.8" cy="111.2" rx="11.3" ry="7.1"/>
	<ellipse class="st12" cx="74.8" cy="111.2" rx="11.3" ry="7"/>
	<ellipse class="st13" cx="74.8" cy="111.2" rx="11.2" ry="7"/>
	<ellipse class="st14" cx="74.8" cy="111.2" rx="11.2" ry="7"/>
	<ellipse class="st15" cx="74.8" cy="111.2" rx="11.2" ry="7"/>
	<ellipse class="st16" cx="74.8" cy="111.2" rx="11.1" ry="6.9"/>
	<ellipse class="st17" cx="74.8" cy="111.2" rx="11.1" ry="6.9"/>
	<ellipse class="st18" cx="74.8" cy="111.2" rx="11" ry="6.8"/>
	<ellipse class="st19" cx="74.8" cy="111.2" rx="10.9" ry="6.8"/>
	<ellipse class="st20" cx="74.8" cy="111.2" rx="10.9" ry="6.8"/>
	<ellipse class="st21" cx="74.8" cy="111.2" rx="10.9" ry="6.8"/>
	<ellipse class="st22" cx="74.8" cy="111.2" rx="10.8" ry="6.7"/>
	<ellipse class="st23" cx="74.8" cy="111.2" rx="10.8" ry="6.7"/>
	<ellipse class="st24" cx="74.8" cy="111.2" rx="10.7" ry="6.7"/>
	<ellipse class="st25" cx="74.8" cy="111.2" rx="10.7" ry="6.7"/>
	<ellipse class="st26" cx="74.8" cy="111.2" rx="10.7" ry="6.6"/>
	<ellipse class="st27" cx="74.8" cy="111.2" rx="10.6" ry="6.6"/>
	<ellipse class="st28" cx="74.8" cy="111.2" rx="10.6" ry="6.6"/>
	<ellipse class="st29" cx="74.8" cy="111.2" rx="10.5" ry="6.6"/>
	<ellipse class="st30" cx="74.8" cy="111.2" rx="10.5" ry="6.5"/>
	<ellipse class="st31" cx="74.8" cy="111.2" rx="10.5" ry="6.5"/>
	<ellipse class="st32" cx="74.8" cy="111.2" rx="10.4" ry="6.5"/>
	<ellipse class="st33" cx="74.8" cy="111.2" rx="10.4" ry="6.5"/>
	<ellipse class="st34" cx="74.8" cy="111.2" rx="10.3" ry="6.4"/>
	<ellipse class="st35" cx="74.8" cy="111.2" rx="10.3" ry="6.4"/>
	<ellipse class="st36" cx="74.8" cy="111.2" rx="10.2" ry="6.4"/>
	<ellipse class="st37" cx="74.8" cy="111.2" rx="10.2" ry="6.4"/>
	<ellipse class="st38" cx="74.8" cy="111.2" rx="10.1" ry="6.3"/>
	<ellipse class="st39" cx="74.8" cy="111.2" rx="10.1" ry="6.3"/>
	<ellipse class="st40" cx="74.8" cy="111.2" rx="10.1" ry="6.3"/>
	<ellipse class="st41" cx="74.8" cy="111.2" rx="10" ry="6.3"/>
	<ellipse class="st42" cx="74.8" cy="111.2" rx="10" ry="6.2"/>
	<ellipse class="st43" cx="74.8" cy="111.2" rx="9.9" ry="6.2"/>
	<ellipse class="st44" cx="74.8" cy="111.2" rx="9.9" ry="6.1"/>
	<ellipse class="st45" cx="74.8" cy="111.2" rx="9.9" ry="6.1"/>
	<ellipse class="st46" cx="74.8" cy="111.2" rx="9.8" ry="6.1"/>
	<ellipse class="st47" cx="74.8" cy="111.2" rx="9.8" ry="6.1"/>
	<ellipse class="st48" cx="74.8" cy="111.2" rx="9.7" ry="6"/>
	<ellipse class="st49" cx="74.8" cy="111.2" rx="9.7" ry="6"/>
	<ellipse class="st50" cx="74.8" cy="111.2" rx="9.7" ry="6"/>
	<ellipse class="st51" cx="74.8" cy="111.2" rx="9.6" ry="6"/>
	<ellipse class="st52" cx="74.8" cy="111.2" rx="9.5" ry="5.9"/>
	<ellipse class="st53" cx="74.8" cy="111.2" rx="9.5" ry="5.9"/>
	<ellipse class="st54" cx="74.8" cy="111.2" rx="9.5" ry="5.9"/>
	<ellipse class="st55" cx="74.8" cy="111.2" rx="9.4" ry="5.9"/>
	<ellipse class="st55" cx="74.8" cy="111.2" rx="9.4" ry="5.8"/>
	<ellipse class="st56" cx="74.8" cy="111.2" rx="9.3" ry="5.8"/>
	<ellipse class="st57" cx="74.8" cy="111.2" rx="9.3" ry="5.8"/>
	<ellipse class="st58" cx="74.8" cy="111.2" rx="9.3" ry="5.8"/>
	<ellipse class="st59" cx="74.8" cy="111.2" rx="9.2" ry="5.7"/>
	<ellipse class="st60" cx="74.8" cy="111.2" rx="9.2" ry="5.7"/>
	<ellipse class="st61" cx="74.8" cy="111.2" rx="9.1" ry="5.7"/>
	<ellipse class="st62" cx="74.8" cy="111.2" rx="9.1" ry="5.7"/>
	<ellipse class="st63" cx="74.8" cy="111.2" rx="9.1" ry="5.6"/>
	<ellipse class="st64" cx="74.8" cy="111.2" rx="9" ry="5.6"/>
	<ellipse class="st65" cx="74.8" cy="111.2" rx="9" ry="5.6"/>
	<ellipse class="st66" cx="74.8" cy="111.2" rx="8.9" ry="5.6"/>
	<ellipse class="st67" cx="74.8" cy="111.2" rx="8.9" ry="5.5"/>
	<ellipse class="st68" cx="74.8" cy="111.2" rx="8.8" ry="5.5"/>
	<ellipse class="st69" cx="74.8" cy="111.2" rx="8.8" ry="5.4"/>
	<ellipse class="st70" cx="74.8" cy="111.2" rx="8.7" ry="5.4"/>
	<ellipse class="st71" cx="74.8" cy="111.2" rx="8.7" ry="5.4"/>
	<ellipse class="st72" cx="74.8" cy="111.2" rx="8.7" ry="5.4"/>
	<ellipse class="st73" cx="74.8" cy="111.2" rx="8.6" ry="5.3"/>
	<ellipse class="st74" cx="74.8" cy="111.2" rx="8.6" ry="5.3"/>
	<ellipse class="st75" cx="74.8" cy="111.2" rx="8.5" ry="5.3"/>
	<ellipse class="st76" cx="74.8" cy="111.2" rx="8.5" ry="5.3"/>
	<ellipse class="st77" cx="74.8" cy="111.2" rx="8.5" ry="5.2"/>
	<ellipse class="st78" cx="74.8" cy="111.2" rx="8.4" ry="5.2"/>
	<ellipse class="st79" cx="74.8" cy="111.2" rx="8.4" ry="5.2"/>
	<ellipse class="st80" cx="74.8" cy="111.2" rx="8.3" ry="5.2"/>
	<ellipse class="st81" cx="74.8" cy="111.2" rx="8.2" ry="5.1"/>
	<ellipse class="st82" cx="74.8" cy="111.2" rx="8.2" ry="5.1"/>
	<ellipse class="st83" cx="74.8" cy="111.2" rx="8.2" ry="5.1"/>
	<ellipse class="st84" cx="74.8" cy="111.2" rx="8.1" ry="5.1"/>
	<ellipse class="st85" cx="74.8" cy="111.2" rx="8.1" ry="5"/>
	<ellipse class="st86" cx="74.8" cy="111.2" rx="8" ry="5"/>
	<ellipse class="st87" cx="74.8" cy="111.2" rx="8" ry="5"/>
	<ellipse class="st88" cx="74.8" cy="111.2" rx="8" ry="5"/>
	<ellipse class="st89" cx="74.8" cy="111.2" rx="7.9" ry="4.9"/>
	<ellipse class="st90" cx="74.8" cy="111.2" rx="7.9" ry="4.9"/>
	<ellipse class="st91" cx="74.8" cy="111.2" rx="7.8" ry="4.9"/>
	<ellipse class="st92" cx="74.8" cy="111.2" rx="7.8" ry="4.9"/>
	<ellipse class="st93" cx="74.8" cy="111.2" rx="7.8" ry="4.9"/>
	<ellipse class="st94" cx="74.8" cy="111.2" rx="7.7" ry="4.8"/>
	<ellipse class="st95" cx="74.8" cy="111.2" rx="7.7" ry="4.8"/>
	<ellipse class="st96" cx="74.8" cy="111.2" rx="7.6" ry="4.7"/>
	<ellipse class="st97" cx="74.8" cy="111.2" rx="7.6" ry="4.7"/>
	<ellipse class="st98" cx="74.8" cy="111.2" rx="7.5" ry="4.7"/>
	<ellipse class="st99" cx="74.8" cy="111.2" rx="7.5" ry="4.7"/>
	<ellipse class="st100" cx="74.8" cy="111.2" rx="7.4" ry="4.6"/>
	<ellipse class="st101" cx="74.8" cy="111.2" rx="7.4" ry="4.6"/>
	<ellipse class="st102" cx="74.8" cy="111.2" rx="7.4" ry="4.6"/>
	<ellipse class="st103" cx="74.8" cy="111.2" rx="7.3" ry="4.6"/>
	<ellipse class="st104" cx="74.8" cy="111.2" rx="7.3" ry="4.5"/>
	<ellipse class="st105" cx="74.8" cy="111.2" rx="7.2" ry="4.5"/>
	<ellipse class="st106" cx="74.8" cy="111.2" rx="7.2" ry="4.5"/>
	<ellipse class="st107" cx="74.8" cy="111.2" rx="7.2" ry="4.5"/>
	<ellipse class="st108" cx="74.8" cy="111.2" rx="7.1" ry="4.4"/>
	<ellipse class="st109" cx="74.8" cy="111.2" rx="7.1" ry="4.4"/>
	<ellipse class="st110" cx="74.8" cy="111.2" rx="7" ry="4.4"/>
	<ellipse class="st111" cx="74.8" cy="111.2" rx="7" ry="4.4"/>
	<ellipse class="st112" cx="74.8" cy="111.2" rx="7" ry="4.3"/>
	<ellipse class="st113" cx="74.8" cy="111.2" rx="6.9" ry="4.3"/>
	<ellipse class="st114" cx="74.8" cy="111.2" rx="6.8" ry="4.3"/>
	<ellipse class="st115" cx="74.8" cy="111.2" rx="6.8" ry="4.3"/>
	<ellipse class="st116" cx="74.8" cy="111.2" rx="6.8" ry="4.2"/>
	<ellipse class="st117" cx="74.8" cy="111.2" rx="6.7" ry="4.2"/>
	<ellipse class="st118" cx="74.8" cy="111.2" rx="6.7" ry="4.2"/>
	<ellipse class="st119" cx="74.8" cy="111.2" rx="6.6" ry="4.2"/>
	<ellipse class="st120" cx="74.8" cy="111.2" rx="6.6" ry="4.1"/>
	<ellipse class="st121" cx="74.8" cy="111.2" rx="6.6" ry="4.1"/>
	<ellipse class="st122" cx="74.8" cy="111.2" rx="6.5" ry="4"/>
	<ellipse class="st123" cx="74.8" cy="111.2" rx="6.5" ry="4"/>
	<ellipse class="st124" cx="74.8" cy="111.2" rx="6.4" ry="4"/>
	<ellipse class="st125" cx="74.8" cy="111.2" rx="6.4" ry="4"/>
	<ellipse class="st126" cx="74.8" cy="111.2" rx="6.4" ry="3.9"/>
	<ellipse class="st127" cx="74.8" cy="111.2" rx="6.3" ry="3.9"/>
	<ellipse class="st128" cx="74.8" cy="111.2" rx="6.3" ry="3.9"/>
	<ellipse class="st129" cx="74.8" cy="111.2" rx="6.2" ry="3.9"/>
	<ellipse class="st130" cx="74.8" cy="111.2" rx="6.1" ry="3.8"/>
	<ellipse class="st131" cx="74.8" cy="111.2" rx="6.1" ry="3.8"/>
	<ellipse class="st132" cx="74.8" cy="111.2" rx="6.1" ry="3.8"/>
	<ellipse class="st133" cx="74.8" cy="111.2" rx="6" ry="3.8"/>
	<ellipse class="st134" cx="74.8" cy="111.2" rx="6" ry="3.7"/>
	<ellipse class="st135" cx="74.8" cy="111.2" rx="6" ry="3.7"/>
	<ellipse class="st136" cx="74.8" cy="111.2" rx="5.9" ry="3.7"/>
	<ellipse class="st137" cx="74.8" cy="111.2" rx="5.9" ry="3.7"/>
	<ellipse class="st138" cx="74.8" cy="111.2" rx="5.8" ry="3.6"/>
	<ellipse class="st139" cx="74.8" cy="111.2" rx="5.8" ry="3.6"/>
	<ellipse class="st140" cx="74.8" cy="111.2" rx="5.8" ry="3.6"/>
	<ellipse class="st141" cx="74.8" cy="111.2" rx="5.7" ry="3.6"/>
	<ellipse class="st142" cx="74.8" cy="111.2" rx="5.7" ry="3.5"/>
	<ellipse class="st143" cx="74.8" cy="111.2" rx="5.6" ry="3.5"/>
	<ellipse class="st144" cx="74.8" cy="111.2" rx="5.6" ry="3.5"/>
	<ellipse class="st145" cx="74.8" cy="111.2" rx="5.6" ry="3.5"/>
	<ellipse class="st146" cx="74.8" cy="111.2" rx="5.5" ry="3.4"/>
	<ellipse class="st147" cx="74.8" cy="111.2" rx="5.4" ry="3.4"/>
	<ellipse class="st148" cx="74.8" cy="111.2" rx="5.4" ry="3.3"/>
	<ellipse class="st149" cx="74.8" cy="111.2" rx="5.3" ry="3.3"/>
	<ellipse class="st150" cx="74.8" cy="111.2" rx="5.3" ry="3.3"/>
	<ellipse class="st151" cx="74.8" cy="111.2" rx="5.3" ry="3.3"/>
	<ellipse class="st152" cx="74.8" cy="111.2" rx="5.2" ry="3.2"/>
	<ellipse class="st153" cx="74.8" cy="111.2" rx="5.2" ry="3.2"/>
	<ellipse class="st154" cx="74.8" cy="111.2" rx="5.1" ry="3.2"/>
	<ellipse class="st155" cx="74.8" cy="111.2" rx="5.1" ry="3.2"/>
	<ellipse class="st156" cx="74.8" cy="111.2" rx="5.1" ry="3.1"/>
	<ellipse class="st157" cx="74.8" cy="111.2" rx="5" ry="3.1"/>
	<ellipse class="st158" cx="74.8" cy="111.2" rx="5" ry="3.1"/>
	<ellipse class="st159" cx="74.8" cy="111.2" rx="4.9" ry="3.1"/>
	<ellipse class="st160" cx="74.8" cy="111.2" rx="4.9" ry="3"/>
	<ellipse class="st161" cx="74.8" cy="111.2" rx="4.9" ry="3"/>
	<ellipse class="st162" cx="74.8" cy="111.2" rx="4.8" ry="3"/>
	<ellipse class="st163" cx="74.8" cy="111.2" rx="4.7" ry="3"/>
	<ellipse class="st164" cx="74.8" cy="111.2" rx="4.7" ry="2.9"/>
	<ellipse class="st165" cx="74.8" cy="111.2" rx="4.7" ry="2.9"/>
	<ellipse class="st166" cx="74.8" cy="111.2" rx="4.6" ry="2.9"/>
	<ellipse class="st167" cx="74.8" cy="111.2" rx="4.6" ry="2.9"/>
	<ellipse class="st168" cx="74.8" cy="111.2" rx="4.5" ry="2.8"/>
	<ellipse class="st169" cx="74.8" cy="111.2" rx="4.5" ry="2.8"/>
	<ellipse class="st170" cx="74.8" cy="111.2" rx="4.5" ry="2.7"/>
	<ellipse class="st171" cx="74.8" cy="111.2" rx="4.4" ry="2.7"/>
	<ellipse class="st172" cx="74.8" cy="111.2" rx="4.4" ry="2.7"/>
	<ellipse class="st173" cx="74.8" cy="111.2" rx="4.3" ry="2.7"/>
	<ellipse class="st174" cx="74.8" cy="111.2" rx="4.3" ry="2.7"/>
	<ellipse class="st175" cx="74.8" cy="111.2" rx="4.3" ry="2.6"/>
	<ellipse class="st176" cx="74.8" cy="111.2" rx="4.2" ry="2.6"/>
	<ellipse class="st177" cx="74.8" cy="111.2" rx="4.2" ry="2.6"/>
	<ellipse class="st178" cx="74.8" cy="111.2" rx="4.1" ry="2.6"/>
	<ellipse class="st179" cx="74.8" cy="111.2" rx="4.1" ry="2.5"/>
	<ellipse class="st180" cx="74.8" cy="111.2" rx="4" ry="2.5"/>
	<ellipse class="st181" cx="74.8" cy="111.2" rx="4" ry="2.5"/>
	<ellipse class="st182" cx="74.8" cy="111.2" rx="3.9" ry="2.5"/>
	<ellipse class="st183" cx="74.8" cy="111.2" rx="3.9" ry="2.4"/>
	<ellipse class="st184" cx="74.8" cy="111.2" rx="3.9" ry="2.4"/>
	<ellipse class="st185" cx="74.8" cy="111.2" rx="3.8" ry="2.4"/>
	<ellipse class="st186" cx="74.8" cy="111.2" rx="3.8" ry="2.4"/>
	<ellipse class="st187" cx="74.8" cy="111.2" rx="3.7" ry="2.3"/>
	<ellipse class="st188" cx="74.8" cy="111.2" rx="3.7" ry="2.3"/>
	<ellipse class="st189" cx="74.8" cy="111.2" rx="3.7" ry="2.3"/>
	<ellipse class="st190" cx="74.8" cy="111.2" rx="3.6" ry="2.3"/>
	<ellipse class="st191" cx="74.8" cy="111.2" rx="3.6" ry="2.2"/>
	<ellipse class="st192" cx="74.8" cy="111.2" rx="3.5" ry="2.2"/>
	<ellipse class="st193" cx="74.8" cy="111.2" rx="3.5" ry="2.2"/>
	<ellipse class="st194" cx="74.8" cy="111.2" rx="3.5" ry="2.2"/>
	<ellipse class="st195" cx="74.8" cy="111.2" rx="3.4" ry="2.1"/>
	<ellipse class="st196" cx="74.8" cy="111.2" rx="3.3" ry="2.1"/>
	<ellipse class="st197" cx="74.8" cy="111.2" rx="3.3" ry="2"/>
	<ellipse class="st198" cx="74.8" cy="111.2" rx="3.3" ry="2"/>
	<ellipse class="st199" cx="74.8" cy="111.2" rx="3.2" ry="2"/>
	<ellipse class="st200" cx="74.8" cy="111.2" rx="3.2" ry="2"/>
	<ellipse class="st201" cx="74.8" cy="111.2" rx="3.1" ry="1.9"/>
	<ellipse class="st202" cx="74.8" cy="111.2" rx="3.1" ry="1.9"/>
	<ellipse class="st203" cx="74.8" cy="111.2" rx="3.1" ry="1.9"/>
	<ellipse class="st203" cx="74.8" cy="111.2" rx="3" ry="1.9"/>
	<ellipse class="st204" cx="74.8" cy="111.2" rx="3" ry="1.8"/>
	<ellipse class="st205" cx="74.8" cy="111.2" rx="2.9" ry="1.8"/>
	<ellipse class="st206" cx="74.8" cy="111.2" rx="2.9" ry="1.8"/>
	<ellipse class="st207" cx="74.8" cy="111.2" rx="2.9" ry="1.8"/>
	<ellipse class="st208" cx="74.8" cy="111.2" rx="2.8" ry="1.7"/>
	<ellipse class="st209" cx="74.8" cy="111.2" rx="2.7" ry="1.7"/>
	<ellipse class="st210" cx="74.8" cy="111.2" rx="2.7" ry="1.7"/>
	<ellipse class="st211" cx="74.8" cy="111.2" rx="2.6" ry="1.7"/>
	<ellipse class="st212" cx="74.8" cy="111.2" rx="2.6" ry="1.6"/>
	<ellipse class="st213" cx="74.8" cy="111.2" rx="2.6" ry="1.6"/>
	<ellipse class="st214" cx="74.8" cy="111.2" rx="2.5" ry="1.6"/>
	<ellipse class="st215" cx="74.8" cy="111.2" rx="2.5" ry="1.6"/>
	<ellipse class="st216" cx="74.8" cy="111.2" rx="2.4" ry="1.5"/>
	<ellipse class="st217" cx="74.8" cy="111.2" rx="2.4" ry="1.5"/>
	<ellipse class="st218" cx="74.8" cy="111.2" rx="2.4" ry="1.5"/>
	<ellipse class="st218" cx="74.8" cy="111.2" rx="2.3" ry="1.5"/>
	<ellipse class="st219" cx="74.8" cy="111.2" rx="2.3" ry="1.4"/>
	<ellipse class="st220" cx="74.8" cy="111.2" rx="2.2" ry="1.4"/>
	<ellipse class="st221" cx="74.8" cy="111.2" rx="2.2" ry="1.3"/>
	<ellipse class="st221" cx="74.8" cy="111.2" rx="2.2" ry="1.3"/>
	<ellipse class="st222" cx="74.8" cy="111.2" rx="2.1" ry="1.3"/>
	<ellipse class="st223" cx="74.8" cy="111.2" rx="2" ry="1.3"/>
	<ellipse class="st224" cx="74.8" cy="111.2" rx="2" ry="1.2"/>
	<ellipse class="st224" cx="74.8" cy="111.2" rx="2" ry="1.2"/>
	<ellipse class="st225" cx="74.8" cy="111.2" rx="1.9" ry="1.2"/>
	<ellipse class="st225" cx="74.8" cy="111.2" rx="1.9" ry="1.2"/>
	<ellipse class="st226" cx="74.8" cy="111.2" rx="1.8" ry="1.1"/>
	<ellipse class="st227" cx="74.8" cy="111.2" rx="1.8" ry="1.1"/>
</g>
<g id="XMLID_7_" class="st2">
	<ellipse class="st3" cx="125.4" cy="111.2" rx="11.7" ry="7.3"/>
	<ellipse class="st3" cx="125.4" cy="111.2" rx="11.6" ry="7.2"/>
	<ellipse class="st4" cx="125.4" cy="111.2" rx="11.6" ry="7.2"/>
	<ellipse class="st5" cx="125.4" cy="111.2" rx="11.6" ry="7.2"/>
	<ellipse class="st6" cx="125.4" cy="111.2" rx="11.5" ry="7.2"/>
	<ellipse class="st7" cx="125.4" cy="111.2" rx="11.5" ry="7.1"/>
	<ellipse class="st8" cx="125.4" cy="111.2" rx="11.4" ry="7.1"/>
	<ellipse class="st9" cx="125.4" cy="111.2" rx="11.4" ry="7.1"/>
	<ellipse class="st10" cx="125.4" cy="111.2" rx="11.4" ry="7.1"/>
	<ellipse class="st11" cx="125.4" cy="111.2" rx="11.3" ry="7.1"/>
	<ellipse class="st12" cx="125.4" cy="111.2" rx="11.3" ry="7"/>
	<ellipse class="st13" cx="125.4" cy="111.2" rx="11.2" ry="7"/>
	<ellipse class="st14" cx="125.4" cy="111.2" rx="11.2" ry="7"/>
	<ellipse class="st15" cx="125.4" cy="111.2" rx="11.2" ry="7"/>
	<ellipse class="st16" cx="125.4" cy="111.2" rx="11.1" ry="6.9"/>
	<ellipse class="st17" cx="125.4" cy="111.2" rx="11.1" ry="6.9"/>
	<ellipse class="st18" cx="125.4" cy="111.2" rx="11" ry="6.8"/>
	<ellipse class="st19" cx="125.4" cy="111.2" rx="10.9" ry="6.8"/>
	<ellipse class="st20" cx="125.4" cy="111.2" rx="10.9" ry="6.8"/>
	<ellipse class="st21" cx="125.4" cy="111.2" rx="10.9" ry="6.8"/>
	<ellipse class="st22" cx="125.4" cy="111.2" rx="10.8" ry="6.7"/>
	<ellipse class="st23" cx="125.4" cy="111.2" rx="10.8" ry="6.7"/>
	<ellipse class="st24" cx="125.4" cy="111.2" rx="10.7" ry="6.7"/>
	<ellipse class="st25" cx="125.4" cy="111.2" rx="10.7" ry="6.7"/>
	<ellipse class="st26" cx="125.4" cy="111.2" rx="10.7" ry="6.6"/>
	<ellipse class="st27" cx="125.4" cy="111.2" rx="10.6" ry="6.6"/>
	<ellipse class="st28" cx="125.4" cy="111.2" rx="10.6" ry="6.6"/>
	<ellipse class="st29" cx="125.4" cy="111.2" rx="10.5" ry="6.6"/>
	<ellipse class="st30" cx="125.4" cy="111.2" rx="10.5" ry="6.5"/>
	<ellipse class="st31" cx="125.4" cy="111.2" rx="10.5" ry="6.5"/>
	<ellipse class="st32" cx="125.4" cy="111.2" rx="10.4" ry="6.5"/>
	<ellipse class="st33" cx="125.4" cy="111.2" rx="10.4" ry="6.5"/>
	<ellipse class="st34" cx="125.4" cy="111.2" rx="10.3" ry="6.4"/>
	<ellipse class="st35" cx="125.4" cy="111.2" rx="10.3" ry="6.4"/>
	<ellipse class="st36" cx="125.4" cy="111.2" rx="10.2" ry="6.4"/>
	<ellipse class="st37" cx="125.4" cy="111.2" rx="10.2" ry="6.4"/>
	<ellipse class="st38" cx="125.4" cy="111.2" rx="10.1" ry="6.3"/>
	<ellipse class="st39" cx="125.4" cy="111.2" rx="10.1" ry="6.3"/>
	<ellipse class="st40" cx="125.4" cy="111.2" rx="10.1" ry="6.3"/>
	<ellipse class="st41" cx="125.4" cy="111.2" rx="10" ry="6.3"/>
	<ellipse class="st42" cx="125.4" cy="111.2" rx="10" ry="6.2"/>
	<ellipse class="st43" cx="125.4" cy="111.2" rx="9.9" ry="6.2"/>
	<ellipse class="st44" cx="125.4" cy="111.2" rx="9.9" ry="6.1"/>
	<ellipse class="st45" cx="125.4" cy="111.2" rx="9.9" ry="6.1"/>
	<ellipse class="st46" cx="125.4" cy="111.2" rx="9.8" ry="6.1"/>
	<ellipse class="st47" cx="125.4" cy="111.2" rx="9.8" ry="6.1"/>
	<ellipse class="st48" cx="125.4" cy="111.2" rx="9.7" ry="6"/>
	<ellipse class="st49" cx="125.4" cy="111.2" rx="9.7" ry="6"/>
	<ellipse class="st50" cx="125.4" cy="111.2" rx="9.7" ry="6"/>
	<ellipse class="st51" cx="125.4" cy="111.2" rx="9.6" ry="6"/>
	<ellipse class="st52" cx="125.4" cy="111.2" rx="9.5" ry="5.9"/>
	<ellipse class="st53" cx="125.4" cy="111.2" rx="9.5" ry="5.9"/>
	<ellipse class="st54" cx="125.4" cy="111.2" rx="9.5" ry="5.9"/>
	<ellipse class="st55" cx="125.4" cy="111.2" rx="9.4" ry="5.9"/>
	<ellipse class="st55" cx="125.4" cy="111.2" rx="9.4" ry="5.8"/>
	<ellipse class="st56" cx="125.4" cy="111.2" rx="9.3" ry="5.8"/>
	<ellipse class="st57" cx="125.4" cy="111.2" rx="9.3" ry="5.8"/>
	<ellipse class="st58" cx="125.4" cy="111.2" rx="9.3" ry="5.8"/>
	<ellipse class="st59" cx="125.4" cy="111.2" rx="9.2" ry="5.7"/>
	<ellipse class="st60" cx="125.4" cy="111.2" rx="9.2" ry="5.7"/>
	<ellipse class="st61" cx="125.4" cy="111.2" rx="9.1" ry="5.7"/>
	<ellipse class="st62" cx="125.4" cy="111.2" rx="9.1" ry="5.7"/>
	<ellipse class="st63" cx="125.4" cy="111.2" rx="9.1" ry="5.6"/>
	<ellipse class="st64" cx="125.4" cy="111.2" rx="9" ry="5.6"/>
	<ellipse class="st65" cx="125.4" cy="111.2" rx="9" ry="5.6"/>
	<ellipse class="st66" cx="125.4" cy="111.2" rx="8.9" ry="5.6"/>
	<ellipse class="st67" cx="125.4" cy="111.2" rx="8.9" ry="5.5"/>
	<ellipse class="st68" cx="125.4" cy="111.2" rx="8.8" ry="5.5"/>
	<ellipse class="st69" cx="125.4" cy="111.2" rx="8.8" ry="5.4"/>
	<ellipse class="st70" cx="125.4" cy="111.2" rx="8.7" ry="5.4"/>
	<ellipse class="st71" cx="125.4" cy="111.2" rx="8.7" ry="5.4"/>
	<ellipse class="st72" cx="125.4" cy="111.2" rx="8.7" ry="5.4"/>
	<ellipse class="st73" cx="125.4" cy="111.2" rx="8.6" ry="5.3"/>
	<ellipse class="st74" cx="125.4" cy="111.2" rx="8.6" ry="5.3"/>
	<ellipse class="st75" cx="125.4" cy="111.2" rx="8.5" ry="5.3"/>
	<ellipse class="st76" cx="125.4" cy="111.2" rx="8.5" ry="5.3"/>
	<ellipse class="st77" cx="125.4" cy="111.2" rx="8.5" ry="5.2"/>
	<ellipse class="st78" cx="125.4" cy="111.2" rx="8.4" ry="5.2"/>
	<ellipse class="st79" cx="125.4" cy="111.2" rx="8.4" ry="5.2"/>
	<ellipse class="st80" cx="125.4" cy="111.2" rx="8.3" ry="5.2"/>
	<ellipse class="st81" cx="125.4" cy="111.2" rx="8.2" ry="5.1"/>
	<ellipse class="st82" cx="125.4" cy="111.2" rx="8.2" ry="5.1"/>
	<ellipse class="st83" cx="125.4" cy="111.2" rx="8.2" ry="5.1"/>
	<ellipse class="st84" cx="125.4" cy="111.2" rx="8.1" ry="5.1"/>
	<ellipse class="st85" cx="125.4" cy="111.2" rx="8.1" ry="5"/>
	<ellipse class="st86" cx="125.4" cy="111.2" rx="8" ry="5"/>
	<ellipse class="st87" cx="125.4" cy="111.2" rx="8" ry="5"/>
	<ellipse class="st88" cx="125.4" cy="111.2" rx="8" ry="5"/>
	<ellipse class="st89" cx="125.4" cy="111.2" rx="7.9" ry="4.9"/>
	<ellipse class="st90" cx="125.4" cy="111.2" rx="7.9" ry="4.9"/>
	<ellipse class="st91" cx="125.4" cy="111.2" rx="7.8" ry="4.9"/>
	<ellipse class="st92" cx="125.4" cy="111.2" rx="7.8" ry="4.9"/>
	<ellipse class="st93" cx="125.4" cy="111.2" rx="7.8" ry="4.9"/>
	<ellipse class="st94" cx="125.4" cy="111.2" rx="7.7" ry="4.8"/>
	<ellipse class="st95" cx="125.4" cy="111.2" rx="7.7" ry="4.8"/>
	<ellipse class="st96" cx="125.4" cy="111.2" rx="7.6" ry="4.7"/>
	<ellipse class="st97" cx="125.4" cy="111.2" rx="7.6" ry="4.7"/>
	<ellipse class="st98" cx="125.4" cy="111.2" rx="7.5" ry="4.7"/>
	<ellipse class="st99" cx="125.4" cy="111.2" rx="7.5" ry="4.7"/>
	<ellipse class="st100" cx="125.4" cy="111.2" rx="7.4" ry="4.6"/>
	<ellipse class="st101" cx="125.4" cy="111.2" rx="7.4" ry="4.6"/>
	<ellipse class="st102" cx="125.4" cy="111.2" rx="7.4" ry="4.6"/>
	<ellipse class="st103" cx="125.4" cy="111.2" rx="7.3" ry="4.6"/>
	<ellipse class="st104" cx="125.4" cy="111.2" rx="7.3" ry="4.5"/>
	<ellipse class="st105" cx="125.4" cy="111.2" rx="7.2" ry="4.5"/>
	<ellipse class="st106" cx="125.4" cy="111.2" rx="7.2" ry="4.5"/>
	<ellipse class="st107" cx="125.4" cy="111.2" rx="7.2" ry="4.5"/>
	<ellipse class="st108" cx="125.4" cy="111.2" rx="7.1" ry="4.4"/>
	<ellipse class="st109" cx="125.4" cy="111.2" rx="7.1" ry="4.4"/>
	<ellipse class="st110" cx="125.4" cy="111.2" rx="7" ry="4.4"/>
	<ellipse class="st111" cx="125.4" cy="111.2" rx="7" ry="4.4"/>
	<ellipse class="st112" cx="125.4" cy="111.2" rx="7" ry="4.3"/>
	<ellipse class="st113" cx="125.4" cy="111.2" rx="6.9" ry="4.3"/>
	<ellipse class="st114" cx="125.4" cy="111.2" rx="6.8" ry="4.3"/>
	<ellipse class="st115" cx="125.4" cy="111.2" rx="6.8" ry="4.3"/>
	<ellipse class="st116" cx="125.4" cy="111.2" rx="6.8" ry="4.2"/>
	<ellipse class="st117" cx="125.4" cy="111.2" rx="6.7" ry="4.2"/>
	<ellipse class="st118" cx="125.4" cy="111.2" rx="6.7" ry="4.2"/>
	<ellipse class="st119" cx="125.4" cy="111.2" rx="6.6" ry="4.2"/>
	<ellipse class="st120" cx="125.4" cy="111.2" rx="6.6" ry="4.1"/>
	<ellipse class="st121" cx="125.4" cy="111.2" rx="6.6" ry="4.1"/>
	<ellipse class="st122" cx="125.4" cy="111.2" rx="6.5" ry="4"/>
	<ellipse class="st123" cx="125.4" cy="111.2" rx="6.5" ry="4"/>
	<ellipse class="st124" cx="125.4" cy="111.2" rx="6.4" ry="4"/>
	<ellipse class="st125" cx="125.4" cy="111.2" rx="6.4" ry="4"/>
	<ellipse class="st126" cx="125.4" cy="111.2" rx="6.4" ry="3.9"/>
	<ellipse class="st127" cx="125.4" cy="111.2" rx="6.3" ry="3.9"/>
	<ellipse class="st128" cx="125.4" cy="111.2" rx="6.3" ry="3.9"/>
	<ellipse class="st129" cx="125.4" cy="111.2" rx="6.2" ry="3.9"/>
	<ellipse class="st130" cx="125.4" cy="111.2" rx="6.1" ry="3.8"/>
	<ellipse class="st131" cx="125.4" cy="111.2" rx="6.1" ry="3.8"/>
	<ellipse class="st132" cx="125.4" cy="111.2" rx="6.1" ry="3.8"/>
	<ellipse class="st133" cx="125.4" cy="111.2" rx="6" ry="3.8"/>
	<ellipse class="st134" cx="125.4" cy="111.2" rx="6" ry="3.7"/>
	<ellipse class="st135" cx="125.4" cy="111.2" rx="6" ry="3.7"/>
	<ellipse class="st136" cx="125.4" cy="111.2" rx="5.9" ry="3.7"/>
	<ellipse class="st137" cx="125.4" cy="111.2" rx="5.9" ry="3.7"/>
	<ellipse class="st138" cx="125.4" cy="111.2" rx="5.8" ry="3.6"/>
	<ellipse class="st139" cx="125.4" cy="111.2" rx="5.8" ry="3.6"/>
	<ellipse class="st140" cx="125.4" cy="111.2" rx="5.8" ry="3.6"/>
	<ellipse class="st141" cx="125.4" cy="111.2" rx="5.7" ry="3.6"/>
	<ellipse class="st142" cx="125.4" cy="111.2" rx="5.7" ry="3.5"/>
	<ellipse class="st143" cx="125.4" cy="111.2" rx="5.6" ry="3.5"/>
	<ellipse class="st144" cx="125.4" cy="111.2" rx="5.6" ry="3.5"/>
	<ellipse class="st145" cx="125.4" cy="111.2" rx="5.6" ry="3.5"/>
	<ellipse class="st146" cx="125.4" cy="111.2" rx="5.5" ry="3.4"/>
	<ellipse class="st147" cx="125.4" cy="111.2" rx="5.4" ry="3.4"/>
	<ellipse class="st148" cx="125.4" cy="111.2" rx="5.4" ry="3.3"/>
	<ellipse class="st149" cx="125.4" cy="111.2" rx="5.3" ry="3.3"/>
	<ellipse class="st150" cx="125.4" cy="111.2" rx="5.3" ry="3.3"/>
	<ellipse class="st151" cx="125.4" cy="111.2" rx="5.3" ry="3.3"/>
	<ellipse class="st152" cx="125.4" cy="111.2" rx="5.2" ry="3.2"/>
	<ellipse class="st153" cx="125.4" cy="111.2" rx="5.2" ry="3.2"/>
	<ellipse class="st154" cx="125.4" cy="111.2" rx="5.1" ry="3.2"/>
	<ellipse class="st155" cx="125.4" cy="111.2" rx="5.1" ry="3.2"/>
	<ellipse class="st156" cx="125.4" cy="111.2" rx="5.1" ry="3.1"/>
	<ellipse class="st157" cx="125.4" cy="111.2" rx="5" ry="3.1"/>
	<ellipse class="st158" cx="125.4" cy="111.2" rx="5" ry="3.1"/>
	<ellipse class="st159" cx="125.4" cy="111.2" rx="4.9" ry="3.1"/>
	<ellipse class="st160" cx="125.4" cy="111.2" rx="4.9" ry="3"/>
	<ellipse class="st161" cx="125.4" cy="111.2" rx="4.9" ry="3"/>
	<ellipse class="st162" cx="125.4" cy="111.2" rx="4.8" ry="3"/>
	<ellipse class="st163" cx="125.4" cy="111.2" rx="4.7" ry="3"/>
	<ellipse class="st164" cx="125.4" cy="111.2" rx="4.7" ry="2.9"/>
	<ellipse class="st165" cx="125.4" cy="111.2" rx="4.7" ry="2.9"/>
	<ellipse class="st166" cx="125.4" cy="111.2" rx="4.6" ry="2.9"/>
	<ellipse class="st167" cx="125.4" cy="111.2" rx="4.6" ry="2.9"/>
	<ellipse class="st168" cx="125.4" cy="111.2" rx="4.5" ry="2.8"/>
	<ellipse class="st169" cx="125.4" cy="111.2" rx="4.5" ry="2.8"/>
	<ellipse class="st170" cx="125.4" cy="111.2" rx="4.5" ry="2.7"/>
	<ellipse class="st171" cx="125.4" cy="111.2" rx="4.4" ry="2.7"/>
	<ellipse class="st172" cx="125.4" cy="111.2" rx="4.4" ry="2.7"/>
	<ellipse class="st173" cx="125.4" cy="111.2" rx="4.3" ry="2.7"/>
	<ellipse class="st174" cx="125.4" cy="111.2" rx="4.3" ry="2.7"/>
	<ellipse class="st175" cx="125.4" cy="111.2" rx="4.3" ry="2.6"/>
	<ellipse class="st176" cx="125.4" cy="111.2" rx="4.2" ry="2.6"/>
	<ellipse class="st177" cx="125.4" cy="111.2" rx="4.2" ry="2.6"/>
	<ellipse class="st178" cx="125.4" cy="111.2" rx="4.1" ry="2.6"/>
	<ellipse class="st179" cx="125.4" cy="111.2" rx="4.1" ry="2.5"/>
	<ellipse class="st180" cx="125.4" cy="111.2" rx="4" ry="2.5"/>
	<ellipse class="st181" cx="125.4" cy="111.2" rx="4" ry="2.5"/>
	<ellipse class="st182" cx="125.4" cy="111.2" rx="3.9" ry="2.5"/>
	<ellipse class="st183" cx="125.4" cy="111.2" rx="3.9" ry="2.4"/>
	<ellipse class="st184" cx="125.4" cy="111.2" rx="3.9" ry="2.4"/>
	<ellipse class="st185" cx="125.4" cy="111.2" rx="3.8" ry="2.4"/>
	<ellipse class="st186" cx="125.4" cy="111.2" rx="3.8" ry="2.4"/>
	<ellipse class="st187" cx="125.4" cy="111.2" rx="3.7" ry="2.3"/>
	<ellipse class="st188" cx="125.4" cy="111.2" rx="3.7" ry="2.3"/>
	<ellipse class="st189" cx="125.4" cy="111.2" rx="3.7" ry="2.3"/>
	<ellipse class="st190" cx="125.4" cy="111.2" rx="3.6" ry="2.3"/>
	<ellipse class="st191" cx="125.4" cy="111.2" rx="3.6" ry="2.2"/>
	<ellipse class="st192" cx="125.4" cy="111.2" rx="3.5" ry="2.2"/>
	<ellipse class="st193" cx="125.4" cy="111.2" rx="3.5" ry="2.2"/>
	<ellipse class="st194" cx="125.4" cy="111.2" rx="3.5" ry="2.2"/>
	<ellipse class="st195" cx="125.4" cy="111.2" rx="3.4" ry="2.1"/>
	<ellipse class="st196" cx="125.4" cy="111.2" rx="3.3" ry="2.1"/>
	<ellipse class="st197" cx="125.4" cy="111.2" rx="3.3" ry="2"/>
	<ellipse class="st198" cx="125.4" cy="111.2" rx="3.3" ry="2"/>
	<ellipse class="st199" cx="125.4" cy="111.2" rx="3.2" ry="2"/>
	<ellipse class="st200" cx="125.4" cy="111.2" rx="3.2" ry="2"/>
	<ellipse class="st201" cx="125.4" cy="111.2" rx="3.1" ry="1.9"/>
	<ellipse class="st202" cx="125.4" cy="111.2" rx="3.1" ry="1.9"/>
	<ellipse class="st203" cx="125.4" cy="111.2" rx="3.1" ry="1.9"/>
	<ellipse class="st203" cx="125.4" cy="111.2" rx="3" ry="1.9"/>
	<ellipse class="st204" cx="125.4" cy="111.2" rx="3" ry="1.8"/>
	<ellipse class="st205" cx="125.4" cy="111.2" rx="2.9" ry="1.8"/>
	<ellipse class="st206" cx="125.4" cy="111.2" rx="2.9" ry="1.8"/>
	<ellipse class="st207" cx="125.4" cy="111.2" rx="2.9" ry="1.8"/>
	<ellipse class="st208" cx="125.4" cy="111.2" rx="2.8" ry="1.7"/>
	<ellipse class="st209" cx="125.4" cy="111.2" rx="2.7" ry="1.7"/>
	<ellipse class="st210" cx="125.4" cy="111.2" rx="2.7" ry="1.7"/>
	<ellipse class="st211" cx="125.4" cy="111.2" rx="2.6" ry="1.7"/>
	<ellipse class="st212" cx="125.4" cy="111.2" rx="2.6" ry="1.6"/>
	<ellipse class="st213" cx="125.4" cy="111.2" rx="2.6" ry="1.6"/>
	<ellipse class="st214" cx="125.4" cy="111.2" rx="2.5" ry="1.6"/>
	<ellipse class="st215" cx="125.4" cy="111.2" rx="2.5" ry="1.6"/>
	<ellipse class="st216" cx="125.4" cy="111.2" rx="2.4" ry="1.5"/>
	<ellipse class="st217" cx="125.4" cy="111.2" rx="2.4" ry="1.5"/>
	<ellipse class="st218" cx="125.4" cy="111.2" rx="2.4" ry="1.5"/>
	<ellipse class="st218" cx="125.4" cy="111.2" rx="2.3" ry="1.5"/>
	<ellipse class="st219" cx="125.4" cy="111.2" rx="2.3" ry="1.4"/>
	<ellipse class="st220" cx="125.4" cy="111.2" rx="2.2" ry="1.4"/>
	<ellipse class="st221" cx="125.4" cy="111.2" rx="2.2" ry="1.3"/>
	<ellipse class="st221" cx="125.4" cy="111.2" rx="2.2" ry="1.3"/>
	<ellipse class="st222" cx="125.4" cy="111.2" rx="2.1" ry="1.3"/>
	<ellipse class="st223" cx="125.4" cy="111.2" rx="2" ry="1.3"/>
	<ellipse class="st224" cx="125.4" cy="111.2" rx="2" ry="1.2"/>
	<ellipse class="st224" cx="125.4" cy="111.2" rx="2" ry="1.2"/>
	<ellipse class="st225" cx="125.4" cy="111.2" rx="1.9" ry="1.2"/>
	<ellipse class="st225" cx="125.4" cy="111.2" rx="1.9" ry="1.2"/>
	<ellipse class="st226" cx="125.4" cy="111.2" rx="1.8" ry="1.1"/>
	<ellipse class="st227" cx="125.4" cy="111.2" rx="1.8" ry="1.1"/>
</g>
</svg>
