<?xml version="1.0" encoding="utf-8"?>
<!-- Generator: Adobe Illustrator 19.0.0, SVG Export Plug-In . SVG Version: 6.00 Build 0)  -->
<svg version="1.1" id="图层_1" xmlns="http://www.w3.org/2000/svg" xmlns:xlink="http://www.w3.org/1999/xlink" x="0px" y="0px"
	 viewBox="0 0 200 200" style="enable-background:new 0 0 200 200;" xml:space="preserve">
<style type="text/css">
	.st0{fill:#F0F9F9;}
	.st1{fill:#C3E7ED;}
	.st2{fill:#21BFCE;}
</style>
<circle id="XMLID_8_" class="st0" cx="100" cy="100" r="99.7"/>
<g id="XMLID_2_">
	<path id="XMLID_7_" class="st1" d="M69.8,84.4c-0.3-0.2-0.6-0.3-0.9-0.3c-0.4,0-0.9,0.2-1.2,0.6c-0.6,0.7-0.6,1.7-0.2,2.5
		c0,0.1,4.5,8.2,4.5,24.1c0,16.3-6.3,37-6.4,37.2c-0.3,0.9,0.1,2,0.8,2.4c0.2,0.1,0.5,0.2,0.7,0.2c0.6,0,1.1-0.3,1.4-0.9
		c0.5-1,12.7-24.5,12.7-40.3C81.2,93.6,70.3,84.8,69.8,84.4z"/>
	<path id="XMLID_6_" class="st1" d="M130.4,108.5c0-16,5.6-26.2,5.6-26.3c0.5-0.9,0.3-2-0.4-2.6c-0.3-0.3-0.7-0.4-1-0.4
		c-0.5,0-0.9,0.2-1.2,0.7c-0.5,0.6-11.6,15.5-11.6,30.1c0,14.5,13.8,38,14.4,39c0.3,0.5,0.8,0.8,1.4,0.8c0.3,0,0.6-0.1,0.8-0.3
		c0.8-0.5,1-1.6,0.7-2.5C139,146.7,130.4,124.7,130.4,108.5z"/>
	<path id="XMLID_5_" class="st1" d="M102.2,118.7c-2.3,0-4.1,2.2-4.1,4.9s1.9,4.9,4.1,4.9c2.3,0,4.1-2.2,4.1-4.9
		S104.4,118.7,102.2,118.7z"/>
	<path id="XMLID_4_" class="st2" d="M98.4,59.8c-0.3-0.2-0.5-0.3-0.8-0.3c-0.5,0-1,0.3-1.3,0.7c0,0,0,0,0,0.1
		c-2.9,6.1-9.9,10.4-18.1,10.4c-7.7,0-14.4-3.9-17.5-9.4c-0.2-0.2-0.3-0.4-0.3-0.4c-0.3-0.4-0.8-0.6-1.2-0.6s-0.7,0.1-1,0.4
		c-0.7,0.6-0.9,1.7-0.4,2.6C58.2,64,66.7,80.4,80,80.4c13.4,0,19.1-17.4,19.3-18.1C99.4,61.3,99.1,60.3,98.4,59.8z"/>
	<path id="XMLID_3_" class="st2" d="M101.5,59.8c0.3-0.2,0.5-0.3,0.8-0.3c0.5,0,1,0.3,1.3,0.7c0,0,0,0,0,0.1
		c2.9,6.1,9.9,10.4,18.1,10.4c7.7,0,14.4-3.9,17.5-9.4c0.2-0.2,0.3-0.4,0.3-0.4c0.3-0.4,0.8-0.6,1.2-0.6c0.4,0,0.7,0.1,1,0.4
		c0.7,0.6,0.9,1.7,0.4,2.6c-0.4,0.7-8.9,17.1-22.2,17.1c-13.4,0-19.1-17.4-19.3-18.1C100.5,61.3,100.8,60.3,101.5,59.8z"/>
</g>
</svg>
