<?xml version="1.0" encoding="UTF-8"?>
<svg width="28px" height="28px" viewBox="0 0 28 28" version="1.1" xmlns="http://www.w3.org/2000/svg" xmlns:xlink="http://www.w3.org/1999/xlink">
    <!-- Generator: Sketch 51.1 (57501) - http://www.bohemiancoding.com/sketch -->
    <title>Shape</title>
    <desc>Created with Sketch.</desc>
    <defs></defs>
    <g id="Page-1" stroke="none" stroke-width="1" fill="none" fill-rule="evenodd">
        <g id="健康百科一级页面" transform="translate(-293.000000, -887.000000)" fill="#1AA99D" fill-rule="nonzero">
            <path d="M309,908.5 C309,911.537566 311.462434,914 314.5,914 C317.537566,914 320,911.537566 320,908.5 C320,905.462434 317.537566,903 314.5,903 L309.830661,903 C309.368862,903 309.00072,903.368862 309.00072,903.82994 L309.00072,908.5 L309,908.5 Z M314.500002,902.000003 C318.089852,902.000003 321,904.910151 321,908.500001 C321,912.089851 318.089852,915 314.500002,915 C310.910152,915 308.000004,912.089851 308.000004,908.500001 L308.000004,904.134736 C307.998912,903.568352 308.223377,903.024842 308.623809,902.624284 C309.02424,902.223726 309.567679,901.999089 310.134063,902.000003 L314.500002,902.000003 Z M305.999997,908.500001 C305.999997,912.089851 303.089849,915 299.499999,915 C295.910149,915 293,912.089851 293,908.500001 C293,904.910151 295.910149,902.000003 299.499999,902.000003 L303.865938,902.000003 C304.432205,901.99909 304.975542,902.223635 305.375954,902.624046 C305.776365,903.024458 306.00091,903.567795 305.999997,904.134062 L305.999997,908.500001 Z M299.5,903 C296.462434,903 294,905.462434 294,908.5 C294,911.537566 296.462434,914 299.5,914 C302.537566,914 305,911.537566 305,908.5 L305,903.830661 C305,903.369583 304.631892,903.00072 304.17006,903.00072 L299.5,903.00072 L299.5,903 Z M308.000003,893.499324 C308.000375,889.909562 310.910688,886.999752 314.50045,887 C318.090213,887.000248 321.000124,889.91046 321,893.500222 C320.999876,897.089985 318.089764,899.999996 314.500001,899.999996 L310.134736,899.999996 C309.568352,900.001088 309.024842,899.776623 308.624284,899.376191 C308.223726,898.97576 307.999089,898.432321 308.000003,897.865937 L308.000003,893.499998 L308.000003,893.499324 Z M314.5,899 C317.537566,899 320,896.537566 320,893.5 C320,890.462434 317.537566,888 314.5,888 C311.462434,888 309,890.462434 309,893.5 L309,898.17006 C309,898.631138 309.368108,899 309.82994,899 L314.5,899 Z M305,893.5 C305,890.462434 302.537566,888 299.5,888 C296.462434,888 294,890.462434 294,893.5 C294,896.537566 296.462434,899 299.5,899 L304.17006,899 C304.631858,899 305,898.631138 305,898.17006 L305,893.5 Z M299.499999,899.999997 C295.910149,899.999997 293,897.089849 293,893.499999 C293,889.910149 295.910149,887 299.499999,887 C303.089849,887 305.999997,889.910149 305.999997,893.499999 L305.999997,897.865938 C306.00091,898.432205 305.776365,898.975542 305.375954,899.375954 C304.975542,899.776365 304.432205,900.00091 303.865938,899.999997 L299.499999,899.999997 Z" id="Shape"></path>
        </g>
    </g>
</svg>