<?xml version="1.0" encoding="utf-8"?>
<!-- Generator: Adobe Illustrator 19.0.0, SVG Export Plug-In . SVG Version: 6.00 Build 0)  -->
<svg version="1.1" id="图层_1" xmlns="http://www.w3.org/2000/svg" xmlns:xlink="http://www.w3.org/1999/xlink" x="0px" y="0px"
	 viewBox="-558 390.9 74 60" style="enable-background:new -558 390.9 74 60;" xml:space="preserve">
<style type="text/css">
	.st0{fill:#EAA926;}
</style>
<g>
	<path class="st0" d="M-500.3,450.9c-9,0-16.3-7.3-16.3-16.3c0-9,7.3-16.3,16.3-16.3c9,0,16.3,7.3,16.3,16.3
		C-484,443.6-491.3,450.9-500.3,450.9z M-500.3,421.4c-7.2,0-13.1,5.9-13.1,13.1s5.9,13.1,13.1,13.1c7.2,0,13.1-5.9,13.1-13.1
		S-493.1,421.4-500.3,421.4z M-519.1,426.7L-519.1,426.7c-1.2,3.9-0.9,9,1,15.4c0.3,0.8-0.2,1.7-1.1,2c-0.2,0-0.3,0.1-0.5,0.1
		c-0.7,0-1.3-0.4-1.5-1.1c-4.9-16.3,1-21.9,4.4-25.2c1-0.9,1.9-1.8,1.9-2.4c0-0.2-0.2-1.9-6.1-5.3c-1.9-1.1-3.9-2-5.2-2.6
		c-1.2,3-4.1,9.1-8.8,12.3c5.6,2.6,9.5,8.3,9.5,14.8c0,9-7.3,16.3-16.3,16.3c-9,0-16.3-7.3-16.3-16.3s7.3-16.3,16.3-16.3
		c0.9,0,1.7,0.1,2.6,0.2c0.2-0.2,0.4-0.3,0.6-0.4c3.3-1.3,5.9-4.7,7.4-7.4c0.3-0.6,0.7-1.2,1-1.8c-1.2,0.6-2.6,0.9-4,0.9
		c-5.2,0-9.4-4.2-9.4-9.4s4.2-9.4,9.4-9.4c5.2,0,9.4,4.2,9.4,9.4c0,1.4-0.3,2.7-0.8,3.9c1.2,0.5,3.8,1.7,6.3,3.1
		c5.3,3,7.7,5.6,7.7,8.1c0,1.9-1.4,3.3-2.9,4.7C-516.1,421.7-518,423.5-519.1,426.7z M-541.7,421.4c-7.2,0-13.1,5.9-13.1,13.1
		s5.9,13.1,13.1,13.1s13.1-5.9,13.1-13.1S-534.5,421.4-541.7,421.4z M-534.2,394.1c-3.4,0-6.2,2.8-6.2,6.2s2.8,6.2,6.2,6.2
		c3.4,0,6.2-2.8,6.2-6.2S-530.7,394.1-534.2,394.1z"/>
</g>
</svg>
