<?xml version="1.0" encoding="utf-8"?>
<!-- Generator: Adobe Illustrator 19.0.0, SVG Export Plug-In . SVG Version: 6.00 Build 0)  -->
<svg version="1.1" id="图层_1" xmlns="http://www.w3.org/2000/svg" xmlns:xlink="http://www.w3.org/1999/xlink" x="0px" y="0px"
	 viewBox="-586 411.9 19 19" style="enable-background:new -586 411.9 19 19;" xml:space="preserve">
<style type="text/css">
	.st0{fill:#F5F5F5;}
	.st1{fill:#FFFFFF;}
	.st2{display:none;fill:#547EA3;}
	.st3{fill:#ED6ED2;}
</style>
<g>
	<path class="st0" d="M-576.5,430.4c-5,0-9-4-9-9s4-9,9-9s9,4,9,9S-571.5,430.4-576.5,430.4z"/>
	<path class="st1" d="M-576.5,412.9c4.7,0,8.5,3.8,8.5,8.5s-3.8,8.5-8.5,8.5s-8.5-3.8-8.5-8.5S-581.2,412.9-576.5,412.9
		 M-576.5,411.9c-5.2,0-9.5,4.3-9.5,9.5s4.3,9.5,9.5,9.5s9.5-4.3,9.5-9.5S-571.3,411.9-576.5,411.9L-576.5,411.9z"/>
</g>
<path class="st2" d="M-1157.7,827.7h-2.8c-0.4,0-0.7,0.3-0.7,0.7c0,0.4,0.3,0.7,0.7,0.7h1l-2.2,2.2c-0.7-0.5-1.5-0.7-2.3-0.7
	c-1.1,0-2.1,0.4-2.9,1.2c-0.8,0.8-1.2,1.8-1.2,3s0.4,2.1,1.2,2.9s1.8,1.2,2.9,1.2c1.1,0,2.1-0.4,2.9-1.2c1.4-1.4,1.6-3.6,0.5-5.2
	l2.2-2.2v1c0,0.4,0.3,0.7,0.7,0.7s0.7-0.3,0.7-0.7v-2.8C-1157,828.1-1157.3,827.7-1157.7,827.7z M-1162.2,836.6
	c-0.5,0.5-1.2,0.8-1.8,0.8c-0.7,0-1.4-0.3-1.9-0.8s-0.8-1.1-0.8-1.8c0-0.7,0.3-1.4,0.8-1.8c0.5-0.5,1.2-0.8,1.9-0.8s1.4,0.3,1.8,0.8
	C-1161.2,834-1161.2,835.6-1162.2,836.6L-1162.2,836.6z"/>
<path class="st3" d="M-572.1,416.9c-0.7-0.7-1.8-1.1-2.8-1.1c-1.1,0-2.1,0.4-2.9,1.2c-0.7,0.8-1.2,1.8-1.1,2.8
	c0,0.8,0.3,1.7,0.8,2.3l-0.9,0.9l-1.9-1.9c-0.2-0.3-0.7-0.3-0.9,0c-0.3,0.2-0.3,0.7,0,0.9l0,0l1.9,1.9l-1.3,1.3
	c-0.2,0.3-0.2,0.7,0,0.9c0.3,0.2,0.6,0.2,0.9,0l1.3-1.3l1.9,1.9c0.3,0.2,0.7,0.2,0.9,0s0.2-0.6,0-0.9l-1.9-1.9l0.9-0.9
	c0.7,0.5,1.5,0.7,2.3,0.7c1.1,0,2.1-0.4,2.9-1.2c0.7-0.8,1.2-1.8,1.1-2.8C-570.9,418.7-571.3,417.7-572.1,416.9L-572.1,416.9z
	 M-573,421.7c-0.5,0.5-1.2,0.8-1.9,0.8s-1.4-0.3-1.9-0.8s-0.8-1.2-0.8-1.9c0-0.7,0.3-1.4,0.8-1.9s1.2-0.8,1.9-0.8s1.4,0.3,1.9,0.8
	s0.8,1.2,0.8,1.9S-572.5,421.2-573,421.7z"/>
</svg>
