<?xml version="1.0" encoding="utf-8"?>
<!-- Generator: Adobe Illustrator 21.0.0, SVG Export Plug-In . SVG Version: 6.00 Build 0)  -->
<svg version="1.1" id="图层_1" xmlns="http://www.w3.org/2000/svg" xmlns:xlink="http://www.w3.org/1999/xlink" x="0px" y="0px"
	 viewBox="0 0 51.8 52.2" style="enable-background:new 0 0 51.8 52.2;" xml:space="preserve">
<style type="text/css">
	.st0{fill:#FFFFFF;}
</style>
<g id="椭圆_1">
	<path class="st0" d="M25.9,52.2C11.6,52.2,0,40.5,0,26.1C0,11.7,11.6,0,25.9,0c14.3,0,25.9,11.7,25.9,26.1
		C51.8,40.5,40.2,52.2,25.9,52.2z M25.9,2.9c-12.7,0-23,10.4-23,23.2s10.3,23.2,23,23.2s23-10.4,23-23.2S38.6,2.9,25.9,2.9z"/>
</g>
<g id="形状_5_拷贝">
	<path class="st0" d="M22.7,37.6c-0.5,0-0.9-0.2-1.2-0.5L12.1,28c-0.7-0.7-0.7-1.8-0.1-2.5c0.7-0.7,1.8-0.7,2.5-0.1c0,0,0,0,0,0
		l8.1,7.8l14.6-18c0.6-0.8,1.7-0.9,2.5-0.3c0,0,0,0,0,0c0.8,0.6,0.9,1.8,0.2,2.5L24.1,36.9c-0.3,0.4-0.8,0.6-1.3,0.7L22.7,37.6
		L22.7,37.6L22.7,37.6z"/>
</g>
</svg>
