<?xml version="1.0" encoding="utf-8"?>
<!-- Generator: Adobe Illustrator 19.0.0, SVG Export Plug-In . SVG Version: 6.00 Build 0)  -->
<svg version="1.1" id="图层_1" xmlns="http://www.w3.org/2000/svg" xmlns:xlink="http://www.w3.org/1999/xlink" x="0px" y="0px"
	 viewBox="-112 112.5 59 59" style="enable-background:new -112 112.5 59 59;" xml:space="preserve">
<style type="text/css">
	.st0{fill:#ffffff;}
</style>
<path id="understand" class="st0" d="M-82.5,112.5c16.3,0,29.5,13.2,29.5,29.5s-13.2,29.5-29.5,29.5S-112,158.3-112,142l0,0
	C-112,125.7-98.8,112.5-82.5,112.5z M-80.4,127.4c-0.8,0-1.6,0.3-2.2,0.9c-1.2,1.2-1.2,3.1-0.1,4.3c0,0,0,0,0.1,0.1
	c1.2,1.2,3.2,1.2,4.4,0c1.2-1.2,1.2-3.1,0-4.3c0,0,0,0,0,0C-78.8,127.7-79.6,127.4-80.4,127.4L-80.4,127.4 M-80.4,127.4L-80.4,127.4
	z M-79.4,155.5c-0.5,0.1-0.9-0.1-1.3-0.4c-0.3-0.5-0.4-1-0.4-1.6c0-0.5,0-0.9,0.1-1.4c0.1-0.6,0.2-1.2,0.3-1.6l1.2-6
	c0.1-0.6,0.2-1.2,0.2-1.8c0-0.7,0.1-1.1,0.1-1.4c0-1.1-0.3-2.2-0.9-3.1c-0.6-0.8-1.6-1.2-2.6-1.2c-0.7,0-1.4,0.2-2,0.5
	c-0.7,0.3-1.5,0.7-2.2,1.2l-0.3,1.8c0.3-0.1,0.5-0.3,0.8-0.4c0.3-0.1,0.6-0.2,0.9-0.2c0.5-0.1,0.9,0.1,1.3,0.5
	c0.3,0.5,0.4,1,0.3,1.6c0,0.5,0,0.9-0.1,1.4c-0.1,0.5-0.2,1.1-0.3,1.6l-1.2,6c-0.1,0.6-0.2,1.2-0.2,1.7c0,0.5-0.1,1-0.1,1.5
	c0,1.1,0.3,2.2,1,3c0.7,0.8,1.6,1.2,2.7,1.2c0.7,0,1.4-0.1,2-0.4c0.6-0.3,1.3-0.7,2.3-1.2l0.3-1.8c-0.3,0.2-0.5,0.3-0.8,0.4
	C-78.7,155.4-79,155.5-79.4,155.5L-79.4,155.5 M-79.4,155.5L-79.4,155.5z"/>
</svg>
