<?xml version="1.0" encoding="utf-8"?>
<!-- Generator: Adobe Illustrator 21.0.0, SVG Export Plug-In . SVG Version: 6.00 Build 0)  -->
<svg version="1.1" id="图层_1" xmlns="http://www.w3.org/2000/svg" xmlns:xlink="http://www.w3.org/1999/xlink" x="0px" y="0px"
	 viewBox="0 0 90 90" style="enable-background:new 0 0 90 90;" xml:space="preserve">
<style type="text/css">
	.st0{opacity:0.4;fill:#CF9155;enable-background:new    ;}
	.st1{opacity:0.4;fill:#FFFFFF;enable-background:new    ;}
</style>
<path id="形状_51" class="st0" d="M0,45c0,24.9,20.1,45,45,45s45-20.1,45-45C90,20.1,69.9,0,45,0C20.2,0,0,20.1,0,45L0,45L0,45z"
	/>
<path id="形状_52" class="st1" d="M68.8,48.9L48.6,27.2c-0.8-0.9-2-1.4-3.2-1.4c-1.2,0-2.3,0.5-3.2,1.4L22.1,48.9
	c-1.3,1.1-1.5,3-0.4,4.3c0.7,0.8,1.7,1.2,2.7,1.1h8.4c0,0,0,0,0,0.1v15.5c0,2.5,2,4.5,4.5,4.5h16.2c2.5,0,4.5-2,4.5-4.5c0,0,0,0,0,0
	V54.3c0,0,0,0,0.1-0.1h8.4c1.7,0.2,3.2-1,3.4-2.7C70,50.6,69.6,49.6,68.8,48.9L68.8,48.9L68.8,48.9z M23.7,22.4h43.5
	c1.2-0.1,2.2-1.1,2.1-2.3c0-1.2-1-2.1-2.1-2.1H23.7c-1.2,0-2.2,0.9-2.3,2.1c0,1.2,0.9,2.2,2.1,2.3C23.6,22.4,23.6,22.4,23.7,22.4
	L23.7,22.4L23.7,22.4z"/>
</svg>
