<svg 
 xmlns="http://www.w3.org/2000/svg"
 xmlns:xlink="http://www.w3.org/1999/xlink"
 width="300px" height="232px">
<path fill-rule="evenodd"  fill="#aaaaaa"
 d="M149.910,231.998 C129.025,231.998 108.448,226.310 90.404,215.548 C72.753,205.019 58.240,190.058 48.352,172.216 L53.435,172.203 C73.373,206.404 110.302,227.627 149.938,227.627 C159.656,227.627 169.390,226.343 178.869,223.812 C207.565,216.149 231.553,197.868 246.471,172.310 L251.517,172.304 C244.143,185.533 234.443,197.022 222.670,206.467 C210.071,216.577 195.704,223.833 179.969,228.035 C170.122,230.665 160.008,231.998 149.910,231.998 ZM130.151,209.881 L125.091,208.464 L128.768,204.713 L128.708,199.532 L133.533,201.690 L138.611,199.991 L137.843,205.092 L141.047,209.114 L135.794,210.122 L132.690,214.400 L130.151,209.881 ZM175.200,208.388 L170.058,209.113 L171.983,204.224 L169.896,199.503 L175.181,199.578 L179.093,195.966 L180.386,200.895 L184.890,203.371 L180.446,206.374 L179.281,211.539 L175.200,208.388 ZM89.825,191.095 L84.837,192.825 L85.321,187.677 L81.955,183.680 L87.092,182.700 L89.947,178.413 L92.696,182.928 L97.849,184.366 L94.361,188.136 L94.709,193.254 L89.825,191.095 ZM149.981,192.036 C130.940,192.035 112.841,185.007 98.771,172.199 L105.599,172.201 C118.233,182.160 133.982,187.641 149.981,187.641 C156.211,187.641 162.452,186.818 168.530,185.195 C178.013,182.663 186.710,178.311 194.386,172.258 L201.224,172.283 C192.251,180.397 181.386,186.311 169.667,189.441 C163.218,191.163 156.596,192.036 149.984,192.036 C149.983,192.036 149.982,192.036 149.981,192.036 ZM211.396,185.695 L207.978,181.842 L213.049,180.330 L215.666,175.699 L218.426,180.037 L223.466,180.999 L220.167,185.192 L220.620,190.455 L215.772,188.701 L211.078,190.945 L211.396,185.695 ZM11.423,164.247 C5.122,164.247 0.004,159.122 -0.001,152.823 L0.036,79.024 C0.033,75.981 1.224,73.118 3.389,70.961 C5.553,68.805 8.424,67.616 11.475,67.614 L288.585,67.749 C291.662,67.749 294.531,68.938 296.685,71.098 C298.840,73.258 300.020,76.125 300.009,79.171 L299.972,152.972 C299.978,159.259 294.847,164.376 288.534,164.383 L288.535,164.383 L11.423,164.247 ZM14.568,71.999 C9.001,71.999 4.466,76.527 4.460,82.093 L4.426,149.745 C4.420,155.309 8.954,159.842 14.533,159.850 L285.467,160.020 C291.045,160.020 295.580,155.492 295.586,149.927 L295.620,82.274 C295.609,76.696 291.107,72.160 285.583,72.160 L14.568,71.999 ZM194.417,59.824 C181.784,49.865 166.035,44.384 150.036,44.384 C143.805,44.384 137.563,45.207 131.484,46.831 C122.000,49.364 113.290,53.708 105.594,59.744 L98.799,59.737 C107.772,51.625 118.634,45.713 130.349,42.585 C136.798,40.862 143.422,39.989 150.036,39.989 C169.076,39.989 187.174,47.018 201.245,59.827 L194.417,59.824 ZM246.573,59.794 C226.634,25.593 189.706,4.368 150.072,4.368 C140.352,4.368 130.617,5.652 121.137,8.184 C92.476,15.838 68.487,34.119 53.537,59.685 L48.492,59.694 C55.866,46.463 65.565,34.973 77.339,25.527 C89.938,15.418 104.304,8.161 120.038,3.960 C129.886,1.331 139.999,-0.003 150.098,-0.003 C170.984,-0.003 191.561,5.685 209.604,16.447 C227.256,26.976 241.769,41.938 251.656,59.781 L246.573,59.794 ZM86.608,50.711 L81.545,49.755 L84.889,45.521 L84.446,40.183 L89.326,41.932 L94.136,39.681 L93.768,44.949 L97.200,48.836 L92.069,50.365 L89.375,55.059 L86.608,50.711 ZM207.317,49.139 L202.049,48.071 L205.262,44.063 L204.558,38.982 L209.618,40.783 L214.523,38.701 L214.421,43.890 L218.097,47.677 L213.000,49.014 L210.427,53.495 L207.317,49.139 ZM127.565,28.785 L123.054,26.346 L127.516,23.339 L128.703,18.129 L132.814,21.278 L138.024,20.564 L136.098,25.457 L138.187,30.182 L132.843,30.121 L128.870,33.756 L127.565,28.785 ZM175.635,30.871 L170.519,32.555 L171.288,27.447 L168.089,23.430 L173.370,22.439 L176.507,18.146 L179.048,22.672 L184.152,24.076 L180.431,27.835 L180.491,33.024 L175.635,30.871 Z"/>
</svg>
