<?xml version="1.0" encoding="utf-8"?>
<!-- Generator: Adobe Illustrator 19.0.0, SVG Export Plug-In . SVG Version: 6.00 Build 0)  -->
<svg version="1.1" id="图层_1" xmlns="http://www.w3.org/2000/svg" xmlns:xlink="http://www.w3.org/1999/xlink" x="0px" y="0px"
	 viewBox="0 0 113.4 113.4" style="enable-background:new 0 0 113.4 113.4;" xml:space="preserve">
<style type="text/css">
	.st0{fill:#FFFFFF;}
	.st1{fill:#FBF4E8;}
	.st2{fill:#B3B3B3;}
	.st3{fill:none;stroke:#D18CB3;stroke-width:0.5;stroke-linecap:round;}
	.st4{fill:#150A0A;}
	.st5{fill:#FAFBFC;}
	.st6{fill:url(#XMLID_2_);}
	.st7{fill:url(#XMLID_3_);}
	.st8{fill:#AACBE5;}
	.st9{fill:#F5D2D9;stroke:#420A17;stroke-width:0.5;stroke-miterlimit:10;}
	.st10{fill:#F7E8CD;}
	.st11{fill:none;stroke:#420A17;stroke-miterlimit:10;}
	.st12{fill:#3A1E0D;}
	.st13{fill:#CFE0B3;stroke:#420A17;stroke-width:0.5;stroke-miterlimit:10;}
	.st14{fill:#DE898B;stroke:#420A17;stroke-width:0.5;stroke-miterlimit:10;}
	.st15{fill:#DE898B;}
	.st16{fill:none;stroke:#420A17;stroke-width:0.5;stroke-miterlimit:10;}
	.st17{fill:#FCFEFE;stroke:#420A17;stroke-width:0.5;stroke-miterlimit:10;}
	.st18{fill:none;}
	.st19{fill:#420A17;}
	.st20{fill:#9FC2C5;}
	.st21{fill:#F8DEDB;}
	.st22{fill:#FCEFEE;}
	.st23{fill:#F3C5BF;}
	.st24{fill:#EBB3B2;}
</style>
<g id="XMLID_425_">
	<path id="XMLID_1347_" class="st0" d="M59,91.5h-5.3c-16,0-29.1-13.1-29.1-29.1V43.6c0-16,13.1-29.1,29.1-29.1H59
		c16,0,29.1,13.1,29.1,29.1v18.8C88.1,78.4,75,91.5,59,91.5z"/>
	<path id="XMLID_1344_" class="st1" d="M56,49.9c-18.1,0-29.1,14.2-29.1,0v-5.5c0-14.2,11.6-25.7,25.7-25.7h6.7
		C73.5,18.7,85,30.3,85,44.4v5.5C85.1,64,74.1,49.9,56,49.9z"/>
	<path id="XMLID_1343_" class="st2" d="M24.6,53.3v9.1c0,16,13.1,29.1,29.1,29.1H59c16,0,29.1-13.1,29.1-29.1v-9.1
		c0,25.6-19.2,34-31.8,34C43.8,87.3,24.6,78.4,24.6,53.3z"/>
	<g id="XMLID_1299_">
		<g id="XMLID_1340_">
			<line id="XMLID_1342_" class="st3" x1="41.2" y1="47.7" x2="37.3" y2="51.1"/>
			<line id="XMLID_1341_" class="st3" x1="44.7" y1="48" x2="40.7" y2="51.4"/>
		</g>
		<g id="XMLID_1337_">
			<line id="XMLID_1339_" class="st3" x1="71.3" y1="47.7" x2="67.3" y2="51.1"/>
			<line id="XMLID_1338_" class="st3" x1="74.7" y1="48" x2="70.8" y2="51.4"/>
		</g>
		<g id="XMLID_1318_">
			<path id="XMLID_1334_" class="st4" d="M61.3,28.7c0,0,2.3-3.9,7.7-1.8C69,26.9,64.6,26.4,61.3,28.7z"/>
			
				<ellipse id="XMLID_1333_" transform="matrix(9.208596e-02 -0.9958 0.9958 9.208596e-02 24.9861 103.5961)" class="st5" cx="69.3" cy="38.1" rx="8.1" ry="8"/>
			
				<linearGradient id="XMLID_2_" gradientUnits="userSpaceOnUse" x1="101.7652" y1="1.5584" x2="100.6309" y2="12.3715" gradientTransform="matrix(0.9958 9.210000e-02 9.210000e-02 -0.9958 -31.4341 37.8156)">
				<stop  offset="0" style="stop-color:#7E4B22"/>
				<stop  offset="1" style="stop-color:#150A0A"/>
			</linearGradient>
			<path id="XMLID_1332_" class="st6" d="M70.6,29.1c-3.9-0.4-7.4,2.1-8.6,5.7c0,0,6.1,0.3,8.4,2.6c0,0-7.6,0.4-8.7,1.8
				c0.6,3.7,3.6,6.7,7.4,7c4.6,0.4,8.6-3.1,9.1-7.8C78.5,33.7,75.1,29.5,70.6,29.1z"/>
			<path id="XMLID_1329_" class="st4" d="M70.3,34.3c-1.2-0.1-2.3,0.5-2.9,1.5c1.1,0.4,2.1,0.9,2.7,1.6c0,0-1.5,0.1-3.3,0.4
				c0,1.7,1.2,3.2,2.9,3.3c1.8,0.2,3.3-1.2,3.5-3.1C73.3,36.1,72,34.5,70.3,34.3z"/>
			<circle id="XMLID_1328_" class="st5" cx="74.4" cy="34.1" r="2.3"/>
			<circle id="XMLID_1327_" class="st5" cx="75.3" cy="37.6" r="0.9"/>
			<circle id="XMLID_1326_" class="st5" cx="67.6" cy="44" r="0.4"/>
			<path id="XMLID_1325_" class="st5" d="M69.5,44.2c0,0,2.9,1,5.6-2.9C75.1,41.3,73.8,46.6,69.5,44.2z"/>
			<path id="XMLID_1322_" class="st4" d="M77.4,31.8c0.9,0,1.5-0.8,1.5-0.8c-0.9,0.3-1.7,0.1-2.3-0.1c-0.4-0.4-1-0.8-1.7-1.1
				c1.3-0.5,1.6-2.3,1.6-2.3c-1.6,1.7-3.3,1.5-4,1.4c-0.1,0-0.2-0.1-0.3-0.1l0,0l0,0c-0.2,0-0.3-0.1-0.5-0.1
				c-9.4-2-11.8,5.8-11.8,5.8c0.8-0.7,1.9-1.3,1.9-1.3c-1.1,1.9-0.7,2.5-0.7,2.5c0.2-2.1,5.6-7.9,12.4-4.9s3,11.2,3,11.2
				c3.8-3.1,3.5-5.9,3.5-5.9c1,0.3,1.5-0.5,1.5-0.5C78.8,35.3,78.8,33.6,77.4,31.8z"/>
			<path id="XMLID_1319_" class="st4" d="M62.4,44.3c0,0,6.4,5.1,12.6,0.5C74.9,44.8,70.5,47.9,62.4,44.3z"/>
		</g>
		<path id="XMLID_1315_" class="st4" d="M51.5,28.7c0,0-2.3-3.9-7.7-1.8C43.8,26.9,48.1,26.4,51.5,28.7z"/>
		
			<ellipse id="XMLID_1314_" transform="matrix(9.208596e-02 -0.9958 0.9958 9.208596e-02 0.8356 77.1069)" class="st5" cx="42.7" cy="38.1" rx="8.1" ry="8"/>
		
			<linearGradient id="XMLID_3_" gradientUnits="userSpaceOnUse" x1="1522.333" y1="132.9444" x2="1521.1987" y2="143.7575" gradientTransform="matrix(0.9958 9.210000e-02 9.210000e-02 -0.9958 -1484.7361 37.8156)">
			<stop  offset="0" style="stop-color:#7E4B22"/>
			<stop  offset="1" style="stop-color:#150A0A"/>
		</linearGradient>
		<path id="XMLID_1313_" class="st7" d="M44,29.1c-3.9-0.4-7.4,2.1-8.6,5.7c0,0,6.1,0.3,8.4,2.6c0,0-7.6,0.4-8.7,1.8
			c0.6,3.7,3.6,6.7,7.4,7c4.6,0.4,8.6-3.1,9.1-7.8C51.9,33.7,48.5,29.5,44,29.1z"/>
		<path id="XMLID_1310_" class="st4" d="M43.7,34.3c-1.2-0.1-2.3,0.5-2.9,1.5c1.1,0.4,2.1,0.9,2.7,1.6c0,0-1.5,0.1-3.3,0.4
			c0,1.7,1.2,3.2,2.9,3.3c1.8,0.2,3.3-1.2,3.5-3.1C46.8,36.1,45.5,34.5,43.7,34.3z"/>
		<circle id="XMLID_1309_" class="st5" cx="47.8" cy="34.1" r="2.3"/>
		<circle id="XMLID_1308_" class="st5" cx="48.7" cy="37.6" r="0.9"/>
		<circle id="XMLID_1307_" class="st5" cx="41" cy="44" r="0.4"/>
		<path id="XMLID_1306_" class="st5" d="M42.9,44.2c0,0,2.9,1,5.6-2.9C48.5,41.3,47.2,46.6,42.9,44.2z"/>
		<path id="XMLID_1303_" class="st4" d="M35.3,31.8c-0.9,0-1.5-0.8-1.5-0.8c0.9,0.3,1.7,0.1,2.3-0.1c0.4-0.4,1-0.8,1.7-1.1
			c-1.3-0.5-1.6-2.3-1.6-2.3c1.6,1.7,3.3,1.5,4,1.4c0.1,0,0.2-0.1,0.3-0.1l0,0l0,0c0.2,0,0.3-0.1,0.5-0.1c9.4-2,11.8,5.8,11.8,5.8
			c-0.8-0.7-1.9-1.3-1.9-1.3c1.1,1.9,0.7,2.5,0.7,2.5c-0.2-2.1-5.6-7.9-12.4-4.9s-3,11.2-3,11.2c-3.8-3.1-3.5-5.9-3.5-5.9
			c-1,0.3-1.5-0.5-1.5-0.5C34,35.3,33.9,33.6,35.3,31.8z"/>
		<path id="XMLID_1300_" class="st4" d="M50.4,44.3c0,0-6.4,5.1-12.6,0.5C37.8,44.8,42.3,47.9,50.4,44.3z"/>
	</g>
	<path id="XMLID_1296_" class="st8" d="M59,88.1h-5.3c-16,0-29.8-12.8-29.3-31.1c0,0,19.1,9.2,31.6,9.2s32.4-9.3,32.4-9.3
		C89.6,74.5,75,88.1,59,88.1z"/>
	<g id="XMLID_1294_">
		<path id="XMLID_1295_" class="st9" d="M48.2,67.9c-6.7-1-22.9-10.4-23.7-10.8l-0.1-3.5c0.2,0.1,18.1,10.3,24.2,11.3L48.2,67.9z"/>
	</g>
	<g id="XMLID_1292_">
		<path id="XMLID_1293_" class="st9" d="M61.3,68.3l-0.4-3.1c7.8-1,27.1-11.5,27.3-11.6v3.2C87.4,57.2,69.5,67.2,61.3,68.3z"/>
	</g>
	<path id="XMLID_1289_" class="st10" d="M59,91.9h-5.3c-16,0-29.9-12.9-29.3-31.2c0,0,19.3,4.4,31.7,4.4s32-4.5,32-4.5
		C89.3,78.3,75,91.9,59,91.9z"/>
	<g id="XMLID_1287_">
		<path id="XMLID_1288_" class="st9" d="M55.7,74.8c-8.9,0-18.1-1.9-30.6-6.2l-0.5-3.1C37,69.7,47.4,71.7,56,71.7
			c12.2-0.1,25.4-3.6,32.1-7.1l-0.4,3.1c-6.5,3.4-18.2,7-31.7,7C55.9,74.8,55.8,74.8,55.7,74.8z"/>
	</g>
	<path id="XMLID_1286_" class="st11" d="M59,91.5h-5.3c-16,0-29.1-13.1-29.1-29.1V43.6c0-16,13.1-29.1,29.1-29.1H59
		c16,0,29.1,13.1,29.1,29.1v18.8C88.1,78.4,75,91.5,59,91.5z"/>
	<path id="XMLID_1285_" class="st9" d="M64.9,72.4c0,0,1.3,12.8,2.2,14.4c0.9,1.6,5.5,8.2,5.5,8.2s3.6,0.4,4.1,1
		c0.4,0.6,1-1.7,1-1.7s-7.5-8.1-7.9-9s-4-13-4-13L64.9,72.4L64.9,72.4z"/>
	
		<ellipse id="XMLID_1284_" transform="matrix(-0.1712 -0.9852 0.9852 -0.1712 5.3835 149.3133)" class="st9" cx="65.5" cy="72.4" rx="3.2" ry="1.8"/>
	<path id="XMLID_1283_" class="st9" d="M45.9,72.4c0,0-0.8,11.8-1.1,12.8s-0.9,8.4,0.5,10.9c0.9,1.2,1.4,1.4,1.4,1.4l0.2-1.9
		c0,0-0.4-6.3,0-8s0-15.2,0-15.2S45.9,72.4,45.9,72.4z"/>
	
		<ellipse id="XMLID_1282_" transform="matrix(-0.1712 0.9852 -0.9852 -0.1712 126.3297 38.5791)" class="st9" cx="46.9" cy="72.4" rx="3.2" ry="1.8"/>
	<path id="XMLID_1279_" class="st12" d="M50.2,13.6c0,0-3.1-2.8-5.4-2.3c3.6-1.2,6.2-1,9.1,1.1c1.2-2.7,4.3-6.9,6.2-7.1
		c-1,2.6-1.9,5.6-1.6,6.8c2.1-1.6,6.2-3.8,9.5-0.4c-2.9,0.3-5.5,0.7-5.8,2.5s-9.9,2-9.9,2"/>
	<path id="XMLID_1278_" class="st13" d="M15.1,58.1c0,0,0.4-9.7,3.8-13.2c3.4-3.6,6.6-8.5,8.7-18.2c2.8-7.4,18.2-13.1,28.8-13.1
		C78.1,13.5,88,30.4,88,30.9c0.1,0.5,3,12.2,6.5,15c3.6,2.8,8.2,7.8,8.3,10s-3.2,6.2-3.2,6.2s-7.9-12.3-8.9-13.7s-3.8-9.1-3.8-14.3
		C85,30,67,17.9,55.9,19.1S30.1,26,29.2,30.3s-3.4,13.1-4.1,13.9c-0.6,0.9-4.8,13.2-4.8,15.7C17.8,59.6,15.1,58.1,15.1,58.1z"/>
	<g id="XMLID_1258_">
		<g id="XMLID_1330_">
			<path id="XMLID_1350_" class="st14" d="M87.8,28.5c0,0,0.3-4,3.2-3.6c2.9,0.4,3.4,5.8,0,6.9S87.8,28.5,87.8,28.5z"/>
			<path id="XMLID_1349_" class="st14" d="M88.3,31.9c0,0,5.4-1.1,6.4,1.9s-1.4,6.3-4.2,4.2C87.6,35.9,88.2,32.1,88.3,31.9z"/>
			<path id="XMLID_1348_" class="st14" d="M87.3,32.9c0,0,3.1,1.9,3.2,3.8c0.1,1.9-0.6,5.6-4.2,4.5S85,33.3,85,33.3
				S86.2,32.1,87.3,32.9z"/>
			<path id="XMLID_1346_" class="st14" d="M86.3,29.8c0,0-5.1-3.8-3.3-8.3c1.8-4.5,4.6-2.8,5.2-2.2C88.8,20,93.2,26.4,86.3,29.8z"/>
			<g id="XMLID_1335_">
				<path id="XMLID_1345_" class="st15" d="M86.9,31c0,0-1.8-5.5-4.8-4.8s-3.8,9.8,0.7,10.5C86.2,37.2,86.9,31,86.9,31z"/>
				<path id="XMLID_1336_" class="st16" d="M86.9,31c0,0-1.8-5.5-4.8-4.8s-3.8,9.8,0.7,10.5C86.2,37.2,86.9,31,86.9,31z"/>
			</g>
			<path id="XMLID_1331_" class="st17" d="M86,29.3c0.3-0.8,1.6-1.4,2.4-0.2c0.8,1.2,1,4.5-0.7,4.8C86,34.1,85.5,30.6,86,29.3z"/>
		</g>
	</g>
	<g id="XMLID_1238_">
		<g id="XMLID_1305_">
			<path id="XMLID_1324_" class="st14" d="M23.1,30.5c0,0-0.3-4-3.2-3.6s-3.4,5.8,0,6.9S23.1,30.5,23.1,30.5z"/>
			<path id="XMLID_1323_" class="st14" d="M22.6,33.9c0,0-5.4-1.1-6.4,1.9s1.4,6.3,4.2,4.2S22.7,34.1,22.6,33.9z"/>
			<path id="XMLID_1321_" class="st14" d="M23.6,34.9c0,0-3.1,1.9-3.2,3.8c-0.1,1.9,0.6,5.6,4.2,4.5s1.3-7.9,1.3-7.9
				S24.7,34.1,23.6,34.9z"/>
			<path id="XMLID_1320_" class="st14" d="M24.6,31.8c0,0,5.1-3.8,3.3-8.3s-4.6-2.8-5.2-2.2C22,21.9,17.6,28.4,24.6,31.8z"/>
			<g id="XMLID_1312_">
				<path id="XMLID_1317_" class="st15" d="M24,32.9c0,0,1.8-5.5,4.8-4.8s3.8,9.8-0.7,10.5C24.6,39.2,24,32.9,24,32.9z"/>
				<path id="XMLID_1316_" class="st16" d="M24,32.9c0,0,1.8-5.5,4.8-4.8s3.8,9.8-0.7,10.5C24.6,39.2,24,32.9,24,32.9z"/>
			</g>
			<path id="XMLID_1311_" class="st17" d="M24.9,31.3c-0.3-0.8-1.6-1.4-2.4-0.2c-0.8,1.2-1,4.5,0.7,4.8
				C24.9,36.1,25.4,32.6,24.9,31.3z"/>
		</g>
	</g>
	<g id="XMLID_1233_">
		<path id="XMLID_1237_" class="st0" d="M14.4,58.2c1.1-4.7,6.8-0.1,7.4,2.8c2.1,8-7.8,6.4-7.1-1.2"/>
		<g id="XMLID_1234_">
			<path id="XMLID_1236_" class="st18" d="M14.4,58.2c1.1-4.7,6.8-0.1,7.4,2.8c2.1,8-7.8,6.4-7.1-1.2"/>
			<path id="XMLID_1235_" class="st19" d="M14.9,58.2c0.3-1.3,1-2.1,2.4-1.5c1,0.4,1.9,1.3,2.6,2.1c1.3,1.5,1.8,3.6,1.4,5.5
				c-0.5,2.1-2.5,2.2-4,1.1c-1.7-1.2-2.2-3.5-2.1-5.5c0-0.3-1.1-0.3-1.1,0c-0.2,2.7,0.9,5.6,3.7,6.4c1.9,0.6,4,0,4.7-2.1
				c0.9-2.9-1.2-5.9-3.5-7.4c-2-1.3-4.5-1.1-5.2,1.4C13.7,58.4,14.8,58.5,14.9,58.2L14.9,58.2z"/>
		</g>
	</g>
	<g id="XMLID_1228_">
		<path id="XMLID_1232_" class="st0" d="M99,58.5c-1.1-4.7-6.8-0.1-7.4,2.8c-2.1,8,7.8,6.4,7.1-1.2"/>
		<g id="XMLID_1229_">
			<path id="XMLID_1231_" class="st18" d="M99,58.5c-1.1-4.7-6.8-0.1-7.4,2.8c-2.1,8,7.8,6.4,7.1-1.2"/>
			<path id="XMLID_1230_" class="st19" d="M98.5,58.5c-0.3-1.3-1-2.1-2.4-1.5c-1,0.4-1.9,1.3-2.6,2.1c-1.3,1.5-1.8,3.6-1.4,5.5
				c0.5,2.1,2.5,2.2,4,1.1c1.7-1.2,2.2-3.5,2.1-5.5c0-0.3,1.1-0.3,1.1,0c0.2,2.7-0.9,5.6-3.7,6.4c-1.9,0.6-4,0-4.7-2.1
				c-0.9-2.9,1.2-5.9,3.5-7.4c2-1.3,4.5-1.1,5.2,1.4C99.7,58.7,98.6,58.9,98.5,58.5L98.5,58.5z"/>
		</g>
	</g>
	<g id="XMLID_504_">
		<path id="XMLID_1227_" class="st20" d="M54,107.6c-2.8-1.1-7.2-6.3-9.6-9.3c-4.1-0.3-7.9-0.8-10.7-1.5c-8.1-2-13.1-4-16.6-8.4
			C13.5,84,12.6,75.5,13,68.8c0.3-5.4,2.1-7.3,4-8.5c0.1-0.1,0.3-0.3,0.4-0.4c4.2-3.4,7,5.5,22.3,7.8c0.5-0.7,5.6-7.7,7.1-7.4
			c1.6,0.2,18.4-3.9,20.3-2.2c1.5,1.3,4.3,4.4,5.6,5.8c8.3-3.2,11.8-7.2,13.2-9.2c2.3-3.3,9.5,4.5,13.2,13.6
			c1.6,3.9,2.6,7.3,2.1,10.5h0.1c0,0-0.1,0.3-0.2,0.8c-0.2,1-0.6,1.9-1.2,2.8c-0.9,1.7-2.2,3.6-4.3,5.1c-2.4,1.8-7.6,3.9-13.4,5.8
			c-1.3,3.5-3.7,9.6-5,11.1C75.2,106.3,58,109.2,54,107.6z"/>
		<g id="XMLID_505_">
			<path id="XMLID_1226_" class="st21" d="M16.3,64.1c-1.3,5.1-0.3,15.1,4.1,20s10.7,6,12.6,6.8s50.3-5.2,50.3-5.2l18.4-9.6
				c0,0-1.1,5.4-5.6,8.7c-4.5,3.3-19,7.9-28.3,10s-25.4,1.4-33.5-0.6s-13.1-4-16.6-8.4c-3.7-4.5-4.7-13-4.3-19.7s3-8,5.3-9.3
				S17.7,58.9,16.3,64.1z"/>
			<path id="XMLID_1225_" class="st22" d="M54.5,105c-4.1-1.6-11.3-11.7-11.3-11.7l40.3-5.2c0,0-4.1,11.4-5.9,13.5
				C75.7,103.6,58.5,106.6,54.5,105z"/>
			<path id="XMLID_1224_" class="st22" d="M99.4,65.6c3.7,9.1,4.4,16.2-10.6,21.8c-15,5.6-33.8,14.1-64.6,2.4c0,0-3.7-0.5-7.2-6.9
				s-4.2-21.5,0.8-25.6s8,9.6,33.1,8.2C75.9,64.1,84,55.3,86.3,52C88.5,48.7,95.8,56.5,99.4,65.6z"/>
			<path id="XMLID_1223_" class="st21" d="M93.3,59.6c4.5,6.7,4.8,10.9,4.8,10.9s-76.7,1.8-76.9,1.6c-0.1-0.3-3.5-4.7-3.2-8.1
				s3-4.5,5-2.4c2,2,8,3.8,8,3.8c11.8,4,28.9,2.4,39.2-1C80.6,61,83.5,58.2,85,57.1C86.6,56,88.8,52.9,93.3,59.6z"/>
			<path id="XMLID_1222_" class="st23" d="M58,92.3c-14.2,0.6-28.7-3.2-33.3-5.8c-4.6-2.6-7.4-8.9-7.3-16.8s3-9.5,4.4-8.4
				c1.4,1.2,3.4,4.3,18.2,6.6c14.7,2.3,35.4-3.2,40.8-7.3s8-5.6,10.2-3.2s7.4,9.3,7.8,16.5s-7.6,9.5-7.6,9.5
				C91.5,83.6,72.2,91.7,58,92.3z"/>
			<path id="XMLID_1221_" class="st22" d="M67.5,55.5c2,1.7,6.2,6.5,6.2,6.5L51,67.5l-11-2.4c0,0,5.6-7.7,7.2-7.5
				C48.8,57.9,65.6,53.7,67.5,55.5z"/>
			<path id="XMLID_1220_" class="st22" d="M91.6,63.1c2,3,4.8,8.6,4.6,11.8c-0.1,3.2-4.4,5.2-4.4,5.2s-12.9,7.2-29,9.3
				c-16,2.2-37.4-4.7-39.1-6.3c-1.7-1.6-5.2-7.3-4.9-13.5c0.3-6.2,2.3-5.8,6.1-3.4c3.7,2.5,19.9,4.8,32.2,3.6
				c12.4-1.2,22.4-5.8,26.3-8.5C87.6,58.7,89.6,60.1,91.6,63.1z"/>
			<g id="XMLID_624_">
				<circle id="XMLID_1219_" class="st23" cx="23.6" cy="66.4" r="0.2"/>
				<circle id="XMLID_1218_" class="st23" cx="20.4" cy="68.2" r="0.2"/>
				<circle id="XMLID_1217_" class="st23" cx="21.1" cy="65.7" r="0.2"/>
				<circle id="XMLID_1216_" class="st23" cx="33.8" cy="69.4" r="0.2"/>
				<path id="XMLID_1215_" class="st23" d="M25.5,69.9L25.5,69.9c-0.1,0-0.2,0-0.3-0.1c0-0.1,0-0.2,0.1-0.3c0.1,0,0.2,0,0.3,0.1
					C25.6,69.7,25.6,69.8,25.5,69.9z"/>
				<circle id="XMLID_1214_" class="st23" cx="27.2" cy="73" r="0.2"/>
				<path id="XMLID_1213_" class="st23" d="M28.8,68.1c-0.1,0-0.2,0-0.3-0.1c0-0.1,0-0.2,0-0.2c0.1,0,0.2,0.1,0.3,0.1
					C28.9,67.9,28.9,68,28.8,68.1z"/>
				<circle id="XMLID_1212_" class="st23" cx="30.5" cy="71.2" r="0.2"/>
				<circle id="XMLID_1211_" class="st23" cx="28" cy="70.4" r="0.2"/>
				<circle id="XMLID_1210_" class="st23" cx="26.2" cy="67.2" r="0.2"/>
				<circle id="XMLID_1209_" class="st23" cx="31.2" cy="68.6" r="0.2"/>
				<circle id="XMLID_1208_" class="st23" cx="20.7" cy="76.6" r="0.2"/>
				<circle id="XMLID_1207_" class="st23" cx="22.2" cy="71.5" r="0.2"/>
				<circle id="XMLID_1206_" class="st23" cx="24" cy="74.8" r="0.2"/>
				<circle id="XMLID_1205_" class="st23" cx="21.4" cy="74" r="0.2"/>
				<circle id="XMLID_1204_" class="st23" cx="19.6" cy="70.8" r="0.2"/>
				<circle id="XMLID_1203_" class="st23" cx="24.7" cy="72.2" r="0.2"/>
				<circle id="XMLID_1202_" class="st23" cx="22.9" cy="69" r="0.2"/>
				<circle id="XMLID_1201_" class="st23" cx="43.9" cy="72.3" r="0.2"/>
				<circle id="XMLID_1200_" class="st23" cx="47.1" cy="70.5" r="0.2"/>
				<path id="XMLID_1199_" class="st23" d="M35.7,72.8C35.6,72.8,35.6,72.8,35.7,72.8c-0.1,0-0.2,0-0.3-0.1c0-0.1,0-0.2,0.1-0.3
					c0.1,0,0.2,0,0.3,0.1C35.8,72.6,35.7,72.7,35.7,72.8z"/>
				<circle id="XMLID_1198_" class="st23" cx="37.4" cy="75.9" r="0.2"/>
				<circle id="XMLID_1197_" class="st23" cx="38.8" cy="70.8" r="0.2"/>
				<circle id="XMLID_1196_" class="st23" cx="40.6" cy="74.1" r="0.2"/>
				<circle id="XMLID_1195_" class="st23" cx="38.1" cy="73.3" r="0.2"/>
				<circle id="XMLID_1194_" class="st23" cx="36.3" cy="70.1" r="0.2"/>
				<circle id="XMLID_1193_" class="st23" cx="41.4" cy="71.5" r="0.2"/>
				<path id="XMLID_1192_" class="st23" d="M29.1,76.4L29.1,76.4c-0.1,0-0.2,0-0.3-0.1c0-0.1,0-0.2,0.1-0.3c0.1,0,0.2,0,0.3,0.1
					C29.2,76.2,29.2,76.3,29.1,76.4z"/>
				<circle id="XMLID_1191_" class="st23" cx="30.8" cy="79.5" r="0.2"/>
				<circle id="XMLID_1190_" class="st23" cx="32.3" cy="74.4" r="0.2"/>
				<circle id="XMLID_1189_" class="st23" cx="34.1" cy="77.7" r="0.2"/>
				<circle id="XMLID_1188_" class="st23" cx="31.6" cy="76.9" r="0.2"/>
				<circle id="XMLID_1187_" class="st23" cx="29.8" cy="73.7" r="0.2"/>
				<circle id="XMLID_1186_" class="st23" cx="34.8" cy="75.1" r="0.2"/>
				<circle id="XMLID_1185_" class="st23" cx="33" cy="71.9" r="0.2"/>
				<path id="XMLID_1184_" class="st23" d="M22.6,80L22.6,80c-0.1,0-0.2,0-0.3-0.1c0-0.1,0-0.2,0.1-0.3c0.1,0,0.2,0,0.3,0.1
					C22.7,79.8,22.7,79.9,22.6,80z"/>
				<circle id="XMLID_1183_" class="st23" cx="24.3" cy="83.1" r="0.2"/>
				<circle id="XMLID_1182_" class="st23" cx="25.8" cy="78" r="0.2"/>
				<circle id="XMLID_1181_" class="st23" cx="27.6" cy="81.3" r="0.2"/>
				<circle id="XMLID_1180_" class="st23" cx="25" cy="80.6" r="0.2"/>
				<circle id="XMLID_1179_" class="st23" cx="23.2" cy="77.3" r="0.2"/>
				<circle id="XMLID_1178_" class="st23" cx="28.3" cy="78.8" r="0.2"/>
				<circle id="XMLID_1177_" class="st23" cx="26.5" cy="75.5" r="0.2"/>
				<circle id="XMLID_1176_" class="st23" cx="60.5" cy="71.6" r="0.2"/>
				<circle id="XMLID_1175_" class="st23" cx="63.8" cy="69.8" r="0.2"/>
				<path id="XMLID_1174_" class="st23" d="M52.3,72.1L52.3,72.1c-0.1,0-0.2,0-0.3-0.1c0-0.1,0-0.2,0.1-0.3c0.1,0,0.2,0,0.3,0.1
					C52.4,71.9,52.4,72,52.3,72.1z"/>
				<circle id="XMLID_1173_" class="st23" cx="54" cy="75.2" r="0.2"/>
				<path id="XMLID_1172_" class="st23" d="M55.6,70.3c-0.1,0-0.2,0-0.3-0.1v-0.1c0.1,0,0.2,0,0.4,0C55.7,70.2,55.6,70.2,55.6,70.3z
					"/>
				<circle id="XMLID_1171_" class="st23" cx="57.3" cy="73.4" r="0.2"/>
				<circle id="XMLID_1170_" class="st23" cx="54.7" cy="72.7" r="0.2"/>
				<circle id="XMLID_1169_" class="st23" cx="58" cy="70.9" r="0.2"/>
				<path id="XMLID_1168_" class="st23" d="M45.8,75.7C45.8,75.7,45.7,75.7,45.8,75.7c-0.1,0-0.2,0-0.3-0.1c0-0.1,0-0.2,0.1-0.3
					c0.1,0,0.2,0,0.3,0.1C45.9,75.5,45.9,75.6,45.8,75.7z"/>
				<circle id="XMLID_1167_" class="st23" cx="47.5" cy="78.8" r="0.2"/>
				<circle id="XMLID_1166_" class="st23" cx="49" cy="73.7" r="0.2"/>
				<circle id="XMLID_1165_" class="st23" cx="50.8" cy="77" r="0.2"/>
				<circle id="XMLID_1164_" class="st23" cx="48.2" cy="76.3" r="0.2"/>
				<circle id="XMLID_1163_" class="st23" cx="46.4" cy="73" r="0.2"/>
				<circle id="XMLID_1162_" class="st23" cx="51.5" cy="74.5" r="0.2"/>
				<circle id="XMLID_1161_" class="st23" cx="49.7" cy="71.2" r="0.2"/>
				<path id="XMLID_1160_" class="st23" d="M39.3,79.3C39.2,79.3,39.2,79.3,39.3,79.3c-0.1,0-0.2,0-0.3-0.1c0-0.1,0-0.2,0.1-0.3
					c0.1,0,0.2,0,0.3,0.1C39.4,79.1,39.3,79.2,39.3,79.3z"/>
				<circle id="XMLID_1159_" class="st23" cx="41" cy="82.4" r="0.2"/>
				<circle id="XMLID_1158_" class="st23" cx="42.4" cy="77.3" r="0.2"/>
				<circle id="XMLID_1157_" class="st23" cx="44.2" cy="80.6" r="0.2"/>
				<circle id="XMLID_1156_" class="st23" cx="41.7" cy="79.9" r="0.2"/>
				<circle id="XMLID_1155_" class="st23" cx="39.9" cy="76.6" r="0.2"/>
				<circle id="XMLID_1154_" class="st23" cx="45" cy="78.1" r="0.2"/>
				<circle id="XMLID_1153_" class="st23" cx="43.2" cy="74.8" r="0.2"/>
				<path id="XMLID_1152_" class="st23" d="M32.7,82.9L32.7,82.9c-0.1,0-0.2,0-0.3-0.1c0-0.1,0-0.2,0.1-0.3c0.1,0,0.2,0,0.3,0.1
					C32.9,82.7,32.8,82.9,32.7,82.9z"/>
				<circle id="XMLID_1151_" class="st23" cx="34.4" cy="86" r="0.2"/>
				<circle id="XMLID_1150_" class="st23" cx="35.9" cy="80.9" r="0.2"/>
				<circle id="XMLID_1149_" class="st23" cx="37.7" cy="84.2" r="0.2"/>
				<circle id="XMLID_1148_" class="st23" cx="35.2" cy="83.5" r="0.2"/>
				<circle id="XMLID_1147_" class="st23" cx="33.4" cy="80.2" r="0.2"/>
				<circle id="XMLID_1146_" class="st23" cx="38.4" cy="81.7" r="0.2"/>
				<circle id="XMLID_1145_" class="st23" cx="36.6" cy="78.4" r="0.2"/>
				<circle id="XMLID_1144_" class="st23" cx="29.4" cy="84.5" r="0.2"/>
				<circle id="XMLID_1143_" class="st23" cx="26.8" cy="83.8" r="0.2"/>
				<circle id="XMLID_1142_" class="st23" cx="31.9" cy="85.3" r="0.2"/>
				<circle id="XMLID_1141_" class="st23" cx="30.1" cy="82" r="0.2"/>
				<path id="XMLID_1140_" class="st23" d="M88.5,60.6L88.5,60.6c-0.1,0-0.2,0-0.3-0.1c0-0.1,0-0.2,0.1-0.3c0.1,0,0.2,0,0.3,0.1
					C88.6,60.4,88.6,60.5,88.5,60.6z"/>
				<circle id="XMLID_1139_" class="st23" cx="90.2" cy="63.7" r="0.2"/>
				<path id="XMLID_1138_" class="st23" d="M82,64.2L82,64.2c-0.1,0-0.2,0-0.3-0.1c0-0.1,0-0.2,0.1-0.3c0.1,0,0.2,0,0.3,0.1
					C82.1,64,82.1,64.1,82,64.2z"/>
				<circle id="XMLID_1137_" class="st23" cx="83.7" cy="67.3" r="0.2"/>
				<circle id="XMLID_1136_" class="st23" cx="85.2" cy="62.2" r="0.2"/>
				<circle id="XMLID_1135_" class="st23" cx="87" cy="65.5" r="0.2"/>
				<circle id="XMLID_1134_" class="st23" cx="84.4" cy="64.8" r="0.2"/>
				<circle id="XMLID_1133_" class="st23" cx="87.7" cy="62.9" r="0.2"/>
				<path id="XMLID_1132_" class="st23" d="M75.5,67.8C75.5,67.8,75.4,67.8,75.5,67.8c-0.1,0-0.2,0-0.3-0.1c0-0.1,0-0.2,0.1-0.3
					c0.1,0,0.2,0,0.3,0.1S75.6,67.7,75.5,67.8z"/>
				<circle id="XMLID_1131_" class="st23" cx="77.2" cy="70.9" r="0.2"/>
				<circle id="XMLID_1130_" class="st23" cx="78.6" cy="65.8" r="0.2"/>
				<circle id="XMLID_1129_" class="st23" cx="80.5" cy="69.1" r="0.2"/>
				<circle id="XMLID_1128_" class="st23" cx="77.9" cy="68.4" r="0.2"/>
				<circle id="XMLID_1127_" class="st23" cx="81.2" cy="66.6" r="0.2"/>
				<path id="XMLID_1126_" class="st23" d="M69,71.4C68.9,71.4,68.9,71.4,69,71.4c-0.1,0-0.2,0-0.3-0.1c0-0.1,0-0.2,0.1-0.3
					c0.1,0,0.2,0,0.3,0.1C69.1,71.2,69,71.3,69,71.4z"/>
				<circle id="XMLID_1125_" class="st23" cx="70.7" cy="74.5" r="0.2"/>
				<circle id="XMLID_1124_" class="st23" cx="72.1" cy="69.4" r="0.2"/>
				<circle id="XMLID_1123_" class="st23" cx="73.9" cy="72.7" r="0.2"/>
				<circle id="XMLID_1122_" class="st23" cx="71.4" cy="72" r="0.2"/>
				<circle id="XMLID_1121_" class="st23" cx="69.6" cy="68.7" r="0.2"/>
				<circle id="XMLID_1120_" class="st23" cx="74.7" cy="70.2" r="0.2"/>
				<circle id="XMLID_1119_" class="st23" cx="72.9" cy="66.9" r="0.2"/>
				<path id="XMLID_1118_" class="st23" d="M62.4,75L62.4,75c-0.1,0-0.2,0-0.3-0.1c0-0.1,0-0.2,0.1-0.3c0.1,0,0.2,0,0.3,0.1
					C62.6,74.8,62.5,75,62.4,75z"/>
				<circle id="XMLID_1117_" class="st23" cx="64.1" cy="78.1" r="0.2"/>
				<circle id="XMLID_1116_" class="st23" cx="65.6" cy="73" r="0.2"/>
				<circle id="XMLID_1115_" class="st23" cx="67.4" cy="76.3" r="0.2"/>
				<circle id="XMLID_1114_" class="st23" cx="64.9" cy="75.6" r="0.2"/>
				<circle id="XMLID_1113_" class="st23" cx="63.1" cy="72.3" r="0.2"/>
				<circle id="XMLID_1112_" class="st23" cx="68.1" cy="73.8" r="0.2"/>
				<circle id="XMLID_1111_" class="st23" cx="66.3" cy="70.5" r="0.2"/>
				<path id="XMLID_1110_" class="st23" d="M55.9,78.6L55.9,78.6c-0.1,0-0.2,0-0.3-0.1c0-0.1,0-0.2,0.1-0.3c0.1,0,0.2,0,0.3,0.1
					S56,78.6,55.9,78.6z"/>
				<circle id="XMLID_1109_" class="st23" cx="57.6" cy="81.7" r="0.2"/>
				<circle id="XMLID_1108_" class="st23" cx="59.1" cy="76.6" r="0.2"/>
				<circle id="XMLID_1107_" class="st23" cx="60.9" cy="79.9" r="0.2"/>
				<circle id="XMLID_1106_" class="st23" cx="58.4" cy="79.2" r="0.2"/>
				<circle id="XMLID_1105_" class="st23" cx="56.5" cy="75.9" r="0.2"/>
				<circle id="XMLID_1104_" class="st23" cx="61.6" cy="77.4" r="0.2"/>
				<circle id="XMLID_1103_" class="st23" cx="59.8" cy="74.1" r="0.2"/>
				<path id="XMLID_1102_" class="st23" d="M49.4,82.2C49.4,82.2,49.3,82.2,49.4,82.2c-0.1,0-0.2,0-0.3-0.1c0-0.1,0-0.2,0.1-0.3
					c0.1,0,0.2,0,0.3,0.1C49.5,82.1,49.5,82.2,49.4,82.2z"/>
				<circle id="XMLID_1101_" class="st23" cx="51.1" cy="85.3" r="0.2"/>
				<circle id="XMLID_1100_" class="st23" cx="52.6" cy="80.3" r="0.2"/>
				<circle id="XMLID_1099_" class="st23" cx="54.4" cy="83.5" r="0.2"/>
				<circle id="XMLID_1098_" class="st23" cx="51.8" cy="82.8" r="0.2"/>
				<circle id="XMLID_1097_" class="st23" cx="50" cy="79.5" r="0.2"/>
				<circle id="XMLID_1096_" class="st23" cx="55.1" cy="81" r="0.2"/>
				<circle id="XMLID_1095_" class="st23" cx="53.3" cy="77.7" r="0.2"/>
				<path id="XMLID_1094_" class="st23" d="M42.9,85.8C42.8,85.8,42.8,85.8,42.9,85.8c-0.1,0-0.2,0-0.3-0.1c0-0.1,0-0.2,0.1-0.3
					c0.1,0,0.2,0,0.3,0.1C43,85.7,43,85.8,42.9,85.8z"/>
				<path id="XMLID_1093_" class="st23" d="M44.7,89L44.7,89c-0.2,0-0.2,0-0.3,0c0,0,0,0-0.1,0c0-0.1,0-0.2,0.1-0.2
					S44.6,88.8,44.7,89C44.8,88.9,44.8,89,44.7,89z"/>
				<circle id="XMLID_1092_" class="st23" cx="46" cy="83.9" r="0.2"/>
				<circle id="XMLID_1091_" class="st23" cx="47.8" cy="87.1" r="0.2"/>
				<circle id="XMLID_1090_" class="st23" cx="45.3" cy="86.4" r="0.2"/>
				<circle id="XMLID_1089_" class="st23" cx="43.5" cy="83.1" r="0.2"/>
				<circle id="XMLID_1088_" class="st23" cx="48.6" cy="84.6" r="0.2"/>
				<circle id="XMLID_1087_" class="st23" cx="46.8" cy="81.3" r="0.2"/>
				<circle id="XMLID_1086_" class="st23" cx="39.5" cy="87.5" r="0.2"/>
				<circle id="XMLID_1085_" class="st23" cx="37" cy="86.7" r="0.2"/>
				<circle id="XMLID_1084_" class="st23" cx="42" cy="88.2" r="0.2"/>
				<circle id="XMLID_1083_" class="st23" cx="40.2" cy="84.9" r="0.2"/>
				<path id="XMLID_1082_" class="st23" d="M92.1,67.1L92.1,67.1c-0.1,0-0.2,0-0.3-0.1c0-0.1,0-0.2,0.1-0.3c0.1,0,0.2,0,0.3,0.1
					C92.3,66.9,92.2,67.1,92.1,67.1z"/>
				<circle id="XMLID_1081_" class="st23" cx="93.8" cy="70.2" r="0.2"/>
				<path id="XMLID_1080_" class="st23" d="M85.6,70.7L85.6,70.7c-0.1,0-0.2,0-0.3-0.1c0-0.1,0-0.2,0.1-0.3c0.1,0,0.2,0,0.3,0.1
					S85.7,70.7,85.6,70.7z"/>
				<circle id="XMLID_1079_" class="st23" cx="87.3" cy="73.8" r="0.2"/>
				<circle id="XMLID_1078_" class="st23" cx="88.8" cy="68.7" r="0.2"/>
				<circle id="XMLID_1077_" class="st23" cx="90.6" cy="72" r="0.2"/>
				<circle id="XMLID_1076_" class="st23" cx="88" cy="71.3" r="0.2"/>
				<circle id="XMLID_1075_" class="st23" cx="86.2" cy="68" r="0.2"/>
				<circle id="XMLID_1074_" class="st23" cx="91.3" cy="69.5" r="0.2"/>
				<circle id="XMLID_1073_" class="st23" cx="89.5" cy="66.2" r="0.2"/>
				<path id="XMLID_1072_" class="st23" d="M79.1,74.3C79.1,74.3,79,74.3,79.1,74.3c-0.1,0-0.2,0-0.3-0.1c0-0.1,0-0.2,0.1-0.3
					c0.1,0,0.2,0,0.3,0.1C79.2,74.2,79.2,74.3,79.1,74.3z"/>
				<circle id="XMLID_1071_" class="st23" cx="80.8" cy="77.4" r="0.2"/>
				<circle id="XMLID_1000_" class="st23" cx="82.3" cy="72.3" r="0.2"/>
				<circle id="XMLID_999_" class="st23" cx="84.1" cy="75.6" r="0.2"/>
				<circle id="XMLID_998_" class="st23" cx="81.5" cy="74.9" r="0.2"/>
				<circle id="XMLID_997_" class="st23" cx="79.7" cy="71.6" r="0.2"/>
				<circle id="XMLID_996_" class="st23" cx="84.8" cy="73.1" r="0.2"/>
				<circle id="XMLID_995_" class="st23" cx="83" cy="69.8" r="0.2"/>
				<path id="XMLID_994_" class="st23" d="M72.6,77.9C72.5,77.9,72.5,77.9,72.6,77.9c-0.1,0-0.2,0-0.3-0.1c0-0.1,0-0.2,0.1-0.3
					c0.1,0,0.2,0,0.3,0.1S72.7,77.9,72.6,77.9z"/>
				<circle id="XMLID_993_" class="st23" cx="74.3" cy="81" r="0.2"/>
				<circle id="XMLID_989_" class="st23" cx="75.7" cy="76" r="0.2"/>
				<circle id="XMLID_988_" class="st23" cx="77.5" cy="79.2" r="0.2"/>
				<circle id="XMLID_985_" class="st23" cx="75" cy="78.5" r="0.2"/>
				<circle id="XMLID_984_" class="st23" cx="73.2" cy="75.2" r="0.2"/>
				<circle id="XMLID_981_" class="st23" cx="78.3" cy="76.7" r="0.2"/>
				<circle id="XMLID_979_" class="st23" cx="76.5" cy="73.4" r="0.2"/>
				<path id="XMLID_964_" class="st23" d="M66,81.5L66,81.5c-0.1,0-0.2,0-0.3-0.1c0-0.1,0-0.2,0.1-0.3c0.1,0,0.2,0,0.3,0.1
					S66.1,81.5,66,81.5z"/>
				<circle id="XMLID_963_" class="st23" cx="67.8" cy="84.6" r="0.2"/>
				<circle id="XMLID_962_" class="st23" cx="69.2" cy="79.6" r="0.2"/>
				<circle id="XMLID_959_" class="st23" cx="71" cy="82.8" r="0.2"/>
				<circle id="XMLID_958_" class="st23" cx="68.5" cy="82.1" r="0.2"/>
				<circle id="XMLID_957_" class="st23" cx="66.7" cy="78.8" r="0.2"/>
				<circle id="XMLID_956_" class="st23" cx="71.7" cy="80.3" r="0.2"/>
				<circle id="XMLID_955_" class="st23" cx="69.9" cy="77" r="0.2"/>
				<path id="XMLID_954_" class="st23" d="M59.5,85.1C59.5,85.1,59.5,85.2,59.5,85.1c-0.1,0-0.2,0-0.3-0.1c0-0.1,0-0.2,0.1-0.3
					c0.1,0,0.2,0,0.3,0.1C59.6,85,59.6,85.1,59.5,85.1z"/>
				<circle id="XMLID_953_" class="st23" cx="61.2" cy="88.2" r="0.2"/>
				<circle id="XMLID_952_" class="st23" cx="62.7" cy="83.2" r="0.2"/>
				<circle id="XMLID_951_" class="st23" cx="64.5" cy="86.4" r="0.2"/>
				<circle id="XMLID_950_" class="st23" cx="62" cy="85.7" r="0.2"/>
				<circle id="XMLID_949_" class="st23" cx="60.2" cy="82.4" r="0.2"/>
				<circle id="XMLID_948_" class="st23" cx="65.2" cy="83.9" r="0.2"/>
				<circle id="XMLID_947_" class="st23" cx="63.4" cy="80.6" r="0.2"/>
				<path id="XMLID_946_" class="st23" d="M53,88.7C53,88.8,52.9,88.8,53,88.7c-0.1,0-0.2,0-0.3-0.1c0-0.1,0-0.2,0.1-0.3
					c0.1,0,0.2,0,0.3,0.1C53.1,88.6,53.1,88.7,53,88.7z"/>
				<circle id="XMLID_945_" class="st23" cx="56.2" cy="86.8" r="0.2"/>
				<path id="XMLID_944_" class="st23" d="M57.8,89.9C57.8,89.9,57.9,89.9,57.8,89.9c0.1-0.1,0.2-0.1,0.3,0
					C58,89.9,57.9,89.9,57.8,89.9z"/>
				<circle id="XMLID_943_" class="st23" cx="55.4" cy="89.3" r="0.2"/>
				<circle id="XMLID_942_" class="st23" cx="53.6" cy="86" r="0.2"/>
				<circle id="XMLID_941_" class="st23" cx="58.7" cy="87.5" r="0.2"/>
				<circle id="XMLID_940_" class="st23" cx="56.9" cy="84.2" r="0.2"/>
				<circle id="XMLID_939_" class="st23" cx="50.4" cy="87.8" r="0.2"/>
				<path id="XMLID_938_" class="st23" d="M95.7,73.6L95.7,73.6c-0.1,0-0.2,0-0.3-0.1c0-0.1,0-0.2,0.1-0.3c0.1,0,0.2,0,0.3,0.1
					C95.9,73.5,95.8,73.6,95.7,73.6z"/>
				<path id="XMLID_937_" class="st23" d="M89.2,77.2C89.2,77.2,89.2,77.3,89.2,77.2c-0.1,0-0.2,0-0.3-0.1c0-0.1,0-0.2,0.1-0.3
					c0.1,0,0.2,0,0.3,0.1C89.3,77.1,89.3,77.2,89.2,77.2z"/>
				<circle id="XMLID_936_" class="st23" cx="90.9" cy="80.3" r="0.2"/>
				<circle id="XMLID_935_" class="st23" cx="92.4" cy="75.3" r="0.2"/>
				<path id="XMLID_934_" class="st23" d="M94.4,78.5c-0.1,0.1-0.2,0.1-0.2,0.2c0,0-0.1,0-0.1-0.1s0-0.2,0.1-0.3
					C94.2,78.3,94.3,78.3,94.4,78.5L94.4,78.5z"/>
				<circle id="XMLID_933_" class="st23" cx="91.7" cy="77.8" r="0.2"/>
				<circle id="XMLID_932_" class="st23" cx="89.9" cy="74.5" r="0.2"/>
				<circle id="XMLID_930_" class="st23" cx="94.9" cy="76" r="0.2"/>
				<circle id="XMLID_929_" class="st23" cx="93.1" cy="72.7" r="0.2"/>
				<path id="XMLID_928_" class="st23" d="M82.7,80.8C82.7,80.9,82.6,80.9,82.7,80.8c-0.1,0-0.2,0-0.3-0.1c0-0.1,0-0.2,0.1-0.3
					c0.1,0,0.2,0,0.3,0.1C82.8,80.7,82.8,80.8,82.7,80.8z"/>
				<circle id="XMLID_927_" class="st23" cx="85.9" cy="78.9" r="0.2"/>
				<path id="XMLID_926_" class="st23" d="M87.8,82.2c-0.1,0-0.2,0.1-0.3,0.1c0,0-0.1,0-0.1-0.1s0-0.2,0.1-0.3c0.1,0,0.2,0,0.3,0.1
					C87.8,82.1,87.9,82.1,87.8,82.2z"/>
				<circle id="XMLID_924_" class="st23" cx="85.1" cy="81.4" r="0.2"/>
				<circle id="XMLID_923_" class="st23" cx="83.3" cy="78.1" r="0.2"/>
				<circle id="XMLID_922_" class="st23" cx="88.4" cy="79.6" r="0.2"/>
				<circle id="XMLID_921_" class="st23" cx="86.6" cy="76.3" r="0.2"/>
				<path id="XMLID_920_" class="st23" d="M76.2,84.4C76.1,84.5,76.1,84.5,76.2,84.4c-0.1,0-0.2,0-0.3-0.1c0-0.1,0-0.2,0.1-0.3
					c0.1,0,0.2,0,0.3,0.1C76.3,84.3,76.3,84.4,76.2,84.4z"/>
				<circle id="XMLID_919_" class="st23" cx="79.3" cy="82.5" r="0.2"/>
				<circle id="XMLID_918_" class="st23" cx="78.6" cy="85" r="0.2"/>
				<circle id="XMLID_917_" class="st23" cx="76.8" cy="81.7" r="0.2"/>
				<circle id="XMLID_916_" class="st23" cx="81.9" cy="83.2" r="0.2"/>
				<circle id="XMLID_915_" class="st23" cx="80.1" cy="79.9" r="0.2"/>
				<path id="XMLID_914_" class="st23" d="M69.6,88.1L69.6,88.1c-0.1,0-0.2,0-0.3-0.1c0-0.1,0-0.2,0.1-0.3c0.1,0,0.2,0,0.3,0.1
					C69.8,87.9,69.7,88,69.6,88.1z"/>
				<circle id="XMLID_913_" class="st23" cx="72.8" cy="86.1" r="0.2"/>
				<circle id="XMLID_912_" class="st23" cx="70.3" cy="85.4" r="0.2"/>
				<path id="XMLID_911_" class="st23" d="M75.5,86.8c-0.1,0-0.2,0.1-0.4,0.1c0-0.1,0-0.2,0.1-0.2C75.3,86.6,75.5,86.6,75.5,86.8
					C75.5,86.7,75.5,86.8,75.5,86.8z"/>
				<circle id="XMLID_910_" class="st23" cx="73.5" cy="83.6" r="0.2"/>
				<circle id="XMLID_909_" class="st23" cx="63.8" cy="89" r="0.2"/>
				<circle id="XMLID_625_" class="st23" cx="67" cy="87.2" r="0.2"/>
			</g>
			<path id="XMLID_508_" class="st21" d="M91.9,80.2c0,0-12.9,7.2-29,9.3c-16,2.2-37.4-4.7-39.1-6.3c-1.7-1.6-5.2-7.3-4.9-13.5
				c0.1-2.3,0.5-3.7,1-4.4c-0.3,3.6-0.6,12,4.1,16.4c5.4,5,22.1,6.5,31,7.2s23.2-3.1,32.8-7.6c5.2-2.5,7.4-4.7,8.3-6.3
				C96,78.3,91.9,80.2,91.9,80.2z"/>
			<path id="XMLID_507_" class="st23" d="M72.3,73c0,0,2.5,3.3,0.7,4.8S59.2,83.2,51,82c-8.2-1.1-9.7-2.1-10-2.7
				c-0.3-0.5-1.1-1.8,0.2-2.9c1.3-1.2,5.5-0.7,10-0.6c4.4,0,12.7-1.1,15.5-2.2C69.5,72.5,71.7,71.6,72.3,73z"/>
			<path id="XMLID_506_" class="st24" d="M73,77.8c-1.8,1.5-13.8,5.4-22,4.2c-8.2-1.1-9.7-2.1-10-2.7c-0.2-0.4-0.7-1.2-0.4-2.1
				c0.2,0.5,0.5,1.1,0.9,1.5c0.7,0.9,2.3,1,10.1,2.3c7.8,1.4,16.9-2.4,19.6-3.5c1.1-0.4,1.9-1,2.4-1.5C73.7,76.8,73.5,77.4,73,77.8z
				"/>
		</g>
	</g>
	<g id="XMLID_462_">
		<path id="XMLID_503_" class="st0" d="M0.6,67.4C0.7,61,5.8,53.6,12.9,55.8c5,1.6,7,5,6,10c-1.1,4.6-3.9,9.2-9.1,9
			C5,74.6,0.5,72.6,0.6,67.4z"/>
		<g id="XMLID_463_">
			<path id="XMLID_465_" class="st18" d="M0.6,67.4C0.7,61,5.8,53.6,12.9,55.8c5,1.6,7,5,6,10c-1.1,4.6-3.9,9.2-9.1,9
				C5,74.6,0.5,72.6,0.6,67.4z"/>
			<path id="XMLID_464_" class="st19" d="M1.1,67.4c0.2-3.6,1.6-7,4.2-9.6c4.1-3.9,11.2-1.7,12.9,3.4c1.3,3.9-1,8.9-3.7,11.6
				C10,77.2,1.3,73.4,1.1,67.4C1.1,67,0,67,0,67.4c0.2,5.5,5.7,8.3,10.8,7.7c6.1-0.7,9.5-7.6,8.7-13.2c-0.7-5-6.8-7.4-11.2-6.5
				c-5.3,1-8,7.1-8.3,12C0,67.8,1.1,67.8,1.1,67.4z"/>
		</g>
	</g>
	<g id="XMLID_427_">
		<path id="XMLID_440_" class="st0" d="M112.8,67.7c-0.2-6.3-5.2-13.8-12.3-11.6c-5,1.6-7,5-6,10c1.1,4.6,3.9,9.2,9.1,9
			C108.4,74.9,112.9,72.9,112.8,67.7z"/>
		<g id="XMLID_428_">
			<path id="XMLID_430_" class="st18" d="M112.8,67.7c-0.2-6.3-5.2-13.8-12.3-11.6c-5,1.6-7,5-6,10c1.1,4.6,3.9,9.2,9.1,9
				C108.4,74.9,112.9,72.9,112.8,67.7z"/>
			<path id="XMLID_429_" class="st19" d="M112.3,67.7c-0.2-3.6-1.6-7-4.2-9.6c-4.1-3.9-11.2-1.7-12.9,3.4c-1.3,3.9,1,8.9,3.7,11.6
				C103.4,77.5,112,73.7,112.3,67.7c0-0.4,1.1-0.4,1.1,0c-0.2,5.5-5.7,8.3-10.8,7.7c-6.1-0.7-9.5-7.6-8.7-13.2
				c0.7-5,6.8-7.4,11.2-6.5c5.3,1.1,8.1,7.2,8.3,12C113.4,68.1,112.3,68.2,112.3,67.7z"/>
		</g>
	</g>
</g>
</svg>
