<?xml version="1.0" encoding="utf-8"?>
<!-- Generator: Adobe Illustrator 19.0.0, SVG Export Plug-In . SVG Version: 6.00 Build 0)  -->
<svg version="1.1" id="图层_1" xmlns="http://www.w3.org/2000/svg" xmlns:xlink="http://www.w3.org/1999/xlink" x="0px" y="0px"
	 viewBox="0 0 113.4 113.4" style="enable-background:new 0 0 113.4 113.4;" xml:space="preserve">
<style type="text/css">
	.st0{fill:#3C74AB;}
	.st1{fill:#FFFFFF;}
	.st2{fill:#FFFFFF;stroke:#3C74AB;stroke-miterlimit:10;}
	.st3{fill:#ABCAE7;}
	.st4{fill:#D3E6F6;}
	.st5{fill:#3A1E0D;}
	.st6{fill:#FFFFFF;stroke:#182A88;stroke-miterlimit:10;}
	.st7{fill:#E8C7AD;}
	.st8{fill:none;stroke:#3C74AB;stroke-miterlimit:10;}
	.st9{fill:#F9FDFF;}
	.st10{fill:#245C96;}
	.st11{fill:#ECEBE1;stroke:#A3A29F;stroke-width:0.2105;stroke-miterlimit:10;}
	.st12{fill:#B4B3A9;}
	.st13{opacity:0.4;fill:#B4B3A9;enable-background:new    ;}
	.st14{fill:none;}
	.st15{fill:none;stroke:#DA91BC;stroke-width:0.5;stroke-linecap:round;}
</style>
<g id="XMLID_979_">
	<g id="XMLID_955_">
		<path id="XMLID_964_" class="st0" d="M88.9,68.8L88.9,68.8c1.2,0.6,8.8,3.1,9.9,3.6c1.3,0.7,3.2,1.4,3.1,2.4
			c-0.1,1-1.7,1.8-2.7,2.4c-1.3,0.8-9.1,3.1-10.5,3.6c0.1-0.7-0.3,2-0.2,1.6c1.6-0.4,9.4-2.9,10.9-3.6c5.5-2.7,3.4-5.2,2.9-5.7
			c-2-1.9-11.2-5.3-13.6-5.7C88.7,66.5,88.9,68.7,88.9,68.8z"/>
		<path id="XMLID_956_" class="st0" d="M110.2,76.9c0.3-3.8-2.8-7.1-5.5-9.3c-1.8-1.5-3.8-2.8-5.8-3.8c-1.6-0.9-8.3-3.4-9.8-4.1
			c-0.2-0.1-0.5-0.2-0.7-0.3c-0.1-0.3,0.5,1.7,0.4,1.2c0.4,0.3,0.9,0.5,1.4,0.7c1.1,0.4,7.1,3.1,8.1,3.7c0.7,0.4,1.3,0.8,1.9,1.2
			c0.1,0.1,0.2,0.2,0.3,0.2c3.2,2.1,6.7,4.9,7.8,8.7c0.3,0.9,0.3,1.7,0.1,2.6c-0.4,2.2-2,3.9-3.6,5.3c-3.1,2.4-6.9,2.7-10.3,4.1
			c-0.1,0-0.2,0.2-0.2,0.3c0,0,0,0,0,0.1c0,0.2,0,0.3,0.3,0.4c1,0.1,2.1,0.1,3.2,0c0.1,0,0.5-0.1,0.7-0.1c0.1,0,0.2,0,0.3-0.1
			c-0.1,0.3-0.2,0.9-0.2,1.5c-0.6,0.1-1.2,0.2-1.7,0.5c-1.4,0.6-2,1.7-2,2.8c0,0.2,0,0.6,0.1,0.8c0.2,0.8,0.7,1.6,1.3,2.2
			c0.1,0.1,0.2,0.2,0.6,0.4c0.8,0.5,1.7,0.7,2.7,0.5c0.3,0,0.6-0.1,0.8-0.2c0.2-0.1,0.2-0.4-0.1-0.4c-1.8-0.1-4.2-1.6-3.4-3.6
			c0-0.1,0-0.1,0.1-0.2c0.9-1.8,3.7-1.4,5.1-0.7c0.4,0.2,0.7,0.4,1,0.7c2.2,1.9,0.9,5.3-1.4,6.9c-2.1,1.5-4.8,1.5-7.2,1
			c-0.7-0.1-1.4-0.4-2-0.6c-0.5-0.2-1-0.4-1.5-0.6c-0.7-0.3-2.3-1.7-3-2.1c0-0.1-0.5,0.7-0.6,1c0.7,1,3.1,2.5,4.1,3
			c1.9,0.9,4,1.3,6.1,1.3c2.3,0,4.5-1,6-2.5c2.1-0.6,3.8-2.7,5-4.2c1.5-2.1,1.4-4.9-0.1-6.9c-0.9-1.3-2.9-2.2-4.8-2.4
			C107.1,83.8,110,80.6,110.2,76.9z M104.5,87.4c0.9,0.2,1.7,0.7,2.3,1.4c0.5,0.6,0.9,1.3,1.2,2.1c0.6,2.2-0.6,3.7-2.2,5.1
			c-0.1,0.1-0.2,0.2-0.3,0.2c0-0.1,0-0.1,0-0.2c0.1-0.5,0.2-1,0.3-1.5c0.1-0.8-0.1-1.5-0.3-2.1c-0.9-2.1-3.1-3.1-5.5-3.3
			C99.8,86.9,103.3,87.1,104.5,87.4z"/>
	</g>
	<path id="XMLID_954_" class="st1" d="M104.5,87.4c0.9,0.2,1.7,0.7,2.3,1.4c0.5,0.6,0.9,1.3,1.2,2.1c0.6,2.2-0.6,3.7-2.2,5.1
		c-0.1,0.1-0.2,0.2-0.3,0.2c0-0.1,0-0.1,0-0.2c0.1-0.5,0.2-1,0.3-1.5c0.1-0.8-0.1-1.5-0.3-2.1c-0.9-2.1-3.1-3.1-5.5-3.3
		C99.8,86.9,103.3,87.1,104.5,87.4z"/>
	<path id="XMLID_953_" class="st1" d="M104.9,82.8c-3.1,2.4-6.9,2.7-10.3,4.1c-0.1,0-0.2,0.2-0.2,0.3c0,0,0,0,0,0.1
		c0,0.2,0,0.3,0.3,0.4c1,0.1,2.1,0.1,3.2,0c0.2,0,0.5-0.1,0.7-0.1c0.1,0,0.2,0,0.3-0.1c-0.2,0.5-0.4,1.1-0.3,1.7
		c-0.6,0.1-1.2,0.2-1.7,0.5c-1.4,0.6-2,1.7-2,2.8c0,0.4,0,0.5,0.1,0.8c0.2,0.8,0.7,1.6,1.3,2.2c0.1,0.1,0.3,0.3,0.6,0.4
		c0.8,0.5,1.7,0.7,2.7,0.5c0.3,0,0.6-0.1,0.8-0.2c0.2-0.1,0.2-0.4-0.1-0.4c-1.8-0.1-4.2-1.6-3.4-3.6c0-0.1,0-0.1,0.1-0.2
		c0.9-1.8,3.7-1.4,5.1-0.7c0.4,0.2,0.7,0.4,1,0.7c2.2,1.9,0.9,5.3-1.4,6.9c-2.1,1.5-4.8,1.5-7.2,1c-0.7-0.1-1.4-0.4-2-0.6
		c-0.5-0.2-1-0.4-1.5-0.6c-2.2-1-4.8-3.4-5.8-4.4c1.7-3.6,3-7.6,3.4-11.8c2.2-0.6,10.9-3.6,12.2-4.4c3.7-2.4,2.4-4.1,1.6-4.8
		c-2-1.9-10.9-5.1-13.5-5.6v-6.9c0.4,0.2,0.8,0.4,1.3,0.6c1.1,0.4,7.1,3.1,8.1,3.7c0.7,0.4,1.3,0.8,1.9,1.2c0.1,0.1,0.2,0.2,0.3,0.2
		c3.2,2.1,6.7,4.9,7.8,8.7c0.3,0.9,0.3,1.7,0.1,2.6C108.1,79.6,106.5,81.4,104.9,82.8z"/>
	
		<ellipse id="XMLID_949_" transform="matrix(-0.5394 0.8421 -0.8421 -0.5394 77.0563 108.9115)" class="st2" cx="8.7" cy="75.5" rx="7.2" ry="3.1"/>
	<path id="XMLID_948_" class="st3" d="M61.6,79.2c0,2.4-1.8,3.9-3.9,3.9c-2.2,0-3.8-1.6-3.9-3.9c0.5-8.6,3-17.1,3.9-21.3
		C58.1,60.5,61.7,71.2,61.6,79.2z"/>
	<g id="XMLID_944_">
		<path id="XMLID_947_" class="st3" d="M50.2,68.8c0,1.2-0.9,1.9-1.9,1.9c-1,0-1.9-0.8-1.9-1.9c0.3-4.1,1.5-8.3,1.9-10.2
			C48.7,59.7,50.3,64.9,50.2,68.8z"/>
		<ellipse id="XMLID_946_" class="st1" cx="49.4" cy="68.2" rx="0.5" ry="1.4"/>
		<ellipse id="XMLID_945_" class="st1" cx="49.6" cy="65.5" rx="0.2" ry="0.4"/>
	</g>
	<g id="XMLID_936_">
		<path id="XMLID_941_" class="st0" d="M76.4,12.5c0-0.1,0.1-0.3,0.4-0.4c0.5-0.2,1.4,0.2,2.6,1.1v-0.1c0.1,0,8.9,3.7,10.6,3.5
			c1.4-0.2,3.9-0.8,6-3.6c1.9-2.6,3.4-3.4,3.5-3.4l0.4-0.2l-0.2,0.5c-0.6,1.4-1.3,3.1-1.1,3.3c0.2,0.4,1.5,2.3,2.2,3.2l0.1,0.2
			l-0.2,0.1c0,0-4.3,1.2-6.6,1.6l-1.6,0.4c-1.9,0.5-3.9,1.1-6.1-0.2c-1.5-0.8-2.6-1.4-3.2-1.7l5.7,5.2c0.1,0.1,3.2,2.6,6.9,0
			c3.7-2.6,9-4.3,9-4.4l0.5-0.2l-0.3,0.4c-0.5,0.7-1.1,1.8-1.1,2.1c0,0.4,0.8,2.4,1,3.1l0.1,0.2h-0.2c-0.1,0-7.4,1.5-9.3,2.6
			c-1.2,0.6-5,2.5-7.3-0.3c-1.9-2.3-7.5-8.2-7.5-8.3L76.4,12.5L76.4,12.5z"/>
		<path id="XMLID_940_" class="st1" d="M80.9,14.5L80.9,14.5L80.9,14.5c-0.4-0.3-0.7-0.6-1-0.8c2.2,0.9,8.5,3.4,10,3.2
			c1.4-0.2,4.1-0.9,6.3-3.8c1.3-1.7,2.4-2.7,3-3.1c-0.4,0.9-1,2.5-0.9,3v0.1c0.1,0.2,0.4,0.7,0.9,1.3c-1.4,0.5-8.6,2.9-10.3,3.1
			C87.5,17.7,82.8,15.4,80.9,14.5z"/>
		<path id="XMLID_939_" class="st4" d="M94.2,17.8l-1.6,0.4c-1.9,0.5-3.8,1-5.9-0.2c-2.3-1.3-3.7-1.9-4.1-2l-1.7-1.5
			c1.9,1,6.5,3.2,8,3.1c1.7-0.2,8.9-2.6,10.3-3.1c0.5,0.7,1,1.5,1.3,1.8C99.6,16.5,96.2,17.4,94.2,17.8z"/>
		<path id="XMLID_938_" class="st4" d="M77,12.4c0.1,0,0.1,0,0.3,0c1,0.9,7.4,6.9,9.4,8.8c2.2,2.2,3.5,4.8,5.9,3.5
			c2.2-1.2,9.9-3.9,11.3-4.4c0.2,0.8,0.7,2,0.9,2.5c-1.2,0.2-7.4,1.6-9.2,2.6c-1.1,0.6-4.7,2.4-6.9-0.2c-2-2.3-7.5-8.2-7.5-8.3
			C81.3,16.8,77.2,12.7,77,12.4C76.9,12.5,76.9,12.4,77,12.4z"/>
		<path id="XMLID_937_" class="st1" d="M86.7,21.2c-2-2-8.4-7.9-9.4-8.8c0.5,0,1.5,0.5,3.4,2.4l1.7,1.5l0,0c0,0,0,0,0.1,0l6.4,5.8
			c0,0,3.4,2.8,7.3,0.1c3.1-2.1,7.1-3.6,8.5-4.1c-0.4,0.6-0.9,1.5-0.9,1.9c0,0.1,0.1,0.3,0.1,0.5c-1.4,0.5-9.2,3.3-11.3,4.4
			C90.2,26,88.8,23.3,86.7,21.2z"/>
	</g>
	<circle id="XMLID_933_" class="st5" cx="73.6" cy="8.4" r="7.5"/>
	<path id="XMLID_932_" class="st6" d="M56.7,112.5h-7.2c-21.7,0-39.4-17.7-39.4-39.4V47.7c0-21.7,17.7-39.4,39.4-39.4h7.2
		c21.7,0,39.4,17.7,39.4,39.4v25.4C96.1,94.8,78.4,112.5,56.7,112.5z"/>
	<path id="XMLID_929_" class="st7" d="M52.6,56.1c-24.5,0-39.4,19.2-39.4,0v-7.4c0-19.2,15.7-34.8,34.8-34.8h9.2
		c19.2,0,34.8,15.7,34.8,34.8v7.4C92,75.3,77.1,56.1,52.6,56.1z"/>
	<path id="XMLID_926_" class="st8" d="M56.7,112.5h-7.2c-21.7,0-39.4-17.7-39.4-39.4V47.7c0-21.7,17.7-39.4,39.4-39.4h7.2
		c21.7,0,39.4,17.7,39.4,39.4v25.4C96.1,94.8,78.4,112.5,56.7,112.5z"/>
	<g id="XMLID_912_">
		<g id="XMLID_913_">
			<ellipse id="XMLID_923_" class="st5" cx="35.7" cy="39.3" rx="11.9" ry="11.4"/>
			<ellipse id="XMLID_922_" class="st1" cx="33.2" cy="35.6" rx="6.5" ry="5.4"/>
			<circle id="XMLID_921_" class="st1" cx="32" cy="45.6" r="2.6"/>
			<circle id="XMLID_920_" class="st1" cx="40.9" cy="43.1" r="3.3"/>
			<circle id="XMLID_917_" class="st5" cx="72.7" cy="39.3" r="11.8"/>
			<ellipse id="XMLID_916_" class="st1" cx="75.1" cy="35.7" rx="6.6" ry="5.4"/>
			<ellipse id="XMLID_915_" class="st1" cx="67.8" cy="43.3" rx="3.6" ry="3.1"/>
			<ellipse id="XMLID_914_" class="st1" cx="76.2" cy="45.1" rx="2.7" ry="2.3"/>
		</g>
	</g>
	<path id="XMLID_911_" class="st1" d="M66.4,6.4c0,0,9.4,5.9,13.5,5.9c-1,1.5-1.1,1.3-1.1,1.3S73,12,66.1,8
		C66.3,6.4,66.4,6.4,66.4,6.4z"/>
	<path id="XMLID_908_" class="st0" d="M56.7,112h-7.2c-21.7,0-39.4-17.7-39.4-39.4v-9.5l41.3,8l44.6-7.4v9
		C96.1,94.3,78.4,112,56.7,112z"/>
	<g id="XMLID_903_">
		<g id="XMLID_984_">
			<path id="XMLID_985_" class="st9" d="M55.2,95.1c-15,0-28.7-1.8-42.4-6.4l-1.5-4.1c27.9,9.4,68.8,8,83.7,0.2l-1.6,4.1
				C85.2,93.1,71.9,95.1,55.2,95.1z"/>
		</g>
	</g>
	<g id="XMLID_901_">
		<path id="XMLID_902_" class="st10" d="M50.6,73.7c-9.4,0-39.7-7.9-41-8.2v-4.1c0.3,0.1,33,8.5,41.3,8.2l0.1,4.1
			C50.9,73.7,50.7,73.7,50.6,73.7z"/>
	</g>
	<g id="XMLID_899_">
		<path id="XMLID_900_" class="st10" d="M12,78.2c-0.8,0-1.6,0.1-2.2,0l-0.3-4.1c8.4,1,61-7.6,87-12.1v4.2
			C93.7,66.7,27.9,78.2,12,78.2z"/>
	</g>
	<g id="XMLID_889_">
		
			<ellipse id="XMLID_898_" transform="matrix(-0.3126 -0.9499 0.9499 -0.3126 -41.6068 119.0843)" class="st1" cx="22.3" cy="74.6" rx="4.7" ry="19.5"/>
		<path id="XMLID_890_" class="st0" d="M3.3,80.8L3.3,80.8c-0.6-1.9,2.2-4,4.6-5.5c3.2-2,7.8-4,12.7-5.6c9.2-3.1,19.6-4.5,20.6-1.3
			c1.1,3.2-8.2,8.2-17.3,11.2c-5,1.7-9.8,2.8-13.6,3.1c-0.7-0.1-1.4-0.1-2.1-0.1C5.9,82.6,3.8,82.2,3.3,80.8z M21,70.6
			c-4.9,1.6-9.4,3.5-12.5,5.5c-3.4,2.1-4.4,3.6-4.1,4.3l0,0c0.2,0.7,1.9,1.4,5.9,1c3.7-0.3,8.5-1.4,13.4-3
			c11.1-3.6,17.2-8.3,16.6-9.8c-0.2-0.7-1.6-1.1-3.9-1.1C32.9,67.5,27.6,68.4,21,70.6z"/>
	</g>
	<g id="XMLID_881_">
		<path id="XMLID_888_" class="st3" d="M64.1,80.4c0,2.4-1.8,3.9-3.9,3.9c-2.2,0-3.8-1.6-3.9-3.9c0.5-8.6,3-17.1,3.9-21.3
			C60.7,61.6,64.2,72.2,64.1,80.4z"/>
		<ellipse id="XMLID_887_" class="st1" cx="62.5" cy="79.3" rx="1.1" ry="2.9"/>
		<ellipse id="XMLID_886_" class="st1" cx="62.8" cy="73.5" rx="0.3" ry="0.9"/>
		<g id="XMLID_882_">
			<path id="XMLID_885_" class="st3" d="M52.8,69.9c0,1.2-0.9,1.9-1.9,1.9s-1.9-0.8-1.9-1.9c0.3-4.1,1.5-8.3,1.9-10.2
				C51.1,60.8,52.8,65.9,52.8,69.9z"/>
			<ellipse id="XMLID_884_" class="st1" cx="52" cy="69.4" rx="0.5" ry="1.4"/>
			<ellipse id="XMLID_883_" class="st1" cx="52.2" cy="66.6" rx="0.2" ry="0.4"/>
		</g>
	</g>
	<g id="XMLID_649_">
		<path id="XMLID_880_" class="st11" d="M56.3,79.9c-4.1-6.1-11.2-17.5-16.5-21.6c0.5,1.4,0.5,2.8-0.4,3.8c0.1,1.3-0.3,2.5-1,3.5
			c0.2,1.4,0,2.9-1.1,3.6c0.1,0.8,0.1,1.6,0,2.5c-0.1,0.8-1.1,1.2-1.8,1c-1.9-0.5-3.1-2.4-3.7-4.2c-1.2,0.4-2.3,0.6-3.4,0.8
			c-0.1,2.4-0.7,4.7-2.6,5.8c-0.5,9-2.4,21.5-5.7,26.2c0,0-2.3,5,2.9,6c0,0,3-3,3.6-6.4c0,0,1.4,2,2.9,4c1.5,2.2,6.3,7.9,11.6,2.5
			c1.3-1.3,2.4-4.3,4.1-5.9c1.8-1.6,4.7-1.2,6.5,1.5c0.2,0.3-2.6,2,1.5,1.5c4-0.4,7.6-2.2,9.4-6.4c1.7-4.2,3.3-6.6,4-7.1
			C66.6,91,61.2,87,56.3,79.9z"/>
		<path id="XMLID_879_" class="st12" d="M25.9,99.9c-2-1.7-3.9-0.8-5.5,0.6c-0.2,0.3-0.3,0.5-0.5,0.8c0,0-2.3,5,2.9,6
			c0,0,3-3,3.6-6.4c0,0,0.8,1,1.8,2.5C27.6,102.1,27,100.8,25.9,99.9z"/>
		<path id="XMLID_654_" class="st13" d="M26.7,82.5c0.1-1.3,0.3-2.7,0.5-4c0.1-1.3,0.2-2.6,0.2-3.8c0-0.5,0-1,0-1.6
			c-0.4,0.9-1,1.6-1.8,2.1c-0.4,7.5-1.8,17.4-4.2,23.3c1.4-1.2,2.2-3.2,2.9-4.8c0.7-1.7,1.2-3.4,1.9-5.2c1.5-4.1,3.5-9.1,2.8-13.5
			C28.4,79.7,26.6,82.9,26.7,82.5z"/>
		<path id="XMLID_650_" class="st13" d="M51.3,83.5c-2-4.8-3.9-9.7-6.8-14.2c-1.3-2-2.7-3.9-3.5-6.1c-0.7-1.6-0.3-3.3-1.1-4.8
			l-0.1-0.1c0.5,1.4,0.5,2.8-0.4,3.8c0.1,1.3-0.3,2.5-1,3.5c0.2,1.4,0,2.9-1.1,3.6c0.1,0.8,0.1,1.6,0,2.5c-0.1,0.8-1.1,1.2-1.8,1
			c-1.9-0.5-3.1-2.4-3.7-4.2c-1.2,0.4-2.3,0.6-3.5,0.8c0,0.6-0.1,1.2-0.2,1.7c0.1-0.2,0.3-0.4,0.5-0.5c1.1-0.8,2.4-0.3,3.2,0.7
			c1.4,1.5,2.1,2.9,4.4,2.8c0.1,0,0.3,0.1,0.3,0.2c1.3,7.6,1.5,15.1,1.6,22.7c0,4.2,0,8.5-0.4,12.7c1.1-0.3,2.3-0.9,3.3-2.1
			c0.4-0.4,0.8-1,1.2-1.6c-0.4-3.4-0.3-6.9-0.6-10.3c-0.4-4.4-0.9-8.9-1.6-13.3c-0.4-2.1-0.7-4.1-1.2-6.2c-0.4-1.5-0.8-3.1-0.8-4.6
			c0-1.2,0.3-4.6,2.3-3.6c2.1,1,3.4,3.8,4.3,5.8c1.5,3.5,2.4,7.2,3.1,10.9c0.9,4.1,1.8,8.3,2.8,12.4c0.4,1.7,1.1,3.8,0.9,5.6
			c0.1,0.2,0.2,0.3,0.4,0.5c0.2,0.3-2.6,2,1.5,1.5c2.6-0.3,5-1.1,6.8-2.8C56.1,96.3,53.8,89.7,51.3,83.5z"/>
	</g>
	<g id="XMLID_634_">
		<g id="XMLID_642_">
			<path id="XMLID_648_" class="st1" d="M28,73.2c-5.6,3.4-6.5-6.5-4.2-9.8c5.7-9.5,13.6,1.5,5.5,8"/>
			<g id="XMLID_643_">
				<path id="XMLID_647_" class="st14" d="M28,73.2c-5.6,3.4-6.5-6.5-4.2-9.8c5.7-9.5,13.6,1.5,5.5,8"/>
				<path id="XMLID_644_" class="st0" d="M27.4,72.6c-1.6,0.9-3.1,1-3.8-0.9c-0.6-1.4-0.6-3.1-0.4-4.5c0.2-2.6,1.8-5.1,3.9-6.5
					c2.5-1.5,4.4,0.4,4.8,2.9c0.5,2.9-1.3,5.4-3.3,7.2c-0.3,0.3,0.7,1.4,1.1,1.1c2.8-2.4,4.5-6.2,2.8-9.6c-1.3-2.5-3.8-3.9-6.4-2.6
					c-3.6,1.9-4.6,6.7-3.9,10.4c0.6,3.1,3.1,5.4,6.3,3.6C28.8,73.6,27.9,72.4,27.4,72.6L27.4,72.6z"/>
			</g>
		</g>
		<g id="XMLID_635_">
			<path id="XMLID_641_" class="st1" d="M49.9,77.9c-6.3,5.8-18.3,8.1-22.8-1c-3.2-6.3-1.8-11.5,4-15.3c5.4-3.2,12.6-4.9,17.2,0.3
				C52.7,66.7,55.1,72.9,49.9,77.9z"/>
			<g id="XMLID_636_">
				<path id="XMLID_640_" class="st14" d="M49.9,77.9c-6.3,5.8-18.3,8.1-22.8-1c-3.2-6.3-1.8-11.5,4-15.3c5.4-3.2,12.6-4.9,17.2,0.3
					C52.7,66.7,55.1,72.9,49.9,77.9z"/>
				<path id="XMLID_637_" class="st0" d="M49.3,77.3c-3.7,3.2-8.3,5.1-13.3,5c-7.7-0.2-12.2-9.2-9-15.7c2.5-4.9,9.5-7.5,14.7-7.4
					C50.4,59.4,55,71.4,49.3,77.3c-0.4,0.4,0.7,1.5,1.1,1.1c5.1-5.4,2.7-13.4-2.8-17.7c-6.5-5.2-16.3-2.1-21.1,4.1
					c-4.1,5.4-0.8,13.6,4.3,16.9c6,4,14.6,1,19.5-3.3C50.9,78,49.8,76.9,49.3,77.3z"/>
			</g>
		</g>
	</g>
	<g id="XMLID_628_">
		<line id="XMLID_633_" class="st15" x1="32.9" y1="53" x2="27.5" y2="57.6"/>
		<line id="XMLID_632_" class="st15" x1="37.6" y1="53.4" x2="32.2" y2="58"/>
	</g>
	<g id="XMLID_624_">
		<line id="XMLID_627_" class="st15" x1="73.5" y1="53" x2="68" y2="57.6"/>
		<line id="XMLID_625_" class="st15" x1="78.2" y1="53.4" x2="72.8" y2="58"/>
	</g>
</g>
</svg>
