<?xml version="1.0" encoding="utf-8"?>
<!-- Generator: Adobe Illustrator 19.0.0, SVG Export Plug-In . SVG Version: 6.00 Build 0)  -->
<svg version="1.1" id="图层_1" xmlns="http://www.w3.org/2000/svg" xmlns:xlink="http://www.w3.org/1999/xlink" x="0px" y="0px"
	 viewBox="0 0 113.4 113.4" style="enable-background:new 0 0 113.4 113.4;" xml:space="preserve">
<style type="text/css">
	.st0{fill:#EEEDEE;}
	.st1{clip-path:url(#SVGID_2_);}
	.st2{fill:#3C74AB;}
	.st3{fill:#FFFFFF;}
	.st4{fill:#D3E6F6;}
	.st5{fill:#3A1E0D;}
	.st6{fill:#E8C7AD;}
	.st7{opacity:0.8;fill:#520C10;enable-background:new    ;}
	.st8{fill:none;}
	.st9{fill:#C0BFBF;}
	.st10{fill:#F9FDFF;}
	.st11{fill:#245C96;}
</style>
<circle id="XMLID_1217_" class="st0" cx="56.7" cy="56.7" r="56.7"/>
<g id="XMLID_465_">
	<g>
		<defs>
			<circle id="SVGID_1_" cx="56.7" cy="56.7" r="56.7"/>
		</defs>
		<clipPath id="SVGID_2_">
			<use xlink:href="#SVGID_1_"  style="overflow:visible;"/>
		</clipPath>
		<g id="XMLID_921_" class="st1">
			<g id="XMLID_1092_">
				<path id="XMLID_1097_" class="st2" d="M78.8,13.9c0-0.1,0.1-0.3,0.3-0.3c0.4-0.1,1.1,0.2,1.9,0.8v-0.1c0.1,0,6.7,2.8,8.1,2.7
					c1-0.1,3-0.6,4.6-2.8c1.5-2,2.7-2.6,2.7-2.7l0.3-0.2l-0.2,0.3c-0.5,1.1-0.9,2.4-0.9,2.6c0.1,0.3,1.2,1.8,1.7,2.5l0.1,0.1h-0.2
					c0,0-3.3,0.9-5,1.2L91,18.3c-1.4,0.4-3,0.8-4.7-0.2c-1.1-0.6-2-1-2.5-1.3l4.4,4c0.1,0.1,2.5,1.9,5.2,0c2.8-2,6.8-3.3,6.9-3.4
					l0.4-0.1l-0.2,0.3c-0.4,0.5-0.8,1.3-0.8,1.6c0,0.3,0.6,1.8,0.8,2.3l0.1,0.1h-0.1c-0.1,0-5.7,1.2-7.1,1.9
					c-0.9,0.5-3.8,1.9-5.6-0.2c-1.5-1.7-5.7-6.3-5.7-6.3L78.8,13.9L78.8,13.9z"/>
				<path id="XMLID_1096_" class="st3" d="M82.2,15.4L82.2,15.4L82.2,15.4c-0.3-0.3-0.5-0.5-0.7-0.6c1.6,0.7,6.5,2.6,7.7,2.5
					c1.1-0.1,3.1-0.7,4.8-2.9c1-1.3,1.8-2,2.3-2.3c-0.3,0.7-0.8,1.9-0.7,2.3v0.1c0.1,0.1,0.3,0.6,0.6,1c-1.1,0.4-6.6,2.2-7.9,2.3
					C87.2,17.9,83.7,16.2,82.2,15.4z"/>
				<path id="XMLID_1095_" class="st4" d="M92.3,17.9l-1.2,0.3c-1.4,0.4-2.9,0.8-4.5-0.1c-1.7-1-2.8-1.4-3.2-1.5l-1.2-1.1
					c1.4,0.7,5,2.4,6.1,2.3c1.3-0.1,6.8-2,7.9-2.3c0.4,0.5,0.8,1.1,1,1.4C96.5,17,93.8,17.7,92.3,17.9z"/>
				<path id="XMLID_1094_" class="st4" d="M79.2,13.8c0,0,0.1,0,0.2,0c0.8,0.7,5.7,5.2,7.2,6.7c1.6,1.6,2.7,3.7,4.5,2.7
					c1.7-0.9,7.6-3,8.6-3.4c0.2,0.6,0.5,1.5,0.6,1.9c-0.9,0.2-5.7,1.2-7,1.9c-0.8,0.5-3.6,1.8-5.3-0.1c-1.5-1.7-5.7-6.3-5.7-6.3
					S79.2,14,79,13.9C79.1,13.9,79.1,13.8,79.2,13.8z"/>
				<path id="XMLID_1093_" class="st3" d="M86.5,20.5c-1.5-1.5-6.4-6-7.2-6.7c0.3,0,1.1,0.3,2.6,1.8l1.3,1.1l0,0c0,0,0,0,0.1,0
					l4.9,4.4c0,0,2.7,2.1,5.6,0c2.3-1.6,5.4-2.8,6.4-3.2c-0.3,0.4-0.7,1.1-0.6,1.4c0,0.1,0,0.2,0.1,0.4c-1,0.4-7,2.5-8.6,3.4
					C89.2,24.2,88.2,22.1,86.5,20.5z"/>
			</g>
			<circle id="XMLID_1089_" class="st5" cx="76.6" cy="10.7" r="5.7"/>
			<path id="XMLID_1088_" class="st3" d="M71.1,9.2c0,0,7.2,4.5,10.3,4.5c-0.8,1.1-0.8,1-0.8,1s-4.5-1.2-9.7-4.3
				C71,9.3,71.1,9.2,71.1,9.2z"/>
			<g id="XMLID_1078_">
				
					<ellipse id="XMLID_1087_" transform="matrix(0.3126 -0.9499 0.9499 0.3126 -39.6027 59.0654)" class="st3" cx="21" cy="56.9" rx="4" ry="11.4"/>
				<path id="XMLID_1079_" class="st2" d="M27.5,62.6c-2.3,0-5.1-0.5-7.9-1.4c-5.5-1.8-10.7-5.3-9.9-7.9c0.4-1.2,2-1.9,4.4-1.9
					c2.3-0.1,5.2,0.5,8.2,1.4c5.5,1.8,10.7,5.3,9.9,7.9l0,0c-0.4,1.2-2,1.9-4.4,1.9C27.7,62.6,27.6,62.6,27.5,62.6z M14.5,52.1
					c-0.1,0-0.2,0-0.3,0c-2.1,0-3.4,0.5-3.7,1.4c-0.5,1.6,3.2,4.8,9.4,6.9c2.9,0.9,5.7,1.4,7.9,1.4c2.1,0,3.4-0.5,3.7-1.4l0,0
					c0.5-1.6-3.2-4.8-9.4-6.9C19.4,52.6,16.7,52.1,14.5,52.1z"/>
			</g>
			<path id="XMLID_1077_" class="st3" d="M63.9,91.3h-5.5c-16.5,0-30.1-13.5-30.1-30.1V41.9c0-16.5,13.5-30.1,30.1-30.1h5.5
				C80.5,11.8,94,25.3,94,41.9v19.4C94,77.8,80.5,91.3,63.9,91.3z"/>
			<path id="XMLID_1074_" class="st6" d="M60.8,48.3c-8,0,0.7,5.6-19.7,4.6c-6.7,2.6-10.4,3.8-10.4-4.6v-5.7c0-9.7-1.7-18.3,13-22.8
				c4-2.4,8.6-3.8,13.6-3.8h7c14.6,0,26.6,12,26.6,26.6v5.7C90.9,62.9,79.6,48.3,60.8,48.3z"/>
			<ellipse id="XMLID_1073_" class="st7" cx="47.9" cy="35.4" rx="13.5" ry="12.9"/>
			<ellipse id="XMLID_1072_" class="st3" cx="45.1" cy="31.3" rx="7.3" ry="6.1"/>
			<circle id="XMLID_1071_" class="st3" cx="43.8" cy="42.6" r="2.8"/>
			<circle id="XMLID_1000_" class="st3" cx="53.7" cy="39.7" r="3.7"/>
			<circle id="XMLID_999_" class="st7" cx="76.2" cy="35.4" r="9"/>
			<ellipse id="XMLID_998_" class="st3" cx="78" cy="32.7" rx="5" ry="4.2"/>
			<ellipse id="XMLID_997_" class="st3" cx="72.4" cy="38.5" rx="2.8" ry="2.4"/>
			<ellipse id="XMLID_996_" class="st3" cx="78.9" cy="39.9" rx="2" ry="1.7"/>
			<path id="XMLID_964_" class="st2" d="M28,55.4v5.9c0,13.3,8.5,24.6,20.4,28.7c-0.5,1.7-0.9,4.3-1.1,5.9c-0.3,2.4-0.7,4.8-0.9,7.2
				l0,0c-4.4-0.2-9.2,0.8-13.3,2c-1.3,0.4-3.8,1.4-5.3,2.8c-0.7,0.7-1.1,1.4-1,2.2c0.1,0.6,0.5,1.2,1.3,1.8c1.5,1.1,3.7,1.3,5.5,1.4
				c0.2,0,0.4,0,0.6,0c3,0.2,6,0,9-0.4c2.6-0.3,5.2-0.8,7.6-1.7h0.1c1.9-0.7,3.4-1.7,3.2-4c0-0.3-0.1-0.5-0.2-0.7
				c-0.1-0.3-0.2-0.6-0.4-0.8c-0.6-0.9-1.5-1.5-2.5-1.9c0.1-0.6,0.1-1.2,0.2-1.8c0.1-1.6,0.3-3.1,0.5-4.7c0.2-1.4,0.3-2.8,0.5-4.2
				c0-0.3,0.1-0.7,0.1-1V92c0-0.3,0.1-0.5,0.1-0.8c2,0.4,4,0.6,6.1,0.6H64c1.6,0,3.1-0.1,4.6-0.3c-0.9,2-1.2,4.2-1.5,6.3
				c-0.2,1.1-0.3,2.1-0.5,3.2c-0.1,0.4-0.3,0.9-0.4,1.3c-1.8,0.1-3.8,0.9-4.6,2.5c-0.9,1.7,0.7,3.2,2.1,3.9c2.2,1.2,4.9,1.6,7.3,2
				c3.8,0.7,7.7,1.1,11.6,1.1c2,0,4.2,0,6-0.9c2.2-1.2,0.9-2.9-0.6-3.9c-2.3-1.6-5.2-2.2-7.9-3c-1.8-0.5-3.5-1.1-5.3-1.5
				c-0.9-0.2-1.7-0.3-2.6-0.4c-0.8-0.1-1.5,0.1-2.3,0.1c0.4-1.9,0.9-3.8,1.3-5.8c0.5-2,1.2-3.9,1.7-5.9h-0.1
				c8.1-2.4,14.7-8,18.5-15.4c0.9,1.1,3.3,3.1,5.3,3.9c1.5,0.6,3.1,1,4.6,0.9c1.7,0,3.4-0.7,4.6-1.9c1.6-0.5,2.9-2,3.8-3.2
				c1.2-1.6,1-3.7-0.1-5.3c-0.7-1-2.2-1.6-3.7-1.8c2.7-1.5,4.8-3.8,5-6.7s-2.1-5.4-4.2-7.1c-1.4-1.1-2.9-2.1-4.5-3
				c-1.2-0.7-6.3-2.6-7.5-3.2c0,0-0.1,0-0.1-0.1v-5.9c0-16.8-13.7-30.5-30.5-30.5h-5.5C41.6,11.4,28,25.1,28,41.9v9.9 M93.6,61.3
				C93.6,77.7,80.3,91,63.9,91h-5.5C42,91,28.7,77.7,28.7,61.3V41.9c0-16.4,13.3-29.7,29.7-29.7h5.5c16.4,0,29.7,13.3,29.7,29.7
				V61.3z M102.4,61.3c-0.9,0.6-6.7,2.3-8.1,2.7c0.1-0.9,0.1-1.8,0.1-2.7v-6.4c0.9,0.4,6.7,2.4,7.6,2.8c0.9,0.5,2.4,1.3,2.4,1.8
				C104.4,60,103.1,60.8,102.4,61.3z"/>
			<line id="XMLID_963_" class="st8" x1="28" y1="53.1" x2="28" y2="54.7"/>
			<path id="XMLID_962_" class="st3" d="M106.2,69.1c0.7,0.2,1.3,0.5,1.7,1c0.4,0.4,0.7,1,0.9,1.6c0.4,1.6-0.5,2.8-1.6,3.9
				c-0.1,0.1-0.1,0.1-0.2,0.2v-0.1c0.1-0.4,0.2-0.7,0.2-1.1c0-0.6-0.1-1.1-0.3-1.6c-0.6-1.6-2.4-2.4-4.2-2.5
				C102.7,68.7,105.4,68.9,106.2,69.1z"/>
			<path id="XMLID_959_" class="st3" d="M106.5,65.5c-2.4,1.8-5.2,2-7.9,3.1c-0.1,0-0.2,0.1-0.2,0.2l0,0c0,0.1,0,0.3,0.2,0.3
				c0.8,0.1,1.6,0.1,2.5,0c0.1,0,0.3,0,0.5-0.1c0.1,0,0.2,0,0.2,0c-0.2,0.4-0.3,0.8-0.2,1.3c-0.4,0.1-0.9,0.2-1.3,0.4
				c-1.1,0.5-1.5,1.3-1.5,2.1c0,0.3,0,0.4,0.1,0.6c0.1,0.6,0.5,1.2,1,1.7c0,0.1,0.3,0.2,0.4,0.3c0.6,0.4,1.3,0.5,2,0.4
				c0.2,0,0.4-0.1,0.6-0.2c0.1-0.1,0.1-0.3,0-0.3c-1.4,0-3.3-1.2-2.6-2.8c0-0.1,0-0.1,0.1-0.2c0.7-1.3,2.8-1,3.9-0.5
				c0.3,0.1,0.5,0.3,0.7,0.5c1.6,1.4,0.7,4-1,5.2c-1.5,1.1-3.7,1.1-5.5,0.8c-0.5-0.1-1-0.3-1.5-0.5c-0.4-0.1-0.7-0.3-1.1-0.5
				c-1.6-0.8-3.7-2.6-4.4-3.4c1.3-2.8,2.2-5.8,2.6-9c1.6-0.5,8.3-2.8,9.3-3.4c2.9-1.8,1.8-3.2,1.2-3.7c-1.5-1.4-8.3-3.9-10.3-4.3
				v-5.3c0.3,0.2,0.6,0.3,1,0.5c0.8,0.3,5.4,2.4,6.2,2.9c0.5,0.3,1,0.6,1.5,0.9c0.1,0.1,0.2,0.1,0.3,0.2c2.4,1.6,5.1,3.8,6,6.6
				c0.2,0.7,0.2,1.3,0.1,1.9C109,63.1,107.8,64.5,106.5,65.5z"/>
			<path id="XMLID_958_" class="st3" d="M51.1,92.4C51,92.7,51,93,50.9,93.3c-0.2,1.1-0.4,2.2-0.5,3.3c-0.2,1.6-0.4,3.1-0.6,4.7
				c-0.1,0.7-0.2,1.5-0.2,2.2c0,0.2,0,0.4,0,0.6c0,0.3,0.1,0.7,0.3,1c0.1,0.2,0.5,0.2,0.6,0s0.1-0.3,0.2-0.5c0.5,0.3,0.9,0.6,1.3,1
				c0.8,0.9,1.2,2,0.4,3c-0.4,0.5-1.2,0.8-1.8,1.1c-2,0.8-4.2,1.2-6.3,1.6c-4.6,0.8-10,1.3-14.5-0.1c-1.4-0.4-2.2-1.4-1.1-2.7
				c0,0,0-0.1,0.1-0.1c1.1-1.2,2.8-1.8,4.4-2.3c0.6-0.2,1.3-0.4,1.9-0.5c2.2-0.6,4.6-1.1,6.9-1.5c1.5-0.2,2.9-0.4,4.4-0.5
				c0,0.2,0,0.5-0.1,0.7c0,0.6,0.9,0.7,1,0.1c0.1-0.3,0.2-0.6,0.2-0.9c0.1-0.1,0.2-0.3,0.1-0.4c0.4-2,0.5-4.1,0.6-6.1
				c0.2-1.6,0.3-3.2,0.6-4.8c0.1-0.5,0.3-1.3,0.5-2c0.7,0.2,1.4,0.4,2.1,0.6C51.3,91.4,51.2,91.9,51.1,92.4z"/>
			<path id="XMLID_957_" class="st3" d="M71.4,91.2c-0.5,1.4-0.9,2.9-1.3,4.3c-0.6,2.1-1.1,4.2-1.5,6.3c-0.1,0.3-0.1,0.6-0.2,0.9
				c-0.2,0.7,0.9,1,1.1,0.3c0-0.1,0-0.2,0.1-0.3l0,0c1.1,0.2,2.2,0.3,3.4,0.5c1.3,0.2,2.5,0.5,3.8,0.8c1.3,0.4,2.7,0.8,4,1.2
				c0.8,0.2,1.5,0.5,2.3,0.7c0.6,0.2,3.4,1.2,4.6,2.1c0.4,0.3,0.7,0.6,0.5,0.9c-0.6,1.4-3.8,1.2-5.1,1.3c-5.2,0-10.4-0.5-15.6-1.6
				c-1.5-0.3-3.1-0.7-4.4-1.6c-1.4-0.9-1.1-1.8-0.2-2.6c0.7-0.7,1.9-1.2,2.9-1.4c0,0.1,0,0.2,0,0.2c0,0.3,0.3,0.6,0.6,0.4
				c0.7-0.3,1.1-1.2,1.3-2.2c0.2-1,0.3-2.1,0.3-2.7c0.2-1.2,0.3-2.3,0.5-3.5s0.5-2.3,0.7-3.5c0-0.2,0.1-0.4,0.1-0.7
				c0.8-0.1,1.5-0.3,2.3-0.5C71.5,90.9,71.5,91.1,71.4,91.2z"/>
			<g id="XMLID_950_">
				<path id="XMLID_956_" class="st9" d="M28.9,42.8c-1.5,0.3-3,0.9-4.5,1.4c0,1.7,1,3.3,2.2,4.5c1.4-0.8,2.8-1.7,4.2-2.6
					c-0.5-1.2-1-2.4-1.7-3.3"/>
				<g id="XMLID_951_">
					<path id="XMLID_955_" class="st8" d="M28.9,42.8c-1.5,0.3-3,0.9-4.5,1.4c0,1.7,1,3.3,2.2,4.5c1.4-0.8,2.8-1.7,4.2-2.6
						c-0.5-1.2-1-2.4-1.7-3.3"/>
					<path id="XMLID_952_" class="st2" d="M28.7,42.4c-1.5,0.3-3,0.9-4.5,1.4c-0.1,0-0.2,0.2-0.2,0.3c0.1,2,1.1,3.5,2.5,4.9
						c0.1,0.1,0.3,0.2,0.4,0.1c1.4-0.8,2.8-1.7,4.2-2.6c0.1-0.1,0.1-0.3,0.1-0.4c-0.5-1.2-1-2.5-1.9-3.5c-0.4-0.5-0.8-0.1-0.5,0.4
						c0.7,0.9,1.2,2,1.6,3.1c0-0.1,0-0.2,0.1-0.4c-1.4,0.9-2.7,1.8-4.2,2.6c0.1,0,0.3,0.1,0.4,0.1c-1.1-1.2-1.9-2.4-2-4.1
						c-0.1,0.1-0.1,0.2-0.2,0.3c1.5-0.5,3-1.1,4.5-1.4C29.6,43.1,29.1,42.3,28.7,42.4L28.7,42.4z"/>
				</g>
			</g>
			<path id="XMLID_949_" class="st3" d="M17,53.7c1.8-0.8,3.5-1.7,5.3-2.6c0.9-0.4,4.5-1.5,4.9-2.4c0.5-1.1-0.3-2.7-0.9-3.6
				c-1.1-1.6-1.8-1.4-3.6-1c-3.6,0.8-6.9,2.6-10.3,4.1c-1.6,0.7-5,1.6-6.2,2.8c-1.3,1.3-0.6,4.2,0.6,5.5c1.1,1.1,2.9,0.3,4.4-0.2
				C13.1,55.6,15.1,54.6,17,53.7z"/>
			<g id="XMLID_944_">
				<path id="XMLID_948_" class="st8" d="M17,53.7c1.8-0.8,3.5-1.7,5.3-2.6c0.9-0.4,4.5-1.5,4.9-2.4c0.5-1.1-0.3-2.7-0.9-3.6
					c-1.1-1.6-1.8-1.4-3.6-1c-3.6,0.8-6.9,2.6-10.3,4.1c-1.6,0.7-5,1.6-6.2,2.8c-1.3,1.3-0.6,4.2,0.6,5.5c1.1,1.1,2.9,0.3,4.4-0.2
					C13.1,55.6,15.1,54.6,17,53.7z"/>
				<path id="XMLID_945_" class="st2" d="M17.3,54.1c2.7-1.3,5.4-2.6,8.2-3.8c2.1-0.8,2.6-1.8,1.7-3.9c-2.1-5.2-7.7-2-11.4-0.3
					c-2.9,1.3-6.1,2.3-8.9,3.7c-2,1-1.9,3-1.3,4.8C7.3,60,14.3,55.6,17.3,54.1c0.1-0.1-0.4-0.9-0.6-0.8c-1.9,0.9-3.9,1.8-5.9,2.5
					c-0.9,0.3-1.7,0.6-2.6,0.7c-3.1,0.5-2.7-4-1.7-5.2c0.9-1.2,3.1-1.6,4.4-2.1c1.9-0.7,3.7-1.5,5.5-2.3c2.1-1,4.3-1.8,6.6-2.4
					c0.6-0.1,1.2-0.2,1.8-0.2c1.4-0.1,2.7,3.9,1.2,4.8c-1.1,0.7-2.5,1-3.7,1.5c-1.9,0.8-3.7,1.9-5.6,2.8
					C16.6,53.4,17.1,54.2,17.3,54.1z"/>
			</g>
			<g id="XMLID_937_">
				<path id="XMLID_943_" class="st3" d="M22.1,50.5c4.6-2.1,4.4,5.5,2.4,7.8C19.4,65,14.4,56,21,51.8"/>
				<g id="XMLID_938_">
					<path id="XMLID_942_" class="st8" d="M22.1,50.5c4.6-2.1,4.4,5.5,2.4,7.8C19.4,65,14.4,56,21,51.8"/>
					<path id="XMLID_939_" class="st2" d="M22.5,50.9c1.2-0.5,2.4-0.5,2.8,1c0.3,1.1,0.2,2.3,0,3.4c-0.4,2-1.8,3.7-3.6,4.6
						c-2,0.9-3.4-0.7-3.5-2.5c-0.1-2.2,1.4-4,3.1-5.2c0.3-0.2-0.4-1.1-0.7-0.9c-2.3,1.5-4,4.3-2.9,7.1c0.8,2,2.6,3.3,4.6,2.5
						c2.9-1.2,4.1-4.7,3.8-7.6c-0.2-2.5-1.9-4.4-4.5-3.3C21.5,50.1,22.1,51.1,22.5,50.9L22.5,50.9z"/>
				</g>
			</g>
			<g id="XMLID_929_">
				<path id="XMLID_936_" class="st3" d="M5.8,45.1c5.2-3.9,14.5-4.6,17.3,2.6c1.9,5.1,0.4,8.9-4.3,11.2c-4.4,2-10,2.7-13.1-1.7
					C2.8,53.3,1.6,48.4,5.8,45.1z"/>
				<g id="XMLID_930_">
					<path id="XMLID_935_" class="st8" d="M5.8,45.1c5.2-3.9,14.5-4.6,17.3,2.6c1.9,5.1,0.4,8.9-4.3,11.2c-4.4,2-10,2.7-13.1-1.7
						C2.8,53.3,1.6,48.4,5.8,45.1z"/>
					<path id="XMLID_932_" class="st2" d="M6.2,45.6c3.1-2.2,6.7-3.2,10.5-2.7c5.8,0.8,8.5,8,5.5,12.7c-2.3,3.5-7.9,4.9-11.8,4.4
						C3.9,59,1.4,49.6,6.2,45.6c0.4-0.3-0.4-1.2-0.7-0.9c-4.3,3.7-3.1,9.9,0.6,13.7c4.5,4.5,12.2,2.9,16.3-1.4
						c3.6-3.7,1.7-10.2-1.9-13.2c-4.2-3.6-11-2-15.1,0.9C5.1,44.9,5.8,45.9,6.2,45.6z"/>
				</g>
			</g>
			<path id="XMLID_926_" class="st2" d="M64,91.2h-5.5c-16.5,0-30.1-13.5-30.1-30.1v-7.3L60,59.9l34-5.7v6.9
				C94,77.7,80.5,91.2,64,91.2z"/>
			<g id="XMLID_920_">
				<g id="XMLID_1104_">
					<path id="XMLID_1105_" class="st10" d="M62.8,78.3c-11.4,0-22-1.4-32.4-4.9l-1.1-3.2c21.3,7.2,52.5,6.1,63.9,0.2L92,73.5
						C85.7,76.7,75.5,78.3,62.8,78.3z"/>
				</g>
			</g>
			<g id="XMLID_918_">
				<path id="XMLID_919_" class="st11" d="M59.3,61.9c-7.2,0-30.3-6-31.3-6.3v-3.2c0.2,0.1,25.2,6.4,31.5,6.2l0.1,3.2
					C59.5,61.9,59.4,61.9,59.3,61.9z"/>
			</g>
			<g id="XMLID_916_">
				<path id="XMLID_917_" class="st11" d="M29.8,65.4c-0.6,0-1.2,0-1.6,0L28,62.3c6.4,0.7,46.6-5.8,66.5-9.3v3.2
					C92.2,56.6,42,65.4,29.8,65.4z"/>
			</g>
			<g id="XMLID_444_">
				<path id="XMLID_913_" class="st9" d="M67.2,28.2c-4.5-10.7-16.8-15.8-27.5-11.3S23.9,33.7,28.4,44.4s16.8,15.8,27.5,11.3
					S71.7,38.9,67.2,28.2z M33.2,42.4c-3.4-8.1,0.4-17.4,8.5-20.7c8.1-3.4,17.4,0.4,20.7,8.5c3.4,8.1-0.4,17.4-8.5,20.7
					C45.8,54.3,36.6,50.5,33.2,42.4z"/>
				<g id="XMLID_462_">
					<path id="XMLID_910_" class="st8" d="M67.2,28.2c-4.5-10.7-16.8-15.8-27.5-11.3S23.9,33.7,28.4,44.4s16.8,15.8,27.5,11.3
						S71.7,38.9,67.2,28.2z M33.2,42.4c-3.4-8.1,0.4-17.4,8.5-20.7c8.1-3.4,17.4,0.4,20.7,8.5c3.4,8.1-0.4,17.4-8.5,20.7
						C45.8,54.3,36.6,50.5,33.2,42.4z"/>
					<path id="XMLID_624_" class="st2" d="M67.5,28.2c-4.5-10-16-16.1-26.7-12.2c-11.7,4.2-17.3,16.9-12.7,28.4
						c4,10.2,16.2,16,26.6,12.3C66.4,52.5,72,39.7,67.5,28.2c-0.1-0.3-0.8-0.8-0.6-0.2c4,10.1-0.3,21.5-9.9,26.6
						c-10.5,5.6-23.7,0.5-28.4-10.1c-4.4-10,0.5-21.6,9.9-26.6C49,12.3,62.2,17.4,66.9,28C67,28.3,67.7,28.8,67.5,28.2z"/>
					<path id="XMLID_463_" class="st2" d="M33.5,42.5c-2.9-7.5,0.1-15.8,7.1-19.8c7.9-4.5,18-0.7,21.6,7.3
						c3.3,7.4-0.4,15.9-7.1,19.8C47.2,54.3,37.1,50.6,33.5,42.5c-0.1-0.3-0.8-0.8-0.6-0.2c3.6,7.9,12.2,12.1,20.5,9.3
						c8.8-3,12.5-13.1,9.3-21.3c-3.2-8.1-12.5-12-20.5-9.3c-8.8,3-12.5,13.1-9.3,21.3C33,42.6,33.7,43.1,33.5,42.5z"/>
				</g>
			</g>
		</g>
	</g>
</g>
</svg>
