<svg 
 xmlns="http://www.w3.org/2000/svg"
 xmlns:xlink="http://www.w3.org/1999/xlink"
 width="101px" height="79px">
<path fill-rule="evenodd"  fill="rgb(204, 204, 204)"
 d="M9.858,34.640 C7.807,34.640 5.886,34.640 4.009,34.596 C3.791,34.596 3.529,34.337 3.398,34.121 C1.041,30.403 -0.094,26.383 -0.007,22.059 C0.168,14.840 3.180,9.047 8.854,4.594 C12.346,1.870 16.405,0.357 20.727,0.054 C27.012,-0.378 32.556,1.567 37.488,5.588 C49.142,15.013 60.840,24.350 72.538,33.732 C79.697,39.482 86.899,45.188 94.013,50.982 C99.033,55.089 100.954,60.450 99.557,66.719 C98.117,73.073 93.926,77.094 87.510,78.564 C82.577,79.688 78.038,78.564 74.110,75.408 C63.765,67.107 53.420,58.807 43.075,50.463 C41.897,49.512 41.678,48.042 42.551,47.004 C43.468,45.881 44.908,45.750 46.130,46.745 C56.388,54.959 66.646,63.130 76.816,71.431 C81.704,75.408 88.165,74.802 92.049,70.868 C96.502,66.372 96.065,58.893 91.133,54.916 C77.296,43.805 63.503,32.738 49.666,21.627 C44.254,17.304 38.885,12.894 33.429,8.615 C23.084,0.487 7.326,6.453 5.144,19.335 C4.184,24.998 5.668,30.014 9.509,34.294 C9.596,34.337 9.640,34.424 9.858,34.640 L9.858,34.640 ZM95.105,34.770 C94.799,34.813 94.625,34.813 94.450,34.813 L87.990,34.813 C87.684,34.813 87.292,34.683 87.073,34.510 C80.788,29.496 74.546,24.437 68.261,19.422 C67.300,18.644 67.038,17.650 67.431,16.612 C67.824,15.618 68.828,14.970 69.919,15.142 C70.399,15.186 70.923,15.402 71.272,15.704 C75.856,19.335 80.395,23.010 84.978,26.686 C88.165,29.236 91.351,31.830 94.537,34.381 C94.712,34.424 94.843,34.554 95.105,34.770 Z"/>
</svg>
