<svg 
 xmlns="http://www.w3.org/2000/svg"
 xmlns:xlink="http://www.w3.org/1999/xlink"
 width="57px" height="56px">
<path fill-rule="evenodd"  fill="#CF9155"
 d="M55.822,27.879 C54.532,29.922 49.245,32.578 44.810,32.012 C44.683,32.079 44.521,32.173 44.330,32.298 C43.746,32.680 43.158,33.178 42.606,33.806 C40.565,36.134 39.574,39.524 40.258,44.294 C40.264,44.348 40.276,44.453 40.293,44.602 C40.321,44.852 40.354,45.137 40.391,45.450 C40.498,46.347 40.617,47.298 40.748,48.261 C41.118,50.995 41.500,53.279 41.866,54.755 C41.999,55.294 41.664,55.839 41.118,55.971 C40.572,56.103 40.021,55.772 39.887,55.233 C39.500,53.668 39.109,51.329 38.729,48.528 C38.597,47.553 38.476,46.592 38.368,45.685 C38.331,45.367 38.297,45.078 38.269,44.825 C38.251,44.672 38.240,44.565 38.238,44.542 C37.475,39.234 38.637,35.259 41.067,32.489 C42.235,31.159 43.418,30.386 44.256,30.043 C44.433,29.970 44.627,29.949 44.816,29.980 C46.968,30.338 49.188,29.856 51.282,28.773 C52.690,28.045 54.020,26.979 54.121,26.768 C54.202,26.600 54.328,26.458 54.486,26.356 C54.923,26.076 55.096,24.588 54.818,22.415 C54.714,21.599 54.555,20.725 54.358,19.827 C54.226,19.225 54.084,18.649 53.942,18.119 C53.857,17.803 53.792,17.575 53.756,17.455 C53.756,17.455 53.717,17.276 53.702,17.202 C53.414,15.779 52.768,14.225 51.871,12.638 C51.424,11.847 50.944,11.100 50.465,10.422 C50.180,10.017 49.961,9.729 49.819,9.553 C48.051,7.198 46.508,5.678 45.214,4.823 C44.792,4.544 44.439,4.365 44.158,4.265 C44.075,4.236 44.011,4.217 43.995,4.209 L43.791,4.173 C42.986,3.950 42.414,4.099 41.943,4.511 C41.713,4.712 41.547,4.937 41.450,5.107 C41.388,7.241 42.114,8.292 43.408,8.723 C43.901,8.887 44.456,8.950 45.020,8.933 C45.361,8.923 45.621,8.888 45.748,8.862 C46.069,8.796 46.403,8.886 46.645,9.105 C47.562,9.935 48.161,10.844 48.495,11.768 C48.616,12.101 48.695,12.416 48.738,12.705 C48.754,12.811 48.765,12.909 48.771,12.996 C48.774,13.049 48.774,13.049 48.771,13.238 C48.752,13.428 48.736,13.623 48.725,13.821 C48.629,15.412 48.773,17.137 49.073,18.839 C49.155,19.309 49.243,19.740 49.331,20.122 C49.383,20.348 49.423,20.505 49.444,20.583 C49.671,21.413 48.805,22.123 48.019,21.750 C46.239,20.904 44.786,20.795 43.605,21.181 C42.936,21.399 42.506,21.712 42.331,21.910 C41.946,22.346 41.269,22.371 40.851,21.966 C38.933,20.109 37.325,19.717 36.095,20.053 C36.028,20.072 35.972,20.090 35.922,20.109 C35.629,20.257 35.282,20.256 34.991,20.107 C32.894,19.039 31.819,17.687 31.649,16.195 C31.541,15.249 31.792,14.490 32.057,14.092 C34.584,8.987 34.648,5.654 33.043,3.761 C31.961,2.484 29.968,1.885 28.664,2.060 C28.565,2.076 28.461,2.077 28.356,2.062 C27.053,1.879 25.045,2.478 23.957,3.761 C22.356,5.649 22.417,8.971 24.925,14.055 C25.227,14.552 25.455,15.287 25.351,16.195 C25.181,17.687 24.106,19.039 22.009,20.107 C21.717,20.256 21.371,20.257 21.080,20.110 L21.081,20.110 L21.083,20.111 C21.085,20.112 21.085,20.112 21.086,20.113 C21.083,20.112 21.081,20.111 21.071,20.107 C21.028,20.090 20.972,20.072 20.905,20.053 C19.675,19.717 18.067,20.109 16.149,21.966 C15.731,22.371 15.054,22.346 14.669,21.910 C14.494,21.712 14.065,21.399 13.395,21.181 C12.214,20.795 10.761,20.904 8.981,21.750 C8.196,22.123 7.329,21.413 7.556,20.583 C7.577,20.505 7.617,20.348 7.668,20.122 C7.757,19.740 7.845,19.309 7.928,18.839 C8.227,17.137 8.371,15.412 8.276,13.821 C8.264,13.623 8.248,13.428 8.224,13.142 L8.224,13.139 C8.224,13.137 8.224,13.137 8.224,13.134 C8.224,13.128 8.224,13.128 8.224,13.121 C8.224,13.107 8.224,13.107 8.225,13.089 C8.226,13.049 8.226,13.049 8.229,12.996 C8.235,12.909 8.246,12.811 8.262,12.705 C8.306,12.416 8.384,12.101 8.504,11.768 C8.839,10.844 9.438,9.935 10.355,9.105 C10.597,8.886 10.930,8.796 11.252,8.862 C11.379,8.888 11.639,8.923 11.980,8.933 C12.544,8.950 13.099,8.887 13.592,8.723 C14.886,8.292 15.612,7.241 15.550,5.107 C15.454,4.937 15.288,4.712 15.057,4.511 C14.586,4.099 14.013,3.950 13.209,4.173 L13.011,4.208 C13.012,4.208 13.012,4.208 13.014,4.208 C13.018,4.208 13.018,4.208 13.021,4.208 C13.028,4.207 13.028,4.207 13.034,4.206 C13.043,4.205 13.043,4.205 13.048,4.205 C13.052,4.204 13.045,4.205 13.036,4.207 C12.989,4.217 12.925,4.236 12.842,4.265 C12.561,4.365 12.208,4.544 11.786,4.823 C10.492,5.678 8.949,7.198 7.159,9.581 C7.039,9.729 6.820,10.017 6.535,10.422 C6.056,11.100 5.576,11.847 5.129,12.638 C4.232,14.225 3.586,15.779 3.298,17.202 C3.283,17.276 3.283,17.276 3.270,17.350 L3.244,17.455 C3.208,17.575 3.143,17.803 3.058,18.119 C2.917,18.649 2.775,19.225 2.642,19.827 C2.445,20.725 2.286,21.599 2.182,22.415 C1.903,24.588 2.077,26.076 2.514,26.356 C2.672,26.458 2.798,26.600 2.879,26.768 C2.980,26.979 4.310,28.045 5.718,28.773 C7.812,29.856 10.032,30.338 12.184,29.980 C12.373,29.949 12.567,29.970 12.744,30.043 C13.582,30.386 14.765,31.159 15.933,32.489 C18.363,35.259 19.525,39.234 18.767,44.507 C18.760,44.565 18.749,44.672 18.731,44.825 C18.703,45.078 18.670,45.367 18.632,45.685 C18.524,46.592 18.403,47.553 18.271,48.528 C17.891,51.329 17.500,53.668 17.113,55.233 C16.979,55.772 16.428,56.103 15.882,55.971 C15.336,55.839 15.001,55.294 15.134,54.755 C15.500,53.279 15.882,50.995 16.252,48.261 C16.383,47.298 16.503,46.347 16.609,45.450 C16.646,45.137 16.679,44.852 16.707,44.602 C16.724,44.453 16.736,44.348 16.746,44.260 C17.426,39.524 16.435,36.134 14.394,33.806 C13.842,33.178 13.254,32.680 12.670,32.298 C12.479,32.173 12.317,32.079 12.190,32.012 C7.755,32.578 2.468,29.922 1.178,27.879 C-0.006,26.918 -0.196,24.954 0.161,22.162 C0.274,21.282 0.442,20.352 0.652,19.400 C0.791,18.767 0.940,18.163 1.089,17.605 C1.169,17.307 1.234,17.079 1.276,16.934 C1.284,16.892 1.288,16.875 1.301,16.808 C1.636,15.151 2.358,13.414 3.350,11.658 C3.833,10.805 4.348,10.001 4.864,9.271 C5.046,9.015 5.214,8.785 5.366,8.585 C5.459,8.462 5.527,8.375 5.545,8.355 C7.444,5.826 9.150,4.145 10.653,3.152 C11.210,2.783 11.709,2.530 12.150,2.374 C12.319,2.313 12.472,2.269 12.609,2.240 C12.659,2.230 12.689,2.224 12.744,2.216 C14.203,1.836 15.453,2.171 16.407,3.004 C16.975,3.501 17.322,4.047 17.500,4.475 C17.545,4.581 17.571,4.694 17.576,4.808 C17.735,7.962 16.455,9.892 14.243,10.628 C13.218,10.971 12.210,11.012 11.392,10.919 C10.919,11.420 10.607,11.936 10.422,12.445 C10.347,12.652 10.301,12.839 10.276,13.002 C10.269,13.048 10.265,13.085 10.263,13.116 C10.281,13.309 10.297,13.504 10.309,13.702 C10.415,15.468 10.258,17.341 9.934,19.183 C9.930,19.207 9.926,19.230 9.922,19.253 C11.438,18.840 12.816,18.874 14.034,19.270 C14.580,19.449 15.036,19.675 15.404,19.915 C17.602,18.067 19.705,17.639 21.449,18.114 C21.451,18.115 21.452,18.115 21.454,18.116 C22.710,17.402 23.247,16.675 23.327,15.969 C23.374,15.556 23.263,15.219 23.169,15.074 L23.113,14.975 C20.269,9.228 20.189,5.072 22.395,2.470 C23.846,0.758 26.253,-0.064 28.149,0.025 C28.158,0.023 28.168,0.022 28.178,0.021 C30.164,-0.151 33.024,0.605 34.605,2.470 C36.811,5.072 36.731,9.228 33.831,15.074 C33.737,15.219 33.626,15.556 33.673,15.969 C33.754,16.675 34.290,17.402 35.546,18.116 C35.548,18.115 35.550,18.115 35.552,18.114 C37.295,17.639 39.398,18.067 41.596,19.915 C41.964,19.675 42.420,19.449 42.966,19.270 C44.184,18.874 45.562,18.840 47.078,19.253 C47.074,19.230 47.070,19.207 47.066,19.183 C46.742,17.341 46.585,15.468 46.691,13.702 C46.705,13.477 46.722,13.256 46.724,13.002 C46.699,12.839 46.653,12.652 46.578,12.445 C46.393,11.936 46.081,11.420 45.608,10.919 C44.790,11.012 43.782,10.971 42.757,10.628 C40.545,9.892 39.265,7.962 39.424,4.808 C39.430,4.694 39.455,4.581 39.499,4.475 C39.678,4.047 40.025,3.501 40.593,3.004 C41.547,2.171 42.797,1.836 44.256,2.216 C44.311,2.224 44.341,2.230 44.391,2.240 C44.528,2.269 44.681,2.313 44.850,2.374 C45.291,2.530 45.791,2.783 46.347,3.152 C47.850,4.145 49.556,5.826 51.433,8.327 C51.472,8.375 51.541,8.462 51.634,8.585 C51.786,8.785 51.955,9.015 52.136,9.271 C52.652,10.001 53.167,10.805 53.650,11.658 C54.642,13.414 55.364,15.151 55.708,16.883 C55.750,17.021 55.821,17.269 55.911,17.605 C56.060,18.163 56.209,18.767 56.348,19.400 C56.558,20.352 56.726,21.282 56.839,22.162 C57.196,24.954 57.006,26.918 55.822,27.879 ZM21.092,20.116 C21.092,20.115 21.092,20.115 21.092,20.115 C21.093,20.116 21.094,20.117 21.096,20.117 C21.096,20.117 21.096,20.117 21.092,20.116 ZM21.087,20.113 C21.087,20.113 21.087,20.113 21.086,20.113 C21.088,20.114 21.091,20.115 21.092,20.115 C21.090,20.115 21.090,20.115 21.087,20.113 Z"/>
</svg>
