<svg 
 xmlns="http://www.w3.org/2000/svg"
 xmlns:xlink="http://www.w3.org/1999/xlink"
 width="58px" height="56px">
<path fill-rule="evenodd"  fill="#CF9155"
 d="M48.366,45.758 C43.040,45.758 38.732,41.486 38.732,36.202 C38.732,30.918 43.040,26.646 48.366,26.646 C53.693,26.646 58.000,30.918 58.000,36.202 C58.000,41.486 53.693,45.758 48.366,45.758 ZM48.366,28.929 C44.322,28.929 41.034,32.191 41.034,36.202 C41.034,40.214 44.322,43.475 48.366,43.475 C52.410,43.475 55.698,40.214 55.698,36.202 C55.698,32.191 52.410,28.929 48.366,28.929 ZM44.585,35.256 C44.585,35.256 43.434,36.169 43.072,34.800 C43.072,34.800 42.908,30.984 47.741,30.266 C47.741,30.266 48.892,30.788 48.070,31.831 C48.070,31.831 45.308,31.701 44.585,35.256 ZM30.792,23.778 L32.368,21.449 L40.696,26.991 L39.121,29.321 L30.792,23.778 ZM18.742,26.841 C11.278,26.841 5.195,20.840 5.195,13.437 C5.195,6.033 11.278,-0.001 18.742,-0.001 C26.205,-0.001 32.288,6.033 32.288,13.437 C32.288,20.840 26.205,26.841 18.742,26.841 ZM18.742,2.609 C12.725,2.609 7.825,7.468 7.825,13.437 C7.825,19.405 12.725,24.265 18.742,24.265 C24.759,24.265 29.658,19.405 29.658,13.437 C29.658,7.468 24.759,2.609 18.742,2.609 ZM12.823,11.643 C12.823,11.643 11.212,12.948 10.719,11.056 C10.719,11.056 10.489,5.740 17.229,4.729 C17.229,4.729 18.840,5.413 17.689,6.849 C17.689,6.849 13.809,6.685 12.823,11.643 ZM11.313,27.962 L14.042,28.697 L11.416,38.297 L8.687,37.563 L11.313,27.962 ZM16.834,47.650 C16.834,52.249 13.053,56.000 8.417,56.000 C3.781,56.000 0.000,52.249 0.000,47.650 C0.000,43.051 3.781,39.300 8.417,39.300 C13.086,39.300 16.867,43.051 16.834,47.650 ZM2.302,47.683 C2.302,51.010 5.031,53.749 8.417,53.749 C11.804,53.749 14.566,51.010 14.533,47.683 C14.533,44.356 11.804,41.616 8.417,41.616 C5.064,41.616 2.302,44.323 2.302,47.683 ZM5.031,47.095 C5.031,47.095 4.044,47.878 3.748,46.704 C3.748,46.704 3.617,43.443 7.760,42.823 C7.760,42.823 8.746,43.247 8.023,44.128 C8.023,44.128 5.656,44.030 5.031,47.095 ZM37.845,41.877 L18.775,47.715 L17.952,45.041 L37.023,39.203 L37.845,41.877 Z"/>
</svg>
