<svg 
 xmlns="http://www.w3.org/2000/svg"
 xmlns:xlink="http://www.w3.org/1999/xlink"
 width="30px" height="30px">
<path fill-rule="evenodd"  fill="rgb(0, 178, 165)"
 d="M14.982,17.719 C14.231,17.719 13.663,17.109 13.663,16.354 L13.626,8.045 C13.626,7.295 14.236,6.684 14.991,6.684 C15.746,6.684 16.356,7.295 16.356,8.045 L16.347,16.354 C16.347,16.716 16.203,17.063 15.947,17.319 C15.691,17.575 15.344,17.719 14.982,17.719 ZM16.446,21.845 C16.446,22.654 15.790,23.309 14.982,23.309 C14.173,23.309 13.518,22.654 13.518,21.845 L13.523,21.799 C13.523,21.276 13.803,20.792 14.256,20.531 C14.709,20.269 15.267,20.269 15.720,20.531 C16.174,20.792 16.453,21.276 16.453,21.799 L16.446,21.845 ZM15.004,30.000 L15.002,30.000 C11.801,30.000 8.848,28.979 6.412,27.267 C5.854,26.960 5.409,26.586 5.409,25.957 L5.398,25.829 C5.398,25.079 6.008,24.466 6.763,24.466 C7.157,24.466 7.399,24.626 7.759,24.906 C9.854,26.442 12.384,27.270 14.982,27.270 C21.771,27.270 27.274,21.766 27.274,14.977 C27.274,8.188 21.771,2.684 14.982,2.684 C11.722,2.683 8.595,3.979 6.290,6.284 C3.985,8.590 2.689,11.717 2.690,14.978 C2.690,16.851 3.121,18.622 3.873,20.211 C3.873,20.211 4.502,21.123 4.502,21.695 L4.513,21.821 C4.513,22.183 4.369,22.530 4.114,22.786 C3.858,23.042 3.511,23.185 3.149,23.185 C2.527,23.185 2.107,22.694 1.845,22.195 C0.633,19.989 -0.001,17.512 0.000,14.995 C0.003,6.717 6.720,-0.000 15.004,-0.000 C23.286,-0.000 30.000,6.717 30.000,15.001 C30.000,23.286 23.286,30.000 15.004,30.000 Z"/>
</svg>
