<svg id="图层_1" data-name="图层 1" xmlns="http://www.w3.org/2000/svg" viewBox="0 0 705.88 705.88"><title>report_icon_meridian_high</title><path d="M140.94-211.54C-53.18-211.54-212-52.72-212,141.4S-53.18,494.34,140.94,494.34,493.88,335.51,493.88,141.4,335.05-211.54,140.94-211.54Zm222.31,360c0,21.17-17.65,35.33-38.82,35.33H183.29V324.92c0,21.17-14.13,35.33-35.33,35.33H133.88c-21.17,0-35.33-14.11-35.33-35.33V183.75H-42.59c-21.18,0-35.33-14.12-35.33-35.33V134.34C-77.92,113.17-63.8,99-42.59,99H98.59V-42.13c0-21.18,14.11-35.33,35.33-35.33h17.65c21.18,0,35.33,14.12,35.33,35.33V99.07H328.06c21.18,0,35.33,14.11,35.33,35.33v14.12Zm0,0" transform="translate(212 211.54)" fill="#FA7060"/></svg>