<?xml version="1.0" encoding="utf-8"?>
<!-- Generator: Adobe Illustrator 19.0.0, SVG Export Plug-In . SVG Version: 6.00 Build 0)  -->
<svg version="1.1" id="图层_1" xmlns="http://www.w3.org/2000/svg" xmlns:xlink="http://www.w3.org/1999/xlink" x="0px" y="0px"
	 viewBox="0 0 113.4 113.4" style="enable-background:new 0 0 113.4 113.4;" xml:space="preserve">
<style type="text/css">
	.st0{fill:#3C74AB;}
	.st1{fill:#FFFFFF;}
	.st2{fill:#D3E6F6;}
	.st3{fill:#3A1E0D;}
	.st4{fill:#FFFFFF;stroke:#182A88;stroke-miterlimit:10;}
	.st5{fill:#E8C7AD;}
	.st6{fill:none;stroke:#3C74AB;stroke-miterlimit:10;}
	.st7{fill:#562F23;}
	.st8{fill:#EDEDEC;}
	.st9{fill:#E5E5E2;}
	.st10{opacity:0.43;}
	.st11{fill:#FFFEFE;}
	.st12{fill:#FFFDFE;}
	.st13{fill:#FEFCFD;}
	.st14{fill:#FEFCFC;}
	.st15{fill:#FEFBFA;}
	.st16{fill:#FEFAF9;}
	.st17{fill:#FEF9F8;}
	.st18{fill:#FEF8F7;}
	.st19{fill:#FEF7F6;}
	.st20{fill:#FEF5F5;}
	.st21{fill:#FEF5F4;}
	.st22{fill:#FEF5F3;}
	.st23{fill:#FEF4F2;}
	.st24{fill:#FEF3F0;}
	.st25{fill:#FDF2EF;}
	.st26{fill:#FDF0EE;}
	.st27{fill:#FCEFED;}
	.st28{fill:#FCEEEC;}
	.st29{fill:#FCEDEA;}
	.st30{fill:#FCECEA;}
	.st31{fill:#FBECE9;}
	.st32{fill:#FBEBE7;}
	.st33{fill:#FBEAE7;}
	.st34{fill:#FBE9E5;}
	.st35{fill:#FBE8E5;}
	.st36{fill:#FBE7E4;}
	.st37{fill:#FBE6E3;}
	.st38{fill:#FBE6E2;}
	.st39{fill:#FAE6E1;}
	.st40{fill:#FBE4E0;}
	.st41{fill:#FBE4DF;}
	.st42{fill:#FBE3DE;}
	.st43{fill:#FAE2DD;}
	.st44{fill:#FAE0DC;}
	.st45{fill:#FAE0DB;}
	.st46{fill:#FADEDA;}
	.st47{fill:#FADED9;}
	.st48{fill:#FADDD8;}
	.st49{fill:#F9DCD7;}
	.st50{fill:#F9DCD6;}
	.st51{fill:#FADBD5;}
	.st52{fill:#FADAD5;}
	.st53{fill:#F9D9D3;}
	.st54{fill:#F9D8D3;}
	.st55{fill:#F8D8D2;}
	.st56{fill:#F9D7D0;}
	.st57{fill:#F8D6D0;}
	.st58{fill:#F8D5CF;}
	.st59{fill:#F8D5CE;}
	.st60{fill:#F8D3CD;}
	.st61{fill:#F7D2CB;}
	.st62{fill:#F6D1CA;}
	.st63{fill:#F6D1C9;}
	.st64{fill:#F6CFC8;}
	.st65{fill:#F6CFC7;}
	.st66{fill:#F6CDC6;}
	.st67{fill:#F5CCC4;}
	.st68{fill:#F5CBC4;}
	.st69{fill:#F6CBC3;}
	.st70{fill:#F5CAC2;}
	.st71{fill:#F5CAC1;}
	.st72{fill:#F5C8C0;}
	.st73{fill:#F4C7BF;}
	.st74{fill:#F5C7BE;}
	.st75{fill:#F5C6BD;}
	.st76{fill:#F5C4BC;}
	.st77{fill:#F5C4BB;}
	.st78{fill:#F5C3BA;}
	.st79{fill:#F4C2BA;}
	.st80{fill:#F4C2B8;}
	.st81{fill:#F4C1B8;}
	.st82{fill:#F4C0B7;}
	.st83{fill:#F3BFB5;}
	.st84{fill:#F3BEB5;}
	.st85{fill:#F2BDB4;}
	.st86{fill:#F3BCB3;}
	.st87{fill:#F3BBB2;}
	.st88{fill:#F3BBB1;}
	.st89{fill:#F3BAB0;}
	.st90{fill:#F3B9AF;}
	.st91{fill:#F3B8AE;}
	.st92{fill:#F2B7AD;}
	.st93{fill:#F2B5AC;}
	.st94{fill:#F2B5AB;}
	.st95{fill:#F2B4AA;}
	.st96{fill:#F2B4A9;}
	.st97{fill:#F2B3A8;}
	.st98{fill:#F0B2A7;}
	.st99{fill:#F0B0A5;}
	.st100{fill:#F0AFA4;}
	.st101{fill:#F0AEA3;}
	.st102{fill:#F0ADA2;}
	.st103{fill:#F0ACA1;}
	.st104{fill:#EFACA0;}
	.st105{fill:#EFAB9F;}
	.st106{fill:#EFAA9E;}
	.st107{fill:#F0A99D;}
	.st108{fill:#F0A99C;}
	.st109{fill:#F0A79B;}
	.st110{fill:#EFA79B;}
	.st111{fill:#EFA599;}
	.st112{fill:#EFA498;}
	.st113{fill:#EFA497;}
	.st114{fill:#EFA396;}
	.st115{fill:#EEA294;}
	.st116{fill:#EEA193;}
	.st117{fill:#EEA092;}
	.st118{fill:#EE9F92;}
	.st119{fill:#EE9D91;}
	.st120{fill:#EE9E90;}
	.st121{fill:#EC9D8F;}
	.st122{fill:#ED9B8D;}
	.st123{fill:#ED9A8C;}
	.st124{fill:#ED998B;}
	.st125{fill:#ED988A;}
	.st126{fill:#EC9789;}
	.st127{fill:#EC9788;}
	.st128{fill:#EC9687;}
	.st129{fill:#EC9586;}
	.st130{fill:#EC9485;}
	.st131{fill:#EC9384;}
	.st132{fill:#EB9283;}
	.st133{fill:#EB9182;}
	.st134{fill:#EB9081;}
	.st135{fill:#EB9080;}
	.st136{fill:#EB8F7F;}
	.st137{fill:#EA8E7E;}
	.st138{fill:#EA8D7D;}
	.st139{fill:#EA8C7C;}
	.st140{fill:#EA8B7B;}
	.st141{fill:#EA8A7A;}
	.st142{fill:#EB8979;}
	.st143{fill:#EA8877;}
	.st144{fill:#E98877;}
	.st145{fill:#E98675;}
	.st146{fill:#EA8674;}
	.st147{fill:#E98573;}
	.st148{fill:#E98472;}
	.st149{fill:#E98271;}
	.st150{fill:#E88170;}
	.st151{fill:#E8806F;}
	.st152{fill:#E8806E;}
	.st153{fill:#E87F6D;}
	.st154{fill:#E77E6C;}
	.st155{fill:#E77D6B;}
	.st156{fill:#E77C6A;}
	.st157{fill:#E67B69;}
	.st158{fill:#E67B68;}
	.st159{fill:#E67A67;}
	.st160{fill:#E67A66;}
	.st161{fill:#E67965;}
	.st162{fill:#E67864;}
	.st163{fill:#E57763;}
	.st164{fill:#E57562;}
	.st165{fill:#E57461;}
	.st166{fill:#E57360;}
	.st167{fill:#E5735F;}
	.st168{fill:#E5735E;}
	.st169{fill:#E4725D;}
	.st170{fill:#E4715C;}
	.st171{fill:#E5705B;}
	.st172{fill:#E56F5A;}
	.st173{fill:#E46D59;}
	.st174{fill:#E56C58;}
	.st175{fill:#E46B58;}
	.st176{fill:#E46A57;}
	.st177{fill:#E46A56;}
	.st178{fill:#E46A55;}
	.st179{fill:#E56954;}
	.st180{fill:#E56852;}
	.st181{fill:#E36752;}
	.st182{fill:#E46650;}
	.st183{fill:#E4654F;}
	.st184{fill:#E3634E;}
	.st185{fill:#E3634D;}
	.st186{fill:#E3624C;}
	.st187{fill:#E2614B;}
	.st188{fill:#E2604A;}
	.st189{fill:#E25F49;}
	.st190{fill:#E25E48;}
	.st191{fill:#E25D47;}
	.st192{fill:#E15D46;}
	.st193{fill:#E05D45;}
	.st194{fill:#E05C44;}
	.st195{fill:#E05B43;}
	.st196{fill:#E05A42;}
	.st197{fill:#E05941;}
	.st198{fill:#E05840;}
	.st199{fill:#DF573F;}
	.st200{fill:#DF563E;}
	.st201{fill:#DF563D;}
	.st202{fill:#DF553C;}
	.st203{fill:#E0543B;}
	.st204{fill:#E0533A;}
	.st205{fill:#DF5239;}
	.st206{fill:#DF5138;}
	.st207{fill:#DF5038;}
	.st208{fill:#DF4F36;}
	.st209{fill:#DF4E36;}
	.st210{fill:#DF4D35;}
	.st211{fill:#DE4D34;}
	.st212{fill:#DE4C33;}
	.st213{fill:#DE4B32;}
	.st214{fill:#DE4A31;}
	.st215{fill:#DE4930;}
	.st216{fill:#DE482F;}
	.st217{fill:#DD472E;}
	.st218{fill:#DD472D;}
	.st219{fill:#DC462B;}
	.st220{fill:#DC452A;}
	.st221{fill:#DC4429;}
	.st222{fill:#DD4428;}
	.st223{fill:#DC4327;}
	.st224{fill:#DC4226;}
	.st225{fill:#DB4125;}
	.st226{fill:#DB4124;}
	.st227{fill:#DC4023;}
	.st228{fill:#DC3E21;}
	.st229{fill:#DB3D21;}
	.st230{fill:#DB3C1F;}
	.st231{fill:#DB3B1D;}
	.st232{fill:#DB3A1C;}
	.st233{fill:#DB3A1B;}
	.st234{fill:#DA391A;}
	.st235{fill:#DA3919;}
	.st236{fill:#DA3818;}
	.st237{fill:#DA3618;}
	.st238{fill:#245C96;}
	.st239{fill:#F9FDFF;}
	.st240{fill:#FFFFFF;stroke:#3C74AB;stroke-miterlimit:10;}
	.st241{fill:none;}
</style>
<g id="XMLID_1074_">
	<path id="XMLID_1079_" class="st0" d="M78.4,14.4c0-0.1,0.1-0.3,0.4-0.4c0.5-0.2,1.3,0.2,2.4,1.1V15c0.1,0,8.4,3.5,10.1,3.4
		c1.3-0.1,3.8-0.8,5.8-3.5c1.8-2.5,3.3-3.3,3.4-3.3l0.4-0.2l-0.2,0.4c-0.6,1.4-1.2,3-1.1,3.2c0.2,0.4,1.5,2.2,2.1,3.1l0.1,0.2
		l-0.2,0.1c0,0-4.1,1.1-6.3,1.5L94,20.2c-1.8,0.5-3.8,1-5.9-0.2c-1.4-0.8-2.4-1.3-3.1-1.6l5.5,5c0.1,0.1,3.1,2.4,6.6,0
		c3.6-2.5,8.5-4.2,8.6-4.2l0.5-0.2l-0.3,0.4c-0.4,0.6-1.1,1.7-1,1.9c0,0.4,0.7,2.2,1,2.9l0.1,0.2h-0.2c-0.1,0-7.1,1.4-8.9,2.4
		c-1.1,0.6-4.8,2.4-7-0.2c-1.8-2.2-7.1-7.8-7.2-7.9L78.4,14.4L78.4,14.4z"/>
	<path id="XMLID_1078_" class="st1" d="M82.8,16.4L82.8,16.4L82.8,16.4c-0.3-0.3-0.6-0.6-0.9-0.8c2.1,0.8,8.1,3.3,9.6,3.1
		c1.4-0.2,3.9-0.8,6-3.6c1.2-1.6,2.3-2.5,2.8-2.9c-0.4,0.9-0.9,2.3-0.9,2.9v0.1c0.1,0.2,0.4,0.7,0.8,1.3c-1.4,0.5-8.2,2.7-9.8,2.9
		C89,19.4,84.6,17.3,82.8,16.4z"/>
	<path id="XMLID_1077_" class="st2" d="M95.4,19.5l-1.5,0.4c-1.8,0.5-3.7,1-5.6-0.2c-2.2-1.2-3.6-1.8-4-1.9l-1.6-1.4
		c1.8,0.9,6.2,3.1,7.7,2.9c1.6-0.2,8.5-2.5,9.8-2.9c0.5,0.7,1,1.4,1.2,1.7C100.6,18.3,97.3,19.2,95.4,19.5z"/>
	<path id="XMLID_1076_" class="st2" d="M78.9,14.3c0.1,0,0.1,0,0.2,0c1,0.9,7.1,6.6,9,8.4c2.1,2,3.4,4.6,5.6,3.4
		c2.1-1.1,9.5-3.8,10.8-4.3c0.2,0.7,0.6,1.9,0.8,2.3c-1.1,0.2-7.1,1.5-8.8,2.4c-1,0.6-4.6,2.3-6.6-0.2c-1.8-2.2-7.1-7.8-7.2-7.9
		c0,0-3.9-4-4.1-4.1C78.8,14.4,78.9,14.4,78.9,14.3z"/>
	<path id="XMLID_1075_" class="st1" d="M88.2,22.7c-1.9-1.9-8-7.5-9-8.4c0.4,0,1.4,0.4,3.3,2.2l1.6,1.4l0,0c0,0,0,0,0.1,0l6.1,5.5
		c0,0,3.3,2.6,7,0.1c2.9-2,6.8-3.5,8.1-4c-0.3,0.5-0.9,1.4-0.8,1.8c0,0.1,0.1,0.3,0.1,0.5c-1.3,0.5-8.7,3.2-10.8,4.3
		C91.5,27.3,90.2,24.8,88.2,22.7z"/>
</g>
<circle id="XMLID_1071_" class="st3" cx="75.7" cy="10.5" r="7.1"/>
<path id="XMLID_1000_" class="st4" d="M59.5,110.1h-6.9c-20.7,0-37.6-17-37.6-37.7V48.1c0-20.7,16.9-37.6,37.6-37.6h6.9
	c20.7,0,37.6,16.9,37.6,37.6v24.3C97.2,93.1,80.2,110.1,59.5,110.1z"/>
<path id="XMLID_997_" class="st5" d="M55.6,56.2c-23.5,0-37.6,18.3-37.6,0v-7.1c0-18.3,15-33.3,33.3-33.3H60
	c18.3,0,33.3,15,33.3,33.3v7.1C93.3,74.5,79.1,56.2,55.6,56.2z"/>
<path id="XMLID_994_" class="st6" d="M59.5,110.1h-6.9c-20.7,0-37.6-17-37.6-37.7V48.1c0-20.7,16.9-37.6,37.6-37.6h6.9
	c20.7,0,37.6,16.9,37.6,37.6v24.3C97.2,93.1,80.2,110.1,59.5,110.1z"/>
<path id="XMLID_993_" class="st1" d="M68.8,8.6c0,0,9.1,5.7,12.9,5.7c-1,1.4-1,1.2-1,1.2s-5.6-1.5-12.1-5.4
	C68.7,8.6,68.8,8.6,68.8,8.6z"/>
<g id="XMLID_952_">
	<ellipse id="XMLID_956_" class="st1" cx="39.4" cy="40" rx="11.4" ry="10.9"/>
	<circle id="XMLID_955_" class="st1" cx="74.9" cy="40" r="11.3"/>
	<path id="XMLID_954_" class="st7" d="M33.7,36.7c-0.6-0.4-0.8-1.2-0.4-1.8c0.4-0.6,1.2-0.8,1.8-0.4l8.7,5.8
		c0.6,0.4,0.8,1.2,0.4,1.8c-0.2,0.3-0.4,0.4-0.7,0.5l-8.5,3c-0.7,0.2-1.5-0.1-1.7-0.8s0.1-1.5,0.8-1.7l6.1-2.1L33.7,36.7L33.7,36.7z
		"/>
	<path id="XMLID_953_" class="st7" d="M80,36.7c0.6-0.4,0.8-1.2,0.4-1.8s-1.2-0.8-1.8-0.4l-8.7,5.8c-0.6,0.4-0.8,1.2-0.4,1.8
		c0.2,0.3,0.4,0.4,0.7,0.5l8.6,2.9c0.7,0.2,1.5-0.1,1.7-0.8s-0.1-1.5-0.8-1.7l-6.2-2L80,36.7L80,36.7z"/>
</g>
<g id="XMLID_948_">
	<path id="XMLID_951_" class="st8" d="M89.5,27.8c0,0-8.4,17.3,0,17.3C97.9,45.2,89.5,27.8,89.5,27.8z"/>
	<path id="XMLID_950_" class="st9" d="M89.9,28.8c1.9,6.2,3.7,15.5-1.9,15.5c-0.5,0-0.9-0.1-1.3-0.2c0.6,0.7,1.5,1,2.7,1
		C96.7,45.2,91.5,32.5,89.9,28.8z"/>
	<path id="XMLID_949_" class="st1" d="M87.8,35.2c0,0-1.7,6.3,0,8.1C89.5,45.2,87.8,35.2,87.8,35.2z"/>
</g>
<path id="XMLID_462_" class="st7" d="M41.6,66.8c-0.8,0.3-1.7-0.1-2-0.9s0.1-1.7,0.9-2c1.8-0.6,3.6-1.3,5.5-0.9
	c0.8,0.2,1.6,0.5,2.3,0.8s1.5,0.7,2,0.7s1.1-0.2,1.8-0.5c0.9-0.3,1.8-0.7,2.9-0.7c1.1,0,2,0.4,2.9,0.7c0.6,0.3,1.3,0.5,1.8,0.5
	c0.6,0,1.3-0.3,2-0.6c0.8-0.3,1.5-0.6,2.3-0.8c2-0.3,3.8,0.4,5.5,1c0.8,0.3,1.2,1.2,0.9,2c-0.3,0.8-1.2,1.2-2,0.9
	c-1.3-0.5-2.7-1.1-3.8-0.9c-0.5,0.1-1.1,0.3-1.7,0.6c-1.1,0.4-2.1,0.9-3.3,0.9c-1.1,0-2-0.4-2.9-0.7c-0.6-0.3-1.3-0.5-1.8-0.5
	s-1.1,0.2-1.8,0.5c-0.9,0.3-1.8,0.7-2.9,0.7c-1.2,0-2.2-0.5-3.3-1c-0.6-0.3-1.2-0.5-1.7-0.6C44.3,65.8,43,66.3,41.6,66.8L41.6,66.8z
	"/>
<g id="XMLID_909_" class="st10">
	<ellipse id="XMLID_1316_" class="st1" cx="56.7" cy="61.8" rx="29.7" ry="18.5"/>
	<ellipse id="XMLID_1315_" class="st1" cx="56.7" cy="61.8" rx="29.6" ry="18.4"/>
	<ellipse id="XMLID_1314_" class="st11" cx="56.7" cy="61.8" rx="29.5" ry="18.4"/>
	<ellipse id="XMLID_1313_" class="st12" cx="56.7" cy="61.8" rx="29.4" ry="18.3"/>
	<ellipse id="XMLID_1312_" class="st13" cx="56.7" cy="61.8" rx="29.3" ry="18.2"/>
	<ellipse id="XMLID_1311_" class="st14" cx="56.7" cy="61.8" rx="29.2" ry="18.2"/>
	<ellipse id="XMLID_1310_" class="st15" cx="56.7" cy="61.8" rx="29.1" ry="18.1"/>
	<ellipse id="XMLID_1309_" class="st16" cx="56.7" cy="61.8" rx="29" ry="18"/>
	<ellipse id="XMLID_1308_" class="st17" cx="56.7" cy="61.8" rx="28.9" ry="18"/>
	<ellipse id="XMLID_1307_" class="st18" cx="56.7" cy="61.8" rx="28.8" ry="17.9"/>
	<ellipse id="XMLID_1306_" class="st19" cx="56.7" cy="61.8" rx="28.6" ry="17.8"/>
	<ellipse id="XMLID_1305_" class="st20" cx="56.7" cy="61.8" rx="28.5" ry="17.8"/>
	<ellipse id="XMLID_1304_" class="st21" cx="56.7" cy="61.8" rx="28.4" ry="17.7"/>
	<ellipse id="XMLID_1303_" class="st22" cx="56.7" cy="61.8" rx="28.3" ry="17.6"/>
	<ellipse id="XMLID_1302_" class="st23" cx="56.7" cy="61.8" rx="28.2" ry="17.6"/>
	<ellipse id="XMLID_1301_" class="st24" cx="56.7" cy="61.8" rx="28.1" ry="17.5"/>
	<ellipse id="XMLID_1300_" class="st25" cx="56.7" cy="61.8" rx="28" ry="17.4"/>
	<ellipse id="XMLID_1299_" class="st26" cx="56.7" cy="61.8" rx="27.9" ry="17.4"/>
	<ellipse id="XMLID_1298_" class="st27" cx="56.7" cy="61.8" rx="27.8" ry="17.3"/>
	<ellipse id="XMLID_1297_" class="st28" cx="56.7" cy="61.8" rx="27.7" ry="17.2"/>
	<ellipse id="XMLID_1296_" class="st29" cx="56.7" cy="61.8" rx="27.6" ry="17.1"/>
	<ellipse id="XMLID_1295_" class="st30" cx="56.7" cy="61.8" rx="27.4" ry="17.1"/>
	<ellipse id="XMLID_1294_" class="st31" cx="56.7" cy="61.8" rx="27.3" ry="17"/>
	<ellipse id="XMLID_1293_" class="st32" cx="56.7" cy="61.8" rx="27.2" ry="16.9"/>
	<ellipse id="XMLID_1292_" class="st33" cx="56.7" cy="61.8" rx="27.1" ry="16.9"/>
	<ellipse id="XMLID_1291_" class="st34" cx="56.7" cy="61.8" rx="27" ry="16.8"/>
	<ellipse id="XMLID_1290_" class="st35" cx="56.7" cy="61.8" rx="26.9" ry="16.7"/>
	<ellipse id="XMLID_1289_" class="st36" cx="56.7" cy="61.8" rx="26.8" ry="16.7"/>
	<ellipse id="XMLID_1288_" class="st37" cx="56.7" cy="61.8" rx="26.7" ry="16.6"/>
	<ellipse id="XMLID_1287_" class="st38" cx="56.7" cy="61.8" rx="26.6" ry="16.5"/>
	<ellipse id="XMLID_1286_" class="st39" cx="56.7" cy="61.8" rx="26.5" ry="16.5"/>
	<ellipse id="XMLID_1285_" class="st40" cx="56.7" cy="61.8" rx="26.4" ry="16.4"/>
	<ellipse id="XMLID_1284_" class="st41" cx="56.7" cy="61.8" rx="26.3" ry="16.3"/>
	<ellipse id="XMLID_1283_" class="st42" cx="56.7" cy="61.8" rx="26.1" ry="16.3"/>
	<ellipse id="XMLID_1282_" class="st43" cx="56.7" cy="61.8" rx="26" ry="16.2"/>
	<ellipse id="XMLID_1281_" class="st44" cx="56.7" cy="61.8" rx="25.9" ry="16.1"/>
	<ellipse id="XMLID_1280_" class="st45" cx="56.7" cy="61.8" rx="25.8" ry="16.1"/>
	<ellipse id="XMLID_1279_" class="st46" cx="56.7" cy="61.8" rx="25.7" ry="16"/>
	<ellipse id="XMLID_1278_" class="st47" cx="56.7" cy="61.8" rx="25.6" ry="15.9"/>
	<ellipse id="XMLID_1277_" class="st48" cx="56.7" cy="61.8" rx="25.5" ry="15.9"/>
	<ellipse id="XMLID_1276_" class="st49" cx="56.7" cy="61.8" rx="25.4" ry="15.8"/>
	<ellipse id="XMLID_1275_" class="st50" cx="56.7" cy="61.8" rx="25.3" ry="15.7"/>
	<ellipse id="XMLID_1274_" class="st51" cx="56.7" cy="61.8" rx="25.2" ry="15.7"/>
	<ellipse id="XMLID_1273_" class="st52" cx="56.7" cy="61.8" rx="25.1" ry="15.6"/>
	<ellipse id="XMLID_1272_" class="st53" cx="56.7" cy="61.8" rx="24.9" ry="15.5"/>
	<ellipse id="XMLID_1271_" class="st54" cx="56.7" cy="61.8" rx="24.8" ry="15.5"/>
	<ellipse id="XMLID_1270_" class="st55" cx="56.7" cy="61.8" rx="24.7" ry="15.4"/>
	<ellipse id="XMLID_1269_" class="st56" cx="56.7" cy="61.8" rx="24.6" ry="15.3"/>
	<ellipse id="XMLID_1268_" class="st57" cx="56.7" cy="61.8" rx="24.5" ry="15.3"/>
	<ellipse id="XMLID_1267_" class="st58" cx="56.7" cy="61.8" rx="24.4" ry="15.2"/>
	<ellipse id="XMLID_1266_" class="st59" cx="56.7" cy="61.8" rx="24.3" ry="15.1"/>
	<ellipse id="XMLID_1265_" class="st60" cx="56.7" cy="61.8" rx="24.2" ry="15"/>
	<ellipse id="XMLID_1264_" class="st61" cx="56.7" cy="61.8" rx="24.1" ry="15"/>
	<ellipse id="XMLID_1263_" class="st62" cx="56.7" cy="61.8" rx="24" ry="14.9"/>
	<ellipse id="XMLID_1262_" class="st63" cx="56.7" cy="61.8" rx="23.9" ry="14.8"/>
	<ellipse id="XMLID_1261_" class="st64" cx="56.7" cy="61.8" rx="23.7" ry="14.8"/>
	<ellipse id="XMLID_1260_" class="st65" cx="56.7" cy="61.8" rx="23.6" ry="14.7"/>
	<ellipse id="XMLID_1259_" class="st66" cx="56.7" cy="61.8" rx="23.5" ry="14.6"/>
	<ellipse id="XMLID_1258_" class="st67" cx="56.7" cy="61.8" rx="23.4" ry="14.6"/>
	<ellipse id="XMLID_1257_" class="st68" cx="56.7" cy="61.8" rx="23.3" ry="14.5"/>
	<ellipse id="XMLID_1256_" class="st69" cx="56.7" cy="61.8" rx="23.2" ry="14.4"/>
	<ellipse id="XMLID_1255_" class="st70" cx="56.7" cy="61.8" rx="23.1" ry="14.4"/>
	<ellipse id="XMLID_1254_" class="st71" cx="56.7" cy="61.8" rx="23" ry="14.3"/>
	<ellipse id="XMLID_1253_" class="st72" cx="56.7" cy="61.8" rx="22.9" ry="14.2"/>
	<ellipse id="XMLID_1252_" class="st73" cx="56.7" cy="61.8" rx="22.8" ry="14.2"/>
	<ellipse id="XMLID_1251_" class="st74" cx="56.7" cy="61.8" rx="22.7" ry="14.1"/>
	<ellipse id="XMLID_1250_" class="st75" cx="56.7" cy="61.8" rx="22.6" ry="14"/>
	<ellipse id="XMLID_1249_" class="st76" cx="56.7" cy="61.8" rx="22.4" ry="14"/>
	<ellipse id="XMLID_1248_" class="st77" cx="56.7" cy="61.8" rx="22.3" ry="13.9"/>
	<ellipse id="XMLID_1247_" class="st78" cx="56.7" cy="61.8" rx="22.2" ry="13.8"/>
	<ellipse id="XMLID_1246_" class="st79" cx="56.7" cy="61.8" rx="22.1" ry="13.8"/>
	<ellipse id="XMLID_1245_" class="st80" cx="56.7" cy="61.8" rx="22" ry="13.7"/>
	<ellipse id="XMLID_1244_" class="st81" cx="56.7" cy="61.8" rx="21.9" ry="13.6"/>
	<ellipse id="XMLID_1243_" class="st82" cx="56.7" cy="61.8" rx="21.8" ry="13.6"/>
	<ellipse id="XMLID_1242_" class="st83" cx="56.7" cy="61.8" rx="21.7" ry="13.5"/>
	<ellipse id="XMLID_1241_" class="st84" cx="56.7" cy="61.8" rx="21.6" ry="13.4"/>
	<ellipse id="XMLID_1240_" class="st85" cx="56.7" cy="61.8" rx="21.5" ry="13.4"/>
	<ellipse id="XMLID_1239_" class="st86" cx="56.7" cy="61.8" rx="21.4" ry="13.3"/>
	<ellipse id="XMLID_1238_" class="st87" cx="56.7" cy="61.8" rx="21.2" ry="13.2"/>
	<ellipse id="XMLID_1237_" class="st88" cx="56.7" cy="61.8" rx="21.1" ry="13.2"/>
	<ellipse id="XMLID_1236_" class="st89" cx="56.7" cy="61.8" rx="21" ry="13.1"/>
	<ellipse id="XMLID_1235_" class="st90" cx="56.7" cy="61.8" rx="20.9" ry="13"/>
	<ellipse id="XMLID_1234_" class="st91" cx="56.7" cy="61.8" rx="20.8" ry="12.9"/>
	<ellipse id="XMLID_1233_" class="st92" cx="56.7" cy="61.8" rx="20.7" ry="12.9"/>
	<ellipse id="XMLID_1232_" class="st93" cx="56.7" cy="61.8" rx="20.6" ry="12.8"/>
	<ellipse id="XMLID_1231_" class="st94" cx="56.7" cy="61.8" rx="20.5" ry="12.7"/>
	<ellipse id="XMLID_1230_" class="st95" cx="56.7" cy="61.8" rx="20.4" ry="12.7"/>
	<ellipse id="XMLID_1229_" class="st96" cx="56.7" cy="61.8" rx="20.3" ry="12.6"/>
	<ellipse id="XMLID_1228_" class="st97" cx="56.7" cy="61.8" rx="20.2" ry="12.5"/>
	<ellipse id="XMLID_1227_" class="st98" cx="56.7" cy="61.8" rx="20" ry="12.5"/>
	<ellipse id="XMLID_1226_" class="st99" cx="56.7" cy="61.8" rx="19.9" ry="12.4"/>
	<ellipse id="XMLID_1225_" class="st100" cx="56.7" cy="61.8" rx="19.8" ry="12.3"/>
	<ellipse id="XMLID_1224_" class="st101" cx="56.7" cy="61.8" rx="19.7" ry="12.3"/>
	<ellipse id="XMLID_1223_" class="st102" cx="56.7" cy="61.8" rx="19.6" ry="12.2"/>
	<ellipse id="XMLID_1222_" class="st103" cx="56.7" cy="61.8" rx="19.5" ry="12.1"/>
	<ellipse id="XMLID_1221_" class="st104" cx="56.7" cy="61.8" rx="19.4" ry="12.1"/>
	<ellipse id="XMLID_1220_" class="st105" cx="56.7" cy="61.8" rx="19.3" ry="12"/>
	<ellipse id="XMLID_1219_" class="st106" cx="56.7" cy="61.8" rx="19.2" ry="11.9"/>
	<ellipse id="XMLID_1218_" class="st107" cx="56.7" cy="61.8" rx="19.1" ry="11.9"/>
	<ellipse id="XMLID_1217_" class="st108" cx="56.7" cy="61.8" rx="19" ry="11.8"/>
	<ellipse id="XMLID_1216_" class="st109" cx="56.7" cy="61.8" rx="18.9" ry="11.7"/>
	<ellipse id="XMLID_1215_" class="st110" cx="56.7" cy="61.8" rx="18.7" ry="11.7"/>
	<ellipse id="XMLID_1214_" class="st111" cx="56.7" cy="61.8" rx="18.6" ry="11.6"/>
	<ellipse id="XMLID_1213_" class="st112" cx="56.7" cy="61.8" rx="18.5" ry="11.5"/>
	<ellipse id="XMLID_1212_" class="st112" cx="56.7" cy="61.8" rx="18.4" ry="11.5"/>
	<ellipse id="XMLID_1211_" class="st113" cx="56.7" cy="61.8" rx="18.3" ry="11.4"/>
	<ellipse id="XMLID_1210_" class="st114" cx="56.7" cy="61.8" rx="18.2" ry="11.3"/>
	<ellipse id="XMLID_1209_" class="st115" cx="56.7" cy="61.8" rx="18.1" ry="11.3"/>
	<ellipse id="XMLID_1208_" class="st116" cx="56.7" cy="61.8" rx="18" ry="11.2"/>
	<ellipse id="XMLID_1207_" class="st117" cx="56.7" cy="61.8" rx="17.9" ry="11.1"/>
	<ellipse id="XMLID_1206_" class="st118" cx="56.7" cy="61.8" rx="17.8" ry="11.1"/>
	<ellipse id="XMLID_1205_" class="st119" cx="56.7" cy="61.8" rx="17.7" ry="11"/>
	<ellipse id="XMLID_1204_" class="st120" cx="56.7" cy="61.8" rx="17.5" ry="10.9"/>
	<ellipse id="XMLID_1203_" class="st121" cx="56.7" cy="61.8" rx="17.4" ry="10.9"/>
	<ellipse id="XMLID_1202_" class="st122" cx="56.7" cy="61.8" rx="17.3" ry="10.8"/>
	<ellipse id="XMLID_1201_" class="st122" cx="56.7" cy="61.8" rx="17.2" ry="10.7"/>
	<ellipse id="XMLID_1200_" class="st123" cx="56.7" cy="61.8" rx="17.1" ry="10.6"/>
	<ellipse id="XMLID_1199_" class="st124" cx="56.7" cy="61.8" rx="17" ry="10.6"/>
	<ellipse id="XMLID_1198_" class="st125" cx="56.7" cy="61.8" rx="16.9" ry="10.5"/>
	<ellipse id="XMLID_1197_" class="st126" cx="56.7" cy="61.8" rx="16.8" ry="10.4"/>
	<ellipse id="XMLID_1196_" class="st127" cx="56.7" cy="61.8" rx="16.7" ry="10.4"/>
	<ellipse id="XMLID_1195_" class="st128" cx="56.7" cy="61.8" rx="16.6" ry="10.3"/>
	<ellipse id="XMLID_1194_" class="st129" cx="56.7" cy="61.8" rx="16.5" ry="10.2"/>
	<ellipse id="XMLID_1193_" class="st130" cx="56.7" cy="61.8" rx="16.3" ry="10.2"/>
	<ellipse id="XMLID_1192_" class="st131" cx="56.7" cy="61.8" rx="16.2" ry="10.1"/>
	<ellipse id="XMLID_1191_" class="st132" cx="56.7" cy="61.8" rx="16.1" ry="10"/>
	<ellipse id="XMLID_1190_" class="st133" cx="56.7" cy="61.8" rx="16" ry="10"/>
	<ellipse id="XMLID_1189_" class="st134" cx="56.7" cy="61.8" rx="15.9" ry="9.9"/>
	<ellipse id="XMLID_1188_" class="st135" cx="56.7" cy="61.8" rx="15.8" ry="9.8"/>
	<ellipse id="XMLID_1187_" class="st136" cx="56.7" cy="61.8" rx="15.7" ry="9.8"/>
	<ellipse id="XMLID_1186_" class="st137" cx="56.7" cy="61.8" rx="15.6" ry="9.7"/>
	<ellipse id="XMLID_1185_" class="st138" cx="56.7" cy="61.8" rx="15.5" ry="9.6"/>
	<ellipse id="XMLID_1184_" class="st139" cx="56.7" cy="61.8" rx="15.4" ry="9.6"/>
	<ellipse id="XMLID_1183_" class="st140" cx="56.7" cy="61.8" rx="15.3" ry="9.5"/>
	<ellipse id="XMLID_1182_" class="st141" cx="56.7" cy="61.8" rx="15.2" ry="9.4"/>
	<ellipse id="XMLID_1181_" class="st142" cx="56.7" cy="61.8" rx="15" ry="9.4"/>
	<ellipse id="XMLID_1180_" class="st143" cx="56.7" cy="61.8" rx="14.9" ry="9.3"/>
	<ellipse id="XMLID_1179_" class="st144" cx="56.7" cy="61.8" rx="14.8" ry="9.2"/>
	<ellipse id="XMLID_1178_" class="st145" cx="56.7" cy="61.8" rx="14.7" ry="9.2"/>
	<ellipse id="XMLID_1177_" class="st146" cx="56.7" cy="61.8" rx="14.6" ry="9.1"/>
	<ellipse id="XMLID_1176_" class="st147" cx="56.7" cy="61.8" rx="14.5" ry="9"/>
	<ellipse id="XMLID_1175_" class="st148" cx="56.7" cy="61.8" rx="14.4" ry="9"/>
	<ellipse id="XMLID_1174_" class="st149" cx="56.7" cy="61.8" rx="14.3" ry="8.9"/>
	<ellipse id="XMLID_1173_" class="st150" cx="56.7" cy="61.8" rx="14.2" ry="8.8"/>
	<ellipse id="XMLID_1172_" class="st151" cx="56.7" cy="61.8" rx="14.1" ry="8.8"/>
	<ellipse id="XMLID_1171_" class="st152" cx="56.7" cy="61.8" rx="14" ry="8.7"/>
	<ellipse id="XMLID_1170_" class="st153" cx="56.7" cy="61.8" rx="13.8" ry="8.6"/>
	<ellipse id="XMLID_1169_" class="st154" cx="56.7" cy="61.8" rx="13.7" ry="8.5"/>
	<ellipse id="XMLID_1168_" class="st155" cx="56.7" cy="61.8" rx="13.6" ry="8.5"/>
	<ellipse id="XMLID_1167_" class="st156" cx="56.7" cy="61.8" rx="13.5" ry="8.4"/>
	<ellipse id="XMLID_1166_" class="st157" cx="56.7" cy="61.8" rx="13.4" ry="8.3"/>
	<ellipse id="XMLID_1165_" class="st158" cx="56.7" cy="61.8" rx="13.3" ry="8.3"/>
	<ellipse id="XMLID_1164_" class="st159" cx="56.7" cy="61.8" rx="13.2" ry="8.2"/>
	<ellipse id="XMLID_1163_" class="st160" cx="56.7" cy="61.8" rx="13.1" ry="8.1"/>
	<ellipse id="XMLID_1162_" class="st161" cx="56.7" cy="61.8" rx="13" ry="8.1"/>
	<ellipse id="XMLID_1161_" class="st162" cx="56.7" cy="61.8" rx="12.9" ry="8"/>
	<ellipse id="XMLID_1160_" class="st163" cx="56.7" cy="61.8" rx="12.8" ry="7.9"/>
	<ellipse id="XMLID_1159_" class="st164" cx="56.7" cy="61.8" rx="12.6" ry="7.9"/>
	<ellipse id="XMLID_1158_" class="st165" cx="56.7" cy="61.8" rx="12.5" ry="7.8"/>
	<ellipse id="XMLID_1157_" class="st166" cx="56.7" cy="61.8" rx="12.4" ry="7.7"/>
	<ellipse id="XMLID_1156_" class="st167" cx="56.7" cy="61.8" rx="12.3" ry="7.7"/>
	<ellipse id="XMLID_1155_" class="st168" cx="56.7" cy="61.8" rx="12.2" ry="7.6"/>
	<ellipse id="XMLID_1154_" class="st169" cx="56.7" cy="61.8" rx="12.1" ry="7.5"/>
	<ellipse id="XMLID_1153_" class="st170" cx="56.7" cy="61.8" rx="12" ry="7.5"/>
	<ellipse id="XMLID_1152_" class="st171" cx="56.7" cy="61.8" rx="11.9" ry="7.4"/>
	<ellipse id="XMLID_1151_" class="st172" cx="56.7" cy="61.8" rx="11.8" ry="7.3"/>
	<ellipse id="XMLID_1150_" class="st173" cx="56.7" cy="61.8" rx="11.7" ry="7.3"/>
	<ellipse id="XMLID_1149_" class="st174" cx="56.7" cy="61.8" rx="11.6" ry="7.2"/>
	<ellipse id="XMLID_1148_" class="st175" cx="56.7" cy="61.8" rx="11.5" ry="7.1"/>
	<ellipse id="XMLID_1147_" class="st176" cx="56.7" cy="61.8" rx="11.3" ry="7.1"/>
	<ellipse id="XMLID_1146_" class="st177" cx="56.7" cy="61.8" rx="11.2" ry="7"/>
	<ellipse id="XMLID_1145_" class="st178" cx="56.7" cy="61.8" rx="11.1" ry="6.9"/>
	<ellipse id="XMLID_1144_" class="st179" cx="56.7" cy="61.8" rx="11" ry="6.9"/>
	<ellipse id="XMLID_1143_" class="st180" cx="56.7" cy="61.8" rx="10.9" ry="6.8"/>
	<ellipse id="XMLID_1142_" class="st181" cx="56.7" cy="61.8" rx="10.8" ry="6.7"/>
	<ellipse id="XMLID_1141_" class="st182" cx="56.7" cy="61.8" rx="10.7" ry="6.7"/>
	<ellipse id="XMLID_1140_" class="st183" cx="56.7" cy="61.8" rx="10.6" ry="6.6"/>
	<ellipse id="XMLID_1139_" class="st184" cx="56.7" cy="61.8" rx="10.5" ry="6.5"/>
	<ellipse id="XMLID_1138_" class="st185" cx="56.7" cy="61.8" rx="10.4" ry="6.4"/>
	<ellipse id="XMLID_1137_" class="st186" cx="56.7" cy="61.8" rx="10.3" ry="6.4"/>
	<ellipse id="XMLID_1136_" class="st187" cx="56.7" cy="61.8" rx="10.1" ry="6.3"/>
	<ellipse id="XMLID_1135_" class="st188" cx="56.7" cy="61.8" rx="10" ry="6.2"/>
	<ellipse id="XMLID_1134_" class="st189" cx="56.7" cy="61.8" rx="9.9" ry="6.2"/>
	<ellipse id="XMLID_1133_" class="st190" cx="56.7" cy="61.8" rx="9.8" ry="6.1"/>
	<ellipse id="XMLID_1132_" class="st191" cx="56.7" cy="61.8" rx="9.7" ry="6"/>
	<ellipse id="XMLID_1131_" class="st192" cx="56.7" cy="61.8" rx="9.6" ry="6"/>
	<ellipse id="XMLID_1130_" class="st193" cx="56.7" cy="61.8" rx="9.5" ry="5.9"/>
	<ellipse id="XMLID_1129_" class="st194" cx="56.7" cy="61.8" rx="9.4" ry="5.8"/>
	<ellipse id="XMLID_1128_" class="st195" cx="56.7" cy="61.8" rx="9.3" ry="5.8"/>
	<ellipse id="XMLID_1127_" class="st196" cx="56.7" cy="61.8" rx="9.2" ry="5.7"/>
	<ellipse id="XMLID_1126_" class="st197" cx="56.7" cy="61.8" rx="9.1" ry="5.6"/>
	<ellipse id="XMLID_1125_" class="st198" cx="56.7" cy="61.8" rx="8.9" ry="5.6"/>
	<ellipse id="XMLID_1124_" class="st199" cx="56.7" cy="61.8" rx="8.8" ry="5.5"/>
	<ellipse id="XMLID_1123_" class="st200" cx="56.7" cy="61.8" rx="8.7" ry="5.4"/>
	<ellipse id="XMLID_1122_" class="st201" cx="56.7" cy="61.8" rx="8.6" ry="5.4"/>
	<ellipse id="XMLID_1121_" class="st202" cx="56.7" cy="61.8" rx="8.5" ry="5.3"/>
	<ellipse id="XMLID_1120_" class="st203" cx="56.7" cy="61.8" rx="8.4" ry="5.2"/>
	<ellipse id="XMLID_1119_" class="st204" cx="56.7" cy="61.8" rx="8.3" ry="5.2"/>
	<ellipse id="XMLID_1118_" class="st205" cx="56.7" cy="61.8" rx="8.2" ry="5.1"/>
	<ellipse id="XMLID_1117_" class="st206" cx="56.7" cy="61.8" rx="8.1" ry="5"/>
	<ellipse id="XMLID_1116_" class="st207" cx="56.7" cy="61.8" rx="8" ry="5"/>
	<ellipse id="XMLID_1115_" class="st208" cx="56.7" cy="61.8" rx="7.9" ry="4.9"/>
	<ellipse id="XMLID_1114_" class="st209" cx="56.7" cy="61.8" rx="7.8" ry="4.8"/>
	<ellipse id="XMLID_1113_" class="st210" cx="56.7" cy="61.8" rx="7.6" ry="4.8"/>
	<ellipse id="XMLID_1112_" class="st211" cx="56.7" cy="61.8" rx="7.5" ry="4.7"/>
	<ellipse id="XMLID_1111_" class="st212" cx="56.7" cy="61.8" rx="7.4" ry="4.6"/>
	<ellipse id="XMLID_1110_" class="st213" cx="56.7" cy="61.8" rx="7.3" ry="4.6"/>
	<ellipse id="XMLID_1109_" class="st214" cx="56.7" cy="61.8" rx="7.2" ry="4.5"/>
	<ellipse id="XMLID_1108_" class="st215" cx="56.7" cy="61.8" rx="7.1" ry="4.4"/>
	<ellipse id="XMLID_1107_" class="st216" cx="56.7" cy="61.8" rx="7" ry="4.3"/>
	<ellipse id="XMLID_1106_" class="st217" cx="56.7" cy="61.8" rx="6.9" ry="4.3"/>
	<ellipse id="XMLID_1105_" class="st218" cx="56.7" cy="61.8" rx="6.8" ry="4.2"/>
	<ellipse id="XMLID_1104_" class="st219" cx="56.7" cy="61.8" rx="6.7" ry="4.1"/>
	<ellipse id="XMLID_1103_" class="st220" cx="56.7" cy="61.8" rx="6.6" ry="4.1"/>
	<ellipse id="XMLID_1102_" class="st221" cx="56.7" cy="61.8" rx="6.4" ry="4"/>
	<ellipse id="XMLID_1101_" class="st222" cx="56.7" cy="61.8" rx="6.3" ry="3.9"/>
	<ellipse id="XMLID_1100_" class="st223" cx="56.7" cy="61.8" rx="6.2" ry="3.9"/>
	<ellipse id="XMLID_1099_" class="st224" cx="56.7" cy="61.8" rx="6.1" ry="3.8"/>
	<ellipse id="XMLID_1096_" class="st225" cx="56.7" cy="61.8" rx="6" ry="3.7"/>
	<ellipse id="XMLID_1095_" class="st226" cx="56.7" cy="61.8" rx="5.9" ry="3.7"/>
	<ellipse id="XMLID_1093_" class="st227" cx="56.7" cy="61.8" rx="5.8" ry="3.6"/>
	<ellipse id="XMLID_1092_" class="st228" cx="56.7" cy="61.8" rx="5.7" ry="3.5"/>
	<ellipse id="XMLID_1091_" class="st229" cx="56.7" cy="61.8" rx="5.6" ry="3.5"/>
	<ellipse id="XMLID_1090_" class="st230" cx="56.7" cy="61.8" rx="5.5" ry="3.4"/>
	<ellipse id="XMLID_1089_" class="st230" cx="56.7" cy="61.8" rx="5.4" ry="3.3"/>
	<ellipse id="XMLID_1085_" class="st231" cx="56.7" cy="61.8" rx="5.2" ry="3.3"/>
	<ellipse id="XMLID_998_" class="st232" cx="56.7" cy="61.8" rx="5.1" ry="3.2"/>
	<ellipse id="XMLID_932_" class="st233" cx="56.7" cy="61.8" rx="5" ry="3.1"/>
	<ellipse id="XMLID_924_" class="st234" cx="56.7" cy="61.8" rx="4.9" ry="3.1"/>
	<ellipse id="XMLID_923_" class="st235" cx="56.7" cy="61.8" rx="4.8" ry="3"/>
	<ellipse id="XMLID_916_" class="st236" cx="56.7" cy="61.8" rx="4.7" ry="2.9"/>
	<ellipse id="XMLID_915_" class="st237" cx="56.7" cy="61.8" rx="4.6" ry="2.9"/>
</g>
<g id="XMLID_959_">
	<path id="XMLID_962_" class="st238" d="M53.7,72.9c-9,0-38-7.5-39.2-7.9v-4c0.3,0.1,31.5,8.1,39.5,7.8l0.1,4
		C54,72.9,53.9,72.9,53.7,72.9z"/>
</g>
<path id="XMLID_985_" class="st0" d="M59.5,109.6h-6.9C32,109.6,15,92.7,15,72v-9.1l39.5,7.6l42.6-7.1V72
	C97.2,92.7,80.3,109.6,59.5,109.6z"/>
<g id="XMLID_963_">
	<g id="XMLID_1097_">
		<path id="XMLID_1098_" class="st239" d="M58.1,93.4c-14.3,0-27.5-1.7-40.6-6.1l-1.4-4c26.7,9,65.8,7.6,80,0.2l-1.5,4
			C86.7,91.5,74,93.4,58.1,93.4z"/>
	</g>
</g>
<g id="XMLID_957_">
	<path id="XMLID_958_" class="st238" d="M16.8,77.3c-0.8,0-1.5,0.1-2,0l-0.3-3.9c8,0.9,58.4-7.2,83.2-11.6v4
		C94.9,66.3,32,77.3,16.8,77.3z"/>
</g>
<path id="XMLID_940_" class="st240" d="M112.7,77.4c0.8,8.1-31.8,22.5-36.5,15.8c-3.6-5.1,25.6-8.1,27.7-16.3
	c0.7-2.8-6.4-3.7-6.4-7.1c0-4.4,0-4.9,0-6.3C110.7,68.7,112.4,73.9,112.7,77.4z"/>
<path id="XMLID_936_" class="st240" d="M0.7,78.2c0,4.9,23.8,21.9,33.3,19c1.3-2,3.1-0.8,0-4.5C30.7,88.6,9.5,80,9.5,77.8
	c0-3.2,5.6-4,5.6-7.4c0-4.4,0-4.9,0-6.3C1.9,69.2,0.7,73.3,0.7,78.2z"/>
<g id="XMLID_919_">
	<g id="XMLID_928_">
		<path id="XMLID_935_" class="st1" d="M81.6,88.3c6.2-0.9,0.9-8.8-2.7-9.9c-10-3.7-9.2,9.2,0.6,9.2"/>
		<g id="XMLID_929_">
			<path id="XMLID_934_" class="st241" d="M81.6,88.3c6.2-0.9,0.9-8.8-2.7-9.9c-10-3.7-9.2,9.2,0.6,9.2"/>
			<path id="XMLID_930_" class="st0" d="M81.6,87.6c1.7-0.3,2.9-1.1,2.3-3c-0.4-1.4-1.4-2.6-2.4-3.6c-1.7-1.8-4.4-2.7-6.9-2.4
				c-2.7,0.3-3.1,3-1.9,5c1.4,2.4,4.2,3.3,6.8,3.4c0.4,0,0.3,1.5-0.1,1.4c-3.5-0.1-7.1-1.9-7.9-5.5c-0.5-2.6,0.5-5.2,3.2-5.7
				c3.9-0.8,7.5,2.2,9.1,5.4c1.5,2.7,0.9,5.9-2.5,6.5C81.2,89.1,81.2,87.6,81.6,87.6L81.6,87.6z"/>
		</g>
	</g>
	<g id="XMLID_920_">
		<path id="XMLID_927_" class="st1" d="M68,104.9c8.2,0.6,18.4-5,16.4-14.4c-1.4-6.6-5.6-9.6-12.1-8.9c-6,0.8-12.4,3.9-12.6,10.6
			C59.2,98.4,61.3,104.4,68,104.9z"/>
		<g id="XMLID_921_">
			<path id="XMLID_926_" class="st241" d="M68,104.9c8.2,0.6,18.4-5,16.4-14.4c-1.4-6.6-5.6-9.6-12.1-8.9c-6,0.8-12.4,3.9-12.6,10.6
				C59.2,98.4,61.3,104.4,68,104.9z"/>
			<path id="XMLID_922_" class="st0" d="M68.1,104.2c4.7,0.2,9.3-1.2,12.9-4.3c5.6-4.8,3.6-14.2-2.8-17c-4.8-2.2-11.6,0.1-15.4,3.4
				C56.6,91.6,60.4,103.2,68.1,104.2c0.6,0.1,0.4,1.5-0.1,1.4c-7.1-0.9-10-8.4-8.6-14.9C61,83,70.3,79.5,77.5,81.2
				c6.3,1.5,8.7,9.6,7,15.2c-2,6.7-10.2,9.5-16.5,9.2C67.4,105.6,67.5,104.2,68.1,104.2z"/>
		</g>
	</g>
</g>
<g id="XMLID_463_">
	<g id="XMLID_912_">
		<path id="XMLID_918_" class="st1" d="M29.7,88.5c-6.3-0.6-1.3-8.7,2.3-10c9.8-4.1,9.6,8.8-0.2,9.3"/>
		<g id="XMLID_913_">
			<path id="XMLID_917_" class="st241" d="M29.7,88.5c-6.3-0.6-1.3-8.7,2.3-10c9.8-4.1,9.6,8.8-0.2,9.3"/>
			<path id="XMLID_914_" class="st0" d="M29.6,87.8c-1.7-0.2-2.9-0.9-2.4-2.8c0.4-1.4,1.3-2.7,2.2-3.7c1.7-1.9,4.2-2.9,6.7-2.7
				c2.7,0.2,3.2,2.8,2.1,4.9c-1.3,2.4-4,3.5-6.6,3.7c-0.4,0-0.2,1.5,0.2,1.4c3.4-0.2,7-2.2,7.6-5.9c0.4-2.6-0.7-5.2-3.5-5.6
				c-3.9-0.6-7.3,2.5-8.9,5.8c-1.3,2.8-0.6,6,2.8,6.4C30.1,89.3,30.1,87.9,29.6,87.8L29.6,87.8z"/>
		</g>
	</g>
	<g id="XMLID_464_">
		<path id="XMLID_911_" class="st1" d="M44,104.5c-8.1,1-18.6-4.2-17-13.7c1.1-6.7,5.2-9.8,11.7-9.5c6,0.5,12.5,3.3,13.1,10
			C52.5,97.6,50.7,103.7,44,104.5z"/>
		<g id="XMLID_465_">
			<path id="XMLID_910_" class="st241" d="M44,104.5c-8.1,1-18.6-4.2-17-13.7c1.1-6.7,5.2-9.8,11.7-9.5c6,0.5,12.5,3.3,13.1,10
				C52.5,97.6,50.7,103.7,44,104.5z"/>
			<path id="XMLID_624_" class="st0" d="M43.9,103.8c-4.7,0.4-9.3-0.7-13-3.7c-5.8-4.5-4.2-14,2-17.2c4.7-2.4,11.6-0.4,15.5,2.6
				C54.9,90.7,51.6,102.4,43.9,103.8c-0.6,0.1-0.4,1.5,0.2,1.4c7-1.3,9.6-8.8,7.9-15.3c-2-7.7-11.4-10.8-18.5-8.7
				c-6.2,1.8-8.3,10-6.3,15.5c2.3,6.6,10.7,9,16.9,8.5C44.7,105.2,44.5,103.8,43.9,103.8z"/>
		</g>
	</g>
</g>
<g id="XMLID_944_">
	<path id="XMLID_947_" class="st8" d="M21.8,47.2c0,0-8.4,17.3,0,17.3S21.8,47.2,21.8,47.2z"/>
	<path id="XMLID_946_" class="st9" d="M22.2,48.2c1.9,6.2,3.7,15.5-1.9,15.5c-0.5,0-0.9-0.1-1.3-0.2c0.6,0.7,1.5,1,2.7,1
		C29,64.5,23.8,51.8,22.2,48.2z"/>
	<path id="XMLID_945_" class="st1" d="M20.1,54.6c0,0-1.7,6.3,0,8.1C21.8,64.5,20.1,54.6,20.1,54.6z"/>
</g>
</svg>
