<svg 
 xmlns="http://www.w3.org/2000/svg"
 xmlns:xlink="http://www.w3.org/1999/xlink"
 width="127px" height="102px">
<path fill-rule="evenodd"  fill="#C73E3A"
 d="M125.433,73.242 L108.285,99.253 C106.713,101.645 103.482,102.299 101.085,100.726 L3.333,36.356 C0.924,34.779 0.264,31.550 1.848,29.162 L18.995,3.151 C20.567,0.759 23.798,0.105 26.195,1.678 L123.948,66.048 C126.344,67.622 127.004,70.850 125.433,73.242 ZM121.421,67.495 L25.856,4.548 C24.066,3.366 21.636,3.866 20.456,5.652 L4.738,29.497 L4.738,29.498 C3.550,31.308 4.045,33.720 5.839,34.888 L101.416,97.840 C103.207,99.021 105.636,98.521 106.816,96.736 L122.535,72.890 C123.714,71.104 123.211,68.676 121.421,67.495 ZM88.927,62.310 L87.130,61.162 L88.732,58.656 L71.312,47.526 L69.709,50.032 L67.912,48.884 L70.515,44.814 L75.941,48.281 C75.465,46.734 74.932,45.206 74.344,43.698 L76.169,43.179 C76.831,44.682 77.476,46.228 78.104,47.817 L76.033,48.340 L80.101,50.938 L82.674,46.914 L84.517,48.092 L81.944,52.116 L85.746,54.545 L85.559,52.806 C87.326,52.785 89.091,52.669 90.845,52.459 L91.314,54.669 C89.637,54.783 87.957,54.854 86.276,54.883 L91.530,58.240 L88.927,62.310 ZM60.921,44.386 L61.421,43.604 L48.310,35.227 L47.472,36.538 C46.805,37.580 47.002,38.440 48.062,39.117 L60.297,46.935 C61.480,47.690 62.439,47.731 63.174,47.056 C63.770,46.530 64.483,45.786 65.313,44.827 C65.747,45.467 66.203,46.093 66.678,46.703 C65.582,47.774 64.823,48.487 64.400,48.843 C63.098,49.998 61.526,49.987 59.683,48.809 L46.618,40.462 C44.651,39.206 44.306,37.581 45.580,35.588 L50.506,27.885 L67.166,38.529 L62.695,45.519 L60.921,44.386 ZM51.266,30.605 L49.325,33.640 L62.436,42.017 L64.377,38.982 L51.266,30.605 ZM48.311,42.483 C47.654,43.510 47.039,44.413 46.466,45.191 L54.150,50.101 L55.901,47.364 L57.721,48.527 L55.971,51.264 L61.501,54.797 L60.472,56.407 L54.942,52.873 L51.221,58.691 L49.401,57.528 L53.121,51.710 L45.263,46.691 C43.413,49.179 40.356,50.000 36.093,49.155 C36.028,48.444 35.939,47.653 35.825,46.782 C39.477,47.668 42.005,47.243 43.409,45.505 L37.959,42.023 L38.988,40.414 L44.645,44.028 C45.212,43.278 45.827,42.375 46.491,41.320 L48.311,42.483 ZM73.521,61.278 L74.903,59.116 L70.386,56.231 L69.857,57.058 L68.106,55.939 L71.856,50.076 L86.280,59.291 L82.531,65.155 L80.779,64.036 L81.309,63.208 L76.746,60.293 L75.364,62.455 L83.821,67.858 L81.306,71.790 C80.179,73.553 78.686,73.840 76.827,72.653 C75.929,72.078 75.035,71.496 74.145,70.908 C74.421,70.249 74.684,69.585 74.932,68.916 C75.811,69.606 76.649,70.207 77.448,70.718 C78.400,71.326 79.141,71.217 79.671,70.389 L81.053,68.227 L74.394,63.973 L70.041,70.779 L68.197,69.601 L72.550,62.795 L66.098,58.673 L62.878,63.709 L61.080,62.561 L65.272,56.007 L73.521,61.278 ZM82.250,61.737 L83.588,59.644 L72.666,52.666 L71.327,54.759 L82.250,61.737 ZM99.778,38.362 L101.068,36.081 L102.545,38.370 L105.124,39.023 L103.495,41.054 L103.810,43.719 L101.329,42.690 L98.932,43.704 L99.026,41.039 L97.238,38.988 L99.778,38.362 ZM73.729,11.902 L75.654,10.050 L76.500,12.511 L78.917,13.655 L76.709,15.208 L76.280,17.775 L74.077,16.280 L71.393,16.721 L72.227,14.249 L71.003,11.936 L73.729,11.902 ZM92.047,41.932 C89.192,33.235 82.399,25.965 73.052,22.856 C69.023,21.517 64.910,21.089 60.945,21.445 L57.647,19.259 C62.891,18.293 68.454,18.590 73.871,20.391 C85.084,24.121 92.924,33.373 95.348,44.106 L92.047,41.932 ZM91.961,25.182 L90.549,27.382 L89.112,25.134 L89.113,25.133 L86.481,24.435 L88.233,22.486 L87.995,19.874 L90.513,20.915 L93.008,19.975 L92.824,22.583 L94.592,24.614 L91.961,25.182 ZM54.690,10.215 L55.959,7.872 L57.517,9.956 C57.517,9.956 60.165,10.320 60.165,10.318 L58.549,12.477 L58.921,15.052 L56.366,14.284 L53.950,15.524 L53.990,12.895 L52.113,11.073 L54.690,10.215 ZM110.383,53.993 C111.596,33.372 98.931,13.679 78.369,6.841 C66.099,2.760 53.333,4.030 42.649,9.383 L40.163,7.753 C51.729,1.549 65.734,-0.085 79.196,4.393 C101.378,11.769 114.865,33.344 112.882,55.628 L110.383,53.993 ZM50.215,89.460 L48.274,91.320 L47.415,88.856 L44.978,87.692 L47.185,86.138 L47.615,83.572 L49.843,85.075 L52.551,84.641 L51.712,87.126 L52.952,89.431 L50.215,89.460 ZM54.234,79.536 C58.250,80.871 62.358,81.312 66.347,80.963 L69.637,83.132 C64.393,84.099 58.831,83.802 53.414,82.000 C42.200,78.271 34.360,69.018 31.936,58.286 L35.239,60.460 C38.092,69.156 44.885,76.427 54.234,79.536 ZM33.618,72.693 L35.066,74.945 L37.707,75.661 L35.954,77.611 L36.192,80.222 L33.665,79.164 L31.158,80.101 L31.343,77.493 L29.551,75.453 L32.206,74.893 L33.618,72.693 ZM25.829,59.795 L28.156,58.622 L28.259,61.311 L30.197,63.236 L27.707,64.042 L26.582,66.405 L24.932,64.223 L24.932,64.223 L22.297,63.741 L23.773,61.591 L23.266,58.929 L25.829,59.795 ZM70.511,91.471 L69.222,93.834 L67.651,91.746 L64.957,91.354 L66.599,89.204 L66.230,86.616 L68.809,87.393 L71.266,86.154 L71.226,88.781 L73.116,90.608 L70.511,91.471 ZM16.899,48.410 C15.684,69.031 28.349,88.725 48.912,95.562 C61.182,99.643 73.935,98.370 84.632,93.021 L87.117,94.652 C75.551,100.854 61.547,102.488 48.085,98.012 C25.901,90.634 12.414,69.061 14.399,46.776 L16.899,48.410 Z"/>
</svg>
