<?xml version="1.0" encoding="utf-8"?>
<!-- Generator: Adobe Illustrator 19.0.0, SVG Export Plug-In . SVG Version: 6.00 Build 0)  -->
<svg version="1.1" id="图层_1" xmlns="http://www.w3.org/2000/svg" xmlns:xlink="http://www.w3.org/1999/xlink" x="0px" y="0px"
	 viewBox="0 0 113.4 113.4" style="enable-background:new 0 0 113.4 113.4;" xml:space="preserve">
<style type="text/css">
	.st0{fill:#3C74AB;}
	.st1{fill:#FFFFFF;}
	.st2{fill:#D3E6F6;}
	.st3{fill:#3A1E0D;}
	.st4{fill:#FFFFFF;stroke:#182A88;stroke-miterlimit:10;}
	.st5{fill:#E8C7AD;}
	.st6{fill:none;stroke:#3C74AB;stroke-miterlimit:10;}
	.st7{opacity:0.31;}
	.st8{fill:#FFFEFE;}
	.st9{fill:#FFFDFE;}
	.st10{fill:#FEFCFD;}
	.st11{fill:#FEFCFC;}
	.st12{fill:#FEFBFA;}
	.st13{fill:#FEFAF9;}
	.st14{fill:#FEF9F8;}
	.st15{fill:#FEF8F7;}
	.st16{fill:#FEF7F6;}
	.st17{fill:#FEF5F5;}
	.st18{fill:#FEF5F4;}
	.st19{fill:#FEF5F3;}
	.st20{fill:#FEF4F2;}
	.st21{fill:#FEF3F0;}
	.st22{fill:#FDF2EF;}
	.st23{fill:#FDF0EE;}
	.st24{fill:#FCEFED;}
	.st25{fill:#FCEEEC;}
	.st26{fill:#FCEDEA;}
	.st27{fill:#FCECEA;}
	.st28{fill:#FBECE9;}
	.st29{fill:#FBEBE7;}
	.st30{fill:#FBEAE7;}
	.st31{fill:#FBE9E5;}
	.st32{fill:#FBE8E5;}
	.st33{fill:#FBE7E4;}
	.st34{fill:#FBE6E3;}
	.st35{fill:#FBE6E2;}
	.st36{fill:#FAE6E1;}
	.st37{fill:#FBE4E0;}
	.st38{fill:#FBE4DF;}
	.st39{fill:#FBE3DE;}
	.st40{fill:#FAE2DD;}
	.st41{fill:#FAE0DC;}
	.st42{fill:#FAE0DB;}
	.st43{fill:#FADEDA;}
	.st44{fill:#FADED9;}
	.st45{fill:#FADDD8;}
	.st46{fill:#F9DCD7;}
	.st47{fill:#F9DCD6;}
	.st48{fill:#FADBD5;}
	.st49{fill:#FADAD5;}
	.st50{fill:#F9D9D3;}
	.st51{fill:#F9D8D3;}
	.st52{fill:#F8D8D2;}
	.st53{fill:#F9D7D0;}
	.st54{fill:#F8D6D0;}
	.st55{fill:#F8D5CF;}
	.st56{fill:#F8D5CE;}
	.st57{fill:#F8D3CD;}
	.st58{fill:#F7D2CB;}
	.st59{fill:#F6D1CA;}
	.st60{fill:#F6D1C9;}
	.st61{fill:#F6CFC8;}
	.st62{fill:#F6CFC7;}
	.st63{fill:#F6CDC6;}
	.st64{fill:#F5CCC4;}
	.st65{fill:#F5CBC4;}
	.st66{fill:#F6CBC3;}
	.st67{fill:#F5CAC2;}
	.st68{fill:#F5CAC1;}
	.st69{fill:#F5C8C0;}
	.st70{fill:#F4C7BF;}
	.st71{fill:#F5C7BE;}
	.st72{fill:#F5C6BD;}
	.st73{fill:#F5C4BC;}
	.st74{fill:#F5C4BB;}
	.st75{fill:#F5C3BA;}
	.st76{fill:#F4C2BA;}
	.st77{fill:#F4C2B8;}
	.st78{fill:#F4C1B8;}
	.st79{fill:#F4C0B7;}
	.st80{fill:#F3BFB5;}
	.st81{fill:#F3BEB5;}
	.st82{fill:#F2BDB4;}
	.st83{fill:#F3BCB3;}
	.st84{fill:#F3BBB2;}
	.st85{fill:#F3BBB1;}
	.st86{fill:#F3BAB0;}
	.st87{fill:#F3B9AF;}
	.st88{fill:#F3B8AE;}
	.st89{fill:#F2B7AD;}
	.st90{fill:#F2B5AC;}
	.st91{fill:#F2B5AB;}
	.st92{fill:#F2B4AA;}
	.st93{fill:#F2B4A9;}
	.st94{fill:#F2B3A8;}
	.st95{fill:#F0B2A7;}
	.st96{fill:#F0B0A5;}
	.st97{fill:#F0AFA4;}
	.st98{fill:#F0AEA3;}
	.st99{fill:#F0ADA2;}
	.st100{fill:#F0ACA1;}
	.st101{fill:#EFACA0;}
	.st102{fill:#EFAB9F;}
	.st103{fill:#EFAA9E;}
	.st104{fill:#F0A99D;}
	.st105{fill:#F0A99C;}
	.st106{fill:#F0A79B;}
	.st107{fill:#EFA79B;}
	.st108{fill:#EFA599;}
	.st109{fill:#EFA498;}
	.st110{fill:#EFA497;}
	.st111{fill:#EFA396;}
	.st112{fill:#EEA294;}
	.st113{fill:#EEA193;}
	.st114{fill:#EEA092;}
	.st115{fill:#EE9F92;}
	.st116{fill:#EE9D91;}
	.st117{fill:#EE9E90;}
	.st118{fill:#EC9D8F;}
	.st119{fill:#ED9B8D;}
	.st120{fill:#ED9A8C;}
	.st121{fill:#ED998B;}
	.st122{fill:#ED988A;}
	.st123{fill:#EC9789;}
	.st124{fill:#EC9788;}
	.st125{fill:#EC9687;}
	.st126{fill:#EC9586;}
	.st127{fill:#EC9485;}
	.st128{fill:#EC9384;}
	.st129{fill:#EB9283;}
	.st130{fill:#EB9182;}
	.st131{fill:#EB9081;}
	.st132{fill:#EB9080;}
	.st133{fill:#EB8F7F;}
	.st134{fill:#EA8E7E;}
	.st135{fill:#EA8D7D;}
	.st136{fill:#EA8C7C;}
	.st137{fill:#EA8B7B;}
	.st138{fill:#EA8A7A;}
	.st139{fill:#EB8979;}
	.st140{fill:#EA8877;}
	.st141{fill:#E98877;}
	.st142{fill:#E98675;}
	.st143{fill:#EA8674;}
	.st144{fill:#E98573;}
	.st145{fill:#E98472;}
	.st146{fill:#E98271;}
	.st147{fill:#E88170;}
	.st148{fill:#E8806F;}
	.st149{fill:#E8806E;}
	.st150{fill:#E87F6D;}
	.st151{fill:#E77E6C;}
	.st152{fill:#E77D6B;}
	.st153{fill:#E77C6A;}
	.st154{fill:#E67B69;}
	.st155{fill:#E67B68;}
	.st156{fill:#E67A67;}
	.st157{fill:#E67A66;}
	.st158{fill:#E67965;}
	.st159{fill:#E67864;}
	.st160{fill:#E57763;}
	.st161{fill:#E57562;}
	.st162{fill:#E57461;}
	.st163{fill:#E57360;}
	.st164{fill:#E5735F;}
	.st165{fill:#E5735E;}
	.st166{fill:#E4725D;}
	.st167{fill:#E4715C;}
	.st168{fill:#E5705B;}
	.st169{fill:#E56F5A;}
	.st170{fill:#E46D59;}
	.st171{fill:#E56C58;}
	.st172{fill:#E46B58;}
	.st173{fill:#E46A57;}
	.st174{fill:#E46A56;}
	.st175{fill:#E46A55;}
	.st176{fill:#E56954;}
	.st177{fill:#E56852;}
	.st178{fill:#E36752;}
	.st179{fill:#E46650;}
	.st180{fill:#E4654F;}
	.st181{fill:#E3634E;}
	.st182{fill:#E3634D;}
	.st183{fill:#E3624C;}
	.st184{fill:#E2614B;}
	.st185{fill:#E2604A;}
	.st186{fill:#E25F49;}
	.st187{fill:#E25E48;}
	.st188{fill:#E25D47;}
	.st189{fill:#E15D46;}
	.st190{fill:#E05D45;}
	.st191{fill:#E05C44;}
	.st192{fill:#E05B43;}
	.st193{fill:#E05A42;}
	.st194{fill:#E05941;}
	.st195{fill:#E05840;}
	.st196{fill:#DF573F;}
	.st197{fill:#DF563E;}
	.st198{fill:#DF563D;}
	.st199{fill:#DF553C;}
	.st200{fill:#E0543B;}
	.st201{fill:#E0533A;}
	.st202{fill:#DF5239;}
	.st203{fill:#DF5138;}
	.st204{fill:#DF5038;}
	.st205{fill:#DF4F36;}
	.st206{fill:#DF4E36;}
	.st207{fill:#DF4D35;}
	.st208{fill:#DE4D34;}
	.st209{fill:#DE4C33;}
	.st210{fill:#DE4B32;}
	.st211{fill:#DE4A31;}
	.st212{fill:#DE4930;}
	.st213{fill:#DE482F;}
	.st214{fill:#DD472E;}
	.st215{fill:#DD472D;}
	.st216{fill:#DC462B;}
	.st217{fill:#DC452A;}
	.st218{fill:#DC4429;}
	.st219{fill:#DD4428;}
	.st220{fill:#DC4327;}
	.st221{fill:#DC4226;}
	.st222{fill:#DB4125;}
	.st223{fill:#DB4124;}
	.st224{fill:#DC4023;}
	.st225{fill:#DC3E21;}
	.st226{fill:#DB3D21;}
	.st227{fill:#DB3C1F;}
	.st228{fill:#DB3B1D;}
	.st229{fill:#DB3A1C;}
	.st230{fill:#DB3A1B;}
	.st231{fill:#DA391A;}
	.st232{fill:#DA3919;}
	.st233{fill:#DA3818;}
	.st234{fill:#DA3618;}
	.st235{fill:#EDEDEC;}
	.st236{fill:#D4D4D1;}
	.st237{fill:#504F4D;}
	.st238{fill:#6B6A67;}
	.st239{fill:#BB2024;}
	.st240{fill:#D61A1B;}
	.st241{fill:#E5E5E2;}
	.st242{fill:#245C96;}
	.st243{fill:#F9FDFF;}
</style>
<g id="XMLID_1403_">
	<path id="XMLID_1408_" class="st0" d="M76.1,12.1c0-0.1,0.1-0.3,0.4-0.4c0.5-0.2,1.4,0.2,2.6,1.1v-0.1c0.1,0,8.9,3.7,10.7,3.5
		c1.4-0.2,4-0.8,6.1-3.7C97.8,9.9,99.4,9,99.5,9l0.4-0.2l-0.2,0.5c-0.6,1.4-1.3,3.1-1.1,3.4c0.2,0.4,1.5,2.3,2.2,3.3l0.1,0.2
		l-0.2,0.1c0,0-4.3,1.2-6.6,1.6l-1.5,0.4c-1.9,0.5-4,1-6.2-0.2c-1.4-0.8-2.6-1.4-3.3-1.7l5.8,5.2c0.1,0.1,3.3,2.6,6.9,0
		c3.8-2.6,9-4.4,9.1-4.4l0.5-0.2l-0.3,0.4c-0.5,0.7-1.1,1.7-1.1,2c0,0.4,0.8,2.4,1,3.1l0.1,0.2h-0.2c-0.1,0-7.5,1.5-9.3,2.6
		c-1.1,0.6-5.1,2.5-7.4-0.3c-1.9-2.3-7.5-8.3-7.6-8.3L76.1,12.1L76.1,12.1z"/>
	<path id="XMLID_1407_" class="st1" d="M80.6,14.2L80.6,14.2L80.6,14.2c-0.4-0.3-0.7-0.6-0.9-0.8c2.2,0.9,8.6,3.4,10.1,3.3
		c1.4-0.2,4.1-0.9,6.3-3.8c1.3-1.7,2.4-2.7,3-3.1c-0.4,0.9-1,2.5-0.9,3v0.1c0.1,0.2,0.4,0.7,0.8,1.3c-1.4,0.5-8.7,2.9-10.4,3.1
		C87.2,17.4,82.5,15.1,80.6,14.2z"/>
	<path id="XMLID_1406_" class="st2" d="M94,17.5l-1.6,0.4c-1.9,0.5-3.9,1-5.9-0.2c-2.3-1.3-3.8-1.9-4.2-2l-1.6-1.5
		c1.9,1,6.6,3.2,8.1,3.1c1.7-0.2,9-2.6,10.4-3.1c0.5,0.7,1,1.5,1.3,1.8C99.4,16.2,96,17.1,94,17.5z"/>
	<path id="XMLID_1405_" class="st2" d="M76.6,12c0.1,0,0.1,0,0.2,0c1,0.9,7.5,6.9,9.5,8.9c2.2,2.1,3.5,4.9,6,3.6
		c2.2-1.2,10-4,11.4-4.5c0.2,0.7,0.7,2,0.9,2.5c-1.2,0.2-7.5,1.6-9.2,2.6c-1.1,0.6-4.8,2.4-6.9-0.2c-1.9-2.3-7.5-8.3-7.6-8.3
		c0,0-4.2-4.2-4.3-4.3C76.5,12.1,76.5,12.1,76.6,12z"/>
	<path id="XMLID_1404_" class="st1" d="M86.3,20.9c-2-2-8.5-7.9-9.5-8.9c0.5,0,1.5,0.5,3.5,2.4l1.7,1.5l0,0c0,0,0,0,0.1,0l6.5,5.8
		c0,0,3.5,2.7,7.3,0.1c3.1-2.1,7.1-3.7,8.5-4.2c-0.4,0.6-0.9,1.5-0.9,1.8c0,0.1,0.1,0.3,0.1,0.5c-1.4,0.5-9.2,3.3-11.4,4.5
		C89.9,25.8,88.5,23,86.3,20.9z"/>
</g>
<circle id="XMLID_1400_" class="st3" cx="73.2" cy="7.9" r="7.5"/>
<path id="XMLID_1399_" class="st4" d="M56.1,112.9h-7.3C27,112.9,9.2,95.1,9.2,73.3V47.6C9.2,25.8,27,7.9,48.9,7.9h7.3
	c21.8,0,39.7,17.9,39.7,39.7v25.6C95.8,95.1,78,112.9,56.1,112.9z"/>
<path id="XMLID_1396_" class="st5" d="M52,56.2c-24.7,0-39.7,19.3-39.7,0v-7.5c0-19.3,15.8-35.1,35.1-35.1h9.2
	c19.3,0,35.1,15.8,35.1,35.1v7.5C91.7,75.5,76.7,56.2,52,56.2z"/>
<path id="XMLID_1393_" class="st6" d="M56.1,112.9h-7.3C27,112.9,9.2,95.1,9.2,73.3V47.6C9.2,25.8,27,7.9,48.9,7.9h7.3
	c21.8,0,39.7,17.9,39.7,39.7v25.6C95.8,95.1,78,112.9,56.1,112.9z"/>
<path id="XMLID_1392_" class="st1" d="M65.9,6c0,0,9.5,6,13.6,6c-1,1.5-1,1.3-1,1.3s-5.9-1.6-12.8-5.7C65.8,6,65.9,6,65.9,6z"/>
<g id="XMLID_463_" class="st7">
	<ellipse id="XMLID_1249_" class="st1" cx="53.5" cy="69.7" rx="29.3" ry="18.2"/>
	<ellipse id="XMLID_1248_" class="st1" cx="53.5" cy="69.7" rx="29.2" ry="18.2"/>
	<ellipse id="XMLID_1247_" class="st8" cx="53.5" cy="69.7" rx="29.1" ry="18.1"/>
	<ellipse id="XMLID_1246_" class="st9" cx="53.5" cy="69.7" rx="29" ry="18"/>
	<ellipse id="XMLID_1245_" class="st10" cx="53.5" cy="69.7" rx="28.9" ry="18"/>
	<ellipse id="XMLID_1244_" class="st11" cx="53.5" cy="69.7" rx="28.8" ry="17.9"/>
	<ellipse id="XMLID_1243_" class="st12" cx="53.5" cy="69.7" rx="28.7" ry="17.8"/>
	<ellipse id="XMLID_1242_" class="st13" cx="53.5" cy="69.7" rx="28.6" ry="17.8"/>
	<ellipse id="XMLID_1241_" class="st14" cx="53.5" cy="69.7" rx="28.5" ry="17.7"/>
	<ellipse id="XMLID_1240_" class="st15" cx="53.5" cy="69.7" rx="28.4" ry="17.6"/>
	<ellipse id="XMLID_1239_" class="st16" cx="53.5" cy="69.7" rx="28.2" ry="17.6"/>
	<ellipse id="XMLID_1238_" class="st17" cx="53.5" cy="69.7" rx="28.1" ry="17.5"/>
	<ellipse id="XMLID_1237_" class="st18" cx="53.5" cy="69.7" rx="28" ry="17.4"/>
	<ellipse id="XMLID_1236_" class="st19" cx="53.5" cy="69.7" rx="27.9" ry="17.4"/>
	<ellipse id="XMLID_1235_" class="st20" cx="53.5" cy="69.7" rx="27.8" ry="17.3"/>
	<ellipse id="XMLID_1234_" class="st21" cx="53.5" cy="69.7" rx="27.7" ry="17.2"/>
	<ellipse id="XMLID_1233_" class="st22" cx="53.5" cy="69.7" rx="27.6" ry="17.2"/>
	<ellipse id="XMLID_1232_" class="st23" cx="53.5" cy="69.7" rx="27.5" ry="17.1"/>
	<ellipse id="XMLID_1231_" class="st24" cx="53.5" cy="69.7" rx="27.4" ry="17"/>
	<ellipse id="XMLID_1230_" class="st25" cx="53.5" cy="69.7" rx="27.3" ry="17"/>
	<ellipse id="XMLID_1229_" class="st26" cx="53.5" cy="69.7" rx="27.2" ry="16.9"/>
	<ellipse id="XMLID_1228_" class="st27" cx="53.5" cy="69.7" rx="27.1" ry="16.8"/>
	<ellipse id="XMLID_1227_" class="st28" cx="53.5" cy="69.7" rx="27" ry="16.8"/>
	<ellipse id="XMLID_1226_" class="st29" cx="53.5" cy="69.7" rx="26.9" ry="16.7"/>
	<ellipse id="XMLID_1225_" class="st30" cx="53.5" cy="69.7" rx="26.7" ry="16.6"/>
	<ellipse id="XMLID_1224_" class="st31" cx="53.5" cy="69.7" rx="26.6" ry="16.6"/>
	<ellipse id="XMLID_1223_" class="st32" cx="53.5" cy="69.7" rx="26.5" ry="16.5"/>
	<ellipse id="XMLID_1222_" class="st33" cx="53.5" cy="69.7" rx="26.4" ry="16.4"/>
	<ellipse id="XMLID_1221_" class="st34" cx="53.5" cy="69.7" rx="26.3" ry="16.4"/>
	<ellipse id="XMLID_1220_" class="st35" cx="53.5" cy="69.7" rx="26.2" ry="16.3"/>
	<ellipse id="XMLID_1219_" class="st36" cx="53.5" cy="69.7" rx="26.1" ry="16.2"/>
	<ellipse id="XMLID_1218_" class="st37" cx="53.5" cy="69.7" rx="26" ry="16.2"/>
	<ellipse id="XMLID_1217_" class="st38" cx="53.5" cy="69.7" rx="25.9" ry="16.1"/>
	<ellipse id="XMLID_1216_" class="st39" cx="53.5" cy="69.7" rx="25.8" ry="16"/>
	<ellipse id="XMLID_1215_" class="st40" cx="53.5" cy="69.7" rx="25.7" ry="16"/>
	<ellipse id="XMLID_1214_" class="st41" cx="53.5" cy="69.7" rx="25.6" ry="15.9"/>
	<ellipse id="XMLID_1213_" class="st42" cx="53.5" cy="69.7" rx="25.5" ry="15.8"/>
	<ellipse id="XMLID_1212_" class="st43" cx="53.5" cy="69.7" rx="25.4" ry="15.8"/>
	<ellipse id="XMLID_1211_" class="st44" cx="53.5" cy="69.7" rx="25.2" ry="15.7"/>
	<ellipse id="XMLID_1210_" class="st45" cx="53.5" cy="69.7" rx="25.1" ry="15.6"/>
	<ellipse id="XMLID_1209_" class="st46" cx="53.5" cy="69.7" rx="25" ry="15.6"/>
	<ellipse id="XMLID_1208_" class="st47" cx="53.5" cy="69.7" rx="24.9" ry="15.5"/>
	<ellipse id="XMLID_1207_" class="st48" cx="53.5" cy="69.7" rx="24.8" ry="15.4"/>
	<ellipse id="XMLID_1206_" class="st49" cx="53.5" cy="69.7" rx="24.7" ry="15.4"/>
	<ellipse id="XMLID_1205_" class="st50" cx="53.5" cy="69.7" rx="24.6" ry="15.3"/>
	<ellipse id="XMLID_1204_" class="st51" cx="53.5" cy="69.7" rx="24.5" ry="15.2"/>
	<ellipse id="XMLID_1203_" class="st52" cx="53.5" cy="69.7" rx="24.4" ry="15.2"/>
	<ellipse id="XMLID_1202_" class="st53" cx="53.5" cy="69.7" rx="24.3" ry="15.1"/>
	<ellipse id="XMLID_1201_" class="st54" cx="53.5" cy="69.7" rx="24.2" ry="15"/>
	<ellipse id="XMLID_1200_" class="st55" cx="53.5" cy="69.7" rx="24.1" ry="15"/>
	<ellipse id="XMLID_1199_" class="st56" cx="53.5" cy="69.7" rx="24" ry="14.9"/>
	<ellipse id="XMLID_1198_" class="st57" cx="53.5" cy="69.7" rx="23.8" ry="14.8"/>
	<ellipse id="XMLID_1197_" class="st58" cx="53.5" cy="69.7" rx="23.7" ry="14.8"/>
	<ellipse id="XMLID_1196_" class="st59" cx="53.5" cy="69.7" rx="23.6" ry="14.7"/>
	<ellipse id="XMLID_1195_" class="st60" cx="53.5" cy="69.7" rx="23.5" ry="14.6"/>
	<ellipse id="XMLID_1194_" class="st61" cx="53.5" cy="69.7" rx="23.4" ry="14.6"/>
	<ellipse id="XMLID_1193_" class="st62" cx="53.5" cy="69.7" rx="23.3" ry="14.5"/>
	<ellipse id="XMLID_1192_" class="st63" cx="53.5" cy="69.7" rx="23.2" ry="14.4"/>
	<ellipse id="XMLID_1191_" class="st64" cx="53.5" cy="69.7" rx="23.1" ry="14.4"/>
	<ellipse id="XMLID_1190_" class="st65" cx="53.5" cy="69.7" rx="23" ry="14.3"/>
	<ellipse id="XMLID_1189_" class="st66" cx="53.5" cy="69.7" rx="22.9" ry="14.2"/>
	<ellipse id="XMLID_1188_" class="st67" cx="53.5" cy="69.7" rx="22.8" ry="14.2"/>
	<ellipse id="XMLID_1187_" class="st68" cx="53.5" cy="69.7" rx="22.7" ry="14.1"/>
	<ellipse id="XMLID_1186_" class="st69" cx="53.5" cy="69.7" rx="22.6" ry="14"/>
	<ellipse id="XMLID_1185_" class="st70" cx="53.5" cy="69.7" rx="22.5" ry="14"/>
	<ellipse id="XMLID_1184_" class="st71" cx="53.5" cy="69.7" rx="22.3" ry="13.9"/>
	<ellipse id="XMLID_1183_" class="st72" cx="53.5" cy="69.7" rx="22.2" ry="13.8"/>
	<ellipse id="XMLID_1182_" class="st73" cx="53.5" cy="69.7" rx="22.1" ry="13.8"/>
	<ellipse id="XMLID_1181_" class="st74" cx="53.5" cy="69.7" rx="22" ry="13.7"/>
	<ellipse id="XMLID_1180_" class="st75" cx="53.5" cy="69.7" rx="21.9" ry="13.6"/>
	<ellipse id="XMLID_1179_" class="st76" cx="53.5" cy="69.7" rx="21.8" ry="13.6"/>
	<ellipse id="XMLID_1178_" class="st77" cx="53.5" cy="69.7" rx="21.7" ry="13.5"/>
	<ellipse id="XMLID_1177_" class="st78" cx="53.5" cy="69.7" rx="21.6" ry="13.4"/>
	<ellipse id="XMLID_1176_" class="st79" cx="53.5" cy="69.7" rx="21.5" ry="13.4"/>
	<ellipse id="XMLID_1175_" class="st80" cx="53.5" cy="69.7" rx="21.4" ry="13.3"/>
	<ellipse id="XMLID_1174_" class="st81" cx="53.5" cy="69.7" rx="21.3" ry="13.2"/>
	<ellipse id="XMLID_1173_" class="st82" cx="53.5" cy="69.7" rx="21.2" ry="13.2"/>
	<ellipse id="XMLID_1172_" class="st83" cx="53.5" cy="69.7" rx="21.1" ry="13.1"/>
	<ellipse id="XMLID_1171_" class="st84" cx="53.5" cy="69.7" rx="21" ry="13"/>
	<ellipse id="XMLID_1170_" class="st85" cx="53.5" cy="69.7" rx="20.8" ry="13"/>
	<ellipse id="XMLID_1169_" class="st86" cx="53.5" cy="69.7" rx="20.7" ry="12.9"/>
	<ellipse id="XMLID_1168_" class="st87" cx="53.5" cy="69.7" rx="20.6" ry="12.8"/>
	<ellipse id="XMLID_1167_" class="st88" cx="53.5" cy="69.7" rx="20.5" ry="12.8"/>
	<ellipse id="XMLID_1166_" class="st89" cx="53.5" cy="69.7" rx="20.4" ry="12.7"/>
	<ellipse id="XMLID_1165_" class="st90" cx="53.5" cy="69.7" rx="20.3" ry="12.6"/>
	<ellipse id="XMLID_1164_" class="st91" cx="53.5" cy="69.7" rx="20.2" ry="12.6"/>
	<ellipse id="XMLID_1163_" class="st92" cx="53.5" cy="69.7" rx="20.1" ry="12.5"/>
	<ellipse id="XMLID_1162_" class="st93" cx="53.5" cy="69.7" rx="20" ry="12.4"/>
	<ellipse id="XMLID_1161_" class="st94" cx="53.5" cy="69.7" rx="19.9" ry="12.4"/>
	<ellipse id="XMLID_1160_" class="st95" cx="53.5" cy="69.7" rx="19.8" ry="12.3"/>
	<ellipse id="XMLID_1159_" class="st96" cx="53.5" cy="69.7" rx="19.7" ry="12.2"/>
	<ellipse id="XMLID_1158_" class="st97" cx="53.5" cy="69.7" rx="19.6" ry="12.2"/>
	<ellipse id="XMLID_1157_" class="st98" cx="53.5" cy="69.7" rx="19.4" ry="12.1"/>
	<ellipse id="XMLID_1156_" class="st99" cx="53.5" cy="69.7" rx="19.3" ry="12"/>
	<ellipse id="XMLID_1155_" class="st100" cx="53.5" cy="69.7" rx="19.2" ry="12"/>
	<ellipse id="XMLID_1154_" class="st101" cx="53.5" cy="69.7" rx="19.1" ry="11.9"/>
	<ellipse id="XMLID_1153_" class="st102" cx="53.5" cy="69.7" rx="19" ry="11.8"/>
	<ellipse id="XMLID_1152_" class="st103" cx="53.5" cy="69.7" rx="18.9" ry="11.8"/>
	<ellipse id="XMLID_1151_" class="st104" cx="53.5" cy="69.7" rx="18.8" ry="11.7"/>
	<ellipse id="XMLID_1150_" class="st105" cx="53.5" cy="69.7" rx="18.7" ry="11.6"/>
	<ellipse id="XMLID_1149_" class="st106" cx="53.5" cy="69.7" rx="18.6" ry="11.6"/>
	<ellipse id="XMLID_1148_" class="st107" cx="53.5" cy="69.7" rx="18.5" ry="11.5"/>
	<ellipse id="XMLID_1147_" class="st108" cx="53.5" cy="69.7" rx="18.4" ry="11.4"/>
	<ellipse id="XMLID_1146_" class="st109" cx="53.5" cy="69.7" rx="18.3" ry="11.4"/>
	<ellipse id="XMLID_1145_" class="st109" cx="53.5" cy="69.7" rx="18.2" ry="11.3"/>
	<ellipse id="XMLID_1144_" class="st110" cx="53.5" cy="69.7" rx="18.1" ry="11.2"/>
	<ellipse id="XMLID_1143_" class="st111" cx="53.5" cy="69.7" rx="17.9" ry="11.2"/>
	<ellipse id="XMLID_1142_" class="st112" cx="53.5" cy="69.7" rx="17.8" ry="11.1"/>
	<ellipse id="XMLID_1141_" class="st113" cx="53.5" cy="69.7" rx="17.7" ry="11"/>
	<ellipse id="XMLID_1140_" class="st114" cx="53.5" cy="69.7" rx="17.6" ry="11"/>
	<ellipse id="XMLID_1139_" class="st115" cx="53.5" cy="69.7" rx="17.5" ry="10.9"/>
	<ellipse id="XMLID_1138_" class="st116" cx="53.5" cy="69.7" rx="17.4" ry="10.8"/>
	<ellipse id="XMLID_1137_" class="st117" cx="53.5" cy="69.7" rx="17.3" ry="10.8"/>
	<ellipse id="XMLID_1136_" class="st118" cx="53.5" cy="69.7" rx="17.2" ry="10.7"/>
	<ellipse id="XMLID_1135_" class="st119" cx="53.5" cy="69.7" rx="17.1" ry="10.6"/>
	<ellipse id="XMLID_1134_" class="st119" cx="53.5" cy="69.7" rx="17" ry="10.6"/>
	<ellipse id="XMLID_1133_" class="st120" cx="53.5" cy="69.7" rx="16.9" ry="10.5"/>
	<ellipse id="XMLID_1132_" class="st121" cx="53.5" cy="69.7" rx="16.8" ry="10.4"/>
	<ellipse id="XMLID_1131_" class="st122" cx="53.5" cy="69.7" rx="16.7" ry="10.4"/>
	<ellipse id="XMLID_1130_" class="st123" cx="53.5" cy="69.7" rx="16.6" ry="10.3"/>
	<ellipse id="XMLID_1129_" class="st124" cx="53.5" cy="69.7" rx="16.4" ry="10.2"/>
	<ellipse id="XMLID_1128_" class="st125" cx="53.5" cy="69.7" rx="16.3" ry="10.2"/>
	<ellipse id="XMLID_1127_" class="st126" cx="53.5" cy="69.7" rx="16.2" ry="10.1"/>
	<ellipse id="XMLID_1126_" class="st127" cx="53.5" cy="69.7" rx="16.1" ry="10"/>
	<ellipse id="XMLID_1125_" class="st128" cx="53.5" cy="69.7" rx="16" ry="10"/>
	<ellipse id="XMLID_1124_" class="st129" cx="53.5" cy="69.7" rx="15.9" ry="9.9"/>
	<ellipse id="XMLID_1123_" class="st130" cx="53.5" cy="69.7" rx="15.8" ry="9.8"/>
	<ellipse id="XMLID_1122_" class="st131" cx="53.5" cy="69.7" rx="15.7" ry="9.8"/>
	<ellipse id="XMLID_1121_" class="st132" cx="53.5" cy="69.7" rx="15.6" ry="9.7"/>
	<ellipse id="XMLID_1120_" class="st133" cx="53.5" cy="69.7" rx="15.5" ry="9.6"/>
	<ellipse id="XMLID_1119_" class="st134" cx="53.5" cy="69.7" rx="15.4" ry="9.6"/>
	<ellipse id="XMLID_1118_" class="st135" cx="53.5" cy="69.7" rx="15.3" ry="9.5"/>
	<ellipse id="XMLID_1117_" class="st136" cx="53.5" cy="69.7" rx="15.2" ry="9.4"/>
	<ellipse id="XMLID_1116_" class="st137" cx="53.5" cy="69.7" rx="15" ry="9.4"/>
	<ellipse id="XMLID_1115_" class="st138" cx="53.5" cy="69.7" rx="14.9" ry="9.3"/>
	<ellipse id="XMLID_1114_" class="st139" cx="53.5" cy="69.7" rx="14.8" ry="9.2"/>
	<ellipse id="XMLID_1113_" class="st140" cx="53.5" cy="69.7" rx="14.7" ry="9.2"/>
	<ellipse id="XMLID_1112_" class="st141" cx="53.5" cy="69.7" rx="14.6" ry="9.1"/>
	<ellipse id="XMLID_1111_" class="st142" cx="53.5" cy="69.7" rx="14.5" ry="9"/>
	<ellipse id="XMLID_1110_" class="st143" cx="53.5" cy="69.7" rx="14.4" ry="9"/>
	<ellipse id="XMLID_1109_" class="st144" cx="53.5" cy="69.7" rx="14.3" ry="8.9"/>
	<ellipse id="XMLID_1108_" class="st145" cx="53.5" cy="69.7" rx="14.2" ry="8.8"/>
	<ellipse id="XMLID_1107_" class="st146" cx="53.5" cy="69.7" rx="14.1" ry="8.8"/>
	<ellipse id="XMLID_1106_" class="st147" cx="53.5" cy="69.7" rx="14" ry="8.7"/>
	<ellipse id="XMLID_1105_" class="st148" cx="53.5" cy="69.7" rx="13.9" ry="8.6"/>
	<ellipse id="XMLID_1104_" class="st149" cx="53.5" cy="69.7" rx="13.8" ry="8.6"/>
	<ellipse id="XMLID_1103_" class="st150" cx="53.5" cy="69.7" rx="13.7" ry="8.5"/>
	<ellipse id="XMLID_1102_" class="st151" cx="53.5" cy="69.7" rx="13.5" ry="8.4"/>
	<ellipse id="XMLID_1101_" class="st152" cx="53.5" cy="69.7" rx="13.4" ry="8.4"/>
	<ellipse id="XMLID_1100_" class="st153" cx="53.5" cy="69.7" rx="13.3" ry="8.3"/>
	<ellipse id="XMLID_1099_" class="st154" cx="53.5" cy="69.7" rx="13.2" ry="8.2"/>
	<ellipse id="XMLID_1098_" class="st155" cx="53.5" cy="69.7" rx="13.1" ry="8.2"/>
	<ellipse id="XMLID_1097_" class="st156" cx="53.5" cy="69.7" rx="13" ry="8.1"/>
	<ellipse id="XMLID_1096_" class="st157" cx="53.5" cy="69.7" rx="12.9" ry="8"/>
	<ellipse id="XMLID_1095_" class="st158" cx="53.5" cy="69.7" rx="12.8" ry="8"/>
	<ellipse id="XMLID_1094_" class="st159" cx="53.5" cy="69.7" rx="12.7" ry="7.9"/>
	<ellipse id="XMLID_1093_" class="st160" cx="53.5" cy="69.7" rx="12.6" ry="7.8"/>
	<ellipse id="XMLID_1092_" class="st161" cx="53.5" cy="69.7" rx="12.5" ry="7.8"/>
	<ellipse id="XMLID_1091_" class="st162" cx="53.5" cy="69.7" rx="12.4" ry="7.7"/>
	<ellipse id="XMLID_1090_" class="st163" cx="53.5" cy="69.7" rx="12.3" ry="7.6"/>
	<ellipse id="XMLID_1089_" class="st164" cx="53.5" cy="69.7" rx="12.2" ry="7.6"/>
	<ellipse id="XMLID_1088_" class="st165" cx="53.5" cy="69.7" rx="12" ry="7.5"/>
	<ellipse id="XMLID_1087_" class="st166" cx="53.5" cy="69.7" rx="11.9" ry="7.4"/>
	<ellipse id="XMLID_1086_" class="st167" cx="53.5" cy="69.7" rx="11.8" ry="7.4"/>
	<ellipse id="XMLID_1085_" class="st168" cx="53.5" cy="69.7" rx="11.7" ry="7.3"/>
	<ellipse id="XMLID_1084_" class="st169" cx="53.5" cy="69.7" rx="11.6" ry="7.2"/>
	<ellipse id="XMLID_1083_" class="st170" cx="53.5" cy="69.7" rx="11.5" ry="7.2"/>
	<ellipse id="XMLID_1082_" class="st171" cx="53.5" cy="69.7" rx="11.4" ry="7.1"/>
	<ellipse id="XMLID_1081_" class="st172" cx="53.5" cy="69.7" rx="11.3" ry="7"/>
	<ellipse id="XMLID_1080_" class="st173" cx="53.5" cy="69.7" rx="11.2" ry="7"/>
	<ellipse id="XMLID_1079_" class="st174" cx="53.5" cy="69.7" rx="11.1" ry="6.9"/>
	<ellipse id="XMLID_1078_" class="st175" cx="53.5" cy="69.7" rx="11" ry="6.8"/>
	<ellipse id="XMLID_1077_" class="st176" cx="53.5" cy="69.7" rx="10.9" ry="6.8"/>
	<ellipse id="XMLID_1076_" class="st177" cx="53.5" cy="69.7" rx="10.8" ry="6.7"/>
	<ellipse id="XMLID_1075_" class="st178" cx="53.5" cy="69.7" rx="10.6" ry="6.6"/>
	<ellipse id="XMLID_1074_" class="st179" cx="53.5" cy="69.7" rx="10.5" ry="6.6"/>
	<ellipse id="XMLID_1073_" class="st180" cx="53.5" cy="69.7" rx="10.4" ry="6.5"/>
	<ellipse id="XMLID_1072_" class="st181" cx="53.5" cy="69.7" rx="10.3" ry="6.4"/>
	<ellipse id="XMLID_1071_" class="st182" cx="53.5" cy="69.7" rx="10.2" ry="6.4"/>
	<ellipse id="XMLID_1000_" class="st183" cx="53.5" cy="69.7" rx="10.1" ry="6.3"/>
	<ellipse id="XMLID_999_" class="st184" cx="53.5" cy="69.7" rx="10" ry="6.2"/>
	<ellipse id="XMLID_998_" class="st185" cx="53.5" cy="69.7" rx="9.9" ry="6.2"/>
	<ellipse id="XMLID_997_" class="st186" cx="53.5" cy="69.7" rx="9.8" ry="6.1"/>
	<ellipse id="XMLID_996_" class="st187" cx="53.5" cy="69.7" rx="9.7" ry="6"/>
	<ellipse id="XMLID_995_" class="st188" cx="53.5" cy="69.7" rx="9.6" ry="6"/>
	<ellipse id="XMLID_994_" class="st189" cx="53.5" cy="69.7" rx="9.5" ry="5.9"/>
	<ellipse id="XMLID_993_" class="st190" cx="53.5" cy="69.7" rx="9.4" ry="5.8"/>
	<ellipse id="XMLID_989_" class="st191" cx="53.5" cy="69.7" rx="9.3" ry="5.8"/>
	<ellipse id="XMLID_988_" class="st192" cx="53.5" cy="69.7" rx="9.1" ry="5.7"/>
	<ellipse id="XMLID_985_" class="st193" cx="53.5" cy="69.7" rx="9" ry="5.6"/>
	<ellipse id="XMLID_984_" class="st194" cx="53.5" cy="69.7" rx="8.9" ry="5.6"/>
	<ellipse id="XMLID_981_" class="st195" cx="53.5" cy="69.7" rx="8.8" ry="5.5"/>
	<ellipse id="XMLID_979_" class="st196" cx="53.5" cy="69.7" rx="8.7" ry="5.4"/>
	<ellipse id="XMLID_964_" class="st197" cx="53.5" cy="69.7" rx="8.6" ry="5.4"/>
	<ellipse id="XMLID_963_" class="st198" cx="53.5" cy="69.7" rx="8.5" ry="5.3"/>
	<ellipse id="XMLID_962_" class="st199" cx="53.5" cy="69.7" rx="8.4" ry="5.2"/>
	<ellipse id="XMLID_959_" class="st200" cx="53.5" cy="69.7" rx="8.3" ry="5.2"/>
	<ellipse id="XMLID_958_" class="st201" cx="53.5" cy="69.7" rx="8.2" ry="5.1"/>
	<ellipse id="XMLID_957_" class="st202" cx="53.5" cy="69.7" rx="8.1" ry="5"/>
	<ellipse id="XMLID_956_" class="st203" cx="53.5" cy="69.7" rx="8" ry="5"/>
	<ellipse id="XMLID_955_" class="st204" cx="53.5" cy="69.7" rx="7.9" ry="4.9"/>
	<ellipse id="XMLID_954_" class="st205" cx="53.5" cy="69.7" rx="7.8" ry="4.8"/>
	<ellipse id="XMLID_953_" class="st206" cx="53.5" cy="69.7" rx="7.6" ry="4.8"/>
	<ellipse id="XMLID_952_" class="st207" cx="53.5" cy="69.7" rx="7.5" ry="4.7"/>
	<ellipse id="XMLID_951_" class="st208" cx="53.5" cy="69.7" rx="7.4" ry="4.6"/>
	<ellipse id="XMLID_950_" class="st209" cx="53.5" cy="69.7" rx="7.3" ry="4.6"/>
	<ellipse id="XMLID_949_" class="st210" cx="53.5" cy="69.7" rx="7.2" ry="4.5"/>
	<ellipse id="XMLID_948_" class="st211" cx="53.5" cy="69.7" rx="7.1" ry="4.4"/>
	<ellipse id="XMLID_947_" class="st212" cx="53.5" cy="69.7" rx="7" ry="4.4"/>
	<ellipse id="XMLID_946_" class="st213" cx="53.5" cy="69.7" rx="6.9" ry="4.3"/>
	<ellipse id="XMLID_945_" class="st214" cx="53.5" cy="69.7" rx="6.8" ry="4.2"/>
	<ellipse id="XMLID_944_" class="st215" cx="53.5" cy="69.7" rx="6.7" ry="4.2"/>
	<ellipse id="XMLID_943_" class="st216" cx="53.5" cy="69.7" rx="6.6" ry="4.1"/>
	<ellipse id="XMLID_942_" class="st217" cx="53.5" cy="69.7" rx="6.5" ry="4"/>
	<ellipse id="XMLID_941_" class="st218" cx="53.5" cy="69.7" rx="6.4" ry="4"/>
	<ellipse id="XMLID_940_" class="st219" cx="53.5" cy="69.7" rx="6.2" ry="3.9"/>
	<ellipse id="XMLID_939_" class="st220" cx="53.5" cy="69.7" rx="6.1" ry="3.8"/>
	<ellipse id="XMLID_936_" class="st221" cx="53.5" cy="69.7" rx="6" ry="3.8"/>
	<ellipse id="XMLID_935_" class="st222" cx="53.5" cy="69.7" rx="5.9" ry="3.7"/>
	<ellipse id="XMLID_933_" class="st223" cx="53.5" cy="69.7" rx="5.8" ry="3.6"/>
	<ellipse id="XMLID_932_" class="st224" cx="53.5" cy="69.7" rx="5.7" ry="3.6"/>
	<ellipse id="XMLID_930_" class="st225" cx="53.5" cy="69.7" rx="5.6" ry="3.5"/>
	<ellipse id="XMLID_929_" class="st226" cx="53.5" cy="69.7" rx="5.5" ry="3.4"/>
	<ellipse id="XMLID_928_" class="st227" cx="53.5" cy="69.7" rx="5.4" ry="3.4"/>
	<ellipse id="XMLID_921_" class="st227" cx="53.5" cy="69.7" rx="5.3" ry="3.3"/>
	<ellipse id="XMLID_914_" class="st228" cx="53.5" cy="69.7" rx="5.2" ry="3.2"/>
	<ellipse id="XMLID_910_" class="st229" cx="53.5" cy="69.7" rx="5.1" ry="3.2"/>
	<ellipse id="XMLID_909_" class="st230" cx="53.5" cy="69.7" rx="5" ry="3.1"/>
	<ellipse id="XMLID_625_" class="st231" cx="53.5" cy="69.7" rx="4.9" ry="3"/>
	<ellipse id="XMLID_624_" class="st232" cx="53.5" cy="69.7" rx="4.7" ry="3"/>
	<ellipse id="XMLID_465_" class="st233" cx="53.5" cy="69.7" rx="4.6" ry="2.9"/>
	<ellipse id="XMLID_464_" class="st234" cx="53.5" cy="69.7" rx="4.5" ry="2.8"/>
</g>
<g id="XMLID_1368_">
	<path id="XMLID_1391_" class="st235" d="M96.5,54.2L66.7,71.4c-5.3,3.1-11.9,5.8-15.1,6.7c-0.8,0.2-1.6,0.5-2.3,0.7
		c-0.3,0.1-0.6,0.2-0.8,0.3c-0.4,0.2-0.8,0.3-1.2,0.5c-0.2,0.1-0.5,0.2-0.7,0.3c-0.2-0.4-0.5-0.8-0.6-1.2v-0.1l0,0
		c-0.1-0.2-0.2-0.5-0.2-0.7c-0.2-0.7-0.3-1.3-0.3-1.9c0-1,0.2-1.8,0.7-2.5c0.6-0.5,1.3-1.1,1.9-1.7c2.4-2.4,8-6.6,13.3-9.7
		l29.9-17.2c0.8-0.5,1.8-0.7,2.7-0.7c1.6,0,3.2,0.7,4.2,2.1c0.2,0.2,0.3,0.4,0.4,0.6C99.9,49.4,99.1,52.7,96.5,54.2z"/>
	<path id="XMLID_1390_" class="st236" d="M96.5,54.2L66.7,71.4c-5.3,3.1-11.9,5.8-15.1,6.7c-0.8,0.2-1.6,0.5-2.3,0.7
		c-0.3,0.1-0.6,0.2-0.8,0.3c-0.4,0.2-0.8,0.3-1.2,0.5c-0.2,0.1-0.5,0.2-0.7,0.3c-0.2-0.4-0.5-0.8-0.6-1.2v-0.1l0,0
		c0.1,0,0.2-0.1,0.2-0.1h0.1l0,0c1.1-0.5,2.8-1.2,4.6-1.6c3.2-0.9,9.8-3.6,15.1-6.7l29.9-17.3c2.3-1.3,3.2-4.2,2.3-6.6
		c0.2,0.2,0.3,0.4,0.4,0.6C99.9,49.4,99.1,52.7,96.5,54.2z"/>
	<g id="XMLID_1388_">
		
			<rect id="XMLID_1389_" x="86.8" y="47.7" transform="matrix(-0.5001 -0.866 0.866 -0.5001 90.531 148.968)" class="st237" width="3" height="1.3"/>
	</g>
	<g id="XMLID_1386_">
		
			<rect id="XMLID_1387_" x="81.1" y="50.9" transform="matrix(-0.5001 -0.866 0.866 -0.5001 79.3651 148.8325)" class="st237" width="3" height="1.3"/>
	</g>
	<g id="XMLID_1384_">
		
			<rect id="XMLID_1385_" x="75.5" y="54.2" transform="matrix(-0.5001 -0.866 0.866 -0.5001 68.026 148.8715)" class="st237" width="3" height="1.3"/>
	</g>
	<g id="XMLID_1382_">
		
			<rect id="XMLID_1383_" x="69.9" y="57.4" transform="matrix(-0.5001 -0.866 0.866 -0.5001 56.8637 148.9115)" class="st237" width="3" height="1.3"/>
	</g>
	<g id="XMLID_1380_">
		
			<rect id="XMLID_1381_" x="64.3" y="60.7" transform="matrix(-0.5001 -0.866 0.866 -0.5001 45.5266 148.9505)" class="st237" width="3" height="1.3"/>
	</g>
	<g id="XMLID_1378_">
		
			<rect id="XMLID_1379_" x="58.7" y="63.9" transform="matrix(-0.5001 -0.866 0.866 -0.5001 34.3597 148.9876)" class="st237" width="3" height="1.3"/>
	</g>
	<g id="XMLID_1376_">
		<path id="XMLID_1377_" class="st1" d="M86.6,55.1l5.8-3.3c0.6-0.3,0.8-1.1,0.5-1.7c-0.3-0.6-1.1-0.8-1.7-0.5L85.4,53L86.6,55.1z"
			/>
	</g>
	<g id="XMLID_1374_">
		<path id="XMLID_1375_" class="st238" d="M98.5,46.9L98.5,46.9c-1.5-2.6-4.7-3.4-7.3-2l5.3,9.3C99.1,52.7,99.9,49.4,98.5,46.9z"/>
	</g>
	<path id="XMLID_1373_" class="st237" d="M98.5,46.9L98.5,46.9c-0.1-0.2-0.3-0.4-0.4-0.6c1,2.4,0.1,5.3-2.3,6.6l0.7,1.3
		C99.1,52.7,99.9,49.4,98.5,46.9z"/>
	<path id="XMLID_1372_" class="st235" d="M98.4,48.1L98.4,48.1c0.3,0.5,0.5,1,0.6,1.6c-0.1-0.7-0.3-1.5-0.7-2.2l0,0
		c-1.3-2.3-4.1-3.2-6.4-2.3C94.4,44.7,97,45.8,98.4,48.1z"/>
	<path id="XMLID_1371_" class="st235" d="M97.7,50.8c0.1,0,0.2,0,0.4-0.1c0.4-0.2,0.5-0.7,0.3-1.1c-0.2-0.3-0.5-0.4-0.8-0.4
		C97.8,49.7,97.9,50.3,97.7,50.8z"/>
	<path id="XMLID_1370_" class="st239" d="M87.8,54.5l-41.5,24l0,0h-0.1L46,78.6l0,0c-0.1-0.2-0.2-0.5-0.2-0.7
		c-0.2-0.7-0.3-1.3-0.3-1.9l41.1-23.7c0.5-0.3,1.1-0.2,1.5,0.2l0.1,0.1c0,0,0,0,0.1,0.1l0.1,0.1C88.6,53.4,88.4,54.1,87.8,54.5z"/>
	<path id="XMLID_1369_" class="st240" d="M87.8,54.5l-41.5,24l0,0h-0.1L46,78.6l0,0c-0.1-0.2-0.2-0.5-0.2-0.7l41.7-24.1
		c0.5-0.3,0.7-0.8,0.6-1.4l0.1,0.1c0,0,0,0,0.1,0.1l0.1,0.1C88.6,53.4,88.4,54.1,87.8,54.5z"/>
</g>
<g id="XMLID_1365_">
	<path id="XMLID_1367_" class="st1" d="M83.9,42.9c0,0,3.5,2,1,3.6c-2.4,1.5-2.1,0.6-2.5,2.1s-0.6,3.2-2.3,2.9s-1-1.7-2.1-0.2
		s-1.9,3.1-3.1,2.3c-1.2-0.7-1.8-0.7-2.3-0.3c-0.6,0.5-1.4,0.9-1.6-0.6c-0.1-1.5,0.1-2-0.3-2.2c-0.3-0.2-1.3-1.4-0.5-2.7
		S82,41.5,82,40.9C81.9,40.4,84.3,41.5,83.9,42.9z"/>
	<path id="XMLID_1366_" class="st1" d="M26.6,42.3c0,0-3.2,0.6-2.6,2c0.1,0.3,0.1,1.5,0.5,2.5c0.4,0.8,1.2,1.1,2,1.9
		c1,1,1.5,2.4,2.5,3c1.5,0.9,3,1,3.2,0.7c0.7-0.8,3.6,0.4,4.3,0c1.6-0.9,0.2-1.6,0.9-2.3s-1.2-1-1.4-1.6S26.6,42.3,26.6,42.3z"/>
</g>
<g id="XMLID_1351_">
	<g id="XMLID_1352_">
		<ellipse id="XMLID_1362_" class="st3" cx="34.9" cy="39.1" rx="12" ry="11.5"/>
		<ellipse id="XMLID_1361_" class="st1" cx="32.5" cy="35.5" rx="6.5" ry="5.4"/>
		<circle id="XMLID_1360_" class="st1" cx="31.3" cy="45.5" r="2.5"/>
		<circle id="XMLID_1359_" class="st1" cx="40.2" cy="43" r="3.3"/>
		<circle id="XMLID_1356_" class="st3" cx="72.3" cy="39.1" r="11.9"/>
		<ellipse id="XMLID_1355_" class="st1" cx="74.8" cy="35.6" rx="6.7" ry="5.5"/>
		<ellipse id="XMLID_1354_" class="st1" cx="67.3" cy="43.2" rx="3.7" ry="3.2"/>
		<ellipse id="XMLID_1353_" class="st1" cx="75.8" cy="45" rx="2.7" ry="2.2"/>
	</g>
</g>
<g id="XMLID_1344_">
	<g id="XMLID_1349_">
		<path id="XMLID_1350_" class="st237" d="M48.7,54.7c-0.1,0-0.1,0-0.2,0c-0.2-0.1-0.3-0.3-0.2-0.5l2.6-4.9c0.1-0.2,0.3-0.3,0.5-0.2
			s0.3,0.3,0.2,0.5L49,54.5C48.9,54.7,48.8,54.7,48.7,54.7z"/>
	</g>
	<g id="XMLID_1347_">
		<path id="XMLID_1348_" class="st237" d="M52.3,54c-0.1,0-0.1,0-0.2,0c-0.2-0.1-0.3-0.3-0.2-0.5l2-3.7c0.1-0.2,0.3-0.3,0.5-0.2
			s0.3,0.3,0.2,0.5l-2,3.7C52.5,54,52.4,54,52.3,54z"/>
	</g>
	<g id="XMLID_1345_">
		<path id="XMLID_1346_" class="st237" d="M55.2,54.6c-0.1,0-0.1,0-0.2,0c-0.2-0.1-0.3-0.3-0.2-0.5c0.7-1.5,1.4-3,2.1-4.5
			c0.1-0.2,0.3-0.3,0.5-0.2s0.3,0.3,0.2,0.5c-0.7,1.5-1.4,3-2.1,4.5C55.5,54.6,55.4,54.6,55.2,54.6z"/>
	</g>
</g>
<g id="XMLID_1327_">
	<g id="XMLID_1340_">
		<path id="XMLID_1343_" class="st235" d="M24.6,18.8c0,0-6,12.4,0,12.4C30.6,31.2,24.6,18.8,24.6,18.8z"/>
		<path id="XMLID_1342_" class="st241" d="M25,19.5c1.3,4.5,2.6,11.1-1.4,11.1c-0.3,0-0.6-0.1-0.9-0.1c0.4,0.5,1,0.8,1.9,0.8
			C29.8,31.2,26.1,22.1,25,19.5z"/>
		<path id="XMLID_1341_" class="st1" d="M23.4,24.1c0,0-1.2,4.5,0,5.8C24.6,31.2,23.4,24.1,23.4,24.1z"/>
	</g>
	<g id="XMLID_1336_">
		<path id="XMLID_1339_" class="st235" d="M58.1,19.2c0,0-6,12.4,0,12.4C64.2,31.6,58.1,19.2,58.1,19.2z"/>
		<path id="XMLID_1338_" class="st241" d="M58.5,19.9c1.3,4.5,2.6,11.1-1.4,11.1c-0.3,0-0.6-0.1-0.9-0.1c0.4,0.5,1,0.8,1.9,0.8
			C63.3,31.6,59.6,22.5,58.5,19.9z"/>
		<path id="XMLID_1337_" class="st1" d="M56.9,24.5c0,0-1.2,4.5,0,5.8C58.1,31.6,56.9,24.5,56.9,24.5z"/>
	</g>
	<g id="XMLID_1332_">
		<path id="XMLID_1335_" class="st235" d="M38.7,12.2c0,0-4.9,10,0,10S38.7,12.2,38.7,12.2z"/>
		<path id="XMLID_1334_" class="st241" d="M39,12.8c1.1,3.6,2.1,9-1.1,9c-0.3,0-0.5,0-0.7-0.1c0.3,0.4,0.8,0.6,1.6,0.6
			C42.9,22.2,39.9,14.9,39,12.8z"/>
		<path id="XMLID_1333_" class="st1" d="M37.7,16.5c0,0-1,3.7,0,4.7S37.7,16.5,37.7,16.5z"/>
	</g>
	<g id="XMLID_1328_">
		<path id="XMLID_1331_" class="st235" d="M80.7,18.3c0,0-4.9,10,0,10C85.6,28.4,80.7,18.3,80.7,18.3z"/>
		<path id="XMLID_1330_" class="st241" d="M81,18.9c1.1,3.6,2.1,9-1.1,9c-0.3,0-0.5,0-0.7-0.1c0.3,0.4,0.8,0.6,1.6,0.6
			C84.9,28.4,81.9,21,81,18.9z"/>
		<path id="XMLID_1329_" class="st1" d="M79.7,22.6c0,0-1,3.7,0,4.7C80.7,28.4,79.7,22.6,79.7,22.6z"/>
	</g>
</g>
<path id="XMLID_1324_" class="st0" d="M56.2,112.5h-7.3c-21.8,0-39.7-17.9-39.7-39.7v-9.6l41.7,8.1l45-7.5v9
	C95.8,94.6,78,112.5,56.2,112.5z"/>
<g id="XMLID_1322_">
	<path id="XMLID_1323_" class="st242" d="M50,73.8c-9.5,0-40-7.9-41.4-8.3v-4.2c0.3,0.1,33.3,8.5,41.6,8.2l0.1,4.2
		C50.3,73.8,50.2,73.8,50,73.8z"/>
</g>
<g id="XMLID_1320_">
	<path id="XMLID_1321_" class="st242" d="M11.1,78.5c-0.8,0-1.6,0.1-2.1,0l-0.3-4.2c8.5,1,61.6-7.6,87.8-12.2v4.3
		C93.4,66.8,27.1,78.5,11.1,78.5z"/>
</g>
<g id="XMLID_444_">
	<g id="XMLID_937_">
		<path id="XMLID_938_" class="st243" d="M54.6,95.4c-15.1,0-29-1.8-42.8-6.5l-1.5-4.2c28.1,9.5,69.3,8,84.3,0.2L93,89.1
			C84.8,93.4,71.4,95.4,54.6,95.4z"/>
	</g>
</g>
</svg>
