<svg 
 xmlns="http://www.w3.org/2000/svg"
 xmlns:xlink="http://www.w3.org/1999/xlink"
 width="59px" height="54px">
<path fill-rule="evenodd"  fill="#CF9155"
 d="M7.811,54.000 C5.892,54.000 4.356,53.440 3.244,52.337 C0.857,49.884 0.918,45.217 0.996,39.310 L0.998,39.185 C0.998,38.520 1.017,37.865 1.037,37.171 C1.058,36.471 1.079,35.746 1.079,35.003 C1.079,30.383 3.738,23.598 7.854,17.716 C9.880,14.822 12.094,12.384 14.258,10.666 C16.552,8.844 18.744,7.882 20.596,7.882 C22.701,7.882 24.347,8.987 25.628,11.260 L26.812,13.362 L26.812,3.231 C26.812,2.392 27.192,1.512 27.829,0.872 C28.477,0.299 29.274,0.005 30.199,-0.001 C31.831,0.148 33.154,1.593 33.154,3.231 L33.154,13.176 L34.336,11.102 C35.615,8.859 37.309,7.721 39.370,7.721 C41.222,7.721 43.414,8.684 45.708,10.505 C47.872,12.224 50.086,14.661 52.112,17.556 C56.228,23.437 58.887,30.222 58.887,34.842 C58.887,36.190 58.887,37.584 58.968,38.887 L58.976,39.480 C59.054,45.239 59.116,49.788 56.651,52.166 L56.644,52.172 C55.582,53.229 54.162,53.765 52.424,53.765 C52.317,53.765 52.208,53.762 52.099,53.758 L52.074,53.758 C48.104,53.758 42.839,51.526 38.661,48.072 C36.457,46.249 34.626,44.147 33.367,41.991 C31.971,39.601 31.263,37.168 31.263,34.761 C31.263,31.617 31.263,27.704 31.504,24.024 L31.505,24.004 L31.505,23.983 C31.505,23.624 31.393,23.129 31.077,22.815 L31.033,22.771 L30.981,22.737 C30.679,22.536 30.390,22.438 30.097,22.438 C29.963,22.438 29.830,22.460 29.702,22.502 L29.561,22.549 L28.998,23.109 C28.511,23.494 28.278,24.097 28.384,24.705 C28.623,28.293 28.623,32.056 28.623,35.083 C28.623,37.470 27.915,39.887 26.519,42.265 C25.259,44.411 23.428,46.506 21.224,48.323 C17.042,51.771 11.777,54.000 7.811,54.000 ZM20.596,9.842 C17.110,9.842 12.578,14.445 9.500,18.753 C5.462,24.405 3.052,30.479 3.052,35.003 C3.052,36.417 3.052,37.880 2.972,39.228 L2.971,39.242 L2.969,39.360 C2.884,44.799 2.816,49.096 4.602,50.959 L4.612,50.970 C5.113,51.468 5.920,52.038 7.730,52.038 C11.016,52.038 15.759,50.045 19.532,47.077 C22.160,45.010 26.569,40.692 26.569,35.003 C26.569,32.020 26.569,28.308 26.325,24.749 C26.255,23.472 26.752,22.313 27.724,21.484 L27.945,21.296 L27.945,21.187 L27.995,21.137 C28.515,20.654 29.222,20.388 29.988,20.388 C30.805,20.388 31.624,20.697 32.234,21.236 L32.249,21.248 C33.008,21.878 33.470,23.025 33.398,24.102 C33.154,27.662 33.154,31.553 33.154,34.680 C33.154,40.370 37.563,44.688 40.191,46.756 C43.958,49.719 48.692,51.711 51.978,51.717 C52.092,51.723 52.205,51.725 52.314,51.725 C53.951,51.725 54.700,51.126 55.103,50.804 L55.167,50.753 L55.192,50.729 C57.069,48.863 57.002,44.490 56.916,38.954 L56.914,38.858 C56.914,38.216 56.894,37.544 56.875,36.894 C56.854,36.221 56.834,35.526 56.834,34.842 C56.834,30.318 54.423,24.244 50.385,18.593 C47.307,14.285 42.775,9.682 39.289,9.682 C37.985,9.682 36.868,10.475 35.968,12.039 C35.162,13.441 34.704,15.173 34.461,16.379 L34.459,16.391 C34.353,16.969 33.859,17.456 33.257,17.576 C33.163,17.595 33.065,17.604 32.967,17.604 C32.462,17.604 32.000,17.366 31.728,16.965 C31.317,16.312 31.101,15.735 31.101,15.297 L31.101,3.231 C31.101,2.554 30.578,1.960 29.983,1.960 C29.671,1.960 29.345,2.092 29.131,2.305 C28.847,2.586 28.703,2.899 28.703,3.231 L28.703,15.698 C28.703,16.341 28.561,16.838 28.255,17.264 L28.234,17.293 L28.217,17.324 C27.956,17.789 27.524,18.056 27.030,18.056 C26.984,18.056 26.937,18.054 26.890,18.050 C26.201,17.987 25.656,17.568 25.495,16.981 L25.490,16.964 L25.415,16.739 C24.086,10.558 22.029,9.842 20.596,9.842 Z"/>
</svg>
