<?xml version="1.0" encoding="utf-8"?>
<!-- Generator: Adobe Illustrator 19.0.0, SVG Export Plug-In . SVG Version: 6.00 Build 0)  -->
<svg version="1.1" id="图层_1" xmlns="http://www.w3.org/2000/svg" xmlns:xlink="http://www.w3.org/1999/xlink" x="0px" y="0px"
	 viewBox="0 0 113.4 113.4" style="enable-background:new 0 0 113.4 113.4;" xml:space="preserve">
<style type="text/css">
	.st0{fill:#FFFFFF;stroke:#3C74AB;stroke-miterlimit:10;}
	.st1{fill:#FFFFFF;}
	.st2{fill:#3C74AB;}
	.st3{fill:none;}
	.st4{fill:#D3E6F6;}
	.st5{fill:#3A1E0D;}
	.st6{fill:#FFFFFF;stroke:#182A88;stroke-miterlimit:10;}
	.st7{fill:#E8C7AD;}
	.st8{fill:none;stroke:#3C74AB;stroke-miterlimit:10;}
	.st9{fill:#F9FDFF;}
	.st10{fill:#245C96;}
</style>
<g id="XMLID_444_">
	
		<ellipse id="XMLID_1108_" transform="matrix(0.4446 -0.8957 0.8957 0.4446 -31.8148 134.8302)" class="st0" cx="92.8" cy="93.1" rx="6.1" ry="9.1"/>
	
		<ellipse id="XMLID_1104_" transform="matrix(0.6355 -0.7721 0.7721 0.6355 -41.7701 100.4245)" class="st0" cx="85.5" cy="94.5" rx="2.8" ry="4.6"/>
	
		<ellipse id="XMLID_1100_" transform="matrix(-0.5935 0.8048 -0.8048 -0.5935 157.0426 104.9714)" class="st0" cx="52" cy="92.1" rx="9.5" ry="2.8"/>
	<path id="XMLID_1096_" class="st0" d="M66.6,95.4c2.9,4.4,24.3,2.6,20-1.6c-2.6-2.5-12.5,3-15.3-1.4c-2.9-4.4-6.2-7.3-7.5-6.5
		S63.7,91,66.6,95.4z"/>
	
		<ellipse id="XMLID_1092_" transform="matrix(0.6355 -0.7721 0.7721 0.6355 -56.9054 71.4115)" class="st0" cx="47.2" cy="96" rx="2.8" ry="4.6"/>
	<g id="XMLID_1087_">
		
			<ellipse id="XMLID_1091_" transform="matrix(-0.3221 -0.9467 0.9467 -0.3221 -25.0654 102.0581)" class="st1" cx="24" cy="60" rx="3.3" ry="13.6"/>
		<path id="XMLID_1088_" class="st2" d="M35.2,58.6c-0.4,0.3-0.8,0.6-1.2,0.8c-2.3,1.4-5.4,2.9-8.9,4c-6.4,2.2-13.6,3.3-14.4,1
			c-0.8-2.2,5.6-5.8,12-7.9c3.5-1.2,6.8-2,9.5-2.2c2-0.2,4.4-0.1,4.9,1.2l0,0C37.6,56.5,36.5,57.6,35.2,58.6z M13.3,62
			c-1.3,1-1.9,1.8-1.7,2.3c0.4,1.1,5.7,1.1,13.4-1.5c3.4-1.2,6.5-2.6,8.7-4c2.4-1.5,3-2.6,2.9-3l0,0c-0.2-0.5-1.3-0.9-4.1-0.7
			c-2.6,0.2-5.9,1-9.3,2.2C18.5,58.8,15.2,60.6,13.3,62z"/>
	</g>
	<g id="XMLID_1076_">
		<g id="XMLID_1082_">
			<path id="XMLID_1086_" class="st1" d="M17.5,54.9c2.8-4.1,6.5,2.4,6,5.4c-0.9,8.3-9.7,3.3-6.3-3.7"/>
			<g id="XMLID_1083_">
				<path id="XMLID_1085_" class="st3" d="M17.5,54.9c2.8-4.1,6.5,2.4,6,5.4c-0.9,8.3-9.7,3.3-6.3-3.7"/>
				<path id="XMLID_1084_" class="st2" d="M18.1,55.1c0.8-1.1,1.8-1.7,2.9-0.6c0.8,0.8,1.3,1.9,1.7,2.9c0.7,1.9,0.4,4.1-0.7,5.7
					c-1.2,1.8-3.2,1.1-4.2-0.4c-1.2-1.8-0.9-4.1,0-6c0.1-0.3-0.9-0.7-1.1-0.4c-1.2,2.5-1.2,5.7,1.2,7.5c1.6,1.3,3.8,1.5,5.2-0.3
					c1.9-2.5,1-6-0.6-8.3c-1.4-2-3.9-2.7-5.5-0.5C16.8,54.9,17.8,55.4,18.1,55.1L18.1,55.1z"/>
			</g>
		</g>
		<g id="XMLID_1077_">
			<path id="XMLID_1081_" class="st1" d="M1,58.7c2.4-6,10-11.3,15.9-6.5c4.2,3.3,4.8,7.3,2.1,11.7c-2.7,4-7.1,7.4-11.9,5.2
				C2.6,67.2-0.9,63.6,1,58.7z"/>
			<g id="XMLID_1078_">
				<path id="XMLID_1080_" class="st3" d="M1,58.7c2.4-6,10-11.3,15.9-6.5c4.2,3.3,4.8,7.3,2.1,11.7c-2.7,4-7.1,7.4-11.9,5.2
					C2.6,67.2-0.9,63.6,1,58.7z"/>
				<path id="XMLID_1079_" class="st2" d="M1.6,58.9c1.5-3.4,4.1-6.1,7.5-7.6c5.3-2.3,11.3,2.4,11.1,7.9c-0.1,4.1-4.1,8.1-7.7,9.7
					C6.4,71.5-0.4,64.7,1.6,58.9c0.1-0.4-0.9-0.8-1.1-0.4c-1.8,5.3,2.4,10,7.5,11.3c6.1,1.5,11.8-3.7,13.1-9.5
					c1.1-5-3.8-9.5-8.3-10.3c-5.4-0.8-10.3,4-12.3,8.5C0.3,58.9,1.4,59.3,1.6,58.9z"/>
			</g>
		</g>
	</g>
	<g id="XMLID_996_">
		
			<ellipse id="XMLID_1075_" transform="matrix(0.7197 -0.6943 0.6943 0.7197 -17.1263 81.217)" class="st1" cx="92" cy="61.8" rx="3.2" ry="13.3"/>
		<path id="XMLID_997_" class="st2" d="M97.9,71.2c-0.4-0.2-0.8-0.5-1.2-0.7c-2.2-1.4-4.8-3.6-7.3-6.2c-4.6-4.8-8.6-10.7-6.9-12.3
			s7.4,2.6,12,7.3c2.5,2.6,4.6,5.2,5.9,7.5c1,1.7,2,3.9,1,4.8l0,0C100.7,72.4,99.3,71.9,97.9,71.2z M85.7,53.1
			c-1.4-0.7-2.4-0.9-2.7-0.6c-0.9,0.8,1.4,5.5,6.9,11.3c2.4,2.5,5,4.7,7.1,6c2.3,1.5,3.5,1.6,3.9,1.3l0,0c0.4-0.4,0.3-1.6-1.1-3.9
			c-1.3-2.2-3.3-4.8-5.8-7.3C90.7,56.4,87.8,54.2,85.7,53.1z"/>
	</g>
	<g id="XMLID_957_">
		<g id="XMLID_984_">
			<path id="XMLID_995_" class="st1" d="M104.2,61.7c1.9-4.6-5.6-4.1-7.8-2c-6.4,5.4,2.7,9.9,6.6,3.2"/>
			<g id="XMLID_985_">
				<path id="XMLID_994_" class="st3" d="M104.2,61.7c1.9-4.6-5.6-4.1-7.8-2c-6.4,5.4,2.7,9.9,6.6,3.2"/>
				<path id="XMLID_988_" class="st2" d="M103.8,61.3c0.5-1.3,0.4-2.4-1.1-2.7c-1.1-0.2-2.3-0.1-3.4,0.2c-1.9,0.5-3.6,1.9-4.3,3.8
					c-0.8,2,0.8,3.3,2.7,3.3c2.2,0,3.9-1.6,5-3.3c0.2-0.3,1.1,0.4,0.9,0.7c-1.4,2.3-4,4.1-6.8,3.2c-2-0.6-3.4-2.3-2.7-4.5
					c1-2.9,4.4-4.2,7.3-4.2c2.5,0.1,4.4,1.7,3.5,4.2C104.6,62.2,103.6,61.7,103.8,61.3L103.8,61.3z"/>
			</g>
		</g>
		<g id="XMLID_958_">
			<path id="XMLID_981_" class="st1" d="M110.4,77.4c3.6-5.4,3.8-14.6-3.5-16.9c-5.1-1.6-8.8,0.1-10.9,4.8c-1.8,4.4-2.2,10,2.3,12.8
				C102.4,80.9,107.4,81.9,110.4,77.4z"/>
			<g id="XMLID_959_">
				<path id="XMLID_979_" class="st3" d="M110.4,77.4c3.6-5.4,3.8-14.6-3.5-16.9c-5.1-1.6-8.8,0.1-10.9,4.8
					c-1.8,4.4-2.2,10,2.3,12.8C102.4,80.9,107.4,81.9,110.4,77.4z"/>
				<path id="XMLID_962_" class="st2" d="M109.9,77.1c2-3.2,2.8-6.8,2.1-10.5c-1.1-5.7-8.3-8-12.8-4.7c-3.4,2.4-4.4,8-3.7,11.8
					C96.7,80.1,106.2,82,109.9,77.1c0.3-0.4,1.2,0.3,0.9,0.7c-3.4,4.5-9.6,3.6-13.6,0.1c-4.7-4.2-3.5-11.9,0.5-16.2
					c3.5-3.7,10-2.2,13.2,1.1c3.8,4,2.5,10.7-0.1,14.9C110.6,78.2,109.6,77.5,109.9,77.1z"/>
			</g>
		</g>
	</g>
	<g id="XMLID_949_">
		<path id="XMLID_954_" class="st2" d="M76.7,16.9c0-0.1,0.1-0.2,0.3-0.3c0.4-0.1,1,0.2,1.9,0.8v-0.1c0.1,0,6.7,2.8,8,2.6
			c1-0.1,3-0.6,4.6-2.8c1.4-1.9,2.6-2.6,2.7-2.6l0.3-0.2l-0.2,0.3c-0.5,1.1-0.9,2.3-0.8,2.5c0.1,0.3,1.1,1.7,1.7,2.5l0.1,0.1h-0.2
			c0,0-3.2,0.9-5,1.2L89,21.4c-1.4,0.4-3,0.8-4.6-0.2c-1.1-0.6-1.9-1-2.5-1.3l4.3,3.9c0.1,0.1,2.5,1.9,5.2,0c2.8-2,6.7-3.3,6.8-3.3
			l0.4-0.1l-0.2,0.3c-0.4,0.5-0.8,1.3-0.8,1.5c0,0.3,0.6,1.8,0.8,2.3l0.1,0.1h-0.1c-0.1,0-5.6,1.1-7,1.9c-0.9,0.5-3.8,1.9-5.5-0.2
			c-1.4-1.7-5.6-6.2-5.6-6.2L76.7,16.9L76.7,16.9z"/>
		<path id="XMLID_953_" class="st1" d="M80.1,18.4L80.1,18.4L80.1,18.4c-0.3-0.2-0.5-0.4-0.7-0.6c1.6,0.7,6.4,2.6,7.6,2.4
			c1.1-0.1,3.1-0.6,4.7-2.9c1-1.3,1.8-2,2.2-2.3c-0.3,0.7-0.7,1.8-0.7,2.3v0.1c0.1,0.1,0.3,0.5,0.6,1c-1.1,0.4-6.5,2.2-7.8,2.3
			C85.1,20.8,81.6,19.1,80.1,18.4z"/>
		<path id="XMLID_952_" class="st4" d="M90.1,20.9L89,21.2c-1.4,0.4-2.9,0.8-4.4-0.1c-1.7-1-2.8-1.4-3.1-1.5l-1.2-1.1
			c1.4,0.7,4.9,2.4,6,2.3c1.3-0.1,6.7-2,7.8-2.3c0.4,0.5,0.8,1.1,0.9,1.4C94.2,20,91.6,20.6,90.1,20.9z"/>
		<path id="XMLID_951_" class="st4" d="M77.1,16.8c0,0,0.1,0,0.2,0c0.8,0.7,5.6,5.2,7.1,6.6c1.6,1.6,2.7,3.6,4.4,2.7
			c1.6-0.9,7.5-3,8.5-3.4c0.2,0.6,0.5,1.5,0.6,1.9c-0.9,0.2-5.6,1.2-6.9,1.9c-0.8,0.5-3.6,1.8-5.2-0.1c-1.5-1.7-5.6-6.2-5.7-6.2
			c0,0-3.1-3.1-3.2-3.3C77,16.9,77.1,16.8,77.1,16.8z"/>
		<path id="XMLID_950_" class="st1" d="M84.4,23.5c-1.5-1.5-6.3-5.9-7.1-6.6c0.3,0,1.1,0.3,2.6,1.8l1.3,1.1l0,0c0,0,0,0,0.1,0
			l4.8,4.4c0,0,2.6,2,5.5,0c2.3-1.6,5.3-2.8,6.4-3.2c-0.3,0.4-0.7,1.1-0.6,1.4c0,0.1,0,0.2,0.1,0.4c-1,0.4-6.9,2.5-8.5,3.4
			C87.1,27.1,86,25.1,84.4,23.5z"/>
	</g>
	<circle id="XMLID_946_" class="st5" cx="74.6" cy="13.8" r="5.6"/>
	<path id="XMLID_945_" class="st6" d="M61.8,92.3h-5.4c-16.3,0-29.7-13.4-29.7-29.7V43.5c0-16.3,13.4-29.7,29.7-29.7h5.4
		c16.3,0,29.7,13.4,29.7,29.7v19.2C91.5,78.9,78.1,92.3,61.8,92.3z"/>
	<path id="XMLID_942_" class="st7" d="M58.7,49.8c-18.5,0-29.7,14.4-29.7,0v-5.6C29.1,29.8,40.9,18,55.3,18h6.9
		c14.4,0,26.2,11.8,26.2,26.2v5.6C88.4,64.3,77.2,49.8,58.7,49.8z"/>
	<path id="XMLID_939_" class="st8" d="M61.8,92.3h-5.4c-16.3,0-29.7-13.4-29.7-29.7V43.5c0-16.3,13.4-29.7,29.7-29.7h5.4
		c16.3,0,29.7,13.4,29.7,29.7v19.2C91.5,78.9,78.1,92.3,61.8,92.3z"/>
	<g id="XMLID_923_">
		<g id="XMLID_924_">
			<ellipse id="XMLID_936_" class="st5" cx="46" cy="37.1" rx="9" ry="8.6"/>
			<ellipse id="XMLID_935_" class="st1" cx="44.1" cy="34.4" rx="4.9" ry="4.1"/>
			<circle id="XMLID_934_" class="st1" cx="43.2" cy="41.9" r="1.9"/>
			<circle id="XMLID_933_" class="st1" cx="49.9" cy="40" r="2.5"/>
			<circle id="XMLID_929_" class="st5" cx="73.9" cy="37.1" r="8.9"/>
			<ellipse id="XMLID_928_" class="st1" cx="75.8" cy="34.4" rx="5" ry="4.1"/>
			<ellipse id="XMLID_927_" class="st1" cx="70.2" cy="40.2" rx="2.8" ry="2.4"/>
			<ellipse id="XMLID_926_" class="st1" cx="76.6" cy="41.5" rx="2" ry="1.7"/>
		</g>
	</g>
	<path id="XMLID_922_" class="st1" d="M69.1,12.3c0,0,7.1,4.5,10.2,4.5c-0.8,1.1-0.8,1-0.8,1s-4.4-1.2-9.6-4.2
		C69.1,12.4,69.1,12.3,69.1,12.3z"/>
	<path id="XMLID_919_" class="st2" d="M61.8,92h-5.4c-16.3,0-29.7-13.4-29.7-29.7v-7.2l31.2,6l33.6-5.6v6.8
		C91.5,78.6,78.2,92,61.8,92z"/>
	<g id="XMLID_914_">
		<g id="XMLID_1117_">
			<path id="XMLID_1118_" class="st9" d="M60.7,79.2c-11.3,0-21.7-1.4-32-4.8l-1.1-3.2c21,7.1,51.9,6,63.1,0.2l-1.2,3.1
				C83.3,77.7,73.3,79.2,60.7,79.2z"/>
		</g>
	</g>
	<g id="XMLID_912_">
		<path id="XMLID_913_" class="st10" d="M57.2,63c-7.1,0-29.9-5.9-30.9-6.2v-3.1c0.2,0.1,24.9,6.4,31.1,6.2l0.1,3.2
			C57.5,63,57.4,63,57.2,63z"/>
	</g>
	<g id="XMLID_910_">
		<path id="XMLID_911_" class="st10" d="M28.1,66.5c-0.6,0-1.2,0-1.6,0l-0.2-3.1c6.3,0.7,46-5.7,65.6-9.2v3.2
			C89.7,57.8,40.1,66.5,28.1,66.5z"/>
	</g>
	<g id="XMLID_462_">
		<g id="XMLID_1125_">
			<path id="XMLID_1127_" class="st0" d="M17,77.5c0,0,8.2-8.9,22.4,2s8.9,21.5,5.3,23.9C34.9,110.2-0.4,96.5,17,77.5z"/>
			<path id="XMLID_1126_" class="st8" d="M15.1,79.9c0,0,14.4-5.2,25.2,16.1"/>
		</g>
	</g>
</g>
</svg>
