<?xml version="1.0" encoding="utf-8"?>
<!-- Generator: Adobe Illustrator 19.0.0, SVG Export Plug-In . SVG Version: 6.00 Build 0)  -->
<svg version="1.1" id="图层_1" xmlns="http://www.w3.org/2000/svg" xmlns:xlink="http://www.w3.org/1999/xlink" x="0px" y="0px"
	 viewBox="54 -55 221.4 221.4" style="enable-background:new 54 -55 221.4 221.4;" xml:space="preserve">
<style type="text/css">
	.st0{fill:#E3BD9A;}
	.st1{fill:#245C96;}
	.st2{fill:#FFFFFF;}
	.st3{fill:#3C74AB;}
	.st4{fill:#D3E6F6;}
	.st5{fill:#3A1E0D;}
	.st6{fill:#FFFFFF;stroke:#182A88;stroke-miterlimit:10;}
	.st7{fill:#E8C7AD;}
	.st8{fill:none;stroke:#3C74AB;stroke-miterlimit:10;}
	.st9{fill:#F9FDFF;}
</style>
<g id="XMLID_432_">
	<g id="XMLID_439_">
		<path id="XMLID_501_" class="st0" d="M208.3,30.8h16.3c1.8,0,3.4-1.5,3.4-3.4c0-1.8-1.5-3.4-3.4-3.4h-24.2l0,0h-11
			c-1.7,0-3.3-1.5-3.3-3.3c0-1.7,1.5-3.3,3.3-3.3h4.6h12.9c1.8,0,3.4-1.5,3.4-3.4c0-1.8-1.5-3.4-3.4-3.4H159c-0.1,0-0.2,0-0.3,0
			C121.3,11.2,91,41.7,91,79.4c0,13,3.6,25.1,9.9,35.5h-4.2c-1.8,0-3.4,1.5-3.4,3.4c0,1.8,1.5,3.4,3.4,3.4h16.4c1.6,0,3,1.4,3,3
			s-1.4,3-3,3h-2.4l0,0H97.6c-1.8,0-3.4,1.5-3.4,3.4s1.5,3.4,3.4,3.4h20.9c3.6,2.7,7.4,5,11.4,7H84.6c-1.8,0-3.4,1.5-3.4,3.4
			c0,1.8,1.5,3.4,3.4,3.4h72.7c0.2,0,0.3,0,0.5,0c0.6,0,1.3,0,1.8,0c38,0,68.8-30.8,68.8-68.8C228.5,60.6,220.7,43.3,208.3,30.8z"/>
		<circle id="XMLID_498_" class="st0" cx="216.7" cy="14.2" r="3.4"/>
		<circle id="XMLID_451_" class="st0" cx="87.5" cy="131.3" r="3.4"/>
		<path id="XMLID_447_" class="st0" d="M87,42.6c0-2.2-1.5-4.2-3.5-4.8c0-2.8-2.3-5-5-5c-0.6,0-1.2,0.1-1.7,0.3
			c-0.9-1.6-2.5-2.8-4.5-2.8c-2.8,0-5,2.2-5,5c0,0.9,0.2,1.6,0.6,2.3c-0.4-0.1-0.9-0.2-1.4-0.2c-2.8,0-5,2.2-5,5s2.2,5,4.9,5l0,0H82
			l0,0C84.7,47.6,87,45.3,87,42.6z"/>
		<path id="XMLID_441_" class="st0" d="M142.8-19.9c0-2.9-1.9-5.3-4.5-6.2c-0.1-3.6-3-6.5-6.6-6.5c-0.8,0-1.5,0.2-2.2,0.4
			c-1.1-2.1-3.3-3.6-5.8-3.6c-3.7,0-6.6,3-6.6,6.6c0,1.1,0.3,2.1,0.8,3c-0.6-0.2-1.2-0.3-1.7-0.3c-3.7,0-6.6,3-6.6,6.6
			s2.9,6.5,6.5,6.6l0,0h20.6l0,0C140-13.4,142.8-16.3,142.8-19.9z"/>
		<path id="XMLID_440_" class="st0" d="M268,20c0-2.9-1.9-5.3-4.5-6.2c-0.1-3.6-3-6.5-6.6-6.5c-0.8,0-1.5,0.2-2.2,0.4
			c-1.1-2.1-3.3-3.6-5.8-3.6c-3.7,0-6.6,3-6.6,6.6c0,1.1,0.3,2.1,0.8,3c-0.6-0.2-1.2-0.3-1.7-0.3c-3.7,0-6.6,3-6.6,6.6
			s2.9,6.5,6.5,6.6l0,0h20.6l0,0C265.2,26.5,268,23.6,268,20z"/>
	</g>
	<ellipse id="XMLID_438_" class="st0" cx="63.6" cy="21.9" rx="1.5" ry="1.5"/>
	<polygon id="XMLID_437_" class="st0" points="64.1,22.2 63.2,21.6 88.8,-22 	"/>
	<ellipse id="XMLID_436_" class="st0" cx="183.1" cy="7.1" rx="1.5" ry="1.5"/>
	<polygon id="XMLID_435_" class="st0" points="183.6,7.4 182.6,6.8 208.3,-36.9 	"/>
	<ellipse id="XMLID_434_" class="st0" cx="234.8" cy="102.1" rx="1.5" ry="1.5"/>
	<polygon id="XMLID_433_" class="st0" points="235.3,102.3 234.5,101.8 260.1,58.1 	"/>
</g>
<g id="XMLID_956_">
	<path id="XMLID_1010_" class="st1" d="M228.7,67.9c0.3-3.7-2.7-6.9-5.4-9.1c-1.8-1.5-3.7-2.7-5.7-3.8c-1.5-0.8-8.1-3.4-9.6-4.1
		c-0.1,0-0.2-0.1-0.3-0.1c-1.7-20.1-18.5-35.9-39-35.9h-7.1c-21.6,0-39.2,17.6-39.2,39.2v23.4c-1.6-0.7-2.4-1.6-3.4-2.7
		c-0.6-0.7-1-1.1-1.6-2.2c-1.5-2.5-2.3-5.4-3.4-8.3c1-1.8,1.5-4,1.6-6c0.1-1.9-0.6-6.1-2.6-7.6c0.3-1.5,0.4-3.1,0.6-4.7
		c0.3-3.1,1.8-6,1.9-9.1s-2.2-5.9-5.3-6.1c-3.6-0.3-6.6,2.2-8.1,5.3c-1.1,2.3-1.3,4.9-1.1,7.3c0.1,0.7,0.2,1.7,0.5,2.6
		c-3.6-1.6-8.2-1.9-12.1-1.8c-3.7,0.1-8.1,0.9-10.7,3.9c-2.4,2.8-1.7,8,1.1,10.3c-2.9,3-2,9.1,0,12.1c0.6,0.9,1.3,1.6,2.2,2.1
		c-0.8,1-0.9,2.8-0.8,3.9c0.1,1.7,0.9,3.2,2,4.5c2.5,2.9,6.7,4,10.4,4.2c2.6,0.1,5.5-0.4,7.7-1.8c0.6,0.5,1.6,0.6,2.2,0.6
		c1.7,0,3.2-1.2,4.4-2.3c1-0.9,2.4-2.4,3.3-4.1c0.9,1,2.1,1.8,3.3,2.4c0.3,0.2,0.8,0.4,1.3,0.6c0.5,0.3,0.7,0.3,2,0.8
		c1.2,0.4,3.6,0.9,4.6,0.6c1.2,15.7,11.8,28.8,26.1,33.8c-0.7,2.2-1.2,5.5-1.5,7.6c-0.4,3.1-0.9,6.2-1.2,9.2l0,0
		c-5.6-0.3-11.8,1-17.1,2.6c-1.6,0.5-4.9,1.9-6.8,3.6c-0.9,0.9-1.5,1.8-1.3,2.8c0.1,0.7,0.6,1.5,1.6,2.3c1.9,1.4,4.7,1.7,7.1,1.8
		c0.3,0,0.5,0,0.8,0c3.9,0.2,7.8,0,11.6-0.5c3.3-0.4,6.7-1,9.8-2.2h0.1c2.5-0.9,4.4-2.2,4.1-5.2c0-0.3-0.1-0.7-0.2-1
		c-0.1-0.4-0.3-0.7-0.5-1.1c-0.7-1.2-1.9-2-3.3-2.4c0.1-0.8,0.1-1.6,0.2-2.4c0.2-2,0.4-4,0.6-6c0.2-1.8,0.4-3.6,0.7-5.4
		c0.1-0.4,0.1-0.8,0.2-1.3c0-0.1,0-0.1,0-0.2c0.1-0.3,0.1-0.7,0.2-1c2.6,0.5,5.2,0.8,7.9,0.8h7.1c2,0,4-0.2,5.9-0.4
		c-1.1,2.5-1.5,5.4-2,8.1c-0.2,1.4-0.4,2.7-0.7,4.1c-0.1,0.5-0.4,1.1-0.6,1.7c-2.3,0.1-4.8,1.2-5.9,3.2c-1.2,2.2,0.9,4.1,2.6,5
		c2.8,1.5,6.3,2,9.3,2.6c4.9,0.9,9.9,1.5,14.9,1.4c2.6,0,5.4,0.1,7.7-1.2c2.8-1.5,1.2-3.7-0.7-5c-2.9-2-6.7-2.8-10.1-3.8
		c-2.3-0.7-4.5-1.4-6.8-1.9c-1.1-0.3-2.2-0.4-3.4-0.6c-1-0.1-2,0.2-2.9,0.2c0.6-2.5,1.1-4.9,1.7-7.4s1.5-5,2.2-7.6h-0.2
		c13.2-3.9,23.5-14.6,26.9-28c0.9,0.9,2.9,2.1,3.7,2.5c1.9,0.9,3.9,1.3,6,1.2c2.2,0,4.4-0.9,5.9-2.4c2-0.6,3.7-2.6,4.9-4.2
		c1.5-2,1.3-4.8-0.1-6.8c-0.9-1.2-2.8-2.1-4.7-2.3C225.7,74.6,228.4,71.6,228.7,67.9z M206.8,78.9c0,21-17.1,38.1-38.1,38.1h-7.1
		c-21,0-38.1-17.1-38.1-38.1v-25c0-21,17.1-38.1,38.1-38.1h7.1c21,0,38.1,17.1,38.1,38.1V78.9z M218.1,68.2
		c-1.3,0.8-8.7,3.1-10.3,3.5V59.9c1.2,0.5,8.6,3,9.7,3.6c1.2,0.6,2.2,1.4,3.1,2.3l0,0C220.1,66.9,219,67.6,218.1,68.2z"/>
	<path id="XMLID_1009_" class="st2" d="M118.6,79.6c-0.2,0-0.3-0.1-0.5-0.1c-0.7-0.2-1.4-0.4-2-0.7c-1.6-0.6-3-1.5-4.1-2.8
		c0.5-1.3,0.5-2.7-0.1-3.8c-0.2-0.3-0.6-0.3-0.8,0c-0.6,1.1-0.7,2.4-1.3,3.5c-0.6,1.4-1.5,2.8-2.6,3.9c-1,1.1-2.2,2-3.6,2.4
		c-0.2,0.1-0.5,0.1-0.8,0.1c0.2-0.2,0.4-0.4,0.6-0.6c1.6-1.9,3.2-8.3,0.7-10c0.7-0.5,1.4-1.2,2-2c0.3-0.5,0.6-1,0.8-1.6
		c0.1,0.1,0.2,0.2,0.4,0.2c0.5,0.3,1-0.3,0.7-0.8c0-0.1-0.1-0.1-0.2-0.2c-0.2-0.1-0.4-0.3-0.6-0.4c0.2-1,0.3-2.1,0.3-3.1
		c0-0.4,0-0.7,0-1.1c0-1.1-0.3-2.2-0.8-3.1c-0.1-0.3-0.3-0.5-0.4-0.6c2.1-4,0.8-8.5-2.4-11.3c-0.1-0.9-0.4-1.7-0.6-2.5
		c-0.6-2.3-0.4-5,0.3-7.2c0.9-2.8,3.5-5.1,6.5-4.9l0,0c3.3,0.2,3.3,4.1,2.7,6.4c-1,3.6-1.3,7.1-1.4,10.7c0,0.4,0,0.8-0.1,1.2
		c0,0.9-0.1,1.8-0.1,2.7c0,0.3,0.4,0.4,0.5,0.1c0.3-0.4,0.5-0.9,0.6-1.3c0.1,0.2,0.3,0.4,0.4,0.6c0.9,1.4,1.1,3.1,1.2,4.7
		c0.1,1.8-0.4,3.5-1.1,5.1c-0.1,0.1-0.1,0.2-0.1,0.3c-0.5,1-1.1,2-1.8,3c-0.1,0.1-0.1,0.1-0.2,0.2c-0.2,0.2,0.2,0.6,0.4,0.4
		c0.6-0.4,1.2-0.9,1.6-1.4c0.4,3,1.7,6.9,3.8,9.7c0.5,0.7,1.1,1.3,1.8,1.8c1.3,1,2.3,1.5,3.9,1.2v0.4c0,0.7,0,1.4,0.1,2.1
		C121.4,80.3,118.9,79.6,118.6,79.6z"/>
	<path id="XMLID_1008_" class="st2" d="M223,78.2c0.9,0.2,1.6,0.7,2.2,1.3c0.5,0.6,0.9,1.3,1.1,2c0.5,2.1-0.6,3.7-2.1,5
		c-0.1,0.1-0.2,0.1-0.3,0.2c0-0.1,0-0.1,0-0.2c0.1-0.5,0.2-0.9,0.3-1.4c0.1-0.8-0.1-1.4-0.3-2.1c-0.8-2-3.1-3.1-5.4-3.3
		C218.5,77.7,221.9,77.9,223,78.2z"/>
	<path id="XMLID_1007_" class="st2" d="M223.4,73.7c-3.1,2.3-6.7,2.6-10.1,4c-0.1,0-0.2,0.2-0.2,0.3l0,0c0,0.2,0,0.3,0.2,0.4
		c1,0.1,2.1,0.1,3.2,0c0.1,0,0.1,0.1,0.2,0.1c0.1,0,0.1,0,0.2,0c0.2,0,0.3-0.1,0.3-0.2c0.1,0,0.2,0,0.3-0.1c-0.2,0.5-0.4,1-0.3,1.7
		c-0.6,0.1-1.1,0.2-1.6,0.5c-1.4,0.6-1.9,1.7-1.9,2.7c-0.4,0-0.9,0.1-1.2,0.4c-0.1,0.1-0.1,0.3,0.1,0.3c0.4,0.1,0.8,0.1,1.2,0.1
		c0.2,0.8,0.6,1.6,1.3,2.1v0.1c0,0.3-0.1,0.7,0.1,0.9c0.1,0.1,0.2,0.1,0.3,0c0.2-0.1,0.2-0.4,0.2-0.6c0.7,0.5,1.6,0.7,2.6,0.5
		c0.3,0,0.5-0.1,0.8-0.2c0.2-0.1,0.2-0.4-0.1-0.4c-1.8-0.1-4.2-1.6-3.4-3.6c0-0.1,0-0.1,0.1-0.2c0.9-1.7,3.7-1.3,5-0.6
		c0.4,0.2,0.7,0.4,1,0.6c2.1,1.9,0.8,5.2-1.3,6.7c-2,1.4-4.7,1.4-7,1c-0.7-0.1-1.3-0.3-2-0.6c-0.5-0.2-1-0.4-1.4-0.6
		c-0.7-0.3-2.1-1.6-2.8-2c0.6-2.7,0.9-5.4,0.9-8.2v-5.7c2-0.6,9.1-2.8,10.4-3.5c0.4-0.2,0.8-0.5,1.2-0.8s0.9-0.7,1.2-1.1
		c0.3-0.3,0.6-0.7,0.8-1.1c0.3-0.5,0.5-1.1,0.5-1.6c0-0.2,0-0.4,0-0.7c0-0.1,0-0.3-0.1-0.4c0-0.1-0.2-0.2-0.3,0
		c-0.1,0.1-0.1,0.2-0.1,0.3c0,0,0,0.1-0.1,0.1c-0.1-0.1-0.2-0.2-0.3-0.3c-1.9-1.8-10.7-5-13.2-5.5v-4.6c0-0.7,0-1.5-0.1-2.2
		c0.4,0.2,0.8,0.4,1.3,0.6c1.1,0.4,7,3.1,8,3.7c0.6,0.4,1.3,0.8,1.9,1.2c0.1,0.1,0.2,0.1,0.3,0.2c3.1,2.1,6.5,4.8,7.7,8.5
		c0.3,0.9,0.3,1.7,0.1,2.5C226.6,70.5,225.1,72.4,223.4,73.7z"/>
	<path id="XMLID_1006_" class="st2" d="M79.8,50.7c0.3-0.7,0.9-1.3,1.7-1.9c2.6-1.9,6.3-2,9.4-2s6.3,0.5,9.3,1.4
		c2.5,0.8,4.1,2.9,4.7,5.4C105,54,105,54.5,105,55c0,1.1-0.2,2.3-0.7,3c-1.6,0.1-3.2,0.8-4.8,1c-2.3,0.4-4.7,0.5-7,0.4
		c-2.3,0-4.6-0.4-6.8-0.9c-1.4-0.3-2.8-1-4.2-1.3c-0.2,0-0.4-0.1-0.6-0.1c-0.1,0-0.2,0-0.3,0c-0.2-0.4-0.4-0.8-0.5-1.2
		C79.3,54.2,79,52.3,79.8,50.7z"/>
	<path id="XMLID_1005_" class="st2" d="M82,69.6c-2-2.2-2.1-5-1.5-7.7c0.2-0.9,0.5-1.8,0.8-2.6c0.5,0.2,1.1,0.6,1.6,0.8
		c1.1,0.5,2.3,0.8,3.5,1c2.3,0.5,4.6,0.7,6.9,0.7c2.3,0.1,4.6-0.2,6.9-0.6c1.3-0.2,2.9-0.5,4.1-1.3c0.4,0.2,0.7,0.5,0.9,1
		c1,2.3-0.5,7.1-1.7,8.3c-2.4,2.6-6.8,2.3-10,2.5C89.5,71.9,84.8,72.7,82,69.6z"/>
	<path id="XMLID_1004_" class="st2" d="M100.7,81.1c-2.3,1.8-5.4,2.1-8.2,1.9c-2.7-0.2-5.6-1.2-7.6-3.1c-0.9-0.9-1.5-2-1.8-3.2
		c-0.2-1,0.2-2.2,0.3-3.2c0.3,0.1,0.6,0.2,0.9,0.3c3,0.9,6.7,0.5,9.6,0.3c1.9-0.1,3.8-0.2,5.7-0.6c0.8-0.2,1.7-0.4,2.4-0.7
		c1.2,1.1,1.4,2.7,1.1,4.2c0,0.2-0.1,0.3-0.1,0.5C102.6,78.9,101.8,80.3,100.7,81.1z"/>
	<path id="XMLID_1003_" class="st2" d="M152.1,119c-0.1,0.4-0.1,0.7-0.2,1.1c-0.3,1.4-0.5,2.8-0.7,4.2c-0.3,2-0.5,4-0.7,6
		c-0.1,0.9-0.3,1.9-0.3,2.8c0,0.3,0,0.6,0,0.8c0.1,0.4,0.2,0.8,0.3,1.3c0.1,0.3,0.6,0.3,0.7,0c0.1-0.2,0.2-0.4,0.2-0.6
		c0.6,0.4,1.1,0.8,1.6,1.3c1,1.1,1.6,2.5,0.5,3.8c-0.5,0.7-1.5,1.1-2.3,1.4c-2.6,1.1-5.4,1.6-8.1,2c-5.9,1-12.9,1.7-18.7-0.1
		c-1.8-0.6-2.9-1.8-1.4-3.4l0.1-0.1c1.4-1.5,3.5-2.3,5.6-2.9c0.8-0.2,1.7-0.5,2.4-0.7c2.8-0.8,5.9-1.4,8.9-1.9
		c1.9-0.3,3.8-0.5,5.6-0.6c0,0.3-0.1,0.6-0.1,0.9c-0.1,0.8,1.1,0.9,1.3,0.2c0.1-0.4,0.2-0.8,0.3-1.2c0.2-0.1,0.2-0.3,0.1-0.5
		c0.5-2.6,0.6-5.3,0.8-7.9c0.2-2.1,0.4-4.1,0.8-6.2c0.1-0.6,0.4-1.7,0.6-2.6c0.9,0.3,1.8,0.5,2.8,0.8
		C152.3,117.7,152.2,118.3,152.1,119z"/>
	<path id="XMLID_1002_" class="st2" d="M178.2,117.4c-0.7,1.8-1.1,3.7-1.6,5.5c-0.7,2.7-1.4,5.4-2,8.1c-0.1,0.4-0.2,0.8-0.3,1.2
		c-0.2,0.9,1.1,1.3,1.4,0.4c0-0.1,0-0.2,0.1-0.3c0,0,0,0,0.1,0c1.5,0.2,2.9,0.4,4.3,0.7c1.6,0.3,3.3,0.6,4.9,1.1
		c1.7,0.5,3.4,1,5.1,1.5c1,0.3,2,0.6,3,0.9c0.8,0.2,4.4,1.5,6,2.7c0.6,0.4,0.9,0.8,0.7,1.2c-0.8,1.8-4.9,1.6-6.5,1.6
		c-6.7,0.1-13.4-0.6-20-2.1c-2-0.4-4-0.9-5.7-2c-1.8-1.1-1.4-2.4-0.3-3.3c1-0.8,2.5-1.5,3.7-1.8c0,0.1,0,0.2,0,0.3
		c0,0.4,0.4,0.7,0.7,0.6c0.9-0.3,1.4-1.5,1.6-2.8c0.3-1.3,0.3-2.7,0.4-3.5c0.2-1.5,0.4-3,0.7-4.4c0.2-1.5,0.7-3,0.9-4.5
		c0-0.3,0.1-0.6,0.1-0.9c1-0.2,2-0.4,2.9-0.6C178.4,117,178.3,117.2,178.2,117.4z"/>
	<g id="XMLID_994_">
		<path id="XMLID_999_" class="st3" d="M188.1,19.5c0-0.1,0.1-0.3,0.4-0.4c0.5-0.2,1.4,0.2,2.5,1.1v-0.1c0.1,0,8.7,3.6,10.4,3.4
			c1.3-0.1,3.9-0.8,5.9-3.6c1.9-2.5,3.4-3.4,3.5-3.4l0.4-0.2l-0.2,0.4c-0.6,1.4-1.2,3-1.1,3.3c0.2,0.4,1.5,2.3,2.2,3.2l0.1,0.2
			l-0.2,0.1c0,0-4.2,1.1-6.5,1.6l-1.5,0.4c-1.8,0.5-3.9,1-6-0.2c-1.4-0.8-2.5-1.3-3.2-1.6l5.7,5.1c0.1,0.1,3.2,2.5,6.7,0
			c3.7-2.5,8.8-4.3,8.8-4.3l0.5-0.2l-0.3,0.4c-0.5,0.7-1.1,1.7-1.1,2c0,0.4,0.7,2.3,1,3l0.1,0.2H216c-0.1,0-7.3,1.5-9.1,2.5
			c-1.1,0.6-4.9,2.4-7.2-0.2c-1.9-2.2-7.3-8-7.4-8.1L188.1,19.5L188.1,19.5z"/>
		<path id="XMLID_998_" class="st2" d="M192.6,21.5L192.6,21.5L192.6,21.5c-0.3-0.3-0.6-0.6-0.9-0.8c2.1,0.9,8.3,3.4,9.9,3.2
			c1.4-0.2,4-0.8,6.2-3.7c1.2-1.7,2.3-2.6,2.9-3c-0.4,0.9-1,2.4-0.9,2.9v0.1c0.1,0.2,0.4,0.7,0.8,1.3c-1.4,0.5-8.4,2.8-10.1,3
			C199,24.6,194.4,22.4,192.6,21.5z"/>
		<path id="XMLID_997_" class="st4" d="M205.6,24.7l-1.5,0.4c-1.9,0.5-3.8,1-5.8-0.2c-2.2-1.3-3.7-1.8-4.1-2l-1.6-1.4
			c1.8,0.9,6.4,3.1,7.9,3c1.7-0.2,8.7-2.5,10.1-3c0.5,0.7,1,1.4,1.2,1.8C210.9,23.5,207.5,24.4,205.6,24.7z"/>
		<path id="XMLID_996_" class="st4" d="M188.7,19.4c0.1,0,0.1,0,0.2,0c1,0.9,7.3,6.7,9.2,8.6c2.1,2.1,3.5,4.7,5.8,3.5
			c2.1-1.1,9.8-3.9,11.1-4.4c0.2,0.7,0.7,2,0.8,2.4c-1.2,0.2-7.3,1.5-9,2.5c-1.1,0.6-4.7,2.3-6.8-0.2c-1.9-2.2-7.3-8.1-7.4-8.1
			c0,0-4-4.1-4.2-4.2C188.5,19.5,188.6,19.4,188.7,19.4z"/>
		<path id="XMLID_995_" class="st2" d="M198.1,28c-1.9-1.9-8.2-7.7-9.2-8.6c0.4,0,1.4,0.4,3.4,2.3l1.6,1.5l0,0c0,0,0,0,0.1,0
			l6.3,5.7c0,0,3.4,2.7,7.1,0.1c3-2.1,6.9-3.6,8.3-4.1c-0.4,0.5-0.9,1.4-0.8,1.8c0,0.1,0.1,0.3,0.1,0.5c-1.3,0.5-9,3.2-11.1,4.4
			C201.6,32.8,200.2,30.1,198.1,28z"/>
	</g>
	<circle id="XMLID_991_" class="st5" cx="185.3" cy="15.4" r="7.3"/>
	<path id="XMLID_990_" class="st6" d="M168.7,117.7h-7.1c-21.2,0-38.6-17.4-38.6-38.7V54c0-21.3,17.4-38.6,38.6-38.6h7.1
		c21.3,0,38.6,17.4,38.6,38.6v25C207.4,100.3,190,117.7,168.7,117.7z"/>
	<path id="XMLID_987_" class="st7" d="M164.7,62.4c-24.1,0-38.6,18.8-38.6,0v-7.3c0-18.8,15.4-34.2,34.2-34.2h9
		c18.8,0,34.2,15.4,34.2,34.2v7.3C203.4,81.2,188.8,62.4,164.7,62.4z"/>
	<path id="XMLID_984_" class="st8" d="M168.7,117.7h-7.1c-21.2,0-38.6-17.4-38.6-38.7V54c0-21.3,17.4-38.6,38.6-38.6h7.1
		c21.3,0,38.6,17.4,38.6,38.6v25C207.4,100.3,190,117.7,168.7,117.7z"/>
	<g id="XMLID_970_">
		<g id="XMLID_971_">
			<ellipse id="XMLID_981_" class="st5" cx="148.1" cy="45.8" rx="11.7" ry="11.2"/>
			<ellipse id="XMLID_980_" class="st2" cx="145.7" cy="42.3" rx="6.3" ry="5.3"/>
			<circle id="XMLID_979_" class="st2" cx="144.5" cy="52" r="2.5"/>
			<circle id="XMLID_978_" class="st2" cx="153.2" cy="49.5" r="3.2"/>
			<circle id="XMLID_975_" class="st5" cx="184.5" cy="45.8" r="11.6"/>
			<ellipse id="XMLID_974_" class="st2" cx="186.9" cy="42.3" rx="6.5" ry="5.4"/>
			<ellipse id="XMLID_973_" class="st2" cx="179.6" cy="49.8" rx="3.6" ry="3.1"/>
			<ellipse id="XMLID_972_" class="st2" cx="187.9" cy="51.5" rx="2.6" ry="2.2"/>
		</g>
	</g>
	<path id="XMLID_969_" class="st2" d="M178.3,13.5c0,0,9.3,5.8,13.2,5.8c-1,1.4-1,1.3-1,1.3s-5.7-1.5-12.5-5.5
		C178.2,13.6,178.3,13.5,178.3,13.5z"/>
	<path id="XMLID_966_" class="st3" d="M168.7,117.2h-7.1c-21.3,0-38.6-17.4-38.6-38.6v-9.4l40.6,7.8l43.8-7.3v8.8
		C207.4,99.8,190,117.2,168.7,117.2z"/>
	<g id="XMLID_961_">
		<g id="XMLID_1040_">
			<path id="XMLID_1041_" class="st9" d="M167.2,100.6c-14.7,0-28.3-1.8-41.7-6.3l-1.4-4.1c27.4,9.3,67.5,7.8,82.1,0.2l-1.5,4.1
				C196.7,98.6,183.6,100.6,167.2,100.6z"/>
		</g>
	</g>
	<g id="XMLID_959_">
		<path id="XMLID_960_" class="st1" d="M162.8,79.6c-9.3,0-39-7.7-40.3-8.1v-4.1c0.3,0.1,32.4,8.3,40.6,8l0.1,4.1
			C163.1,79.6,162.9,79.6,162.8,79.6z"/>
	</g>
	<g id="XMLID_957_">
		<path id="XMLID_958_" class="st1" d="M124.9,84.1c-0.8,0-1.6,0.1-2.1,0l-0.3-4c8.2,0.9,59.9-7.4,85.5-11.9v4.2
			C205,72.8,140.5,84.1,124.9,84.1z"/>
	</g>
</g>
</svg>
