<svg id="图层_1" data-name="图层 1" xmlns="http://www.w3.org/2000/svg" viewBox="0 0 992.8 94"><defs><style>.cls-1{fill:#fff;}</style></defs><title>wave</title><path class="cls-1" d="M1063.1,86.5H70.9v52.3a15.14,15.14,0,0,0,1,5.3,27.33,27.33,0,0,0-1,7.6,28.9,28.9,0,0,0,56.4,8.8,28.91,28.91,0,0,0,55,0,28.91,28.91,0,0,0,55,0,28.91,28.91,0,0,0,55,0,28.91,28.91,0,0,0,55,0,28.91,28.91,0,0,0,55,0,28.93,28.93,0,0,0,55,.1,28.93,28.93,0,0,0,55-.1,28.93,28.93,0,0,0,55,.1,28.93,28.93,0,0,0,55-.1,28.93,28.93,0,0,0,55,.1,28.93,28.93,0,0,0,55-.1,28.93,28.93,0,0,0,55,.1,28.93,28.93,0,0,0,55-.1,28.91,28.91,0,0,0,55,0,28.91,28.91,0,0,0,55,0,28.91,28.91,0,0,0,55,0,28.9,28.9,0,0,0,56.4-8.8,31.66,31.66,0,0,0-1-7.6,13.86,13.86,0,0,0,1-5.3V86.5Z" transform="translate(-70.9 -86.5)"/></svg>