<svg 
 xmlns="http://www.w3.org/2000/svg"
 xmlns:xlink="http://www.w3.org/1999/xlink"
 width="21px" height="25px">
<path fill-rule="evenodd"  fill="rgb(153, 153, 153)"
 d="M17.385,0.927 L3.660,0.927 C1.647,0.927 -0.000,2.546 -0.000,4.525 L-0.000,22.243 C-0.000,22.737 0.138,23.232 0.412,23.636 C1.190,24.895 2.882,25.300 4.163,24.535 L10.111,20.982 C10.385,20.803 10.751,20.803 11.072,20.982 L16.836,24.490 C17.248,24.761 17.751,24.895 18.255,24.895 C19.764,24.895 20.999,23.681 20.999,22.197 L20.999,4.525 C21.045,2.546 19.398,0.927 17.385,0.927 L17.385,0.927 ZM19.216,22.198 C19.216,22.693 18.804,23.097 18.301,23.097 C18.117,23.097 17.980,23.052 17.843,22.961 L12.079,19.455 C11.208,18.914 10.111,18.914 9.242,19.455 L3.294,23.008 C2.882,23.276 2.288,23.142 2.059,22.693 C1.968,22.556 1.922,22.377 1.922,22.243 L1.922,4.525 C1.922,3.535 2.746,2.725 3.751,2.725 L17.477,2.725 C18.483,2.725 19.307,3.535 19.307,4.525 L19.307,22.197 L19.216,22.198 ZM14.183,6.323 L6.863,6.323 C6.360,6.323 5.948,6.728 5.948,7.224 C5.948,7.718 6.360,8.123 6.863,8.123 L14.183,8.123 C14.686,8.123 15.098,7.718 15.098,7.224 C15.098,6.728 14.686,6.323 14.183,6.323 L14.183,6.323 Z"/>
</svg>
