<?xml version="1.0" encoding="utf-8"?>
<!-- Generator: Adobe Illustrator 19.0.0, SVG Export Plug-In . SVG Version: 6.00 Build 0)  -->
<svg version="1.1" id="图层_1" xmlns="http://www.w3.org/2000/svg" xmlns:xlink="http://www.w3.org/1999/xlink" x="0px" y="0px"
	 viewBox="101 -101 242 242" style="enable-background:new 101 -101 242 242;" xml:space="preserve">
<style type="text/css">
	.st0{fill:none;}
	.st1{fill:#AAAAAA;}
	.st2{fill:#CF9155;}
</style>
<g>
	<path class="st0" d="M222.2-64.4c-46.6-0.1-84.5,37.7-84.5,84.3V20h168.8C306.5-26.6,268.7-64.4,222.2-64.4z"/>
	<path class="st0" d="M334.2-6.2c-3.8-16.5-11.3-32-21.9-45.2l-0.6-0.8c-10.6-13.2-24-23.9-39.3-31.3l-0.9-0.5
		c-15.4-7.3-32.1-11.1-49.1-11.2h-1c-17,0-33.7,3.8-49,11.1l-0.9,0.5c-15.3,7.4-28.7,18.1-39.3,31.3l-0.7,0.8
		c-10.6,13.3-18,28.9-22,45.4c0,0.3-0.1,0.7-0.2,1c-1.9,8.2-2.8,16.7-2.8,25.1h6.5c0-7.9,0.9-15.9,2.6-23.7L132.1,0
		c-1.4,6.6-2.2,13.3-2.2,20h6.6c0-47.2,38.1-85.4,85.3-85.4s85.4,38.2,85.5,85.4h6.5c0-6.7-0.7-13.4-2.2-20l16.4-3.7
		c1.8,7.8,2.6,15.8,2.6,23.7h6.4c0-8.5-0.9-16.8-2.8-25.1C334.3-5.5,334.3-5.9,334.2-6.2z M132.4-1L116-4.7
		c3.6-15.6,10.6-30.2,20.5-42.8L149.7-37C141.3-26.4,135.5-14.1,132.4-1z M150.4-37.8l-13.3-10.4c10.1-12.5,22.8-22.6,37.1-29.6
		l7.3,15.2C169.5-56.8,158.9-48.2,150.4-37.8z M221.4-72c-13.4,0.1-26.7,3.1-38.9,8.9l-7.3-15.2c14.4-6.9,30.2-10.4,46.2-10.5V-72z
		 M222.5-72v-16.8c16.1,0.1,31.8,3.6,46.3,10.5l-7.3,15.2C249.2-69,236-71.9,222.5-72z M262.4-62.7l7.4-15.2c14.3,7,27,17.1,37,29.6
		l-13.2,10.5C285.1-48.2,274.4-56.8,262.4-62.7z M311.5-1c-3-13.1-9-25.5-17.3-36l13.2-10.5c10,12.6,17,27.2,20.5,42.8L311.5-1z"/>
	<path class="st1" d="M306.5,20c-0.1,46.6-37.9,84.4-84.5,84.4S137.6,66.6,137.6,20h-1v0.1c0,47.2,38.3,85.4,85.5,85.3
		c47.2,0,85.3-38.3,85.3-85.4l0,0L306.5,20L306.5,20z"/>
	<path class="st1" d="M221.9-65.4c-47.2,0-85.3,38.2-85.3,85.4h1v-0.1c0-46.6,37.9-84.4,84.5-84.3c46.6,0,84.3,37.8,84.3,84.4h1
		C307.4-27.2,269.2-65.4,221.9-65.4z"/>
	<path class="st1" d="M335.6-5.4l4.2-0.9l-0.2-1l-4.2,0.9C331.5-23.1,324-38.6,313.4-52l3.4-2.8l-0.6-0.8l-3.5,2.8
		C301.9-66.2,288.3-77,273-84.5l2-3.9l-1-0.4l-1.9,3.9c-15.5-7.4-32.4-11.2-49.5-11.3v-4.5h-1v4.3c-17.1,0.1-34,3.9-49.5,11.3
		l-2-3.9l-1,0.5l1.9,3.9c-15.3,7.5-28.9,18.3-39.6,31.6l-3.5-2.8l-0.7,0.8l3.4,2.8c-10.5,13.4-18,29.1-22,45.8l-4.2-0.9l-0.2,1
		l4.2,0.9c-1.9,8.3-2.8,16.8-2.8,25.4h1c0-8.5,0.9-16.8,2.8-25.1c0.1-0.3,0.2-0.7,0.2-1c3.9-16.5,11.3-32.1,22-45.4l0.7-0.8
		c10.6-13.2,24-23.9,39.3-31.3l0.9-0.5c15.3-7.3,32-11.1,49-11.1h1c17,0.1,33.7,3.9,49.1,11.2l0.9,0.5c15.3,7.4,28.7,18.1,39.3,31.3
		l0.6,0.8c10.5,13.3,18,28.8,21.9,45.2c0.1,0.3,0.1,0.7,0.2,1c1.9,8.2,2.8,16.7,2.8,25.1h1.2C338.4,11.4,337.5,3,335.6-5.4z"/>
	<path class="st2" d="M182.6-63.2c12.2-5.8,25.5-8.8,38.9-8.9v-16.8c-16,0.1-31.7,3.6-46.2,10.5L182.6-63.2z"/>
	<path class="st2" d="M116-4.7L132.4-1c3.1-13.1,9-25.4,17.3-36l-13.2-10.5C126.6-34.9,119.6-20.3,116-4.7z"/>
	<path class="st2" d="M311.8,0c1.4,6.6,2.2,13.3,2.2,20h16.8c0-7.9-0.9-15.9-2.6-23.7L311.8,0z"/>
	<path class="st2" d="M294.2-37c8.3,10.5,14.3,22.9,17.3,36l16.4-3.7c-3.5-15.6-10.5-30.2-20.5-42.8L294.2-37z"/>
	<path class="st2" d="M115.8-3.7c-1.8,7.8-2.6,15.8-2.6,23.7h16.9c0-6.7,0.7-13.4,2.2-20L115.8-3.7z"/>
	<path class="st2" d="M222.5-88.8V-72c13.5,0.1,26.7,3.1,39,8.9l7.3-15.2C254.3-85.2,238.5-88.7,222.5-88.8z"/>
	<path class="st2" d="M137.1-48.2l13.3,10.4c8.5-10.4,19.1-19,31.1-24.8l-7.3-15.2C159.9-70.8,147.2-60.7,137.1-48.2z"/>
	<path class="st2" d="M269.8-77.8l-7.4,15.2c12.1,5.9,22.8,14.4,31.2,24.9l13.2-10.5C296.8-60.7,284.1-70.8,269.8-77.8z"/>
	<path class="st0" d="M222.2,104.4c-46.6,0.1-84.5-37.7-84.5-84.3V20h168.8C306.5,66.6,268.7,104.4,222.2,104.4z"/>
	<path class="st0" d="M334.4,45.1c1.9-8.2,2.8-16.7,2.8-25.1h-6.4c0,7.9-0.9,15.9-2.6,23.7L311.8,40c1.4-6.6,2.2-13.3,2.2-20h-6.5
		c-0.1,47.2-38.3,85.4-85.5,85.4S136.6,67.2,136.6,20H130c0,6.7,0.7,13.4,2.2,20l-16.4,3.7c-1.8-7.8-2.6-15.8-2.6-23.7h-6.6
		c0,8.5,0.9,16.8,2.8,25.1c0.1,0.3,0.2,0.7,0.2,1c3.9,16.5,11.3,32.1,22,45.4l0.7,0.8c10.6,13.2,24,23.9,39.3,31.3l0.9,0.5
		c15.3,7.3,32,11.1,49,11.1h1c17-0.1,33.7-3.9,49.1-11.2l0.9-0.5c15.3-7.4,28.7-18.1,39.3-31.3l0.6-0.8c10.5-13.3,18-28.8,21.9-45.2
		C334.3,45.9,334.3,45.5,334.4,45.1z M149.7,77l-13.2,10.5c-9.9-12.6-16.9-27.2-20.5-42.8l16.4-3.7C135.5,54.1,141.3,66.4,149.7,77z
		 M181.5,102.7l-7.3,15.2c-14.3-7-27-17.1-37.1-29.6l13.3-10.4C158.9,88.2,169.5,96.8,181.5,102.7z M221.4,128.8
		c-16-0.1-31.7-3.6-46.2-10.5l7.3-15.2c12.2,5.8,25.5,8.8,38.9,8.9V128.8z M261.4,103.2l7.3,15.2c-14.4,6.9-30.2,10.4-46.3,10.5V112
		C236,111.9,249.2,109,261.4,103.2z M293.6,77.7l13.2,10.5c-10,12.5-22.7,22.6-37,29.6l-7.4-15.2C274.4,96.8,285.1,88.2,293.6,77.7z
		 M327.9,44.7c-3.5,15.6-10.5,30.2-20.5,42.8L294.2,77c8.3-10.5,14.3-22.9,17.3-36L327.9,44.7z"/>
	<path class="st1" d="M221.9,105.4c-47.2,0-85.3-38.2-85.3-85.4h1v0.1c0,46.6,37.9,84.4,84.5,84.3c46.6,0,84.3-37.8,84.3-84.4h1
		C307.4,67.2,269.2,105.4,221.9,105.4z"/>
	<path class="st1" d="M335.6,45.4l4.2,0.9l-0.2,1l-4.2-0.9C331.5,63.1,324,78.6,313.4,92l3.4,2.8l-0.6,0.8l-3.5-2.8
		c-10.7,13.3-24.3,24.1-39.7,31.6l2,3.9l-1,0.4l-1.9-3.9c-15.5,7.4-32.4,11.2-49.5,11.3v4.5h-1v-4.3c-17.1-0.1-34-3.9-49.5-11.3
		l-2,3.9l-1-0.5l1.9-3.9c-15.3-7.5-28.9-18.3-39.6-31.6l-3.5,2.8l-0.7-0.8l3.4-2.8c-10.5-13.4-18-29.1-22-45.8l-4.2,0.9l-0.2-1
		l4.2-0.9c-1.9-8.3-2.8-16.8-2.8-25.4h1c0,8.5,0.9,16.8,2.8,25.1c0.1,0.3,0.2,0.7,0.2,1c3.9,16.5,11.3,32.1,22,45.4l0.7,0.8
		c10.6,13.2,24,23.9,39.3,31.3l0.9,0.5c15.3,7.3,32,11.1,49,11.1h1c17-0.1,33.7-3.9,49.1-11.2l0.9-0.5c15.3-7.4,28.7-18.1,39.3-31.3
		l0.6-0.8c10.5-13.3,18-28.8,21.9-45.2c0.1-0.3,0.1-0.7,0.2-1c1.9-8.2,2.8-16.7,2.8-25.1h1.2C338.4,28.6,337.5,37,335.6,45.4z"/>
	<path class="st2" d="M182.6,103.2c12.2,5.8,25.5,8.8,38.9,8.9v16.8c-16-0.1-31.7-3.6-46.2-10.5L182.6,103.2z"/>
	<path class="st2" d="M116,44.7l16.4-3.7c3.1,13.1,9,25.4,17.3,36l-13.2,10.5C126.6,74.9,119.6,60.3,116,44.7z"/>
	<path class="st2" d="M311.8,40c1.4-6.6,2.2-13.3,2.2-20h16.8c0,7.9-0.9,15.9-2.6,23.7L311.8,40z"/>
	<path class="st2" d="M294.2,77c8.3-10.5,14.3-22.9,17.3-36l16.4,3.7c-3.5,15.6-10.5,30.2-20.5,42.8L294.2,77z"/>
	<path class="st2" d="M115.8,43.7c-1.8-7.8-2.6-15.8-2.6-23.7h16.9c0,6.7,0.7,13.4,2.2,20L115.8,43.7z"/>
	<path class="st2" d="M222.5,128.8V112c13.5-0.1,26.7-3.1,39-8.9l7.3,15.2C254.3,125.2,238.5,128.7,222.5,128.8z"/>
	<path class="st2" d="M137.1,88.2l13.3-10.4c8.5,10.4,19.1,19,31.1,24.8l-7.3,15.2C159.9,110.8,147.2,100.7,137.1,88.2z"/>
	<path class="st2" d="M269.8,117.8l-7.4-15.2c12.1-5.9,22.8-14.4,31.2-24.9l13.2,10.5C296.8,100.7,284.1,110.8,269.8,117.8z"/>
</g>
</svg>
