<?xml version="1.0" encoding="utf-8"?>
<!-- Generator: Adobe Illustrator 19.0.0, SVG Export Plug-In . SVG Version: 6.00 Build 0)  -->
<svg version="1.1" id="图层_1" xmlns="http://www.w3.org/2000/svg" xmlns:xlink="http://www.w3.org/1999/xlink" x="0px" y="0px"
	 viewBox="-20 0 46 31" style="enable-background:new -20 0 46 31;" xml:space="preserve">
<style type="text/css">
	.st0{fill:#CF9155;}
</style>
<path class="st0" d="M18.9,17.6h-35.5c-1.9,0-3.5-0.9-3.5-2s1.6-2,3.5-2h35.8L6.5,2.8c-0.8-0.7-0.8-1.7,0-2.4c0.8-0.6,2-0.6,2.8,0
	l0,0l16.1,13.7c0.4,0.3,0.6,0.8,0.6,1.3c0,0.5-0.2,1-0.6,1.3L9.3,30.5c-0.8,0.6-2,0.7-2.8,0c-0.8-0.6-0.8-1.7,0-2.4l0,0L18.9,17.6
	L18.9,17.6z"/>
</svg>
