<?xml version="1.0" encoding="utf-8"?>
<!-- Generator: Adobe Illustrator 19.0.0, SVG Export Plug-In . SVG Version: 6.00 Build 0)  -->
<svg version="1.1" id="图层_1" xmlns="http://www.w3.org/2000/svg" xmlns:xlink="http://www.w3.org/1999/xlink" x="0px" y="0px"
	 viewBox="-580 156.2 200 200" style="enable-background:new -580 156.2 200 200;" xml:space="preserve">
<style type="text/css">
	.st0{fill:#CF9155;}
</style>
<path class="st0" d="M-480,356.2c-55.2,0-100-44.8-100-100s44.8-100,100-100s100,44.8,100,100c0,0,0,0,0,0.1
	C-380.1,311.5-424.8,356.1-480,356.2z M-480,168.7c-48.4,0-87.6,39.1-87.6,87.5s39.1,87.6,87.5,87.6c48.4,0,87.6-39.1,87.6-87.5
	c0,0,0,0,0-0.1C-392.5,208-431.7,168.8-480,168.7L-480,168.7z M-511.8,255.8c-5.5,0-10-4.5-10.1-10.1v-13.3c0-5.4,4.1-10.1,9.4-10.4
	c5.8-0.4,10.7,4.3,10.7,10l0,0v13.7C-501.8,251.2-506.3,255.7-511.8,255.8z M-448.2,255.8c-5.5,0-10-4.5-10.1-10.1V232
	c0-5.6,4.5-10.1,10.1-10.1c5.6,0,10.1,4.5,10.1,10.1c0,0,0,0,0,0v13.7C-438.1,251.2-442.6,255.8-448.2,255.8
	C-448.2,255.8-448.2,255.8-448.2,255.8L-448.2,255.8z"/>
<path class="st0" d="M-444.6,308.5h-70.8c-4.2,0-7.6-3.4-7.6-7.6v0c0-4.2,3.4-7.6,7.6-7.6h70.8c4.2,0,7.6,3.4,7.6,7.6v0
	C-437,305.1-440.5,308.5-444.6,308.5z"/>
</svg>
