<?xml version="1.0" encoding="utf-8"?>
<!-- Generator: Adobe Illustrator 19.0.0, SVG Export Plug-In . SVG Version: 6.00 Build 0)  -->
<svg version="1.1" id="图层_1" xmlns="http://www.w3.org/2000/svg" xmlns:xlink="http://www.w3.org/1999/xlink" x="0px" y="0px"
	 viewBox="-26 -6 35 42" style="enable-background:new -26 -6 35 42;" xml:space="preserve">
<style type="text/css">
	.st0{fill:#CF9155;}
</style>
<path class="st0" d="M4.2,9.8v-4C4.2-0.7-1.4-6-8.2-6S-20.6-0.7-20.6,5.8v4c-3,0.2-5.4,2.6-5.4,5.5v15.2c0,3.1,2.6,5.5,5.8,5.5H3.2
	C6.4,36,9,33.5,9,30.5V15.3C9,12.5,6.9,10.3,4.2,9.8z M-5.6,24v5.1H-10v-5c-1.5-0.7-2.5-2.2-2.5-3.9c0-2.4,2-4.3,4.6-4.3
	s4.6,1.9,4.6,4.3C-3.3,21.8-4.2,23.2-5.6,24z M0.2,9.7h-17V6.5c0-4.4,3.8-8.1,8.5-8.1c4.7,0,8.5,3.6,8.5,8.1V9.7L0.2,9.7z"/>
</svg>
