<?xml version="1.0" encoding="utf-8"?>
<!-- Generator: Adobe Illustrator 19.0.0, SVG Export Plug-In . SVG Version: 6.00 Build 0)  -->
<svg version="1.1" id="图层_1" xmlns="http://www.w3.org/2000/svg" xmlns:xlink="http://www.w3.org/1999/xlink" x="0px" y="0px"
	 viewBox="-129 130.5 24 24" style="enable-background:new -129 130.5 24 24;" xml:space="preserve">
<style type="text/css">
	.st0{opacity:0.3;fill:#333333;enable-background:new    ;}
</style>
<path class="st0" d="M-117,130.5c-6.6,0-12,5.4-12,12c0,6.6,5.4,12,12,12s12-5.4,12-12C-105,135.8-110.4,130.5-117,130.5L-117,130.5
	z M-112.2,138.7l-3.7,3.7l3.7,3.7c0.3,0.3,0.3,0.7,0,1c-0.3,0.3-0.7,0.3-1,0l-3.7-3.6l-3.7,3.7c-0.3,0.3-0.8,0.3-1,0
	c-0.3-0.3-0.3-0.8,0-1.1l3.7-3.7l-3.7-3.7c-0.1-0.1-0.2-0.3-0.2-0.5c0-0.2,0.1-0.4,0.2-0.5c0.1-0.1,0.3-0.2,0.5-0.2
	c0.2,0,0.4,0.1,0.5,0.2l3.7,3.7l3.7-3.7c0.1-0.1,0.3-0.2,0.5-0.2c0.2,0,0.4,0.1,0.5,0.2C-111.9,138-111.9,138.4-112.2,138.7
	L-112.2,138.7z"/>
</svg>
