<svg xmlns="http://www.w3.org/2000/svg" xmlns:xlink="http://www.w3.org/1999/xlink" preserveAspectRatio="xMidYMid" width="14" height="21" viewBox="0 0 14 21">
  <defs>
    <style>
      .cls-1 {
        fill: #ffffff;
        fill-rule: evenodd;
      }
    </style>
  </defs>
  <path d="M11.325,21.000 L2.675,21.000 C1.198,21.000 -0.000,19.846 -0.000,18.422 L-0.000,2.578 C-0.000,1.154 1.198,0.000 2.675,0.000 L11.325,0.000 C12.802,0.000 14.000,1.154 14.000,2.578 L14.000,18.422 C14.000,19.846 12.802,21.000 11.325,21.000 ZM13.027,2.579 C13.027,1.673 12.265,0.938 11.324,0.938 L2.675,0.938 C1.735,0.938 0.973,1.673 0.973,2.579 L0.973,3.103 L13.027,3.103 L13.027,2.579 ZM13.027,4.041 L0.973,4.041 L0.973,16.478 L13.027,16.478 L13.027,4.041 ZM13.027,17.392 L0.973,17.392 L0.973,18.421 C0.973,19.327 1.735,20.062 2.675,20.062 L11.324,20.062 C12.265,20.062 13.027,19.327 13.027,18.421 L13.027,17.392 ZM7.036,19.404 C6.629,19.404 6.297,19.084 6.297,18.692 C6.297,18.299 6.629,17.979 7.036,17.979 C7.444,17.979 7.775,18.299 7.775,18.692 C7.775,19.084 7.444,19.404 7.036,19.404 Z" class="cls-1"/>
</svg>
