<svg xmlns="http://www.w3.org/2000/svg" xmlns:xlink="http://www.w3.org/1999/xlink" preserveAspectRatio="xMidYMid" width="51" height="51" viewBox="0 0 51 51">
  <defs>
    <style>
      .cls-1 {
        fill: #ffffff;
        fill-rule: evenodd;
      }
    </style>
  </defs>
  <path d="M47.230,22.049 L38.071,31.203 C35.640,33.638 32.393,34.978 28.931,34.978 C25.470,34.978 22.223,33.638 19.792,31.208 C18.333,29.748 17.237,27.941 16.620,25.978 C16.356,25.137 16.824,24.245 17.661,23.981 C18.502,23.717 19.394,24.185 19.658,25.022 C20.131,26.521 20.933,27.841 22.043,28.951 C25.839,32.747 32.014,32.747 35.815,28.951 L44.973,19.797 C48.769,16.002 48.769,9.826 44.973,6.026 C43.146,4.199 40.700,3.187 38.091,3.187 C35.481,3.187 33.035,4.193 31.208,6.026 L24.733,12.501 C24.110,13.124 23.099,13.124 22.477,12.501 C21.854,11.878 21.854,10.867 22.477,10.245 L28.951,3.770 C31.382,1.340 34.629,-0.000 38.091,-0.000 C41.552,-0.000 44.799,1.340 47.230,3.770 C49.660,6.201 51.000,9.448 51.000,12.909 C51.000,16.371 49.660,19.618 47.230,22.049 ZM31.203,19.797 C32.662,21.257 33.757,23.065 34.375,25.027 C34.639,25.869 34.171,26.760 33.334,27.024 C32.493,27.288 31.601,26.820 31.337,25.983 C30.864,24.484 30.062,23.164 28.951,22.053 C27.124,20.226 24.678,19.215 22.068,19.215 C19.459,19.215 17.013,20.221 15.185,22.053 L6.026,31.203 C4.198,33.030 3.187,35.476 3.187,38.086 C3.187,40.695 4.193,43.141 6.026,44.969 C9.822,48.764 15.997,48.764 19.797,44.969 L26.272,38.494 C26.894,37.871 27.905,37.871 28.528,38.494 C29.150,39.117 29.150,40.128 28.528,40.750 L22.053,47.225 C19.618,49.660 16.371,51.000 12.909,51.000 C9.448,51.000 6.201,49.660 3.770,47.230 C1.340,44.794 -0.000,41.552 -0.000,38.091 C-0.000,34.629 1.340,31.382 3.770,28.951 L12.924,19.797 C15.355,17.367 18.602,16.027 22.063,16.027 C25.525,16.027 28.772,17.367 31.203,19.797 Z" class="cls-1"/>
</svg>
