<?xml version="1.0" encoding="utf-8"?>
<!-- Generator: Adobe Illustrator 19.0.0, SVG Export Plug-In . SVG Version: 6.00 Build 0)  -->
<svg version="1.1" id="图层_1" xmlns="http://www.w3.org/2000/svg" xmlns:xlink="http://www.w3.org/1999/xlink" x="0px" y="0px"
	 viewBox="-25 -7 36 44" style="enable-background:new -25 -7 36 44;" xml:space="preserve">
<style type="text/css">
	.st0{fill:#CF9155;}
</style>
<path class="st0" d="M9.6-1.6c-0.4,0-0.8,0-1.2,0C-1.6-1.5-6-5.9-6-6l-1-1l-1,1c0,0-4.4,4.4-14.4,4.4c-0.4,0-0.8,0-1.2,0l-1.4,0
	v19.8c0,5.2,1.8,12.8,17.5,18.6L-7,37l0.5-0.2C9.2,31,11,23.4,11,18.2V-1.6L9.6-1.6z M-8.5,23.4l-9-8.1l2.4-2l4.8,3.6
	c0,0,6.6-7,13.1-10.2l0.9,1C3.6,7.7-4.4,14.4-8.5,23.4z"/>
</svg>
