<?xml version="1.0" encoding="utf-8"?>
<!-- Generator: Adobe Illustrator 19.0.0, SVG Export Plug-In . SVG Version: 6.00 Build 0)  -->
<svg version="1.1" id="图层_1" xmlns="http://www.w3.org/2000/svg" xmlns:xlink="http://www.w3.org/1999/xlink" x="0px" y="0px"
	 viewBox="-580 156.2 200 200" style="enable-background:new -580 156.2 200 200;" xml:space="preserve">
<style type="text/css">
	.st0{fill:#CF9155;}
</style>
<path class="st0" d="M-446.5,290.6c1.3-1.5,0.9-3.9-0.6-5.2c-1.5-1.3-3.9-0.9-5.1,0.7c-7.7,8.7-16,12.8-27.8,12.8
	c-11.8,0-19.2-3.3-27.8-12.8c-1.3-1.5-3.6-2-5.1-0.7c-1.5,1.3-1.9,3.7-0.6,5.2c10.1,11.5,19.5,15.8,33.5,15.8
	C-465.9,306.4-455.5,301.2-446.5,290.6L-446.5,290.6L-446.5,290.6z M-505.6,253.6v-13c0-3.5-2.8-6.5-6.4-6.5c-3.4,0-6.4,2.8-6.4,6.5
	v13c0,3.5,2.8,6.5,6.4,6.5C-508.6,260.1-505.6,257.3-505.6,253.6L-505.6,253.6L-505.6,253.6z M-550.6,293.4
	c-5.9-11.3-6.5-18.7-6.5-32.2c0-44.2,34.8-80,77.1-80c42.3,0,76.7,35.7,76.7,79.9c0,29.8-15.4,50.9-38.7,64.7l-0.2,0.1
	c-0.8-0.2-1.8-0.4-2.8-0.4c-6.5,0-11.8,5.4-11.8,11.9c0,6.6,5.3,11.9,11.8,11.9s11.8-5.4,11.8-11.9c0-1-0.2-2-0.4-2.8l-0.3-1.1
	c14.7-9.7,27-19.4,34-36.1l2.5-6.6c9.8-1.7,17.4-11.4,17.4-23.3c0-10.4-5.8-19.3-13.6-22.3l-1.4-6.6l0,0l0,0
	c-9.6-39.4-44-68.7-85-68.7s-75.4,29.2-85,68.7l-0.7,4.7c-8.7,3.3-14.2,13.6-14.2,24.2c0,13.1,8.4,24.1,18.9,25.6
	C-553.9,294-550.6,293.4-550.6,293.4 M-441.6,253.6v-13c0-3.5-2.8-6.5-6.4-6.5c-3.4,0-6.4,2.8-6.4,6.5v13c0,3.5,2.8,6.5,6.4,6.5
	C-444.5,260.1-441.6,257.3-441.6,253.6L-441.6,253.6L-441.6,253.6z"/>
</svg>
