<?xml version="1.0" standalone="no"?><!DOCTYPE svg PUBLIC "-//W3C//DTD SVG 1.1//EN" "http://www.w3.org/Graphics/SVG/1.1/DTD/svg11.dtd"><svg class="icon" fill="#666" width="200px" height="200.00px" viewBox="0 0 1024 1024" version="1.1" xmlns="http://www.w3.org/2000/svg"><path d="M571.526256 512.104603L995.729285 85.906824c16.448173-16.51507 16.382492-43.269045-0.137443-59.718434-16.549126-16.487095-43.269045-16.387357-59.718433 0.132578L511.941617 452.21102 88.042666 26.355025c-16.448173-16.553992-43.169307-16.619672-59.722083-0.133794-16.51507 16.449389-16.581967 43.170523-0.133794 59.723299l424.203029 426.160073-424.203029 426.155208c-16.448173 16.519935-16.381275 43.27391 0.133794 59.723298 8.242939 8.210099 19.018238 12.295687 29.794753 12.295688 10.842196 0 21.684391-4.152485 29.92733-12.429482l423.931791-425.888836L935.906249 997.849315c8.23929 8.309836 19.086351 12.429481 29.928547 12.429482 10.775298 0 21.551813-4.085588 29.789887-12.295688 16.519935-16.449389 16.586832-43.169307 0.137443-59.723298L571.526256 512.104603z m0 0"  /></svg>
