<?xml version="1.0" encoding="utf-8"?>
<!-- Generator: Adobe Illustrator 19.0.0, SVG Export Plug-In . SVG Version: 6.00 Build 0)  -->
<svg version="1.1" id="图层_1" xmlns="http://www.w3.org/2000/svg" xmlns:xlink="http://www.w3.org/1999/xlink" x="0px" y="0px"
	 viewBox="-594 413.9 26 13.9" style="enable-background:new -594 413.9 26 13.9;" xml:space="preserve">
<style type="text/css">
	.st0{fill:#999999;}
</style>
<path class="st0" d="M-568.4,414.2c-0.4-0.4-1.1-0.4-1.5,0l-11.1,11.1l-11.2-11.1c-0.4-0.4-1.1-0.4-1.5,0c-0.4,0.4-0.4,1.1,0,1.5
	l11.9,11.8c0,0,0,0,0.1,0l0,0c0.2,0.2,0.5,0.3,0.7,0.3c0.3,0,0.6-0.1,0.8-0.3l11.8-11.9C-567.9,415.3-567.9,414.6-568.4,414.2
	L-568.4,414.2L-568.4,414.2L-568.4,414.2 M-568.4,414.2L-568.4,414.2z"/>
</svg>
