<?xml version="1.0" encoding="utf-8"?>
<!-- Generator: Adobe Illustrator 19.0.0, SVG Export Plug-In . SVG Version: 6.00 Build 0)  -->
<svg version="1.1" id="图层_1" xmlns="http://www.w3.org/2000/svg" xmlns:xlink="http://www.w3.org/1999/xlink" x="0px" y="0px"
	 viewBox="-102 93.5 98 98" style="enable-background:new -97 98.5 88 88;" xml:space="preserve">
<style type="text/css">
	.st0{fill: none; stroke: #FFFFFF; stroke-width: 5;}
	.st1{fill:#FFFFFF;}
</style>
<path class="st0" d="M-53,186.5c-24.3,0-44-19.7-44-44s19.7-44,44-44s44,19.7,44,44S-28.7,186.5-53,186.5z"/>
<path class="st1" d="M-32.2,169.4h-41.7c-3.1,0-5.2-2.4-4.7-5.4c1.2-7.3,4.8-12.6,9.8-16.7c1.3-1.1,3.1-0.9,4.3,0.3
	c2.9,2.9,6.9,4.7,11.4,4.7s8.5-1.8,11.4-4.7c1.2-1.2,3-1.3,4.3-0.3c5.1,4.1,8.8,9.4,10,16.7C-27,167-29.2,169.4-32.2,169.4z
	 M-53.1,147.4c-8.9,0-16.2-7.1-16.2-15.9s7.2-15.9,16.2-15.9c8.9,0,16.2,7.1,16.2,15.9S-44.2,147.4-53.1,147.4z"/>
</svg>
