<?xml version="1.0" encoding="utf-8"?>
<!-- Generator: Adobe Illustrator 19.0.0, SVG Export Plug-In . SVG Version: 6.00 Build 0)  -->
<svg version="1.1" id="图层_1" xmlns="http://www.w3.org/2000/svg" xmlns:xlink="http://www.w3.org/1999/xlink" x="0px" y="0px"
	 viewBox="-671 247.2 18 18" style="enable-background:new -671 247.2 18 18;" xml:space="preserve">
<style type="text/css">
	.st0{
        stroke: #999999;
        stroke-width: 1.5px;
        fill: none;
        }
	.st1{fill:#999999;}
</style>
<path class="st0" d="M-666.5,247.7h9c2.2,0,4,1.8,4,4v9c0,2.2-1.8,4-4,4h-9c-2.2,0-4-1.8-4-4v-9
	C-670.5,249.5-668.7,247.7-666.5,247.7z"/>
<path class="st1" d="M-656.8,253.9L-656.8,253.9l-6,6l0,0c-0.1,0.1-0.3,0.2-0.6,0.2c-0.3,0-0.4-0.1-0.6-0.2l0,0l-3.4-3.4l0,0
	c-0.1-0.1-0.2-0.3-0.2-0.6c0-0.4,0.4-0.8,0.8-0.8c0.2,0,0.4,0.1,0.6,0.2l0,0l2.8,2.8l5.5-5.5l0,0c0.1-0.1,0.3-0.2,0.6-0.2
	c0.4,0,0.8,0.4,0.8,0.8C-656.5,253.5-656.6,253.7-656.8,253.9z"/>
</svg>
