<svg id="图层_1" data-name="图层 1" xmlns="http://www.w3.org/2000/svg" viewBox="0 0 500 500"><defs><style>.cls-1{fill:#eee;}.cls-2{fill:#fff;}.cls-3{fill:#19a99d;}.cls-4{fill:#8e8e8e;}.cls-5{fill:#b3b3b3;}.cls-6{fill:#520a0f;opacity:0.8;}.cls-7{fill:#c9caca;}.cls-8{fill:#c0bfbf;}.cls-9{fill:none;}</style></defs><title>2</title><circle class="cls-1" cx="250" cy="250" r="250"/><g id="_编组_" data-name="&lt;编组&gt;"><ellipse id="_路径_" data-name="&lt;路径&gt;" class="cls-2" cx="118.06" cy="251.18" rx="14.17" ry="40.45" transform="translate(-157.44 284.8) rotate(-71.78)"/><path id="_复合路径_" data-name="&lt;复合路径&gt;" class="cls-3" d="M141.11,271.06c-8.07,0-17.94-1.79-27.92-5.08-19.55-6.43-37.94-18.62-34.89-27.89,1.38-4.21,7-6.62,15.7-6.79,8.28-.18,18.53,1.64,28.94,5.07,19.55,6.43,37.94,18.62,34.89,27.89h0c-1.38,4.21-7,6.62-15.7,6.79ZM95,234.12H94C86.7,234.27,81.94,236,81,239c-1.88,5.74,11.24,17.14,33.1,24.33,10.12,3.33,20,5.06,28,4.93,7.34-.14,12.11-1.91,13.08-4.85h0c1.88-5.73-11.24-17.14-33.1-24.33C112.33,235.86,102.78,234.12,95,234.12Z"/></g><rect id="_矩形_" data-name="&lt;矩形&gt;" class="cls-2" x="144.19" y="91.66" width="231.93" height="281.11" rx="106.25" ry="106.25"/><path id="_路径_2" data-name="&lt;路径&gt;" class="cls-3" d="M258.85,220.71c-28.32,0,2.49,19.76-69.5,16.24-23.63,9.08-36.75,13.38-36.75-16.2v-20c0-34.15-6-64.64,45.9-80.64a93.17,93.17,0,0,1,48-13.3h24.61c51.67,0,93.94,42.27,93.94,93.94v20C365.1,272.42,325.07,220.71,258.85,220.71Z"/><g id="_编组_2" data-name="&lt;编组&gt;"><path id="_路径_3" data-name="&lt;路径&gt;" class="cls-3" d="M250.53,257.15a1.66,1.66,0,0,1,1-1.72,1.79,1.79,0,0,1,1.88.54c.93.93,10.81,11,10.81,11a1.46,1.46,0,0,0,2,0l10.37-8.61a18.42,18.42,0,0,1,3.21-2.56,6.84,6.84,0,0,1,2.94-.47H293.7s2,.13,2,2V309a2,2,0,0,1-2,2H282.84s-2-.12-2-2V274.39s-.27-.55-.69-.22l-13.33,10.38a2.46,2.46,0,0,1-3.18,0l-12.26-9.82a2.48,2.48,0,0,1-.83-2Z"/><path id="_路径_4" data-name="&lt;路径&gt;" class="cls-4" d="M235.68,255.34h10.87a2,2,0,0,1,2,2V309a1.94,1.94,0,0,1-2,2H224a2,2,0,0,1-2-1.94V298.57a2,2,0,0,1,2-1.94h9.69V257.31A2,2,0,0,1,235.68,255.34Z"/><path id="_路径_5" data-name="&lt;路径&gt;" class="cls-4" d="M246.6,238.92a2,2,0,0,1,1.95,1.95v10.45a2,2,0,0,1-1.95,1.95H235.43s-1.95-.19-1.95-1.95V240.87s.13-1.95,1.95-1.95Z"/></g><path id="_路径_6" data-name="&lt;路径&gt;" class="cls-5" d="M144.2,233.25v33.26C144.2,325,192,372.76,250.44,372.76h19.43c58.44,0,106.25-47.81,106.25-106.25V233.25c0,93.4-70.21,124-116,124S144.2,324.89,144.2,233.25Z"/><ellipse id="_路径_7" data-name="&lt;路径&gt;" class="cls-6" cx="213.16" cy="175.12" rx="47.69" ry="45.68"/><ellipse id="_路径_8" data-name="&lt;路径&gt;" class="cls-2" cx="203.39" cy="160.76" rx="25.86" ry="21.55"/><circle id="_路径_9" data-name="&lt;路径&gt;" class="cls-2" cx="198.51" cy="200.41" r="10.05"/><circle id="_路径_10" data-name="&lt;路径&gt;" class="cls-2" cx="233.85" cy="190.35" r="13.22"/><circle id="_路径_11" data-name="&lt;路径&gt;" class="cls-6" cx="313.16" cy="175.12" r="31.76"/><ellipse id="_路径_12" data-name="&lt;路径&gt;" class="cls-2" cx="319.74" cy="165.59" rx="17.82" ry="14.72"/><ellipse id="_路径_13" data-name="&lt;路径&gt;" class="cls-2" cx="299.79" cy="186.12" rx="9.88" ry="8.52"/><ellipse id="_路径_14" data-name="&lt;路径&gt;" class="cls-2" cx="322.65" cy="190.96" rx="7.17" ry="6"/><path id="_复合路径_2" data-name="&lt;复合路径&gt;" class="cls-3" d="M142.78,245.72v20.79A107.83,107.83,0,0,0,214.85,368.1a160.53,160.53,0,0,0-4,20.81c-1.12,8.42-2.43,16.93-3.32,25.41h-.14c-15.4-.79-32.53,2.74-47,7.06-4.42,1.32-13.59,5.1-18.73,10-2.48,2.36-4,5-3.63,7.7.29,2,1.63,4.13,4.46,6.22,5.25,3.88,13,4.63,19.5,5.06l2.06.14a168.12,168.12,0,0,0,31.85-1.38c9.1-1.15,18.32-2.8,27-6l.29-.1c6.83-2.57,12.13-6.11,11.32-14.25a13.1,13.1,0,0,0-.55-2.63,12.55,12.55,0,0,0-1.35-2.91,16.76,16.76,0,0,0-8.94-6.63c.31-2.16.4-4.36.59-6.5.5-5.5,1-11,1.65-16.48q.82-7.4,1.82-14.79c.16-1.16.3-2.33.46-3.49,0-.17.05-.33.08-.5q.22-1.43.45-2.87a107.73,107.73,0,0,0,21.73,2.21h19.43a108,108,0,0,0,16.2-1.22c-3,6.91-4.21,14.91-5.43,22.19-.61,3.73-1.18,7.47-1.91,11.17A35.11,35.11,0,0,1,277.2,411c-6.26.34-13.3,3.32-16.26,8.81-3.22,6,2.57,11.27,7.27,13.8,7.67,4.14,17.26,5.5,25.67,7.11a209.73,209.73,0,0,0,40.83,3.91c7.08,0,14.77.14,21.21-3.25,7.78-4.1,3.23-10.1-2-13.71-8.09-5.62-18.51-7.72-27.8-10.47-6.23-1.86-12.44-3.77-18.79-5.25a82.69,82.69,0,0,0-9.25-1.56c-2.78-.31-5.41.46-8.1.52,1.56-6.78,3.08-13.58,4.73-20.35,1.7-7,4.18-13.82,6-20.78h-.42a108.18,108.18,0,0,0,65.45-54.4c3,3.85,11.74,10.9,18.6,13.82a40,40,0,0,0,16.42,3.33,24.23,24.23,0,0,0,16.31-6.68c5.6-1.64,10.26-7.05,13.45-11.47a15.81,15.81,0,0,0-.38-18.6c-2.48-3.39-7.71-5.73-12.91-6.37,9.46-5.13,17-13.54,17.7-23.72s-7.54-19-14.74-25a104,104,0,0,0-15.75-10.47c-4.13-2.31-22.22-9.27-26.5-11.26l-.43-.21V197.91A107.78,107.78,0,0,0,269.87,90.25H250.44A107.78,107.78,0,0,0,142.78,197.91V233m231.93,33.48A105,105,0,0,1,269.87,371.35H250.44A105,105,0,0,1,145.61,266.51V197.91A105,105,0,0,1,250.44,93.07h19.43A105,105,0,0,1,374.71,197.91Zm31,.06c-3.36,2-23.56,8.1-28.65,9.54.28-3.17.44-6.37.44-9.61v-22.6c3.17,1.5,23.71,8.31,26.77,9.93,3.33,1.76,8.54,4.44,8.53,6.39S408.42,265,405.75,266.58Z"/><path id="_路径_15" data-name="&lt;路径&gt;" class="cls-2" d="M419.37,294.08a12.37,12.37,0,0,1,6.15,3.65,13.15,13.15,0,0,1,3.07,5.58C430.1,309,427,313.37,422.84,317l-.7.61c0-.14.07-.29.11-.44a19.47,19.47,0,0,0,.72-4,12.43,12.43,0,0,0-.9-5.64c-2.29-5.54-8.55-8.61-14.78-9C406.85,292.73,416.27,293.33,419.37,294.08Z"/><path id="_路径_16" data-name="&lt;路径&gt;" class="cls-2" d="M420.35,281.6c-8.39,6.34-18.48,7.11-27.84,11.06a1.26,1.26,0,0,0-.66.78s0,.09,0,.13a.78.78,0,0,0,.67,1,33.66,33.66,0,0,0,8.71,0,13.88,13.88,0,0,0,1.9-.27l.8-.14a8.91,8.91,0,0,0-.86,4.64,16.6,16.6,0,0,0-4.46,1.29c-3.72,1.7-5.29,4.56-5.34,7.52a7,7,0,0,0,.24,2.23A11.33,11.33,0,0,0,397,315.7c.17.19.91.68,1.56,1.16a10,10,0,0,0,7.08,1.37,11,11,0,0,0,2.23-.64.53.53,0,0,0-.14-1c-4.84-.16-11.49-4.38-9.31-9.85.07-.18.12-.35.21-.54,2.37-4.76,10.06-3.59,13.79-1.78a11.38,11.38,0,0,1,2.63,1.75c5.72,5.12,2.34,14.25-3.6,18.54-5.46,3.95-13,3.93-19.27,2.72a30.31,30.31,0,0,1-5.41-1.62c-1.32-.52-2.61-1.1-3.89-1.7-5.74-2.73-13.14-9.26-15.59-11.85a106.7,106.7,0,0,0,9.3-31.78c5.72-1.68,29.38-9.84,33-12.07,10.14-6.26,6.35-11.15,4.27-13.13-5.19-4.92-29.36-13.87-36.35-15.23V221.39a28.53,28.53,0,0,0,3.41,1.62c2.93,1.19,19.13,8.41,21.88,10.13,1.74,1.09,3.46,2.22,5.14,3.3l.91.6c8.66,5.67,18,13.28,21.06,23.46a14.49,14.49,0,0,1,.38,6.81C429.29,273.06,425,278.07,420.35,281.6Z"/><path id="_路径_17" data-name="&lt;路径&gt;" class="cls-2" d="M224.4,376.71c-.19,1-.35,2-.53,3-.69,3.83-1.32,7.67-1.83,11.53q-1.08,8.25-2,16.49a72.44,72.44,0,0,0-.74,7.82,17.5,17.5,0,0,0,.13,2.28,12.87,12.87,0,0,0,.92,3.45,1.19,1.19,0,0,0,2,0,14,14,0,0,0,.6-1.73,21.08,21.08,0,0,1,4.44,3.6c2.87,3.11,4.31,7,1.46,10.53-1.51,1.86-4.18,3-6.32,3.89-7,3-14.79,4.41-22.28,5.63-16.21,2.67-35.38,4.6-51.36-.31-5.06-1.56-7.88-5.06-3.9-9.46l.25-.29c3.9-4.07,9.75-6.33,15.45-8,2.29-.67,4.55-1.25,6.65-1.81a232.18,232.18,0,0,1,24.4-5.15,155.63,155.63,0,0,1,15.52-1.61c-.07.85-.16,1.69-.22,2.56-.18,2.08,3.08,2.44,3.59.49.29-1.1.54-2.21.76-3.32a.92.92,0,0,0,.24-1.37c1.28-7.09,1.61-14.52,2.27-21.62.54-5.71,1.23-11.38,2.14-17,.27-1.64,1.15-4.77,1.78-7.16,2.48.79,5,1.48,7.57,2.09C225.06,373.06,224.74,374.92,224.4,376.71Z"/><path id="_路径_18" data-name="&lt;路径&gt;" class="cls-2" d="M296.24,372.35c-1.83,4.92-3.13,10.12-4.49,15.05-2,7.38-3.72,14.84-5.42,22.29-.24,1.07-.49,2.14-.74,3.22-.56,2.42,3.15,3.45,3.73,1,.06-.3.14-.6.2-.9l.17,0c4,.6,7.94,1.17,11.88,1.84a130.9,130.9,0,0,1,13.49,2.95c4.7,1.32,9.4,2.7,14.09,4.11,2.71.82,5.42,1.63,8.12,2.48,2.13.66,12,4.08,16.39,7.33,1.53,1.15,2.38,2.28,1.93,3.26-2.27,5-13.46,4.41-17.9,4.44a248.91,248.91,0,0,1-55-5.73c-5.37-1.17-10.88-2.49-15.57-5.5-4.92-3.14-3.93-6.5-.84-9.19a25.36,25.36,0,0,1,10.22-4.87,5.8,5.8,0,0,0,0,.8,1.65,1.65,0,0,0,2.06,1.57c2.49-.89,3.76-4.09,4.5-7.62s.9-7.37,1.18-9.5c.56-4.08,1.22-8.13,1.86-12.21s1.87-8.25,2.49-12.41q.17-1.17.27-2.35c2.72-.48,5.41-1,8.05-1.73C296.66,371.28,296.44,371.81,296.24,372.35Z"/><g id="_编组_3" data-name="&lt;编组&gt;"><g id="_编组_4" data-name="&lt;编组&gt;"><path id="_路径_19" data-name="&lt;路径&gt;" class="cls-2" d="M207.52,125.78a240.79,240.79,0,0,1-30.5-1.91,1.53,1.53,0,0,1-.61-2.82l9.74-6a1.53,1.53,0,0,1,.66-.22c.7-.07,69.88-6.85,92.49-31a1.53,1.53,0,0,1,1.12-.48,1.55,1.55,0,0,1,.32,0,1.53,1.53,0,0,1,1.13,1c.07.2,7.17,20.19,16.28,23a1.53,1.53,0,0,1,.1,2.88C297.84,110.49,258.18,125.78,207.52,125.78Z"/></g><g id="_编组_5" data-name="&lt;编组&gt;"><path id="_复合路径_3" data-name="&lt;复合路径&gt;" class="cls-3" d="M280.4,84.95s7.31,20.88,17.27,24c0,0-39.2,15.34-90.15,15.34a238.4,238.4,0,0,1-30.31-1.89l9.74-6s70.19-6.62,93.46-31.44m0-3.06a3.06,3.06,0,0,0-2.23,1c-22.21,23.69-90.82,30.42-91.51,30.49a3.06,3.06,0,0,0-1.31.44l-9.74,6a3.06,3.06,0,0,0,1.21,5.64,242.32,242.32,0,0,0,30.7,1.92c50.95,0,90.87-15.4,91.27-15.55a3.06,3.06,0,0,0-.21-5.77c-3.25-1-7-5.16-10.59-11.69a78.3,78.3,0,0,1-4.7-10.37,3.06,3.06,0,0,0-2.89-2Z"/></g></g><g id="_编组_6" data-name="&lt;编组&gt;"><g id="_编组_7" data-name="&lt;编组&gt;"><circle id="_路径_20" data-name="&lt;路径&gt;" class="cls-2" cx="297.67" cy="90.71" r="33.18"/><path id="_复合路径_4" data-name="&lt;复合路径&gt;" class="cls-3" d="M297.67,125.41a34.71,34.71,0,1,1,34.71-34.71A34.75,34.75,0,0,1,297.67,125.41Zm0-66.36a31.65,31.65,0,1,0,31.65,31.65A31.69,31.69,0,0,0,297.67,59.06Z"/></g><g id="_编组_8" data-name="&lt;编组&gt;"><g id="_编组_9" data-name="&lt;编组&gt;"><path id="_路径_21" data-name="&lt;路径&gt;" class="cls-7" d="M297.67,110.44a19.73,19.73,0,1,1,19.73-19.73A19.76,19.76,0,0,1,297.67,110.44Z"/></g><g id="_编组_10" data-name="&lt;编组&gt;"><path id="_复合路径_5" data-name="&lt;复合路径&gt;" class="cls-3" d="M297.67,72.5a18.2,18.2,0,1,1-18.2,18.2,18.2,18.2,0,0,1,18.2-18.2m0-3.06a21.26,21.26,0,1,0,21.26,21.26,21.29,21.29,0,0,0-21.26-21.26Z"/></g></g></g><g id="_编组_11" data-name="&lt;编组&gt;"><path id="_路径_22" data-name="&lt;路径&gt;" class="cls-8" d="M146.16,201.17c-5.19.94-10.46,3.15-16,4.83.1,6.16,3.59,11.51,7.9,15.91,5.05-2.74,9.88-6,14.72-9.27-1.77-4.22-3.54-8.43-6.14-11.69"/><g id="_编组_12" data-name="&lt;编组&gt;"><path id="_路径_23" data-name="&lt;路径&gt;" class="cls-9" d="M146.16,201.17c-5.19.94-10.46,3.15-16,4.83.1,6.16,3.59,11.51,7.9,15.91,5.05-2.74,9.88-6,14.72-9.27-1.77-4.22-3.54-8.43-6.14-11.69"/><path id="_路径_24" data-name="&lt;路径&gt;" class="cls-3" d="M145.37,199.68c-5.47,1.1-10.65,3.16-16,4.83a.87.87,0,0,0-.56,1c.38,6.93,4,12.5,8.71,17.4a1.34,1.34,0,0,0,1.59.36c5.09-2.81,9.91-6,14.72-9.27a1.1,1.1,0,0,0,.22-1.24c-1.83-4.36-3.69-8.66-6.55-12.46-1.27-1.68-3-.35-1.71,1.32a49.35,49.35,0,0,1,5.72,10.91l.22-1.24c-4.81,3.25-9.63,6.46-14.71,9.27l1.59.36c-3.9-4.09-6.78-8.64-7.1-14.42l-.56,1c5.3-1.67,10.48-3.74,16-4.83,1.54-.31-.2-3.24-1.57-3Z"/></g></g><path id="_路径_25" data-name="&lt;路径&gt;" class="cls-2" d="M104.11,239.88c6.26-3,12.42-6.17,18.62-9.27,3.16-1.58,16-5.46,17.41-8.42,1.83-3.93-1-9.55-3.21-12.75-3.74-5.49-6.42-5-12.7-3.71-12.86,2.73-24.45,9.3-36.47,14.34-5.8,2.43-17.54,5.49-21.93,9.81-4.65,4.57-2.28,14.94,2,19.28,4,4,10.27,1.06,15.42-.55C90.32,246.42,97.31,243.12,104.11,239.88Z"/><g id="_编组_13" data-name="&lt;编组&gt;"><path id="_路径_26" data-name="&lt;路径&gt;" class="cls-9" d="M104.11,239.88c6.26-3,12.42-6.17,18.62-9.27,3.16-1.58,16-5.46,17.41-8.42,1.83-3.93-1-9.55-3.21-12.75-3.74-5.49-6.42-5-12.7-3.71-12.86,2.73-24.45,9.3-36.47,14.34-5.8,2.43-17.54,5.49-21.93,9.81-4.65,4.57-2.28,14.94,2,19.28,4,4,10.27,1.06,15.42-.55C90.32,246.42,97.31,243.12,104.11,239.88Z"/><path id="_路径_27" data-name="&lt;路径&gt;" class="cls-3" d="M105.16,241.23c9.66-4.67,19.09-9.35,29-13.39,7.38-3,9-6.28,6-13.82-7.4-18.42-27.33-7.06-40.44-1.15-10.34,4.66-21.5,8-31.54,13.21-6.9,3.57-6.72,10.63-4.59,17.14,6.13,18.77,30.78,3.13,41.57-2,.53-.25-1.27-3.11-2.1-2.71a189.19,189.19,0,0,1-20.86,8.74A55.71,55.71,0,0,1,73,249.74c-11,1.75-9.5-14.21-6.17-18.5,3.18-4.09,10.85-5.8,15.46-7.44,6.67-2.36,13.05-5.27,19.49-8.22a126.7,126.7,0,0,1,23.29-8.45,35.71,35.71,0,0,1,6.46-.83c4.82-.28,9.69,13.92,4.25,17.09-4,2.35-8.74,3.65-13.06,5.37-6.74,2.68-13.17,6.6-19.7,9.76C102.53,238.78,104.33,241.63,105.16,241.23Z"/></g><g id="_编组_14" data-name="&lt;编组&gt;"><path id="_路径_28" data-name="&lt;路径&gt;" class="cls-2" d="M122.09,228.36c16.13-7.5,15.56,19.43,8.58,27.54C112.52,279.82,94.73,248,118.11,233"/><g id="_编组_15" data-name="&lt;编组&gt;"><path id="_路径_29" data-name="&lt;路径&gt;" class="cls-9" d="M122.09,228.36c16.13-7.5,15.56,19.43,8.58,27.54C112.52,279.82,94.73,248,118.11,233"/><path id="_路径_30" data-name="&lt;路径&gt;" class="cls-3" d="M123.34,230c4.41-1.87,8.46-1.81,10,3.53,1.09,3.89.64,8.3-.15,12.18a23.5,23.5,0,0,1-12.6,16.24c-7,3.31-11.87-2.35-12.2-9-.39-7.74,4.94-14.25,11-18.34.94-.63-1.49-3.93-2.51-3.24-8.09,5.44-14,15.25-10.21,25.09,2.65,7,9,11.63,16.43,8.7,10.33-4.08,14.34-16.62,13.52-26.72-.71-8.76-6.85-15.48-15.76-11.71-.87.37,1.28,3.77,2.51,3.24Z"/></g></g><g id="_编组_16" data-name="&lt;编组&gt;"><path id="_路径_31" data-name="&lt;路径&gt;" class="cls-2" d="M64.51,209.5c18.49-13.82,51.36-16.19,61,9.29,6.77,17.91,1.27,31.34-15.22,39.74-15.5,7.24-35.27,9.6-46.19-5.84C53.69,238.5,49.34,221.05,64.51,209.5Z"/><g id="_编组_17" data-name="&lt;编组&gt;"><path id="_路径_32" data-name="&lt;路径&gt;" class="cls-9" d="M64.51,209.5c18.49-13.82,51.36-16.19,61,9.29,6.77,17.91,1.27,31.34-15.22,39.74-15.5,7.24-35.27,9.6-46.19-5.84C53.69,238.5,49.34,221.05,64.51,209.5Z"/><path id="_路径_33" data-name="&lt;路径&gt;" class="cls-3" d="M65.77,211.12c10.89-7.67,23.77-11.33,37-9.48,20.45,2.84,30.09,28.15,19.3,44.76-8.09,12.46-27.75,17.37-41.58,15.44-22.91-3.2-31.57-36.49-14.77-50.72,1.24-1.05-1.3-4.27-2.51-3.24-15.35,13-11,35.11,2.29,48.46,15.84,15.87,43.11,10.24,57.65-4.89,12.68-13.21,6-36.2-6.59-46.82-15-12.69-38.82-7-53.34,3.25C62,208.79,64.44,212.06,65.77,211.12Z"/></g></g><rect id="_矩形_2" data-name="&lt;矩形&gt;" class="cls-3" x="202.12" y="119.49" width="22.23" height="7.27"/><g id="_编组_18" data-name="&lt;编组&gt;"><path id="_复合路径_6" data-name="&lt;复合路径&gt;" class="cls-8" d="M281.34,149.47a74.33,74.33,0,1,0-39.82,97.29A74.33,74.33,0,0,0,281.34,149.47Zm-120.23,50.4a56,56,0,1,1,73.34,30A56,56,0,0,1,161.11,199.86Z"/><g id="_编组_19" data-name="&lt;编组&gt;"><path id="_复合路径_7" data-name="&lt;复合路径&gt;" class="cls-9" d="M281.34,149.47a74.33,74.33,0,1,0-39.82,97.29A74.33,74.33,0,0,0,281.34,149.47Zm-120.23,50.4a56,56,0,1,1,73.34,30A56,56,0,0,1,161.11,199.86Z"/><path id="_路径_34" data-name="&lt;路径&gt;" class="cls-3" d="M282.34,149.79C266.72,114.35,226,92.9,188.2,106.33c-41.27,14.68-61.05,59.84-45,100.28,14.3,36,57.41,56.51,94.14,43.45,41.27-14.68,61.05-59.83,45-100.28-.39-1-2.83-2.71-2-.64,14.27,35.88-.92,75.88-34.83,93.92-37,19.7-83.64,1.91-100.28-35.8-15.55-35.27,1.85-76.38,34.83-93.92,37-19.7,83.64-1.91,100.28,35.81C280.76,150.11,283.24,151.82,282.34,149.79Z"/><path id="_路径_35" data-name="&lt;路径&gt;" class="cls-3" d="M162.11,200.19c-10.42-26.68.34-55.78,25-69.91,27.76-15.87,63.53-2.56,76.31,25.94,11.68,26.06-1.25,56.29-25,69.9-27.76,15.87-63.53,2.57-76.31-25.94-.43-1-2.91-2.67-2-.64,12.57,28,43,42.67,72.6,32.77,31.18-10.45,44.21-46.15,32.76-75.45-11.17-28.59-44.16-42.31-72.61-32.78-31.18,10.45-44.21,46.15-32.75,75.46C160.49,200.54,162.92,202.26,162.11,200.19Z"/></g></g></svg>