<?xml version="1.0" encoding="utf-8"?>
<!-- Generator: Adobe Illustrator 19.0.0, SVG Export Plug-In . SVG Version: 6.00 Build 0)  -->
<svg version="1.1" id="图层_1" xmlns="http://www.w3.org/2000/svg" xmlns:xlink="http://www.w3.org/1999/xlink" x="0px" y="0px"
	 viewBox="-116 116.5 51 51" style="enable-background:new -116 116.5 51 51;" xml:space="preserve">
<style type="text/css">
	.st0{fill:#ffffff;stroke:#ffffff;stroke-width:0.3;stroke-miterlimit:10;}
</style>
<path class="st0" d="M-71,125.9h-37.9c-2.8,0-5.1,2.3-5.1,5v23.2c0,2.7,2.3,5,5,5H-71c2.7,0,5-2.3,5-5v-23.2
	C-65.9,128.2-68.2,125.9-71,125.9z M-67.9,130.9v23.2c0,0.4-0.1,0.8-0.3,1.2l-13.1-13.1l12.9-12.9
	C-68.2,129.8-67.9,130.4-67.9,130.9z M-71,128c0.4,0,0.7,0.1,1.1,0.1h-0.1L-87.8,146c-1.1,1.1-3.1,1.1-4.3,0l-17.7-17.7h-0.1
	c0.3-0.1,0.7-0.1,1.1-0.1L-71,128L-71,128z M-111.8,155.3c-0.1-0.4-0.3-0.7-0.3-1.1v-23.3c0-0.5,0.1-1.2,0.5-1.6l12.9,12.9
	L-111.8,155.3z M-108.9,157.2c-0.5,0-0.9-0.1-1.5-0.4l13.1-13.1l3.8,3.8c0.9,0.9,2.2,1.5,3.5,1.5s2.6-0.5,3.5-1.5l3.7-3.7l13.1,13.1
	c-0.4,0.3-0.9,0.4-1.5,0.4h-37.8V157.2z"/>
</svg>
