<?xml version="1.0" encoding="utf-8"?>
<!-- Generator: Adobe Illustrator 19.0.0, SVG Export Plug-In . SVG Version: 6.00 Build 0)  -->
<svg version="1.1" id="图层_1" xmlns="http://www.w3.org/2000/svg" xmlns:xlink="http://www.w3.org/1999/xlink" x="0px" y="0px"
	 viewBox="-580 156.2 200 200" style="enable-background:new -580 156.2 200 200;" xml:space="preserve">
<style type="text/css">
	.st0{fill:#CF9155;}
</style>
<path class="st0" d="M-480,356.2c-55.2,0-100-44.8-100-100s44.8-100,100-100s100,44.8,100,100c0,0,0,0,0,0.1
	C-380.1,311.5-424.8,356.1-480,356.2z M-480,168.7c-48.4,0-87.6,39.1-87.6,87.5s39.1,87.6,87.5,87.6c48.4,0,87.6-39.1,87.6-87.5
	c0,0,0,0,0-0.1C-392.5,208-431.7,168.8-480,168.7L-480,168.7z M-480,315.7c-19.7,0-38.4-8.6-51.1-23.6c-2.3-2.6-2-6.6,0.7-8.9
	c2.6-2.3,6.6-2,8.9,0.7c19.5,23.1,54.1,25.9,77.1,6.4c2.3-1.9,4.4-4.1,6.4-6.4c2-2.8,5.8-3.5,8.6-1.5c2.8,2,3.5,5.8,1.5,8.6
	c-0.2,0.3-0.5,0.6-0.8,0.9C-441.6,306.9-460.3,315.6-480,315.7L-480,315.7z M-511.8,255.8c-5.5,0-10-4.5-10.1-10.1V232
	c0-5.6,4.5-10.1,10.1-10.1s10.1,4.5,10.1,10.1l0,0v13.7C-501.8,251.2-506.3,255.7-511.8,255.8z M-448.2,255.8
	c-5.5,0-10-4.5-10.1-10.1V232c0-5.6,4.5-10.1,10.1-10.1c5.6,0,10.1,4.5,10.1,10.1c0,0,0,0,0,0v13.7
	C-438.1,251.2-442.6,255.8-448.2,255.8C-448.2,255.8-448.2,255.8-448.2,255.8L-448.2,255.8z"/>
</svg>
