<?xml version="1.0" encoding="utf-8"?>
<!-- Generator: Adobe Illustrator 19.0.0, SVG Export Plug-In . SVG Version: 6.00 Build 0)  -->
<svg version="1.1" id="图层_1" xmlns="http://www.w3.org/2000/svg" xmlns:xlink="http://www.w3.org/1999/xlink" x="0px" y="0px"
	 viewBox="-580 156.2 200 200" style="enable-background:new -580 156.2 200 200;" xml:space="preserve">
<style type="text/css">
	.st0{fill:#ffffff;}
</style>
<path class="st0" d="M-417.9,315c-3.1-16.1-13-30.1-27.5-39.9c-2.5-1.5-5.7-0.8-7.2,1.7c-1.5,2.4-0.8,5.6,1.5,7.1
	c11.9,8.3,20.2,19.7,22.8,33.2c0.4,2.5,2.7,4.3,5.2,4.1h1C-419.2,320.6-417.4,317.8-417.9,315L-417.9,315z M-432.9,227.9
	c0.4-25.8-20.2-47-46-47.3c-25.8-0.4-47,20.2-47.3,46c0,0.5,0,0.9,0,1.4c-0.2,16.9,9,32.4,23.8,40.4c-20.1,7.8-34.8,25.4-38.9,46.7
	c-0.6,2.8,1.2,5.6,4,6.2h0.1h1c2.5,0.1,4.7-1.7,5.2-4.2c4.8-24.4,26-42.1,50.8-42.5h1c25.6-0.1,46.3-21,46.1-46.6v-0.1H-432.9z
	 M-479,264.1h-1.6c-20-0.6-35.8-17.3-35.2-37.3c0.6-20,17.3-35.8,37.3-35.2c19.6,0.6,35.3,16.6,35.3,36.3
	C-443.3,247.6-459.4,263.6-479,264.1L-479,264.1z"/>
</svg>
