<?xml version="1.0" encoding="utf-8"?>
<!-- Generator: Adobe Illustrator 19.0.0, SVG Export Plug-In . SVG Version: 6.00 Build 0)  -->
<svg version="1.1" id="图层_1" xmlns="http://www.w3.org/2000/svg" xmlns:xlink="http://www.w3.org/1999/xlink" x="0px" y="0px"
	 viewBox="-102 93.5 98 98" style="enable-background:new -97 98.5 88 88;" xml:space="preserve">
<style type="text/css">
	.st0{fill: none; stroke: #FFFFFF; stroke-width: 5;}
	.st1{fill:#FFFFFF;}
</style>
<circle class="st0" cx="-53" cy="142.5" r="44"/>
<path class="st1" d="M-40.6,113.5h-23.8c-3.1,0-5.6,2.2-5.6,4.9v49.1c0,2.7,2.5,5,5.6,5h23.8c3.1,0,5.6-2.3,5.6-5v-49.1
	C-35,115.7-37.5,113.5-40.6,113.5 M-55.5,117.3h6.7c0.6,0,1.1,0.4,1.1,1c0,0.5-0.5,1-1.1,1h-6.7c-0.6,0-1.1-0.4-1.1-1
	C-56.6,117.7-56.1,117.3-55.5,117.3 M-52.1,170.4c-1.8,0-3.4-1.3-3.4-2.9s1.5-2.9,3.4-2.9c1.8,0,3.3,1.3,3.3,2.9
	S-50.2,170.4-52.1,170.4 M-37.7,161.9h-29.6v-39h29.6V161.9z"/>
</svg>
