<?xml version="1.0" encoding="utf-8"?>
<!-- Generator: Adobe Illustrator 19.0.0, SVG Export Plug-In . SVG Version: 6.00 Build 0)  -->
<svg version="1.1" id="图层_1" xmlns="http://www.w3.org/2000/svg" xmlns:xlink="http://www.w3.org/1999/xlink" x="0px" y="0px"
	 viewBox="0 0 283.5 283.5" style="enable-background:new 0 0 283.5 283.5;" xml:space="preserve">
<style type="text/css">
	.st0{fill:#FFFFFF;}
</style>
<g id="XMLID_268_">
	<g id="XMLID_2627_">
		<path id="XMLID_2628_" class="st0" d="M117.1,55.7c0,0-0.4-3.6,3.1-5.1c0,0,2.9-1.1,5.6,1.6c2.7,2.7,32.4,32.9,32.4,32.9
			s2.7,2.7,6,0c10.3-8.7,20.8-17.2,31.1-26c2.9-2.5,6-6,9.6-7.6c2.7-1.3,6-1.3,8.7-1.3c7.8,0,32.9,0,32.9,0s6,0.4,6,5.8
			s0,155.5,0,155.5s-0.2,5.8-6,5.8c-5.8,0-32.7,0-32.7,0s-6-0.4-6-5.8c0-5.4,0-104,0-104s-0.9-1.6-2-0.7c-1.1,0.9-40,31.1-40,31.1
			s-4.5,4-9.6,0c-5.1-4-36.9-29.5-36.9-29.5s-2.5-1.8-2.5-6S117.1,55.7,117.1,55.7z"/>
	</g>
	<g id="XMLID_2625_">
		<path id="XMLID_2626_" class="st0" d="M72.3,50.3H105c0,0,6,0.2,6,5.8c0,5.8,0,155.3,0,155.3s0,5.8-6,5.8s-67.8,0-67.8,0
			s-6,0-6-5.8c0-5.8,0-31.3,0-31.3s0-5.8,6-5.8s29.1,0,29.1,0V56.1C66.3,56.1,66.5,50.3,72.3,50.3z"/>
	</g>
	<g id="XMLID_2139_">
		<g id="XMLID_2621_">
			<path id="XMLID_2622_" class="st0" d="M41.7,240.7c-0.2-0.9-0.7-1.6-1.3-2.2c-0.7-0.7-1.3-0.9-2-0.9H12.6c-0.9,0-1.6,0.2-2.2,0.9
				s-1.1,1.3-1.3,2.2l-4.5,11.9c-0.4,0.9-1.3,1.3-2.2,1.1H2.1c-0.9-0.2-1.3-1.3-1.1-2.2l4.5-11.9c0.4-1.6,1.3-2.7,2.7-3.8
				c1.1-1.1,2.7-1.6,4.5-1.6h25.5c1.6,0,3.1,0.4,4.5,1.6c1.1,1.1,2,2.5,2.7,3.8l4.5,11.9c0.4,0.9-0.2,2-1.1,2.2l0,0
				c-0.9,0.2-2-0.2-2.2-1.1L41.7,240.7z M38.8,279h8.7c0.9,0,1.8,0.7,1.8,1.8l0,0c0,1.1-0.9,1.8-1.8,1.8H3.2c-0.9,0-1.8-0.7-1.8-1.8
				l0,0c0-0.9,0.9-1.8,1.8-1.8h8.7h3.8h7.6v-16.6H5.6c-0.9,0-1.8-0.7-1.8-1.8l0,0c0-0.9,0.9-1.8,1.8-1.8h17.7v-8.1h-13
				c-1.1,0-1.8-0.9-1.8-1.8v-0.2c0-0.9,0.7-1.8,1.8-1.8h29.8c0.9,0,1.8,0.9,1.8,1.8v0.2c0,0.9-0.9,1.8-1.8,1.8h-13v8.1h17.7
				c0.9,0,1.8,0.9,1.8,1.8l0,0c0,1.1-0.9,1.8-1.8,1.8H27.1V279h7.6H38.8z"/>
		</g>
		<g id="XMLID_2148_">
			<path id="XMLID_2615_" class="st0" d="M75,239.8c1.1,0,1.8,0.9,1.8,1.8l0,0c0,0.9-0.7,1.8-1.8,1.8h-0.4c0,14.8-0.4,22.8-5.6,29.8
				l6.9,5.4c0.4,0.2,0.7,0.9,0.7,1.3s0,0.9-0.4,1.1l0,0c-0.4,0.4-0.9,0.7-1.6,0.7c-0.4,0-0.7,0-1.1-0.4l-7.2-5.6
				c-1.8,1.8-4,3.6-6.7,5.6c-0.2,0.2-0.7,0.2-1.1,0.2c-0.7,0-1.1-0.2-1.6-0.9l0,0c-0.2-0.2-0.2-0.7-0.2-0.9c0-0.7,0.2-1.1,0.7-1.6
				c2.2-1.6,4.3-2.9,6-4.7l-0.2-0.2c-4-3.1-4.3-6.9-4.3-11.4c0-0.9,0.2-1.8,0.2-2.7l0.4-15.9H58c-1.1,0-1.8-0.9-1.8-1.8l0,0
				c0-0.9,0.7-1.8,1.8-1.8h1.6l0.2-4.9c0-1.1,0.7-1.8,1.8-1.8s1.8,0.9,1.8,1.8l-0.2,4.9H75V239.8z M62.7,259.5c0,1.3,0,2.9,0,3.8
				c0,2.9,0.2,5.4,2.9,7.2l0.4,0.2c1.3-1.8,2.2-3.8,2.9-6c2-6.5,1.8-13.2,1.8-21.3h-7.6L62.7,259.5z M86.4,282.3
				c-4,0-6.9-3.1-6.9-6.9v-15.4h-0.2c-1.1,0-1.8-0.9-1.8-1.8l0,0c0-0.9,0.7-1.8,1.8-1.8h0.2v-15.4c0-3.8,3.1-6.9,6.9-6.9h11.2
				c3.8,0,6.9,3.1,6.9,6.9v15.4h0.2c1.1,0,1.8,0.9,1.8,1.8l0,0c0,0.9-0.7,1.8-1.8,1.8h-0.2v15.4c0,3.8-3.1,6.9-6.9,6.9H86.4z
				 M93.8,256.4h6.9v-15.4c0-1.8-1.3-3.1-3.1-3.1H86.4c-1.8,0-3.1,1.6-3.1,3.1v15.4h6.9H93.8z M90,260.2H83v15.4
				c0,1.8,1.6,3.1,3.1,3.1h11.2c1.8,0,3.1-1.6,3.1-3.1v-15.4h-6.9H90z"/>
		</g>
		<g id="XMLID_2146_">
			<path id="XMLID_2147_" class="st0" d="M11.7,275.4L9,268.9c-0.4-0.9,0-2,1.1-2.5l0,0c0.9-0.4,2,0,2.5,1.1l2.7,6.5
				c0.4,0.9,0,2-1.1,2.5l0,0C13.3,276.7,12.1,276.3,11.7,275.4z"/>
		</g>
		<g id="XMLID_2144_">
			<path id="XMLID_2145_" class="st0" d="M38.5,275.4l2.7-6.5c0.4-0.9,0-2-1.1-2.5l0,0c-0.9-0.4-2,0-2.5,1.1L35,274
				c-0.4,0.9,0,2,1.1,2.5l0,0C37,276.7,38.1,276.3,38.5,275.4z"/>
		</g>
		<g id="XMLID_2142_">
			<path id="XMLID_2143_" class="st0" d="M92,252.6L92,252.6c-1.1,0-1.8-0.9-1.8-1.8v-6.9c0-1.1,0.9-1.8,1.8-1.8l0,0
				c1.1,0,1.8,0.9,1.8,1.8v6.9C94,251.7,93.1,252.6,92,252.6z"/>
		</g>
		<g id="XMLID_2140_">
			<path id="XMLID_2141_" class="st0" d="M92,274.7L92,274.7c-1.1,0-1.8-0.9-1.8-1.8V266c0-1.1,0.9-1.8,1.8-1.8l0,0
				c1.1,0,1.8,0.9,1.8,1.8v6.9C94,273.8,93.1,274.7,92,274.7z"/>
		</g>
	</g>
	<g id="XMLID_2121_">
		<g id="XMLID_2136_">
			<path id="XMLID_2137_" class="st0" d="M125.1,272.2v-35.6c0-1.1,0.9-2.2,2.2-2.2s2.2,0.9,2.2,2.2v35.6c0,9.4-5.4,9.6-11.4,9.8
				c-1.3,0-2.2-0.9-2.2-2.2c0-0.7,0.2-1.1,0.7-1.6s0.9-0.7,1.6-0.7C121.8,277.6,125.1,277.2,125.1,272.2z"/>
		</g>
		<g id="XMLID_2133_">
			<path id="XMLID_2134_" class="st0" d="M145.7,279.9c0,1.1-0.9,2.2-2.2,2.2c-1.3,0-2.2-1.1-2.2-2.2v-33.1c0-1.1,0.9-2,2.2-2
				c1.3,0,2.2,0.9,2.2,2V279.9z"/>
		</g>
		<g id="XMLID_2130_">
			<path id="XMLID_2131_" class="st0" d="M190,278.3c0,2.2-1.6,3.4-2.9,3.4c-1.1,0-2.2-0.4-2.7-1.3l-23.7-36.5c0,12.1,0,23.9,0,36
				c0,0.7-0.2,1.1-0.7,1.6s-0.9,0.7-1.8,0.7c-1.3,0-2.2-0.9-2.2-2.2v-43.2c0-1.6,1.1-2.2,2.5-2.2c0.9,0,1.8,0.4,2.2,1.1l24.6,38.3
				v-37.1c0-1.1,1.1-2.2,2.5-2.2c1.1,0,2.2,1.1,2.2,2.2V278.3z"/>
		</g>
		<g id="XMLID_2127_">
			<path id="XMLID_2128_" class="st0" d="M235.6,243.6l-12.5,19.2c-0.4,0.7-1.3,1.3-2.5,1.3c-0.9,0-1.8-0.4-2.2-1.3l-12.5-19.2
				c0,12.1,0,24.2,0,36.2c0,0.4-0.2,1.1-0.7,1.6c-0.4,0.4-1.1,0.7-1.8,0.7c-1.1,0-2.2-0.9-2.2-2l-0.2-43c0-1.3,1.3-2.5,2.5-2.5
				c0.9,0,1.8,0.4,2.2,1.1l14.5,22.1c4.9-7.4,10.1-14.8,15-22.1c0.7-0.9,1.6-1.3,2.2-1.3c1.3,0,2.2,1.1,2.2,2.5v43
				c0,0.4-0.2,1.1-0.7,1.6s-1.1,0.7-1.8,0.7c-1.3,0-2.2-0.9-2.2-2L235.6,243.6z"/>
		</g>
		<g id="XMLID_2124_">
			<path id="XMLID_2125_" class="st0" d="M282.6,267.3c0.2,6.7-3.6,11.2-8.5,13.2c-2.2,0.9-4.5,1.3-6.9,1.3c-2.2,0-4.5-0.4-6.5-1.1
				c-5.4-2-9.6-6.3-9.6-13.2V236c0-1.1,0.9-2.2,2.2-2.2c1.3,0,2.2,1.1,2.2,2.2v31.5c0,6.7,5.8,10.1,11.6,9.8c1.8,0,3.4-0.4,4.9-1.1
				c3.4-1.3,6-4.5,5.8-8.9c0-2,0-11,0-19c0-2.5,0-4.9,0-6.9c0-2.2,0-4,0-5.4c0-1.1,0.9-2,2.2-2.2c0.7,0,1.3,0.2,1.6,0.7
				c0.2,0.4,0.7,0.9,0.7,1.6v31.3H282.6z"/>
		</g>
		<g id="XMLID_2122_">
			<ellipse id="XMLID_2123_" class="st0" cx="143.5" cy="236.7" rx="2.2" ry="2.2"/>
		</g>
	</g>
	<g id="XMLID_2119_">
		<path id="XMLID_2120_" class="st0" d="M105.2,0.9c0,0,5.8,0.2,5.8,5.8s0,31.3,0,31.3s-0.2,5.8-5.8,5.8c-5.6,0-33.6,0-33.6,0
			s-5.8-0.7-5.8-5.8c0-5.4,0-31.3,0-31.3s0.4-5.8,5.8-5.8C77.2,0.9,105.2,0.9,105.2,0.9z"/>
	</g>
</g>
</svg>
