<svg id="图层_1" data-name="图层 1" xmlns="http://www.w3.org/2000/svg" xmlns:xlink="http://www.w3.org/1999/xlink" viewBox="0 0 500 500"><defs><style>.cls-1{fill:none;}.cls-2{fill:#eee;}.cls-12,.cls-3{fill:#fff;}.cls-4{fill:#19a99d;}.cls-5{fill:#8e8e8e;}.cls-6{fill:#b3b3b3;}.cls-7{fill:#c9caca;}.cls-8{fill:#520a0f;opacity:0.8;}.cls-9{clip-path:url(#clip-path);}.cls-10{fill:url(#radial-gradient);}.cls-11,.cls-13{fill:#040000;}.cls-11{opacity:0.7;}.cls-12{opacity:0.25;}.cls-13{opacity:0.35;}.cls-14{clip-path:url(#clip-path-2);}.cls-15{fill:url(#radial-gradient-2);}</style><clipPath id="clip-path"><path class="cls-1" d="M167.82,169.71a34.8,34.8,0,1,0,68-3.95Z"/></clipPath><radialGradient id="radial-gradient" cx="201.88" cy="161.42" r="31.73" gradientTransform="translate(0 14.78) scale(1 0.98)" gradientUnits="userSpaceOnUse"><stop offset="0.02" stop-color="#fff"/><stop offset="0.38" stop-color="#fafcfb"/><stop offset="0.79" stop-color="#edf2f1"/><stop offset="1" stop-color="#e3ebea"/></radialGradient><clipPath id="clip-path-2"><path class="cls-1" d="M270.31,166.65a34.8,34.8,0,1,0,68-3.95Z"/></clipPath><radialGradient id="radial-gradient-2" cx="304.37" cy="161.42" r="31.73" xlink:href="#radial-gradient"/></defs><title>1</title><circle class="cls-2" cx="250" cy="250" r="250"/><path class="cls-3" d="M418.23,240.33c4.91,28,11.79,52.07-20.14,43.72s-55.67-46.18-55.67-46.18.87-16.06,11.33-11.23,36.49,27.44,36.49,27.44S377,229,377,222.15,418.23,240.33,418.23,240.33Z"/><path class="cls-4" d="M409.11,287.13a45.81,45.81,0,0,1-11.38-1.72c-32.1-8.4-55.53-45.23-56.51-46.79l-.24-.38,0-.45c0-.39.57-9.5,5.58-12.51,2.19-1.32,4.8-1.29,7.75.07,7.66,3.55,23.14,16.11,31.39,23-4-8.05-10.17-21.22-10.17-26.24a2.44,2.44,0,0,1,1.24-2.2c5.12-2.88,33.57,13.94,42.17,19.16l.55.33.11.63c.37,2.11.75,4.19,1.12,6.24,3,16.64,5.66,31-1.29,37.45C417,286,413.62,287.13,409.11,287.13ZM343.86,237.5c2.6,4,25.28,37.51,54.59,45.18,9.46,2.47,15.71,2.15,19.09-1,5.81-5.39,3.32-19.05.43-34.87-.34-1.85-.68-3.73-1-5.63-16.25-9.83-35.13-19.54-38.56-18.85.24,5.65,9.5,24.27,13.09,31.06l3.55,6.7-5.72-5c-.26-.23-26-22.52-36.15-27.22-2.08-1-3.75-1-5.1-.22C345.13,229.47,344.08,235,343.86,237.5Z"/><path class="cls-3" d="M420.73,243.5l2.2,11.38s-34.52,2.82-45.19-20.71c-.94-4.71-1.25-17.34-1.25-17.34S389.66,240.36,420.73,243.5Z"/><path class="cls-4" d="M419.18,256.41c-9.53,0-33.82-2-42.73-21.66l-.1-.31c-1-4.77-1.27-17.06-1.28-17.58l-.14-5.69,2.79,5c.13.23,13.23,22.94,43.15,26l1,.11,2.69,14-1.57.13C422.77,256.31,421.36,256.41,419.18,256.41Zm-40.08-22.68c8.92,19.38,35.37,20,42.13,19.8l-1.69-8.75a61.46,61.46,0,0,1-41.47-23.21A110.24,110.24,0,0,0,379.09,233.73Z"/><path class="cls-3" d="M421.57,200.1c10.71,1.94,29.73,9.35,33.66,12.05s31,4.63,39.05,16.5c3.92,7.65-2.09,11.53-2.09,11.53s-74.28-19.91-75.88-30.62S421.57,200.1,421.57,200.1Z"/><path class="cls-4" d="M492.44,241.71l-.61-.16c-12.55-3.37-75.27-20.71-76.92-31.78-.67-4.46,0-7.66,1.88-9.52a6.13,6.13,0,0,1,5-1.55c10.77,2,30,9.39,34.21,12.28.95.65,4.4,1.44,8.06,2.27,10.12,2.31,25.41,5.8,31.37,14.6,3.65,7.11,0,11.93-2.5,13.51Zm-71.51-40.24a3.08,3.08,0,0,0-2.18.84c-1.19,1.18-1.55,3.61-1,7,1.06,7.07,45.77,21.63,74.18,29.28,1.19-1,3.84-4,1.13-9.34-5.24-7.73-19.88-11.07-29.56-13.28-5-1.15-7.7-1.79-9-2.7-3.63-2.49-22.37-9.87-33.11-11.83A3.23,3.23,0,0,0,420.93,201.47Z"/><path class="cls-3" d="M480.27,247.44c7.39,2.83,12,4.65,12,4.65s8.7-13.8-4.23-20.61-28.19-8.08-28.19-8.08-12.75-7.77-20.55-8.68A86.18,86.18,0,0,0,427,214S433.5,229.54,480.27,247.44Z"/><path class="cls-4" d="M492.83,253.84l-1.09-.43s-4.6-1.82-12-4.65h0c-46.8-17.91-53.77-33.57-54-34.23l-.78-1.87,2-.09a89.6,89.6,0,0,1,12.48.74c7.45.88,18.85,7.52,20.84,8.71,2.38.23,16.26,1.82,28.39,8.21,3.93,2.07,6.42,5,7.4,8.59,1.83,6.83-2.44,13.73-2.63,14Zm-12.06-7.72c5.21,2,9,3.49,10.85,4.2,1-2,2.87-6.51,1.73-10.77-.76-2.83-2.77-5.12-6-6.81-12.53-6.6-27.5-7.91-27.65-7.93l-.33,0-.29-.17c-.12-.07-12.58-7.62-20-8.49-4.23-.5-7.48-.66-9.53-.72,3.46,4.66,15.39,17,51.19,30.71Z"/><path class="cls-3" d="M378,223c-5.3-7.41-1.57-23.1,14.56-26.63s26.88-16.46,27.84-21.74,20.19-.37,17.5,9.56-8.45,14-8.45,14l-4.9,2.58s23,19.44,17.3,31.31S378,223,378,223Z"/><path class="cls-4" d="M431.37,237c-17.86,0-49.23-11.06-53.8-12.71l-.41-.15-.26-.36c-2.86-4-3.32-9.9-1.21-15.39,2.62-6.8,8.67-11.7,16.62-13.44,15.81-3.46,25.92-16,26.75-20.61a3.85,3.85,0,0,1,2.83-2.93c3.56-1.17,10.58.43,14.66,4.3a8.69,8.69,0,0,1,2.78,8.81c-2.79,10.3-8.75,14.61-9,14.79L427.06,201c5.24,4.77,21.34,20.7,16.11,31.62C441.67,235.8,437.25,237,431.37,237ZM379,221.78c22.06,7.9,58,17.41,61.67,9.66,4.28-8.93-10.77-24.41-16.94-29.61l-1.6-1.35,6.75-3.56h0s5.26-3.93,7.75-13.12c.59-2.18-.08-4.2-2-6-3.27-3.1-9.15-4.54-11.83-3.67-.84.27-.9.63-.92.74-1.06,5.85-12.23,19.22-28.93,22.87-7,1.53-12.31,5.79-14.58,11.69C376.63,213.79,376.89,218.59,379,221.78Z"/><path class="cls-3" d="M378.8,228.55c-7.45-12.78,16.45-27.28,38.88-14.28,9.41,6.67,12.41,7.21,12.41,7.21s9.51,1.23,17.13,5.59c9.43-.77,29.14,5.28,32.63,15.34S475.36,255,475.36,255s-22.52-10-32-11.74S394,254.62,378.8,228.55Z"/><path class="cls-4" d="M475.27,256.49l-.49-.22c-.22-.1-22.48-10-31.63-11.64-2-.38-6.13.07-10.84.59-16,1.75-42.71,4.67-54.74-16h0c-2.76-4.74-1.84-10.15,2.46-14.46,7.35-7.37,23.29-10.49,38.35-1.76,8.92,6.31,12,7,12,7a54.6,54.6,0,0,1,17.18,5.53c9.88-.57,29.92,5.58,33.64,16.31,1.31,3.76,1.29,7-.06,9.71a9.77,9.77,0,0,1-5.34,4.68Zm-34.1-14.83a14.23,14.23,0,0,1,2.49.18c8.77,1.59,28.12,10,31.72,11.6a7,7,0,0,0,3.23-3.1c1-2,.94-4.48-.1-7.47-3.3-9.51-22.45-15.08-31.18-14.39l-.44,0-.38-.22c-7.28-4.16-16.52-5.4-16.61-5.41-.41-.07-3.65-.8-13-7.46-13.73-7.95-28.22-5.24-34.82,1.38-3.39,3.4-4.12,7.42-2,11h0c11.09,19,36.69,16.24,52,14.56C435.68,242,438.8,241.66,441.17,241.66Z"/><path class="cls-3" d="M83.51,236c-4.91,28-11.79,52.07,20.14,43.72s55.67-46.18,55.67-46.18-.88-16.06-11.33-11.23-36.49,27.44-36.49,27.44,13.26-25.05,13.26-31.93S83.51,236,83.51,236Z"/><path class="cls-4" d="M92.63,282.85c-4.51,0-7.93-1.12-10.35-3.36C75.33,273,78,258.68,81,242c.37-2.05.75-4.13,1.12-6.24l.11-.63.55-.33c8.6-5.22,37-22,42.17-19.16a2.44,2.44,0,0,1,1.24,2.2c0,5-6.16,18.19-10.17,26.24,8.25-6.92,23.73-19.48,31.39-23,3-1.37,5.56-1.39,7.75-.07,5,3,5.56,12.12,5.58,12.51l0,.45-.24.38c-1,1.56-24.41,38.4-56.51,46.79A45.81,45.81,0,0,1,92.63,282.85ZM84.8,236.92c-.34,1.9-.68,3.77-1,5.62-2.89,15.82-5.38,29.48.43,34.87,3.38,3.13,9.62,3.46,19.09,1,29.31-7.67,52-41.2,54.59-45.18-.22-2.51-1.28-8-4.19-9.79-1.36-.82-3-.75-5.1.22-10.15,4.7-35.9,27-36.15,27.22l-5.72,5,3.55-6.7c3.6-6.8,12.86-25.44,13.09-31.06C119.93,217.35,101.05,227.09,84.8,236.92Z"/><path class="cls-3" d="M81,239.21l-2.2,11.38s34.52,2.82,45.19-20.71c.94-4.71,1.25-17.34,1.25-17.34S112.09,236.07,81,239.21Z"/><path class="cls-4" d="M82.57,252.13c-2.18,0-3.59-.11-3.86-.13l-1.57-.13,2.69-14,1-.11c29.93-3,43-25.73,43.15-26l2.79-5-.14,5.68c0,.52-.33,12.81-1.28,17.58l-.1.31C116.39,250.13,92.1,252.13,82.57,252.13Zm-2-2.88c6.78.19,33.21-.43,42.13-19.8a110.24,110.24,0,0,0,1-12.15,61.46,61.46,0,0,1-41.47,23.21Z"/><path class="cls-3" d="M80.17,195.82c-10.71,1.94-29.73,9.35-33.66,12.05s-31,4.63-39.06,16.5C3.53,232,9.54,235.89,9.54,235.89S83.83,216,85.43,205.28,80.17,195.82,80.17,195.82Z"/><path class="cls-4" d="M9.3,237.42l-.53-.34c-2.45-1.58-6.15-6.4-2.58-13.36,6-9,21.33-12.44,31.45-14.75,3.66-.83,7.11-1.62,8.06-2.27,4.22-2.89,23.44-10.32,34.21-12.28h0a6.12,6.12,0,0,1,5,1.55c1.92,1.86,2.55,5.06,1.88,9.52-1.65,11.06-64.36,28.41-76.92,31.77Zm71.11-40.22c-10.74,2-29.47,9.34-33.11,11.83-1.33.91-4,1.55-9,2.7-9.69,2.21-24.32,5.55-29.65,13.43-2.63,5.16,0,8.17,1.22,9.19C38.26,226.69,83,212.15,84,205.07c.51-3.43.16-5.87-1-7A3.21,3.21,0,0,0,80.41,197.21Z"/><path class="cls-3" d="M21.48,243.16c-7.39,2.83-12,4.65-12,4.65S.79,234,13.72,227.2s28.19-8.08,28.19-8.08,12.75-7.77,20.55-8.68a86.18,86.18,0,0,1,12.26-.73S68.25,225.26,21.48,243.16Z"/><path class="cls-4" d="M8.92,249.56l-.63-1c-.18-.29-4.46-7.19-2.63-14,1-3.63,3.46-6.52,7.4-8.59,12.13-6.39,26-8,28.4-8.21,2-1.19,13.39-7.83,20.84-8.71a89,89,0,0,1,12.48-.74l2,.09L76,210.24c-.27.66-7.25,16.32-54,34.23h0c-7.38,2.82-12,4.65-12,4.65Zm63.24-38.44c-2,.05-5.3.22-9.53.72-7.41.87-19.86,8.41-20,8.49l-.28.17-.33,0c-.15,0-15.13,1.34-27.65,7.93-3.2,1.69-5.21,4-6,6.81-1.15,4.26.73,8.8,1.73,10.77,1.81-.71,5.63-2.21,10.85-4.2h0C56.76,228.14,68.69,215.79,72.16,211.12Z"/><path class="cls-3" d="M123.7,218.68c5.3-7.41,1.57-23.1-14.56-26.63S82.26,175.6,81.3,170.31s-20.19-.37-17.5,9.56,8.45,14,8.45,14l4.9,2.58s-23,19.44-17.3,31.31S123.7,218.68,123.7,218.68Z"/><path class="cls-4" d="M70.38,232.72c-5.89,0-10.3-1.2-11.8-4.34-5.24-10.92,10.86-26.85,16.1-31.62l-3.09-1.63c-.41-.27-6.37-4.58-9.16-14.89a8.69,8.69,0,0,1,2.78-8.81c4.08-3.87,11.1-5.47,14.66-4.3a3.85,3.85,0,0,1,2.83,2.93c.83,4.6,10.94,17.15,26.75,20.61,7.94,1.74,14,6.63,16.62,13.43,2.12,5.49,1.65,11.39-1.21,15.4l-.26.36-.41.15C119.61,221.66,88.24,232.72,70.38,232.72Zm6.72-63.15a15.93,15.93,0,0,0-9.94,3.92c-1.91,1.82-2.58,3.84-2,6,2.5,9.26,7.85,13.18,7.91,13.22l6.59,3.46-1.6,1.35c-6.16,5.21-21.21,20.7-16.94,29.61,3.72,7.75,39.61-1.75,61.67-9.66,2.06-3.19,2.32-8,.63-12.38-2.27-5.9-7.58-10.16-14.58-11.69-16.7-3.65-27.87-17-28.93-22.87,0-.12-.08-.47-.92-.74A6.17,6.17,0,0,0,77.1,169.57Z"/><path class="cls-3" d="M122.95,224.27C130.4,211.49,106.5,197,84.07,210c-9.41,6.67-12.41,7.21-12.41,7.21s-9.51,1.23-17.13,5.59c-9.43-.77-29.14,5.28-32.63,15.34s4.49,12.58,4.49,12.58,22.52-10,32-11.74S107.76,250.34,122.95,224.27Z"/><path class="cls-4" d="M26.47,252.21,26,252a9.77,9.77,0,0,1-5.34-4.68c-1.35-2.68-1.37-5.94-.06-9.71,3.72-10.73,23.72-16.91,33.64-16.31a54.75,54.75,0,0,1,17.28-5.55h0s3-.77,11.78-7c15.18-8.79,31.11-5.67,38.46,1.69,4.3,4.31,5.22,9.72,2.46,14.46h0c-12,20.63-38.76,17.7-54.74,16-4.71-.51-8.79-1-10.84-.59C49.44,242,27.19,251.89,27,252Zm26.35-28.08c-9.26,0-26.48,5.48-29.59,14.45-1,3-1.07,5.54-.08,7.51a7,7,0,0,0,3.22,3.07c3.6-1.59,23-10,31.72-11.6,2.46-.45,6.52,0,11.66.56,15.29,1.67,40.89,4.47,52-14.56h0c2.11-3.61,1.37-7.64-2-11-6.6-6.62-21.09-9.33-34.93-1.31-9.29,6.59-12.53,7.32-12.87,7.38-.16,0-9.41,1.26-16.68,5.42l-.38.22-.44,0C53.91,224.15,53.38,224.13,52.82,224.13Z"/><path id="_复合路径_" data-name="&lt;复合路径&gt;" class="cls-4" d="M368.4,266.08V197.26a108.12,108.12,0,0,0-108-108H240.91a108.12,108.12,0,0,0-108,108v68.82A108.16,108.16,0,0,0,205.2,368a161,161,0,0,0-4,20.87c-1.12,8.44-2.44,17-3.33,25.49h-.14c-15.45-.79-32.63,2.75-47.12,7.08-4.43,1.32-13.63,5.11-18.79,10-2.49,2.37-4,5-3.64,7.73.29,2,1.63,4.14,4.47,6.24,5.26,3.9,13,4.64,19.56,5.08l2.07.14a168.64,168.64,0,0,0,32-1.39c9.13-1.15,18.38-2.81,27-6l.29-.1c6.85-2.58,12.17-6.13,11.36-14.29a13.14,13.14,0,0,0-.55-2.64,12.59,12.59,0,0,0-1.35-2.92,16.82,16.82,0,0,0-9-6.65c.31-2.16.4-4.38.59-6.52.5-5.52,1-11,1.65-16.53q.82-7.42,1.82-14.83c.16-1.17.3-2.33.46-3.5,0-.17.05-.33.08-.5q.22-1.44.46-2.87a108.06,108.06,0,0,0,21.8,2.21H260.4a108.37,108.37,0,0,0,16.25-1.22c-3,6.93-4.22,15-5.45,22.26-.61,3.74-1.19,7.49-1.91,11.21a35.21,35.21,0,0,1-1.54,4.68c-6.28.34-13.35,3.33-16.31,8.84-3.23,6,2.58,11.31,7.29,13.84,7.69,4.15,17.31,5.52,25.75,7.13a210.38,210.38,0,0,0,41,3.93c7.1-.05,14.82.14,21.27-3.26,7.8-4.11,3.24-10.13-2-13.76-8.12-5.64-18.57-7.74-27.89-10.51-6.25-1.86-12.48-3.78-18.85-5.27a82.94,82.94,0,0,0-9.28-1.56c-2.79-.31-5.43.46-8.13.53,1.56-6.8,3.09-13.62,4.74-20.41,1.7-7,4.2-13.86,6-20.84h-.42A108.17,108.17,0,0,0,368.4,266.08Zm-108,105.17H240.91A105.28,105.28,0,0,1,135.75,266.08V197.26A105.28,105.28,0,0,1,240.91,92.1H260.4A105.28,105.28,0,0,1,365.57,197.26v68.82A105.28,105.28,0,0,1,260.4,371.25Z"/><rect id="_矩形_" data-name="&lt;矩形&gt;" class="cls-3" x="134.33" y="90.68" width="232.65" height="281.98" rx="106.58" ry="106.58"/><path id="_路径_" data-name="&lt;路径&gt;" class="cls-4" d="M249.34,220.14c-66.43,0-106.58,51.87-106.58,0V200.1c0-51.83,42.41-94.24,94.24-94.24h24.69c51.83,0,94.24,42.41,94.24,94.24v20.08C355.92,272,315.77,220.14,249.34,220.14Z"/><g id="_编组_" data-name="&lt;编组&gt;"><path id="_路径_2" data-name="&lt;路径&gt;" class="cls-4" d="M241,256.69a1.67,1.67,0,0,1,1-1.73,1.8,1.8,0,0,1,1.89.55c.94.94,10.85,11,10.85,11a1.46,1.46,0,0,0,2,0l10.4-8.64a18.48,18.48,0,0,1,3.22-2.57,6.86,6.86,0,0,1,2.95-.48h11s2,.13,2,2v51.95a2,2,0,0,1-2,2H273.4s-2-.12-2-2V274s-.27-.55-.69-.23l-13.37,10.41a2.47,2.47,0,0,1-3.19,0l-12.3-9.85a2.49,2.49,0,0,1-.83-2Z"/><path id="_路径_3" data-name="&lt;路径&gt;" class="cls-5" d="M226.1,254.88H237a2,2,0,0,1,2,2V308.7a1.94,1.94,0,0,1-2,2H214.36a2,2,0,0,1-2-2V298.24a2,2,0,0,1,2-2h9.72V256.85A2,2,0,0,1,226.1,254.88Z"/><path id="_路径_4" data-name="&lt;路径&gt;" class="cls-5" d="M237.06,238.4a2,2,0,0,1,2,2v10.48a2,2,0,0,1-2,2H225.85s-2-.19-2-2V240.36s.13-2,2-2Z"/></g><path id="_路径_5" data-name="&lt;路径&gt;" class="cls-6" d="M134.33,232.72v33.37c0,58.62,48,106.58,106.58,106.58H260.4C319,372.66,367,324.7,367,266.08V232.72c0,93.69-70.43,124.35-116.32,124.35S134.33,324.64,134.33,232.72Z"/><g id="_编组_2" data-name="&lt;编组&gt;"><g id="_编组_3" data-name="&lt;编组&gt;"><path id="_路径_6" data-name="&lt;路径&gt;" class="cls-3" d="M197.85,124.92a241.54,241.54,0,0,1-30.6-1.91,1.53,1.53,0,0,1-.61-2.83l9.77-6a1.53,1.53,0,0,1,.66-.22c.7-.07,70.1-6.87,92.77-31.06a1.54,1.54,0,0,1,1.12-.48,1.56,1.56,0,0,1,.32,0,1.53,1.53,0,0,1,1.13,1c.07.2,7.2,20.25,16.33,23.08a1.53,1.53,0,0,1,.11,2.89C288.45,109.57,248.67,124.92,197.85,124.92Z"/></g><g id="_编组_4" data-name="&lt;编组&gt;"><path id="_复合路径_2" data-name="&lt;复合路径&gt;" class="cls-4" d="M271,84s7.34,20.95,17.32,24c0,0-39.32,15.39-90.44,15.39a239.14,239.14,0,0,1-30.4-1.9l9.77-6S247.62,108.85,271,84m0-3.07a3.07,3.07,0,0,0-2.24,1c-22.27,23.76-91.11,30.52-91.8,30.58a3.07,3.07,0,0,0-1.32.44l-9.77,6a3.07,3.07,0,0,0,1.21,5.66,243.07,243.07,0,0,0,30.79,1.93c51.11,0,91.15-15.45,91.55-15.6a3.07,3.07,0,0,0-.21-5.79c-3.26-1-7-5.17-10.62-11.72a78.54,78.54,0,0,1-4.71-10.4A3.07,3.07,0,0,0,271,80.88Z"/></g></g><g id="_编组_5" data-name="&lt;编组&gt;"><g id="_编组_6" data-name="&lt;编组&gt;"><circle id="_路径_7" data-name="&lt;路径&gt;" class="cls-3" cx="288.29" cy="89.73" r="33.28"/><path id="_复合路径_3" data-name="&lt;复合路径&gt;" class="cls-4" d="M288.29,124.55A34.82,34.82,0,1,1,323.1,89.73,34.85,34.85,0,0,1,288.29,124.55Zm0-66.56A31.75,31.75,0,1,0,320,89.73,31.78,31.78,0,0,0,288.29,58Z"/></g><g id="_编组_7" data-name="&lt;编组&gt;"><g id="_编组_8" data-name="&lt;编组&gt;"><path id="_路径_8" data-name="&lt;路径&gt;" class="cls-7" d="M288.29,109.52a19.79,19.79,0,1,1,19.79-19.79A19.82,19.82,0,0,1,288.29,109.52Z"/></g><g id="_编组_9" data-name="&lt;编组&gt;"><path id="_复合路径_4" data-name="&lt;复合路径&gt;" class="cls-4" d="M288.29,71.47A18.26,18.26,0,1,1,270,89.73a18.26,18.26,0,0,1,18.26-18.26m0-3.07a21.33,21.33,0,1,0,21.33,21.33A21.35,21.35,0,0,0,288.29,68.4Z"/></g></g></g><path id="_路径_9" data-name="&lt;路径&gt;" class="cls-3" d="M214.79,376.63c-.19,1-.36,2-.54,3-.69,3.84-1.32,7.7-1.84,11.56q-1.09,8.27-2,16.55a72.66,72.66,0,0,0-.74,7.84,17.55,17.55,0,0,0,.13,2.29,12.91,12.91,0,0,0,.93,3.46,1.19,1.19,0,0,0,2.05,0,14.09,14.09,0,0,0,.6-1.74,21.15,21.15,0,0,1,4.45,3.61c2.88,3.12,4.33,7,1.47,10.56-1.51,1.86-4.19,3-6.34,3.9-7.07,3-14.83,4.43-22.35,5.65-16.26,2.68-35.49,4.62-51.52-.31-5.08-1.57-7.9-5.08-3.92-9.49l.25-.29c3.91-4.08,9.78-6.35,15.49-8,2.29-.67,4.56-1.25,6.67-1.81a232.9,232.9,0,0,1,24.48-5.17,156.11,156.11,0,0,1,15.57-1.61c-.07.85-.16,1.7-.22,2.56-.18,2.09,3.09,2.45,3.6.49.29-1.1.54-2.21.76-3.33A.92.92,0,0,0,202,415c1.29-7.12,1.61-14.57,2.28-21.69.54-5.73,1.24-11.42,2.15-17.1.27-1.64,1.16-4.79,1.79-7.18,2.49.79,5,1.48,7.59,2.09C215.44,373,215.13,374.83,214.79,376.63Z"/><path id="_路径_10" data-name="&lt;路径&gt;" class="cls-3" d="M286.85,372.25c-1.84,4.93-3.14,10.15-4.5,15.1-2,7.4-3.73,14.88-5.44,22.36-.24,1.08-.49,2.15-.74,3.23-.56,2.43,3.16,3.46,3.74,1,.06-.3.14-.6.2-.9l.17,0c4,.6,8,1.17,11.91,1.85a131.31,131.31,0,0,1,13.54,3c4.72,1.32,9.43,2.71,14.13,4.13,2.72.82,5.44,1.64,8.14,2.49,2.13.67,12.08,4.09,16.44,7.36,1.54,1.15,2.38,2.29,1.93,3.27-2.28,5-13.51,4.43-18,4.45a249.68,249.68,0,0,1-55.19-5.75c-5.39-1.18-10.92-2.5-15.62-5.52-4.93-3.15-3.95-6.52-.85-9.22A25.44,25.44,0,0,1,267,414.21a5.82,5.82,0,0,0,0,.8,1.66,1.66,0,0,0,2.06,1.58c2.5-.89,3.78-4.1,4.52-7.64s.9-7.39,1.19-9.53c.56-4.09,1.23-8.15,1.86-12.24s1.87-8.28,2.5-12.45q.17-1.17.27-2.35c2.73-.49,5.43-1,8.08-1.73C287.27,371.17,287,371.7,286.85,372.25Z"/><g id="_编组_10" data-name="&lt;编组&gt;"><path class="cls-3" d="M111.5,274.08v0h0Z"/></g><path id="_路径_11" data-name="&lt;路径&gt;" class="cls-3" d="M139.18,233.12h-.06l.06,0Z"/><path id="_路径_12" data-name="&lt;路径&gt;" class="cls-3" d="M139,233.08h.09Z"/><path class="cls-7" d="M224.29,161.27l.17-5.22s-30,7.47-49.95-2.25C192.51,164.73,213.9,163.45,224.29,161.27Z"/><path class="cls-8" d="M171.56,150.52c17.73,6.36,41.64,0,56.53-6.14,1.26,5.77,1.87,10.75,1.87,10.75S189.05,171,171.56,150.52Z"/><path class="cls-7" d="M281.65,148.7l1.16-5.09s27.1,14.81,48.89,10.47C311.51,160.1,291.15,153.44,281.65,148.7Z"/><path class="cls-8" d="M335.39,151.66c-18.76,1.66-40.29-10.52-53.14-20.25-2.68,5.27-4.52,9.93-4.52,9.93S313.28,167,335.39,151.66Z"/><g class="cls-9"><ellipse class="cls-10" cx="201.88" cy="173.5" rx="32.32" ry="30.61"/><ellipse class="cls-8" cx="208" cy="173.5" rx="22.24" ry="21.06"/><ellipse class="cls-11" cx="208" cy="175.03" rx="17.67" ry="16.73"/><path class="cls-12" d="M217.24,171.52a8.8,8.8,0,0,1,.21,1.9,9.24,9.24,0,0,1-18.48,0c0-.15,0-.29,0-.43a83.35,83.35,0,0,0-11,3.31c1.79,9.94,10,17.47,19.89,17.47,10.72,0,19.4-8.87,20.12-20.07A46.9,46.9,0,0,0,217.24,171.52Z"/><path class="cls-13" d="M208.62,169.67a6.47,6.47,0,1,0,6.54,6.47A6.51,6.51,0,0,0,208.62,169.67Zm3.81,11.57a2.57,2.57,0,0,1-3.56-.36,2.51,2.51,0,0,1,1.11-3.37,2.59,2.59,0,0,1,3.57.35A2.53,2.53,0,0,1,212.43,181.25Z"/><path class="cls-3" d="M204.45,159.53c2.78,2.55,2.38,7.58-.92,11.24s-8.19,4.52-11,2-2.38-7.58.92-11.22S201.68,157,204.45,159.53Z"/><path class="cls-3" d="M221.62,182.43c1,.93.87,2.78-.34,4.11s-3,1.66-4,.72-.87-2.78.34-4.11S220.6,181.49,221.62,182.43Z"/></g><g class="cls-14"><ellipse class="cls-15" cx="304.37" cy="173.5" rx="32.32" ry="30.61"/><ellipse class="cls-8" cx="310.49" cy="173.5" rx="22.24" ry="21.06"/><ellipse class="cls-11" cx="310.49" cy="175.03" rx="17.67" ry="16.73"/><path class="cls-12" d="M319.73,171.52a8.8,8.8,0,0,1,.21,1.9,9.24,9.24,0,0,1-18.48,0c0-.15,0-.29,0-.43a83.35,83.35,0,0,0-11,3.31c1.79,9.94,10,17.47,19.89,17.47,10.72,0,19.4-8.87,20.12-20.07A46.9,46.9,0,0,0,319.73,171.52Z"/><path class="cls-13" d="M311.1,169.67a6.47,6.47,0,1,0,6.54,6.47A6.51,6.51,0,0,0,311.1,169.67Zm3.81,11.57a2.57,2.57,0,0,1-3.56-.36,2.51,2.51,0,0,1,1.11-3.37,2.59,2.59,0,0,1,3.57.35A2.53,2.53,0,0,1,314.92,181.25Z"/><path class="cls-3" d="M306.94,159.53c2.78,2.55,2.38,7.58-.92,11.24s-8.19,4.52-11,2-2.38-7.58.92-11.22S304.16,157,306.94,159.53Z"/><path class="cls-3" d="M324.1,182.43c1,.93.87,2.78-.34,4.11s-3,1.66-4,.72-.87-2.78.34-4.11S323.09,181.49,324.1,182.43Z"/></g></svg>