<svg xmlns="http://www.w3.org/2000/svg" xmlns:xlink="http://www.w3.org/1999/xlink" preserveAspectRatio="xMidYMid" width="48" height="50" viewBox="0 0 48 50">
  <defs>
    <style>
      .cls-1 {
        fill: #ffffff;
        fill-rule: evenodd;
      }
    </style>
  </defs>
  <path d="M40.563,23.239 L40.563,5.780 C40.563,2.592 37.966,-0.000 34.768,-0.000 L-0.000,-0.000 L-0.000,38.140 C-0.000,41.327 2.590,43.906 5.788,43.906 L20.188,43.906 L20.528,43.559 L40.563,23.239 L40.563,23.239 ZM19.213,41.601 L5.788,41.601 C3.872,41.601 2.316,40.057 2.316,38.146 L2.316,2.312 L34.775,2.312 C36.691,2.312 38.246,3.862 38.246,5.780 L38.246,22.290 L19.213,41.601 ZM47.179,30.382 L41.724,24.943 L40.903,25.758 L24.427,42.182 L24.360,42.523 L23.199,48.303 L22.858,50.000 L30.703,48.436 L30.950,48.189 L48.000,31.197 L47.179,30.382 L47.179,30.382 ZM42.886,33.035 L39.888,30.048 L41.724,28.211 L44.722,31.198 L42.886,33.035 ZM29.561,46.312 L25.816,47.060 L26.564,43.325 L38.247,31.678 L41.244,34.665 L29.561,46.312 ZM19.701,29.681 C18.819,29.681 18.118,30.389 18.118,31.257 L18.118,31.678 C18.118,32.547 18.826,33.255 19.701,33.255 C20.582,33.255 21.283,32.547 21.283,31.678 L21.283,31.257 C21.283,30.382 20.575,29.681 19.701,29.681 L19.701,29.681 ZM20.061,9.248 C15.187,9.167 12.751,11.773 12.751,17.058 C12.751,17.058 12.878,18.148 14.099,18.148 C15.321,18.148 15.395,17.058 15.395,17.058 C15.315,13.531 16.957,11.854 20.308,12.021 C22.545,12.274 23.700,13.531 23.779,15.796 C23.626,16.805 22.778,18.114 21.270,19.705 C19.273,21.723 18.272,23.527 18.272,25.117 L18.272,26.754 C18.272,26.754 18.426,27.730 19.527,27.730 C20.629,27.730 20.782,26.754 20.782,26.754 L20.782,25.618 C20.782,24.288 21.737,22.685 23.660,20.834 C25.662,18.990 26.664,17.306 26.664,15.796 C26.490,11.606 24.300,9.421 20.061,9.248 L20.061,9.248 Z" class="cls-1"/>
</svg>
