<?xml version="1.0" encoding="utf-8"?>
<!-- Generator: Adobe Illustrator 19.0.0, SVG Export Plug-In . SVG Version: 6.00 Build 0)  -->
<svg version="1.1" id="图层_1" xmlns="http://www.w3.org/2000/svg" xmlns:xlink="http://www.w3.org/1999/xlink" x="0px" y="0px"
	 viewBox="149.4 -4.5 55.2 55.5" style="enable-background:new 149.4 -4.5 55.2 55.5;" xml:space="preserve">
<style type="text/css">
	.st0{fill:#FFFFFF;}
</style>
<path class="st0" d="M172.8,51v-3.6h2.7V51h4.6v-4.6h-3.6v-2.7h6.4V51h8.5v-6.6h2.4V51h10.8V40.2H198v-2.4h6.6v-8.7h-7.3v-6.4h2.7
	v3.6h4.6v-4.6H201V19h3.6V-4.5h-0.9V18h-3.6v3.6h-3.6v8.2h7.3v6.8h-5.7v-3.3h-4.2v3.3h-3.3v3.3h-3.3v4.2h3.3v5.7H184v-7.3h-8.2v3.6
	h-3.6h-0.3v4h-22.5V51H172.8z M176.8,47.1h2.7v2.7h-2.7V47.1z M201.2,22.5h2.7v2.7h-2.7V22.5z M194.9,34.2h2.4v2.4h-2.4V34.2z
	 M194.9,37.5h2.4v2.4h-2.4V37.5z M194.9,40.8h2.4v2.4h-2.4V40.8z M194.9,44.1h3.3v-3.3h5.7v9h-9V44.1z M191.6,37.5h2.4v2.4h-2.4
	V37.5z M191.6,40.8h2.4v2.4h-2.4V40.8z M188.3,43.2v-2.4h2.4v2.4H188.3z"/>
</svg>
