<?xml version="1.0" encoding="utf-8"?>
<!-- Generator: Adobe Illustrator 19.0.0, SVG Export Plug-In . SVG Version: 6.00 Build 0)  -->
<svg version="1.1" id="图层_1" xmlns="http://www.w3.org/2000/svg" xmlns:xlink="http://www.w3.org/1999/xlink" x="0px" y="0px"
	 viewBox="149.4 -4.5 55.2 55.5" style="enable-background:new 149.4 -4.5 55.2 55.5;" xml:space="preserve">
<style type="text/css">
	.st0{fill:#FFFFFF;}
</style>
<path class="st0" d="M181.2-4.5v3.6h-2.7v-3.6h-4.6v4.6h3.6v2.7h-6.4v-7.3h-8.5v6.6h-2.4v-6.6h-10.8V6.3h6.6v2.4h-6.6v8.7h7.3v6.4
	H154v-3.6h-4.6v4.6h3.6v2.7h-3.6V51h0.9V28.5h3.6v-3.6h3.6v-8.2h-7.3V9.9h5.7v3.3h4.2V9.9h3.3V6.6h3.3V2.4h-3.3v-5.7h6.6V4h8.2V0.4
	h3.6h0.3v-4h22.5v-0.9H181.2z M177.2-0.6h-2.7v-2.7h2.7V-0.6z M152.8,24h-2.7v-2.7h2.7V24z M159.1,12.3h-2.4V9.9h2.4V12.3z M159.1,9
	h-2.4V6.6h2.4V9z M159.1,5.7h-2.4V3.3h2.4V5.7z M159.1,2.4h-3.3v3.3h-5.7v-9h9V2.4z M162.4,9H160V6.6h2.4V9z M162.4,5.7H160V3.3h2.4
	V5.7z M165.7,3.3v2.4h-2.4V3.3H165.7z"/>
</svg>
