<?xml version="1.0" encoding="utf-8"?>
<!-- Generator: Adobe Illustrator 19.0.0, SVG Export Plug-In . SVG Version: 6.00 Build 0)  -->
<svg version="1.1" id="图层_1" xmlns="http://www.w3.org/2000/svg" xmlns:xlink="http://www.w3.org/1999/xlink" x="0px" y="0px"
	 viewBox="30 -30 100 100" style="enable-background:new 30 -30 100 100;" xml:space="preserve">
<style type="text/css">
	.st0{fill:#8865B3;}
	.st1{fill:#FFFFFF;}
</style>
<circle class="st0" cx="80" cy="20" r="50"/>
<path class="st1" d="M79.1,9.4c-3.3,0-6.5,1.3-8.8,3.6l-9.7,9.7c-4.8,4.8-4.9,12.7,0,17.5c2.3,2.3,5.5,3.7,8.8,3.6
	c3.3,0,6.4-1.3,8.7-3.6l2.5-2.5c0.7-0.7,0.7-2,0-2.7s-1.9-0.7-2.7,0l-2.5,2.5c-3.4,3.3-8.8,3.3-12.1,0c-1.6-1.6-2.5-3.8-2.5-6.1
	c0-2.3,0.9-4.5,2.5-6.1l9.7-9.7c1.6-1.6,3.8-2.5,6.1-2.5c3.1,0,6,1.7,7.5,4.4c0.5,0.9,1.7,1.2,2.6,0.7s1.2-1.7,0.7-2.6
	C87.8,11.9,83.6,9.4,79.1,9.4z"/>
<path class="st1" d="M100.4,0.6L100.4,0.6c-4.8-4.8-12.7-4.9-17.5-0.1L81,2.3C80.2,3,80.2,4.2,81,5c0.7,0.8,1.9,0.8,2.7,0l1.9-1.8
	l0,0c3.4-3.3,8.8-3.3,12.1,0l0,0c1.6,1.6,2.5,3.8,2.5,6.1c0,2.3-0.9,4.5-2.5,6.1l-9.8,9.7c-3.4,3.3-8.8,3.3-12.1,0l0,0
	c-0.6-0.6-1.1-1.3-1.5-2c-0.2-0.4-0.6-0.8-1.1-0.9s-1-0.1-1.4,0.1s-0.8,0.6-0.9,1.1s-0.1,1,0.1,1.5c0.6,1.1,1.3,2.1,2.2,2.9
	c2.3,2.3,5.5,3.6,8.8,3.6s6.4-1.3,8.7-3.6l9.8-9.7c2.3-2.3,3.6-5.5,3.6-8.8C104,6.1,102.7,2.9,100.4,0.6z"/>
<path class="st1" d="M107.3,52.8l1-0.9c0.2-0.1,0.4-0.3,0.5-0.5l0.5-0.5c0.3-0.3,0.7-0.7,1-1c0.7-0.7,1.3-1.3,1.9-2.1l0.5-0.5
	L113,47l0.2-0.3l0.9-1.1l1.2,0.9c-0.5,0.7-1.1,1.4-1.7,2.1c-0.3,0.3-0.6,0.7-0.9,1l-0.9,1l-0.5,0.5l-0.5,0.5l-1,0.9
	c-0.3,0.3-0.7,0.6-1,0.9c-0.3,0.3-0.7,0.6-1,0.9l1.7,2.1c1.6-1.3,3.1-2.7,4.5-4.2c0.7-0.7,1.4-1.5,2.1-2.3c0.3-0.4,0.7-0.8,0.9-1.2
	c0.3-0.4,0.7-0.8,0.9-1.2l0.8-1.1l-3.4-2.4c1-1.6,2-3.1,2.9-4.9l0.3-0.6c0.1-0.2,0.2-0.4,0.3-0.7l0.6-1.3l0.5-1.3l0.3-0.7l0.2-0.7
	l1.4,0.5c-1.2,3.4-2.8,6.6-4.7,9.6l2.2,1.5l0.8-1.3l0.8-1.3c0.1-0.2,0.3-0.4,0.4-0.7l0.4-0.7c0.2-0.5,0.5-0.9,0.7-1.4
	c0.4-0.9,0.9-1.8,1.2-2.8c0.2-0.5,0.4-0.9,0.5-1.4l0.5-1.4c0.1-0.2,0.1-0.4,0.2-0.7l0.2-0.7l-4-1.2l0.4-1.3l0.3-1.4l0.1-0.7l0.1-0.7
	l0.3-1.4l0.2-1.4l0.1-0.7l0-0.7l0.1-1.4c0-0.5,0-0.9,0-1.4l1.4,0l0,1.3l-0.1,1.3c0,0.9-0.2,1.8-0.3,2.6c0,0.4-0.1,0.9-0.2,1.3
	l-0.3,1.3l-0.3,1.3c-0.1,0.4-0.2,0.9-0.3,1.3l2.6,0.7c0.1-0.5,0.3-1,0.4-1.5c0.1-0.5,0.3-1,0.3-1.5c0.2-1,0.4-2,0.5-3
	c0.3-2,0.4-4.1,0.4-6.1l0-1.4l-4.1,0.1c-0.1-3.8-0.7-7.5-1.8-11.1l1.4-0.4c1,3.4,1.6,7,1.8,10.5l2.7-0.1l-0.1-1.5l-0.1-0.8
	c0-0.3-0.1-0.5-0.1-0.8l-0.2-1.5c-0.1-0.5-0.2-1-0.3-1.5c-0.1-1-0.4-2-0.7-3c-0.1-0.5-0.3-1-0.4-1.5c-0.1-0.5-0.3-1-0.4-1.5L124,4.2
	l-3.9,1.4c-0.7-1.8-1.4-3.5-2.2-5.2c-0.4-0.8-0.9-1.7-1.4-2.5c-0.3-0.4-0.5-0.8-0.8-1.2l-0.4-0.6c-0.1-0.2-0.3-0.4-0.4-0.6l1.2-0.8
	c2.1,2.9,3.7,6.1,5,9.4l2.5-1L123,1.8c-0.2-0.5-0.4-0.9-0.6-1.4l-0.3-0.7L121.7-1l-0.7-1.4l-0.8-1.3l-0.4-0.7L119.5-5
	c-0.3-0.4-0.5-0.9-0.8-1.3l-0.9-1.3c-0.1-0.2-0.3-0.4-0.4-0.5l-0.4-0.5l-3.3,2.5l-0.9-1.1l-0.9-1c-0.1-0.2-0.3-0.4-0.5-0.5l-0.5-0.5
	c-0.3-0.3-0.7-0.7-1-1c-0.7-0.7-1.3-1.3-2.1-1.9l-0.5-0.5l-0.3-0.2l-0.3-0.2l-1.1-0.9l0.9-1.2c0.7,0.5,1.4,1.1,2.1,1.7
	c0.3,0.3,0.7,0.6,1,0.9l1,0.9l0.5,0.5l0.5,0.5l0.9,1c0.3,0.3,0.6,0.7,0.9,1c0.3,0.3,0.6,0.7,0.9,1l2.1-1.7c-1.3-1.6-2.7-3.1-4.2-4.5
	c-0.7-0.7-1.5-1.4-2.3-2.1c-0.4-0.3-0.8-0.7-1.2-0.9c-0.4-0.3-0.8-0.7-1.2-0.9l-1.1-0.8l-2.4,3.4c-1.6-1-3.1-2-4.9-2.9l-0.6-0.3
	c-0.2-0.1-0.4-0.2-0.7-0.3l-1.3-0.6l-1.3-0.5l-0.7-0.3l-0.7-0.2l0.5-1.4c3.4,1.2,6.6,2.8,9.6,4.7l1.5-2.2l-1.3-0.8l-1.3-0.8
	c-0.2-0.1-0.4-0.3-0.7-0.4l-0.7-0.4c-0.5-0.2-0.9-0.5-1.4-0.7c-0.9-0.4-1.8-0.9-2.8-1.2c-0.5-0.2-0.9-0.4-1.4-0.5l-1.4-0.5
	c-0.2-0.1-0.4-0.1-0.7-0.2l-0.7-0.2l-1.2,4l-1.3-0.4l-1.4-0.3l-0.7-0.1l-0.7-0.1l-1.4-0.3L85-22.3l-0.7-0.1l-0.7,0l-1.4-0.1
	c-0.5,0-0.9,0-1.4,0l0-1.4l1.3,0l1.3,0.1c0.9,0,1.8,0.2,2.6,0.3c0.4,0,0.9,0.1,1.3,0.2l1.3,0.3l1.3,0.3c0.4,0.1,0.9,0.2,1.3,0.3
	l0.7-2.6c-0.5-0.1-1-0.3-1.5-0.4s-1-0.3-1.5-0.3c-1-0.2-2-0.4-3-0.5c-2-0.3-4.1-0.4-6.1-0.4l-1.4,0l0.1,4.1
	c-3.8,0.1-7.5,0.7-11.1,1.8l-0.4-1.4c3.4-1,7-1.6,10.5-1.8l-0.1-2.7l-1.5,0.1l-0.8,0.1c-0.3,0-0.5,0.1-0.8,0.1L73-26.2
	c-0.5,0.1-1,0.2-1.5,0.3c-1,0.1-2,0.4-3,0.7c-0.5,0.1-1,0.3-1.5,0.4c-0.5,0.1-1,0.3-1.5,0.4L64.2-24l1.4,3.9
	c-1.8,0.7-3.5,1.4-5.2,2.2c-0.8,0.4-1.7,0.9-2.5,1.4c-0.4,0.3-0.8,0.5-1.2,0.8l-0.6,0.4c-0.2,0.1-0.4,0.3-0.6,0.4l-0.8-1.2
	c2.9-2.1,6.1-3.7,9.4-5l-1-2.5L61.8-23c-0.5,0.2-0.9,0.4-1.4,0.6l-0.7,0.3L59-21.7l-1.4,0.7l-1.3,0.8l-0.7,0.4L55-19.5
	c-0.4,0.3-0.9,0.5-1.3,0.8l-1.3,0.9c-0.2,0.1-0.4,0.3-0.5,0.4l-0.5,0.4l2.5,3.3l-1.1,0.9l-1,0.9c-0.2,0.1-0.4,0.3-0.5,0.5l-0.5,0.5
	c-0.3,0.3-0.7,0.7-1,1c-0.7,0.7-1.3,1.3-1.9,2.1l-0.5,0.5L47.1-7l-0.2,0.3L46-5.6l-1.2-0.9c0.5-0.7,1.1-1.4,1.7-2.1
	c0.3-0.3,0.6-0.7,0.9-1l0.9-1l0.5-0.5l0.5-0.5l1-0.9c0.3-0.3,0.7-0.6,1-0.9c0.3-0.3,0.7-0.6,1-0.9l-1.7-2.1C49-15,47.5-13.6,46-12.1
	c-0.7,0.7-1.4,1.5-2.1,2.3C43.7-9.4,43.3-9,43-8.6c-0.3,0.4-0.7,0.8-0.9,1.2l-0.8,1.1l3.4,2.4c-1,1.6-2,3.1-2.9,4.9l-0.3,0.6
	c-0.1,0.2-0.2,0.4-0.3,0.7l-0.6,1.3l-0.5,1.3l-0.3,0.7l-0.2,0.7l-1.4-0.5C39.5,2.2,41.1-1,43-4l-2.2-1.5L40-4.2l-0.8,1.3
	c-0.1,0.2-0.3,0.4-0.4,0.7l-0.4,0.7C38.3-1,38-0.6,37.8-0.1c-0.4,0.9-0.9,1.8-1.2,2.8c-0.2,0.5-0.4,0.9-0.5,1.4l-0.5,1.4
	c-0.1,0.2-0.1,0.4-0.2,0.7l-0.2,0.7l4,1.2l-0.4,1.3l-0.3,1.4l-0.1,0.7l-0.1,0.7l-0.3,1.4l-0.2,1.4l-0.1,0.7l0,0.7l-0.1,1.4
	c0,0.5,0,0.9,0,1.4l-1.4,0l0-1.3l0.1-1.3c0-0.9,0.2-1.8,0.3-2.6c0-0.4,0.1-0.9,0.2-1.3l0.2-1.3l0.3-1.3c0.1-0.4,0.2-0.9,0.3-1.3
	l-2.6-0.7c-0.1,0.5-0.3,1-0.4,1.5c-0.1,0.5-0.3,1-0.3,1.5c-0.2,1-0.4,2-0.5,3c-0.3,2-0.4,4.1-0.4,6.1l0,1.4l4.1-0.1
	c0.1,3.8,0.7,7.5,1.8,11.1l-1.4,0.4c-1-3.4-1.6-7-1.8-10.5l-2.7,0.1l0.1,1.5l0.1,0.8c0,0.3,0.1,0.5,0.1,0.8l0.2,1.5
	c0.1,0.5,0.2,1,0.3,1.5c0.1,1,0.4,2,0.7,3c0.1,0.5,0.3,1,0.4,1.5c0.1,0.5,0.3,1,0.4,1.5l0.4,1.3l3.9-1.4c0.7,1.8,1.4,3.5,2.2,5.2
	c0.4,0.8,0.9,1.7,1.4,2.5c0.3,0.4,0.5,0.8,0.8,1.2l0.4,0.6c0.1,0.2,0.3,0.4,0.4,0.6l-1.2,0.8c-2.1-2.9-3.7-6.1-5-9.4l-2.5,1l0.6,1.4
	c0.2,0.5,0.4,0.9,0.6,1.4l0.3,0.7l0.4,0.7l0.7,1.4l0.8,1.3l0.4,0.7l0.4,0.7c0.3,0.4,0.5,0.9,0.8,1.3l0.9,1.3
	c0.1,0.2,0.3,0.4,0.4,0.5l0.4,0.5l3.3-2.5l0.9,1.1l0.9,1c0.1,0.2,0.3,0.4,0.5,0.5l0.5,0.5c0.3,0.3,0.7,0.7,1,1
	c0.7,0.7,1.3,1.3,2.1,1.9l0.5,0.5l0.3,0.2l0.3,0.2l1.1,0.9l-0.9,1.2c-0.7-0.5-1.4-1.1-2.1-1.7c-0.3-0.3-0.7-0.6-1-0.9l-1-0.9
	l-0.5-0.5l-0.5-0.5l-0.9-1c-0.3-0.3-0.6-0.7-0.9-1c-0.3-0.3-0.6-0.7-0.9-1l-2.1,1.7c1.3,1.6,2.7,3.1,4.2,4.5
	c0.7,0.7,1.5,1.4,2.3,2.1c0.4,0.3,0.8,0.7,1.2,0.9c0.4,0.3,0.8,0.7,1.2,0.9l1.1,0.8l2.4-3.4c1.6,1,3.1,2,4.9,2.9l0.6,0.3
	c0.2,0.1,0.4,0.2,0.7,0.3l1.3,0.6l1.3,0.5l0.7,0.3l0.7,0.2l-0.5,1.4c-3.4-1.2-6.6-2.8-9.6-4.7l-1.5,2.2l1.3,0.8l1.3,0.8
	c0.2,0.1,0.4,0.3,0.7,0.4l0.7,0.4c0.5,0.2,0.9,0.5,1.4,0.7c0.9,0.4,1.8,0.9,2.8,1.2c0.5,0.2,0.9,0.4,1.4,0.5l1.4,0.5
	c0.2,0.1,0.4,0.1,0.7,0.2l0.7,0.2l1.2-4l1.3,0.4l1.4,0.3l0.7,0.1l0.7,0.1l1.4,0.3l1.4,0.2l0.7,0.1l0.7,0l1.4,0.1c0.5,0,0.9,0,1.4,0
	l0,1.4l-1.3,0l-1.3-0.1c-0.9,0-1.8-0.2-2.7-0.3c-0.4,0-0.9-0.1-1.3-0.2l-1.3-0.2l-1.3-0.3c-0.4-0.1-0.9-0.2-1.3-0.3l-0.7,2.6
	c0.5,0.1,1,0.3,1.5,0.4c0.5,0.1,1,0.3,1.5,0.3c1,0.2,2,0.4,3,0.5c2,0.3,4.1,0.4,6.1,0.4l1.4,0l-0.1-4.1c3.8-0.1,7.5-0.7,11.1-1.8
	l0.4,1.4c-3.4,1-7,1.6-10.5,1.8l0.1,2.7l1.5-0.1l0.8-0.1c0.3,0,0.5-0.1,0.8-0.1l1.5-0.2c0.5-0.1,1-0.2,1.5-0.3c1-0.1,2-0.4,3-0.7
	c0.5-0.1,1-0.3,1.5-0.4c0.5-0.1,1-0.3,1.5-0.4l1.3-0.4l-1.4-3.9c1.8-0.7,3.5-1.4,5.2-2.2c0.8-0.4,1.7-0.9,2.5-1.4
	c0.4-0.3,0.8-0.5,1.2-0.8l0.6-0.4c0.2-0.1,0.4-0.3,0.6-0.4l0.8,1.2c-2.9,2.1-6.1,3.7-9.4,5l1,2.5l1.4-0.6c0.5-0.2,0.9-0.4,1.4-0.6
	l0.7-0.3l0.7-0.4l1.4-0.7l1.3-0.8l0.7-0.4l0.7-0.4c0.4-0.3,0.9-0.5,1.3-0.8l1.3-0.9c0.2-0.1,0.4-0.3,0.5-0.4l0.5-0.4l-2.5-3.3
	L107.3,52.8z M107.8,56.8c-0.2,0.1-0.4,0.3-0.6,0.4l-1.2,0.8c-0.4,0.3-0.8,0.5-1.2,0.8c-0.8,0.5-1.6,1-2.5,1.5
	c-0.2,0.1-0.4,0.2-0.6,0.3l-0.7,0.3l-0.7,0.3c-0.2,0.1-0.4,0.2-0.7,0.3c-0.9,0.4-1.7,0.8-2.6,1.2l-0.5-1.3c0.8-0.3,1.7-0.7,2.5-1.1
	c0.4-0.2,0.8-0.4,1.2-0.6c0.4-0.2,0.8-0.4,1.2-0.6l1.2-0.7l0.6-0.3l0.6-0.4l1.2-0.7c0.4-0.3,0.7-0.5,1.1-0.8l-1.6-2.2l-0.6,0.4
	c-0.2,0.1-0.4,0.3-0.7,0.4l-1.3,0.8c-0.4,0.3-0.9,0.5-1.3,0.8c-0.2,0.1-0.4,0.3-0.7,0.4l-0.7,0.4l-0.7,0.4l-0.3,0.2L98,58l-1.4,0.6
	c-0.5,0.2-0.9,0.4-1.4,0.6c-0.3,0.1-0.5,0.2-0.7,0.3l-0.7,0.3l1.3,3.9l-0.7,0.2c-0.4,0.1-0.9,0.3-1.4,0.4l-1.4,0.4L90.2,65l-0.7,0.1
	c-0.2,0-0.5,0.1-0.7,0.1l-1.4,0.3c-0.5,0.1-0.9,0.1-1.4,0.2c-0.5,0.1-0.9,0.1-1.4,0.2L83.1,66L83,64.6c3.6-0.3,7.2-0.9,10.6-2
	L92.8,60c-0.5,0.2-1,0.3-1.5,0.4l-0.7,0.2l-0.8,0.2c-0.5,0.1-1,0.3-1.5,0.3l-1.5,0.3l-0.4,0.1l-0.4,0l-0.8,0.1
	c-0.5,0.1-1,0.1-1.5,0.2l-1.5,0.1l-1.5,0l0.1,4.1h-0.7c-3.8,0-7.7-0.5-11.4-1.4l0.4-1.4c3.5,0.9,7.1,1.3,10.8,1.4V62l-1.5,0h-0.4
	l-0.4,0l-0.8-0.1c-1,0-2-0.2-3-0.3c-2-0.3-4-0.8-6-1.4l-1.2,3.9c-0.2-0.1-0.5-0.1-0.7-0.2c-3.7-1.2-7.2-2.8-10.4-4.9l0.8-1.2
	c3,2,6.4,3.5,9.8,4.6l0.8-2.6c-2-0.6-3.8-1.4-5.6-2.4c-0.5-0.3-0.9-0.5-1.4-0.7l-1.3-0.8c-0.4-0.3-0.9-0.5-1.3-0.8
	c-0.2-0.1-0.4-0.3-0.7-0.4l-0.6-0.4l-2.4,3.4l-0.6-0.4c-0.2-0.1-0.4-0.3-0.6-0.4l-0.6-0.4l-1.1-0.9l-1.1-0.9L49,54.1l-0.5-0.5l-1-1
	l-1-1L46,51.1c-0.2-0.2-0.3-0.4-0.5-0.5l-0.9-1.1l1.1-0.9c2.3,2.8,5,5.3,7.9,7.4l1.6-2.2c-1.6-1.2-3.2-2.5-4.7-4s-2.8-3-4.1-4.6
	l-3.3,2.5c-0.1-0.2-0.3-0.4-0.4-0.6l-0.8-1.2c-0.3-0.4-0.5-0.8-0.8-1.2c-0.5-0.8-1-1.6-1.5-2.5c-0.1-0.2-0.2-0.4-0.3-0.6L38.9,41
	l-0.3-0.7c-0.1-0.2-0.2-0.4-0.3-0.7c-0.4-0.9-0.8-1.7-1.2-2.6l1.3-0.5c0.3,0.8,0.7,1.7,1.1,2.5c0.2,0.4,0.4,0.8,0.6,1.2
	c0.2,0.4,0.4,0.8,0.6,1.2l0.7,1.2l0.3,0.6l0.4,0.6l0.7,1.2c0.3,0.4,0.5,0.7,0.8,1.1l2.2-1.6l-0.4-0.6c-0.1-0.2-0.3-0.4-0.4-0.7
	l-0.8-1.3c-0.3-0.4-0.5-0.9-0.8-1.3c-0.1-0.2-0.3-0.4-0.4-0.7l-0.4-0.7l-0.4-0.7l-0.2-0.3L42,37.8l-0.6-1.4
	c-0.2-0.5-0.4-0.9-0.6-1.4c-0.1-0.3-0.2-0.5-0.3-0.7l-0.3-0.7l-3.9,1.3l-0.2-0.7c-0.1-0.4-0.3-0.9-0.4-1.4l-0.4-1.4L34.9,30
	l-0.1-0.7c0-0.2-0.1-0.5-0.1-0.7l-0.3-1.4c-0.1-0.5-0.1-0.9-0.2-1.4c0-0.5-0.1-0.9-0.2-1.4l-0.1-1.4l1.4-0.1c0.3,3.6,0.9,7.2,2,10.6
	l2.6-0.8c-0.2-0.5-0.3-1-0.4-1.5l-0.2-0.7l-0.2-0.8c-0.1-0.5-0.3-1-0.3-1.5l-0.3-1.5l-0.1-0.4l0-0.4l-0.1-0.8
	c-0.1-0.5-0.1-1-0.2-1.5L38,22.1l0-1.5l-4.1,0.1v-0.7c0-3.8,0.5-7.7,1.4-11.4l1.4,0.4c-0.9,3.5-1.3,7.1-1.4,10.8H38l0-1.5v-0.4
	l0-0.4l0.1-0.8c0-1,0.2-2,0.3-3c0.3-2,0.8-4,1.4-6l-3.9-1.2c0.1-0.2,0.1-0.5,0.2-0.7C37.3,2,38.9-1.5,41-4.7L42.2-4
	c-2,3-3.5,6.4-4.6,9.8l2.6,0.8c0.6-2,1.4-3.8,2.4-5.6c0.3-0.4,0.5-0.9,0.7-1.4L44-1.7c0.3-0.4,0.5-0.9,0.8-1.3
	c0.1-0.2,0.3-0.4,0.4-0.7l0.4-0.6l-3.4-2.4l0.4-0.6c0.1-0.2,0.3-0.4,0.4-0.6l0.4-0.6l0.9-1.1l0.9-1.1l0.5-0.5l0.5-0.5l1-1l1-1
	l0.5-0.5c0.2-0.2,0.4-0.3,0.5-0.5l1.1-0.9l0.9,1.1c-2.8,2.3-5.3,5-7.4,7.9L46.2-5c1.2-1.6,2.5-3.2,4-4.7s3-2.8,4.6-4L52.3-17
	c0.2-0.1,0.4-0.3,0.6-0.4l1.2-0.8c0.4-0.3,0.8-0.5,1.2-0.8c0.8-0.5,1.6-1,2.5-1.5c0.2-0.1,0.4-0.2,0.6-0.3l0.7-0.3l0.7-0.3
	c0.2-0.1,0.4-0.2,0.7-0.3c0.9-0.4,1.7-0.8,2.6-1.2l0.5,1.3c-0.8,0.3-1.7,0.7-2.5,1.1c-0.4,0.2-0.8,0.4-1.2,0.6
	c-0.4,0.2-0.8,0.4-1.2,0.6l-1.2,0.7l-0.6,0.3L56.2-18l-1.2,0.7c-0.4,0.3-0.7,0.5-1.1,0.8l1.6,2.2l0.6-0.4c0.2-0.1,0.4-0.3,0.7-0.4
	l1.3-0.8c0.4-0.3,0.9-0.5,1.3-0.8c0.2-0.1,0.4-0.3,0.7-0.4l0.7-0.4l0.7-0.4l0.3-0.2l0.4-0.1l1.4-0.6c0.5-0.2,0.9-0.4,1.4-0.6
	c0.3-0.1,0.5-0.2,0.7-0.3l0.7-0.3L65-23.8l0.7-0.2c0.4-0.1,0.9-0.3,1.4-0.4l1.4-0.4l1.4-0.3l0.7-0.1c0.2,0,0.5-0.1,0.7-0.1l1.4-0.3
	c0.5-0.1,0.9-0.1,1.4-0.2c0.5,0,0.9-0.1,1.4-0.2l1.4-0.1l0.1,1.4c-3.6,0.3-7.2,0.9-10.6,2l0.8,2.6c0.5-0.2,1-0.3,1.5-0.4l0.7-0.2
	l0.8-0.2c0.5-0.1,1-0.3,1.5-0.3l1.5-0.3l0.4-0.1l0.4,0l0.8-0.1c0.5-0.1,1-0.1,1.5-0.2l1.5-0.1l1.5,0l-0.1-4.1H80
	c3.8,0,7.7,0.5,11.4,1.4L91-23.5c-3.5-0.9-7.1-1.3-10.8-1.4v2.7l1.5,0h0.4l0.4,0l0.8,0.1c1,0,2,0.2,3,0.3c2,0.3,4,0.8,6,1.4l1.2-3.9
	c0.2,0.1,0.5,0.1,0.7,0.2c3.7,1.2,7.2,2.8,10.4,4.9l-0.8,1.2c-3-2-6.4-3.5-9.8-4.6L93.3-20c2,0.6,3.8,1.4,5.6,2.4
	c0.4,0.3,0.9,0.5,1.4,0.7l1.3,0.8c0.4,0.3,0.9,0.5,1.3,0.8c0.2,0.1,0.4,0.3,0.7,0.4l0.6,0.4l2.4-3.4l0.6,0.4
	c0.2,0.1,0.4,0.3,0.6,0.4l0.6,0.4l1.1,0.9l1.1,0.9l0.5,0.5l0.5,0.5l1,1l1,1l0.5,0.5c0.2,0.2,0.3,0.4,0.5,0.5l0.9,1.1l-1.1,0.9
	c-2.3-2.8-5-5.3-7.9-7.4l-1.6,2.2c1.6,1.2,3.2,2.5,4.7,4c1.4,1.4,2.8,3,4,4.6l3.3-2.5c0.1,0.2,0.3,0.4,0.4,0.6l0.8,1.2
	c0.3,0.4,0.5,0.8,0.8,1.2c0.5,0.8,1,1.6,1.5,2.5c0.1,0.2,0.2,0.4,0.3,0.6l0.3,0.7l0.3,0.7c0.1,0.2,0.2,0.4,0.3,0.7
	c0.4,0.9,0.8,1.7,1.2,2.6l-1.3,0.5c-0.3-0.8-0.7-1.7-1.1-2.5c-0.2-0.4-0.4-0.8-0.6-1.2c-0.2-0.4-0.4-0.8-0.6-1.2l-0.7-1.2l-0.3-0.6
	L117.9-4l-0.7-1.2c-0.3-0.4-0.5-0.7-0.8-1.1l-2.2,1.6l0.4,0.6c0.1,0.2,0.3,0.4,0.4,0.7l0.8,1.3c0.3,0.4,0.5,0.9,0.8,1.3
	c0.1,0.2,0.3,0.4,0.4,0.7l0.4,0.7l0.4,0.7l0.2,0.3l0.1,0.4l0.6,1.4c0.2,0.5,0.4,0.9,0.6,1.4c0.1,0.3,0.2,0.5,0.3,0.7l0.3,0.7
	l3.9-1.3l0.2,0.7c0.1,0.4,0.3,0.9,0.4,1.4l0.4,1.4l0.3,1.4l0.1,0.7c0,0.2,0.1,0.5,0.1,0.7l0.3,1.4c0.1,0.5,0.1,0.9,0.2,1.4
	c0.1,0.5,0.1,0.9,0.2,1.4l0.1,1.4l-1.4,0.1c-0.3-3.6-0.9-7.2-2-10.6l-2.6,0.8c0.2,0.5,0.3,1,0.4,1.5l0.2,0.7l0.2,0.8
	c0.1,0.5,0.3,1,0.3,1.5l0.3,1.5l0.1,0.4l0,0.4l0.1,0.8c0.1,0.5,0.1,1,0.2,1.5l0.1,1.5l0,1.5l4.1-0.1v0.7c0,3.8-0.5,7.7-1.4,11.4
	l-1.4-0.4c0.9-3.5,1.3-7.1,1.4-10.8h-2.7l0,1.5V22l0,0.4l-0.1,0.8c0,1-0.2,2-0.3,3c-0.3,2-0.8,4-1.4,6l3.9,1.2
	c-0.1,0.2-0.1,0.5-0.2,0.7c-1.2,3.7-2.8,7.2-4.9,10.4l-1.2-0.8c2-3,3.5-6.4,4.6-9.8l-2.6-0.8c-0.6,2-1.4,3.8-2.4,5.6
	c-0.3,0.4-0.5,0.9-0.7,1.4l-0.8,1.3c-0.3,0.4-0.5,0.9-0.8,1.3c-0.1,0.2-0.3,0.4-0.4,0.7l-0.4,0.6l3.4,2.4l-0.4,0.6
	c-0.1,0.2-0.3,0.4-0.4,0.6l-0.4,0.6l-0.9,1.1l-0.9,1.1l-0.5,0.5l-0.5,0.5l-1,1l-1,1l-0.5,0.5c-0.2,0.2-0.4,0.3-0.5,0.5l-1.1,0.9
	l-0.9-1.1c2.8-2.3,5.3-5,7.4-7.9l-2.2-1.6c-1.2,1.6-2.5,3.2-4,4.7c-1.4,1.4-3,2.8-4.6,4.1L107.8,56.8z"/>
</svg>
