<?xml version="1.0" encoding="utf-8"?>
<!-- Generator: Adobe Illustrator 19.0.0, SVG Export Plug-In . SVG Version: 6.00 Build 0)  -->
<svg version="1.1" id="图层_1" xmlns="http://www.w3.org/2000/svg" xmlns:xlink="http://www.w3.org/1999/xlink" x="0px" y="0px"
	 viewBox="-569 396.9 53 49" style="enable-background:new -569 396.9 53 49;" xml:space="preserve">
<style type="text/css">
	.st0{fill:#ffffff;}
</style>
<path class="st0" d="M-523.1,445.9h-38.8c-3.9,0-7.1-3.2-7.1-7.1v-32.2c0-3.9,3.2-7.1,7.1-7.1h2.1v0c0.6,0.2,1,0.7,1,1.3
	c0,0.6-0.4,1.2-1,1.3h0c-0.1,0-0.2,0-0.3,0s-0.2,0-0.3,0h-1.2c-2.6,0-4.7,2.1-4.7,4.7v31.5c0,2.6,2.1,4.7,4.7,4.7h38.1
	c2.6,0,4.7-2.1,4.7-4.7v-31.5c0-2.6-2.1-4.7-4.7-4.7h-1.5c-0.1,0-0.2,0-0.3,0c-0.8,0-1.4-0.6-1.4-1.4c0-0.7,0.6-1.4,1.4-1.4h0h2.2
	c3.9,0,7.1,3.2,7.1,7.1v32.2C-516,442.7-519.2,445.9-523.1,445.9z M-527.8,431.2c0.8,0,1.4,0.6,1.4,1.4c0,0.8-0.6,1.4-1.4,1.4h-29.4
	c-0.8,0-1.4-0.6-1.4-1.4c0-0.8,0.6-1.4,1.4-1.4H-527.8z M-527.8,420.8h-29.4c-0.8,0-1.4-0.6-1.4-1.4c0-0.8,0.6-1.4,1.4-1.4h29.4
	c0.8,0,1.4,0.6,1.4,1.4C-526.4,420.2-527,420.8-527.8,420.8z M-530.5,406.6c-0.8,0-1.4-0.6-1.4-1.4v-7.1c0-0.7,0.6-1.4,1.4-1.4
	c0.8,0,1.4,0.6,1.4,1.4v7.1C-529.1,406-529.7,406.6-530.5,406.6z M-536.2,403.1h-12.7c-0.7,0-1.4-0.6-1.4-1.4c0-0.7,0.6-1.4,1.4-1.4
	h12.7c0.8,0,1.4,0.6,1.4,1.4C-534.8,402.5-535.4,403.1-536.2,403.1z M-554.5,406.6c-0.8,0-1.4-0.6-1.4-1.4v-7.1
	c0-0.7,0.6-1.4,1.4-1.4c0.7,0,1.4,0.6,1.4,1.4v7.1C-553.2,406-553.8,406.6-554.5,406.6z"/>
</svg>
