<?xml version="1.0" encoding="utf-8"?>
<!-- Generator: Adobe Illustrator 19.0.0, SVG Export Plug-In . SVG Version: 6.00 Build 0)  -->
<svg version="1.1" id="图层_1" xmlns="http://www.w3.org/2000/svg" xmlns:xlink="http://www.w3.org/1999/xlink" x="0px" y="0px"
	 viewBox="-564 388.9 62 64" style="enable-background:new -564 388.9 62 64;" xml:space="preserve">
<style type="text/css">
	.st0{fill:#CF9155;}
</style>
<path class="st0" d="M-510.4,421.9v-2.8h8.4v2.8H-510.4z M-517.3,403.1l5.7-5.8l1.9,1.9l-5.7,5.8L-517.3,403.1z M-517.3,423
	c0,0.5,0,0.9,0,1.4V439l0,0h-31v-14.5c0-0.5,0-0.9,0-1.4c0-2.3-0.1-4.7,0.5-6.6c1.2-4.1,3.5-7.1,7-9.2c1.5-0.9,3.1-1.5,5.1-2l0.2,0
	l1.9-0.2l1.8,0l0.1,0c0.3,0.1,0.7,0.1,1,0.1c0.9,0.1,1.7,0.2,2.6,0.5c5.2,1.7,8.8,5.4,10.4,10.8C-517.2,418.3-517.2,420.7-517.3,423
	z M-520.3,417.2c-1.3-4.5-4.3-7.6-8.6-9c-0.6-0.2-1.3-0.3-2.1-0.4c-0.3,0-0.6-0.1-0.9-0.1l-1.5,0l-1.7,0.2c-1.6,0.4-3,0.9-4.2,1.6
	c-2.9,1.8-4.8,4.3-5.8,7.7c-0.4,1.5-0.4,3.7-0.4,5.8c0,0.5,0,1,0,1.5v11.8l0,0h25.6v-11.9c0-0.5,0-1,0-1.4
	C-519.9,420.9-519.9,418.7-520.3,417.2z M-534.1,388.9h2.7v8.5h-2.7V388.9z M-555.6,399.2l1.9-1.9l5.7,5.8l-1.9,1.9L-555.6,399.2z
	 M-510.7,445.7h-44.9V443h44.9V445.7z M-564,419.2h8.4v2.8h-8.4V419.2z M-506.7,452.9h-52.6v-2.7h52.6V452.9z"/>
</svg>
