<?xml version="1.0" encoding="utf-8"?>
<!-- Generator: Adobe Illustrator 19.0.0, SVG Export Plug-In . SVG Version: 6.00 Build 0)  -->
<svg version="1.1" id="图层_1" xmlns="http://www.w3.org/2000/svg" xmlns:xlink="http://www.w3.org/1999/xlink" x="0px" y="0px"
	 viewBox="-29 1 29 29" style="enable-background:new -29 1 29 29;" xml:space="preserve">
<style type="text/css">
	.st0{fill:#CF9155;}
</style>
<path class="st0" d="M0,15.5C0,7.5-6.5,1-14.5,1C-22.5,1-29,7.5-29,15.5c0,8,6.5,14.5,14.5,14.5C-6.5,30,0,23.5,0,15.5L0,15.5
	L0,15.5z M-12.2,22.8c-0.7,0.3-1.2,0.5-1.6,0.6c-0.4,0.1-0.8,0.2-1.3,0.2c-0.8,0-1.4-0.2-1.8-0.6c-0.4-0.4-0.7-0.9-0.7-1.5
	c0-0.2,0-0.5,0-0.7c0-0.2,0.1-0.5,0.2-0.8l0.8-2.9c0.1-0.3,0.1-0.5,0.2-0.8c0-0.2,0.1-0.5,0.1-0.7c0-0.4-0.1-0.6-0.2-0.8
	c-0.1-0.1-0.4-0.2-0.9-0.2c-0.2,0-0.4,0-0.6,0.1c-0.2,0.1-0.4,0.1-0.6,0.2l0.2-0.9c0.5-0.2,1-0.4,1.5-0.6c0.5-0.2,0.9-0.2,1.4-0.2
	c0.8,0,1.4,0.2,1.8,0.6c0.4,0.4,0.6,0.9,0.6,1.5c0,0.1,0,0.3,0,0.7c0,0.3-0.1,0.6-0.2,0.9l-0.8,2.9c-0.1,0.2-0.1,0.5-0.2,0.8
	c-0.1,0.3-0.1,0.5-0.1,0.7c0,0.4,0.1,0.6,0.3,0.8c0.2,0.1,0.5,0.2,0.9,0.2c0.2,0,0.4,0,0.7-0.1c0.2-0.1,0.4-0.1,0.5-0.2L-12.2,22.8
	L-12.2,22.8z M-12.4,11.2c-0.4,0.4-0.8,0.5-1.4,0.5c-0.5,0-1-0.2-1.4-0.5c-0.4-0.3-0.6-0.8-0.6-1.3c0-0.5,0.2-0.9,0.6-1.3
	c0.4-0.4,0.8-0.5,1.4-0.5c0.5,0,1,0.2,1.4,0.5C-12,9-11.8,9.5-11.8,10C-11.8,10.4-12,10.9-12.4,11.2z"/>
</svg>
